  0
SECTION
  2
HEADER
  9
$ACADVER
  1
AC1014
  9
$HANDSEED
  5
FFFF
  9
$MEASUREMENT
 70
     1
  0
ENDSEC
  0
SECTION
  2
TABLES
  0
TABLE
  2
VPORT
  5
8
330
0
100
AcDbSymbolTable
 70
     4
  0
VPORT
  5
2E
330
8
100
AcDbSymbolTableRecord
100
AcDbViewportTableRecord
  2
*ACTIVE
 70
     0
 10
0.0
 20
0.0
 11
1.0
 21
1.0
 12
210.0
 22
148.5
 13
0.0
 23
0.0
 14
10.0
 24
10.0
 15
10.0
 25
10.0
 16
0.0
 26
0.0
 36
1.0
 17
0.0
 27
0.0
 37
0.0
 40
341.0
 41
1.24
 42
50.0
 43
0.0
 44
0.0
 50
0.0
 51
0.0
 71
     0
 72
   100
 73
     1
 74
     3
 75
     0
 76
     0
 77
     0
 78
     0
  0
ENDTAB
  0
TABLE
  2
LTYPE
  5
5
330
0
100
AcDbSymbolTable
 70
     1
  0
LTYPE
  5
14
330
5
100
AcDbSymbolTableRecord
100
AcDbLinetypeTableRecord
  2
BYBLOCK
 70
     0
  3

 72
    65
 73
     0
 40
0.0
  0
LTYPE
  5
15
330
5
100
AcDbSymbolTableRecord
100
AcDbLinetypeTableRecord
  2
BYLAYER
 70
     0
  3

 72
    65
 73
     0
 40
0.0
  0
LTYPE
  5
16
330
5
100
AcDbSymbolTableRecord
100
AcDbLinetypeTableRecord
  2
CONTINUOUS
 70
     0
  3
Solid line
 72
    65
 73
     0
 40
0.0
  0
ENDTAB
  0
TABLE
  2
LAYER
  5
2
100
AcDbSymbolTable
 70
2
  0
LAYER
  5
50
100
AcDbSymbolTableRecord
100
AcDbLayerTableRecord
  2
0
 70
0
  6
CONTINUOUS
  0
LAYER
  5
51
100
AcDbSymbolTableRecord
100
AcDbLayerTableRecord
  2
Layer_1
 70
0
  6
CONTINUOUS
  0
ENDTAB
  0
TABLE
  2
STYLE
  5
3
330
0
100
AcDbSymbolTable
 70
     1
  0
STYLE
  5
11
330
3
100
AcDbSymbolTableRecord
100
AcDbTextStyleTableRecord
  2
STANDARD
 70
     0
 40
0.0
 41
1.0
 50
0.0
 71
     0
 42
2.5
  3
txt
  4

  0
ENDTAB
  0
TABLE
  2
VIEW
  5
6
330
0
100
AcDbSymbolTable
 70
     0
  0
ENDTAB
  0
TABLE
  2
UCS
  5
7
330
0
100
AcDbSymbolTable
 70
     0
  0
ENDTAB
  0
TABLE
  2
APPID
  5
9
330
0
100
AcDbSymbolTable
 70
     2
  0
APPID
  5
12
330
9
100
AcDbSymbolTableRecord
100
AcDbRegAppTableRecord
  2
ACAD
 70
     0
  0
ENDTAB
  0
TABLE
  2
DIMSTYLE
  5
A
330
0
100
AcDbSymbolTable
 70
     1
  0
DIMSTYLE
105
27
330
A
100
AcDbSymbolTableRecord
100
AcDbDimStyleTableRecord
  2
ISO-25
 70
     0
  3

  4

  5

  6

  7

 40
1.0
 41
2.5
 42
0.625
 43
3.75
 44
1.25
 45
0.0
 46
0.0
 47
0.0
 48
0.0
140
2.5
141
2.5
142
0.0
143
0.03937007874016
144
1.0
145
0.0
146
1.0
147
0.625
 71
     0
 72
     0
 73
     0
 74
     0
 75
     0
 76
     0
 77
     1
 78
     8
170
     0
171
     3
172
     1
173
     0
174
     0
175
     0
176
     0
177
     0
178
     0
270
     2
271
     2
272
     2
273
     2
274
     3
340
11
275
     0
280
     0
281
     0
282
     0
283
     0
284
     8
285
     0
286
     0
287
     3
288
     0
  0
ENDTAB
  0
TABLE
  2
BLOCK_RECORD
  5
1
330
0
100
AcDbSymbolTable
 70
     1
  0
BLOCK_RECORD
  5
1F
330
1
100
AcDbSymbolTableRecord
100
AcDbBlockTableRecord
  2
*MODEL_SPACE
  0
BLOCK_RECORD
  5
1B
330
1
100
AcDbSymbolTableRecord
100
AcDbBlockTableRecord
  2
*PAPER_SPACE
  0
ENDTAB
  0
ENDSEC
  0
SECTION
  2
BLOCKS
  0
BLOCK
  5
20
330
1F
100
AcDbEntity
  8
0
100
AcDbBlockBegin
  2
*MODEL_SPACE
 70
     0
 10
0.0
 20
0.0
 30
0.0
  3
*MODEL_SPACE
  1

  0
ENDBLK
  5
21
330
1F
100
AcDbEntity
  8
0
100
AcDbBlockEnd
  0
BLOCK
  5
1C
330
1B
100
AcDbEntity
 67
     1
  8
0
100
AcDbBlockBegin
  2
*PAPER_SPACE
  1

  0
ENDBLK
  5
1D
330
1B
100
AcDbEntity
 67
     1
  8
0
100
AcDbBlockEnd
  0
ENDSEC
  0
SECTION
  2
ENTITIES
  0
SPLINE
  5
100
100
AcDbEntity
  8
Layer_1
 62
7
100
AcDbSpline
 70
8
 71
3
 72
8
 73
4
 74
0
 40
0
 40
0
 40
0
 40
0
 40
1
 40
1
 40
1
 40
1
 10
2.175846
 20
0.002365
 30
0.0
 10
2.156003
 20
0.005767
 30
0.0
 10
2.088539
 20
0.060844
 30
0.0
 10
2.053956
 20
0.103647
 30
0.0
  0
SPLINE
  5
101
100
AcDbEntity
  8
Layer_1
 62
7
100
AcDbSpline
 70
8
 71
3
 72
8
 73
4
 74
0
 40
0
 40
0
 40
0
 40
0
 40
1
 40
1
 40
1
 40
1
 10
2.053956
 20
0.103647
 30
0.0
 10
2.013420
 20
0.153991
 30
0.0
 10
1.957861
 20
0.269587
 30
0.0
 10
1.932350
 20
0.357660
 30
0.0
  0
SPLINE
  5
102
100
AcDbEntity
  8
Layer_1
 62
7
100
AcDbSpline
 70
8
 71
3
 72
8
 73
4
 74
0
 40
0
 40
0
 40
0
 40
0
 40
1
 40
1
 40
1
 40
1
 10
1.932350
 20
0.357660
 30
0.0
 10
1.896917
 20
0.478529
 30
0.0
 10
1.882460
 20
0.677425
 30
0.0
 10
1.896350
 20
0.846123
 30
0.0
  0
SPLINE
  5
103
100
AcDbEntity
  8
Layer_1
 62
7
100
AcDbSpline
 70
8
 71
3
 72
8
 73
4
 74
0
 40
0
 40
0
 40
0
 40
0
 40
1
 40
1
 40
1
 40
1
 10
1.896350
 20
0.846123
 30
0.0
 10
1.898957
 20
0.894256
 30
0.0
 10
1.898957
 20
0.896552
 30
0.0
 10
1.890680
 20
0.888246
 30
0.0
  0
SPLINE
  5
104
100
AcDbEntity
  8
Layer_1
 62
7
100
AcDbSpline
 70
8
 71
3
 72
8
 73
4
 74
0
 40
0
 40
0
 40
0
 40
0
 40
1
 40
1
 40
1
 40
1
 10
1.890680
 20
0.888246
 30
0.0
 10
1.885011
 20
0.883427
 30
0.0
 10
1.865168
 20
0.858539
 30
0.0
 10
1.847594
 20
0.832970
 30
0.0
  0
SPLINE
  5
105
100
AcDbEntity
  8
Layer_1
 62
7
100
AcDbSpline
 70
8
 71
3
 72
8
 73
4
 74
0
 40
0
 40
0
 40
0
 40
0
 40
1
 40
1
 40
1
 40
1
 10
1.847594
 20
0.832970
 30
0.0
 10
1.800539
 20
0.766073
 30
0.0
 10
1.707562
 20
0.673550
 30
0.0
 10
1.652854
 20
0.639874
 30
0.0
  0
SPLINE
  5
106
100
AcDbEntity
  8
Layer_1
 62
7
100
AcDbSpline
 70
8
 71
3
 72
8
 73
4
 74
0
 40
0
 40
0
 40
0
 40
0
 40
1
 40
1
 40
1
 40
1
 10
1.652854
 20
0.639874
 30
0.0
 10
1.576602
 20
0.592933
 30
0.0
 10
1.534082
 20
0.581169
 30
0.0
 10
1.424948
 20
0.577484
 30
0.0
  0
SPLINE
  5
107
100
AcDbEntity
  8
Layer_1
 62
7
100
AcDbSpline
 70
8
 71
3
 72
8
 73
4
 74
0
 40
0
 40
0
 40
0
 40
0
 40
1
 40
1
 40
1
 40
1
 10
1.424948
 20
0.577484
 30
0.0
 10
1.303342
 20
0.573232
 30
0.0
 10
1.090460
 20
0.594775
 30
0.0
 10
1.015880
 20
0.618643
 30
0.0
  0
SPLINE
  5
108
100
AcDbEntity
  8
Layer_1
 62
7
100
AcDbSpline
 70
8
 71
3
 72
8
 73
4
 74
0
 40
0
 40
0
 40
0
 40
0
 40
1
 40
1
 40
1
 40
1
 10
1.015880
 20
0.618643
 30
0.0
 10
0.984983
 20
0.628564
 30
0.0
 10
0.904762
 20
0.669100
 30
0.0
 10
0.872731
 20
0.691068
 30
0.0
  0
SPLINE
  5
109
100
AcDbEntity
  8
Layer_1
 62
7
100
AcDbSpline
 70
8
 71
3
 72
8
 73
4
 74
0
 40
0
 40
0
 40
0
 40
0
 40
1
 40
1
 40
1
 40
1
 10
0.872731
 20
0.691068
 30
0.0
 10
0.835313
 20
0.716863
 30
0.0
 10
0.726463
 20
0.822794
 30
0.0
 10
0.704920
 20
0.854145
 30
0.0
  0
SPLINE
  5
10a
100
AcDbEntity
  8
Layer_1
 62
7
100
AcDbSpline
 70
8
 71
3
 72
8
 73
4
 74
0
 40
0
 40
0
 40
0
 40
0
 40
1
 40
1
 40
1
 40
1
 10
0.704920
 20
0.854145
 30
0.0
 10
0.693581
 20
0.868319
 30
0.0
 10
0.687912
 20
0.880791
 30
0.0
 10
0.685077
 20
0.882492
 30
0.0
  0
SPLINE
  5
10b
100
AcDbEntity
  8
Layer_1
 62
7
100
AcDbSpline
 70
8
 71
3
 72
8
 73
4
 74
0
 40
0
 40
0
 40
0
 40
0
 40
1
 40
1
 40
1
 40
1
 10
0.685077
 20
0.882492
 30
0.0
 10
0.683348
 20
0.884193
 30
0.0
 10
0.673739
 20
0.897799
 30
0.0
 10
0.665235
 20
0.913078
 30
0.0
  0
SPLINE
  5
10c
100
AcDbEntity
  8
Layer_1
 62
7
100
AcDbSpline
 70
8
 71
3
 72
8
 73
4
 74
0
 40
0
 40
0
 40
0
 40
0
 40
1
 40
1
 40
1
 40
1
 10
0.665235
 20
0.913078
 30
0.0
 10
0.648227
 20
0.942870
 30
0.0
 10
0.645392
 20
0.967871
 30
0.0
 10
0.653896
 20
1.005770
 30
0.0
  0
SPLINE
  5
10d
100
AcDbEntity
  8
Layer_1
 62
7
100
AcDbSpline
 70
8
 71
3
 72
8
 73
4
 74
0
 40
0
 40
0
 40
0
 40
0
 40
1
 40
1
 40
1
 40
1
 10
0.653896
 20
1.005770
 30
0.0
 10
0.668069
 20
1.058778
 30
0.0
 10
0.836164
 20
1.204309
 30
0.0
 10
0.942973
 20
1.256835
 30
0.0
  0
SPLINE
  5
10e
100
AcDbEntity
  8
Layer_1
 62
7
100
AcDbSpline
 70
8
 71
3
 72
8
 73
4
 74
0
 40
0
 40
0
 40
0
 40
0
 40
1
 40
1
 40
1
 40
1
 10
0.942973
 20
1.256835
 30
0.0
 10
0.971603
 20
1.271008
 30
0.0
 10
0.995131
 20
1.284615
 30
0.0
 10
0.995414
 20
1.287024
 30
0.0
  0
SPLINE
  5
10f
100
AcDbEntity
  8
Layer_1
 62
7
100
AcDbSpline
 70
8
 71
3
 72
8
 73
4
 74
0
 40
0
 40
0
 40
0
 40
0
 40
1
 40
1
 40
1
 40
1
 10
0.995414
 20
1.287024
 30
0.0
 10
0.995669
 20
1.289623
 30
0.0
 10
0.972737
 20
1.291559
 30
0.0
 10
0.943257
 20
1.291843
 30
0.0
  0
SPLINE
  5
110
100
AcDbEntity
  8
Layer_1
 62
7
100
AcDbSpline
 70
8
 71
3
 72
8
 73
4
 74
0
 40
0
 40
0
 40
0
 40
0
 40
1
 40
1
 40
1
 40
1
 10
0.943257
 20
1.291843
 30
0.0
 10
0.857650
 20
1.292067
 30
0.0
 10
0.678501
 20
1.308000
 30
0.0
 10
0.615118
 20
1.320983
 30
0.0
  0
SPLINE
  5
111
100
AcDbEntity
  8
Layer_1
 62
7
100
AcDbSpline
 70
8
 71
3
 72
8
 73
4
 74
0
 40
0
 40
0
 40
0
 40
0
 40
1
 40
1
 40
1
 40
1
 10
0.615118
 20
1.320983
 30
0.0
 10
0.581102
 20
1.328070
 30
0.0
 10
0.531496
 20
1.344227
 30
0.0
 10
0.497764
 20
1.358996
 30
0.0
  0
SPLINE
  5
112
100
AcDbEntity
  8
Layer_1
 62
7
100
AcDbSpline
 70
8
 71
3
 72
8
 73
4
 74
0
 40
0
 40
0
 40
0
 40
0
 40
1
 40
1
 40
1
 40
1
 10
0.497764
 20
1.358996
 30
0.0
 10
0.444189
 20
1.382807
 30
0.0
 10
0.434551
 20
1.389808
 30
0.0
 10
0.377291
 20
1.447635
 30
0.0
  0
SPLINE
  5
113
100
AcDbEntity
  8
Layer_1
 62
7
100
AcDbSpline
 70
8
 71
3
 72
8
 73
4
 74
0
 40
0
 40
0
 40
0
 40
0
 40
1
 40
1
 40
1
 40
1
 10
0.377291
 20
1.447635
 30
0.0
 10
0.342992
 20
1.482133
 30
0.0
 10
0.293669
 20
1.536870
 30
0.0
 10
0.267024
 20
1.569270
 30
0.0
  0
SPLINE
  5
114
100
AcDbEntity
  8
Layer_1
 62
7
100
AcDbSpline
 70
8
 71
3
 72
8
 73
4
 74
0
 40
0
 40
0
 40
0
 40
0
 40
1
 40
1
 40
1
 40
1
 10
0.267024
 20
1.569270
 30
0.0
 10
0.241512
 20
1.601670
 30
0.0
 10
0.204945
 20
1.643878
 30
0.0
 10
0.186803
 20
1.663096
 30
0.0
  0
SPLINE
  5
115
100
AcDbEntity
  8
Layer_1
 62
7
100
AcDbSpline
 70
8
 71
3
 72
8
 73
4
 74
0
 40
0
 40
0
 40
0
 40
0
 40
1
 40
1
 40
1
 40
1
 10
0.186803
 20
1.663096
 30
0.0
 10
0.128409
 20
1.726026
 30
0.0
 10
0.068882
 20
1.810867
 30
0.0
 10
0.034299
 20
1.880485
 30
0.0
  0
SPLINE
  5
116
100
AcDbEntity
  8
Layer_1
 62
7
100
AcDbSpline
 70
8
 71
3
 72
8
 73
4
 74
0
 40
0
 40
0
 40
0
 40
0
 40
1
 40
1
 40
1
 40
1
 10
0.034299
 20
1.880485
 30
0.0
 10
0.002835
 20
1.943641
 30
0.0
 10
-0.000000
 20
1.952117
 30
0.0
 10
-0.000000
 20
1.989874
 30
0.0
  0
SPLINE
  5
117
100
AcDbEntity
  8
Layer_1
 62
7
100
AcDbSpline
 70
8
 71
3
 72
8
 73
4
 74
0
 40
0
 40
0
 40
0
 40
0
 40
1
 40
1
 40
1
 40
1
 10
-0.000000
 20
1.989874
 30
0.0
 10
-0.000000
 20
2.027178
 30
0.0
 10
0.001219
 20
2.032507
 30
0.0
 10
0.017008
 20
2.049657
 30
0.0
  0
SPLINE
  5
118
100
AcDbEntity
  8
Layer_1
 62
7
100
AcDbSpline
 70
8
 71
3
 72
8
 73
4
 74
0
 40
0
 40
0
 40
0
 40
0
 40
1
 40
1
 40
1
 40
1
 10
0.017008
 20
2.049657
 30
0.0
 10
0.046205
 20
2.080073
 30
0.0
 10
0.111118
 20
2.108051
 30
0.0
 10
0.200409
 20
2.128460
 30
0.0
  0
SPLINE
  5
119
100
AcDbEntity
  8
Layer_1
 62
7
100
AcDbSpline
 70
8
 71
3
 72
8
 73
4
 74
0
 40
0
 40
0
 40
0
 40
0
 40
1
 40
1
 40
1
 40
1
 10
0.200409
 20
2.128460
 30
0.0
 10
0.278362
 20
2.146318
 30
0.0
 10
0.285732
 20
2.146885
 30
0.0
 10
0.386929
 20
2.144334
 30
0.0
  0
SPLINE
  5
11a
100
AcDbEntity
  8
Layer_1
 62
7
100
AcDbSpline
 70
8
 71
3
 72
8
 73
4
 74
0
 40
0
 40
0
 40
0
 40
0
 40
1
 40
1
 40
1
 40
1
 10
0.386929
 20
2.144334
 30
0.0
 10
0.534614
 20
2.140366
 30
0.0
 10
0.616252
 20
2.125626
 30
0.0
 10
0.871172
 20
2.056545
 30
0.0
  0
SPLINE
  5
11b
100
AcDbEntity
  8
Layer_1
 62
7
100
AcDbSpline
 70
8
 71
3
 72
8
 73
4
 74
0
 40
0
 40
0
 40
0
 40
0
 40
1
 40
1
 40
1
 40
1
 10
0.871172
 20
2.056545
 30
0.0
 10
0.907455
 20
2.046624
 30
0.0
 10
0.999581
 20
2.016407
 30
0.0
 10
1.075833
 20
1.989251
 30
0.0
  0
SPLINE
  5
11c
100
AcDbEntity
  8
Layer_1
 62
7
100
AcDbSpline
 70
8
 71
3
 72
8
 73
4
 74
0
 40
0
 40
0
 40
0
 40
0
 40
1
 40
1
 40
1
 40
1
 10
1.075833
 20
1.989251
 30
0.0
 10
1.152085
 20
1.962038
 30
0.0
 10
1.275109
 20
1.919037
 30
0.0
 10
1.349376
 20
1.893581
 30
0.0
  0
SPLINE
  5
11d
100
AcDbEntity
  8
Layer_1
 62
7
100
AcDbSpline
 70
8
 71
3
 72
8
 73
4
 74
0
 40
0
 40
0
 40
0
 40
0
 40
1
 40
1
 40
1
 40
1
 10
1.349376
 20
1.893581
 30
0.0
 10
1.533345
 20
1.830567
 30
0.0
 10
1.738970
 20
1.727585
 30
0.0
 10
1.898249
 20
1.618422
 30
0.0
  0
SPLINE
  5
11e
100
AcDbEntity
  8
Layer_1
 62
7
100
AcDbSpline
 70
8
 71
3
 72
8
 73
4
 74
0
 40
0
 40
0
 40
0
 40
0
 40
1
 40
1
 40
1
 40
1
 10
1.898249
 20
1.618422
 30
0.0
 10
1.923761
 20
1.601131
 30
0.0
 10
1.947005
 20
1.586504
 30
0.0
 10
1.949272
 20
1.586533
 30
0.0
  0
SPLINE
  5
11f
100
AcDbEntity
  8
Layer_1
 62
7
100
AcDbSpline
 70
8
 71
3
 72
8
 73
4
 74
0
 40
0
 40
0
 40
0
 40
0
 40
1
 40
1
 40
1
 40
1
 10
1.949272
 20
1.586533
 30
0.0
 10
1.957776
 20
1.586578
 30
0.0
 10
1.977619
 20
1.641922
 30
0.0
 10
1.971950
 20
1.649433
 30
0.0
  0
SPLINE
  5
120
100
AcDbEntity
  8
Layer_1
 62
7
100
AcDbSpline
 70
8
 71
3
 72
8
 73
4
 74
0
 40
0
 40
0
 40
0
 40
0
 40
1
 40
1
 40
1
 40
1
 10
1.971950
 20
1.649433
 30
0.0
 10
1.970220
 20
1.653402
 30
0.0
 10
1.957776
 20
1.669843
 30
0.0
 10
1.946438
 20
1.686170
 30
0.0
  0
SPLINE
  5
121
100
AcDbEntity
  8
Layer_1
 62
7
100
AcDbSpline
 70
8
 71
3
 72
8
 73
4
 74
0
 40
0
 40
0
 40
0
 40
0
 40
1
 40
1
 40
1
 40
1
 10
1.946438
 20
1.686170
 30
0.0
 10
1.935099
 20
1.702328
 30
0.0
 10
1.910438
 20
1.727981
 30
0.0
 10
1.890028
 20
1.742863
 30
0.0
  0
SPLINE
  5
122
100
AcDbEntity
  8
Layer_1
 62
7
100
AcDbSpline
 70
8
 71
3
 72
8
 73
4
 74
0
 40
0
 40
0
 40
0
 40
0
 40
1
 40
1
 40
1
 40
1
 10
1.890028
 20
1.742863
 30
0.0
 10
1.831918
 20
1.785213
 30
0.0
 10
1.820580
 20
1.803128
 30
0.0
 10
1.803005
 20
1.878643
 30
0.0
  0
SPLINE
  5
123
100
AcDbEntity
  8
Layer_1
 62
7
100
AcDbSpline
 70
8
 71
3
 72
8
 73
4
 74
0
 40
0
 40
0
 40
0
 40
0
 40
1
 40
1
 40
1
 40
1
 10
1.803005
 20
1.878643
 30
0.0
 10
1.794501
 20
1.914785
 30
0.0
 10
1.783162
 20
1.966404
 30
0.0
 10
1.772957
 20
1.993389
 30
0.0
  0
SPLINE
  5
124
100
AcDbEntity
  8
Layer_1
 62
7
100
AcDbSpline
 70
8
 71
3
 72
8
 73
4
 74
0
 40
0
 40
0
 40
0
 40
0
 40
1
 40
1
 40
1
 40
1
 10
1.772957
 20
1.993389
 30
0.0
 10
1.755950
 20
2.052152
 30
0.0
 10
1.755950
 20
2.055667
 30
0.0
 10
1.770350
 20
2.055667
 30
0.0
  0
SPLINE
  5
125
100
AcDbEntity
  8
Layer_1
 62
7
100
AcDbSpline
 70
8
 71
3
 72
8
 73
4
 74
0
 40
0
 40
0
 40
0
 40
0
 40
1
 40
1
 40
1
 40
1
 10
1.770350
 20
2.055667
 30
0.0
 10
1.798696
 20
2.055667
 30
0.0
 10
1.821940
 20
2.001100
 30
0.0
 10
1.844050
 20
1.888961
 30
0.0
  0
SPLINE
  5
126
100
AcDbEntity
  8
Layer_1
 62
7
100
AcDbSpline
 70
8
 71
3
 72
8
 73
4
 74
0
 40
0
 40
0
 40
0
 40
0
 40
1
 40
1
 40
1
 40
1
 10
1.844050
 20
1.888961
 30
0.0
 10
1.855389
 20
1.840347
 30
0.0
 10
1.877499
 20
1.812000
 30
0.0
 10
1.937310
 20
1.779147
 30
0.0
  0
SPLINE
  5
127
100
AcDbEntity
  8
Layer_1
 62
7
100
AcDbSpline
 70
8
 71
3
 72
8
 73
4
 74
0
 40
0
 40
0
 40
0
 40
0
 40
1
 40
1
 40
1
 40
1
 10
1.937310
 20
1.779147
 30
0.0
 10
1.962822
 20
1.765257
 30
0.0
 10
1.993153
 20
1.744621
 30
0.0
 10
2.006476
 20
1.732999
 30
0.0
  0
SPLINE
  5
128
100
AcDbEntity
  8
Layer_1
 62
7
100
AcDbSpline
 70
8
 71
3
 72
8
 73
4
 74
0
 40
0
 40
0
 40
0
 40
0
 40
1
 40
1
 40
1
 40
1
 10
2.006476
 20
1.732999
 30
0.0
 10
2.020649
 20
1.721377
 30
0.0
 10
2.031987
 20
1.713440
 30
0.0
 10
2.035389
 20
1.715424
 30
0.0
  0
SPLINE
  5
129
100
AcDbEntity
  8
Layer_1
 62
7
100
AcDbSpline
 70
8
 71
3
 72
8
 73
4
 74
0
 40
0
 40
0
 40
0
 40
0
 40
1
 40
1
 40
1
 40
1
 10
2.035389
 20
1.715424
 30
0.0
 10
2.037146
 20
1.717167
 30
0.0
 10
2.037997
 20
1.735833
 30
0.0
 10
2.037146
 20
1.757008
 30
0.0
  0
SPLINE
  5
12a
100
AcDbEntity
  8
Layer_1
 62
7
100
AcDbSpline
 70
8
 71
3
 72
8
 73
4
 74
0
 40
0
 40
0
 40
0
 40
0
 40
1
 40
1
 40
1
 40
1
 10
2.037146
 20
1.757008
 30
0.0
 10
2.035389
 20
1.787424
 30
0.0
 10
2.036665
 20
1.800945
 30
0.0
 10
2.048485
 20
1.824019
 30
0.0
  0
SPLINE
  5
12b
100
AcDbEntity
  8
Layer_1
 62
7
100
AcDbSpline
 70
8
 71
3
 72
8
 73
4
 74
0
 40
0
 40
0
 40
0
 40
0
 40
1
 40
1
 40
1
 40
1
 10
2.048485
 20
1.824019
 30
0.0
 10
2.054154
 20
1.839893
 30
0.0
 10
2.062658
 20
1.853556
 30
0.0
 10
2.062658
 20
1.854378
 30
0.0
  0
SPLINE
  5
12c
100
AcDbEntity
  8
Layer_1
 62
7
100
AcDbSpline
 70
8
 71
3
 72
8
 73
4
 74
0
 40
0
 40
0
 40
0
 40
0
 40
1
 40
1
 40
1
 40
1
 10
2.062658
 20
1.854378
 30
0.0
 10
2.062658
 20
1.855169
 30
0.0
 10
2.054154
 20
1.857496
 30
0.0
 10
2.045650
 20
1.859764
 30
0.0
  0
SPLINE
  5
12d
100
AcDbEntity
  8
Layer_1
 62
7
100
AcDbSpline
 70
8
 71
3
 72
8
 73
4
 74
0
 40
0
 40
0
 40
0
 40
0
 40
1
 40
1
 40
1
 40
1
 10
2.045650
 20
1.859764
 30
0.0
 10
2.020139
 20
1.865150
 30
0.0
 10
1.979036
 20
1.892249
 30
0.0
 10
1.983288
 20
1.902596
 30
0.0
  0
SPLINE
  5
12e
100
AcDbEntity
  8
Layer_1
 62
7
100
AcDbSpline
 70
8
 71
3
 72
8
 73
4
 74
0
 40
0
 40
0
 40
0
 40
0
 40
1
 40
1
 40
1
 40
1
 10
1.983288
 20
1.902596
 30
0.0
 10
1.985868
 20
1.911383
 30
0.0
 10
1.966280
 20
1.971393
 30
0.0
 10
1.944737
 20
2.008583
 30
0.0
  0
SPLINE
  5
12f
100
AcDbEntity
  8
Layer_1
 62
7
100
AcDbSpline
 70
8
 71
3
 72
8
 73
4
 74
0
 40
0
 40
0
 40
0
 40
0
 40
1
 40
1
 40
1
 40
1
 10
1.944737
 20
2.008583
 30
0.0
 10
1.939068
 20
2.020489
 30
0.0
 10
1.933398
 20
2.034378
 30
0.0
 10
1.933398
 20
2.039141
 30
0.0
  0
SPLINE
  5
130
100
AcDbEntity
  8
Layer_1
 62
7
100
AcDbSpline
 70
8
 71
3
 72
8
 73
4
 74
0
 40
0
 40
0
 40
0
 40
0
 40
1
 40
1
 40
1
 40
1
 10
1.933398
 20
2.039141
 30
0.0
 10
1.933398
 20
2.043959
 30
0.0
 10
1.927729
 20
2.060967
 30
0.0
 10
1.919225
 20
2.077125
 30
0.0
  0
SPLINE
  5
131
100
AcDbEntity
  8
Layer_1
 62
7
100
AcDbSpline
 70
8
 71
3
 72
8
 73
4
 74
0
 40
0
 40
0
 40
0
 40
0
 40
1
 40
1
 40
1
 40
1
 10
1.919225
 20
2.077125
 30
0.0
 10
1.910721
 20
2.093282
 30
0.0
 10
1.905052
 20
2.107626
 30
0.0
 10
1.905052
 20
2.109071
 30
0.0
  0
SPLINE
  5
132
100
AcDbEntity
  8
Layer_1
 62
7
100
AcDbSpline
 70
8
 71
3
 72
8
 73
4
 74
0
 40
0
 40
0
 40
0
 40
0
 40
1
 40
1
 40
1
 40
1
 10
1.905052
 20
2.109071
 30
0.0
 10
1.910721
 20
2.116725
 30
0.0
 10
2.022406
 20
2.006797
 30
0.0
 10
2.022406
 20
1.991802
 30
0.0
  0
SPLINE
  5
133
100
AcDbEntity
  8
Layer_1
 62
7
100
AcDbSpline
 70
8
 71
3
 72
8
 73
4
 74
0
 40
0
 40
0
 40
0
 40
0
 40
1
 40
1
 40
1
 40
1
 10
2.022406
 20
1.991802
 30
0.0
 10
2.022406
 20
1.986983
 30
0.0
 10
2.055855
 20
1.956652
 30
0.0
 10
2.071446
 20
1.946901
 30
0.0
  0
SPLINE
  5
134
100
AcDbEntity
  8
Layer_1
 62
7
100
AcDbSpline
 70
8
 71
3
 72
8
 73
4
 74
0
 40
0
 40
0
 40
0
 40
0
 40
1
 40
1
 40
1
 40
1
 10
2.071446
 20
1.946901
 30
0.0
 10
2.074054
 20
1.944804
 30
0.0
 10
2.077115
 20
1.930744
 30
0.0
 10
2.082784
 20
1.915352
 30
0.0
  0
SPLINE
  5
135
100
AcDbEntity
  8
Layer_1
 62
7
100
AcDbSpline
 70
8
 71
3
 72
8
 73
4
 74
0
 40
0
 40
0
 40
0
 40
0
 40
1
 40
1
 40
1
 40
1
 10
2.118246
 20
1.918470
 30
0.0
 10
2.152545
 20
1.949764
 30
0.0
 10
2.180891
 20
1.965553
 30
0.0
 10
2.202718
 20
1.965553
 30
0.0
  0
SPLINE
  5
136
100
AcDbEntity
  8
Layer_1
 62
7
100
AcDbSpline
 70
8
 71
3
 72
8
 73
4
 74
0
 40
0
 40
0
 40
0
 40
0
 40
1
 40
1
 40
1
 40
1
 10
2.202718
 20
1.965553
 30
0.0
 10
2.208387
 20
1.965553
 30
0.0
 10
2.234750
 20
1.947978
 30
0.0
 10
2.259694
 20
1.926463
 30
0.0
  0
SPLINE
  5
137
100
AcDbEntity
  8
Layer_1
 62
7
100
AcDbSpline
 70
8
 71
3
 72
8
 73
4
 74
0
 40
0
 40
0
 40
0
 40
0
 40
1
 40
1
 40
1
 40
1
 10
2.259694
 20
1.926463
 30
0.0
 10
2.282372
 20
1.904920
 30
0.0
 10
2.305616
 20
1.887374
 30
0.0
 10
2.307317
 20
1.887374
 30
0.0
  0
SPLINE
  5
138
100
AcDbEntity
  8
Layer_1
 62
7
100
AcDbSpline
 70
8
 71
3
 72
8
 73
4
 74
0
 40
0
 40
0
 40
0
 40
0
 40
1
 40
1
 40
1
 40
1
 10
2.307317
 20
1.887374
 30
0.0
 10
2.308535
 20
1.887374
 30
0.0
 10
2.312986
 20
1.895594
 30
0.0
 10
2.318655
 20
1.905515
 30
0.0
  0
SPLINE
  5
139
100
AcDbEntity
  8
Layer_1
 62
7
100
AcDbSpline
 70
8
 71
3
 72
8
 73
4
 74
0
 40
0
 40
0
 40
0
 40
0
 40
1
 40
1
 40
1
 40
1
 10
2.318655
 20
1.905515
 30
0.0
 10
2.321235
 20
1.915437
 30
0.0
 10
2.332828
 20
1.928476
 30
0.0
 10
2.338498
 20
1.934202
 30
0.0
  0
SPLINE
  5
13a
100
AcDbEntity
  8
Layer_1
 62
7
100
AcDbSpline
 70
8
 71
3
 72
8
 73
4
 74
0
 40
0
 40
0
 40
0
 40
0
 40
1
 40
1
 40
1
 40
1
 10
2.338498
 20
1.934202
 30
0.0
 10
2.344167
 20
1.939871
 30
0.0
 10
2.352671
 20
1.950926
 30
0.0
 10
2.358340
 20
1.958013
 30
0.0
  0
SPLINE
  5
13b
100
AcDbEntity
  8
Layer_1
 62
7
100
AcDbSpline
 70
8
 71
3
 72
8
 73
4
 74
0
 40
0
 40
0
 40
0
 40
0
 40
1
 40
1
 40
1
 40
1
 10
2.358340
 20
1.958013
 30
0.0
 10
2.360920
 20
1.965667
 30
0.0
 10
2.369679
 20
1.969918
 30
0.0
 10
2.372513
 20
1.968501
 30
0.0
  0
SPLINE
  5
13c
100
AcDbEntity
  8
Layer_1
 62
7
100
AcDbSpline
 70
8
 71
3
 72
8
 73
4
 74
0
 40
0
 40
0
 40
0
 40
0
 40
1
 40
1
 40
1
 40
1
 10
2.372513
 20
1.968501
 30
0.0
 10
2.378183
 20
1.964533
 30
0.0
 10
2.395191
 20
1.995997
 30
0.0
 10
2.395191
 20
2.010993
 30
0.0
  0
SPLINE
  5
13d
100
AcDbEntity
  8
Layer_1
 62
7
100
AcDbSpline
 70
8
 71
3
 72
8
 73
4
 74
0
 40
0
 40
0
 40
0
 40
0
 40
1
 40
1
 40
1
 40
1
 10
2.395191
 20
2.010993
 30
0.0
 10
2.395191
 20
2.020347
 30
0.0
 10
2.459254
 20
2.085289
 30
0.0
 10
2.468891
 20
2.085657
 30
0.0
  0
SPLINE
  5
13e
100
AcDbEntity
  8
Layer_1
 62
7
100
AcDbSpline
 70
8
 71
3
 72
8
 73
4
 74
0
 40
0
 40
0
 40
0
 40
0
 40
1
 40
1
 40
1
 40
1
 10
2.468891
 20
2.085657
 30
0.0
 10
2.474561
 20
2.085907
 30
0.0
 10
2.474561
 20
2.075736
 30
0.0
 10
2.466312
 20
2.034860
 30
0.0
  0
SPLINE
  5
13f
100
AcDbEntity
  8
Layer_1
 62
7
100
AcDbSpline
 70
8
 71
3
 72
8
 73
4
 74
0
 40
0
 40
0
 40
0
 40
0
 40
1
 40
1
 40
1
 40
1
 10
2.466312
 20
2.034860
 30
0.0
 10
2.463704
 20
2.015018
 30
0.0
 10
2.460642
 20
1.996706
 30
0.0
 10
2.460642
 20
1.994013
 30
0.0
  0
SPLINE
  5
140
100
AcDbEntity
  8
Layer_1
 62
7
100
AcDbSpline
 70
8
 71
3
 72
8
 73
4
 74
0
 40
0
 40
0
 40
0
 40
0
 40
1
 40
1
 40
1
 40
1
 10
2.460642
 20
1.994013
 30
0.0
 10
2.461833
 20
1.991178
 30
0.0
 10
2.459424
 20
1.982107
 30
0.0
 10
2.454973
 20
1.973604
 30
0.0
  0
SPLINE
  5
141
100
AcDbEntity
  8
Layer_1
 62
7
100
AcDbSpline
 70
8
 71
3
 72
8
 73
4
 74
0
 40
0
 40
0
 40
0
 40
0
 40
1
 40
1
 40
1
 40
1
 10
2.454973
 20
1.973604
 30
0.0
 10
2.449304
 20
1.965100
 30
0.0
 10
2.443635
 20
1.951210
 30
0.0
 10
2.440800
 20
1.942593
 30
0.0
  0
SPLINE
  5
142
100
AcDbEntity
  8
Layer_1
 62
7
100
AcDbSpline
 70
8
 71
3
 72
8
 73
4
 74
0
 40
0
 40
0
 40
0
 40
0
 40
1
 40
1
 40
1
 40
1
 10
2.440800
 20
1.942593
 30
0.0
 10
2.440091
 20
1.934089
 30
0.0
 10
2.429461
 20
1.920482
 30
0.0
 10
2.423792
 20
1.912205
 30
0.0
  0
SPLINE
  5
143
100
AcDbEntity
  8
Layer_1
 62
7
100
AcDbSpline
 70
8
 71
3
 72
8
 73
4
 74
0
 40
0
 40
0
 40
0
 40
0
 40
1
 40
1
 40
1
 40
1
 10
2.423792
 20
1.912205
 30
0.0
 10
2.412454
 20
1.903985
 30
0.0
 10
2.406784
 20
1.892930
 30
0.0
 10
2.406784
 20
1.887827
 30
0.0
  0
SPLINE
  5
144
100
AcDbEntity
  8
Layer_1
 62
7
100
AcDbSpline
 70
8
 71
3
 72
8
 73
4
 74
0
 40
0
 40
0
 40
0
 40
0
 40
1
 40
1
 40
1
 40
1
 10
2.406784
 20
1.887827
 30
0.0
 10
2.406784
 20
1.881591
 30
0.0
 10
2.392611
 20
1.874504
 30
0.0
 10
2.370784
 20
1.866851
 30
0.0
  0
SPLINE
  5
145
100
AcDbEntity
  8
Layer_1
 62
7
100
AcDbSpline
 70
8
 71
3
 72
8
 73
4
 74
0
 40
0
 40
0
 40
0
 40
0
 40
1
 40
1
 40
1
 40
1
 10
2.370784
 20
1.866851
 30
0.0
 10
2.350942
 20
1.860615
 30
0.0
 10
2.333934
 20
1.854662
 30
0.0
 10
2.332800
 20
1.853811
 30
0.0
  0
SPLINE
  5
146
100
AcDbEntity
  8
Layer_1
 62
7
100
AcDbSpline
 70
8
 71
3
 72
8
 73
4
 74
0
 40
0
 40
0
 40
0
 40
0
 40
1
 40
1
 40
1
 40
1
 10
2.332800
 20
1.853811
 30
0.0
 10
2.331581
 20
1.852950
 30
0.0
 10
2.334529
 20
1.845874
 30
0.0
 10
2.338469
 20
1.838221
 30
0.0
  0
SPLINE
  5
147
100
AcDbEntity
  8
Layer_1
 62
7
100
AcDbSpline
 70
8
 71
3
 72
8
 73
4
 74
0
 40
0
 40
0
 40
0
 40
0
 40
1
 40
1
 40
1
 40
1
 10
2.338469
 20
1.838221
 30
0.0
 10
2.349808
 20
1.820646
 30
0.0
 10
2.361146
 20
1.764548
 30
0.0
 10
2.355477
 20
1.752189
 30
0.0
  0
SPLINE
  5
148
100
AcDbEntity
  8
Layer_1
 62
7
100
AcDbSpline
 70
8
 71
3
 72
8
 73
4
 74
0
 40
0
 40
0
 40
0
 40
0
 40
1
 40
1
 40
1
 40
1
 10
2.355477
 20
1.752189
 30
0.0
 10
2.349808
 20
1.736882
 30
0.0
 10
2.357235
 20
1.741418
 30
0.0
 10
2.378154
 20
1.766079
 30
0.0
  0
SPLINE
  5
149
100
AcDbEntity
  8
Layer_1
 62
7
100
AcDbSpline
 70
8
 71
3
 72
8
 73
4
 74
0
 40
0
 40
0
 40
0
 40
0
 40
1
 40
1
 40
1
 40
1
 10
2.378154
 20
1.766079
 30
0.0
 10
2.389493
 20
1.778835
 30
0.0
 10
2.422375
 20
1.802136
 30
0.0
 10
2.450721
 20
1.818095
 30
0.0
  0
SPLINE
  5
14a
100
AcDbEntity
  8
Layer_1
 62
7
100
AcDbSpline
 70
8
 71
3
 72
8
 73
4
 74
0
 40
0
 40
0
 40
0
 40
0
 40
1
 40
1
 40
1
 40
1
 10
2.450721
 20
1.818095
 30
0.0
 10
2.516768
 20
1.855200
 30
0.0
 10
2.540296
 20
1.881789
 30
0.0
 10
2.549934
 20
1.931254
 30
0.0
  0
SPLINE
  5
14b
100
AcDbEntity
  8
Layer_1
 62
7
100
AcDbSpline
 70
8
 71
3
 72
8
 73
4
 74
0
 40
0
 40
0
 40
0
 40
0
 40
1
 40
1
 40
1
 40
1
 10
2.549934
 20
1.931254
 30
0.0
 10
2.569776
 20
2.035796
 30
0.0
 10
2.596139
 20
2.097959
 30
0.0
 10
2.620233
 20
2.097959
 30
0.0
  0
SPLINE
  5
14c
100
AcDbEntity
  8
Layer_1
 62
7
100
AcDbSpline
 70
8
 71
3
 72
8
 73
4
 74
0
 40
0
 40
0
 40
0
 40
0
 40
1
 40
1
 40
1
 40
1
 10
2.620233
 20
2.097959
 30
0.0
 10
2.634406
 20
2.097959
 30
0.0
 10
2.634406
 20
2.087471
 30
0.0
 10
2.621991
 20
2.048948
 30
0.0
  0
SPLINE
  5
14d
100
AcDbEntity
  8
Layer_1
 62
7
100
AcDbSpline
 70
8
 71
3
 72
8
 73
4
 74
0
 40
0
 40
0
 40
0
 40
0
 40
1
 40
1
 40
1
 40
1
 10
2.621991
 20
2.048948
 30
0.0
 10
2.616321
 20
2.027972
 30
0.0
 10
2.604983
 20
1.981002
 30
0.0
 10
2.596479
 20
1.944577
 30
0.0
  0
SPLINE
  5
14e
100
AcDbEntity
  8
Layer_1
 62
7
100
AcDbSpline
 70
8
 71
3
 72
8
 73
4
 74
0
 40
0
 40
0
 40
0
 40
0
 40
1
 40
1
 40
1
 40
1
 10
2.596479
 20
1.944577
 30
0.0
 10
2.587975
 20
1.908208
 30
0.0
 10
2.579471
 20
1.871273
 30
0.0
 10
2.576636
 20
1.862514
 30
0.0
  0
SPLINE
  5
14f
100
AcDbEntity
  8
Layer_1
 62
7
100
AcDbSpline
 70
8
 71
3
 72
8
 73
4
 74
0
 40
0
 40
0
 40
0
 40
0
 40
1
 40
1
 40
1
 40
1
 10
2.576636
 20
1.862514
 30
0.0
 10
2.565298
 20
1.838703
 30
0.0
 10
2.535250
 20
1.804545
 30
0.0
 10
2.500384
 20
1.782350
 30
0.0
  0
SPLINE
  5
150
100
AcDbEntity
  8
Layer_1
 62
7
100
AcDbSpline
 70
8
 71
3
 72
8
 73
4
 74
0
 40
0
 40
0
 40
0
 40
0
 40
1
 40
1
 40
1
 40
1
 10
2.500384
 20
1.782350
 30
0.0
 10
2.483376
 20
1.770161
 30
0.0
 10
2.463534
 20
1.752133
 30
0.0
 10
2.453329
 20
1.734983
 30
0.0
  0
SPLINE
  5
151
100
AcDbEntity
  8
Layer_1
 62
7
100
AcDbSpline
 70
8
 71
3
 72
8
 73
4
 74
0
 40
0
 40
0
 40
0
 40
0
 40
1
 40
1
 40
1
 40
1
 10
2.453329
 20
1.734983
 30
0.0
 10
2.444825
 20
1.719959
 30
0.0
 10
2.433487
 20
1.703604
 30
0.0
 10
2.424983
 20
1.698841
 30
0.0
  0
SPLINE
  5
152
100
AcDbEntity
  8
Layer_1
 62
7
100
AcDbSpline
 70
8
 71
3
 72
8
 73
4
 74
0
 40
0
 40
0
 40
0
 40
0
 40
1
 40
1
 40
1
 40
1
 10
2.424983
 20
1.698841
 30
0.0
 10
2.410809
 20
1.690337
 30
0.0
 10
2.410809
 20
1.689770
 30
0.0
 10
2.439156
 20
1.657966
 30
0.0
  0
SPLINE
  5
153
100
AcDbEntity
  8
Layer_1
 62
7
100
AcDbSpline
 70
8
 71
3
 72
8
 73
4
 74
0
 40
0
 40
0
 40
0
 40
0
 40
1
 40
1
 40
1
 40
1
 10
2.439156
 20
1.657966
 30
0.0
 10
2.453329
 20
1.640391
 30
0.0
 10
2.467786
 20
1.613037
 30
0.0
 10
2.472888
 20
1.597531
 30
0.0
  0
SPLINE
  5
154
100
AcDbEntity
  8
Layer_1
 62
7
100
AcDbSpline
 70
8
 71
3
 72
8
 73
4
 74
0
 40
0
 40
0
 40
0
 40
0
 40
1
 40
1
 40
1
 40
1
 10
2.472888
 20
1.597531
 30
0.0
 10
2.481392
 20
1.570602
 30
0.0
 10
2.484227
 20
1.569752
 30
0.0
 10
2.492731
 20
1.579956
 30
0.0
  0
SPLINE
  5
155
100
AcDbEntity
  8
Layer_1
 62
7
100
AcDbSpline
 70
8
 71
3
 72
8
 73
4
 74
0
 40
0
 40
0
 40
0
 40
0
 40
1
 40
1
 40
1
 40
1
 10
2.492731
 20
1.579956
 30
0.0
 10
2.504069
 20
1.589311
 30
0.0
 10
2.593361
 20
1.651021
 30
0.0
 10
2.649770
 20
1.686284
 30
0.0
  0
SPLINE
  5
156
100
AcDbEntity
  8
Layer_1
 62
7
100
AcDbSpline
 70
8
 71
3
 72
8
 73
4
 74
0
 40
0
 40
0
 40
0
 40
0
 40
1
 40
1
 40
1
 40
1
 10
2.649770
 20
1.686284
 30
0.0
 10
2.688321
 20
1.710378
 30
0.0
 10
2.868605
 20
1.803355
 30
0.0
 10
2.951461
 20
1.841991
 30
0.0
  0
SPLINE
  5
157
100
AcDbEntity
  8
Layer_1
 62
7
100
AcDbSpline
 70
8
 71
3
 72
8
 73
4
 74
0
 40
0
 40
0
 40
0
 40
0
 40
1
 40
1
 40
1
 40
1
 10
2.951461
 20
1.841991
 30
0.0
 10
2.965635
 20
1.847377
 30
0.0
 10
3.035083
 20
1.873484
 30
0.0
 10
3.110768
 20
1.899421
 30
0.0
  0
SPLINE
  5
158
100
AcDbEntity
  8
Layer_1
 62
7
100
AcDbSpline
 70
8
 71
3
 72
8
 73
4
 74
0
 40
0
 40
0
 40
0
 40
0
 40
1
 40
1
 40
1
 40
1
 10
3.110768
 20
1.899421
 30
0.0
 10
3.186454
 20
1.925500
 30
0.0
 10
3.306359
 20
1.967339
 30
0.0
 10
3.377509
 20
1.992737
 30
0.0
  0
SPLINE
  5
159
100
AcDbEntity
  8
Layer_1
 62
7
100
AcDbSpline
 70
8
 71
3
 72
8
 73
4
 74
0
 40
0
 40
0
 40
0
 40
0
 40
1
 40
1
 40
1
 40
1
 10
3.377509
 20
1.992737
 30
0.0
 10
3.448375
 20
2.018249
 30
0.0
 10
3.536532
 20
2.046936
 30
0.0
 10
3.573099
 20
2.056829
 30
0.0
  0
SPLINE
  5
15a
100
AcDbEntity
  8
Layer_1
 62
7
100
AcDbSpline
 70
8
 71
3
 72
8
 73
4
 74
0
 40
0
 40
0
 40
0
 40
0
 40
1
 40
1
 40
1
 40
1
 10
3.573099
 20
2.056829
 30
0.0
 10
3.828217
 20
2.126051
 30
0.0
 10
3.909657
 20
2.140763
 30
0.0
 10
4.057342
 20
2.144589
 30
0.0
  0
SPLINE
  5
15b
100
AcDbEntity
  8
Layer_1
 62
7
100
AcDbSpline
 70
8
 71
3
 72
8
 73
4
 74
0
 40
0
 40
0
 40
0
 40
0
 40
1
 40
1
 40
1
 40
1
 10
4.057342
 20
2.144589
 30
0.0
 10
4.158822
 20
2.147189
 30
0.0
 10
4.165909
 20
2.146684
 30
0.0
 10
4.243861
 20
2.128715
 30
0.0
  0
SPLINE
  5
15c
100
AcDbEntity
  8
Layer_1
 62
7
100
AcDbSpline
 70
8
 71
3
 72
8
 73
4
 74
0
 40
0
 40
0
 40
0
 40
0
 40
1
 40
1
 40
1
 40
1
 10
4.243861
 20
2.128715
 30
0.0
 10
4.333153
 20
2.108306
 30
0.0
 10
4.398350
 20
2.080186
 30
0.0
 10
4.427263
 20
2.050026
 30
0.0
  0
SPLINE
  5
15d
100
AcDbEntity
  8
Layer_1
 62
7
100
AcDbSpline
 70
8
 71
3
 72
8
 73
4
 74
0
 40
0
 40
0
 40
0
 40
0
 40
1
 40
1
 40
1
 40
1
 10
4.427263
 20
2.050026
 30
0.0
 10
4.441436
 20
2.032734
 30
0.0
 10
4.444271
 20
2.027348
 30
0.0
 10
4.444271
 20
1.990753
 30
0.0
  0
SPLINE
  5
15e
100
AcDbEntity
  8
Layer_1
 62
7
100
AcDbSpline
 70
8
 71
3
 72
8
 73
4
 74
0
 40
0
 40
0
 40
0
 40
0
 40
1
 40
1
 40
1
 40
1
 10
4.444271
 20
1.990753
 30
0.0
 10
4.444271
 20
1.954328
 30
0.0
 10
4.442513
 20
1.944095
 30
0.0
 10
4.413373
 20
1.887374
 30
0.0
  0
SPLINE
  5
15f
100
AcDbEntity
  8
Layer_1
 62
7
100
AcDbSpline
 70
8
 71
3
 72
8
 73
4
 74
0
 40
0
 40
0
 40
0
 40
0
 40
1
 40
1
 40
1
 40
1
 10
4.413373
 20
1.887374
 30
0.0
 10
4.377373
 20
1.813900
 30
0.0
 10
4.333153
 20
1.750489
 30
0.0
 10
4.257468
 20
1.663975
 30
0.0
  0
SPLINE
  5
160
100
AcDbEntity
  8
Layer_1
 62
7
100
AcDbSpline
 70
8
 71
3
 72
8
 73
4
 74
0
 40
0
 40
0
 40
0
 40
0
 40
1
 40
1
 40
1
 40
1
 10
4.257468
 20
1.663975
 30
0.0
 10
4.227420
 20
1.629789
 30
0.0
 10
4.186318
 20
1.581119
 30
0.0
 10
4.165909
 20
1.555777
 30
0.0
  0
SPLINE
  5
161
100
AcDbEntity
  8
Layer_1
 62
7
100
AcDbSpline
 70
8
 71
3
 72
8
 73
4
 74
0
 40
0
 40
0
 40
0
 40
0
 40
1
 40
1
 40
1
 40
1
 10
4.165909
 20
1.555777
 30
0.0
 10
4.146066
 20
1.530548
 30
0.0
 10
4.100995
 20
1.481707
 30
0.0
 10
4.066979
 20
1.447522
 30
0.0
  0
SPLINE
  5
162
100
AcDbEntity
  8
Layer_1
 62
7
100
AcDbSpline
 70
8
 71
3
 72
8
 73
4
 74
0
 40
0
 40
0
 40
0
 40
0
 40
1
 40
1
 40
1
 40
1
 10
4.066979
 20
1.447522
 30
0.0
 10
4.010003
 20
1.390205
 30
0.0
 10
4.000649
 20
1.383289
 30
0.0
 10
3.946790
 20
1.359307
 30
0.0
  0
SPLINE
  5
163
100
AcDbEntity
  8
Layer_1
 62
7
100
AcDbSpline
 70
8
 71
3
 72
8
 73
4
 74
0
 40
0
 40
0
 40
0
 40
0
 40
1
 40
1
 40
1
 40
1
 10
3.946790
 20
1.359307
 30
0.0
 10
3.914476
 20
1.345134
 30
0.0
 10
3.863168
 20
1.328041
 30
0.0
 10
3.832554
 20
1.321663
 30
0.0
  0
SPLINE
  5
164
100
AcDbEntity
  8
Layer_1
 62
7
100
AcDbSpline
 70
8
 71
3
 72
8
 73
4
 74
0
 40
0
 40
0
 40
0
 40
0
 40
1
 40
1
 40
1
 40
1
 10
3.832554
 20
1.321663
 30
0.0
 10
3.773310
 20
1.309191
 30
0.0
 10
3.580838
 20
1.292240
 30
0.0
 10
3.498576
 20
1.292155
 30
0.0
  0
SPLINE
  5
165
100
AcDbEntity
  8
Layer_1
 62
7
100
AcDbSpline
 70
8
 71
3
 72
8
 73
4
 74
0
 40
0
 40
0
 40
0
 40
0
 40
1
 40
1
 40
1
 40
1
 10
3.498576
 20
1.292155
 30
0.0
 10
3.470230
 20
1.292132
 30
0.0
 10
3.449253
 20
1.290060
 30
0.0
 10
3.449537
 20
1.287619
 30
0.0
  0
SPLINE
  5
166
100
AcDbEntity
  8
Layer_1
 62
7
100
AcDbSpline
 70
8
 71
3
 72
8
 73
4
 74
0
 40
0
 40
0
 40
0
 40
0
 40
1
 40
1
 40
1
 40
1
 10
3.449537
 20
1.287619
 30
0.0
 10
3.449792
 20
1.285020
 30
0.0
 10
3.472214
 20
1.271462
 30
0.0
 10
3.501978
 20
1.257430
 30
0.0
  0
SPLINE
  5
167
100
AcDbEntity
  8
Layer_1
 62
7
100
AcDbSpline
 70
8
 71
3
 72
8
 73
4
 74
0
 40
0
 40
0
 40
0
 40
0
 40
1
 40
1
 40
1
 40
1
 10
3.501978
 20
1.257430
 30
0.0
 10
3.608561
 20
1.204904
 30
0.0
 10
3.776372
 20
1.059374
 30
0.0
 10
3.791112
 20
1.006366
 30
0.0
  0
SPLINE
  5
168
100
AcDbEntity
  8
Layer_1
 62
7
100
AcDbSpline
 70
8
 71
3
 72
8
 73
4
 74
0
 40
0
 40
0
 40
0
 40
0
 40
1
 40
1
 40
1
 40
1
 10
3.791112
 20
1.006366
 30
0.0
 10
3.802450
 20
0.968552
 30
0.0
 10
3.799616
 20
0.944570
 30
0.0
 10
3.779773
 20
0.914211
 30
0.0
  0
SPLINE
  5
169
100
AcDbEntity
  8
Layer_1
 62
7
100
AcDbSpline
 70
8
 71
3
 72
8
 73
4
 74
0
 40
0
 40
0
 40
0
 40
0
 40
1
 40
1
 40
1
 40
1
 10
3.779773
 20
0.914211
 30
0.0
 10
3.771269
 20
0.898621
 30
0.0
 10
3.762765
 20
0.884731
 30
0.0
 10
3.759931
 20
0.883059
 30
0.0
  0
SPLINE
  5
16a
100
AcDbEntity
  8
Layer_1
 62
7
100
AcDbSpline
 70
8
 71
3
 72
8
 73
4
 74
0
 40
0
 40
0
 40
0
 40
0
 40
1
 40
1
 40
1
 40
1
 10
3.759931
 20
0.883059
 30
0.0
 10
3.758173
 20
0.881358
 30
0.0
 10
3.751427
 20
0.872004
 30
0.0
 10
3.745757
 20
0.862649
 30
0.0
  0
SPLINE
  5
16b
100
AcDbEntity
  8
Layer_1
 62
7
100
AcDbSpline
 70
8
 71
3
 72
8
 73
4
 74
0
 40
0
 40
0
 40
0
 40
0
 40
1
 40
1
 40
1
 40
1
 10
3.745757
 20
0.862649
 30
0.0
 10
3.728750
 20
0.835720
 30
0.0
 10
3.634923
 20
0.740533
 30
0.0
 10
3.597789
 20
0.712243
 30
0.0
  0
SPLINE
  5
16c
100
AcDbEntity
  8
Layer_1
 62
7
100
AcDbSpline
 70
8
 71
3
 72
8
 73
4
 74
0
 40
0
 40
0
 40
0
 40
0
 40
1
 40
1
 40
1
 40
1
 10
3.597789
 20
0.712243
 30
0.0
 10
3.525222
 20
0.657109
 30
0.0
 10
3.443301
 20
0.617821
 30
0.0
 10
3.378387
 20
0.607021
 30
0.0
  0
SPLINE
  5
16d
100
AcDbEntity
  8
Layer_1
 62
7
100
AcDbSpline
 70
8
 71
3
 72
8
 73
4
 74
0
 40
0
 40
0
 40
0
 40
0
 40
1
 40
1
 40
1
 40
1
 10
3.378387
 20
0.607021
 30
0.0
 10
3.242891
 20
0.584627
 30
0.0
 10
3.124403
 20
0.575103
 30
0.0
 10
3.017480
 20
0.578249
 30
0.0
  0
SPLINE
  5
16e
100
AcDbEntity
  8
Layer_1
 62
7
100
AcDbSpline
 70
8
 71
3
 72
8
 73
4
 74
0
 40
0
 40
0
 40
0
 40
0
 40
1
 40
1
 40
1
 40
1
 10
3.017480
 20
0.578249
 30
0.0
 10
2.911748
 20
0.581367
 30
0.0
 10
2.869512
 20
0.593273
 30
0.0
 10
2.792409
 20
0.640725
 30
0.0
  0
SPLINE
  5
16f
100
AcDbEntity
  8
Layer_1
 62
7
100
AcDbSpline
 70
8
 71
3
 72
8
 73
4
 74
0
 40
0
 40
0
 40
0
 40
0
 40
1
 40
1
 40
1
 40
1
 10
2.792409
 20
0.640725
 30
0.0
 10
2.738551
 20
0.673919
 30
0.0
 10
2.645858
 20
0.765619
 30
0.0
 10
2.596819
 20
0.833821
 30
0.0
  0
SPLINE
  5
170
100
AcDbEntity
  8
Layer_1
 62
7
100
AcDbSpline
 70
8
 71
3
 72
8
 73
4
 74
0
 40
0
 40
0
 40
0
 40
0
 40
1
 40
1
 40
1
 40
1
 10
2.596819
 20
0.833821
 30
0.0
 10
2.579811
 20
0.859333
 30
0.0
 10
2.556000
 20
0.888926
 30
0.0
 10
2.546646
 20
0.899443
 30
0.0
  0
LWPOLYLINE
  5
171
100
AcDbEntity
  8
Layer_1
 62
7
100
AcDbPolyline
 90
3
 70
0
 10
2.082784
 20
1.915352
 30
0.0
 10
2.084513
 20
1.887572
 30
0.0
 10
2.118246
 20
1.918470
 30
0.0
  0
SPLINE
  5
172
100
AcDbEntity
  8
Layer_1
 62
7
100
AcDbSpline
 70
8
 71
3
 72
8
 73
4
 74
0
 40
0
 40
0
 40
0
 40
0
 40
1
 40
1
 40
1
 40
1
 10
2.529723
 20
0.761226
 30
0.0
 10
2.529808
 20
0.609544
 30
0.0
 10
2.529213
 20
0.601040
 30
0.0
 10
2.512715
 20
0.531534
 30
0.0
  0
SPLINE
  5
173
100
AcDbEntity
  8
Layer_1
 62
7
100
AcDbSpline
 70
8
 71
3
 72
8
 73
4
 74
0
 40
0
 40
0
 40
0
 40
0
 40
1
 40
1
 40
1
 40
1
 10
2.512715
 20
0.531534
 30
0.0
 10
2.487203
 20
0.423733
 30
0.0
 10
2.458006
 20
0.343767
 30
0.0
 10
2.404431
 20
0.236779
 30
0.0
  0
SPLINE
  5
174
100
AcDbEntity
  8
Layer_1
 62
7
100
AcDbSpline
 70
8
 71
3
 72
8
 73
4
 74
0
 40
0
 40
0
 40
0
 40
0
 40
1
 40
1
 40
1
 40
1
 10
2.404431
 20
0.236779
 30
0.0
 10
2.327046
 20
0.082603
 30
0.0
 10
2.281975
 20
0.023586
 30
0.0
 10
2.229534
 20
0.007995
 30
0.0
  0
SPLINE
  5
175
100
AcDbEntity
  8
Layer_1
 62
7
100
AcDbSpline
 70
8
 71
3
 72
8
 73
4
 74
0
 40
0
 40
0
 40
0
 40
0
 40
1
 40
1
 40
1
 40
1
 10
2.229534
 20
0.007995
 30
0.0
 10
2.212526
 20
0.003176
 30
0.0
 10
2.198069
 20
-0.000509
 30
0.0
 10
2.196368
 20
0.000058
 30
0.0
  0
SPLINE
  5
176
100
AcDbEntity
  8
Layer_1
 62
7
100
AcDbSpline
 70
8
 71
3
 72
8
 73
4
 74
0
 40
0
 40
0
 40
0
 40
0
 40
1
 40
1
 40
1
 40
1
 10
2.196368
 20
0.000058
 30
0.0
 10
2.194639
 20
0.000557
 30
0.0
 10
2.185030
 20
0.001977
 30
0.0
 10
2.179361
 20
0.003460
 30
0.0
  0
LWPOLYLINE
  5
177
100
AcDbEntity
  8
Layer_1
 62
7
100
AcDbPolyline
 90
3
 70
0
 10
2.546646
 20
0.899443
 30
0.0
 10
2.529638
 20
0.918719
 30
0.0
 10
2.529723
 20
0.761226
 30
0.0
  0
SPLINE
  5
178
100
AcDbEntity
  8
Layer_1
 62
7
100
AcDbSpline
 70
8
 71
3
 72
8
 73
4
 74
0
 40
0
 40
0
 40
0
 40
0
 40
1
 40
1
 40
1
 40
1
 10
2.240476
 20
0.032781
 30
0.0
 10
2.277893
 20
0.053191
 30
0.0
 10
2.333452
 20
0.136699
 30
0.0
 10
2.394113
 20
0.262756
 30
0.0
  0
SPLINE
  5
179
100
AcDbEntity
  8
Layer_1
 62
7
100
AcDbSpline
 70
8
 71
3
 72
8
 73
4
 74
0
 40
0
 40
0
 40
0
 40
0
 40
1
 40
1
 40
1
 40
1
 10
2.394113
 20
0.262756
 30
0.0
 10
2.490491
 20
0.463902
 30
0.0
 10
2.516287
 20
0.575789
 30
0.0
 10
2.510050
 20
0.768153
 30
0.0
  0
SPLINE
  5
17a
100
AcDbEntity
  8
Layer_1
 62
7
100
AcDbSpline
 70
8
 71
3
 72
8
 73
4
 74
0
 40
0
 40
0
 40
0
 40
0
 40
1
 40
1
 40
1
 40
1
 10
2.510050
 20
0.768153
 30
0.0
 10
2.504381
 20
0.942994
 30
0.0
 10
2.490208
 20
1.049492
 30
0.0
 10
2.461578
 20
1.129395
 30
0.0
  0
LWPOLYLINE
  5
17b
100
AcDbEntity
  8
Layer_1
 62
7
100
AcDbPolyline
 90
2
 70
0
 10
2.179361
 20
0.003460
 30
0.0
 10
2.175846
 20
0.002365
 30
0.0
  0
SPLINE
  5
17c
100
AcDbEntity
  8
Layer_1
 62
7
100
AcDbSpline
 70
8
 71
3
 72
8
 73
4
 74
0
 40
0
 40
0
 40
0
 40
0
 40
1
 40
1
 40
1
 40
1
 10
2.461578
 20
1.174494
 30
0.0
 10
2.470082
 20
1.178463
 30
0.0
 10
2.475751
 20
1.184416
 30
0.0
 10
2.472917
 20
1.193770
 30
0.0
  0
SPLINE
  5
17d
100
AcDbEntity
  8
Layer_1
 62
7
100
AcDbSpline
 70
8
 71
3
 72
8
 73
4
 74
0
 40
0
 40
0
 40
0
 40
0
 40
1
 40
1
 40
1
 40
1
 10
2.472917
 20
1.193770
 30
0.0
 10
2.471698
 20
1.201707
 30
0.0
 10
2.474674
 20
1.208793
 30
0.0
 10
2.478586
 20
1.211061
 30
0.0
  0
SPLINE
  5
17e
100
AcDbEntity
  8
Layer_1
 62
7
100
AcDbSpline
 70
8
 71
3
 72
8
 73
4
 74
0
 40
0
 40
0
 40
0
 40
0
 40
1
 40
1
 40
1
 40
1
 10
2.478586
 20
1.211061
 30
0.0
 10
2.484255
 20
1.212804
 30
0.0
 10
2.484255
 20
1.218148
 30
0.0
 10
2.484255
 20
1.222400
 30
0.0
  0
SPLINE
  5
17f
100
AcDbEntity
  8
Layer_1
 62
7
100
AcDbSpline
 70
8
 71
3
 72
8
 73
4
 74
0
 40
0
 40
0
 40
0
 40
0
 40
1
 40
1
 40
1
 40
1
 10
2.484255
 20
1.222400
 30
0.0
 10
2.483065
 20
1.227219
 30
0.0
 10
2.486863
 20
1.234022
 30
0.0
 10
2.498428
 20
1.239124
 30
0.0
  0
SPLINE
  5
180
100
AcDbEntity
  8
Layer_1
 62
7
100
AcDbSpline
 70
8
 71
3
 72
8
 73
4
 74
0
 40
0
 40
0
 40
0
 40
0
 40
1
 40
1
 40
1
 40
1
 10
2.498428
 20
1.239124
 30
0.0
 10
2.509767
 20
1.244510
 30
0.0
 10
2.512602
 20
1.249329
 30
0.0
 10
2.509767
 20
1.251880
 30
0.0
  0
SPLINE
  5
181
100
AcDbEntity
  8
Layer_1
 62
7
100
AcDbSpline
 70
8
 71
3
 72
8
 73
4
 74
0
 40
0
 40
0
 40
0
 40
0
 40
1
 40
1
 40
1
 40
1
 10
2.509767
 20
1.251880
 30
0.0
 10
2.495594
 20
1.260667
 30
0.0
 10
2.504098
 20
1.267471
 30
0.0
 10
2.526775
 20
1.267471
 30
0.0
  0
SPLINE
  5
182
100
AcDbEntity
  8
Layer_1
 62
7
100
AcDbSpline
 70
8
 71
3
 72
8
 73
4
 74
0
 40
0
 40
0
 40
0
 40
0
 40
1
 40
1
 40
1
 40
1
 10
2.526775
 20
1.267471
 30
0.0
 10
2.546617
 20
1.267618
 30
0.0
 10
2.549452
 20
1.268811
 30
0.0
 10
2.543783
 20
1.273707
 30
0.0
  0
SPLINE
  5
183
100
AcDbEntity
  8
Layer_1
 62
7
100
AcDbSpline
 70
8
 71
3
 72
8
 73
4
 74
0
 40
0
 40
0
 40
0
 40
0
 40
1
 40
1
 40
1
 40
1
 10
2.543783
 20
1.273707
 30
0.0
 10
2.526775
 20
1.284762
 30
0.0
 10
2.532444
 20
1.291565
 30
0.0
 10
2.557956
 20
1.287880
 30
0.0
  0
SPLINE
  5
184
100
AcDbEntity
  8
Layer_1
 62
7
100
AcDbSpline
 70
8
 71
3
 72
8
 73
4
 74
0
 40
0
 40
0
 40
0
 40
0
 40
1
 40
1
 40
1
 40
1
 10
2.557956
 20
1.287880
 30
0.0
 10
2.572129
 20
1.285785
 30
0.0
 10
2.580633
 20
1.285610
 30
0.0
 10
2.580633
 20
1.287733
 30
0.0
  0
SPLINE
  5
185
100
AcDbEntity
  8
Layer_1
 62
7
100
AcDbSpline
 70
8
 71
3
 72
8
 73
4
 74
0
 40
0
 40
0
 40
0
 40
0
 40
1
 40
1
 40
1
 40
1
 10
2.580633
 20
1.287733
 30
0.0
 10
2.580633
 20
1.289827
 30
0.0
 10
2.569294
 20
1.298788
 30
0.0
 10
2.555121
 20
1.307575
 30
0.0
  0
SPLINE
  5
186
100
AcDbEntity
  8
Layer_1
 62
7
100
AcDbSpline
 70
8
 71
3
 72
8
 73
4
 74
0
 40
0
 40
0
 40
0
 40
0
 40
1
 40
1
 40
1
 40
1
 10
2.555121
 20
1.307575
 30
0.0
 10
2.535279
 20
1.320615
 30
0.0
 10
2.532444
 20
1.324300
 30
0.0
 10
2.538113
 20
1.327418
 30
0.0
  0
SPLINE
  5
187
100
AcDbEntity
  8
Layer_1
 62
7
100
AcDbSpline
 70
8
 71
3
 72
8
 73
4
 74
0
 40
0
 40
0
 40
0
 40
0
 40
1
 40
1
 40
1
 40
1
 10
2.538113
 20
1.327418
 30
0.0
 10
2.549452
 20
1.330819
 30
0.0
 10
2.549452
 20
1.332237
 30
0.0
 10
2.536384
 20
1.342441
 30
0.0
  0
SPLINE
  5
188
100
AcDbEntity
  8
Layer_1
 62
7
100
AcDbSpline
 70
8
 71
3
 72
8
 73
4
 74
0
 40
0
 40
0
 40
0
 40
0
 40
1
 40
1
 40
1
 40
1
 10
2.536384
 20
1.342441
 30
0.0
 10
2.519376
 20
1.356615
 30
0.0
 10
2.527880
 20
1.359733
 30
0.0
 10
2.561896
 20
1.352363
 30
0.0
  0
SPLINE
  5
189
100
AcDbEntity
  8
Layer_1
 62
7
100
AcDbSpline
 70
8
 71
3
 72
8
 73
4
 74
0
 40
0
 40
0
 40
0
 40
0
 40
1
 40
1
 40
1
 40
1
 10
2.561896
 20
1.352363
 30
0.0
 10
2.593644
 20
1.345276
 30
0.0
 10
2.598463
 20
1.347827
 30
0.0
 10
2.576069
 20
1.360016
 30
0.0
  0
SPLINE
  5
18a
100
AcDbEntity
  8
Layer_1
 62
7
100
AcDbSpline
 70
8
 71
3
 72
8
 73
4
 74
0
 40
0
 40
0
 40
0
 40
0
 40
1
 40
1
 40
1
 40
1
 10
2.576069
 20
1.360016
 30
0.0
 10
2.556227
 20
1.371071
 30
0.0
 10
2.531849
 20
1.392359
 30
0.0
 10
2.531849
 20
1.400835
 30
0.0
  0
SPLINE
  5
18b
100
AcDbEntity
  8
Layer_1
 62
7
100
AcDbSpline
 70
8
 71
3
 72
8
 73
4
 74
0
 40
0
 40
0
 40
0
 40
0
 40
1
 40
1
 40
1
 40
1
 10
2.531849
 20
1.400835
 30
0.0
 10
2.531849
 20
1.404804
 30
0.0
 10
2.543187
 20
1.405654
 30
0.0
 10
2.557361
 20
1.403437
 30
0.0
  0
LWPOLYLINE
  5
18c
100
AcDbEntity
  8
Layer_1
 62
7
100
AcDbPolyline
 90
3
 70
0
 10
2.461578
 20
1.129395
 30
0.0
 10
2.447405
 20
1.168825
 30
0.0
 10
2.461578
 20
1.174494
 30
0.0
  0
SPLINE
  5
18d
100
AcDbEntity
  8
Layer_1
 62
7
100
AcDbSpline
 70
8
 71
3
 72
8
 73
4
 74
0
 40
0
 40
0
 40
0
 40
0
 40
1
 40
1
 40
1
 40
1
 10
2.565865
 20
1.415059
 30
0.0
 10
2.551691
 20
1.427248
 30
0.0
 10
2.548857
 20
1.432351
 30
0.0
 10
2.554526
 20
1.438870
 30
0.0
  0
SPLINE
  5
18e
100
AcDbEntity
  8
Layer_1
 62
7
100
AcDbSpline
 70
8
 71
3
 72
8
 73
4
 74
0
 40
0
 40
0
 40
0
 40
0
 40
1
 40
1
 40
1
 40
1
 10
2.554526
 20
1.438870
 30
0.0
 10
2.560195
 20
1.445673
 30
0.0
 10
2.557134
 20
1.447658
 30
0.0
 10
2.548857
 20
1.449359
 30
0.0
  0
SPLINE
  5
18f
100
AcDbEntity
  8
Layer_1
 62
7
100
AcDbSpline
 70
8
 71
3
 72
8
 73
4
 74
0
 40
0
 40
0
 40
0
 40
0
 40
1
 40
1
 40
1
 40
1
 10
2.548857
 20
1.449359
 30
0.0
 10
2.537518
 20
1.450696
 30
0.0
 10
2.534683
 20
1.455028
 30
0.0
 10
2.534683
 20
1.464382
 30
0.0
  0
SPLINE
  5
190
100
AcDbEntity
  8
Layer_1
 62
7
100
AcDbSpline
 70
8
 71
3
 72
8
 73
4
 74
0
 40
0
 40
0
 40
0
 40
0
 40
1
 40
1
 40
1
 40
1
 10
2.534683
 20
1.464382
 30
0.0
 10
2.535080
 20
1.475721
 30
0.0
 10
2.532926
 20
1.477138
 30
0.0
 10
2.517676
 20
1.474303
 30
0.0
  0
SPLINE
  5
191
100
AcDbEntity
  8
Layer_1
 62
7
100
AcDbSpline
 70
8
 71
3
 72
8
 73
4
 74
0
 40
0
 40
0
 40
0
 40
0
 40
1
 40
1
 40
1
 40
1
 10
2.517676
 20
1.474303
 30
0.0
 10
2.506337
 20
1.472381
 30
0.0
 10
2.500668
 20
1.473513
 30
0.0
 10
2.500668
 20
1.477138
 30
0.0
  0
SPLINE
  5
192
100
AcDbEntity
  8
Layer_1
 62
7
100
AcDbSpline
 70
8
 71
3
 72
8
 73
4
 74
0
 40
0
 40
0
 40
0
 40
0
 40
1
 40
1
 40
1
 40
1
 10
2.500668
 20
1.477138
 30
0.0
 10
2.500668
 20
1.480540
 30
0.0
 10
2.512006
 20
1.485075
 30
0.0
 10
2.520510
 20
1.487059
 30
0.0
  0
SPLINE
  5
193
100
AcDbEntity
  8
Layer_1
 62
7
100
AcDbSpline
 70
8
 71
3
 72
8
 73
4
 74
0
 40
0
 40
0
 40
0
 40
0
 40
1
 40
1
 40
1
 40
1
 10
2.520510
 20
1.487059
 30
0.0
 10
2.531849
 20
1.489157
 30
0.0
 10
2.543187
 20
1.494996
 30
0.0
 10
2.548857
 20
1.499815
 30
0.0
  0
SPLINE
  5
194
100
AcDbEntity
  8
Layer_1
 62
7
100
AcDbSpline
 70
8
 71
3
 72
8
 73
4
 74
0
 40
0
 40
0
 40
0
 40
0
 40
1
 40
1
 40
1
 40
1
 10
2.548857
 20
1.499815
 30
0.0
 10
2.554526
 20
1.508603
 30
0.0
 10
2.571534
 20
1.512004
 30
0.0
 10
2.571534
 20
1.504634
 30
0.0
  0
SPLINE
  5
195
100
AcDbEntity
  8
Layer_1
 62
7
100
AcDbSpline
 70
8
 71
3
 72
8
 73
4
 74
0
 40
0
 40
0
 40
0
 40
0
 40
1
 40
1
 40
1
 40
1
 10
2.571534
 20
1.504634
 30
0.0
 10
2.571534
 20
1.502536
 30
0.0
 10
2.565865
 20
1.491878
 30
0.0
 10
2.557361
 20
1.481107
 30
0.0
  0
LWPOLYLINE
  5
196
100
AcDbEntity
  8
Layer_1
 62
7
100
AcDbPolyline
 90
3
 70
0
 10
2.557361
 20
1.403437
 30
0.0
 10
2.582872
 20
1.399469
 30
0.0
 10
2.565865
 20
1.415059
 30
0.0
  0
SPLINE
  5
197
100
AcDbEntity
  8
Layer_1
 62
7
100
AcDbSpline
 70
8
 71
3
 72
8
 73
4
 74
0
 40
0
 40
0
 40
0
 40
0
 40
1
 40
1
 40
1
 40
1
 10
2.565865
 20
1.453894
 30
0.0
 10
2.580038
 20
1.449925
 30
0.0
 10
2.591376
 20
1.443973
 30
0.0
 10
2.595912
 20
1.440855
 30
0.0
  0
SPLINE
  5
198
100
AcDbEntity
  8
Layer_1
 62
7
100
AcDbSpline
 70
8
 71
3
 72
8
 73
4
 74
0
 40
0
 40
0
 40
0
 40
0
 40
1
 40
1
 40
1
 40
1
 10
2.595912
 20
1.440855
 30
0.0
 10
2.607250
 20
1.432634
 30
0.0
 10
2.597641
 20
1.423280
 30
0.0
 10
2.584573
 20
1.427248
 30
0.0
  0
SPLINE
  5
199
100
AcDbEntity
  8
Layer_1
 62
7
100
AcDbSpline
 70
8
 71
3
 72
8
 73
4
 74
0
 40
0
 40
0
 40
0
 40
0
 40
1
 40
1
 40
1
 40
1
 10
2.584573
 20
1.427248
 30
0.0
 10
2.567565
 20
1.432918
 30
0.0
 10
2.570400
 20
1.419878
 30
0.0
 10
2.590242
 20
1.407973
 30
0.0
  0
SPLINE
  5
19a
100
AcDbEntity
  8
Layer_1
 62
7
100
AcDbSpline
 70
8
 71
3
 72
8
 73
4
 74
0
 40
0
 40
0
 40
0
 40
0
 40
1
 40
1
 40
1
 40
1
 10
2.590242
 20
1.407973
 30
0.0
 10
2.618872
 20
1.390965
 30
0.0
 10
2.612920
 20
1.379626
 30
0.0
 10
2.578904
 20
1.384445
 30
0.0
  0
SPLINE
  5
19b
100
AcDbEntity
  8
Layer_1
 62
7
100
AcDbSpline
 70
8
 71
3
 72
8
 73
4
 74
0
 40
0
 40
0
 40
0
 40
0
 40
1
 40
1
 40
1
 40
1
 10
2.578904
 20
1.384445
 30
0.0
 10
2.550557
 20
1.388414
 30
0.0
 10
2.550557
 20
1.387847
 30
0.0
 10
2.561896
 20
1.377359
 30
0.0
  0
SPLINE
  5
19c
100
AcDbEntity
  8
Layer_1
 62
7
100
AcDbSpline
 70
8
 71
3
 72
8
 73
4
 74
0
 40
0
 40
0
 40
0
 40
0
 40
1
 40
1
 40
1
 40
1
 10
2.561896
 20
1.377359
 30
0.0
 10
2.576069
 20
1.366870
 30
0.0
 10
2.601865
 20
1.356666
 30
0.0
 10
2.638148
 20
1.349012
 30
0.0
  0
SPLINE
  5
19d
100
AcDbEntity
  8
Layer_1
 62
7
100
AcDbSpline
 70
8
 71
3
 72
8
 73
4
 74
0
 40
0
 40
0
 40
0
 40
0
 40
1
 40
1
 40
1
 40
1
 10
2.638148
 20
1.349012
 30
0.0
 10
2.669896
 20
1.342492
 30
0.0
 10
2.652321
 20
1.333988
 30
0.0
 10
2.609802
 20
1.333705
 30
0.0
  0
SPLINE
  5
19e
100
AcDbEntity
  8
Layer_1
 62
7
100
AcDbSpline
 70
8
 71
3
 72
8
 73
4
 74
0
 40
0
 40
0
 40
0
 40
0
 40
1
 40
1
 40
1
 40
1
 10
2.609802
 20
1.333705
 30
0.0
 10
2.557928
 20
1.333492
 30
0.0
 10
2.564164
 20
1.327185
 30
0.0
 10
2.629644
 20
1.313296
 30
0.0
  0
SPLINE
  5
19f
100
AcDbEntity
  8
Layer_1
 62
7
100
AcDbSpline
 70
8
 71
3
 72
8
 73
4
 74
0
 40
0
 40
0
 40
0
 40
0
 40
1
 40
1
 40
1
 40
1
 10
2.629644
 20
1.313296
 30
0.0
 10
2.729424
 20
1.292319
 30
0.0
 10
2.827219
 20
1.289201
 30
0.0
 10
3.150000
 20
1.297138
 30
0.0
  0
SPLINE
  5
1a0
100
AcDbEntity
  8
Layer_1
 62
7
100
AcDbSpline
 70
8
 71
3
 72
8
 73
4
 74
0
 40
0
 40
0
 40
0
 40
0
 40
1
 40
1
 40
1
 40
1
 10
3.150000
 20
1.297138
 30
0.0
 10
3.688328
 20
1.310177
 30
0.0
 10
3.816028
 20
1.324918
 30
0.0
 10
3.950022
 20
1.388272
 30
0.0
  0
SPLINE
  5
1a1
100
AcDbEntity
  8
Layer_1
 62
7
100
AcDbSpline
 70
8
 71
3
 72
8
 73
4
 74
0
 40
0
 40
0
 40
0
 40
0
 40
1
 40
1
 40
1
 40
1
 10
3.950022
 20
1.388272
 30
0.0
 10
4.013518
 20
1.418319
 30
0.0
 10
4.145329
 20
1.558294
 30
0.0
 10
4.291512
 20
1.750868
 30
0.0
  0
SPLINE
  5
1a2
100
AcDbEntity
  8
Layer_1
 62
7
100
AcDbSpline
 70
8
 71
3
 72
8
 73
4
 74
0
 40
0
 40
0
 40
0
 40
0
 40
1
 40
1
 40
1
 40
1
 10
4.291512
 20
1.750868
 30
0.0
 10
4.371732
 20
1.856686
 30
0.0
 10
4.405748
 20
1.922251
 30
0.0
 10
4.408583
 20
1.977498
 30
0.0
  0
SPLINE
  5
1a3
100
AcDbEntity
  8
Layer_1
 62
7
100
AcDbSpline
 70
8
 71
3
 72
8
 73
4
 74
0
 40
0
 40
0
 40
0
 40
0
 40
1
 40
1
 40
1
 40
1
 10
4.408583
 20
1.977498
 30
0.0
 10
4.410340
 20
2.028749
 30
0.0
 10
4.397244
 20
2.048846
 30
0.0
 10
4.350472
 20
2.073394
 30
0.0
  0
SPLINE
  5
1a4
100
AcDbEntity
  8
Layer_1
 62
7
100
AcDbSpline
 70
8
 71
3
 72
8
 73
4
 74
0
 40
0
 40
0
 40
0
 40
0
 40
1
 40
1
 40
1
 40
1
 10
4.350472
 20
2.073394
 30
0.0
 10
4.237937
 20
2.130229
 30
0.0
 10
4.027068
 20
2.144459
 30
0.0
 10
3.843694
 20
2.107552
 30
0.0
  0
SPLINE
  5
1a5
100
AcDbEntity
  8
Layer_1
 62
7
100
AcDbSpline
 70
8
 71
3
 72
8
 73
4
 74
0
 40
0
 40
0
 40
0
 40
0
 40
1
 40
1
 40
1
 40
1
 10
3.843694
 20
2.107552
 30
0.0
 10
3.676450
 20
2.073905
 30
0.0
 10
3.483468
 20
2.018771
 30
0.0
 10
3.330170
 20
1.961001
 30
0.0
  0
SPLINE
  5
1a6
100
AcDbEntity
  8
Layer_1
 62
7
100
AcDbSpline
 70
8
 71
3
 72
8
 73
4
 74
0
 40
0
 40
0
 40
0
 40
0
 40
1
 40
1
 40
1
 40
1
 10
3.330170
 20
1.961001
 30
0.0
 10
3.290485
 20
1.945977
 30
0.0
 10
3.232375
 20
1.924944
 30
0.0
 10
3.200627
 20
1.914201
 30
0.0
  0
SPLINE
  5
1a7
100
AcDbEntity
  8
Layer_1
 62
7
100
AcDbSpline
 70
8
 71
3
 72
8
 73
4
 74
0
 40
0
 40
0
 40
0
 40
0
 40
1
 40
1
 40
1
 40
1
 10
3.200627
 20
1.914201
 30
0.0
 10
2.868406
 20
1.800305
 30
0.0
 10
2.746375
 20
1.741457
 30
0.0
 10
2.495594
 20
1.574296
 30
0.0
  0
LWPOLYLINE
  5
1a8
100
AcDbEntity
  8
Layer_1
 62
7
100
AcDbPolyline
 90
3
 70
0
 10
2.557361
 20
1.481107
 30
0.0
 10
2.543187
 20
1.461264
 30
0.0
 10
2.565865
 20
1.453894
 30
0.0
  0
SPLINE
  5
1a9
100
AcDbEntity
  8
Layer_1
 62
7
100
AcDbSpline
 70
8
 71
3
 72
8
 73
4
 74
0
 40
0
 40
0
 40
0
 40
0
 40
1
 40
1
 40
1
 40
1
 10
2.474164
 20
1.512075
 30
0.0
 10
2.474844
 20
1.478570
 30
0.0
 10
2.473427
 20
1.463773
 30
0.0
 10
2.468494
 20
1.461930
 30
0.0
  0
SPLINE
  5
1aa
100
AcDbEntity
  8
Layer_1
 62
7
100
AcDbSpline
 70
8
 71
3
 72
8
 73
4
 74
0
 40
0
 40
0
 40
0
 40
0
 40
1
 40
1
 40
1
 40
1
 10
2.468494
 20
1.461930
 30
0.0
 10
2.462825
 20
1.460008
 30
0.0
 10
2.462825
 20
1.469300
 30
0.0
 10
2.462825
 20
1.495719
 30
0.0
  0
SPLINE
  5
1ab
100
AcDbEntity
  8
Layer_1
 62
7
100
AcDbSpline
 70
8
 71
3
 72
8
 73
4
 74
0
 40
0
 40
0
 40
0
 40
0
 40
1
 40
1
 40
1
 40
1
 10
2.462825
 20
1.495719
 30
0.0
 10
2.462825
 20
1.520947
 30
0.0
 10
2.457156
 20
1.546913
 30
0.0
 10
2.445817
 20
1.580390
 30
0.0
  0
SPLINE
  5
1ac
100
AcDbEntity
  8
Layer_1
 62
7
100
AcDbSpline
 70
8
 71
3
 72
8
 73
4
 74
0
 40
0
 40
0
 40
0
 40
0
 40
1
 40
1
 40
1
 40
1
 10
2.445817
 20
1.580390
 30
0.0
 10
2.425975
 20
1.637593
 30
0.0
 10
2.412085
 20
1.656784
 30
0.0
 10
2.365030
 20
1.701004
 30
0.0
  0
SPLINE
  5
1ad
100
AcDbEntity
  8
Layer_1
 62
7
100
AcDbSpline
 70
8
 71
3
 72
8
 73
4
 74
0
 40
0
 40
0
 40
0
 40
0
 40
1
 40
1
 40
1
 40
1
 10
2.365030
 20
1.701004
 30
0.0
 10
2.330731
 20
1.733121
 30
0.0
 10
2.329597
 20
1.735303
 30
0.0
 10
2.327329
 20
1.769518
 30
0.0
  0
SPLINE
  5
1ae
100
AcDbEntity
  8
Layer_1
 62
7
100
AcDbSpline
 70
8
 71
3
 72
8
 73
4
 74
0
 40
0
 40
0
 40
0
 40
0
 40
1
 40
1
 40
1
 40
1
 10
2.327329
 20
1.769518
 30
0.0
 10
2.325543
 20
1.796730
 30
0.0
 10
2.321660
 20
1.813058
 30
0.0
 10
2.304652
 20
1.840299
 30
0.0
  0
SPLINE
  5
1af
100
AcDbEntity
  8
Layer_1
 62
7
100
AcDbSpline
 70
8
 71
3
 72
8
 73
4
 74
0
 40
0
 40
0
 40
0
 40
0
 40
1
 40
1
 40
1
 40
1
 10
2.304652
 20
1.840299
 30
0.0
 10
2.279140
 20
1.881713
 30
0.0
 10
2.206573
 20
1.947505
 30
0.0
 10
2.185880
 20
1.947505
 30
0.0
  0
SPLINE
  5
1b0
100
AcDbEntity
  8
Layer_1
 62
7
100
AcDbSpline
 70
8
 71
3
 72
8
 73
4
 74
0
 40
0
 40
0
 40
0
 40
0
 40
1
 40
1
 40
1
 40
1
 10
2.185880
 20
1.947505
 30
0.0
 10
2.166038
 20
1.947505
 30
0.0
 10
2.120117
 20
1.909747
 30
0.0
 10
2.088935
 20
1.868305
 30
0.0
  0
SPLINE
  5
1b1
100
AcDbEntity
  8
Layer_1
 62
7
100
AcDbSpline
 70
8
 71
3
 72
8
 73
4
 74
0
 40
0
 40
0
 40
0
 40
0
 40
1
 40
1
 40
1
 40
1
 10
2.088935
 20
1.868305
 30
0.0
 10
2.060022
 20
1.829952
 30
0.0
 10
2.046132
 20
1.782642
 30
0.0
 10
2.051235
 20
1.742475
 30
0.0
  0
SPLINE
  5
1b2
100
AcDbEntity
  8
Layer_1
 62
7
100
AcDbSpline
 70
8
 71
3
 72
8
 73
4
 74
0
 40
0
 40
0
 40
0
 40
0
 40
1
 40
1
 40
1
 40
1
 10
2.051235
 20
1.742475
 30
0.0
 10
2.052992
 20
1.722916
 30
0.0
 10
2.051603
 20
1.717530
 30
0.0
 10
2.034227
 20
1.700862
 30
0.0
  0
SPLINE
  5
1b3
100
AcDbEntity
  8
Layer_1
 62
7
100
AcDbSpline
 70
8
 71
3
 72
8
 73
4
 74
0
 40
0
 40
0
 40
0
 40
0
 40
1
 40
1
 40
1
 40
1
 10
2.034227
 20
1.700862
 30
0.0
 10
2.001912
 20
1.669568
 30
0.0
 10
1.959959
 20
1.579426
 30
0.0
 10
1.953156
 20
1.526447
 30
0.0
  0
SPLINE
  5
1b4
100
AcDbEntity
  8
Layer_1
 62
7
100
AcDbSpline
 70
8
 71
3
 72
8
 73
4
 74
0
 40
0
 40
0
 40
0
 40
0
 40
1
 40
1
 40
1
 40
1
 10
1.953156
 20
1.526447
 30
0.0
 10
1.951398
 20
1.501785
 30
0.0
 10
1.947487
 20
1.479278
 30
0.0
 10
1.947487
 20
1.476840
 30
0.0
  0
SPLINE
  5
1b5
100
AcDbEntity
  8
Layer_1
 62
7
100
AcDbSpline
 70
8
 71
3
 72
8
 73
4
 74
0
 40
0
 40
0
 40
0
 40
0
 40
1
 40
1
 40
1
 40
1
 10
1.947487
 20
1.476840
 30
0.0
 10
1.947373
 20
1.474241
 30
0.0
 10
1.944879
 20
1.472305
 30
0.0
 10
1.936148
 20
1.472305
 30
0.0
  0
SPLINE
  5
1b6
100
AcDbEntity
  8
Layer_1
 62
7
100
AcDbSpline
 70
8
 71
3
 72
8
 73
4
 74
0
 40
0
 40
0
 40
0
 40
0
 40
1
 40
1
 40
1
 40
1
 10
1.936148
 20
1.472305
 30
0.0
 10
1.927644
 20
1.472305
 30
0.0
 10
1.924809
 20
1.477691
 30
0.0
 10
1.930479
 20
1.509921
 30
0.0
  0
SPLINE
  5
1b7
100
AcDbEntity
  8
Layer_1
 62
7
100
AcDbSpline
 70
8
 71
3
 72
8
 73
4
 74
0
 40
0
 40
0
 40
0
 40
0
 40
1
 40
1
 40
1
 40
1
 10
1.930479
 20
1.509921
 30
0.0
 10
1.931698
 20
1.530614
 30
0.0
 10
1.936148
 20
1.551930
 30
0.0
 10
1.936148
 20
1.557344
 30
0.0
  0
SPLINE
  5
1b8
100
AcDbEntity
  8
Layer_1
 62
7
100
AcDbSpline
 70
8
 71
3
 72
8
 73
4
 74
0
 40
0
 40
0
 40
0
 40
0
 40
1
 40
1
 40
1
 40
1
 10
1.936148
 20
1.557344
 30
0.0
 10
1.937905
 20
1.565281
 30
0.0
 10
1.921975
 20
1.578604
 30
0.0
 10
1.863014
 20
1.617836
 30
0.0
  0
SPLINE
  5
1b9
100
AcDbEntity
  8
Layer_1
 62
7
100
AcDbSpline
 70
8
 71
3
 72
8
 73
4
 74
0
 40
0
 40
0
 40
0
 40
0
 40
1
 40
1
 40
1
 40
1
 10
1.863014
 20
1.617836
 30
0.0
 10
1.820778
 20
1.645615
 30
0.0
 10
1.770038
 20
1.678327
 30
0.0
 10
1.749912
 20
1.690261
 30
0.0
  0
SPLINE
  5
1ba
100
AcDbEntity
  8
Layer_1
 62
7
100
AcDbSpline
 70
8
 71
3
 72
8
 73
4
 74
0
 40
0
 40
0
 40
0
 40
0
 40
1
 40
1
 40
1
 40
1
 10
1.749912
 20
1.690261
 30
0.0
 10
1.677912
 20
1.733574
 30
0.0
 10
1.488841
 20
1.821221
 30
0.0
 10
1.403773
 20
1.850617
 30
0.0
  0
SPLINE
  5
1bb
100
AcDbEntity
  8
Layer_1
 62
7
100
AcDbSpline
 70
8
 71
3
 72
8
 73
4
 74
0
 40
0
 40
0
 40
0
 40
0
 40
1
 40
1
 40
1
 40
1
 10
1.403773
 20
1.850617
 30
0.0
 10
1.262608
 20
1.899373
 30
0.0
 10
1.098822
 20
1.958333
 30
0.0
 10
1.087115
 20
1.964513
 30
0.0
  0
SPLINE
  5
1bc
100
AcDbEntity
  8
Layer_1
 62
7
100
AcDbSpline
 70
8
 71
3
 72
8
 73
4
 74
0
 40
0
 40
0
 40
0
 40
0
 40
1
 40
1
 40
1
 40
1
 10
1.087115
 20
1.964513
 30
0.0
 10
1.038076
 20
1.990592
 30
0.0
 10
0.692022
 20
2.087536
 30
0.0
 10
0.558879
 20
2.112793
 30
0.0
  0
SPLINE
  5
1bd
100
AcDbEntity
  8
Layer_1
 62
7
100
AcDbSpline
 70
8
 71
3
 72
8
 73
4
 74
0
 40
0
 40
0
 40
0
 40
0
 40
1
 40
1
 40
1
 40
1
 10
0.558879
 20
2.112793
 30
0.0
 10
0.485745
 20
2.126966
 30
0.0
 10
0.324737
 20
2.131785
 30
0.0
 10
0.253786
 20
2.122714
 30
0.0
  0
SPLINE
  5
1be
100
AcDbEntity
  8
Layer_1
 62
7
100
AcDbSpline
 70
8
 71
3
 72
8
 73
4
 74
0
 40
0
 40
0
 40
0
 40
0
 40
1
 40
1
 40
1
 40
1
 10
0.253786
 20
2.122714
 30
0.0
 10
0.140400
 20
2.107974
 30
0.0
 10
0.049124
 20
2.073307
 30
0.0
 10
0.025880
 20
2.036314
 30
0.0
  0
SPLINE
  5
1bf
100
AcDbEntity
  8
Layer_1
 62
7
100
AcDbSpline
 70
8
 71
3
 72
8
 73
4
 74
0
 40
0
 40
0
 40
0
 40
0
 40
1
 40
1
 40
1
 40
1
 10
0.025880
 20
2.036314
 30
0.0
 10
0.006038
 20
2.004340
 30
0.0
 10
0.011707
 20
1.950992
 30
0.0
 10
0.042888
 20
1.887382
 30
0.0
  0
SPLINE
  5
1c0
100
AcDbEntity
  8
Layer_1
 62
7
100
AcDbSpline
 70
8
 71
3
 72
8
 73
4
 74
0
 40
0
 40
0
 40
0
 40
0
 40
1
 40
1
 40
1
 40
1
 10
0.042888
 20
1.887382
 30
0.0
 10
0.093061
 20
1.785448
 30
0.0
 10
0.307928
 20
1.521897
 30
0.0
 10
0.421597
 20
1.422843
 30
0.0
  0
SPLINE
  5
1c1
100
AcDbEntity
  8
Layer_1
 62
7
100
AcDbSpline
 70
8
 71
3
 72
8
 73
4
 74
0
 40
0
 40
0
 40
0
 40
0
 40
1
 40
1
 40
1
 40
1
 10
0.421597
 20
1.422843
 30
0.0
 10
0.460148
 20
1.389253
 30
0.0
 10
0.551140
 20
1.351722
 30
0.0
 10
0.627392
 20
1.337889
 30
0.0
  0
SPLINE
  5
1c2
100
AcDbEntity
  8
Layer_1
 62
7
100
AcDbSpline
 70
8
 71
3
 72
8
 73
4
 74
0
 40
0
 40
0
 40
0
 40
0
 40
1
 40
1
 40
1
 40
1
 10
0.627392
 20
1.337889
 30
0.0
 10
0.738227
 20
1.317763
 30
0.0
 10
0.902636
 20
1.306764
 30
0.0
 10
1.222951
 20
1.297892
 30
0.0
  0
SPLINE
  5
1c3
100
AcDbEntity
  8
Layer_1
 62
7
100
AcDbSpline
 70
8
 71
3
 72
8
 73
4
 74
0
 40
0
 40
0
 40
0
 40
0
 40
1
 40
1
 40
1
 40
1
 10
1.222951
 20
1.297892
 30
0.0
 10
1.587288
 20
1.287687
 30
0.0
 10
1.758472
 20
1.295290
 30
0.0
 10
1.824463
 20
1.323971
 30
0.0
  0
LWPOLYLINE
  5
1c4
100
AcDbEntity
  8
Layer_1
 62
7
100
AcDbPolyline
 90
3
 70
0
 10
2.495594
 20
1.574296
 30
0.0
 10
2.472917
 20
1.559555
 30
0.0
 10
2.474164
 20
1.512075
 30
0.0
  0
SPLINE
  5
1c5
100
AcDbEntity
  8
Layer_1
 62
7
100
AcDbSpline
 70
8
 71
3
 72
8
 73
4
 74
0
 40
0
 40
0
 40
0
 40
0
 40
1
 40
1
 40
1
 40
1
 10
1.800652
 20
1.333535
 30
0.0
 10
1.756998
 20
1.334031
 30
0.0
 10
1.742258
 20
1.342606
 30
0.0
 10
1.775140
 20
1.349125
 30
0.0
  0
SPLINE
  5
1c6
100
AcDbEntity
  8
Layer_1
 62
7
100
AcDbSpline
 70
8
 71
3
 72
8
 73
4
 74
0
 40
0
 40
0
 40
0
 40
0
 40
1
 40
1
 40
1
 40
1
 10
1.775140
 20
1.349125
 30
0.0
 10
1.811140
 20
1.356779
 30
0.0
 10
1.839203
 20
1.366984
 30
0.0
 10
1.851392
 20
1.377472
 30
0.0
  0
SPLINE
  5
1c7
100
AcDbEntity
  8
Layer_1
 62
7
100
AcDbSpline
 70
8
 71
3
 72
8
 73
4
 74
0
 40
0
 40
0
 40
0
 40
0
 40
1
 40
1
 40
1
 40
1
 10
1.851392
 20
1.377472
 30
0.0
 10
1.865565
 20
1.388527
 30
0.0
 10
1.865565
 20
1.388527
 30
0.0
 10
1.834384
 20
1.384559
 30
0.0
  0
SPLINE
  5
1c8
100
AcDbEntity
  8
Layer_1
 62
7
100
AcDbSpline
 70
8
 71
3
 72
8
 73
4
 74
0
 40
0
 40
0
 40
0
 40
0
 40
1
 40
1
 40
1
 40
1
 10
1.834384
 20
1.384559
 30
0.0
 10
1.800085
 20
1.380023
 30
0.0
 10
1.794983
 20
1.391362
 30
0.0
 10
1.823046
 20
1.408086
 30
0.0
  0
SPLINE
  5
1c9
100
AcDbEntity
  8
Layer_1
 62
7
100
AcDbSpline
 70
8
 71
3
 72
8
 73
4
 74
0
 40
0
 40
0
 40
0
 40
0
 40
1
 40
1
 40
1
 40
1
 10
1.823046
 20
1.408086
 30
0.0
 10
1.842888
 20
1.419992
 30
0.0
 10
1.845723
 20
1.433031
 30
0.0
 10
1.828715
 20
1.427362
 30
0.0
  0
SPLINE
  5
1ca
100
AcDbEntity
  8
Layer_1
 62
7
100
AcDbSpline
 70
8
 71
3
 72
8
 73
4
 74
0
 40
0
 40
0
 40
0
 40
0
 40
1
 40
1
 40
1
 40
1
 10
1.828715
 20
1.427362
 30
0.0
 10
1.814542
 20
1.422826
 30
0.0
 10
1.808872
 20
1.432181
 30
0.0
 10
1.817376
 20
1.440968
 30
0.0
  0
SPLINE
  5
1cb
100
AcDbEntity
  8
Layer_1
 62
7
100
AcDbSpline
 70
8
 71
3
 72
8
 73
4
 74
0
 40
0
 40
0
 40
0
 40
0
 40
1
 40
1
 40
1
 40
1
 10
1.817376
 20
1.440968
 30
0.0
 10
1.819956
 20
1.444086
 30
0.0
 10
1.834384
 20
1.450039
 30
0.0
 10
1.847424
 20
1.454007
 30
0.0
  0
LWPOLYLINE
  5
1cc
100
AcDbEntity
  8
Layer_1
 62
7
100
AcDbPolyline
 90
3
 70
0
 10
1.824463
 20
1.323971
 30
0.0
 10
1.844305
 20
1.333042
 30
0.0
 10
1.800652
 20
1.333535
 30
0.0
  0
SPLINE
  5
1cd
100
AcDbEntity
  8
Layer_1
 62
7
100
AcDbSpline
 70
8
 71
3
 72
8
 73
4
 74
0
 40
0
 40
0
 40
0
 40
0
 40
1
 40
1
 40
1
 40
1
 10
1.855928
 20
1.481220
 30
0.0
 10
1.850258
 20
1.492275
 30
0.0
 10
1.841754
 20
1.502480
 30
0.0
 10
1.841754
 20
1.504747
 30
0.0
  0
SPLINE
  5
1ce
100
AcDbEntity
  8
Layer_1
 62
7
100
AcDbSpline
 70
8
 71
3
 72
8
 73
4
 74
0
 40
0
 40
0
 40
0
 40
0
 40
1
 40
1
 40
1
 40
1
 10
1.841754
 20
1.504747
 30
0.0
 10
1.841754
 20
1.512118
 30
0.0
 10
1.858762
 20
1.508716
 30
0.0
 10
1.864431
 20
1.499929
 30
0.0
  0
SPLINE
  5
1cf
100
AcDbEntity
  8
Layer_1
 62
7
100
AcDbSpline
 70
8
 71
3
 72
8
 73
4
 74
0
 40
0
 40
0
 40
0
 40
0
 40
1
 40
1
 40
1
 40
1
 10
1.864431
 20
1.499929
 30
0.0
 10
1.867039
 20
1.495110
 30
0.0
 10
1.878605
 20
1.489157
 30
0.0
 10
1.892778
 20
1.487173
 30
0.0
  0
SPLINE
  5
1d0
100
AcDbEntity
  8
Layer_1
 62
7
100
AcDbSpline
 70
8
 71
3
 72
8
 73
4
 74
0
 40
0
 40
0
 40
0
 40
0
 40
1
 40
1
 40
1
 40
1
 10
1.892778
 20
1.487173
 30
0.0
 10
1.904117
 20
1.485078
 30
0.0
 10
1.912620
 20
1.480370
 30
0.0
 10
1.912620
 20
1.477251
 30
0.0
  0
SPLINE
  5
1d1
100
AcDbEntity
  8
Layer_1
 62
7
100
AcDbSpline
 70
8
 71
3
 72
8
 73
4
 74
0
 40
0
 40
0
 40
0
 40
0
 40
1
 40
1
 40
1
 40
1
 10
1.912620
 20
1.477251
 30
0.0
 10
1.912620
 20
1.473850
 30
0.0
 10
1.906951
 20
1.472433
 30
0.0
 10
1.895613
 20
1.474417
 30
0.0
  0
SPLINE
  5
1d2
100
AcDbEntity
  8
Layer_1
 62
7
100
AcDbSpline
 70
8
 71
3
 72
8
 73
4
 74
0
 40
0
 40
0
 40
0
 40
0
 40
1
 40
1
 40
1
 40
1
 10
1.895613
 20
1.474417
 30
0.0
 10
1.881439
 20
1.477251
 30
0.0
 10
1.878605
 20
1.475999
 30
0.0
 10
1.881439
 20
1.464496
 30
0.0
  0
SPLINE
  5
1d3
100
AcDbEntity
  8
Layer_1
 62
7
100
AcDbSpline
 70
8
 71
3
 72
8
 73
4
 74
0
 40
0
 40
0
 40
0
 40
0
 40
1
 40
1
 40
1
 40
1
 10
1.881439
 20
1.464496
 30
0.0
 10
1.881751
 20
1.455141
 30
0.0
 10
1.878831
 20
1.450606
 30
0.0
 10
1.867266
 20
1.449472
 30
0.0
  0
SPLINE
  5
1d4
100
AcDbEntity
  8
Layer_1
 62
7
100
AcDbSpline
 70
8
 71
3
 72
8
 73
4
 74
0
 40
0
 40
0
 40
0
 40
0
 40
1
 40
1
 40
1
 40
1
 10
1.867266
 20
1.449472
 30
0.0
 10
1.855928
 20
1.447893
 30
0.0
 10
1.853093
 20
1.446070
 30
0.0
 10
1.861597
 20
1.438984
 30
0.0
  0
SPLINE
  5
1d5
100
AcDbEntity
  8
Layer_1
 62
7
100
AcDbSpline
 70
8
 71
3
 72
8
 73
4
 74
0
 40
0
 40
0
 40
0
 40
0
 40
1
 40
1
 40
1
 40
1
 10
1.861597
 20
1.438984
 30
0.0
 10
1.867266
 20
1.432181
 30
0.0
 10
1.864176
 20
1.427362
 30
0.0
 10
1.850258
 20
1.415173
 30
0.0
  0
LWPOLYLINE
  5
1d6
100
AcDbEntity
  8
Layer_1
 62
7
100
AcDbPolyline
 90
3
 70
0
 10
1.847424
 20
1.454007
 30
0.0
 10
1.870101
 20
1.461377
 30
0.0
 10
1.855928
 20
1.481220
 30
0.0
  0
SPLINE
  5
1d7
100
AcDbEntity
  8
Layer_1
 62
7
100
AcDbSpline
 70
8
 71
3
 72
8
 73
4
 74
0
 40
0
 40
0
 40
0
 40
0
 40
1
 40
1
 40
1
 40
1
 10
1.858762
 20
1.403551
 30
0.0
 10
1.872935
 20
1.406153
 30
0.0
 10
1.884274
 20
1.405132
 30
0.0
 10
1.884274
 20
1.400951
 30
0.0
  0
SPLINE
  5
1d8
100
AcDbEntity
  8
Layer_1
 62
7
100
AcDbSpline
 70
8
 71
3
 72
8
 73
4
 74
0
 40
0
 40
0
 40
0
 40
0
 40
1
 40
1
 40
1
 40
1
 10
1.884274
 20
1.400951
 30
0.0
 10
1.884274
 20
1.392447
 30
0.0
 10
1.861597
 20
1.371187
 30
0.0
 10
1.840054
 20
1.360132
 30
0.0
  0
SPLINE
  5
1d9
100
AcDbEntity
  8
Layer_1
 62
7
100
AcDbSpline
 70
8
 71
3
 72
8
 73
4
 74
0
 40
0
 40
0
 40
0
 40
0
 40
1
 40
1
 40
1
 40
1
 10
1.840054
 20
1.360132
 30
0.0
 10
1.817376
 20
1.348227
 30
0.0
 10
1.823046
 20
1.343691
 30
0.0
 10
1.854227
 20
1.351628
 30
0.0
  0
SPLINE
  5
1da
100
AcDbEntity
  8
Layer_1
 62
7
100
AcDbSpline
 70
8
 71
3
 72
8
 73
4
 74
0
 40
0
 40
0
 40
0
 40
0
 40
1
 40
1
 40
1
 40
1
 10
1.854227
 20
1.351628
 30
0.0
 10
1.868400
 20
1.355030
 30
0.0
 10
1.879739
 20
1.357865
 30
0.0
 10
1.882573
 20
1.358148
 30
0.0
  0
SPLINE
  5
1db
100
AcDbEntity
  8
Layer_1
 62
7
100
AcDbSpline
 70
8
 71
3
 72
8
 73
4
 74
0
 40
0
 40
0
 40
0
 40
0
 40
1
 40
1
 40
1
 40
1
 10
1.882573
 20
1.358148
 30
0.0
 10
1.888242
 20
1.358202
 30
0.0
 10
1.888242
 20
1.341424
 30
0.0
 10
1.880844
 20
1.338022
 30
0.0
  0
SPLINE
  5
1dc
100
AcDbEntity
  8
Layer_1
 62
7
100
AcDbSpline
 70
8
 71
3
 72
8
 73
4
 74
0
 40
0
 40
0
 40
0
 40
0
 40
1
 40
1
 40
1
 40
1
 10
1.880844
 20
1.338022
 30
0.0
 10
1.878236
 20
1.336321
 30
0.0
 10
1.879058
 20
1.334904
 30
0.0
 10
1.883424
 20
1.334621
 30
0.0
  0
SPLINE
  5
1dd
100
AcDbEntity
  8
Layer_1
 62
7
100
AcDbSpline
 70
8
 71
3
 72
8
 73
4
 74
0
 40
0
 40
0
 40
0
 40
0
 40
1
 40
1
 40
1
 40
1
 10
1.883424
 20
1.334621
 30
0.0
 10
1.900431
 20
1.333929
 30
0.0
 10
1.894762
 20
1.321865
 30
0.0
 10
1.869250
 20
1.309392
 30
0.0
  0
SPLINE
  5
1de
100
AcDbEntity
  8
Layer_1
 62
7
100
AcDbSpline
 70
8
 71
3
 72
8
 73
4
 74
0
 40
0
 40
0
 40
0
 40
0
 40
1
 40
1
 40
1
 40
1
 10
1.869250
 20
1.309392
 30
0.0
 10
1.834951
 20
1.290967
 30
0.0
 10
1.832400
 20
1.283880
 30
0.0
 10
1.860746
 20
1.288416
 30
0.0
  0
SPLINE
  5
1df
100
AcDbEntity
  8
Layer_1
 62
7
100
AcDbSpline
 70
8
 71
3
 72
8
 73
4
 74
0
 40
0
 40
0
 40
0
 40
0
 40
1
 40
1
 40
1
 40
1
 10
1.860746
 20
1.288416
 30
0.0
 10
1.886258
 20
1.292384
 30
0.0
 10
1.894762
 20
1.285581
 30
0.0
 10
1.877754
 20
1.274243
 30
0.0
  0
SPLINE
  5
1e0
100
AcDbEntity
  8
Layer_1
 62
7
100
AcDbSpline
 70
8
 71
3
 72
8
 73
4
 74
0
 40
0
 40
0
 40
0
 40
0
 40
1
 40
1
 40
1
 40
1
 10
1.877754
 20
1.274243
 30
0.0
 10
1.869250
 20
1.269424
 30
0.0
 10
1.872085
 20
1.268006
 30
0.0
 10
1.891928
 20
1.268006
 30
0.0
  0
SPLINE
  5
1e1
100
AcDbEntity
  8
Layer_1
 62
7
100
AcDbSpline
 70
8
 71
3
 72
8
 73
4
 74
0
 40
0
 40
0
 40
0
 40
0
 40
1
 40
1
 40
1
 40
1
 10
1.891928
 20
1.268006
 30
0.0
 10
1.914605
 20
1.267836
 30
0.0
 10
1.924809
 20
1.260920
 30
0.0
 10
1.908935
 20
1.252416
 30
0.0
  0
SPLINE
  5
1e2
100
AcDbEntity
  8
Layer_1
 62
7
100
AcDbSpline
 70
8
 71
3
 72
8
 73
4
 74
0
 40
0
 40
0
 40
0
 40
0
 40
1
 40
1
 40
1
 40
1
 10
1.908935
 20
1.252416
 30
0.0
 10
1.906328
 20
1.249581
 30
0.0
 10
1.908198
 20
1.245046
 30
0.0
 10
1.920274
 20
1.239660
 30
0.0
  0
SPLINE
  5
1e3
100
AcDbEntity
  8
Layer_1
 62
7
100
AcDbSpline
 70
8
 71
3
 72
8
 73
4
 74
0
 40
0
 40
0
 40
0
 40
0
 40
1
 40
1
 40
1
 40
1
 10
1.920274
 20
1.239660
 30
0.0
 10
1.931613
 20
1.234841
 30
0.0
 10
1.934447
 20
1.227754
 30
0.0
 10
1.934447
 20
1.222936
 30
0.0
  0
SPLINE
  5
1e4
100
AcDbEntity
  8
Layer_1
 62
7
100
AcDbSpline
 70
8
 71
3
 72
8
 73
4
 74
0
 40
0
 40
0
 40
0
 40
0
 40
1
 40
1
 40
1
 40
1
 10
1.934447
 20
1.222936
 30
0.0
 10
1.933228
 20
1.218400
 30
0.0
 10
1.935184
 20
1.213581
 30
0.0
 10
1.940117
 20
1.211597
 30
0.0
  0
SPLINE
  5
1e5
100
AcDbEntity
  8
Layer_1
 62
7
100
AcDbSpline
 70
8
 71
3
 72
8
 73
4
 74
0
 40
0
 40
0
 40
0
 40
0
 40
1
 40
1
 40
1
 40
1
 10
1.940117
 20
1.211597
 30
0.0
 10
1.945786
 20
1.209678
 30
0.0
 10
1.948620
 20
1.203376
 30
0.0
 10
1.948620
 20
1.197424
 30
0.0
  0
SPLINE
  5
1e6
100
AcDbEntity
  8
Layer_1
 62
7
100
AcDbSpline
 70
8
 71
3
 72
8
 73
4
 74
0
 40
0
 40
0
 40
0
 40
0
 40
1
 40
1
 40
1
 40
1
 10
1.948620
 20
1.197424
 30
0.0
 10
1.947912
 20
1.191754
 30
0.0
 10
1.949357
 20
1.182117
 30
0.0
 10
1.951228
 20
1.176447
 30
0.0
  0
SPLINE
  5
1e7
100
AcDbEntity
  8
Layer_1
 62
7
100
AcDbSpline
 70
8
 71
3
 72
8
 73
4
 74
0
 40
0
 40
0
 40
0
 40
0
 40
1
 40
1
 40
1
 40
1
 10
1.951228
 20
1.176447
 30
0.0
 10
1.952986
 20
1.170211
 30
0.0
 10
1.952447
 20
1.162274
 30
0.0
 10
1.949471
 20
1.156888
 30
0.0
  0
SPLINE
  5
1e8
100
AcDbEntity
  8
Layer_1
 62
7
100
AcDbSpline
 70
8
 71
3
 72
8
 73
4
 74
0
 40
0
 40
0
 40
0
 40
0
 40
1
 40
1
 40
1
 40
1
 10
1.949471
 20
1.156888
 30
0.0
 10
1.943802
 20
1.148951
 30
0.0
 10
1.946891
 20
1.145550
 30
0.0
 10
1.955140
 20
1.146967
 30
0.0
  0
SPLINE
  5
1e9
100
AcDbEntity
  8
Layer_1
 62
7
100
AcDbSpline
 70
8
 71
3
 72
8
 73
4
 74
0
 40
0
 40
0
 40
0
 40
0
 40
1
 40
1
 40
1
 40
1
 10
1.955140
 20
1.146967
 30
0.0
 10
1.956869
 20
1.147253
 30
0.0
 10
1.960809
 20
1.144132
 30
0.0
 10
1.966479
 20
1.139313
 30
0.0
  0
SPLINE
  5
1ea
100
AcDbEntity
  8
Layer_1
 62
7
100
AcDbSpline
 70
8
 71
3
 72
8
 73
4
 74
0
 40
0
 40
0
 40
0
 40
0
 40
1
 40
1
 40
1
 40
1
 10
1.966479
 20
1.139313
 30
0.0
 10
1.972148
 20
1.133644
 30
0.0
 10
1.969058
 20
1.124573
 30
0.0
 10
1.964693
 20
1.104901
 30
0.0
  0
SPLINE
  5
1eb
100
AcDbEntity
  8
Layer_1
 62
7
100
AcDbSpline
 70
8
 71
3
 72
8
 73
4
 74
0
 40
0
 40
0
 40
0
 40
0
 40
1
 40
1
 40
1
 40
1
 10
1.964693
 20
1.104901
 30
0.0
 10
1.950520
 20
1.065811
 30
0.0
 10
1.928126
 20
0.977625
 30
0.0
 10
1.915937
 20
0.916085
 30
0.0
  0
SPLINE
  5
1ec
100
AcDbEntity
  8
Layer_1
 62
7
100
AcDbSpline
 70
8
 71
3
 72
8
 73
4
 74
0
 40
0
 40
0
 40
0
 40
0
 40
1
 40
1
 40
1
 40
1
 10
1.915937
 20
0.916085
 30
0.0
 10
1.907433
 20
0.874302
 30
0.0
 10
1.904598
 20
0.830365
 30
0.0
 10
1.904598
 20
0.723584
 30
0.0
  0
SPLINE
  5
1ed
100
AcDbEntity
  8
Layer_1
 62
7
100
AcDbSpline
 70
8
 71
3
 72
8
 73
4
 74
0
 40
0
 40
0
 40
0
 40
0
 40
1
 40
1
 40
1
 40
1
 10
1.904598
 20
0.723584
 30
0.0
 10
1.904117
 20
0.488450
 30
0.0
 10
1.918772
 20
0.394652
 30
0.0
 10
1.978299
 20
0.263408
 30
0.0
  0
SPLINE
  5
1ee
100
AcDbEntity
  8
Layer_1
 62
7
100
AcDbSpline
 70
8
 71
3
 72
8
 73
4
 74
0
 40
0
 40
0
 40
0
 40
0
 40
1
 40
1
 40
1
 40
1
 10
1.978299
 20
0.263408
 30
0.0
 10
2.033008
 20
0.142907
 30
0.0
 10
2.090835
 20
0.061213
 30
0.0
 10
2.141008
 20
0.034765
 30
0.0
  0
SPLINE
  5
1ef
100
AcDbEntity
  8
Layer_1
 62
7
100
AcDbSpline
 70
8
 71
3
 72
8
 73
4
 74
0
 40
0
 40
0
 40
0
 40
0
 40
1
 40
1
 40
1
 40
1
 10
2.141008
 20
0.034765
 30
0.0
 10
2.169354
 20
0.020309
 30
0.0
 10
2.205638
 20
0.019742
 30
0.0
 10
2.230299
 20
0.033428
 30
0.0
  0
LWPOLYLINE
  5
1f0
100
AcDbEntity
  8
Layer_1
 62
7
100
AcDbPolyline
 90
3
 70
0
 10
1.850258
 20
1.415173
 30
0.0
 10
1.833250
 20
1.399582
 30
0.0
 10
1.858762
 20
1.403551
 30
0.0
  0
SPLINE
  5
1f1
100
AcDbEntity
  8
Layer_1
 62
7
100
AcDbSpline
 70
8
 71
3
 72
8
 73
4
 74
0
 40
0
 40
0
 40
0
 40
0
 40
1
 40
1
 40
1
 40
1
 10
1.987058
 20
1.174503
 30
0.0
 10
1.984479
 20
1.186125
 30
0.0
 10
1.989666
 20
1.198030
 30
0.0
 10
2.001231
 20
1.194629
 30
0.0
  0
SPLINE
  5
1f2
100
AcDbEntity
  8
Layer_1
 62
7
100
AcDbSpline
 70
8
 71
3
 72
8
 73
4
 74
0
 40
0
 40
0
 40
0
 40
0
 40
1
 40
1
 40
1
 40
1
 10
2.001231
 20
1.194629
 30
0.0
 10
2.003839
 20
1.193294
 30
0.0
 10
2.003839
 20
1.187259
 30
0.0
 10
2.000013
 20
1.178188
 30
0.0
  0
SPLINE
  5
1f3
100
AcDbEntity
  8
Layer_1
 62
7
100
AcDbSpline
 70
8
 71
3
 72
8
 73
4
 74
0
 40
0
 40
0
 40
0
 40
0
 40
1
 40
1
 40
1
 40
1
 10
2.000013
 20
1.178188
 30
0.0
 10
1.994343
 20
1.165432
 30
0.0
 10
1.991509
 20
1.165148
 30
0.0
 10
1.988674
 20
1.174786
 30
0.0
  0
LWPOLYLINE
  5
1f4
100
AcDbEntity
  8
Layer_1
 62
7
100
AcDbPolyline
 90
2
 70
0
 10
2.230299
 20
0.033428
 30
0.0
 10
2.240476
 20
0.032781
 30
0.0
  0
SPLINE
  5
1f5
100
AcDbEntity
  8
Layer_1
 62
7
100
AcDbSpline
 70
8
 71
3
 72
8
 73
4
 74
0
 40
0
 40
0
 40
0
 40
0
 40
1
 40
1
 40
1
 40
1
 10
2.438334
 20
1.186408
 30
0.0
 10
2.436605
 20
1.191794
 30
0.0
 10
2.438334
 20
1.195479
 30
0.0
 10
2.444003
 20
1.195479
 30
0.0
  0
SPLINE
  5
1f6
100
AcDbEntity
  8
Layer_1
 62
7
100
AcDbSpline
 70
8
 71
3
 72
8
 73
4
 74
0
 40
0
 40
0
 40
0
 40
0
 40
1
 40
1
 40
1
 40
1
 10
2.444003
 20
1.195479
 30
0.0
 10
2.455342
 20
1.195479
 30
0.0
 10
2.458176
 20
1.186125
 30
0.0
 10
2.446611
 20
1.181022
 30
0.0
  0
SPLINE
  5
1f7
100
AcDbEntity
  8
Layer_1
 62
7
100
AcDbSpline
 70
8
 71
3
 72
8
 73
4
 74
0
 40
0
 40
0
 40
0
 40
0
 40
1
 40
1
 40
1
 40
1
 10
2.446611
 20
1.181022
 30
0.0
 10
2.444854
 20
1.179279
 30
0.0
 10
2.440942
 20
1.181745
 30
0.0
 10
2.438107
 20
1.186692
 30
0.0
  0
LWPOLYLINE
  5
1f8
100
AcDbEntity
  8
Layer_1
 62
7
100
AcDbPolyline
 90
2
 70
0
 10
1.988674
 20
1.174786
 30
0.0
 10
1.987058
 20
1.174503
 30
0.0
  0
SPLINE
  5
1f9
100
AcDbEntity
  8
Layer_1
 62
7
100
AcDbSpline
 70
8
 71
3
 72
8
 73
4
 74
0
 40
0
 40
0
 40
0
 40
0
 40
1
 40
1
 40
1
 40
1
 10
2.000211
 20
1.220651
 30
0.0
 10
2.005880
 20
1.226037
 30
0.0
 10
2.008715
 20
1.226037
 30
0.0
 10
2.014384
 20
1.220651
 30
0.0
  0
SPLINE
  5
1fa
100
AcDbEntity
  8
Layer_1
 62
7
100
AcDbSpline
 70
8
 71
3
 72
8
 73
4
 74
0
 40
0
 40
0
 40
0
 40
0
 40
1
 40
1
 40
1
 40
1
 10
2.014384
 20
1.220651
 30
0.0
 10
2.020054
 20
1.215265
 30
0.0
 10
2.016992
 20
1.213281
 30
0.0
 10
2.008715
 20
1.213281
 30
0.0
  0
SPLINE
  5
1fb
100
AcDbEntity
  8
Layer_1
 62
7
100
AcDbSpline
 70
8
 71
3
 72
8
 73
4
 74
0
 40
0
 40
0
 40
0
 40
0
 40
1
 40
1
 40
1
 40
1
 10
2.008715
 20
1.213281
 30
0.0
 10
1.997376
 20
1.213281
 30
0.0
 10
1.994542
 20
1.214862
 30
0.0
 10
2.003046
 20
1.220651
 30
0.0
  0
LWPOLYLINE
  5
1fc
100
AcDbEntity
  8
Layer_1
 62
7
100
AcDbPolyline
 90
2
 70
0
 10
2.438107
 20
1.186692
 30
0.0
 10
2.438334
 20
1.186408
 30
0.0
  0
SPLINE
  5
1fd
100
AcDbEntity
  8
Layer_1
 62
7
100
AcDbSpline
 70
8
 71
3
 72
8
 73
4
 74
0
 40
0
 40
0
 40
0
 40
0
 40
1
 40
1
 40
1
 40
1
 10
2.124085
 20
1.264531
 30
0.0
 10
2.141093
 20
1.277287
 30
0.0
 10
2.179928
 20
1.281256
 30
0.0
 10
2.249376
 20
1.278137
 30
0.0
  0
SPLINE
  5
1fe
100
AcDbEntity
  8
Layer_1
 62
7
100
AcDbSpline
 70
8
 71
3
 72
8
 73
4
 74
0
 40
0
 40
0
 40
0
 40
0
 40
1
 40
1
 40
1
 40
1
 10
2.249376
 20
1.278137
 30
0.0
 10
2.305786
 20
1.275303
 30
0.0
 10
2.361345
 20
1.264815
 30
0.0
 10
2.354542
 20
1.258011
 30
0.0
  0
SPLINE
  5
1ff
100
AcDbEntity
  8
Layer_1
 62
7
100
AcDbSpline
 70
8
 71
3
 72
8
 73
4
 74
0
 40
0
 40
0
 40
0
 40
0
 40
1
 40
1
 40
1
 40
1
 10
2.354542
 20
1.258011
 30
0.0
 10
2.353323
 20
1.256433
 30
0.0
 10
2.340368
 20
1.257969
 30
0.0
 10
2.325345
 20
1.261413
 30
0.0
  0
SPLINE
  5
200
100
AcDbEntity
  8
Layer_1
 62
7
100
AcDbSpline
 70
8
 71
3
 72
8
 73
4
 74
0
 40
0
 40
0
 40
0
 40
0
 40
1
 40
1
 40
1
 40
1
 10
2.325345
 20
1.261413
 30
0.0
 10
2.291613
 20
1.269350
 30
0.0
 10
2.160935
 20
1.269633
 30
0.0
 10
2.133439
 20
1.261957
 30
0.0
  0
SPLINE
  5
201
100
AcDbEntity
  8
Layer_1
 62
7
100
AcDbSpline
 70
8
 71
3
 72
8
 73
4
 74
0
 40
0
 40
0
 40
0
 40
0
 40
1
 40
1
 40
1
 40
1
 10
2.133439
 20
1.261957
 30
0.0
 10
2.116431
 20
1.256571
 30
0.0
 10
2.113597
 20
1.257138
 30
0.0
 10
2.122101
 20
1.264792
 30
0.0
  0
LWPOLYLINE
  5
202
100
AcDbEntity
  8
Layer_1
 62
7
100
AcDbPolyline
 90
2
 70
0
 10
2.003046
 20
1.220651
 30
0.0
 10
2.000211
 20
1.220651
 30
0.0
  0
SPLINE
  5
203
100
AcDbEntity
  8
Layer_1
 62
7
100
AcDbSpline
 70
8
 71
3
 72
8
 73
4
 74
0
 40
0
 40
0
 40
0
 40
0
 40
1
 40
1
 40
1
 40
1
 10
2.445449
 20
1.283807
 30
0.0
 10
2.448057
 20
1.285507
 30
0.0
 10
2.456787
 20
1.285388
 30
0.0
 10
2.456787
 20
1.283336
 30
0.0
  0
SPLINE
  5
204
100
AcDbEntity
  8
Layer_1
 62
7
100
AcDbSpline
 70
8
 71
3
 72
8
 73
4
 74
0
 40
0
 40
0
 40
0
 40
0
 40
1
 40
1
 40
1
 40
1
 10
2.456787
 20
1.283336
 30
0.0
 10
2.458545
 20
1.281239
 30
0.0
 10
2.455568
 20
1.279935
 30
0.0
 10
2.448283
 20
1.280218
 30
0.0
  0
SPLINE
  5
205
100
AcDbEntity
  8
Layer_1
 62
7
100
AcDbSpline
 70
8
 71
3
 72
8
 73
4
 74
0
 40
0
 40
0
 40
0
 40
0
 40
1
 40
1
 40
1
 40
1
 10
2.448283
 20
1.280218
 30
0.0
 10
2.442614
 20
1.280502
 30
0.0
 10
2.439779
 20
1.281922
 30
0.0
 10
2.445676
 20
1.283620
 30
0.0
  0
LWPOLYLINE
  5
206
100
AcDbEntity
  8
Layer_1
 62
7
100
AcDbPolyline
 90
2
 70
0
 10
2.122101
 20
1.264792
 30
0.0
 10
2.124085
 20
1.264531
 30
0.0
  0
SPLINE
  5
207
100
AcDbEntity
  8
Layer_1
 62
7
100
AcDbSpline
 70
8
 71
3
 72
8
 73
4
 74
0
 40
0
 40
0
 40
0
 40
0
 40
1
 40
1
 40
1
 40
1
 10
2.451118
 20
1.303933
 30
0.0
 10
2.451118
 20
1.307334
 30
0.0
 10
2.452847
 20
1.309885
 30
0.0
 10
2.456787
 20
1.309885
 30
0.0
  0
SPLINE
  5
208
100
AcDbEntity
  8
Layer_1
 62
7
100
AcDbSpline
 70
8
 71
3
 72
8
 73
4
 74
0
 40
0
 40
0
 40
0
 40
0
 40
1
 40
1
 40
1
 40
1
 10
2.456787
 20
1.309885
 30
0.0
 10
2.459395
 20
1.309885
 30
0.0
 10
2.462457
 20
1.307051
 30
0.0
 10
2.462457
 20
1.303933
 30
0.0
  0
SPLINE
  5
209
100
AcDbEntity
  8
Layer_1
 62
7
100
AcDbSpline
 70
8
 71
3
 72
8
 73
4
 74
0
 40
0
 40
0
 40
0
 40
0
 40
1
 40
1
 40
1
 40
1
 10
2.462457
 20
1.303933
 30
0.0
 10
2.462457
 20
1.300531
 30
0.0
 10
2.460699
 20
1.297980
 30
0.0
 10
2.456787
 20
1.297980
 30
0.0
  0
SPLINE
  5
20a
100
AcDbEntity
  8
Layer_1
 62
7
100
AcDbSpline
 70
8
 71
3
 72
8
 73
4
 74
0
 40
0
 40
0
 40
0
 40
0
 40
1
 40
1
 40
1
 40
1
 10
2.456787
 20
1.297980
 30
0.0
 10
2.454179
 20
1.297980
 30
0.0
 10
2.451118
 20
1.300815
 30
0.0
 10
2.451118
 20
1.303933
 30
0.0
  0
LWPOLYLINE
  5
20b
100
AcDbEntity
  8
Layer_1
 62
7
100
AcDbPolyline
 90
2
 70
0
 10
2.445676
 20
1.283620
 30
0.0
 10
2.445449
 20
1.283807
 30
0.0
  0
SPLINE
  5
20c
100
AcDbEntity
  8
Layer_1
 62
7
100
AcDbSpline
 70
8
 71
3
 72
8
 73
4
 74
0
 40
0
 40
0
 40
0
 40
0
 40
1
 40
1
 40
1
 40
1
 10
1.948791
 20
1.340018
 30
0.0
 10
1.947061
 20
1.343419
 30
0.0
 10
1.948649
 20
1.345970
 30
0.0
 10
1.951398
 20
1.345970
 30
0.0
  0
SPLINE
  5
20d
100
AcDbEntity
  8
Layer_1
 62
7
100
AcDbSpline
 70
8
 71
3
 72
8
 73
4
 74
0
 40
0
 40
0
 40
0
 40
0
 40
1
 40
1
 40
1
 40
1
 10
1.951398
 20
1.345970
 30
0.0
 10
1.957068
 20
1.346036
 30
0.0
 10
1.957068
 20
1.347674
 30
0.0
 10
1.950180
 20
1.351640
 30
0.0
  0
SPLINE
  5
20e
100
AcDbEntity
  8
Layer_1
 62
7
100
AcDbSpline
 70
8
 71
3
 72
8
 73
4
 74
0
 40
0
 40
0
 40
0
 40
0
 40
1
 40
1
 40
1
 40
1
 10
1.950180
 20
1.351640
 30
0.0
 10
1.941676
 20
1.356459
 30
0.0
 10
1.941676
 20
1.357309
 30
0.0
 10
1.950888
 20
1.357309
 30
0.0
  0
SPLINE
  5
20f
100
AcDbEntity
  8
Layer_1
 62
7
100
AcDbSpline
 70
8
 71
3
 72
8
 73
4
 74
0
 40
0
 40
0
 40
0
 40
0
 40
1
 40
1
 40
1
 40
1
 10
1.950888
 20
1.357309
 30
0.0
 10
1.956557
 20
1.357357
 30
0.0
 10
1.962227
 20
1.353907
 30
0.0
 10
1.965061
 20
1.349089
 30
0.0
  0
SPLINE
  5
210
100
AcDbEntity
  8
Layer_1
 62
7
100
AcDbSpline
 70
8
 71
3
 72
8
 73
4
 74
0
 40
0
 40
0
 40
0
 40
0
 40
1
 40
1
 40
1
 40
1
 10
1.965061
 20
1.349089
 30
0.0
 10
1.970731
 20
1.335199
 30
0.0
 10
1.953723
 20
1.326978
 30
0.0
 10
1.948054
 20
1.339734
 30
0.0
  0
LWPOLYLINE
  5
211
100
AcDbEntity
  8
Layer_1
 62
7
100
AcDbPolyline
 90
1
 70
1
 10
2.451118
 20
1.303933
 30
0.0
  0
SPLINE
  5
212
100
AcDbEntity
  8
Layer_1
 62
7
100
AcDbSpline
 70
8
 71
3
 72
8
 73
4
 74
0
 40
0
 40
0
 40
0
 40
0
 40
1
 40
1
 40
1
 40
1
 10
2.463137
 20
1.345970
 30
0.0
 10
2.463137
 20
1.349372
 30
0.0
 10
2.465745
 20
1.351923
 30
0.0
 10
2.474476
 20
1.351923
 30
0.0
  0
SPLINE
  5
213
100
AcDbEntity
  8
Layer_1
 62
7
100
AcDbSpline
 70
8
 71
3
 72
8
 73
4
 74
0
 40
0
 40
0
 40
0
 40
0
 40
1
 40
1
 40
1
 40
1
 10
2.474476
 20
1.351923
 30
0.0
 10
2.480145
 20
1.351923
 30
0.0
 10
2.482979
 20
1.349089
 30
0.0
 10
2.480145
 20
1.345970
 30
0.0
  0
SPLINE
  5
214
100
AcDbEntity
  8
Layer_1
 62
7
100
AcDbSpline
 70
8
 71
3
 72
8
 73
4
 74
0
 40
0
 40
0
 40
0
 40
0
 40
1
 40
1
 40
1
 40
1
 10
2.480145
 20
1.345970
 30
0.0
 10
2.478387
 20
1.342569
 30
0.0
 10
2.474476
 20
1.340018
 30
0.0
 10
2.468806
 20
1.340018
 30
0.0
  0
SPLINE
  5
215
100
AcDbEntity
  8
Layer_1
 62
7
100
AcDbSpline
 70
8
 71
3
 72
8
 73
4
 74
0
 40
0
 40
0
 40
0
 40
0
 40
1
 40
1
 40
1
 40
1
 10
2.468806
 20
1.340018
 30
0.0
 10
2.467049
 20
1.340018
 30
0.0
 10
2.463137
 20
1.342852
 30
0.0
 10
2.463137
 20
1.345970
 30
0.0
  0
LWPOLYLINE
  5
216
100
AcDbEntity
  8
Layer_1
 62
7
100
AcDbPolyline
 90
2
 70
0
 10
1.948054
 20
1.339734
 30
0.0
 10
1.948791
 20
1.340018
 30
0.0
  0
SPLINE
  5
217
100
AcDbEntity
  8
Layer_1
 62
7
100
AcDbSpline
 70
8
 71
3
 72
8
 73
4
 74
0
 40
0
 40
0
 40
0
 40
0
 40
1
 40
1
 40
1
 40
1
 10
2.468806
 20
1.399744
 30
0.0
 10
2.468806
 20
1.417035
 30
0.0
 10
2.480145
 20
1.429054
 30
0.0
 10
2.485814
 20
1.421287
 30
0.0
  0
SPLINE
  5
218
100
AcDbEntity
  8
Layer_1
 62
7
100
AcDbSpline
 70
8
 71
3
 72
8
 73
4
 74
0
 40
0
 40
0
 40
0
 40
0
 40
1
 40
1
 40
1
 40
1
 10
2.485814
 20
1.421287
 30
0.0
 10
2.487572
 20
1.419016
 30
0.0
 10
2.485757
 20
1.414767
 30
0.0
 10
2.480145
 20
1.411933
 30
0.0
  0
SPLINE
  5
219
100
AcDbEntity
  8
Layer_1
 62
7
100
AcDbSpline
 70
8
 71
3
 72
8
 73
4
 74
0
 40
0
 40
0
 40
0
 40
0
 40
1
 40
1
 40
1
 40
1
 10
2.480145
 20
1.411933
 30
0.0
 10
2.474476
 20
1.407114
 30
0.0
 10
2.474476
 20
1.405413
 30
0.0
 10
2.479578
 20
1.400878
 30
0.0
  0
SPLINE
  5
21a
100
AcDbEntity
  8
Layer_1
 62
7
100
AcDbSpline
 70
8
 71
3
 72
8
 73
4
 74
0
 40
0
 40
0
 40
0
 40
0
 40
1
 40
1
 40
1
 40
1
 10
2.479578
 20
1.400878
 30
0.0
 10
2.482186
 20
1.398043
 30
0.0
 10
2.485247
 20
1.392657
 30
0.0
 10
2.482186
 20
1.388972
 30
0.0
  0
SPLINE
  5
21b
100
AcDbEntity
  8
Layer_1
 62
7
100
AcDbSpline
 70
8
 71
3
 72
8
 73
4
 74
0
 40
0
 40
0
 40
0
 40
0
 40
1
 40
1
 40
1
 40
1
 10
2.482186
 20
1.388972
 30
0.0
 10
2.476517
 20
1.376783
 30
0.0
 10
2.468013
 20
1.382169
 30
0.0
 10
2.468013
 20
1.400027
 30
0.0
  0
LWPOLYLINE
  5
21c
100
AcDbEntity
  8
Layer_1
 62
7
100
AcDbPolyline
 90
1
 70
1
 10
2.463137
 20
1.345970
 30
0.0
  0
SPLINE
  5
21d
100
AcDbEntity
  8
Layer_1
 62
7
100
AcDbSpline
 70
8
 71
3
 72
8
 73
4
 74
0
 40
0
 40
0
 40
0
 40
0
 40
1
 40
1
 40
1
 40
1
 10
1.942469
 20
1.405980
 30
0.0
 10
1.944227
 20
1.409381
 30
0.0
 10
1.948139
 20
1.411933
 30
0.0
 10
1.948139
 20
1.411933
 30
0.0
  0
SPLINE
  5
21e
100
AcDbEntity
  8
Layer_1
 62
7
100
AcDbSpline
 70
8
 71
3
 72
8
 73
4
 74
0
 40
0
 40
0
 40
0
 40
0
 40
1
 40
1
 40
1
 40
1
 10
1.948139
 20
1.411933
 30
0.0
 10
1.949329
 20
1.411933
 30
0.0
 10
1.949868
 20
1.409098
 30
0.0
 10
1.949868
 20
1.405980
 30
0.0
  0
SPLINE
  5
21f
100
AcDbEntity
  8
Layer_1
 62
7
100
AcDbSpline
 70
8
 71
3
 72
8
 73
4
 74
0
 40
0
 40
0
 40
0
 40
0
 40
1
 40
1
 40
1
 40
1
 10
1.949868
 20
1.405980
 30
0.0
 10
1.949868
 20
1.402578
 30
0.0
 10
1.948139
 20
1.400027
 30
0.0
 10
1.944198
 20
1.400027
 30
0.0
  0
SPLINE
  5
220
100
AcDbEntity
  8
Layer_1
 62
7
100
AcDbSpline
 70
8
 71
3
 72
8
 73
4
 74
0
 40
0
 40
0
 40
0
 40
0
 40
1
 40
1
 40
1
 40
1
 10
1.944198
 20
1.400027
 30
0.0
 10
1.941619
 20
1.400027
 30
0.0
 10
1.938529
 20
1.402862
 30
0.0
 10
1.942441
 20
1.405980
 30
0.0
  0
LWPOLYLINE
  5
221
100
AcDbEntity
  8
Layer_1
 62
7
100
AcDbPolyline
 90
2
 70
0
 10
2.468013
 20
1.400027
 30
0.0
 10
2.468806
 20
1.399744
 30
0.0
  0
SPLINE
  5
222
100
AcDbEntity
  8
Layer_1
 62
7
100
AcDbSpline
 70
8
 71
3
 72
8
 73
4
 74
0
 40
0
 40
0
 40
0
 40
0
 40
1
 40
1
 40
1
 40
1
 10
1.936800
 20
1.428090
 30
0.0
 10
1.931131
 20
1.435460
 30
0.0
 10
1.934192
 20
1.448216
 30
0.0
 10
1.942469
 20
1.448216
 30
0.0
  0
SPLINE
  5
223
100
AcDbEntity
  8
Layer_1
 62
7
100
AcDbSpline
 70
8
 71
3
 72
8
 73
4
 74
0
 40
0
 40
0
 40
0
 40
0
 40
1
 40
1
 40
1
 40
1
 10
1.942469
 20
1.448216
 30
0.0
 10
1.948139
 20
1.448216
 30
0.0
 10
1.953808
 20
1.442830
 30
0.0
 10
1.953808
 20
1.436311
 30
0.0
  0
SPLINE
  5
224
100
AcDbEntity
  8
Layer_1
 62
7
100
AcDbSpline
 70
8
 71
3
 72
8
 73
4
 74
0
 40
0
 40
0
 40
0
 40
0
 40
1
 40
1
 40
1
 40
1
 10
1.953808
 20
1.436311
 30
0.0
 10
1.953808
 20
1.424405
 30
0.0
 10
1.948139
 20
1.420720
 30
0.0
 10
1.939635
 20
1.428374
 30
0.0
  0
LWPOLYLINE
  5
225
100
AcDbEntity
  8
Layer_1
 62
7
100
AcDbPolyline
 90
1
 70
1
 10
1.942441
 20
1.405980
 30
0.0
  0
SPLINE
  5
226
100
AcDbEntity
  8
Layer_1
 62
7
100
AcDbSpline
 70
8
 71
3
 72
8
 73
4
 74
0
 40
0
 40
0
 40
0
 40
0
 40
1
 40
1
 40
1
 40
1
 10
2.473030
 20
1.439996
 30
0.0
 10
2.475638
 20
1.441696
 30
0.0
 10
2.484368
 20
1.441575
 30
0.0
 10
2.484368
 20
1.439522
 30
0.0
  0
SPLINE
  5
227
100
AcDbEntity
  8
Layer_1
 62
7
100
AcDbSpline
 70
8
 71
3
 72
8
 73
4
 74
0
 40
0
 40
0
 40
0
 40
0
 40
1
 40
1
 40
1
 40
1
 10
2.484368
 20
1.439522
 30
0.0
 10
2.486098
 20
1.437430
 30
0.0
 10
2.483150
 20
1.436121
 30
0.0
 10
2.475865
 20
1.436404
 30
0.0
  0
SPLINE
  5
228
100
AcDbEntity
  8
Layer_1
 62
7
100
AcDbSpline
 70
8
 71
3
 72
8
 73
4
 74
0
 40
0
 40
0
 40
0
 40
0
 40
1
 40
1
 40
1
 40
1
 10
2.475865
 20
1.436404
 30
0.0
 10
2.470195
 20
1.436685
 30
0.0
 10
2.467361
 20
1.438105
 30
0.0
 10
2.473257
 20
1.439806
 30
0.0
  0
LWPOLYLINE
  5
229
100
AcDbEntity
  8
Layer_1
 62
7
100
AcDbPolyline
 90
2
 70
0
 10
1.939635
 20
1.428374
 30
0.0
 10
1.936800
 20
1.428090
 30
0.0
  0
SPLINE
  5
22a
100
AcDbEntity
  8
Layer_1
 62
7
100
AcDbSpline
 70
8
 71
3
 72
8
 73
4
 74
0
 40
0
 40
0
 40
0
 40
0
 40
1
 40
1
 40
1
 40
1
 10
2.187156
 20
1.741106
 30
0.0
 10
2.204164
 20
1.742325
 30
0.0
 10
2.235912
 20
1.742325
 30
0.0
 10
2.253487
 20
1.741083
 30
0.0
  0
SPLINE
  5
22b
100
AcDbEntity
  8
Layer_1
 62
7
100
AcDbSpline
 70
8
 71
3
 72
8
 73
4
 74
0
 40
0
 40
0
 40
0
 40
0
 40
1
 40
1
 40
1
 40
1
 10
2.253487
 20
1.741083
 30
0.0
 10
2.270494
 20
1.739870
 30
0.0
 10
2.254677
 20
1.738813
 30
0.0
 10
2.218620
 20
1.738813
 30
0.0
  0
SPLINE
  5
22c
100
AcDbEntity
  8
Layer_1
 62
7
100
AcDbSpline
 70
8
 71
3
 72
8
 73
4
 74
0
 40
0
 40
0
 40
0
 40
0
 40
1
 40
1
 40
1
 40
1
 10
2.218620
 20
1.738813
 30
0.0
 10
2.182054
 20
1.738827
 30
0.0
 10
2.168164
 20
1.739822
 30
0.0
 10
2.187156
 20
1.741083
 30
0.0
  0
LWPOLYLINE
  5
22d
100
AcDbEntity
  8
Layer_1
 62
7
100
AcDbPolyline
 90
2
 70
0
 10
2.473257
 20
1.439806
 30
0.0
 10
2.473030
 20
1.439996
 30
0.0
  0
SPLINE
  5
22e
100
AcDbEntity
  8
Layer_1
 62
7
100
AcDbSpline
 70
8
 71
3
 72
8
 73
4
 74
0
 40
0
 40
0
 40
0
 40
0
 40
1
 40
1
 40
1
 40
1
 10
1.541792
 20
0.614584
 30
0.0
 10
1.615493
 20
0.637544
 30
0.0
 10
1.703367
 20
0.698688
 30
0.0
 10
1.772816
 20
0.775507
 30
0.0
  0
SPLINE
  5
22f
100
AcDbEntity
  8
Layer_1
 62
7
100
AcDbSpline
 70
8
 71
3
 72
8
 73
4
 74
0
 40
0
 40
0
 40
0
 40
0
 40
1
 40
1
 40
1
 40
1
 10
1.772816
 20
0.775507
 30
0.0
 10
1.831493
 20
0.840420
 30
0.0
 10
1.902076
 20
0.936656
 30
0.0
 10
1.908595
 20
0.960666
 30
0.0
  0
SPLINE
  5
230
100
AcDbEntity
  8
Layer_1
 62
7
100
AcDbSpline
 70
8
 71
3
 72
8
 73
4
 74
0
 40
0
 40
0
 40
0
 40
0
 40
1
 40
1
 40
1
 40
1
 10
1.908595
 20
0.960666
 30
0.0
 10
1.940343
 20
1.075979
 30
0.0
 10
1.949131
 20
1.114360
 30
0.0
 10
1.944595
 20
1.116089
 30
0.0
  0
SPLINE
  5
231
100
AcDbEntity
  8
Layer_1
 62
7
100
AcDbSpline
 70
8
 71
3
 72
8
 73
4
 74
0
 40
0
 40
0
 40
0
 40
0
 40
1
 40
1
 40
1
 40
1
 10
1.944595
 20
1.116089
 30
0.0
 10
1.933257
 20
1.119491
 30
0.0
 10
1.938926
 20
1.129129
 30
0.0
 10
1.947175
 20
1.129129
 30
0.0
  0
SPLINE
  5
232
100
AcDbEntity
  8
Layer_1
 62
7
100
AcDbSpline
 70
8
 71
3
 72
8
 73
4
 74
0
 40
0
 40
0
 40
0
 40
0
 40
1
 40
1
 40
1
 40
1
 10
1.947175
 20
1.129129
 30
0.0
 10
1.955679
 20
1.129129
 30
0.0
 10
1.952844
 20
1.131963
 30
0.0
 10
1.944595
 20
1.145570
 30
0.0
  0
SPLINE
  5
233
100
AcDbEntity
  8
Layer_1
 62
7
100
AcDbSpline
 70
8
 71
3
 72
8
 73
4
 74
0
 40
0
 40
0
 40
0
 40
0
 40
1
 40
1
 40
1
 40
1
 10
1.944595
 20
1.145570
 30
0.0
 10
1.933257
 20
1.159743
 30
0.0
 10
1.933257
 20
1.162294
 30
0.0
 10
1.941987
 20
1.165129
 30
0.0
  0
SPLINE
  5
234
100
AcDbEntity
  8
Layer_1
 62
7
100
AcDbSpline
 70
8
 71
3
 72
8
 73
4
 74
0
 40
0
 40
0
 40
0
 40
0
 40
1
 40
1
 40
1
 40
1
 10
1.941987
 20
1.165129
 30
0.0
 10
1.953326
 20
1.169097
 30
0.0
 10
1.947657
 20
1.179302
 30
0.0
 10
1.927814
 20
1.188656
 30
0.0
  0
SPLINE
  5
235
100
AcDbEntity
  8
Layer_1
 62
7
100
AcDbSpline
 70
8
 71
3
 72
8
 73
4
 74
0
 40
0
 40
0
 40
0
 40
0
 40
1
 40
1
 40
1
 40
1
 10
1.927814
 20
1.188656
 30
0.0
 10
1.913641
 20
1.196593
 30
0.0
 10
1.910806
 20
1.209066
 30
0.0
 10
1.925206
 20
1.203396
 30
0.0
  0
SPLINE
  5
236
100
AcDbEntity
  8
Layer_1
 62
7
100
AcDbSpline
 70
8
 71
3
 72
8
 73
4
 74
0
 40
0
 40
0
 40
0
 40
0
 40
1
 40
1
 40
1
 40
1
 10
1.925206
 20
1.203396
 30
0.0
 10
1.942214
 20
1.197160
 30
0.0
 10
1.936545
 20
1.206231
 30
0.0
 10
1.911033
 20
1.219837
 30
0.0
  0
SPLINE
  5
237
100
AcDbEntity
  8
Layer_1
 62
7
100
AcDbSpline
 70
8
 71
3
 72
8
 73
4
 74
0
 40
0
 40
0
 40
0
 40
0
 40
1
 40
1
 40
1
 40
1
 10
1.911033
 20
1.219837
 30
0.0
 10
1.896860
 20
1.227491
 30
0.0
 10
1.882687
 20
1.238262
 30
0.0
 10
1.877868
 20
1.244215
 30
0.0
  0
SPLINE
  5
238
100
AcDbEntity
  8
Layer_1
 62
7
100
AcDbSpline
 70
8
 71
3
 72
8
 73
4
 74
0
 40
0
 40
0
 40
0
 40
0
 40
1
 40
1
 40
1
 40
1
 10
1.877868
 20
1.244215
 30
0.0
 10
1.872198
 20
1.250168
 30
0.0
 10
1.860860
 20
1.255270
 30
0.0
 10
1.849521
 20
1.255270
 30
0.0
  0
SPLINE
  5
239
100
AcDbEntity
  8
Layer_1
 62
7
100
AcDbSpline
 70
8
 71
3
 72
8
 73
4
 74
0
 40
0
 40
0
 40
0
 40
0
 40
1
 40
1
 40
1
 40
1
 10
1.849521
 20
1.255270
 30
0.0
 10
1.826844
 20
1.255270
 30
0.0
 10
1.821175
 20
1.264625
 30
0.0
 10
1.841017
 20
1.272562
 30
0.0
  0
SPLINE
  5
23a
100
AcDbEntity
  8
Layer_1
 62
7
100
AcDbSpline
 70
8
 71
3
 72
8
 73
4
 74
0
 40
0
 40
0
 40
0
 40
0
 40
1
 40
1
 40
1
 40
1
 10
1.841017
 20
1.272562
 30
0.0
 10
1.858025
 20
1.278231
 30
0.0
 10
1.858025
 20
1.278514
 30
0.0
 10
1.842775
 20
1.279081
 30
0.0
  0
SPLINE
  5
23b
100
AcDbEntity
  8
Layer_1
 62
7
100
AcDbSpline
 70
8
 71
3
 72
8
 73
4
 74
0
 40
0
 40
0
 40
0
 40
0
 40
1
 40
1
 40
1
 40
1
 10
1.842775
 20
1.279081
 30
0.0
 10
1.831436
 20
1.279410
 30
0.0
 10
1.828602
 20
1.282199
 30
0.0
 10
1.831436
 20
1.288436
 30
0.0
  0
SPLINE
  5
23c
100
AcDbEntity
  8
Layer_1
 62
7
100
AcDbSpline
 70
8
 71
3
 72
8
 73
4
 74
0
 40
0
 40
0
 40
0
 40
0
 40
1
 40
1
 40
1
 40
1
 10
1.831436
 20
1.288436
 30
0.0
 10
1.834016
 20
1.297790
 30
0.0
 10
1.833165
 20
1.297790
 30
0.0
 10
1.766523
 20
1.285034
 30
0.0
  0
SPLINE
  5
23d
100
AcDbEntity
  8
Layer_1
 62
7
100
AcDbSpline
 70
8
 71
3
 72
8
 73
4
 74
0
 40
0
 40
0
 40
0
 40
0
 40
1
 40
1
 40
1
 40
1
 10
1.766523
 20
1.285034
 30
0.0
 10
1.731090
 20
1.278514
 30
0.0
 10
1.102791
 20
1.275963
 30
0.0
 10
1.071609
 20
1.282199
 30
0.0
  0
SPLINE
  5
23e
100
AcDbEntity
  8
Layer_1
 62
7
100
AcDbSpline
 70
8
 71
3
 72
8
 73
4
 74
0
 40
0
 40
0
 40
0
 40
0
 40
1
 40
1
 40
1
 40
1
 10
1.071609
 20
1.282199
 30
0.0
 10
1.054602
 20
1.285601
 30
0.0
 10
1.039861
 20
1.281409
 30
0.0
 10
0.978350
 20
1.252577
 30
0.0
  0
SPLINE
  5
23f
100
AcDbEntity
  8
Layer_1
 62
7
100
AcDbSpline
 70
8
 71
3
 72
8
 73
4
 74
0
 40
0
 40
0
 40
0
 40
0
 40
1
 40
1
 40
1
 40
1
 10
0.978350
 20
1.252577
 30
0.0
 10
0.801468
 20
1.169466
 30
0.0
 10
0.660501
 20
1.038902
 30
0.0
 10
0.661606
 20
0.959126
 30
0.0
  0
SPLINE
  5
240
100
AcDbEntity
  8
Layer_1
 62
7
100
AcDbSpline
 70
8
 71
3
 72
8
 73
4
 74
0
 40
0
 40
0
 40
0
 40
0
 40
1
 40
1
 40
1
 40
1
 10
0.661606
 20
0.959126
 30
0.0
 10
0.661975
 20
0.929249
 30
0.0
 10
0.702709
 20
0.874115
 30
0.0
 10
0.786614
 20
0.789246
 30
0.0
  0
SPLINE
  5
241
100
AcDbEntity
  8
Layer_1
 62
7
100
AcDbSpline
 70
8
 71
3
 72
8
 73
4
 74
0
 40
0
 40
0
 40
0
 40
0
 40
1
 40
1
 40
1
 40
1
 10
0.786614
 20
0.789246
 30
0.0
 10
0.888661
 20
0.686150
 30
0.0
 10
0.975685
 20
0.639322
 30
0.0
 10
1.098822
 20
0.621152
 30
0.0
  0
SPLINE
  5
242
100
AcDbEntity
  8
Layer_1
 62
7
100
AcDbSpline
 70
8
 71
3
 72
8
 73
4
 74
0
 40
0
 40
0
 40
0
 40
0
 40
1
 40
1
 40
1
 40
1
 10
1.098822
 20
0.621152
 30
0.0
 10
1.222980
 20
0.602726
 30
0.0
 10
1.255294
 20
0.600742
 30
0.0
 10
1.381436
 20
0.602443
 30
0.0
  0
SPLINE
  5
243
100
AcDbEntity
  8
Layer_1
 62
7
100
AcDbSpline
 70
8
 71
3
 72
8
 73
4
 74
0
 40
0
 40
0
 40
0
 40
0
 40
1
 40
1
 40
1
 40
1
 10
1.381436
 20
0.602443
 30
0.0
 10
1.479515
 20
0.603781
 30
0.0
 10
1.515231
 20
0.606695
 30
0.0
 10
1.540743
 20
0.614348
 30
0.0
  0
LWPOLYLINE
  5
244
100
AcDbEntity
  8
Layer_1
 62
7
100
AcDbPolyline
 90
1
 70
1
 10
2.187156
 20
1.741083
 30
0.0
  0
SPLINE
  5
245
100
AcDbEntity
  8
Layer_1
 62
7
100
AcDbSpline
 70
8
 71
3
 72
8
 73
4
 74
0
 40
0
 40
0
 40
0
 40
0
 40
1
 40
1
 40
1
 40
1
 10
3.241134
 20
0.608631
 30
0.0
 10
3.408661
 20
0.627340
 30
0.0
 10
3.460252
 20
0.642987
 30
0.0
 10
3.547729
 20
0.700984
 30
0.0
  0
SPLINE
  5
246
100
AcDbEntity
  8
Layer_1
 62
7
100
AcDbSpline
 70
8
 71
3
 72
8
 73
4
 74
0
 40
0
 40
0
 40
0
 40
0
 40
1
 40
1
 40
1
 40
1
 10
3.547729
 20
0.700984
 30
0.0
 10
3.625965
 20
0.752716
 30
0.0
 10
3.767131
 20
0.908848
 30
0.0
 10
3.775351
 20
0.952275
 30
0.0
  0
SPLINE
  5
247
100
AcDbEntity
  8
Layer_1
 62
7
100
AcDbSpline
 70
8
 71
3
 72
8
 73
4
 74
0
 40
0
 40
0
 40
0
 40
0
 40
1
 40
1
 40
1
 40
1
 10
3.775351
 20
0.952275
 30
0.0
 10
3.777109
 20
0.965881
 30
0.0
 10
3.774161
 20
0.981359
 30
0.0
 10
3.761178
 20
1.008118
 30
0.0
  0
SPLINE
  5
248
100
AcDbEntity
  8
Layer_1
 62
7
100
AcDbSpline
 70
8
 71
3
 72
8
 73
4
 74
0
 40
0
 40
0
 40
0
 40
0
 40
1
 40
1
 40
1
 40
1
 10
3.761178
 20
1.008118
 30
0.0
 10
3.725745
 20
1.083236
 30
0.0
 10
3.599887
 20
1.185198
 30
0.0
 10
3.462916
 20
1.249913
 30
0.0
  0
SPLINE
  5
249
100
AcDbEntity
  8
Layer_1
 62
7
100
AcDbSpline
 70
8
 71
3
 72
8
 73
4
 74
0
 40
0
 40
0
 40
0
 40
0
 40
1
 40
1
 40
1
 40
1
 10
3.462916
 20
1.249913
 30
0.0
 10
3.399987
 20
1.279677
 30
0.0
 10
3.383263
 20
1.285233
 30
0.0
 10
3.367956
 20
1.281718
 30
0.0
  0
SPLINE
  5
24a
100
AcDbEntity
  8
Layer_1
 62
7
100
AcDbSpline
 70
8
 71
3
 72
8
 73
4
 74
0
 40
0
 40
0
 40
0
 40
0
 40
1
 40
1
 40
1
 40
1
 10
3.367956
 20
1.281718
 30
0.0
 10
3.342444
 20
1.275765
 30
0.0
 10
2.698299
 20
1.278883
 30
0.0
 10
2.672787
 20
1.285119
 30
0.0
  0
SPLINE
  5
24b
100
AcDbEntity
  8
Layer_1
 62
7
100
AcDbSpline
 70
8
 71
3
 72
8
 73
4
 74
0
 40
0
 40
0
 40
0
 40
0
 40
1
 40
1
 40
1
 40
1
 10
2.672787
 20
1.285119
 30
0.0
 10
2.661449
 20
1.287954
 30
0.0
 10
2.637354
 20
1.292206
 30
0.0
 10
2.620063
 20
1.294190
 30
0.0
  0
SPLINE
  5
24c
100
AcDbEntity
  8
Layer_1
 62
7
100
AcDbSpline
 70
8
 71
3
 72
8
 73
4
 74
0
 40
0
 40
0
 40
0
 40
0
 40
1
 40
1
 40
1
 40
1
 10
2.620063
 20
1.294190
 30
0.0
 10
2.594551
 20
1.297308
 30
0.0
 10
2.589165
 20
1.296636
 30
0.0
 10
2.591717
 20
1.288804
 30
0.0
  0
SPLINE
  5
24d
100
AcDbEntity
  8
Layer_1
 62
7
100
AcDbSpline
 70
8
 71
3
 72
8
 73
4
 74
0
 40
0
 40
0
 40
0
 40
0
 40
1
 40
1
 40
1
 40
1
 10
2.591717
 20
1.288804
 30
0.0
 10
2.593474
 20
1.282001
 30
0.0
 10
2.591263
 20
1.279450
 30
0.0
 10
2.580378
 20
1.278883
 30
0.0
  0
SPLINE
  5
24e
100
AcDbEntity
  8
Layer_1
 62
7
100
AcDbSpline
 70
8
 71
3
 72
8
 73
4
 74
0
 40
0
 40
0
 40
0
 40
0
 40
1
 40
1
 40
1
 40
1
 10
2.580378
 20
1.278883
 30
0.0
 10
2.566205
 20
1.278441
 30
0.0
 10
2.566205
 20
1.278098
 30
0.0
 10
2.582135
 20
1.272363
 30
0.0
  0
SPLINE
  5
24f
100
AcDbEntity
  8
Layer_1
 62
7
100
AcDbSpline
 70
8
 71
3
 72
8
 73
4
 74
0
 40
0
 40
0
 40
0
 40
0
 40
1
 40
1
 40
1
 40
1
 10
2.582135
 20
1.272363
 30
0.0
 10
2.601978
 20
1.264993
 30
0.0
 10
2.596309
 20
1.255072
 30
0.0
 10
2.573631
 20
1.255072
 30
0.0
  0
SPLINE
  5
250
100
AcDbEntity
  8
Layer_1
 62
7
100
AcDbSpline
 70
8
 71
3
 72
8
 73
4
 74
0
 40
0
 40
0
 40
0
 40
0
 40
1
 40
1
 40
1
 40
1
 10
2.573631
 20
1.255072
 30
0.0
 10
2.562293
 20
1.255072
 30
0.0
 10
2.550954
 20
1.250253
 30
0.0
 10
2.545285
 20
1.243733
 30
0.0
  0
SPLINE
  5
251
100
AcDbEntity
  8
Layer_1
 62
7
100
AcDbSpline
 70
8
 71
3
 72
8
 73
4
 74
0
 40
0
 40
0
 40
0
 40
0
 40
1
 40
1
 40
1
 40
1
 10
2.545285
 20
1.243733
 30
0.0
 10
2.539616
 20
1.237497
 30
0.0
 10
2.528277
 20
1.228143
 30
0.0
 10
2.515238
 20
1.222757
 30
0.0
  0
SPLINE
  5
252
100
AcDbEntity
  8
Layer_1
 62
7
100
AcDbSpline
 70
8
 71
3
 72
8
 73
4
 74
0
 40
0
 40
0
 40
0
 40
0
 40
1
 40
1
 40
1
 40
1
 10
2.515238
 20
1.222757
 30
0.0
 10
2.495395
 20
1.211985
 30
0.0
 10
2.479805
 20
1.196111
 30
0.0
 10
2.498230
 20
1.202631
 30
0.0
  0
SPLINE
  5
253
100
AcDbEntity
  8
Layer_1
 62
7
100
AcDbSpline
 70
8
 71
3
 72
8
 73
4
 74
0
 40
0
 40
0
 40
0
 40
0
 40
1
 40
1
 40
1
 40
1
 10
2.498230
 20
1.202631
 30
0.0
 10
2.515238
 20
1.209151
 30
0.0
 10
2.509568
 20
1.196111
 30
0.0
 10
2.489726
 20
1.185056
 30
0.0
  0
SPLINE
  5
254
100
AcDbEntity
  8
Layer_1
 62
7
100
AcDbSpline
 70
8
 71
3
 72
8
 73
4
 74
0
 40
0
 40
0
 40
0
 40
0
 40
1
 40
1
 40
1
 40
1
 10
2.489726
 20
1.185056
 30
0.0
 10
2.469883
 20
1.173718
 30
0.0
 10
2.467049
 20
1.164930
 30
0.0
 10
2.481222
 20
1.164930
 30
0.0
  0
SPLINE
  5
255
100
AcDbEntity
  8
Layer_1
 62
7
100
AcDbSpline
 70
8
 71
3
 72
8
 73
4
 74
0
 40
0
 40
0
 40
0
 40
0
 40
1
 40
1
 40
1
 40
1
 10
2.481222
 20
1.164930
 30
0.0
 10
2.489726
 20
1.164930
 30
0.0
 10
2.489726
 20
1.163229
 30
0.0
 10
2.480910
 20
1.150473
 30
0.0
  0
SPLINE
  5
256
100
AcDbEntity
  8
Layer_1
 62
7
100
AcDbSpline
 70
8
 71
3
 72
8
 73
4
 74
0
 40
0
 40
0
 40
0
 40
0
 40
1
 40
1
 40
1
 40
1
 10
2.480910
 20
1.150473
 30
0.0
 10
2.475241
 20
1.141119
 30
0.0
 10
2.475241
 20
1.134883
 30
0.0
 10
2.479153
 20
1.132048
 30
0.0
  0
SPLINE
  5
257
100
AcDbEntity
  8
Layer_1
 62
7
100
AcDbSpline
 70
8
 71
3
 72
8
 73
4
 74
0
 40
0
 40
0
 40
0
 40
0
 40
1
 40
1
 40
1
 40
1
 10
2.479153
 20
1.132048
 30
0.0
 10
2.481761
 20
1.129778
 30
0.0
 10
2.484822
 20
1.122694
 30
0.0
 10
2.484822
 20
1.115607
 30
0.0
  0
SPLINE
  5
258
100
AcDbEntity
  8
Layer_1
 62
7
100
AcDbSpline
 70
8
 71
3
 72
8
 73
4
 74
0
 40
0
 40
0
 40
0
 40
0
 40
1
 40
1
 40
1
 40
1
 10
2.484822
 20
1.115607
 30
0.0
 10
2.484822
 20
1.108804
 30
0.0
 10
2.490491
 20
1.071699
 30
0.0
 10
2.498995
 20
1.033261
 30
0.0
  0
SPLINE
  5
259
100
AcDbEntity
  8
Layer_1
 62
7
100
AcDbSpline
 70
8
 71
3
 72
8
 73
4
 74
0
 40
0
 40
0
 40
0
 40
0
 40
1
 40
1
 40
1
 40
1
 10
2.498995
 20
1.033261
 30
0.0
 10
2.516003
 20
0.956385
 30
0.0
 10
2.524507
 20
0.942212
 30
0.0
 10
2.618901
 20
0.824376
 30
0.0
  0
SPLINE
  5
25a
100
AcDbEntity
  8
Layer_1
 62
7
100
AcDbSpline
 70
8
 71
3
 72
8
 73
4
 74
0
 40
0
 40
0
 40
0
 40
0
 40
1
 40
1
 40
1
 40
1
 10
2.618901
 20
0.824376
 30
0.0
 10
2.718397
 20
0.699680
 30
0.0
 10
2.831499
 20
0.620678
 30
0.0
 10
2.932101
 20
0.605938
 30
0.0
  0
SPLINE
  5
25b
100
AcDbEntity
  8
Layer_1
 62
7
100
AcDbSpline
 70
8
 71
3
 72
8
 73
4
 74
0
 40
0
 40
0
 40
0
 40
0
 40
1
 40
1
 40
1
 40
1
 10
2.932101
 20
0.605938
 30
0.0
 10
2.989077
 20
0.597718
 30
0.0
 10
3.153770
 20
0.598851
 30
0.0
 10
3.237449
 20
0.608384
 30
0.0
  0
LWPOLYLINE
  5
25c
100
AcDbEntity
  8
Layer_1
 62
7
100
AcDbPolyline
 90
2
 70
0
 10
1.540743
 20
0.614348
 30
0.0
 10
1.541792
 20
0.614584
 30
0.0
  0
LWPOLYLINE
  5
25d
100
AcDbEntity
  8
Layer_1
 62
7
100
AcDbPolyline
 90
2
 70
0
 10
3.237449
 20
0.608384
 30
0.0
 10
3.241134
 20
0.608631
 30
0.0
  0
SPLINE
  5
25e
100
AcDbEntity
  8
Layer_1
 62
7
100
AcDbSpline
 70
8
 71
3
 72
8
 73
4
 74
0
 40
0
 40
0
 40
0
 40
0
 40
1
 40
1
 40
1
 40
1
 10
1.996186
 20
1.721456
 30
0.0
 10
1.982013
 20
1.732228
 30
0.0
 10
1.951965
 20
1.752496
 30
0.0
 10
1.924753
 20
1.767094
 30
0.0
  0
SPLINE
  5
25f
100
AcDbEntity
  8
Layer_1
 62
7
100
AcDbSpline
 70
8
 71
3
 72
8
 73
4
 74
0
 40
0
 40
0
 40
0
 40
0
 40
1
 40
1
 40
1
 40
1
 10
1.924753
 20
1.767094
 30
0.0
 10
1.864375
 20
1.799522
 30
0.0
 10
1.845950
 20
1.817636
 30
0.0
 10
1.830076
 20
1.858455
 30
0.0
  0
SPLINE
  5
260
100
AcDbEntity
  8
Layer_1
 62
7
100
AcDbSpline
 70
8
 71
3
 72
8
 73
4
 74
0
 40
0
 40
0
 40
0
 40
0
 40
1
 40
1
 40
1
 40
1
 10
1.830076
 20
1.858455
 30
0.0
 10
1.815902
 20
1.896184
 30
0.0
 10
1.813068
 20
1.889352
 30
0.0
 10
1.827468
 20
1.845699
 30
0.0
  0
SPLINE
  5
261
100
AcDbEntity
  8
Layer_1
 62
7
100
AcDbSpline
 70
8
 71
3
 72
8
 73
4
 74
0
 40
0
 40
0
 40
0
 40
0
 40
1
 40
1
 40
1
 40
1
 10
1.827468
 20
1.845699
 30
0.0
 10
1.838806
 20
1.807034
 30
0.0
 10
1.864885
 20
1.776873
 30
0.0
 10
1.907121
 20
1.753147
 30
0.0
  0
SPLINE
  5
262
100
AcDbEntity
  8
Layer_1
 62
7
100
AcDbSpline
 70
8
 71
3
 72
8
 73
4
 74
0
 40
0
 40
0
 40
0
 40
0
 40
1
 40
1
 40
1
 40
1
 10
1.907121
 20
1.753147
 30
0.0
 10
1.929798
 20
1.740108
 30
0.0
 10
1.942838
 20
1.727919
 30
0.0
 10
1.951625
 20
1.710146
 30
0.0
  0
SPLINE
  5
263
100
AcDbEntity
  8
Layer_1
 62
7
100
AcDbSpline
 70
8
 71
3
 72
8
 73
4
 74
0
 40
0
 40
0
 40
0
 40
0
 40
1
 40
1
 40
1
 40
1
 10
1.951625
 20
1.710146
 30
0.0
 10
1.965798
 20
1.684351
 30
0.0
 10
1.980255
 20
1.663998
 30
0.0
 10
1.986208
 20
1.664593
 30
0.0
  0
SPLINE
  5
264
100
AcDbEntity
  8
Layer_1
 62
7
100
AcDbSpline
 70
8
 71
3
 72
8
 73
4
 74
0
 40
0
 40
0
 40
0
 40
0
 40
1
 40
1
 40
1
 40
1
 10
1.986208
 20
1.664593
 30
0.0
 10
1.987965
 20
1.664780
 30
0.0
 10
1.997546
 20
1.673381
 30
0.0
 10
2.003216
 20
1.683585
 30
0.0
  0
LWPOLYLINE
  5
265
100
AcDbEntity
  8
Layer_1
 62
7
100
AcDbPolyline
 90
3
 70
0
 10
2.004690
 20
1.683755
 30
0.0
 10
2.018863
 20
1.702464
 30
0.0
 10
1.996186
 20
1.721456
 30
0.0
  0
SPLINE
  5
266
100
AcDbEntity
  8
Layer_1
 62
7
100
AcDbSpline
 70
8
 71
3
 72
8
 73
4
 74
0
 40
0
 40
0
 40
0
 40
0
 40
1
 40
1
 40
1
 40
1
 10
2.415402
 20
1.717062
 30
0.0
 10
2.421071
 20
1.722732
 30
0.0
 10
2.429575
 20
1.738889
 30
0.0
 10
2.435244
 20
1.752467
 30
0.0
  0
SPLINE
  5
267
100
AcDbEntity
  8
Layer_1
 62
7
100
AcDbSpline
 70
8
 71
3
 72
8
 73
4
 74
0
 40
0
 40
0
 40
0
 40
0
 40
1
 40
1
 40
1
 40
1
 10
2.435244
 20
1.752467
 30
0.0
 10
2.443748
 20
1.769475
 30
0.0
 10
2.455087
 20
1.782571
 30
0.0
 10
2.476630
 20
1.793853
 30
0.0
  0
SPLINE
  5
268
100
AcDbEntity
  8
Layer_1
 62
7
100
AcDbSpline
 70
8
 71
3
 72
8
 73
4
 74
0
 40
0
 40
0
 40
0
 40
0
 40
1
 40
1
 40
1
 40
1
 10
2.476630
 20
1.793853
 30
0.0
 10
2.490803
 20
1.802924
 30
0.0
 10
2.514331
 20
1.818514
 30
0.0
 10
2.525386
 20
1.828861
 30
0.0
  0
SPLINE
  5
269
100
AcDbEntity
  8
Layer_1
 62
7
100
AcDbSpline
 70
8
 71
3
 72
8
 73
4
 74
0
 40
0
 40
0
 40
0
 40
0
 40
1
 40
1
 40
1
 40
1
 10
2.525386
 20
1.828861
 30
0.0
 10
2.542394
 20
1.846436
 30
0.0
 10
2.569323
 20
1.900521
 30
0.0
 10
2.568472
 20
1.921866
 30
0.0
  0
SPLINE
  5
26a
100
AcDbEntity
  8
Layer_1
 62
7
100
AcDbSpline
 70
8
 71
3
 72
8
 73
4
 74
0
 40
0
 40
0
 40
0
 40
0
 40
1
 40
1
 40
1
 40
1
 10
2.568472
 20
1.921866
 30
0.0
 10
2.568302
 20
1.927535
 30
0.0
 10
2.562803
 20
1.917897
 30
0.0
 10
2.554299
 20
1.900606
 30
0.0
  0
SPLINE
  5
26b
100
AcDbEntity
  8
Layer_1
 62
7
100
AcDbSpline
 70
8
 71
3
 72
8
 73
4
 74
0
 40
0
 40
0
 40
0
 40
0
 40
1
 40
1
 40
1
 40
1
 10
2.554299
 20
1.900606
 30
0.0
 10
2.540126
 20
1.859787
 30
0.0
 10
2.520567
 20
1.842410
 30
0.0
 10
2.455370
 20
1.806099
 30
0.0
  0
SPLINE
  5
26c
100
AcDbEntity
  8
Layer_1
 62
7
100
AcDbSpline
 70
8
 71
3
 72
8
 73
4
 74
0
 40
0
 40
0
 40
0
 40
0
 40
1
 40
1
 40
1
 40
1
 10
2.455370
 20
1.806099
 30
0.0
 10
2.400378
 20
1.775399
 30
0.0
 10
2.362394
 20
1.746231
 30
0.0
 10
2.362394
 20
1.734977
 30
0.0
  0
SPLINE
  5
26d
100
AcDbEntity
  8
Layer_1
 62
7
100
AcDbSpline
 70
8
 71
3
 72
8
 73
4
 74
0
 40
0
 40
0
 40
0
 40
0
 40
1
 40
1
 40
1
 40
1
 10
2.362394
 20
1.734977
 30
0.0
 10
2.362394
 20
1.724489
 30
0.0
 10
2.379402
 20
1.706546
 30
0.0
 10
2.392441
 20
1.706546
 30
0.0
  0
SPLINE
  5
26e
100
AcDbEntity
  8
Layer_1
 62
7
100
AcDbSpline
 70
8
 71
3
 72
8
 73
4
 74
0
 40
0
 40
0
 40
0
 40
0
 40
1
 40
1
 40
1
 40
1
 10
2.392441
 20
1.706546
 30
0.0
 10
2.398110
 20
1.706546
 30
0.0
 10
2.406614
 20
1.711365
 30
0.0
 10
2.409449
 20
1.717318
 30
0.0
  0
LWPOLYLINE
  5
26f
100
AcDbEntity
  8
Layer_1
 62
7
100
AcDbPolyline
 90
2
 70
0
 10
2.003216
 20
1.683585
 30
0.0
 10
2.004690
 20
1.683755
 30
0.0
  0
SPLINE
  5
270
100
AcDbEntity
  8
Layer_1
 62
7
100
AcDbSpline
 70
8
 71
3
 72
8
 73
4
 74
0
 40
0
 40
0
 40
0
 40
0
 40
1
 40
1
 40
1
 40
1
 10
2.373165
 20
1.878864
 30
0.0
 10
2.384504
 20
1.883683
 30
0.0
 10
2.387339
 20
1.890203
 30
0.0
 10
2.387339
 20
1.895588
 30
0.0
  0
SPLINE
  5
271
100
AcDbEntity
  8
Layer_1
 62
7
100
AcDbSpline
 70
8
 71
3
 72
8
 73
4
 74
0
 40
0
 40
0
 40
0
 40
0
 40
1
 40
1
 40
1
 40
1
 10
2.387339
 20
1.895588
 30
0.0
 10
2.385609
 20
1.900407
 30
0.0
 10
2.389096
 20
1.906927
 30
0.0
 10
2.395842
 20
1.910329
 30
0.0
  0
SPLINE
  5
272
100
AcDbEntity
  8
Layer_1
 62
7
100
AcDbSpline
 70
8
 71
3
 72
8
 73
4
 74
0
 40
0
 40
0
 40
0
 40
0
 40
1
 40
1
 40
1
 40
1
 10
2.395842
 20
1.910329
 30
0.0
 10
2.401512
 20
1.913730
 30
0.0
 10
2.407181
 20
1.923084
 30
0.0
 10
2.407181
 20
1.931872
 30
0.0
  0
SPLINE
  5
273
100
AcDbEntity
  8
Layer_1
 62
7
100
AcDbSpline
 70
8
 71
3
 72
8
 73
4
 74
0
 40
0
 40
0
 40
0
 40
0
 40
1
 40
1
 40
1
 40
1
 10
2.407181
 20
1.931872
 30
0.0
 10
2.407181
 20
1.946896
 30
0.0
 10
2.407124
 20
1.946896
 30
0.0
 10
2.390173
 20
1.927620
 30
0.0
  0
SPLINE
  5
274
100
AcDbEntity
  8
Layer_1
 62
7
100
AcDbSpline
 70
8
 71
3
 72
8
 73
4
 74
0
 40
0
 40
0
 40
0
 40
0
 40
1
 40
1
 40
1
 40
1
 10
2.390173
 20
1.927620
 30
0.0
 10
2.381669
 20
1.916848
 30
0.0
 10
2.361827
 20
1.897799
 30
0.0
 10
2.347937
 20
1.885214
 30
0.0
  0
SPLINE
  5
275
100
AcDbEntity
  8
Layer_1
 62
7
100
AcDbSpline
 70
8
 71
3
 72
8
 73
4
 74
0
 40
0
 40
0
 40
0
 40
0
 40
1
 40
1
 40
1
 40
1
 10
2.347937
 20
1.885214
 30
0.0
 10
2.322425
 20
1.863954
 30
0.0
 10
2.322425
 20
1.862536
 30
0.0
 10
2.336598
 20
1.866505
 30
0.0
  0
SPLINE
  5
276
100
AcDbEntity
  8
Layer_1
 62
7
100
AcDbSpline
 70
8
 71
3
 72
8
 73
4
 74
0
 40
0
 40
0
 40
0
 40
0
 40
1
 40
1
 40
1
 40
1
 10
2.336598
 20
1.866505
 30
0.0
 10
2.347937
 20
1.868948
 30
0.0
 10
2.362110
 20
1.874442
 30
0.0
 10
2.370331
 20
1.878694
 30
0.0
  0
LWPOLYLINE
  5
277
100
AcDbEntity
  8
Layer_1
 62
7
100
AcDbPolyline
 90
2
 70
0
 10
2.409449
 20
1.717318
 30
0.0
 10
2.415402
 20
1.717062
 30
0.0
  0
SPLINE
  5
278
100
AcDbEntity
  8
Layer_1
 62
7
100
AcDbSpline
 70
8
 71
3
 72
8
 73
4
 74
0
 40
0
 40
0
 40
0
 40
0
 40
1
 40
1
 40
1
 40
1
 10
2.036126
 20
1.887651
 30
0.0
 10
2.024787
 20
1.898140
 30
0.0
 10
2.019118
 20
1.908911
 30
0.0
 10
2.019118
 20
1.912313
 30
0.0
  0
SPLINE
  5
279
100
AcDbEntity
  8
Layer_1
 62
7
100
AcDbSpline
 70
8
 71
3
 72
8
 73
4
 74
0
 40
0
 40
0
 40
0
 40
0
 40
1
 40
1
 40
1
 40
1
 10
2.019118
 20
1.912313
 30
0.0
 10
2.019118
 20
1.915431
 30
0.0
 10
2.013449
 20
1.925352
 30
0.0
 10
2.007780
 20
1.934140
 30
0.0
  0
SPLINE
  5
27a
100
AcDbEntity
  8
Layer_1
 62
7
100
AcDbSpline
 70
8
 71
3
 72
8
 73
4
 74
0
 40
0
 40
0
 40
0
 40
0
 40
1
 40
1
 40
1
 40
1
 10
2.007780
 20
1.934140
 30
0.0
 10
2.002110
 20
1.942927
 30
0.0
 10
1.990772
 20
1.966455
 30
0.0
 10
1.985102
 20
1.986410
 30
0.0
  0
SPLINE
  5
27b
100
AcDbEntity
  8
Layer_1
 62
7
100
AcDbSpline
 70
8
 71
3
 72
8
 73
4
 74
0
 40
0
 40
0
 40
0
 40
0
 40
1
 40
1
 40
1
 40
1
 10
1.985102
 20
1.986410
 30
0.0
 10
1.970929
 20
2.021532
 30
0.0
 10
1.942866
 20
2.065979
 30
0.0
 10
1.942299
 20
2.051069
 30
0.0
  0
SPLINE
  5
27c
100
AcDbEntity
  8
Layer_1
 62
7
100
AcDbSpline
 70
8
 71
3
 72
8
 73
4
 74
0
 40
0
 40
0
 40
0
 40
0
 40
1
 40
1
 40
1
 40
1
 10
1.942299
 20
2.051069
 30
0.0
 10
1.942214
 20
2.047100
 30
0.0
 10
1.947968
 20
2.034061
 30
0.0
 10
1.953638
 20
2.022297
 30
0.0
  0
SPLINE
  5
27d
100
AcDbEntity
  8
Layer_1
 62
7
100
AcDbSpline
 70
8
 71
3
 72
8
 73
4
 74
0
 40
0
 40
0
 40
0
 40
0
 40
1
 40
1
 40
1
 40
1
 10
1.953638
 20
2.022297
 30
0.0
 10
1.959307
 20
2.010392
 30
0.0
 10
1.967811
 20
1.995935
 30
0.0
 10
1.967811
 20
1.989954
 30
0.0
  0
SPLINE
  5
27e
100
AcDbEntity
  8
Layer_1
 62
7
100
AcDbSpline
 70
8
 71
3
 72
8
 73
4
 74
0
 40
0
 40
0
 40
0
 40
0
 40
1
 40
1
 40
1
 40
1
 10
1.967811
 20
1.989954
 30
0.0
 10
1.967811
 20
1.984001
 30
0.0
 10
1.973480
 20
1.974363
 30
0.0
 10
1.981984
 20
1.968410
 30
0.0
  0
SPLINE
  5
27f
100
AcDbEntity
  8
Layer_1
 62
7
100
AcDbSpline
 70
8
 71
3
 72
8
 73
4
 74
0
 40
0
 40
0
 40
0
 40
0
 40
1
 40
1
 40
1
 40
1
 10
1.981984
 20
1.968410
 30
0.0
 10
1.987654
 20
1.962741
 30
0.0
 10
1.993323
 20
1.955371
 30
0.0
 10
1.990488
 20
1.952820
 30
0.0
  0
SPLINE
  5
280
100
AcDbEntity
  8
Layer_1
 62
7
100
AcDbSpline
 70
8
 71
3
 72
8
 73
4
 74
0
 40
0
 40
0
 40
0
 40
0
 40
1
 40
1
 40
1
 40
1
 10
1.990488
 20
1.952820
 30
0.0
 10
1.987880
 20
1.947151
 30
0.0
 10
2.004661
 20
1.918804
 30
0.0
 10
2.019402
 20
1.904518
 30
0.0
  0
SPLINE
  5
281
100
AcDbEntity
  8
Layer_1
 62
7
100
AcDbSpline
 70
8
 71
3
 72
8
 73
4
 74
0
 40
0
 40
0
 40
0
 40
0
 40
1
 40
1
 40
1
 40
1
 10
2.019402
 20
1.904518
 30
0.0
 10
2.025071
 20
1.899132
 30
0.0
 10
2.030740
 20
1.890344
 30
0.0
 10
2.025071
 20
1.885525
 30
0.0
  0
SPLINE
  5
282
100
AcDbEntity
  8
Layer_1
 62
7
100
AcDbSpline
 70
8
 71
3
 72
8
 73
4
 74
0
 40
0
 40
0
 40
0
 40
0
 40
1
 40
1
 40
1
 40
1
 10
2.025071
 20
1.885525
 30
0.0
 10
2.023313
 20
1.879856
 30
0.0
 10
2.025553
 20
1.875037
 30
0.0
 10
2.030740
 20
1.873620
 30
0.0
  0
SPLINE
  5
283
100
AcDbEntity
  8
Layer_1
 62
7
100
AcDbSpline
 70
8
 71
3
 72
8
 73
4
 74
0
 40
0
 40
0
 40
0
 40
0
 40
1
 40
1
 40
1
 40
1
 10
2.030740
 20
1.873620
 30
0.0
 10
2.056252
 20
1.867100
 30
0.0
 10
2.059087
 20
1.870218
 30
0.0
 10
2.042079
 20
1.888077
 30
0.0
  0
LWPOLYLINE
  5
284
100
AcDbEntity
  8
Layer_1
 62
7
100
AcDbPolyline
 90
2
 70
0
 10
2.370331
 20
1.878694
 30
0.0
 10
2.373165
 20
1.878864
 30
0.0
  0
SPLINE
  5
285
100
AcDbEntity
  8
Layer_1
 62
7
100
AcDbSpline
 70
8
 71
3
 72
8
 73
4
 74
0
 40
0
 40
0
 40
0
 40
0
 40
1
 40
1
 40
1
 40
1
 10
2.061638
 20
1.903525
 30
0.0
 10
2.059058
 20
1.912029
 30
0.0
 10
2.055968
 20
1.912313
 30
0.0
 10
2.050299
 20
1.905104
 30
0.0
  0
SPLINE
  5
286
100
AcDbEntity
  8
Layer_1
 62
7
100
AcDbSpline
 70
8
 71
3
 72
8
 73
4
 74
0
 40
0
 40
0
 40
0
 40
0
 40
1
 40
1
 40
1
 40
1
 10
2.050299
 20
1.905104
 30
0.0
 10
2.047720
 20
1.899719
 30
0.0
 10
2.048542
 20
1.893199
 30
0.0
 10
2.051546
 20
1.888096
 30
0.0
  0
SPLINE
  5
287
100
AcDbEntity
  8
Layer_1
 62
7
100
AcDbSpline
 70
8
 71
3
 72
8
 73
4
 74
0
 40
0
 40
0
 40
0
 40
0
 40
1
 40
1
 40
1
 40
1
 10
2.051546
 20
1.888096
 30
0.0
 10
2.060050
 20
1.877892
 30
0.0
 10
2.065720
 20
1.888284
 30
0.0
 10
2.057216
 20
1.903687
 30
0.0
  0
LWPOLYLINE
  5
288
100
AcDbEntity
  8
Layer_1
 62
7
100
AcDbPolyline
 90
2
 70
0
 10
2.042079
 20
1.888077
 30
0.0
 10
2.036126
 20
1.887651
 30
0.0
  0
SPLINE
  5
289
100
AcDbEntity
  8
Layer_1
 62
7
100
AcDbSpline
 70
8
 71
3
 72
8
 73
4
 74
0
 40
0
 40
0
 40
0
 40
0
 40
1
 40
1
 40
1
 40
1
 10
2.329228
 20
1.903871
 30
0.0
 10
2.329228
 20
1.911525
 30
0.0
 10
2.328009
 20
1.910958
 30
0.0
 10
2.320724
 20
1.901601
 30
0.0
  0
SPLINE
  5
28a
100
AcDbEntity
  8
Layer_1
 62
7
100
AcDbSpline
 70
8
 71
3
 72
8
 73
4
 74
0
 40
0
 40
0
 40
0
 40
0
 40
1
 40
1
 40
1
 40
1
 10
2.320724
 20
1.901601
 30
0.0
 10
2.309386
 20
1.886294
 30
0.0
 10
2.309386
 20
1.877506
 30
0.0
 10
2.320526
 20
1.887144
 30
0.0
  0
SPLINE
  5
28b
100
AcDbEntity
  8
Layer_1
 62
7
100
AcDbSpline
 70
8
 71
3
 72
8
 73
4
 74
0
 40
0
 40
0
 40
0
 40
0
 40
1
 40
1
 40
1
 40
1
 10
2.320526
 20
1.887144
 30
0.0
 10
2.326195
 20
1.891396
 30
0.0
 10
2.329030
 20
1.899050
 30
0.0
 10
2.329030
 20
1.904152
 30
0.0
  0
LWPOLYLINE
  5
28c
100
AcDbEntity
  8
Layer_1
 62
7
100
AcDbPolyline
 90
2
 70
0
 10
2.057216
 20
1.903687
 30
0.0
 10
2.061638
 20
1.903525
 30
0.0
  0
SPLINE
  5
28d
100
AcDbEntity
  8
Layer_1
 62
7
100
AcDbSpline
 70
8
 71
3
 72
8
 73
4
 74
0
 40
0
 40
0
 40
0
 40
0
 40
1
 40
1
 40
1
 40
1
 10
2.032186
 20
1.933011
 30
0.0
 10
2.026517
 20
1.942366
 30
0.0
 10
2.020847
 20
1.946618
 30
0.0
 10
2.020847
 20
1.942082
 30
0.0
  0
SPLINE
  5
28e
100
AcDbEntity
  8
Layer_1
 62
7
100
AcDbSpline
 70
8
 71
3
 72
8
 73
4
 74
0
 40
0
 40
0
 40
0
 40
0
 40
1
 40
1
 40
1
 40
1
 10
2.020847
 20
1.942082
 30
0.0
 10
2.020535
 20
1.931594
 30
0.0
 10
2.035020
 20
1.909002
 30
0.0
 10
2.037855
 20
1.912885
 30
0.0
  0
SPLINE
  5
28f
100
AcDbEntity
  8
Layer_1
 62
7
100
AcDbSpline
 70
8
 71
3
 72
8
 73
4
 74
0
 40
0
 40
0
 40
0
 40
0
 40
1
 40
1
 40
1
 40
1
 10
2.037855
 20
1.912885
 30
0.0
 10
2.039046
 20
1.914586
 30
0.0
 10
2.036636
 20
1.923657
 30
0.0
 10
2.032186
 20
1.933011
 30
0.0
  0
LWPOLYLINE
  5
290
100
AcDbEntity
  8
Layer_1
 62
7
100
AcDbPolyline
 90
2
 70
0
 10
2.329030
 20
1.904152
 30
0.0
 10
2.329228
 20
1.903871
 30
0.0
  0
SPLINE
  5
291
100
AcDbEntity
  8
Layer_1
 62
7
100
AcDbSpline
 70
8
 71
3
 72
8
 73
4
 74
0
 40
0
 40
0
 40
0
 40
0
 40
1
 40
1
 40
1
 40
1
 10
2.365115
 20
1.922523
 30
0.0
 10
2.376454
 20
1.940381
 30
0.0
 10
2.370784
 20
1.943783
 30
0.0
 10
2.359446
 20
1.931878
 30
0.0
  0
SPLINE
  5
292
100
AcDbEntity
  8
Layer_1
 62
7
100
AcDbSpline
 70
8
 71
3
 72
8
 73
4
 74
0
 40
0
 40
0
 40
0
 40
0
 40
1
 40
1
 40
1
 40
1
 10
2.359446
 20
1.931878
 30
0.0
 10
2.345272
 20
1.920256
 30
0.0
 10
2.342438
 20
1.910901
 30
0.0
 10
2.353776
 20
1.910901
 30
0.0
  0
SPLINE
  5
293
100
AcDbEntity
  8
Layer_1
 62
7
100
AcDbSpline
 70
8
 71
3
 72
8
 73
4
 74
0
 40
0
 40
0
 40
0
 40
0
 40
1
 40
1
 40
1
 40
1
 10
2.353776
 20
1.910901
 30
0.0
 10
2.355534
 20
1.910901
 30
0.0
 10
2.362280
 20
1.916287
 30
0.0
 10
2.367950
 20
1.922523
 30
0.0
  0
LWPOLYLINE
  5
294
100
AcDbEntity
  8
Layer_1
 62
7
100
AcDbPolyline
 90
1
 70
1
 10
2.032186
 20
1.933011
 30
0.0
  0
SPLINE
  5
295
100
AcDbEntity
  8
Layer_1
 62
7
100
AcDbSpline
 70
8
 71
3
 72
8
 73
4
 74
0
 40
0
 40
0
 40
0
 40
0
 40
1
 40
1
 40
1
 40
1
 10
2.443068
 20
2.017569
 30
0.0
 10
2.457241
 20
2.064454
 30
0.0
 10
2.457241
 20
2.074999
 30
0.0
 10
2.441310
 20
2.032876
 30
0.0
  0
SPLINE
  5
296
100
AcDbEntity
  8
Layer_1
 62
7
100
AcDbSpline
 70
8
 71
3
 72
8
 73
4
 74
0
 40
0
 40
0
 40
0
 40
0
 40
1
 40
1
 40
1
 40
1
 10
2.441310
 20
2.032876
 30
0.0
 10
2.424302
 20
1.983667
 30
0.0
 10
2.421468
 20
1.970485
 30
0.0
 10
2.427137
 20
1.974000
 30
0.0
  0
SPLINE
  5
297
100
AcDbEntity
  8
Layer_1
 62
7
100
AcDbSpline
 70
8
 71
3
 72
8
 73
4
 74
0
 40
0
 40
0
 40
0
 40
0
 40
1
 40
1
 40
1
 40
1
 10
2.427137
 20
1.974000
 30
0.0
 10
2.428866
 20
1.975744
 30
0.0
 10
2.438476
 20
1.995260
 30
0.0
 10
2.444145
 20
2.017456
 30
0.0
  0
LWPOLYLINE
  5
298
100
AcDbEntity
  8
Layer_1
 62
7
100
AcDbPolyline
 90
2
 70
0
 10
2.367950
 20
1.922523
 30
0.0
 10
2.365115
 20
1.922523
 30
0.0
  0
SPLINE
  5
299
100
AcDbEntity
  8
Layer_1
 62
7
100
AcDbSpline
 70
8
 71
3
 72
8
 73
4
 74
0
 40
0
 40
0
 40
0
 40
0
 40
1
 40
1
 40
1
 40
1
 10
1.793877
 20
2.007081
 30
0.0
 10
1.782539
 20
2.030892
 30
0.0
 10
1.779704
 20
2.026923
 30
0.0
 10
1.788208
 20
2.001695
 30
0.0
  0
SPLINE
  5
29a
100
AcDbEntity
  8
Layer_1
 62
7
100
AcDbSpline
 70
8
 71
3
 72
8
 73
4
 74
0
 40
0
 40
0
 40
0
 40
0
 40
1
 40
1
 40
1
 40
1
 10
1.788208
 20
2.001695
 30
0.0
 10
1.790816
 20
1.990923
 30
0.0
 10
1.796712
 20
1.983837
 30
0.0
 10
1.799546
 20
1.985537
 30
0.0
  0
SPLINE
  5
29b
100
AcDbEntity
  8
Layer_1
 62
7
100
AcDbSpline
 70
8
 71
3
 72
8
 73
4
 74
0
 40
0
 40
0
 40
0
 40
0
 40
1
 40
1
 40
1
 40
1
 10
1.799546
 20
1.985537
 30
0.0
 10
1.800765
 20
1.987241
 30
0.0
 10
1.799235
 20
1.996876
 30
0.0
 10
1.796967
 20
2.007081
 30
0.0
  0
LWPOLYLINE
  5
29c
100
AcDbEntity
  8
Layer_1
 62
7
100
AcDbPolyline
 90
2
 70
0
 10
2.444145
 20
2.017456
 30
0.0
 10
2.443068
 20
2.017569
 30
0.0
  0
SPLINE
  5
29d
100
AcDbEntity
  8
Layer_1
 62
7
100
AcDbSpline
 70
8
 71
3
 72
8
 73
4
 74
0
 40
0
 40
0
 40
0
 40
0
 40
1
 40
1
 40
1
 40
1
 10
2.412765
 20
2.002545
 30
0.0
 10
2.418435
 20
2.020404
 30
0.0
 10
2.418435
 20
2.020970
 30
0.0
 10
2.411008
 20
2.010482
 30
0.0
  0
SPLINE
  5
29e
100
AcDbEntity
  8
Layer_1
 62
7
100
AcDbSpline
 70
8
 71
3
 72
8
 73
4
 74
0
 40
0
 40
0
 40
0
 40
0
 40
1
 40
1
 40
1
 40
1
 10
2.411008
 20
2.010482
 30
0.0
 10
2.405339
 20
2.004246
 30
0.0
 10
2.402504
 20
1.995459
 30
0.0
 10
2.402504
 20
1.990923
 30
0.0
  0
SPLINE
  5
29f
100
AcDbEntity
  8
Layer_1
 62
7
100
AcDbSpline
 70
8
 71
3
 72
8
 73
4
 74
0
 40
0
 40
0
 40
0
 40
0
 40
1
 40
1
 40
1
 40
1
 10
2.402504
 20
1.990923
 30
0.0
 10
2.402504
 20
1.977317
 30
0.0
 10
2.405112
 20
1.982136
 30
0.0
 10
2.413842
 20
2.002545
 30
0.0
  0
LWPOLYLINE
  5
2a0
100
AcDbEntity
  8
Layer_1
 62
7
100
AcDbPolyline
 90
2
 70
0
 10
1.796967
 20
2.007081
 30
0.0
 10
1.793877
 20
2.007081
 30
0.0
  0
SPLINE
  5
2a1
100
AcDbEntity
  8
Layer_1
 62
7
100
AcDbSpline
 70
8
 71
3
 72
8
 73
4
 74
0
 40
0
 40
0
 40
0
 40
0
 40
1
 40
1
 40
1
 40
1
 10
2.599852
 20
2.049175
 30
0.0
 10
2.599852
 20
2.057112
 30
0.0
 10
2.599200
 20
2.057112
 30
0.0
 10
2.594183
 20
2.049175
 30
0.0
  0
SPLINE
  5
2a2
100
AcDbEntity
  8
Layer_1
 62
7
100
AcDbSpline
 70
8
 71
3
 72
8
 73
4
 74
0
 40
0
 40
0
 40
0
 40
0
 40
1
 40
1
 40
1
 40
1
 10
2.594183
 20
2.049175
 30
0.0
 10
2.592425
 20
2.044356
 30
0.0
 10
2.588513
 20
2.036136
 30
0.0
 10
2.588513
 20
2.031317
 30
0.0
  0
SPLINE
  5
2a3
100
AcDbEntity
  8
Layer_1
 62
7
100
AcDbSpline
 70
8
 71
3
 72
8
 73
4
 74
0
 40
0
 40
0
 40
0
 40
0
 40
1
 40
1
 40
1
 40
1
 10
2.588513
 20
2.031317
 30
0.0
 10
2.588513
 20
2.023380
 30
0.0
 10
2.589165
 20
2.023380
 30
0.0
 10
2.594183
 20
2.031317
 30
0.0
  0
SPLINE
  5
2a4
100
AcDbEntity
  8
Layer_1
 62
7
100
AcDbSpline
 70
8
 71
3
 72
8
 73
4
 74
0
 40
0
 40
0
 40
0
 40
0
 40
1
 40
1
 40
1
 40
1
 10
2.594183
 20
2.031317
 30
0.0
 10
2.595912
 20
2.036136
 30
0.0
 10
2.599852
 20
2.044356
 30
0.0
 10
2.599852
 20
2.049175
 30
0.0
  0
LWPOLYLINE
  5
2a5
100
AcDbEntity
  8
Layer_1
 62
7
100
AcDbPolyline
 90
2
 70
0
 10
2.413842
 20
2.002545
 30
0.0
 10
2.412765
 20
2.002545
 30
0.0
  0
LWPOLYLINE
  5
2a6
100
AcDbEntity
  8
Layer_1
 62
7
100
AcDbPolyline
 90
1
 70
1
 10
2.599852
 20
2.049175
 30
0.0
  0
ENDSEC
  0
SECTION
  2
OBJECTS
  0
DICTIONARY
  5
C
330
0
100
AcDbDictionary
  3
ACAD_GROUP
350
D
  3
ACAD_MLINESTYLE
350
17
  0
DICTIONARY
  5
D
330
C
100
AcDbDictionary
  0
DICTIONARY
  5
1A
330
C
100
AcDbDictionary
  0
DICTIONARY
  5
17
330
C
100
AcDbDictionary
  3
STANDARD
350
18
  0
DICTIONARY
  5
19
330
C
100
AcDbDictionary
  0
ENDSEC
  0
EOF
