  0
SECTION
  2
HEADER
  9
$ACADVER
  1
AC1014
  9
$HANDSEED
  5
FFFF
  9
$MEASUREMENT
 70
     1
  0
ENDSEC
  0
SECTION
  2
TABLES
  0
TABLE
  2
VPORT
  5
8
330
0
100
AcDbSymbolTable
 70
     4
  0
VPORT
  5
2E
330
8
100
AcDbSymbolTableRecord
100
AcDbViewportTableRecord
  2
*ACTIVE
 70
     0
 10
0.0
 20
0.0
 11
1.0
 21
1.0
 12
210.0
 22
148.5
 13
0.0
 23
0.0
 14
10.0
 24
10.0
 15
10.0
 25
10.0
 16
0.0
 26
0.0
 36
1.0
 17
0.0
 27
0.0
 37
0.0
 40
341.0
 41
1.24
 42
50.0
 43
0.0
 44
0.0
 50
0.0
 51
0.0
 71
     0
 72
   100
 73
     1
 74
     3
 75
     0
 76
     0
 77
     0
 78
     0
  0
ENDTAB
  0
TABLE
  2
LTYPE
  5
5
330
0
100
AcDbSymbolTable
 70
     1
  0
LTYPE
  5
14
330
5
100
AcDbSymbolTableRecord
100
AcDbLinetypeTableRecord
  2
BYBLOCK
 70
     0
  3

 72
    65
 73
     0
 40
0.0
  0
LTYPE
  5
15
330
5
100
AcDbSymbolTableRecord
100
AcDbLinetypeTableRecord
  2
BYLAYER
 70
     0
  3

 72
    65
 73
     0
 40
0.0
  0
LTYPE
  5
16
330
5
100
AcDbSymbolTableRecord
100
AcDbLinetypeTableRecord
  2
CONTINUOUS
 70
     0
  3
Solid line
 72
    65
 73
     0
 40
0.0
  0
ENDTAB
  0
TABLE
  2
LAYER
  5
2
100
AcDbSymbolTable
 70
2
  0
LAYER
  5
50
100
AcDbSymbolTableRecord
100
AcDbLayerTableRecord
  2
0
 70
0
  6
CONTINUOUS
  0
LAYER
  5
51
100
AcDbSymbolTableRecord
100
AcDbLayerTableRecord
  2
Layer_1
 70
0
  6
CONTINUOUS
  0
ENDTAB
  0
TABLE
  2
STYLE
  5
3
330
0
100
AcDbSymbolTable
 70
     1
  0
STYLE
  5
11
330
3
100
AcDbSymbolTableRecord
100
AcDbTextStyleTableRecord
  2
STANDARD
 70
     0
 40
0.0
 41
1.0
 50
0.0
 71
     0
 42
2.5
  3
txt
  4

  0
ENDTAB
  0
TABLE
  2
VIEW
  5
6
330
0
100
AcDbSymbolTable
 70
     0
  0
ENDTAB
  0
TABLE
  2
UCS
  5
7
330
0
100
AcDbSymbolTable
 70
     0
  0
ENDTAB
  0
TABLE
  2
APPID
  5
9
330
0
100
AcDbSymbolTable
 70
     2
  0
APPID
  5
12
330
9
100
AcDbSymbolTableRecord
100
AcDbRegAppTableRecord
  2
ACAD
 70
     0
  0
ENDTAB
  0
TABLE
  2
DIMSTYLE
  5
A
330
0
100
AcDbSymbolTable
 70
     1
  0
DIMSTYLE
105
27
330
A
100
AcDbSymbolTableRecord
100
AcDbDimStyleTableRecord
  2
ISO-25
 70
     0
  3

  4

  5

  6

  7

 40
1.0
 41
2.5
 42
0.625
 43
3.75
 44
1.25
 45
0.0
 46
0.0
 47
0.0
 48
0.0
140
2.5
141
2.5
142
0.0
143
0.03937007874016
144
1.0
145
0.0
146
1.0
147
0.625
 71
     0
 72
     0
 73
     0
 74
     0
 75
     0
 76
     0
 77
     1
 78
     8
170
     0
171
     3
172
     1
173
     0
174
     0
175
     0
176
     0
177
     0
178
     0
270
     2
271
     2
272
     2
273
     2
274
     3
340
11
275
     0
280
     0
281
     0
282
     0
283
     0
284
     8
285
     0
286
     0
287
     3
288
     0
  0
ENDTAB
  0
TABLE
  2
BLOCK_RECORD
  5
1
330
0
100
AcDbSymbolTable
 70
     1
  0
BLOCK_RECORD
  5
1F
330
1
100
AcDbSymbolTableRecord
100
AcDbBlockTableRecord
  2
*MODEL_SPACE
  0
BLOCK_RECORD
  5
1B
330
1
100
AcDbSymbolTableRecord
100
AcDbBlockTableRecord
  2
*PAPER_SPACE
  0
ENDTAB
  0
ENDSEC
  0
SECTION
  2
BLOCKS
  0
BLOCK
  5
20
330
1F
100
AcDbEntity
  8
0
100
AcDbBlockBegin
  2
*MODEL_SPACE
 70
     0
 10
0.0
 20
0.0
 30
0.0
  3
*MODEL_SPACE
  1

  0
ENDBLK
  5
21
330
1F
100
AcDbEntity
  8
0
100
AcDbBlockEnd
  0
BLOCK
  5
1C
330
1B
100
AcDbEntity
 67
     1
  8
0
100
AcDbBlockBegin
  2
*PAPER_SPACE
  1

  0
ENDBLK
  5
1D
330
1B
100
AcDbEntity
 67
     1
  8
0
100
AcDbBlockEnd
  0
ENDSEC
  0
SECTION
  2
ENTITIES
  0
SPLINE
  5
100
100
AcDbEntity
  8
Layer_1
 62
7
100
AcDbSpline
 70
8
 71
3
 72
8
 73
4
 74
0
 40
0
 40
0
 40
0
 40
0
 40
1
 40
1
 40
1
 40
1
 10
5.070643
 20
0.007021
 30
0.0
 10
5.021603
 20
0.014674
 30
0.0
 10
4.866831
 20
0.143395
 30
0.0
 10
4.786072
 20
0.243203
 30
0.0
  0
SPLINE
  5
101
100
AcDbEntity
  8
Layer_1
 62
7
100
AcDbSpline
 70
8
 71
3
 72
8
 73
4
 74
0
 40
0
 40
0
 40
0
 40
0
 40
1
 40
1
 40
1
 40
1
 10
4.786072
 20
0.243203
 30
0.0
 10
4.691112
 20
0.360586
 30
0.0
 10
4.562135
 20
0.630141
 30
0.0
 10
4.502409
 20
0.835471
 30
0.0
  0
SPLINE
  5
102
100
AcDbEntity
  8
Layer_1
 62
7
100
AcDbSpline
 70
8
 71
3
 72
8
 73
4
 74
0
 40
0
 40
0
 40
0
 40
0
 40
1
 40
1
 40
1
 40
1
 10
4.502409
 20
0.835471
 30
0.0
 10
4.420205
 20
1.117320
 30
0.0
 10
4.385906
 20
1.581082
 30
0.0
 10
4.418787
 20
1.974438
 30
0.0
  0
SPLINE
  5
103
100
AcDbEntity
  8
Layer_1
 62
7
100
AcDbSpline
 70
8
 71
3
 72
8
 73
4
 74
0
 40
0
 40
0
 40
0
 40
0
 40
1
 40
1
 40
1
 40
1
 10
4.418787
 20
1.974438
 30
0.0
 10
4.427291
 20
2.086661
 30
0.0
 10
4.427291
 20
2.092019
 30
0.0
 10
4.404614
 20
2.072658
 30
0.0
  0
SPLINE
  5
104
100
AcDbEntity
  8
Layer_1
 62
7
100
AcDbSpline
 70
8
 71
3
 72
8
 73
4
 74
0
 40
0
 40
0
 40
0
 40
0
 40
1
 40
1
 40
1
 40
1
 10
4.404614
 20
2.072658
 30
0.0
 10
4.393276
 20
2.061319
 30
0.0
 10
4.345654
 20
2.003408
 30
0.0
 10
4.303984
 20
1.943795
 30
0.0
  0
SPLINE
  5
105
100
AcDbEntity
  8
Layer_1
 62
7
100
AcDbSpline
 70
8
 71
3
 72
8
 73
4
 74
0
 40
0
 40
0
 40
0
 40
0
 40
1
 40
1
 40
1
 40
1
 10
4.303984
 20
1.943795
 30
0.0
 10
4.194567
 20
1.787861
 30
0.0
 10
3.977036
 20
1.572054
 30
0.0
 10
3.849846
 20
1.493531
 30
0.0
  0
SPLINE
  5
106
100
AcDbEntity
  8
Layer_1
 62
7
100
AcDbSpline
 70
8
 71
3
 72
8
 73
4
 74
0
 40
0
 40
0
 40
0
 40
0
 40
1
 40
1
 40
1
 40
1
 10
3.849846
 20
1.493531
 30
0.0
 10
3.672397
 20
1.384057
 30
0.0
 10
3.572334
 20
1.356646
 30
0.0
 10
3.318180
 20
1.348057
 30
0.0
  0
SPLINE
  5
107
100
AcDbEntity
  8
Layer_1
 62
7
100
AcDbSpline
 70
8
 71
3
 72
8
 73
4
 74
0
 40
0
 40
0
 40
0
 40
0
 40
1
 40
1
 40
1
 40
1
 10
3.318180
 20
1.348057
 30
0.0
 10
3.034998
 20
1.338420
 30
0.0
 10
2.538312
 20
1.388423
 30
0.0
 10
2.364406
 20
1.444010
 30
0.0
  0
SPLINE
  5
108
100
AcDbEntity
  8
Layer_1
 62
7
100
AcDbSpline
 70
8
 71
3
 72
8
 73
4
 74
0
 40
0
 40
0
 40
0
 40
0
 40
1
 40
1
 40
1
 40
1
 10
2.364406
 20
1.444010
 30
0.0
 10
2.292123
 20
1.466971
 30
0.0
 10
2.105603
 20
1.561648
 30
0.0
 10
2.030995
 20
1.612898
 30
0.0
  0
SPLINE
  5
109
100
AcDbEntity
  8
Layer_1
 62
7
100
AcDbSpline
 70
8
 71
3
 72
8
 73
4
 74
0
 40
0
 40
0
 40
0
 40
0
 40
1
 40
1
 40
1
 40
1
 10
2.030995
 20
1.612898
 30
0.0
 10
1.943688
 20
1.673078
 30
0.0
 10
1.689619
 20
1.920052
 30
0.0
 10
1.640013
 20
1.993169
 30
0.0
  0
SPLINE
  5
10a
100
AcDbEntity
  8
Layer_1
 62
7
100
AcDbSpline
 70
8
 71
3
 72
8
 73
4
 74
0
 40
0
 40
0
 40
0
 40
0
 40
1
 40
1
 40
1
 40
1
 10
1.640013
 20
1.993169
 30
0.0
 10
1.617335
 20
2.025597
 30
0.0
 10
1.596359
 20
2.055248
 30
0.0
 10
1.591824
 20
2.059159
 30
0.0
  0
SPLINE
  5
10b
100
AcDbEntity
  8
Layer_1
 62
7
100
AcDbSpline
 70
8
 71
3
 72
8
 73
4
 74
0
 40
0
 40
0
 40
0
 40
0
 40
1
 40
1
 40
1
 40
1
 10
1.591824
 20
2.059159
 30
0.0
 10
1.586154
 20
2.063128
 30
0.0
 10
1.566312
 20
2.095159
 30
0.0
 10
1.546186
 20
2.130507
 30
0.0
  0
SPLINE
  5
10c
100
AcDbEntity
  8
Layer_1
 62
7
100
AcDbSpline
 70
8
 71
3
 72
8
 73
4
 74
0
 40
0
 40
0
 40
0
 40
0
 40
1
 40
1
 40
1
 40
1
 10
1.546186
 20
2.130507
 30
0.0
 10
1.505650
 20
2.199985
 30
0.0
 10
1.499981
 20
2.258265
 30
0.0
 10
1.523509
 20
2.346621
 30
0.0
  0
SPLINE
  5
10d
100
AcDbEntity
  8
Layer_1
 62
7
100
AcDbSpline
 70
8
 71
3
 72
8
 73
4
 74
0
 40
0
 40
0
 40
0
 40
0
 40
1
 40
1
 40
1
 40
1
 10
1.523509
 20
2.346621
 30
0.0
 10
1.557808
 20
2.470183
 30
0.0
 10
1.948592
 20
2.809553
 30
0.0
 10
2.197559
 20
2.932018
 30
0.0
  0
SPLINE
  5
10e
100
AcDbEntity
  8
Layer_1
 62
7
100
AcDbSpline
 70
8
 71
3
 72
8
 73
4
 74
0
 40
0
 40
0
 40
0
 40
0
 40
1
 40
1
 40
1
 40
1
 10
2.197559
 20
2.932018
 30
0.0
 10
2.264457
 20
2.964928
 30
0.0
 10
2.319732
 20
2.996619
 30
0.0
 10
2.320299
 20
3.002430
 30
0.0
  0
SPLINE
  5
10f
100
AcDbEntity
  8
Layer_1
 62
7
100
AcDbSpline
 70
8
 71
3
 72
8
 73
4
 74
0
 40
0
 40
0
 40
0
 40
0
 40
1
 40
1
 40
1
 40
1
 10
2.320299
 20
3.002430
 30
0.0
 10
2.320866
 20
3.008383
 30
0.0
 10
2.266157
 20
3.013202
 30
0.0
 10
2.198693
 20
3.013485
 30
0.0
  0
SPLINE
  5
110
100
AcDbEntity
  8
Layer_1
 62
7
100
AcDbSpline
 70
8
 71
3
 72
8
 73
4
 74
0
 40
0
 40
0
 40
0
 40
0
 40
1
 40
1
 40
1
 40
1
 10
2.198693
 20
3.013485
 30
0.0
 10
1.999134
 20
3.014007
 30
0.0
 10
1.581534
 20
3.051101
 30
0.0
 10
1.433509
 20
3.081489
 30
0.0
  0
SPLINE
  5
111
100
AcDbEntity
  8
Layer_1
 62
7
100
AcDbSpline
 70
8
 71
3
 72
8
 73
4
 74
0
 40
0
 40
0
 40
0
 40
0
 40
1
 40
1
 40
1
 40
1
 10
1.433509
 20
3.081489
 30
0.0
 10
1.354139
 20
3.097646
 30
0.0
 10
1.238485
 20
3.135233
 30
0.0
 10
1.160249
 20
3.170156
 30
0.0
  0
SPLINE
  5
112
100
AcDbEntity
  8
Layer_1
 62
7
100
AcDbSpline
 70
8
 71
3
 72
8
 73
4
 74
0
 40
0
 40
0
 40
0
 40
0
 40
1
 40
1
 40
1
 40
1
 10
1.160249
 20
3.170156
 30
0.0
 10
1.035241
 20
3.225885
 30
0.0
 10
1.012847
 20
3.242015
 30
0.0
 10
0.879335
 20
3.376802
 30
0.0
  0
SPLINE
  5
113
100
AcDbEntity
  8
Layer_1
 62
7
100
AcDbSpline
 70
8
 71
3
 72
8
 73
4
 74
0
 40
0
 40
0
 40
0
 40
0
 40
1
 40
1
 40
1
 40
1
 10
0.879335
 20
3.376802
 30
0.0
 10
0.799398
 20
3.457221
 30
0.0
 10
0.684028
 20
3.584865
 30
0.0
 10
0.622517
 20
3.660394
 30
0.0
  0
SPLINE
  5
114
100
AcDbEntity
  8
Layer_1
 62
7
100
AcDbSpline
 70
8
 71
3
 72
8
 73
4
 74
0
 40
0
 40
0
 40
0
 40
0
 40
1
 40
1
 40
1
 40
1
 10
0.622517
 20
3.660394
 30
0.0
 10
0.561288
 20
3.735937
 30
0.0
 10
0.477383
 20
3.834385
 30
0.0
 10
0.435997
 20
3.879144
 30
0.0
  0
SPLINE
  5
115
100
AcDbEntity
  8
Layer_1
 62
7
100
AcDbSpline
 70
8
 71
3
 72
8
 73
4
 74
0
 40
0
 40
0
 40
0
 40
0
 40
1
 40
1
 40
1
 40
1
 10
0.435997
 20
3.879144
 30
0.0
 10
0.299934
 20
4.025922
 30
0.0
 10
0.161036
 20
4.223661
 30
0.0
 10
0.079937
 20
4.386035
 30
0.0
  0
SPLINE
  5
116
100
AcDbEntity
  8
Layer_1
 62
7
100
AcDbSpline
 70
8
 71
3
 72
8
 73
4
 74
0
 40
0
 40
0
 40
0
 40
0
 40
1
 40
1
 40
1
 40
1
 10
0.079937
 20
4.386035
 30
0.0
 10
0.006236
 20
4.533295
 30
0.0
 10
0.000000
 20
4.553024
 30
0.0
 10
0.000000
 20
4.641096
 30
0.0
  0
SPLINE
  5
117
100
AcDbEntity
  8
Layer_1
 62
7
100
AcDbSpline
 70
8
 71
3
 72
8
 73
4
 74
0
 40
0
 40
0
 40
0
 40
0
 40
1
 40
1
 40
1
 40
1
 10
0.000000
 20
4.641096
 30
0.0
 10
0.000000
 20
4.728063
 30
0.0
 10
0.002835
 20
4.740479
 30
0.0
 10
0.041953
 20
4.780504
 30
0.0
  0
SPLINE
  5
118
100
AcDbEntity
  8
Layer_1
 62
7
100
AcDbSpline
 70
8
 71
3
 72
8
 73
4
 74
0
 40
0
 40
0
 40
0
 40
0
 40
1
 40
1
 40
1
 40
1
 10
0.041953
 20
4.780504
 30
0.0
 10
0.109984
 20
4.851399
 30
0.0
 10
0.261638
 20
4.916652
 30
0.0
 10
0.469757
 20
4.964246
 30
0.0
  0
SPLINE
  5
119
100
AcDbEntity
  8
Layer_1
 62
7
100
AcDbSpline
 70
8
 71
3
 72
8
 73
4
 74
0
 40
0
 40
0
 40
0
 40
0
 40
1
 40
1
 40
1
 40
1
 10
0.469757
 20
4.964246
 30
0.0
 10
0.651742
 20
5.005887
 30
0.0
 10
0.668750
 20
5.007361
 30
0.0
 10
0.904535
 20
5.001182
 30
0.0
  0
SPLINE
  5
11a
100
AcDbEntity
  8
Layer_1
 62
7
100
AcDbSpline
 70
8
 71
3
 72
8
 73
4
 74
0
 40
0
 40
0
 40
0
 40
0
 40
1
 40
1
 40
1
 40
1
 10
0.904535
 20
5.001182
 30
0.0
 10
1.249002
 20
4.992394
 30
0.0
 10
1.439631
 20
4.957670
 30
0.0
 10
2.033660
 20
4.796463
 30
0.0
  0
SPLINE
  5
11b
100
AcDbEntity
  8
Layer_1
 62
7
100
AcDbSpline
 70
8
 71
3
 72
8
 73
4
 74
0
 40
0
 40
0
 40
0
 40
0
 40
1
 40
1
 40
1
 40
1
 10
2.033660
 20
4.796463
 30
0.0
 10
2.118416
 20
4.773503
 30
0.0
 10
2.333027
 20
4.702807
 30
0.0
 10
2.510589
 20
4.639509
 30
0.0
  0
SPLINE
  5
11c
100
AcDbEntity
  8
Layer_1
 62
7
100
AcDbSpline
 70
8
 71
3
 72
8
 73
4
 74
0
 40
0
 40
0
 40
0
 40
0
 40
1
 40
1
 40
1
 40
1
 10
2.510589
 20
4.639509
 30
0.0
 10
2.688038
 20
4.576211
 30
0.0
 10
2.975216
 20
4.475808
 30
0.0
 10
3.148753
 20
4.416451
 30
0.0
  0
SPLINE
  5
11d
100
AcDbEntity
  8
Layer_1
 62
7
100
AcDbSpline
 70
8
 71
3
 72
8
 73
4
 74
0
 40
0
 40
0
 40
0
 40
0
 40
1
 40
1
 40
1
 40
1
 10
3.148753
 20
4.416451
 30
0.0
 10
3.578173
 20
4.269531
 30
0.0
 10
4.057172
 20
4.029414
 30
0.0
 10
4.428567
 20
3.774877
 30
0.0
  0
SPLINE
  5
11e
100
AcDbEntity
  8
Layer_1
 62
7
100
AcDbSpline
 70
8
 71
3
 72
8
 73
4
 74
0
 40
0
 40
0
 40
0
 40
0
 40
1
 40
1
 40
1
 40
1
 10
4.428567
 20
3.774877
 30
0.0
 10
4.488378
 20
3.733945
 30
0.0
 10
4.541953
 20
3.700496
 30
0.0
 10
4.547622
 20
3.700524
 30
0.0
  0
SPLINE
  5
11f
100
AcDbEntity
  8
Layer_1
 62
7
100
AcDbSpline
 70
8
 71
3
 72
8
 73
4
 74
0
 40
0
 40
0
 40
0
 40
0
 40
1
 40
1
 40
1
 40
1
 10
4.547622
 20
3.700524
 30
0.0
 10
4.567465
 20
3.700621
 30
0.0
 10
4.612819
 20
3.829699
 30
0.0
 10
4.599213
 20
3.847217
 30
0.0
  0
SPLINE
  5
120
100
AcDbEntity
  8
Layer_1
 62
7
100
AcDbSpline
 70
8
 71
3
 72
8
 73
4
 74
0
 40
0
 40
0
 40
0
 40
0
 40
1
 40
1
 40
1
 40
1
 10
4.599213
 20
3.847217
 30
0.0
 10
4.593543
 20
3.856288
 30
0.0
 10
4.566047
 20
3.894924
 30
0.0
 10
4.541386
 20
3.932937
 30
0.0
  0
SPLINE
  5
121
100
AcDbEntity
  8
Layer_1
 62
7
100
AcDbSpline
 70
8
 71
3
 72
8
 73
4
 74
0
 40
0
 40
0
 40
0
 40
0
 40
1
 40
1
 40
1
 40
1
 10
4.541386
 20
3.932937
 30
0.0
 10
4.515874
 20
3.970921
 30
0.0
 10
4.457480
 20
4.030449
 30
0.0
 10
4.409858
 20
4.065145
 30
0.0
  0
SPLINE
  5
122
100
AcDbEntity
  8
Layer_1
 62
7
100
AcDbSpline
 70
8
 71
3
 72
8
 73
4
 74
0
 40
0
 40
0
 40
0
 40
0
 40
1
 40
1
 40
1
 40
1
 10
4.409858
 20
4.065145
 30
0.0
 10
4.274646
 20
4.163875
 30
0.0
 10
4.247717
 20
4.205601
 30
0.0
 10
4.206614
 20
4.381746
 30
0.0
  0
SPLINE
  5
123
100
AcDbEntity
  8
Layer_1
 62
7
100
AcDbSpline
 70
8
 71
3
 72
8
 73
4
 74
0
 40
0
 40
0
 40
0
 40
0
 40
1
 40
1
 40
1
 40
1
 10
4.206614
 20
4.381746
 30
0.0
 10
4.186772
 20
4.466049
 30
0.0
 10
4.155591
 20
4.586436
 30
0.0
 10
4.136882
 20
4.649280
 30
0.0
  0
SPLINE
  5
124
100
AcDbEntity
  8
Layer_1
 62
7
100
AcDbSpline
 70
8
 71
3
 72
8
 73
4
 74
0
 40
0
 40
0
 40
0
 40
0
 40
1
 40
1
 40
1
 40
1
 10
4.136882
 20
4.649280
 30
0.0
 10
4.096063
 20
4.786279
 30
0.0
 10
4.095780
 20
4.794527
 30
0.0
 10
4.128378
 20
4.794527
 30
0.0
  0
SPLINE
  5
125
100
AcDbEntity
  8
Layer_1
 62
7
100
AcDbSpline
 70
8
 71
3
 72
8
 73
4
 74
0
 40
0
 40
0
 40
0
 40
0
 40
1
 40
1
 40
1
 40
1
 10
4.128378
 20
4.794527
 30
0.0
 10
4.193575
 20
4.794527
 30
0.0
 10
4.249417
 20
4.667280
 30
0.0
 10
4.299874
 20
4.405804
 30
0.0
  0
SPLINE
  5
126
100
AcDbEntity
  8
Layer_1
 62
7
100
AcDbSpline
 70
8
 71
3
 72
8
 73
4
 74
0
 40
0
 40
0
 40
0
 40
0
 40
1
 40
1
 40
1
 40
1
 10
4.299874
 20
4.405804
 30
0.0
 10
4.322551
 20
4.292475
 30
0.0
 10
4.378110
 20
4.226371
 30
0.0
 10
4.517575
 20
4.149722
 30
0.0
  0
SPLINE
  5
127
100
AcDbEntity
  8
Layer_1
 62
7
100
AcDbSpline
 70
8
 71
3
 72
8
 73
4
 74
0
 40
0
 40
0
 40
0
 40
0
 40
1
 40
1
 40
1
 40
1
 10
4.517575
 20
4.149722
 30
0.0
 10
4.575969
 20
4.117690
 30
0.0
 10
4.648252
 20
4.069246
 30
0.0
 10
4.678583
 20
4.042119
 30
0.0
  0
SPLINE
  5
128
100
AcDbEntity
  8
Layer_1
 62
7
100
AcDbSpline
 70
8
 71
3
 72
8
 73
4
 74
0
 40
0
 40
0
 40
0
 40
0
 40
1
 40
1
 40
1
 40
1
 10
4.678583
 20
4.042119
 30
0.0
 10
4.708063
 20
4.014906
 30
0.0
 10
4.739244
 20
3.996339
 30
0.0
 10
4.746331
 20
4.000761
 30
0.0
  0
SPLINE
  5
129
100
AcDbEntity
  8
Layer_1
 62
7
100
AcDbSpline
 70
8
 71
3
 72
8
 73
4
 74
0
 40
0
 40
0
 40
0
 40
0
 40
1
 40
1
 40
1
 40
1
 10
4.746331
 20
4.000761
 30
0.0
 10
4.752000
 20
4.005013
 30
0.0
 10
4.754835
 20
4.048809
 30
0.0
 10
4.752000
 20
4.097706
 30
0.0
  0
SPLINE
  5
12a
100
AcDbEntity
  8
Layer_1
 62
7
100
AcDbSpline
 70
8
 71
3
 72
8
 73
4
 74
0
 40
0
 40
0
 40
0
 40
0
 40
1
 40
1
 40
1
 40
1
 10
4.752000
 20
4.097706
 30
0.0
 10
4.746331
 20
4.168686
 30
0.0
 10
4.750894
 20
4.200179
 30
0.0
 10
4.774677
 20
4.253952
 30
0.0
  0
SPLINE
  5
12b
100
AcDbEntity
  8
Layer_1
 62
7
100
AcDbSpline
 70
8
 71
3
 72
8
 73
4
 74
0
 40
0
 40
0
 40
0
 40
0
 40
1
 40
1
 40
1
 40
1
 10
4.774677
 20
4.253952
 30
0.0
 10
4.788850
 20
4.290972
 30
0.0
 10
4.804157
 20
4.322834
 30
0.0
 10
4.804157
 20
4.324761
 30
0.0
  0
SPLINE
  5
12c
100
AcDbEntity
  8
Layer_1
 62
7
100
AcDbSpline
 70
8
 71
3
 72
8
 73
4
 74
0
 40
0
 40
0
 40
0
 40
0
 40
1
 40
1
 40
1
 40
1
 10
4.804157
 20
4.324761
 30
0.0
 10
4.804157
 20
4.326607
 30
0.0
 10
4.784315
 20
4.332131
 30
0.0
 10
4.758803
 20
4.337517
 30
0.0
  0
SPLINE
  5
12d
100
AcDbEntity
  8
Layer_1
 62
7
100
AcDbSpline
 70
8
 71
3
 72
8
 73
4
 74
0
 40
0
 40
0
 40
0
 40
0
 40
1
 40
1
 40
1
 40
1
 10
4.758803
 20
4.337517
 30
0.0
 10
4.696157
 20
4.350273
 30
0.0
 10
4.603748
 20
4.413259
 30
0.0
 10
4.613102
 20
4.437410
 30
0.0
  0
SPLINE
  5
12e
100
AcDbEntity
  8
Layer_1
 62
7
100
AcDbSpline
 70
8
 71
3
 72
8
 73
4
 74
0
 40
0
 40
0
 40
0
 40
0
 40
1
 40
1
 40
1
 40
1
 10
4.613102
 20
4.437410
 30
0.0
 10
4.621606
 20
4.457820
 30
0.0
 10
4.570299
 20
4.597879
 30
0.0
 10
4.523244
 20
4.684506
 30
0.0
  0
SPLINE
  5
12f
100
AcDbEntity
  8
Layer_1
 62
7
100
AcDbSpline
 70
8
 71
3
 72
8
 73
4
 74
0
 40
0
 40
0
 40
0
 40
0
 40
1
 40
1
 40
1
 40
1
 10
4.523244
 20
4.684506
 30
0.0
 10
4.509071
 20
4.712569
 30
0.0
 10
4.497732
 20
4.744629
 30
0.0
 10
4.497732
 20
4.755769
 30
0.0
  0
SPLINE
  5
130
100
AcDbEntity
  8
Layer_1
 62
7
100
AcDbSpline
 70
8
 71
3
 72
8
 73
4
 74
0
 40
0
 40
0
 40
0
 40
0
 40
1
 40
1
 40
1
 40
1
 10
4.497732
 20
4.755769
 30
0.0
 10
4.497732
 20
4.766824
 30
0.0
 10
4.483559
 20
4.806765
 30
0.0
 10
4.463150
 20
4.844324
 30
0.0
  0
SPLINE
  5
131
100
AcDbEntity
  8
Layer_1
 62
7
100
AcDbSpline
 70
8
 71
3
 72
8
 73
4
 74
0
 40
0
 40
0
 40
0
 40
0
 40
1
 40
1
 40
1
 40
1
 10
4.463150
 20
4.844324
 30
0.0
 10
4.443307
 20
4.881883
 30
0.0
 10
4.430835
 20
4.915445
 30
0.0
 10
4.433669
 20
4.918818
 30
0.0
  0
SPLINE
  5
132
100
AcDbEntity
  8
Layer_1
 62
7
100
AcDbSpline
 70
8
 71
3
 72
8
 73
4
 74
0
 40
0
 40
0
 40
0
 40
0
 40
1
 40
1
 40
1
 40
1
 10
4.433669
 20
4.918818
 30
0.0
 10
4.447843
 20
4.936393
 30
0.0
 10
4.706929
 20
4.680339
 30
0.0
 10
4.706929
 20
4.645388
 30
0.0
  0
SPLINE
  5
133
100
AcDbEntity
  8
Layer_1
 62
7
100
AcDbSpline
 70
8
 71
3
 72
8
 73
4
 74
0
 40
0
 40
0
 40
0
 40
0
 40
1
 40
1
 40
1
 40
1
 10
4.706929
 20
4.645388
 30
0.0
 10
4.706929
 20
4.634333
 30
0.0
 10
4.785165
 20
4.563410
 30
0.0
 10
4.821732
 20
4.540676
 30
0.0
  0
SPLINE
  5
134
100
AcDbEntity
  8
Layer_1
 62
7
100
AcDbSpline
 70
8
 71
3
 72
8
 73
4
 74
0
 40
0
 40
0
 40
0
 40
0
 40
1
 40
1
 40
1
 40
1
 10
4.821732
 20
4.540676
 30
0.0
 10
4.830236
 20
4.535857
 30
0.0
 10
4.835906
 20
4.502692
 30
0.0
 10
4.844409
 20
4.467146
 30
0.0
  0
SPLINE
  5
135
100
AcDbEntity
  8
Layer_1
 62
7
100
AcDbSpline
 70
8
 71
3
 72
8
 73
4
 74
0
 40
0
 40
0
 40
0
 40
0
 40
1
 40
1
 40
1
 40
1
 10
4.929165
 20
4.474572
 30
0.0
 10
5.009102
 20
4.547479
 30
0.0
 10
5.075150
 20
4.584387
 30
0.0
 10
5.126173
 20
4.584387
 30
0.0
  0
SPLINE
  5
136
100
AcDbEntity
  8
Layer_1
 62
7
100
AcDbSpline
 70
8
 71
3
 72
8
 73
4
 74
0
 40
0
 40
0
 40
0
 40
0
 40
1
 40
1
 40
1
 40
1
 10
5.126173
 20
4.584387
 30
0.0
 10
5.140346
 20
4.584387
 30
0.0
 10
5.201291
 20
4.543369
 30
0.0
 10
5.258835
 20
4.493224
 30
0.0
  0
SPLINE
  5
137
100
AcDbEntity
  8
Layer_1
 62
7
100
AcDbSpline
 70
8
 71
3
 72
8
 73
4
 74
0
 40
0
 40
0
 40
0
 40
0
 40
1
 40
1
 40
1
 40
1
 10
5.258835
 20
4.493224
 30
0.0
 10
5.316378
 20
4.443079
 30
0.0
 10
5.366268
 20
4.402062
 30
0.0
 10
5.369669
 20
4.402062
 30
0.0
  0
SPLINE
  5
138
100
AcDbEntity
  8
Layer_1
 62
7
100
AcDbSpline
 70
8
 71
3
 72
8
 73
4
 74
0
 40
0
 40
0
 40
0
 40
0
 40
1
 40
1
 40
1
 40
1
 10
5.369669
 20
4.402062
 30
0.0
 10
5.372504
 20
4.402062
 30
0.0
 10
5.383843
 20
4.421338
 30
0.0
 10
5.392346
 20
4.444639
 30
0.0
  0
SPLINE
  5
139
100
AcDbEntity
  8
Layer_1
 62
7
100
AcDbSpline
 70
8
 71
3
 72
8
 73
4
 74
0
 40
0
 40
0
 40
0
 40
0
 40
1
 40
1
 40
1
 40
1
 10
5.392346
 20
4.444639
 30
0.0
 10
5.400850
 20
4.467883
 30
0.0
 10
5.424661
 20
4.498185
 30
0.0
 10
5.440819
 20
4.511536
 30
0.0
  0
SPLINE
  5
13a
100
AcDbEntity
  8
Layer_1
 62
7
100
AcDbSpline
 70
8
 71
3
 72
8
 73
4
 74
0
 40
0
 40
0
 40
0
 40
0
 40
1
 40
1
 40
1
 40
1
 10
5.440819
 20
4.511536
 30
0.0
 10
5.454992
 20
4.524859
 30
0.0
 10
5.479370
 20
4.550116
 30
0.0
 10
5.488724
 20
4.567549
 30
0.0
  0
SPLINE
  5
13b
100
AcDbEntity
  8
Layer_1
 62
7
100
AcDbSpline
 70
8
 71
3
 72
8
 73
4
 74
0
 40
0
 40
0
 40
0
 40
0
 40
1
 40
1
 40
1
 40
1
 10
5.488724
 20
4.567549
 30
0.0
 10
5.497228
 20
4.585124
 30
0.0
 10
5.511402
 20
4.595612
 30
0.0
 10
5.518205
 20
4.591643
 30
0.0
  0
SPLINE
  5
13c
100
AcDbEntity
  8
Layer_1
 62
7
100
AcDbSpline
 70
8
 71
3
 72
8
 73
4
 74
0
 40
0
 40
0
 40
0
 40
0
 40
1
 40
1
 40
1
 40
1
 10
5.518205
 20
4.591643
 30
0.0
 10
5.532378
 20
4.582572
 30
0.0
 10
5.574047
 20
4.655905
 30
0.0
 10
5.574047
 20
4.690714
 30
0.0
  0
SPLINE
  5
13d
100
AcDbEntity
  8
Layer_1
 62
7
100
AcDbSpline
 70
8
 71
3
 72
8
 73
4
 74
0
 40
0
 40
0
 40
0
 40
0
 40
1
 40
1
 40
1
 40
1
 10
5.574047
 20
4.690714
 30
0.0
 10
5.574047
 20
4.712541
 30
0.0
 10
5.723150
 20
4.863939
 30
0.0
 10
5.745827
 20
4.864818
 30
0.0
  0
SPLINE
  5
13e
100
AcDbEntity
  8
Layer_1
 62
7
100
AcDbSpline
 70
8
 71
3
 72
8
 73
4
 74
0
 40
0
 40
0
 40
0
 40
0
 40
1
 40
1
 40
1
 40
1
 10
5.745827
 20
4.864818
 30
0.0
 10
5.760000
 20
4.865399
 30
0.0
 10
5.757165
 20
4.842141
 30
0.0
 10
5.737323
 20
4.746415
 30
0.0
  0
SPLINE
  5
13f
100
AcDbEntity
  8
Layer_1
 62
7
100
AcDbSpline
 70
8
 71
3
 72
8
 73
4
 74
0
 40
0
 40
0
 40
0
 40
0
 40
1
 40
1
 40
1
 40
1
 10
5.737323
 20
4.746415
 30
0.0
 10
5.728819
 20
4.700324
 30
0.0
 10
5.723150
 20
4.657435
 30
0.0
 10
5.725984
 20
4.651142
 30
0.0
  0
SPLINE
  5
140
100
AcDbEntity
  8
Layer_1
 62
7
100
AcDbSpline
 70
8
 71
3
 72
8
 73
4
 74
0
 40
0
 40
0
 40
0
 40
0
 40
1
 40
1
 40
1
 40
1
 10
5.725984
 20
4.651142
 30
0.0
 10
5.728819
 20
4.644623
 30
0.0
 10
5.723150
 20
4.623363
 30
0.0
 10
5.711811
 20
4.603520
 30
0.0
  0
SPLINE
  5
141
100
AcDbEntity
  8
Layer_1
 62
7
100
AcDbSpline
 70
8
 71
3
 72
8
 73
4
 74
0
 40
0
 40
0
 40
0
 40
0
 40
1
 40
1
 40
1
 40
1
 10
5.711811
 20
4.603520
 30
0.0
 10
5.700472
 20
4.583678
 30
0.0
 10
5.686299
 20
4.551108
 30
0.0
 10
5.682331
 20
4.531209
 30
0.0
  0
SPLINE
  5
142
100
AcDbEntity
  8
Layer_1
 62
7
100
AcDbSpline
 70
8
 71
3
 72
8
 73
4
 74
0
 40
0
 40
0
 40
0
 40
0
 40
1
 40
1
 40
1
 40
1
 10
5.682331
 20
4.531209
 30
0.0
 10
5.680630
 20
4.511083
 30
0.0
 10
5.659654
 20
4.479391
 30
0.0
 10
5.638110
 20
4.460371
 30
0.0
  0
SPLINE
  5
143
100
AcDbEntity
  8
Layer_1
 62
7
100
AcDbSpline
 70
8
 71
3
 72
8
 73
4
 74
0
 40
0
 40
0
 40
0
 40
0
 40
1
 40
1
 40
1
 40
1
 10
5.638110
 20
4.460371
 30
0.0
 10
5.615433
 20
4.441095
 30
0.0
 10
5.597858
 20
4.415753
 30
0.0
 10
5.597858
 20
4.403593
 30
0.0
  0
SPLINE
  5
144
100
AcDbEntity
  8
Layer_1
 62
7
100
AcDbSpline
 70
8
 71
3
 72
8
 73
4
 74
0
 40
0
 40
0
 40
0
 40
0
 40
1
 40
1
 40
1
 40
1
 10
5.597858
 20
4.403593
 30
0.0
 10
5.597858
 20
4.388853
 30
0.0
 10
5.568378
 20
4.372525
 30
0.0
 10
5.513953
 20
4.354695
 30
0.0
  0
SPLINE
  5
145
100
AcDbEntity
  8
Layer_1
 62
7
100
AcDbSpline
 70
8
 71
3
 72
8
 73
4
 74
0
 40
0
 40
0
 40
0
 40
0
 40
1
 40
1
 40
1
 40
1
 10
5.513953
 20
4.354695
 30
0.0
 10
5.467748
 20
4.339955
 30
0.0
 10
5.427780
 20
4.326292
 30
0.0
 10
5.425228
 20
4.324279
 30
0.0
  0
SPLINE
  5
146
100
AcDbEntity
  8
Layer_1
 62
7
100
AcDbSpline
 70
8
 71
3
 72
8
 73
4
 74
0
 40
0
 40
0
 40
0
 40
0
 40
1
 40
1
 40
1
 40
1
 10
5.425228
 20
4.324279
 30
0.0
 10
5.422394
 20
4.322267
 30
0.0
 10
5.430898
 20
4.305854
 30
0.0
 10
5.439402
 20
4.287883
 30
0.0
  0
SPLINE
  5
147
100
AcDbEntity
  8
Layer_1
 62
7
100
AcDbSpline
 70
8
 71
3
 72
8
 73
4
 74
0
 40
0
 40
0
 40
0
 40
0
 40
1
 40
1
 40
1
 40
1
 10
5.439402
 20
4.287883
 30
0.0
 10
5.464913
 20
4.246922
 30
0.0
 10
5.493260
 20
4.116103
 30
0.0
 10
5.482205
 20
4.087275
 30
0.0
  0
SPLINE
  5
148
100
AcDbEntity
  8
Layer_1
 62
7
100
AcDbSpline
 70
8
 71
3
 72
8
 73
4
 74
0
 40
0
 40
0
 40
0
 40
0
 40
1
 40
1
 40
1
 40
1
 10
5.482205
 20
4.087275
 30
0.0
 10
5.470866
 20
4.051587
 30
0.0
 10
5.487874
 20
4.062613
 30
0.0
 10
5.539748
 20
4.119306
 30
0.0
  0
SPLINE
  5
149
100
AcDbEntity
  8
Layer_1
 62
7
100
AcDbSpline
 70
8
 71
3
 72
8
 73
4
 74
0
 40
0
 40
0
 40
0
 40
0
 40
1
 40
1
 40
1
 40
1
 10
5.539748
 20
4.119306
 30
0.0
 10
5.565260
 20
4.148900
 30
0.0
 10
5.642646
 20
4.203410
 30
0.0
 10
5.708693
 20
4.240601
 30
0.0
  0
SPLINE
  5
14a
100
AcDbEntity
  8
Layer_1
 62
7
100
AcDbSpline
 70
8
 71
3
 72
8
 73
4
 74
0
 40
0
 40
0
 40
0
 40
0
 40
1
 40
1
 40
1
 40
1
 10
5.708693
 20
4.240601
 30
0.0
 10
5.862898
 20
4.327114
 30
0.0
 10
5.917039
 20
4.389108
 30
0.0
 10
5.939433
 20
4.504421
 30
0.0
  0
SPLINE
  5
14b
100
AcDbEntity
  8
Layer_1
 62
7
100
AcDbSpline
 70
8
 71
3
 72
8
 73
4
 74
0
 40
0
 40
0
 40
0
 40
0
 40
1
 40
1
 40
1
 40
1
 10
5.939433
 20
4.504421
 30
0.0
 10
5.986772
 20
4.748172
 30
0.0
 10
6.047433
 20
4.893139
 30
0.0
 10
6.102992
 20
4.893139
 30
0.0
  0
SPLINE
  5
14c
100
AcDbEntity
  8
Layer_1
 62
7
100
AcDbSpline
 70
8
 71
3
 72
8
 73
4
 74
0
 40
0
 40
0
 40
0
 40
0
 40
1
 40
1
 40
1
 40
1
 10
6.102992
 20
4.893139
 30
0.0
 10
6.135307
 20
4.893139
 30
0.0
 10
6.136724
 20
4.868761
 30
0.0
 10
6.108661
 20
4.778818
 30
0.0
  0
SPLINE
  5
14d
100
AcDbEntity
  8
Layer_1
 62
7
100
AcDbSpline
 70
8
 71
3
 72
8
 73
4
 74
0
 40
0
 40
0
 40
0
 40
0
 40
1
 40
1
 40
1
 40
1
 10
6.108661
 20
4.778818
 30
0.0
 10
6.094488
 20
4.729863
 30
0.0
 10
6.065858
 20
4.620361
 30
0.0
 10
6.046583
 20
4.535492
 30
0.0
  0
SPLINE
  5
14e
100
AcDbEntity
  8
Layer_1
 62
7
100
AcDbSpline
 70
8
 71
3
 72
8
 73
4
 74
0
 40
0
 40
0
 40
0
 40
0
 40
1
 40
1
 40
1
 40
1
 10
6.046583
 20
4.535492
 30
0.0
 10
6.026740
 20
4.450651
 30
0.0
 10
6.005480
 20
4.364534
 30
0.0
 10
5.997827
 20
4.344182
 30
0.0
  0
SPLINE
  5
14f
100
AcDbEntity
  8
Layer_1
 62
7
100
AcDbSpline
 70
8
 71
3
 72
8
 73
4
 74
0
 40
0
 40
0
 40
0
 40
0
 40
1
 40
1
 40
1
 40
1
 10
5.997827
 20
4.344182
 30
0.0
 10
5.975150
 20
4.288197
 30
0.0
 10
5.901449
 20
4.208997
 30
0.0
 10
5.820094
 20
4.157293
 30
0.0
  0
SPLINE
  5
150
100
AcDbEntity
  8
Layer_1
 62
7
100
AcDbSpline
 70
8
 71
3
 72
8
 73
4
 74
0
 40
0
 40
0
 40
0
 40
0
 40
1
 40
1
 40
1
 40
1
 10
5.820094
 20
4.157293
 30
0.0
 10
5.775024
 20
4.128607
 30
0.0
 10
5.733638
 20
4.086796
 30
0.0
 10
5.710110
 20
4.046856
 30
0.0
  0
SPLINE
  5
151
100
AcDbEntity
  8
Layer_1
 62
7
100
AcDbSpline
 70
8
 71
3
 72
8
 73
4
 74
0
 40
0
 40
0
 40
0
 40
0
 40
1
 40
1
 40
1
 40
1
 10
5.710110
 20
4.046856
 30
0.0
 10
5.690268
 20
4.011564
 30
0.0
 10
5.659654
 20
3.973637
 30
0.0
 10
5.643780
 20
3.962582
 30
0.0
  0
SPLINE
  5
152
100
AcDbEntity
  8
Layer_1
 62
7
100
AcDbSpline
 70
8
 71
3
 72
8
 73
4
 74
0
 40
0
 40
0
 40
0
 40
0
 40
1
 40
1
 40
1
 40
1
 10
5.643780
 20
3.962582
 30
0.0
 10
5.614299
 20
3.942739
 30
0.0
 10
5.614299
 20
3.941322
 30
0.0
 10
5.673260
 20
3.867281
 30
0.0
  0
SPLINE
  5
153
100
AcDbEntity
  8
Layer_1
 62
7
100
AcDbSpline
 70
8
 71
3
 72
8
 73
4
 74
0
 40
0
 40
0
 40
0
 40
0
 40
1
 40
1
 40
1
 40
1
 10
5.673260
 20
3.867281
 30
0.0
 10
5.705575
 20
3.825952
 30
0.0
 10
5.740157
 20
3.762541
 30
0.0
 10
5.752346
 20
3.726370
 30
0.0
  0
SPLINE
  5
154
100
AcDbEntity
  8
Layer_1
 62
7
100
AcDbSpline
 70
8
 71
3
 72
8
 73
4
 74
0
 40
0
 40
0
 40
0
 40
0
 40
1
 40
1
 40
1
 40
1
 10
5.752346
 20
3.726370
 30
0.0
 10
5.772189
 20
3.663696
 30
0.0
 10
5.775024
 20
3.661741
 30
0.0
 10
5.798551
 20
3.685155
 30
0.0
  0
SPLINE
  5
155
100
AcDbEntity
  8
Layer_1
 62
7
100
AcDbSpline
 70
8
 71
3
 72
8
 73
4
 74
0
 40
0
 40
0
 40
0
 40
0
 40
1
 40
1
 40
1
 40
1
 10
5.798551
 20
3.685155
 30
0.0
 10
5.821228
 20
3.706982
 30
0.0
 10
6.032976
 20
3.850868
 30
0.0
 10
6.165014
 20
3.933073
 30
0.0
  0
SPLINE
  5
156
100
AcDbEntity
  8
Layer_1
 62
7
100
AcDbSpline
 70
8
 71
3
 72
8
 73
4
 74
0
 40
0
 40
0
 40
0
 40
0
 40
1
 40
1
 40
1
 40
1
 10
6.165014
 20
3.933073
 30
0.0
 10
6.255156
 20
3.989256
 30
0.0
 10
6.675364
 20
4.206078
 30
0.0
 10
6.868488
 20
4.296129
 30
0.0
  0
SPLINE
  5
157
100
AcDbEntity
  8
Layer_1
 62
7
100
AcDbSpline
 70
8
 71
3
 72
8
 73
4
 74
0
 40
0
 40
0
 40
0
 40
0
 40
1
 40
1
 40
1
 40
1
 10
6.868488
 20
4.296129
 30
0.0
 10
6.897969
 20
4.309168
 30
0.0
 10
7.064079
 20
4.369518
 30
0.0
 10
7.240195
 20
4.430037
 30
0.0
  0
SPLINE
  5
158
100
AcDbEntity
  8
Layer_1
 62
7
100
AcDbSpline
 70
8
 71
3
 72
8
 73
4
 74
0
 40
0
 40
0
 40
0
 40
0
 40
1
 40
1
 40
1
 40
1
 10
7.240195
 20
4.430037
 30
0.0
 10
7.416510
 20
4.490557
 30
0.0
 10
7.696346
 20
4.588437
 30
0.0
 10
7.862202
 20
4.647596
 30
0.0
  0
SPLINE
  5
159
100
AcDbEntity
  8
Layer_1
 62
7
100
AcDbSpline
 70
8
 71
3
 72
8
 73
4
 74
0
 40
0
 40
0
 40
0
 40
0
 40
1
 40
1
 40
1
 40
1
 10
7.862202
 20
4.647596
 30
0.0
 10
8.028028
 20
4.706755
 30
0.0
 10
8.233228
 20
4.773965
 30
0.0
 10
8.318098
 20
4.796982
 30
0.0
  0
SPLINE
  5
15a
100
AcDbEntity
  8
Layer_1
 62
7
100
AcDbSpline
 70
8
 71
3
 72
8
 73
4
 74
0
 40
0
 40
0
 40
0
 40
0
 40
1
 40
1
 40
1
 40
1
 10
8.318098
 20
4.796982
 30
0.0
 10
8.912891
 20
4.958359
 30
0.0
 10
9.102813
 20
4.992743
 30
0.0
 10
9.447165
 20
5.001644
 30
0.0
  0
SPLINE
  5
15b
100
AcDbEntity
  8
Layer_1
 62
7
100
AcDbSpline
 70
8
 71
3
 72
8
 73
4
 74
0
 40
0
 40
0
 40
0
 40
0
 40
1
 40
1
 40
1
 40
1
 10
9.447165
 20
5.001644
 30
0.0
 10
9.683575
 20
5.007880
 30
0.0
 10
9.700016
 20
5.006462
 30
0.0
 10
9.882000
 20
4.964453
 30
0.0
  0
SPLINE
  5
15c
100
AcDbEntity
  8
Layer_1
 62
7
100
AcDbSpline
 70
8
 71
3
 72
8
 73
4
 74
0
 40
0
 40
0
 40
0
 40
0
 40
1
 40
1
 40
1
 40
1
 10
9.882000
 20
4.964453
 30
0.0
 10
10.090063
 20
4.916633
 30
0.0
 10
10.242454
 20
4.851294
 30
0.0
 10
10.309805
 20
4.780966
 30
0.0
  0
SPLINE
  5
15d
100
AcDbEntity
  8
Layer_1
 62
7
100
AcDbSpline
 70
8
 71
3
 72
8
 73
4
 74
0
 40
0
 40
0
 40
0
 40
0
 40
1
 40
1
 40
1
 40
1
 10
10.309805
 20
4.780966
 30
0.0
 10
10.348072
 20
4.741055
 30
0.0
 10
10.351757
 20
4.728355
 30
0.0
 10
10.351757
 20
4.642777
 30
0.0
  0
SPLINE
  5
15e
100
AcDbEntity
  8
Layer_1
 62
7
100
AcDbSpline
 70
8
 71
3
 72
8
 73
4
 74
0
 40
0
 40
0
 40
0
 40
0
 40
1
 40
1
 40
1
 40
1
 10
10.351757
 20
4.642777
 30
0.0
 10
10.351757
 20
4.557851
 30
0.0
 10
10.346088
 20
4.533984
 30
0.0
 10
10.279757
 20
4.401747
 30
0.0
  0
SPLINE
  5
15f
100
AcDbEntity
  8
Layer_1
 62
7
100
AcDbSpline
 70
8
 71
3
 72
8
 73
4
 74
0
 40
0
 40
0
 40
0
 40
0
 40
1
 40
1
 40
1
 40
1
 10
10.279757
 20
4.401747
 30
0.0
 10
10.196135
 20
4.230478
 30
0.0
 10
10.092671
 20
4.082524
 30
0.0
 10
9.916072
 20
3.880850
 30
0.0
  0
SPLINE
  5
160
100
AcDbEntity
  8
Layer_1
 62
7
100
AcDbSpline
 70
8
 71
3
 72
8
 73
4
 74
0
 40
0
 40
0
 40
0
 40
0
 40
1
 40
1
 40
1
 40
1
 10
9.916072
 20
3.880850
 30
0.0
 10
9.846340
 20
3.801168
 30
0.0
 10
9.750246
 20
3.687641
 30
0.0
 10
9.702340
 20
3.628538
 30
0.0
  0
SPLINE
  5
161
100
AcDbEntity
  8
Layer_1
 62
7
100
AcDbSpline
 70
8
 71
3
 72
8
 73
4
 74
0
 40
0
 40
0
 40
0
 40
0
 40
1
 40
1
 40
1
 40
1
 10
9.702340
 20
3.628538
 30
0.0
 10
9.654435
 20
3.569436
 30
0.0
 10
9.550687
 20
3.455852
 30
0.0
 10
9.471317
 20
3.376085
 30
0.0
  0
SPLINE
  5
162
100
AcDbEntity
  8
Layer_1
 62
7
100
AcDbSpline
 70
8
 71
3
 72
8
 73
4
 74
0
 40
0
 40
0
 40
0
 40
0
 40
1
 40
1
 40
1
 40
1
 10
9.471317
 20
3.376085
 30
0.0
 10
9.338655
 20
3.242460
 30
0.0
 10
9.316545
 20
3.226302
 30
0.0
 10
9.191254
 20
3.170431
 30
0.0
  0
SPLINE
  5
163
100
AcDbEntity
  8
Layer_1
 62
7
100
AcDbSpline
 70
8
 71
3
 72
8
 73
4
 74
0
 40
0
 40
0
 40
0
 40
0
 40
1
 40
1
 40
1
 40
1
 10
9.191254
 20
3.170431
 30
0.0
 10
9.116135
 20
3.137067
 30
0.0
 10
8.996230
 20
3.097553
 30
0.0
 10
8.925080
 20
3.082614
 30
0.0
  0
SPLINE
  5
164
100
AcDbEntity
  8
Layer_1
 62
7
100
AcDbSpline
 70
8
 71
3
 72
8
 73
4
 74
0
 40
0
 40
0
 40
0
 40
0
 40
1
 40
1
 40
1
 40
1
 10
8.925080
 20
3.082614
 30
0.0
 10
8.786466
 20
3.053616
 30
0.0
 10
8.337940
 20
3.013987
 30
0.0
 10
8.146346
 20
3.013817
 30
0.0
  0
SPLINE
  5
165
100
AcDbEntity
  8
Layer_1
 62
7
100
AcDbSpline
 70
8
 71
3
 72
8
 73
4
 74
0
 40
0
 40
0
 40
0
 40
0
 40
1
 40
1
 40
1
 40
1
 10
8.146346
 20
3.013817
 30
0.0
 10
8.082850
 20
3.013758
 30
0.0
 10
8.031260
 20
3.008998
 30
0.0
 10
8.031827
 20
3.003045
 30
0.0
  0
SPLINE
  5
166
100
AcDbEntity
  8
Layer_1
 62
7
100
AcDbSpline
 70
8
 71
3
 72
8
 73
4
 74
0
 40
0
 40
0
 40
0
 40
0
 40
1
 40
1
 40
1
 40
1
 10
8.031827
 20
3.003045
 30
0.0
 10
8.032365
 20
2.997093
 30
0.0
 10
8.087669
 20
2.965571
 30
0.0
 10
8.154567
 20
2.932661
 30
0.0
  0
SPLINE
  5
167
100
AcDbEntity
  8
Layer_1
 62
7
100
AcDbSpline
 70
8
 71
3
 72
8
 73
4
 74
0
 40
0
 40
0
 40
0
 40
0
 40
1
 40
1
 40
1
 40
1
 10
8.154567
 20
2.932661
 30
0.0
 10
8.403449
 20
2.810205
 30
0.0
 10
8.794346
 20
2.470832
 30
0.0
 10
8.828646
 20
2.347270
 30
0.0
  0
SPLINE
  5
168
100
AcDbEntity
  8
Layer_1
 62
7
100
AcDbSpline
 70
8
 71
3
 72
8
 73
4
 74
0
 40
0
 40
0
 40
0
 40
0
 40
1
 40
1
 40
1
 40
1
 10
8.828646
 20
2.347270
 30
0.0
 10
8.854157
 20
2.259113
 30
0.0
 10
8.848488
 20
2.203185
 30
0.0
 10
8.805969
 20
2.132432
 30
0.0
  0
SPLINE
  5
169
100
AcDbEntity
  8
Layer_1
 62
7
100
AcDbSpline
 70
8
 71
3
 72
8
 73
4
 74
0
 40
0
 40
0
 40
0
 40
0
 40
1
 40
1
 40
1
 40
1
 10
8.805969
 20
2.132432
 30
0.0
 10
8.786126
 20
2.096347
 30
0.0
 10
8.764583
 20
2.063664
 30
0.0
 10
8.760047
 20
2.059809
 30
0.0
  0
SPLINE
  5
16a
100
AcDbEntity
  8
Layer_1
 62
7
100
AcDbSpline
 70
8
 71
3
 72
8
 73
4
 74
0
 40
0
 40
0
 40
0
 40
0
 40
1
 40
1
 40
1
 40
1
 10
8.760047
 20
2.059809
 30
0.0
 10
8.754378
 20
2.055840
 30
0.0
 10
8.740205
 20
2.034297
 30
0.0
 10
8.725748
 20
2.011648
 30
0.0
  0
SPLINE
  5
16b
100
AcDbEntity
  8
Layer_1
 62
7
100
AcDbSpline
 70
8
 71
3
 72
8
 73
4
 74
0
 40
0
 40
0
 40
0
 40
0
 40
1
 40
1
 40
1
 40
1
 10
8.725748
 20
2.011648
 30
0.0
 10
8.685496
 20
1.948634
 30
0.0
 10
8.467512
 20
1.726871
 30
0.0
 10
8.380942
 20
1.660985
 30
0.0
  0
SPLINE
  5
16c
100
AcDbEntity
  8
Layer_1
 62
7
100
AcDbSpline
 70
8
 71
3
 72
8
 73
4
 74
0
 40
0
 40
0
 40
0
 40
0
 40
1
 40
1
 40
1
 40
1
 10
8.380942
 20
1.660985
 30
0.0
 10
8.211997
 20
1.532406
 30
0.0
 10
8.020828
 20
1.440790
 30
0.0
 10
7.868976
 20
1.415618
 30
0.0
  0
SPLINE
  5
16d
100
AcDbEntity
  8
Layer_1
 62
7
100
AcDbSpline
 70
8
 71
3
 72
8
 73
4
 74
0
 40
0
 40
0
 40
0
 40
0
 40
1
 40
1
 40
1
 40
1
 10
7.868976
 20
1.415618
 30
0.0
 10
7.553140
 20
1.363206
 30
0.0
 10
7.276422
 20
1.341181
 30
0.0
 10
7.027398
 20
1.348579
 30
0.0
  0
SPLINE
  5
16e
100
AcDbEntity
  8
Layer_1
 62
7
100
AcDbSpline
 70
8
 71
3
 72
8
 73
4
 74
0
 40
0
 40
0
 40
0
 40
0
 40
1
 40
1
 40
1
 40
1
 10
7.027398
 20
1.348579
 30
0.0
 10
6.781635
 20
1.355949
 30
0.0
 10
6.682054
 20
1.383559
 30
0.0
 10
6.502734
 20
1.494223
 30
0.0
  0
SPLINE
  5
16f
100
AcDbEntity
  8
Layer_1
 62
7
100
AcDbSpline
 70
8
 71
3
 72
8
 73
4
 74
0
 40
0
 40
0
 40
0
 40
0
 40
1
 40
1
 40
1
 40
1
 10
6.502734
 20
1.494223
 30
0.0
 10
6.376876
 20
1.571637
 30
0.0
 10
6.160819
 20
1.785477
 30
0.0
 10
6.046894
 20
1.944458
 30
0.0
  0
SPLINE
  5
170
100
AcDbEntity
  8
Layer_1
 62
7
100
AcDbSpline
 70
8
 71
3
 72
8
 73
4
 74
0
 40
0
 40
0
 40
0
 40
0
 40
1
 40
1
 40
1
 40
1
 10
6.046894
 20
1.944458
 30
0.0
 10
6.004375
 20
2.004071
 30
0.0
 10
5.951650
 20
2.072896
 30
0.0
 10
5.930107
 20
2.097416
 30
0.0
  0
LWPOLYLINE
  5
171
100
AcDbEntity
  8
Layer_1
 62
7
100
AcDbPolyline
 90
3
 70
0
 10
4.844409
 20
4.467146
 30
0.0
 10
4.850079
 20
4.402516
 30
0.0
 10
4.929165
 20
4.474572
 30
0.0
  0
SPLINE
  5
172
100
AcDbEntity
  8
Layer_1
 62
7
100
AcDbSpline
 70
8
 71
3
 72
8
 73
4
 74
0
 40
0
 40
0
 40
0
 40
0
 40
1
 40
1
 40
1
 40
1
 10
5.891216
 20
1.774833
 30
0.0
 10
5.891386
 20
1.421171
 30
0.0
 10
5.889969
 20
1.401394
 30
0.0
 10
5.852098
 20
1.239292
 30
0.0
  0
SPLINE
  5
173
100
AcDbEntity
  8
Layer_1
 62
7
100
AcDbSpline
 70
8
 71
3
 72
8
 73
4
 74
0
 40
0
 40
0
 40
0
 40
0
 40
1
 40
1
 40
1
 40
1
 10
5.852098
 20
1.239292
 30
0.0
 10
5.793137
 20
0.987972
 30
0.0
 10
5.724539
 20
0.801481
 30
0.0
 10
5.599531
 20
0.552004
 30
0.0
  0
SPLINE
  5
174
100
AcDbEntity
  8
Layer_1
 62
7
100
AcDbSpline
 70
8
 71
3
 72
8
 73
4
 74
0
 40
0
 40
0
 40
0
 40
0
 40
1
 40
1
 40
1
 40
1
 10
5.599531
 20
0.552004
 30
0.0
 10
5.419247
 20
0.192503
 30
0.0
 10
5.313798
 20
0.054875
 30
0.0
 10
5.191569
 20
0.018580
 30
0.0
  0
SPLINE
  5
175
100
AcDbEntity
  8
Layer_1
 62
7
100
AcDbSpline
 70
8
 71
3
 72
8
 73
4
 74
0
 40
0
 40
0
 40
0
 40
0
 40
1
 40
1
 40
1
 40
1
 10
5.191569
 20
0.018580
 30
0.0
 10
5.153301
 20
0.007242
 30
0.0
 10
5.118435
 20
-0.001262
 30
0.0
 10
5.114466
 20
0.000155
 30
0.0
  0
SPLINE
  5
176
100
AcDbEntity
  8
Layer_1
 62
7
100
AcDbSpline
 70
8
 71
3
 72
8
 73
4
 74
0
 40
0
 40
0
 40
0
 40
0
 40
1
 40
1
 40
1
 40
1
 10
5.114466
 20
0.000155
 30
0.0
 10
5.108797
 20
0.001309
 30
0.0
 10
5.091789
 20
0.004690
 30
0.0
 10
5.071663
 20
0.007809
 30
0.0
  0
LWPOLYLINE
  5
177
100
AcDbEntity
  8
Layer_1
 62
7
100
AcDbPolyline
 90
3
 70
0
 10
5.930107
 20
2.097416
 30
0.0
 10
5.890989
 20
2.142062
 30
0.0
 10
5.891216
 20
1.774833
 30
0.0
  0
SPLINE
  5
178
100
AcDbEntity
  8
Layer_1
 62
7
100
AcDbSpline
 70
8
 71
3
 72
8
 73
4
 74
0
 40
0
 40
0
 40
0
 40
0
 40
1
 40
1
 40
1
 40
1
 10
5.220879
 20
0.077887
 30
0.0
 10
5.308186
 20
0.126076
 30
0.0
 10
5.438013
 20
0.320192
 30
0.0
 10
5.579263
 20
0.614151
 30
0.0
  0
SPLINE
  5
179
100
AcDbEntity
  8
Layer_1
 62
7
100
AcDbSpline
 70
8
 71
3
 72
8
 73
4
 74
0
 40
0
 40
0
 40
0
 40
0
 40
1
 40
1
 40
1
 40
1
 10
5.579263
 20
0.614151
 30
0.0
 10
5.804334
 20
1.083208
 30
0.0
 10
5.864428
 20
1.344055
 30
0.0
 10
5.849688
 20
1.792604
 30
0.0
  0
SPLINE
  5
17a
100
AcDbEntity
  8
Layer_1
 62
7
100
AcDbSpline
 70
8
 71
3
 72
8
 73
4
 74
0
 40
0
 40
0
 40
0
 40
0
 40
1
 40
1
 40
1
 40
1
 10
5.849688
 20
1.792604
 30
0.0
 10
5.838350
 20
2.200245
 30
0.0
 10
5.802633
 20
2.448594
 30
0.0
 10
5.736869
 20
2.634921
 30
0.0
  0
LWPOLYLINE
  5
17b
100
AcDbEntity
  8
Layer_1
 62
7
100
AcDbPolyline
 90
2
 70
0
 10
5.071663
 20
0.007809
 30
0.0
 10
5.070643
 20
0.007021
 30
0.0
  0
SPLINE
  5
17c
100
AcDbEntity
  8
Layer_1
 62
7
100
AcDbSpline
 70
8
 71
3
 72
8
 73
4
 74
0
 40
0
 40
0
 40
0
 40
0
 40
1
 40
1
 40
1
 40
1
 10
5.734035
 20
2.740143
 30
0.0
 10
5.753877
 20
2.749214
 30
0.0
 10
5.763515
 20
2.763387
 30
0.0
 10
5.759546
 20
2.785101
 30
0.0
  0
SPLINE
  5
17d
100
AcDbEntity
  8
Layer_1
 62
7
100
AcDbSpline
 70
8
 71
3
 72
8
 73
4
 74
0
 40
0
 40
0
 40
0
 40
0
 40
1
 40
1
 40
1
 40
1
 10
5.759546
 20
2.785101
 30
0.0
 10
5.756712
 20
2.803526
 30
0.0
 10
5.765216
 20
2.820165
 30
0.0
 10
5.773720
 20
2.824843
 30
0.0
  0
SPLINE
  5
17e
100
AcDbEntity
  8
Layer_1
 62
7
100
AcDbSpline
 70
8
 71
3
 72
8
 73
4
 74
0
 40
0
 40
0
 40
0
 40
0
 40
1
 40
1
 40
1
 40
1
 10
5.773720
 20
2.824843
 30
0.0
 10
5.785058
 20
2.829095
 30
0.0
 10
5.787893
 20
2.841284
 30
0.0
 10
5.785058
 20
2.851772
 30
0.0
  0
SPLINE
  5
17f
100
AcDbEntity
  8
Layer_1
 62
7
100
AcDbSpline
 70
8
 71
3
 72
8
 73
4
 74
0
 40
0
 40
0
 40
0
 40
0
 40
1
 40
1
 40
1
 40
1
 10
5.785058
 20
2.851772
 30
0.0
 10
5.782224
 20
2.862827
 30
0.0
 10
5.793562
 20
2.878984
 30
0.0
 10
5.817373
 20
2.890635
 30
0.0
  0
SPLINE
  5
180
100
AcDbEntity
  8
Layer_1
 62
7
100
AcDbSpline
 70
8
 71
3
 72
8
 73
4
 74
0
 40
0
 40
0
 40
0
 40
0
 40
1
 40
1
 40
1
 40
1
 10
5.817373
 20
2.890635
 30
0.0
 10
5.842885
 20
2.903391
 30
0.0
 10
5.849688
 20
2.914162
 30
0.0
 10
5.840050
 20
2.920427
 30
0.0
  0
SPLINE
  5
181
100
AcDbEntity
  8
Layer_1
 62
7
100
AcDbSpline
 70
8
 71
3
 72
8
 73
4
 74
0
 40
0
 40
0
 40
0
 40
0
 40
1
 40
1
 40
1
 40
1
 10
5.840050
 20
2.920427
 30
0.0
 10
5.806885
 20
2.940836
 30
0.0
 10
5.828712
 20
2.956795
 30
0.0
 10
5.883987
 20
2.957164
 30
0.0
  0
SPLINE
  5
182
100
AcDbEntity
  8
Layer_1
 62
7
100
AcDbSpline
 70
8
 71
3
 72
8
 73
4
 74
0
 40
0
 40
0
 40
0
 40
0
 40
1
 40
1
 40
1
 40
1
 10
5.883987
 20
2.957164
 30
0.0
 10
5.931326
 20
2.957513
 30
0.0
 10
5.938413
 20
2.960282
 30
0.0
 10
5.918854
 20
2.971904
 30
0.0
  0
SPLINE
  5
183
100
AcDbEntity
  8
Layer_1
 62
7
100
AcDbSpline
 70
8
 71
3
 72
8
 73
4
 74
0
 40
0
 40
0
 40
0
 40
0
 40
1
 40
1
 40
1
 40
1
 10
5.918854
 20
2.971904
 30
0.0
 10
5.875483
 20
2.997132
 30
0.0
 10
5.893342
 20
3.013602
 30
0.0
 10
5.951169
 20
3.004276
 30
0.0
  0
SPLINE
  5
184
100
AcDbEntity
  8
Layer_1
 62
7
100
AcDbSpline
 70
8
 71
3
 72
8
 73
4
 74
0
 40
0
 40
0
 40
0
 40
0
 40
1
 40
1
 40
1
 40
1
 10
5.951169
 20
3.004276
 30
0.0
 10
5.983483
 20
2.999457
 30
0.0
 10
6.007294
 20
2.998890
 30
0.0
 10
6.007294
 20
3.003930
 30
0.0
  0
SPLINE
  5
185
100
AcDbEntity
  8
Layer_1
 62
7
100
AcDbSpline
 70
8
 71
3
 72
8
 73
4
 74
0
 40
0
 40
0
 40
0
 40
0
 40
1
 40
1
 40
1
 40
1
 10
6.007294
 20
3.003930
 30
0.0
 10
6.007294
 20
3.008749
 30
0.0
 10
5.981783
 20
3.029442
 30
0.0
 10
5.948050
 20
3.049993
 30
0.0
  0
SPLINE
  5
186
100
AcDbEntity
  8
Layer_1
 62
7
100
AcDbSpline
 70
8
 71
3
 72
8
 73
4
 74
0
 40
0
 40
0
 40
0
 40
0
 40
1
 40
1
 40
1
 40
1
 10
5.948050
 20
3.049993
 30
0.0
 10
5.900428
 20
3.080068
 30
0.0
 10
5.893625
 20
3.089139
 30
0.0
 10
5.913184
 20
3.095999
 30
0.0
  0
SPLINE
  5
187
100
AcDbEntity
  8
Layer_1
 62
7
100
AcDbSpline
 70
8
 71
3
 72
8
 73
4
 74
0
 40
0
 40
0
 40
0
 40
0
 40
1
 40
1
 40
1
 40
1
 10
5.913184
 20
3.095999
 30
0.0
 10
5.935861
 20
3.103653
 30
0.0
 10
5.935861
 20
3.107054
 30
0.0
 10
5.907515
 20
3.131347
 30
0.0
  0
SPLINE
  5
188
100
AcDbEntity
  8
Layer_1
 62
7
100
AcDbSpline
 70
8
 71
3
 72
8
 73
4
 74
0
 40
0
 40
0
 40
0
 40
0
 40
1
 40
1
 40
1
 40
1
 10
5.907515
 20
3.131347
 30
0.0
 10
5.868680
 20
3.164711
 30
0.0
 10
5.887672
 20
3.172279
 30
0.0
 10
5.967893
 20
3.154308
 30
0.0
  0
SPLINE
  5
189
100
AcDbEntity
  8
Layer_1
 62
7
100
AcDbSpline
 70
8
 71
3
 72
8
 73
4
 74
0
 40
0
 40
0
 40
0
 40
0
 40
1
 40
1
 40
1
 40
1
 10
5.967893
 20
3.154308
 30
0.0
 10
6.041877
 20
3.137867
 30
0.0
 10
6.053216
 20
3.143536
 30
0.0
 10
6.000208
 20
3.171883
 30
0.0
  0
SPLINE
  5
18a
100
AcDbEntity
  8
Layer_1
 62
7
100
AcDbSpline
 70
8
 71
3
 72
8
 73
4
 74
0
 40
0
 40
0
 40
0
 40
0
 40
1
 40
1
 40
1
 40
1
 10
6.000208
 20
3.171883
 30
0.0
 10
5.951169
 20
3.197961
 30
0.0
 10
5.897310
 20
3.247341
 30
0.0
 10
5.897310
 20
3.267070
 30
0.0
  0
SPLINE
  5
18b
100
AcDbEntity
  8
Layer_1
 62
7
100
AcDbSpline
 70
8
 71
3
 72
8
 73
4
 74
0
 40
0
 40
0
 40
0
 40
0
 40
1
 40
1
 40
1
 40
1
 10
5.897310
 20
3.267070
 30
0.0
 10
5.897310
 20
3.276424
 30
0.0
 10
5.919987
 20
3.278409
 30
0.0
 10
5.956838
 20
3.273023
 30
0.0
  0
LWPOLYLINE
  5
18c
100
AcDbEntity
  8
Layer_1
 62
7
100
AcDbPolyline
 90
3
 70
0
 10
5.736869
 20
2.634921
 30
0.0
 10
5.704554
 20
2.726821
 30
0.0
 10
5.734035
 20
2.740143
 30
0.0
  0
SPLINE
  5
18d
100
AcDbEntity
  8
Layer_1
 62
7
100
AcDbSpline
 70
8
 71
3
 72
8
 73
4
 74
0
 40
0
 40
0
 40
0
 40
0
 40
1
 40
1
 40
1
 40
1
 10
5.976680
 20
3.300462
 30
0.0
 10
5.944365
 20
3.328865
 30
0.0
 10
5.940113
 20
3.340799
 30
0.0
 10
5.954003
 20
3.356191
 30
0.0
  0
SPLINE
  5
18e
100
AcDbEntity
  8
Layer_1
 62
7
100
AcDbSpline
 70
8
 71
3
 72
8
 73
4
 74
0
 40
0
 40
0
 40
0
 40
0
 40
1
 40
1
 40
1
 40
1
 10
5.954003
 20
3.356191
 30
0.0
 10
5.965342
 20
3.371782
 30
0.0
 10
5.962507
 20
3.376601
 30
0.0
 10
5.939830
 20
3.380286
 30
0.0
  0
SPLINE
  5
18f
100
AcDbEntity
  8
Layer_1
 62
7
100
AcDbSpline
 70
8
 71
3
 72
8
 73
4
 74
0
 40
0
 40
0
 40
0
 40
0
 40
1
 40
1
 40
1
 40
1
 10
5.939830
 20
3.380286
 30
0.0
 10
5.917153
 20
3.383404
 30
0.0
 10
5.907515
 20
3.393892
 30
0.0
 10
5.907515
 20
3.415605
 30
0.0
  0
SPLINE
  5
190
100
AcDbEntity
  8
Layer_1
 62
7
100
AcDbSpline
 70
8
 71
3
 72
8
 73
4
 74
0
 40
0
 40
0
 40
0
 40
0
 40
1
 40
1
 40
1
 40
1
 10
5.907515
 20
3.415605
 30
0.0
 10
5.908394
 20
3.441968
 30
0.0
 10
5.901846
 20
3.445199
 30
0.0
 10
5.868964
 20
3.438283
 30
0.0
  0
SPLINE
  5
191
100
AcDbEntity
  8
Layer_1
 62
7
100
AcDbSpline
 70
8
 71
3
 72
8
 73
4
 74
0
 40
0
 40
0
 40
0
 40
0
 40
1
 40
1
 40
1
 40
1
 10
5.868964
 20
3.438283
 30
0.0
 10
5.846287
 20
3.433747
 30
0.0
 10
5.829562
 20
3.436437
 30
0.0
 10
5.829562
 20
3.444802
 30
0.0
  0
SPLINE
  5
192
100
AcDbEntity
  8
Layer_1
 62
7
100
AcDbSpline
 70
8
 71
3
 72
8
 73
4
 74
0
 40
0
 40
0
 40
0
 40
0
 40
1
 40
1
 40
1
 40
1
 10
5.829562
 20
3.444802
 30
0.0
 10
5.829562
 20
3.452456
 30
0.0
 10
5.852239
 20
3.462944
 30
0.0
 10
5.877184
 20
3.468046
 30
0.0
  0
SPLINE
  5
193
100
AcDbEntity
  8
Layer_1
 62
7
100
AcDbSpline
 70
8
 71
3
 72
8
 73
4
 74
0
 40
0
 40
0
 40
0
 40
0
 40
1
 40
1
 40
1
 40
1
 10
5.877184
 20
3.468046
 30
0.0
 10
5.902696
 20
3.472865
 30
0.0
 10
5.932460
 20
3.486188
 30
0.0
 10
5.942381
 20
3.497839
 30
0.0
  0
SPLINE
  5
194
100
AcDbEntity
  8
Layer_1
 62
7
100
AcDbSpline
 70
8
 71
3
 72
8
 73
4
 74
0
 40
0
 40
0
 40
0
 40
0
 40
1
 40
1
 40
1
 40
1
 10
5.942381
 20
3.497839
 30
0.0
 10
5.956554
 20
3.518248
 30
0.0
 10
5.998224
 20
3.526525
 30
0.0
 10
5.998224
 20
3.509461
 30
0.0
  0
SPLINE
  5
195
100
AcDbEntity
  8
Layer_1
 62
7
100
AcDbSpline
 70
8
 71
3
 72
8
 73
4
 74
0
 40
0
 40
0
 40
0
 40
0
 40
1
 40
1
 40
1
 40
1
 10
5.998224
 20
3.509461
 30
0.0
 10
5.998224
 20
3.504642
 30
0.0
 10
5.986885
 20
3.479867
 30
0.0
 10
5.968743
 20
3.454582
 30
0.0
  0
LWPOLYLINE
  5
196
100
AcDbEntity
  8
Layer_1
 62
7
100
AcDbPolyline
 90
3
 70
0
 10
5.956838
 20
3.273023
 30
0.0
 10
6.016649
 20
3.264235
 30
0.0
 10
5.976680
 20
3.300462
 30
0.0
  0
SPLINE
  5
197
100
AcDbEntity
  8
Layer_1
 62
7
100
AcDbSpline
 70
8
 71
3
 72
8
 73
4
 74
0
 40
0
 40
0
 40
0
 40
0
 40
1
 40
1
 40
1
 40
1
 10
5.992271
 20
3.391256
 30
0.0
 10
6.021751
 20
3.381902
 30
0.0
 10
6.053216
 20
3.368012
 30
0.0
 10
6.062570
 20
3.360528
 30
0.0
  0
SPLINE
  5
198
100
AcDbEntity
  8
Layer_1
 62
7
100
AcDbSpline
 70
8
 71
3
 72
8
 73
4
 74
0
 40
0
 40
0
 40
0
 40
0
 40
1
 40
1
 40
1
 40
1
 10
6.062570
 20
3.360528
 30
0.0
 10
6.088082
 20
3.340969
 30
0.0
 10
6.068239
 20
3.319029
 30
0.0
 10
6.037058
 20
3.329149
 30
0.0
  0
SPLINE
  5
199
100
AcDbEntity
  8
Layer_1
 62
7
100
AcDbSpline
 70
8
 71
3
 72
8
 73
4
 74
0
 40
0
 40
0
 40
0
 40
0
 40
1
 40
1
 40
1
 40
1
 10
6.037058
 20
3.329149
 30
0.0
 10
5.995106
 20
3.342472
 30
0.0
 10
6.004743
 20
3.311857
 30
0.0
 10
6.051231
 20
3.284446
 30
0.0
  0
SPLINE
  5
19a
100
AcDbEntity
  8
Layer_1
 62
7
100
AcDbSpline
 70
8
 71
3
 72
8
 73
4
 74
0
 40
0
 40
0
 40
0
 40
0
 40
1
 40
1
 40
1
 40
1
 10
6.051231
 20
3.284446
 30
0.0
 10
6.118129
 20
3.244875
 30
0.0
 10
6.106507
 20
3.218598
 30
0.0
 10
6.025720
 20
3.229369
 30
0.0
  0
SPLINE
  5
19b
100
AcDbEntity
  8
Layer_1
 62
7
100
AcDbSpline
 70
8
 71
3
 72
8
 73
4
 74
0
 40
0
 40
0
 40
0
 40
0
 40
1
 40
1
 40
1
 40
1
 10
6.025720
 20
3.229369
 30
0.0
 10
5.959956
 20
3.238157
 30
0.0
 10
5.959672
 20
3.237590
 30
0.0
 10
5.988869
 20
3.212928
 30
0.0
  0
SPLINE
  5
19c
100
AcDbEntity
  8
Layer_1
 62
7
100
AcDbSpline
 70
8
 71
3
 72
8
 73
4
 74
0
 40
0
 40
0
 40
0
 40
0
 40
1
 40
1
 40
1
 40
1
 10
5.988869
 20
3.212928
 30
0.0
 10
6.018350
 20
3.188550
 30
0.0
 10
6.082413
 20
3.164257
 30
0.0
 10
6.166318
 20
3.146909
 30
0.0
  0
SPLINE
  5
19d
100
AcDbEntity
  8
Layer_1
 62
7
100
AcDbSpline
 70
8
 71
3
 72
8
 73
4
 74
0
 40
0
 40
0
 40
0
 40
0
 40
1
 40
1
 40
1
 40
1
 10
6.166318
 20
3.146909
 30
0.0
 10
6.240019
 20
3.131886
 30
0.0
 10
6.204869
 20
3.111420
 30
0.0
 10
6.103389
 20
3.110994
 30
0.0
  0
SPLINE
  5
19e
100
AcDbEntity
  8
Layer_1
 62
7
100
AcDbSpline
 70
8
 71
3
 72
8
 73
4
 74
0
 40
0
 40
0
 40
0
 40
0
 40
1
 40
1
 40
1
 40
1
 10
6.103389
 20
3.110994
 30
0.0
 10
5.982917
 20
3.110504
 30
0.0
 10
5.997090
 20
3.095971
 30
0.0
 10
6.149027
 20
3.063769
 30
0.0
  0
SPLINE
  5
19f
100
AcDbEntity
  8
Layer_1
 62
7
100
AcDbSpline
 70
8
 71
3
 72
8
 73
4
 74
0
 40
0
 40
0
 40
0
 40
0
 40
1
 40
1
 40
1
 40
1
 10
6.149027
 20
3.063769
 30
0.0
 10
6.381751
 20
3.014616
 30
0.0
 10
6.610025
 20
3.007502
 30
0.0
 10
7.362312
 20
3.025785
 30
0.0
  0
SPLINE
  5
1a0
100
AcDbEntity
  8
Layer_1
 62
7
100
AcDbSpline
 70
8
 71
3
 72
8
 73
4
 74
0
 40
0
 40
0
 40
0
 40
0
 40
1
 40
1
 40
1
 40
1
 10
7.362312
 20
3.025785
 30
0.0
 10
8.617578
 20
3.056201
 30
0.0
 10
8.915357
 20
3.090245
 30
0.0
 10
9.227792
 20
3.238270
 30
0.0
  0
SPLINE
  5
1a1
100
AcDbEntity
  8
Layer_1
 62
7
100
AcDbSpline
 70
8
 71
3
 72
8
 73
4
 74
0
 40
0
 40
0
 40
0
 40
0
 40
1
 40
1
 40
1
 40
1
 10
9.227792
 20
3.238270
 30
0.0
 10
9.375761
 20
3.308286
 30
0.0
 10
9.683008
 20
3.634724
 30
0.0
 10
10.024044
 20
4.083746
 30
0.0
  0
SPLINE
  5
1a2
100
AcDbEntity
  8
Layer_1
 62
7
100
AcDbSpline
 70
8
 71
3
 72
8
 73
4
 74
0
 40
0
 40
0
 40
0
 40
0
 40
1
 40
1
 40
1
 40
1
 10
10.024044
 20
4.083746
 30
0.0
 10
10.211414
 20
4.330502
 30
0.0
 10
10.290217
 20
4.483314
 30
0.0
 10
10.297304
 20
4.612234
 30
0.0
  0
SPLINE
  5
1a3
100
AcDbEntity
  8
Layer_1
 62
7
100
AcDbSpline
 70
8
 71
3
 72
8
 73
4
 74
0
 40
0
 40
0
 40
0
 40
0
 40
1
 40
1
 40
1
 40
1
 10
10.297304
 20
4.612234
 30
0.0
 10
10.302973
 20
4.731771
 30
0.0
 10
10.274627
 20
4.778599
 30
0.0
 10
10.162091
 20
4.835859
 30
0.0
  0
SPLINE
  5
1a4
100
AcDbEntity
  8
Layer_1
 62
7
100
AcDbSpline
 70
8
 71
3
 72
8
 73
4
 74
0
 40
0
 40
0
 40
0
 40
0
 40
1
 40
1
 40
1
 40
1
 10
10.162091
 20
4.835859
 30
0.0
 10
9.899320
 20
4.968436
 30
0.0
 10
9.407962
 20
5.001601
 30
0.0
 10
8.980413
 20
4.915485
 30
0.0
  0
SPLINE
  5
1a5
100
AcDbEntity
  8
Layer_1
 62
7
100
AcDbSpline
 70
8
 71
3
 72
8
 73
4
 74
0
 40
0
 40
0
 40
0
 40
0
 40
1
 40
1
 40
1
 40
1
 10
8.980413
 20
4.915485
 30
0.0
 10
8.590734
 20
4.837022
 30
0.0
 10
8.140450
 20
4.708499
 30
0.0
 10
7.783030
 20
4.573737
 30
0.0
  0
SPLINE
  5
1a6
100
AcDbEntity
  8
Layer_1
 62
7
100
AcDbSpline
 70
8
 71
3
 72
8
 73
4
 74
0
 40
0
 40
0
 40
0
 40
0
 40
1
 40
1
 40
1
 40
1
 10
7.783030
 20
4.573737
 30
0.0
 10
7.690337
 20
4.538842
 30
0.0
 10
7.555124
 20
4.489690
 30
0.0
 10
7.481424
 20
4.464575
 30
0.0
  0
SPLINE
  5
1a7
100
AcDbEntity
  8
Layer_1
 62
7
100
AcDbSpline
 70
8
 71
3
 72
8
 73
4
 74
0
 40
0
 40
0
 40
0
 40
0
 40
1
 40
1
 40
1
 40
1
 10
7.481424
 20
4.464575
 30
0.0
 10
6.706857
 20
4.198968
 30
0.0
 10
6.422230
 20
4.061746
 30
0.0
 10
5.837528
 20
3.672008
 30
0.0
  0
LWPOLYLINE
  5
1a8
100
AcDbEntity
  8
Layer_1
 62
7
100
AcDbPolyline
 90
3
 70
0
 10
5.968743
 20
3.454582
 30
0.0
 10
5.939263
 20
3.408547
 30
0.0
 10
5.992271
 20
3.391256
 30
0.0
  0
SPLINE
  5
1a9
100
AcDbEntity
  8
Layer_1
 62
7
100
AcDbSpline
 70
8
 71
3
 72
8
 73
4
 74
0
 40
0
 40
0
 40
0
 40
0
 40
1
 40
1
 40
1
 40
1
 10
5.788205
 20
3.526619
 30
0.0
 10
5.789849
 20
3.448496
 30
0.0
 10
5.786532
 20
3.414055
 30
0.0
 10
5.774031
 20
3.409718
 30
0.0
  0
SPLINE
  5
1aa
100
AcDbEntity
  8
Layer_1
 62
7
100
AcDbSpline
 70
8
 71
3
 72
8
 73
4
 74
0
 40
0
 40
0
 40
0
 40
0
 40
1
 40
1
 40
1
 40
1
 10
5.774031
 20
3.409718
 30
0.0
 10
5.762693
 20
3.405182
 30
0.0
 10
5.759858
 20
3.426442
 30
0.0
 10
5.759858
 20
3.488521
 30
0.0
  0
SPLINE
  5
1ab
100
AcDbEntity
  8
Layer_1
 62
7
100
AcDbSpline
 70
8
 71
3
 72
8
 73
4
 74
0
 40
0
 40
0
 40
0
 40
0
 40
1
 40
1
 40
1
 40
1
 10
5.759858
 20
3.488521
 30
0.0
 10
5.759858
 20
3.547453
 30
0.0
 10
5.748520
 20
3.607916
 30
0.0
 10
5.718756
 20
3.686011
 30
0.0
  0
SPLINE
  5
1ac
100
AcDbEntity
  8
Layer_1
 62
7
100
AcDbSpline
 70
8
 71
3
 72
8
 73
4
 74
0
 40
0
 40
0
 40
0
 40
0
 40
1
 40
1
 40
1
 40
1
 10
5.718756
 20
3.686011
 30
0.0
 10
5.670283
 20
3.819381
 30
0.0
 10
5.640236
 20
3.864083
 30
0.0
 10
5.530252
 20
3.967236
 30
0.0
  0
SPLINE
  5
1ad
100
AcDbEntity
  8
Layer_1
 62
7
100
AcDbSpline
 70
8
 71
3
 72
8
 73
4
 74
0
 40
0
 40
0
 40
0
 40
0
 40
1
 40
1
 40
1
 40
1
 10
5.530252
 20
3.967236
 30
0.0
 10
5.450598
 20
4.042127
 30
0.0
 10
5.447764
 20
4.047258
 30
0.0
 10
5.442094
 20
4.127053
 30
0.0
  0
SPLINE
  5
1ae
100
AcDbEntity
  8
Layer_1
 62
7
100
AcDbSpline
 70
8
 71
3
 72
8
 73
4
 74
0
 40
0
 40
0
 40
0
 40
0
 40
1
 40
1
 40
1
 40
1
 10
5.442094
 20
4.127053
 30
0.0
 10
5.436425
 20
4.190493
 30
0.0
 10
5.427921
 20
4.228562
 30
0.0
 10
5.386252
 20
4.292115
 30
0.0
  0
SPLINE
  5
1af
100
AcDbEntity
  8
Layer_1
 62
7
100
AcDbSpline
 70
8
 71
3
 72
8
 73
4
 74
0
 40
0
 40
0
 40
0
 40
0
 40
1
 40
1
 40
1
 40
1
 10
5.386252
 20
4.292115
 30
0.0
 10
5.327575
 20
4.388719
 30
0.0
 10
5.157496
 20
4.542074
 30
0.0
 10
5.109307
 20
4.542074
 30
0.0
  0
SPLINE
  5
1b0
100
AcDbEntity
  8
Layer_1
 62
7
100
AcDbSpline
 70
8
 71
3
 72
8
 73
4
 74
0
 40
0
 40
0
 40
0
 40
0
 40
1
 40
1
 40
1
 40
1
 10
5.109307
 20
4.542074
 30
0.0
 10
5.063669
 20
4.542074
 30
0.0
 10
4.955669
 20
4.454058
 30
0.0
 10
4.883386
 20
4.357340
 30
0.0
  0
SPLINE
  5
1b1
100
AcDbEntity
  8
Layer_1
 62
7
100
AcDbSpline
 70
8
 71
3
 72
8
 73
4
 74
0
 40
0
 40
0
 40
0
 40
0
 40
1
 40
1
 40
1
 40
1
 10
4.883386
 20
4.357340
 30
0.0
 10
4.815921
 20
4.267879
 30
0.0
 10
4.783323
 20
4.157611
 30
0.0
 10
4.795512
 20
4.063985
 30
0.0
  0
SPLINE
  5
1b2
100
AcDbEntity
  8
Layer_1
 62
7
100
AcDbSpline
 70
8
 71
3
 72
8
 73
4
 74
0
 40
0
 40
0
 40
0
 40
0
 40
1
 40
1
 40
1
 40
1
 10
4.795512
 20
4.063985
 30
0.0
 10
4.801181
 20
4.018631
 30
0.0
 10
4.796362
 20
4.005705
 30
0.0
 10
4.756394
 20
3.966955
 30
0.0
  0
SPLINE
  5
1b3
100
AcDbEntity
  8
Layer_1
 62
7
100
AcDbSpline
 70
8
 71
3
 72
8
 73
4
 74
0
 40
0
 40
0
 40
0
 40
0
 40
1
 40
1
 40
1
 40
1
 10
4.756394
 20
3.966955
 30
0.0
 10
4.680992
 20
3.894048
 30
0.0
 10
4.583480
 20
3.683803
 30
0.0
 10
4.567606
 20
3.560238
 30
0.0
  0
SPLINE
  5
1b4
100
AcDbEntity
  8
Layer_1
 62
7
100
AcDbSpline
 70
8
 71
3
 72
8
 73
4
 74
0
 40
0
 40
0
 40
0
 40
0
 40
1
 40
1
 40
1
 40
1
 10
4.567606
 20
3.560238
 30
0.0
 10
4.561937
 20
3.502382
 30
0.0
 10
4.556268
 20
3.450282
 30
0.0
 10
4.556268
 20
3.444527
 30
0.0
  0
SPLINE
  5
1b5
100
AcDbEntity
  8
Layer_1
 62
7
100
AcDbSpline
 70
8
 71
3
 72
8
 73
4
 74
0
 40
0
 40
0
 40
0
 40
0
 40
1
 40
1
 40
1
 40
1
 10
4.556268
 20
3.444527
 30
0.0
 10
4.556041
 20
3.438575
 30
0.0
 10
4.547764
 20
3.433756
 30
0.0
 10
4.533591
 20
3.433756
 30
0.0
  0
SPLINE
  5
1b6
100
AcDbEntity
  8
Layer_1
 62
7
100
AcDbSpline
 70
8
 71
3
 72
8
 73
4
 74
0
 40
0
 40
0
 40
0
 40
0
 40
1
 40
1
 40
1
 40
1
 10
4.533591
 20
3.433756
 30
0.0
 10
4.513748
 20
3.433756
 30
0.0
 10
4.510913
 20
3.446512
 30
0.0
 10
4.519417
 20
3.521431
 30
0.0
  0
SPLINE
  5
1b7
100
AcDbEntity
  8
Layer_1
 62
7
100
AcDbSpline
 70
8
 71
3
 72
8
 73
4
 74
0
 40
0
 40
0
 40
0
 40
0
 40
1
 40
1
 40
1
 40
1
 10
4.519417
 20
3.521431
 30
0.0
 10
4.522252
 20
3.569649
 30
0.0
 10
4.530756
 20
3.619397
 30
0.0
 10
4.533591
 20
3.631982
 30
0.0
  0
SPLINE
  5
1b8
100
AcDbEntity
  8
Layer_1
 62
7
100
AcDbSpline
 70
8
 71
3
 72
8
 73
4
 74
0
 40
0
 40
0
 40
0
 40
0
 40
1
 40
1
 40
1
 40
1
 10
4.533591
 20
3.631982
 30
0.0
 10
4.539260
 20
3.649841
 30
0.0
 10
4.501276
 20
3.681532
 30
0.0
 10
4.363228
 20
3.773063
 30
0.0
  0
SPLINE
  5
1b9
100
AcDbEntity
  8
Layer_1
 62
7
100
AcDbSpline
 70
8
 71
3
 72
8
 73
4
 74
0
 40
0
 40
0
 40
0
 40
0
 40
1
 40
1
 40
1
 40
1
 10
4.363228
 20
3.773063
 30
0.0
 10
4.264299
 20
3.838090
 30
0.0
 10
4.145811
 20
3.914086
 30
0.0
 10
4.099323
 20
3.941923
 30
0.0
  0
SPLINE
  5
1ba
100
AcDbEntity
  8
Layer_1
 62
7
100
AcDbSpline
 70
8
 71
3
 72
8
 73
4
 74
0
 40
0
 40
0
 40
0
 40
0
 40
1
 40
1
 40
1
 40
1
 10
4.099323
 20
3.941923
 30
0.0
 10
3.931512
 20
4.042921
 30
0.0
 10
3.490299
 20
4.247330
 30
0.0
 10
3.292186
 20
4.315832
 30
0.0
  0
SPLINE
  5
1bb
100
AcDbEntity
  8
Layer_1
 62
7
100
AcDbSpline
 70
8
 71
3
 72
8
 73
4
 74
0
 40
0
 40
0
 40
0
 40
0
 40
1
 40
1
 40
1
 40
1
 10
3.292186
 20
4.315832
 30
0.0
 10
2.963282
 20
4.429558
 30
0.0
 10
2.581172
 20
4.567010
 30
0.0
 10
2.553817
 20
4.581410
 30
0.0
  0
SPLINE
  5
1bc
100
AcDbEntity
  8
Layer_1
 62
7
100
AcDbSpline
 70
8
 71
3
 72
8
 73
4
 74
0
 40
0
 40
0
 40
0
 40
0
 40
1
 40
1
 40
1
 40
1
 10
2.553817
 20
4.581410
 30
0.0
 10
2.439014
 20
4.641902
 30
0.0
 10
1.632557
 20
4.868288
 30
0.0
 10
1.322107
 20
4.927158
 30
0.0
  0
SPLINE
  5
1bd
100
AcDbEntity
  8
Layer_1
 62
7
100
AcDbSpline
 70
8
 71
3
 72
8
 73
4
 74
0
 40
0
 40
0
 40
0
 40
0
 40
1
 40
1
 40
1
 40
1
 10
1.322107
 20
4.927158
 30
0.0
 10
1.151461
 20
4.959529
 30
0.0
 10
0.776608
 20
4.971463
 30
0.0
 10
0.610781
 20
4.949835
 30
0.0
  0
SPLINE
  5
1be
100
AcDbEntity
  8
Layer_1
 62
7
100
AcDbSpline
 70
8
 71
3
 72
8
 73
4
 74
0
 40
0
 40
0
 40
0
 40
0
 40
1
 40
1
 40
1
 40
1
 10
0.610781
 20
4.949835
 30
0.0
 10
0.346309
 20
4.915252
 30
0.0
 10
0.133710
 20
4.834663
 30
0.0
 10
0.079597
 20
4.748376
 30
0.0
  0
SPLINE
  5
1bf
100
AcDbEntity
  8
Layer_1
 62
7
100
AcDbSpline
 70
8
 71
3
 72
8
 73
4
 74
0
 40
0
 40
0
 40
0
 40
0
 40
1
 40
1
 40
1
 40
1
 10
0.079597
 20
4.748376
 30
0.0
 10
0.032542
 20
4.673797
 30
0.0
 10
0.047282
 20
4.549413
 30
0.0
 10
0.120699
 20
4.401073
 30
0.0
  0
SPLINE
  5
1c0
100
AcDbEntity
  8
Layer_1
 62
7
100
AcDbSpline
 70
8
 71
3
 72
8
 73
4
 74
0
 40
0
 40
0
 40
0
 40
0
 40
1
 40
1
 40
1
 40
1
 10
0.120699
 20
4.401073
 30
0.0
 10
0.237770
 20
4.163359
 30
0.0
 10
0.738822
 20
3.548859
 30
0.0
 10
1.003748
 20
3.317892
 30
0.0
  0
SPLINE
  5
1c1
100
AcDbEntity
  8
Layer_1
 62
7
100
AcDbSpline
 70
8
 71
3
 72
8
 73
4
 74
0
 40
0
 40
0
 40
0
 40
0
 40
1
 40
1
 40
1
 40
1
 10
1.003748
 20
3.317892
 30
0.0
 10
1.093606
 20
3.239514
 30
0.0
 10
1.305354
 20
3.152037
 30
0.0
 10
1.483569
 20
3.119751
 30
0.0
  0
SPLINE
  5
1c2
100
AcDbEntity
  8
Layer_1
 62
7
100
AcDbSpline
 70
8
 71
3
 72
8
 73
4
 74
0
 40
0
 40
0
 40
0
 40
0
 40
1
 40
1
 40
1
 40
1
 10
1.483569
 20
3.119751
 30
0.0
 10
1.742088
 20
3.072922
 30
0.0
 10
2.125134
 20
3.047155
 30
0.0
 10
2.872176
 20
3.026462
 30
0.0
  0
SPLINE
  5
1c3
100
AcDbEntity
  8
Layer_1
 62
7
100
AcDbSpline
 70
8
 71
3
 72
8
 73
4
 74
0
 40
0
 40
0
 40
0
 40
0
 40
1
 40
1
 40
1
 40
1
 10
2.872176
 20
3.026462
 30
0.0
 10
3.721720
 20
3.002935
 30
0.0
 10
4.120951
 20
3.020226
 30
0.0
 10
4.274787
 20
3.087492
 30
0.0
  0
LWPOLYLINE
  5
1c4
100
AcDbEntity
  8
Layer_1
 62
7
100
AcDbPolyline
 90
3
 70
0
 10
5.837528
 20
3.672008
 30
0.0
 10
5.785370
 20
3.637368
 30
0.0
 10
5.788205
 20
3.526619
 30
0.0
  0
SPLINE
  5
1c5
100
AcDbEntity
  8
Layer_1
 62
7
100
AcDbSpline
 70
8
 71
3
 72
8
 73
4
 74
0
 40
0
 40
0
 40
0
 40
0
 40
1
 40
1
 40
1
 40
1
 10
4.222063
 20
3.109909
 30
0.0
 10
4.120299
 20
3.111062
 30
0.0
 10
4.085433
 20
3.131169
 30
0.0
 10
4.159134
 20
3.146532
 30
0.0
  0
SPLINE
  5
1c6
100
AcDbEntity
  8
Layer_1
 62
7
100
AcDbSpline
 70
8
 71
3
 72
8
 73
4
 74
0
 40
0
 40
0
 40
0
 40
0
 40
1
 40
1
 40
1
 40
1
 10
4.159134
 20
3.146532
 30
0.0
 10
4.242756
 20
3.164107
 30
0.0
 10
4.308236
 20
3.188202
 30
0.0
 10
4.336583
 20
3.212551
 30
0.0
  0
SPLINE
  5
1c7
100
AcDbEntity
  8
Layer_1
 62
7
100
AcDbSpline
 70
8
 71
3
 72
8
 73
4
 74
0
 40
0
 40
0
 40
0
 40
0
 40
1
 40
1
 40
1
 40
1
 10
4.336583
 20
3.212551
 30
0.0
 10
4.366063
 20
3.237780
 30
0.0
 10
4.366063
 20
3.237780
 30
0.0
 10
4.299732
 20
3.228992
 30
0.0
  0
SPLINE
  5
1c8
100
AcDbEntity
  8
Layer_1
 62
7
100
AcDbSpline
 70
8
 71
3
 72
8
 73
4
 74
0
 40
0
 40
0
 40
0
 40
0
 40
1
 40
1
 40
1
 40
1
 10
4.299732
 20
3.228992
 30
0.0
 10
4.219795
 20
3.218221
 30
0.0
 10
4.207890
 20
3.244583
 30
0.0
 10
4.274220
 20
3.284069
 30
0.0
  0
SPLINE
  5
1c9
100
AcDbEntity
  8
Layer_1
 62
7
100
AcDbSpline
 70
8
 71
3
 72
8
 73
4
 74
0
 40
0
 40
0
 40
0
 40
0
 40
1
 40
1
 40
1
 40
1
 10
4.274220
 20
3.284069
 30
0.0
 10
4.321276
 20
3.311565
 30
0.0
 10
4.331480
 20
3.342010
 30
0.0
 10
4.288394
 20
3.328772
 30
0.0
  0
SPLINE
  5
1ca
100
AcDbEntity
  8
Layer_1
 62
7
100
AcDbSpline
 70
8
 71
3
 72
8
 73
4
 74
0
 40
0
 40
0
 40
0
 40
0
 40
1
 40
1
 40
1
 40
1
 10
4.288394
 20
3.328772
 30
0.0
 10
4.256079
 20
3.318284
 30
0.0
 10
4.238220
 20
3.340394
 30
0.0
 10
4.262882
 20
3.360151
 30
0.0
  0
SPLINE
  5
1cb
100
AcDbEntity
  8
Layer_1
 62
7
100
AcDbSpline
 70
8
 71
3
 72
8
 73
4
 74
0
 40
0
 40
0
 40
0
 40
0
 40
1
 40
1
 40
1
 40
1
 10
4.262882
 20
3.360151
 30
0.0
 10
4.271386
 20
3.367521
 30
0.0
 10
4.303984
 20
3.381411
 30
0.0
 10
4.333181
 20
3.390879
 30
0.0
  0
LWPOLYLINE
  5
1cc
100
AcDbEntity
  8
Layer_1
 62
7
100
AcDbPolyline
 90
3
 70
0
 10
4.274787
 20
3.087492
 30
0.0
 10
4.323827
 20
3.108752
 30
0.0
 10
4.222063
 20
3.109909
 30
0.0
  0
SPLINE
  5
1cd
100
AcDbEntity
  8
Layer_1
 62
7
100
AcDbSpline
 70
8
 71
3
 72
8
 73
4
 74
0
 40
0
 40
0
 40
0
 40
0
 40
1
 40
1
 40
1
 40
1
 10
4.356709
 20
3.454205
 30
0.0
 10
4.342535
 20
3.479433
 30
0.0
 10
4.327228
 20
3.504208
 30
0.0
 10
4.327228
 20
3.509084
 30
0.0
  0
SPLINE
  5
1ce
100
AcDbEntity
  8
Layer_1
 62
7
100
AcDbSpline
 70
8
 71
3
 72
8
 73
4
 74
0
 40
0
 40
0
 40
0
 40
0
 40
1
 40
1
 40
1
 40
1
 10
4.327228
 20
3.509084
 30
0.0
 10
4.327228
 20
3.525808
 30
0.0
 10
4.366063
 20
3.517871
 30
0.0
 10
4.383071
 20
3.497462
 30
0.0
  0
SPLINE
  5
1cf
100
AcDbEntity
  8
Layer_1
 62
7
100
AcDbSpline
 70
8
 71
3
 72
8
 73
4
 74
0
 40
0
 40
0
 40
0
 40
0
 40
1
 40
1
 40
1
 40
1
 10
4.383071
 20
3.497462
 30
0.0
 10
4.391575
 20
3.486123
 30
0.0
 10
4.421622
 20
3.472800
 30
0.0
 10
4.448268
 20
3.467669
 30
0.0
  0
SPLINE
  5
1d0
100
AcDbEntity
  8
Layer_1
 62
7
100
AcDbSpline
 70
8
 71
3
 72
8
 73
4
 74
0
 40
0
 40
0
 40
0
 40
0
 40
1
 40
1
 40
1
 40
1
 10
4.448268
 20
3.467669
 30
0.0
 10
4.473780
 20
3.462850
 30
0.0
 10
4.495890
 20
3.452079
 30
0.0
 10
4.495890
 20
3.444425
 30
0.0
  0
SPLINE
  5
1d1
100
AcDbEntity
  8
Layer_1
 62
7
100
AcDbSpline
 70
8
 71
3
 72
8
 73
4
 74
0
 40
0
 40
0
 40
0
 40
0
 40
1
 40
1
 40
1
 40
1
 10
4.495890
 20
3.444425
 30
0.0
 10
4.495890
 20
3.436488
 30
0.0
 10
4.481717
 20
3.433370
 30
0.0
 10
4.456205
 20
3.437906
 30
0.0
  0
SPLINE
  5
1d2
100
AcDbEntity
  8
Layer_1
 62
7
100
AcDbSpline
 70
8
 71
3
 72
8
 73
4
 74
0
 40
0
 40
0
 40
0
 40
0
 40
1
 40
1
 40
1
 40
1
 10
4.456205
 20
3.437906
 30
0.0
 10
4.422189
 20
3.444709
 30
0.0
 10
4.416520
 20
3.441591
 30
0.0
 10
4.417654
 20
3.415228
 30
0.0
  0
SPLINE
  5
1d3
100
AcDbEntity
  8
Layer_1
 62
7
100
AcDbSpline
 70
8
 71
3
 72
8
 73
4
 74
0
 40
0
 40
0
 40
0
 40
0
 40
1
 40
1
 40
1
 40
1
 10
4.417654
 20
3.415228
 30
0.0
 10
4.418391
 20
3.393685
 30
0.0
 10
4.409150
 20
3.383197
 30
0.0
 10
4.385339
 20
3.379909
 30
0.0
  0
SPLINE
  5
1d4
100
AcDbEntity
  8
Layer_1
 62
7
100
AcDbSpline
 70
8
 71
3
 72
8
 73
4
 74
0
 40
0
 40
0
 40
0
 40
0
 40
1
 40
1
 40
1
 40
1
 10
4.385339
 20
3.379909
 30
0.0
 10
4.359827
 20
3.376224
 30
0.0
 10
4.355858
 20
3.371688
 30
0.0
 10
4.371165
 20
3.355814
 30
0.0
  0
SPLINE
  5
1d5
100
AcDbEntity
  8
Layer_1
 62
7
100
AcDbSpline
 70
8
 71
3
 72
8
 73
4
 74
0
 40
0
 40
0
 40
0
 40
0
 40
1
 40
1
 40
1
 40
1
 10
4.371165
 20
3.355814
 30
0.0
 10
4.382504
 20
3.340224
 30
0.0
 10
4.379669
 20
3.328602
 30
0.0
 10
4.348488
 20
3.300085
 30
0.0
  0
LWPOLYLINE
  5
1d6
100
AcDbEntity
  8
Layer_1
 62
7
100
AcDbPolyline
 90
3
 70
0
 10
4.333181
 20
3.390879
 30
0.0
 10
4.386189
 20
3.408170
 30
0.0
 10
4.356709
 20
3.454205
 30
0.0
  0
SPLINE
  5
1d7
100
AcDbEntity
  8
Layer_1
 62
7
100
AcDbSpline
 70
8
 71
3
 72
8
 73
4
 74
0
 40
0
 40
0
 40
0
 40
0
 40
1
 40
1
 40
1
 40
1
 10
4.368614
 20
3.272674
 30
0.0
 10
4.406598
 20
3.278627
 30
0.0
 10
4.428142
 20
3.276359
 30
0.0
 10
4.428142
 20
3.266721
 30
0.0
  0
SPLINE
  5
1d8
100
AcDbEntity
  8
Layer_1
 62
7
100
AcDbSpline
 70
8
 71
3
 72
8
 73
4
 74
0
 40
0
 40
0
 40
0
 40
0
 40
1
 40
1
 40
1
 40
1
 10
4.428142
 20
3.266721
 30
0.0
 10
4.428142
 20
3.246879
 30
0.0
 10
4.374283
 20
3.197329
 30
0.0
 10
4.325244
 20
3.171562
 30
0.0
  0
SPLINE
  5
1d9
100
AcDbEntity
  8
Layer_1
 62
7
100
AcDbSpline
 70
8
 71
3
 72
8
 73
4
 74
0
 40
0
 40
0
 40
0
 40
0
 40
1
 40
1
 40
1
 40
1
 10
4.325244
 20
3.171562
 30
0.0
 10
4.271669
 20
3.143783
 30
0.0
 10
4.286693
 20
3.133125
 30
0.0
 10
4.354724
 20
3.151436
 30
0.0
  0
SPLINE
  5
1da
100
AcDbEntity
  8
Layer_1
 62
7
100
AcDbSpline
 70
8
 71
3
 72
8
 73
4
 74
0
 40
0
 40
0
 40
0
 40
0
 40
1
 40
1
 40
1
 40
1
 10
4.354724
 20
3.151436
 30
0.0
 10
4.384205
 20
3.159373
 30
0.0
 10
4.413402
 20
3.166176
 30
0.0
 10
4.419354
 20
3.166460
 30
0.0
  0
SPLINE
  5
1db
100
AcDbEntity
  8
Layer_1
 62
7
100
AcDbSpline
 70
8
 71
3
 72
8
 73
4
 74
0
 40
0
 40
0
 40
0
 40
0
 40
1
 40
1
 40
1
 40
1
 10
4.419354
 20
3.166460
 30
0.0
 10
4.433528
 20
3.166585
 30
0.0
 10
4.430693
 20
3.127257
 30
0.0
 10
4.413685
 20
3.119717
 30
0.0
  0
SPLINE
  5
1dc
100
AcDbEntity
  8
Layer_1
 62
7
100
AcDbSpline
 70
8
 71
3
 72
8
 73
4
 74
0
 40
0
 40
0
 40
0
 40
0
 40
1
 40
1
 40
1
 40
1
 10
4.413685
 20
3.119717
 30
0.0
 10
4.405181
 20
3.115748
 30
0.0
 10
4.408016
 20
3.112347
 30
0.0
 10
4.422189
 20
3.111780
 30
0.0
  0
SPLINE
  5
1dd
100
AcDbEntity
  8
Layer_1
 62
7
100
AcDbSpline
 70
8
 71
3
 72
8
 73
4
 74
0
 40
0
 40
0
 40
0
 40
0
 40
1
 40
1
 40
1
 40
1
 10
4.422189
 20
3.111780
 30
0.0
 10
4.459606
 20
3.110164
 30
0.0
 10
4.444866
 20
3.082016
 30
0.0
 10
4.389874
 20
3.052876
 30
0.0
  0
SPLINE
  5
1de
100
AcDbEntity
  8
Layer_1
 62
7
100
AcDbSpline
 70
8
 71
3
 72
8
 73
4
 74
0
 40
0
 40
0
 40
0
 40
0
 40
1
 40
1
 40
1
 40
1
 10
4.389874
 20
3.052876
 30
0.0
 10
4.309937
 20
3.010073
 30
0.0
 10
4.303984
 20
2.993632
 30
0.0
 10
4.370031
 20
3.003865
 30
0.0
  0
SPLINE
  5
1df
100
AcDbEntity
  8
Layer_1
 62
7
100
AcDbSpline
 70
8
 71
3
 72
8
 73
4
 74
0
 40
0
 40
0
 40
0
 40
0
 40
1
 40
1
 40
1
 40
1
 10
4.370031
 20
3.003865
 30
0.0
 10
4.432110
 20
3.013219
 30
0.0
 10
4.449402
 20
2.997345
 30
0.0
 10
4.404898
 20
2.971493
 30
0.0
  0
SPLINE
  5
1e0
100
AcDbEntity
  8
Layer_1
 62
7
100
AcDbSpline
 70
8
 71
3
 72
8
 73
4
 74
0
 40
0
 40
0
 40
0
 40
0
 40
1
 40
1
 40
1
 40
1
 10
4.404898
 20
2.971493
 30
0.0
 10
4.385055
 20
2.960154
 30
0.0
 10
4.393559
 20
2.957036
 30
0.0
 10
4.439764
 20
2.956753
 30
0.0
  0
SPLINE
  5
1e1
100
AcDbEntity
  8
Layer_1
 62
7
100
AcDbSpline
 70
8
 71
3
 72
8
 73
4
 74
0
 40
0
 40
0
 40
0
 40
0
 40
1
 40
1
 40
1
 40
1
 10
4.439764
 20
2.956753
 30
0.0
 10
4.497307
 20
2.956350
 30
0.0
 10
4.516299
 20
2.940595
 30
0.0
 10
4.483417
 20
2.920016
 30
0.0
  0
SPLINE
  5
1e2
100
AcDbEntity
  8
Layer_1
 62
7
100
AcDbSpline
 70
8
 71
3
 72
8
 73
4
 74
0
 40
0
 40
0
 40
0
 40
0
 40
1
 40
1
 40
1
 40
1
 10
4.483417
 20
2.920016
 30
0.0
 10
4.474913
 20
2.913496
 30
0.0
 10
4.481717
 20
2.902725
 30
0.0
 10
4.506094
 20
2.890252
 30
0.0
  0
SPLINE
  5
1e3
100
AcDbEntity
  8
Layer_1
 62
7
100
AcDbSpline
 70
8
 71
3
 72
8
 73
4
 74
0
 40
0
 40
0
 40
0
 40
0
 40
1
 40
1
 40
1
 40
1
 10
4.506094
 20
2.890252
 30
0.0
 10
4.528772
 20
2.878630
 30
0.0
 10
4.540961
 20
2.862473
 30
0.0
 10
4.538409
 20
2.851389
 30
0.0
  0
SPLINE
  5
1e4
100
AcDbEntity
  8
Layer_1
 62
7
100
AcDbSpline
 70
8
 71
3
 72
8
 73
4
 74
0
 40
0
 40
0
 40
0
 40
0
 40
1
 40
1
 40
1
 40
1
 10
4.538409
 20
2.851389
 30
0.0
 10
4.535575
 20
2.840901
 30
0.0
 10
4.540110
 20
2.829279
 30
0.0
 10
4.549748
 20
2.824460
 30
0.0
  0
SPLINE
  5
1e5
100
AcDbEntity
  8
Layer_1
 62
7
100
AcDbSpline
 70
8
 71
3
 72
8
 73
4
 74
0
 40
0
 40
0
 40
0
 40
0
 40
1
 40
1
 40
1
 40
1
 10
4.549748
 20
2.824460
 30
0.0
 10
4.561087
 20
2.819925
 30
0.0
 10
4.569591
 20
2.805184
 30
0.0
 10
4.569591
 20
2.791748
 30
0.0
  0
SPLINE
  5
1e6
100
AcDbEntity
  8
Layer_1
 62
7
100
AcDbSpline
 70
8
 71
3
 72
8
 73
4
 74
0
 40
0
 40
0
 40
0
 40
0
 40
1
 40
1
 40
1
 40
1
 10
4.569591
 20
2.791748
 30
0.0
 10
4.567918
 20
2.778142
 30
0.0
 10
4.571291
 20
2.755975
 30
0.0
 10
4.578094
 20
2.742369
 30
0.0
  0
SPLINE
  5
1e7
100
AcDbEntity
  8
Layer_1
 62
7
100
AcDbSpline
 70
8
 71
3
 72
8
 73
4
 74
0
 40
0
 40
0
 40
0
 40
0
 40
1
 40
1
 40
1
 40
1
 10
4.578094
 20
2.742369
 30
0.0
 10
4.583764
 20
2.727912
 30
0.0
 10
4.580929
 20
2.709005
 30
0.0
 10
4.572425
 20
2.696816
 30
0.0
  0
SPLINE
  5
1e8
100
AcDbEntity
  8
Layer_1
 62
7
100
AcDbSpline
 70
8
 71
3
 72
8
 73
4
 74
0
 40
0
 40
0
 40
0
 40
0
 40
1
 40
1
 40
1
 40
1
 10
4.572425
 20
2.696816
 30
0.0
 10
4.558252
 20
2.678107
 30
0.0
 10
4.563921
 20
2.670170
 30
0.0
 10
4.586598
 20
2.673855
 30
0.0
  0
SPLINE
  5
1e9
100
AcDbEntity
  8
Layer_1
 62
7
100
AcDbSpline
 70
8
 71
3
 72
8
 73
4
 74
0
 40
0
 40
0
 40
0
 40
0
 40
1
 40
1
 40
1
 40
1
 10
4.586598
 20
2.673855
 30
0.0
 10
4.592268
 20
2.674521
 30
0.0
 10
4.600772
 20
2.666769
 30
0.0
 10
4.612110
 20
2.656280
 30
0.0
  0
SPLINE
  5
1ea
100
AcDbEntity
  8
Layer_1
 62
7
100
AcDbSpline
 70
8
 71
3
 72
8
 73
4
 74
0
 40
0
 40
0
 40
0
 40
0
 40
1
 40
1
 40
1
 40
1
 10
4.612110
 20
2.656280
 30
0.0
 10
4.623449
 20
2.642674
 30
0.0
 10
4.620614
 20
2.621471
 30
0.0
 10
4.606441
 20
2.576088
 30
0.0
  0
SPLINE
  5
1eb
100
AcDbEntity
  8
Layer_1
 62
7
100
AcDbSpline
 70
8
 71
3
 72
8
 73
4
 74
0
 40
0
 40
0
 40
0
 40
0
 40
1
 40
1
 40
1
 40
1
 10
4.606441
 20
2.576088
 30
0.0
 10
4.574126
 20
2.484954
 30
0.0
 10
4.520835
 20
2.279292
 30
0.0
 10
4.492772
 20
2.135788
 30
0.0
  0
SPLINE
  5
1ec
100
AcDbEntity
  8
Layer_1
 62
7
100
AcDbSpline
 70
8
 71
3
 72
8
 73
4
 74
0
 40
0
 40
0
 40
0
 40
0
 40
1
 40
1
 40
1
 40
1
 10
4.492772
 20
2.135788
 30
0.0
 10
4.472929
 20
2.038362
 30
0.0
 10
4.467260
 20
1.935946
 30
0.0
 10
4.467260
 20
1.686945
 30
0.0
  0
SPLINE
  5
1ed
100
AcDbEntity
  8
Layer_1
 62
7
100
AcDbSpline
 70
8
 71
3
 72
8
 73
4
 74
0
 40
0
 40
0
 40
0
 40
0
 40
1
 40
1
 40
1
 40
1
 10
4.467260
 20
1.686945
 30
0.0
 10
4.466126
 20
1.138656
 30
0.0
 10
4.501276
 20
0.919958
 30
0.0
 10
4.639606
 20
0.613935
 30
0.0
  0
SPLINE
  5
1ee
100
AcDbEntity
  8
Layer_1
 62
7
100
AcDbSpline
 70
8
 71
3
 72
8
 73
4
 74
0
 40
0
 40
0
 40
0
 40
0
 40
1
 40
1
 40
1
 40
1
 10
4.639606
 20
0.613935
 30
0.0
 10
4.766882
 20
0.332937
 30
0.0
 10
4.902378
 20
0.142468
 30
0.0
 10
5.018995
 20
0.080829
 30
0.0
  0
SPLINE
  5
1ef
100
AcDbEntity
  8
Layer_1
 62
7
100
AcDbSpline
 70
8
 71
3
 72
8
 73
4
 74
0
 40
0
 40
0
 40
0
 40
0
 40
1
 40
1
 40
1
 40
1
 10
5.018995
 20
0.080829
 30
0.0
 10
5.082775
 20
0.047097
 30
0.0
 10
5.169231
 20
0.045679
 30
0.0
 10
5.226775
 20
0.077711
 30
0.0
  0
LWPOLYLINE
  5
1f0
100
AcDbEntity
  8
Layer_1
 62
7
100
AcDbPolyline
 90
3
 70
0
 10
4.348488
 20
3.300085
 30
0.0
 10
4.308803
 20
3.263887
 30
0.0
 10
4.368614
 20
3.272674
 30
0.0
  0
SPLINE
  5
1f1
100
AcDbEntity
  8
Layer_1
 62
7
100
AcDbSpline
 70
8
 71
3
 72
8
 73
4
 74
0
 40
0
 40
0
 40
0
 40
0
 40
1
 40
1
 40
1
 40
1
 10
4.630507
 20
2.740078
 30
0.0
 10
4.622003
 20
2.767291
 30
0.0
 10
4.639011
 20
2.794759
 30
0.0
 10
4.662822
 20
2.786538
 30
0.0
  0
SPLINE
  5
1f2
100
AcDbEntity
  8
Layer_1
 62
7
100
AcDbSpline
 70
8
 71
3
 72
8
 73
4
 74
0
 40
0
 40
0
 40
0
 40
0
 40
1
 40
1
 40
1
 40
1
 10
4.662822
 20
2.786538
 30
0.0
 10
4.671326
 20
2.783420
 30
0.0
 10
4.671326
 20
2.769247
 30
0.0
 10
4.659987
 20
2.748270
 30
0.0
  0
SPLINE
  5
1f3
100
AcDbEntity
  8
Layer_1
 62
7
100
AcDbSpline
 70
8
 71
3
 72
8
 73
4
 74
0
 40
0
 40
0
 40
0
 40
0
 40
1
 40
1
 40
1
 40
1
 10
4.659987
 20
2.748270
 30
0.0
 10
4.645814
 20
2.718478
 30
0.0
 10
4.640145
 20
2.717543
 30
0.0
 10
4.634476
 20
2.740333
 30
0.0
  0
LWPOLYLINE
  5
1f4
100
AcDbEntity
  8
Layer_1
 62
7
100
AcDbPolyline
 90
2
 70
0
 10
5.226775
 20
0.077711
 30
0.0
 10
5.220879
 20
0.077887
 30
0.0
  0
SPLINE
  5
1f5
100
AcDbEntity
  8
Layer_1
 62
7
100
AcDbSpline
 70
8
 71
3
 72
8
 73
4
 74
0
 40
0
 40
0
 40
0
 40
0
 40
1
 40
1
 40
1
 40
1
 10
5.682756
 20
2.767574
 30
0.0
 10
5.677087
 20
2.780330
 30
0.0
 10
5.682784
 20
2.788551
 30
0.0
 10
5.694094
 20
2.788551
 30
0.0
  0
SPLINE
  5
1f6
100
AcDbEntity
  8
Layer_1
 62
7
100
AcDbSpline
 70
8
 71
3
 72
8
 73
4
 74
0
 40
0
 40
0
 40
0
 40
0
 40
1
 40
1
 40
1
 40
1
 10
5.694094
 20
2.788551
 30
0.0
 10
5.716772
 20
2.788551
 30
0.0
 10
5.723575
 20
2.766724
 30
0.0
 10
5.702598
 20
2.754393
 30
0.0
  0
SPLINE
  5
1f7
100
AcDbEntity
  8
Layer_1
 62
7
100
AcDbSpline
 70
8
 71
3
 72
8
 73
4
 74
0
 40
0
 40
0
 40
0
 40
0
 40
1
 40
1
 40
1
 40
1
 10
5.702598
 20
2.754393
 30
0.0
 10
5.696929
 20
2.750141
 30
0.0
 10
5.688425
 20
2.756071
 30
0.0
 10
5.682756
 20
2.767716
 30
0.0
  0
LWPOLYLINE
  5
1f8
100
AcDbEntity
  8
Layer_1
 62
7
100
AcDbPolyline
 90
2
 70
0
 10
4.634476
 20
2.740333
 30
0.0
 10
4.630507
 20
2.740078
 30
0.0
  0
SPLINE
  5
1f9
100
AcDbEntity
  8
Layer_1
 62
7
100
AcDbSpline
 70
8
 71
3
 72
8
 73
4
 74
0
 40
0
 40
0
 40
0
 40
0
 40
1
 40
1
 40
1
 40
1
 10
4.661121
 20
2.847455
 30
0.0
 10
4.672460
 20
2.860494
 30
0.0
 10
4.680964
 20
2.860494
 30
0.0
 10
4.694854
 20
2.847455
 30
0.0
  0
SPLINE
  5
1fa
100
AcDbEntity
  8
Layer_1
 62
7
100
AcDbSpline
 70
8
 71
3
 72
8
 73
4
 74
0
 40
0
 40
0
 40
0
 40
0
 40
1
 40
1
 40
1
 40
1
 10
4.694854
 20
2.847455
 30
0.0
 10
4.706192
 20
2.834415
 30
0.0
 10
4.703357
 20
2.830730
 30
0.0
 10
4.680680
 20
2.830730
 30
0.0
  0
SPLINE
  5
1fb
100
AcDbEntity
  8
Layer_1
 62
7
100
AcDbSpline
 70
8
 71
3
 72
8
 73
4
 74
0
 40
0
 40
0
 40
0
 40
0
 40
1
 40
1
 40
1
 40
1
 10
4.680680
 20
2.830730
 30
0.0
 10
4.655169
 20
2.830730
 30
0.0
 10
4.651200
 20
2.834415
 30
0.0
 10
4.666507
 20
2.847455
 30
0.0
  0
LWPOLYLINE
  5
1fc
100
AcDbEntity
  8
Layer_1
 62
7
100
AcDbPolyline
 90
2
 70
0
 10
5.682756
 20
2.767716
 30
0.0
 10
5.682756
 20
2.767574
 30
0.0
  0
SPLINE
  5
1fd
100
AcDbEntity
  8
Layer_1
 62
7
100
AcDbSpline
 70
8
 71
3
 72
8
 73
4
 74
0
 40
0
 40
0
 40
0
 40
0
 40
1
 40
1
 40
1
 40
1
 10
4.949830
 20
2.949729
 30
0.0
 10
4.988665
 20
2.979322
 30
0.0
 10
5.080507
 20
2.988988
 30
0.0
 10
5.242365
 20
2.981108
 30
0.0
  0
SPLINE
  5
1fe
100
AcDbEntity
  8
Layer_1
 62
7
100
AcDbSpline
 70
8
 71
3
 72
8
 73
4
 74
0
 40
0
 40
0
 40
0
 40
0
 40
1
 40
1
 40
1
 40
1
 10
5.242365
 20
2.981108
 30
0.0
 10
5.373893
 20
2.974588
 30
0.0
 10
5.503436
 20
2.950040
 30
0.0
 10
5.487279
 20
2.934308
 30
0.0
  0
SPLINE
  5
1ff
100
AcDbEntity
  8
Layer_1
 62
7
100
AcDbSpline
 70
8
 71
3
 72
8
 73
4
 74
0
 40
0
 40
0
 40
0
 40
0
 40
1
 40
1
 40
1
 40
1
 10
5.487279
 20
2.934308
 30
0.0
 10
5.484444
 20
2.930623
 30
0.0
 10
5.452980
 20
2.934206
 30
0.0
 10
5.419247
 20
2.941962
 30
0.0
  0
SPLINE
  5
200
100
AcDbEntity
  8
Layer_1
 62
7
100
AcDbSpline
 70
8
 71
3
 72
8
 73
4
 74
0
 40
0
 40
0
 40
0
 40
0
 40
1
 40
1
 40
1
 40
1
 10
5.419247
 20
2.941962
 30
0.0
 10
5.340444
 20
2.960103
 30
0.0
 10
5.036031
 20
2.961237
 30
0.0
 10
4.971969
 20
2.943232
 30
0.0
  0
SPLINE
  5
201
100
AcDbEntity
  8
Layer_1
 62
7
100
AcDbSpline
 70
8
 71
3
 72
8
 73
4
 74
0
 40
0
 40
0
 40
0
 40
0
 40
1
 40
1
 40
1
 40
1
 10
4.971969
 20
2.943232
 30
0.0
 10
4.927748
 20
2.930759
 30
0.0
 10
4.925764
 20
2.931610
 30
0.0
 10
4.949291
 20
2.949751
 30
0.0
  0
LWPOLYLINE
  5
202
100
AcDbEntity
  8
Layer_1
 62
7
100
AcDbPolyline
 90
2
 70
0
 10
4.666507
 20
2.847455
 30
0.0
 10
4.661121
 20
2.847455
 30
0.0
  0
SPLINE
  5
203
100
AcDbEntity
  8
Layer_1
 62
7
100
AcDbSpline
 70
8
 71
3
 72
8
 73
4
 74
0
 40
0
 40
0
 40
0
 40
0
 40
1
 40
1
 40
1
 40
1
 10
5.699197
 20
2.994516
 30
0.0
 10
5.707701
 20
2.998485
 30
0.0
 10
5.721874
 20
2.998201
 30
0.0
 10
5.724709
 20
2.993419
 30
0.0
  0
SPLINE
  5
204
100
AcDbEntity
  8
Layer_1
 62
7
100
AcDbSpline
 70
8
 71
3
 72
8
 73
4
 74
0
 40
0
 40
0
 40
0
 40
0
 40
1
 40
1
 40
1
 40
1
 10
5.724709
 20
2.993419
 30
0.0
 10
5.730378
 20
2.988600
 30
0.0
 10
5.721874
 20
2.985482
 30
0.0
 10
5.704866
 20
2.986049
 30
0.0
  0
SPLINE
  5
205
100
AcDbEntity
  8
Layer_1
 62
7
100
AcDbSpline
 70
8
 71
3
 72
8
 73
4
 74
0
 40
0
 40
0
 40
0
 40
0
 40
1
 40
1
 40
1
 40
1
 10
5.704866
 20
2.986049
 30
0.0
 10
5.690693
 20
2.986712
 30
0.0
 10
5.685024
 20
2.990017
 30
0.0
 10
5.696362
 20
2.994269
 30
0.0
  0
LWPOLYLINE
  5
206
100
AcDbEntity
  8
Layer_1
 62
7
100
AcDbPolyline
 90
2
 70
0
 10
4.949291
 20
2.949751
 30
0.0
 10
4.949830
 20
2.949729
 30
0.0
  0
SPLINE
  5
207
100
AcDbEntity
  8
Layer_1
 62
7
100
AcDbSpline
 70
8
 71
3
 72
8
 73
4
 74
0
 40
0
 40
0
 40
0
 40
0
 40
1
 40
1
 40
1
 40
1
 10
5.713370
 20
3.041033
 30
0.0
 10
5.713370
 20
3.048686
 30
0.0
 10
5.719039
 20
3.055206
 30
0.0
 10
5.724709
 20
3.055206
 30
0.0
  0
SPLINE
  5
208
100
AcDbEntity
  8
Layer_1
 62
7
100
AcDbSpline
 70
8
 71
3
 72
8
 73
4
 74
0
 40
0
 40
0
 40
0
 40
0
 40
1
 40
1
 40
1
 40
1
 10
5.724709
 20
3.055206
 30
0.0
 10
5.733213
 20
3.055206
 30
0.0
 10
5.736047
 20
3.048686
 30
0.0
 10
5.736047
 20
3.041033
 30
0.0
  0
SPLINE
  5
209
100
AcDbEntity
  8
Layer_1
 62
7
100
AcDbSpline
 70
8
 71
3
 72
8
 73
4
 74
0
 40
0
 40
0
 40
0
 40
0
 40
1
 40
1
 40
1
 40
1
 10
5.736047
 20
3.041033
 30
0.0
 10
5.736047
 20
3.033379
 30
0.0
 10
5.730378
 20
3.026859
 30
0.0
 10
5.724709
 20
3.026859
 30
0.0
  0
SPLINE
  5
20a
100
AcDbEntity
  8
Layer_1
 62
7
100
AcDbSpline
 70
8
 71
3
 72
8
 73
4
 74
0
 40
0
 40
0
 40
0
 40
0
 40
1
 40
1
 40
1
 40
1
 10
5.724709
 20
3.026859
 30
0.0
 10
5.716205
 20
3.026859
 30
0.0
 10
5.713370
 20
3.033379
 30
0.0
 10
5.713370
 20
3.041033
 30
0.0
  0
LWPOLYLINE
  5
20b
100
AcDbEntity
  8
Layer_1
 62
7
100
AcDbPolyline
 90
2
 70
0
 10
5.696362
 20
2.994269
 30
0.0
 10
5.699197
 20
2.994516
 30
0.0
  0
SPLINE
  5
20c
100
AcDbEntity
  8
Layer_1
 62
7
100
AcDbSpline
 70
8
 71
3
 72
8
 73
4
 74
0
 40
0
 40
0
 40
0
 40
0
 40
1
 40
1
 40
1
 40
1
 10
4.542151
 20
3.125165
 30
0.0
 10
4.536482
 20
3.132818
 30
0.0
 10
4.541783
 20
3.139338
 30
0.0
 10
4.550655
 20
3.139338
 30
0.0
  0
SPLINE
  5
20d
100
AcDbEntity
  8
Layer_1
 62
7
100
AcDbSpline
 70
8
 71
3
 72
8
 73
4
 74
0
 40
0
 40
0
 40
0
 40
0
 40
1
 40
1
 40
1
 40
1
 10
4.550655
 20
3.139338
 30
0.0
 10
4.561994
 20
3.139491
 30
0.0
 10
4.561994
 20
3.143307
 30
0.0
 10
4.547820
 20
3.152944
 30
0.0
  0
SPLINE
  5
20e
100
AcDbEntity
  8
Layer_1
 62
7
100
AcDbSpline
 70
8
 71
3
 72
8
 73
4
 74
0
 40
0
 40
0
 40
0
 40
0
 40
1
 40
1
 40
1
 40
1
 10
4.547820
 20
3.152944
 30
0.0
 10
4.527978
 20
3.164566
 30
0.0
 10
4.527978
 20
3.166551
 30
0.0
 10
4.549493
 20
3.166551
 30
0.0
  0
SPLINE
  5
20f
100
AcDbEntity
  8
Layer_1
 62
7
100
AcDbSpline
 70
8
 71
3
 72
8
 73
4
 74
0
 40
0
 40
0
 40
0
 40
0
 40
1
 40
1
 40
1
 40
1
 10
4.549493
 20
3.166551
 30
0.0
 10
4.560831
 20
3.166658
 30
0.0
 10
4.575005
 20
3.158330
 30
0.0
 10
4.578973
 20
3.146992
 30
0.0
  0
SPLINE
  5
210
100
AcDbEntity
  8
Layer_1
 62
7
100
AcDbSpline
 70
8
 71
3
 72
8
 73
4
 74
0
 40
0
 40
0
 40
0
 40
0
 40
1
 40
1
 40
1
 40
1
 10
4.578973
 20
3.146992
 30
0.0
 10
4.590312
 20
3.114960
 30
0.0
 10
4.556296
 20
3.095599
 30
0.0
 10
4.539288
 20
3.124881
 30
0.0
  0
LWPOLYLINE
  5
211
100
AcDbEntity
  8
Layer_1
 62
7
100
AcDbPolyline
 90
1
 70
1
 10
5.713370
 20
3.041033
 30
0.0
  0
SPLINE
  5
212
100
AcDbEntity
  8
Layer_1
 62
7
100
AcDbSpline
 70
8
 71
3
 72
8
 73
4
 74
0
 40
0
 40
0
 40
0
 40
0
 40
1
 40
1
 40
1
 40
1
 10
5.741433
 20
3.139338
 30
0.0
 10
5.741433
 20
3.146992
 30
0.0
 10
5.749937
 20
3.153511
 30
0.0
 10
5.764110
 20
3.153511
 30
0.0
  0
SPLINE
  5
213
100
AcDbEntity
  8
Layer_1
 62
7
100
AcDbSpline
 70
8
 71
3
 72
8
 73
4
 74
0
 40
0
 40
0
 40
0
 40
0
 40
1
 40
1
 40
1
 40
1
 10
5.764110
 20
3.153511
 30
0.0
 10
5.775449
 20
3.153511
 30
0.0
 10
5.783953
 20
3.146992
 30
0.0
 10
5.775449
 20
3.139338
 30
0.0
  0
SPLINE
  5
214
100
AcDbEntity
  8
Layer_1
 62
7
100
AcDbSpline
 70
8
 71
3
 72
8
 73
4
 74
0
 40
0
 40
0
 40
0
 40
0
 40
1
 40
1
 40
1
 40
1
 10
5.775449
 20
3.139338
 30
0.0
 10
5.769780
 20
3.131685
 30
0.0
 10
5.761276
 20
3.125165
 30
0.0
 10
5.752772
 20
3.125165
 30
0.0
  0
SPLINE
  5
215
100
AcDbEntity
  8
Layer_1
 62
7
100
AcDbSpline
 70
8
 71
3
 72
8
 73
4
 74
0
 40
0
 40
0
 40
0
 40
0
 40
1
 40
1
 40
1
 40
1
 10
5.752772
 20
3.125165
 30
0.0
 10
5.747102
 20
3.125165
 30
0.0
 10
5.741433
 20
3.131685
 30
0.0
 10
5.741433
 20
3.139338
 30
0.0
  0
LWPOLYLINE
  5
216
100
AcDbEntity
  8
Layer_1
 62
7
100
AcDbPolyline
 90
2
 70
0
 10
4.539288
 20
3.124881
 30
0.0
 10
4.542151
 20
3.125165
 30
0.0
  0
SPLINE
  5
217
100
AcDbEntity
  8
Layer_1
 62
7
100
AcDbSpline
 70
8
 71
3
 72
8
 73
4
 74
0
 40
0
 40
0
 40
0
 40
0
 40
1
 40
1
 40
1
 40
1
 10
5.752772
 20
3.264743
 30
0.0
 10
5.752772
 20
3.305505
 30
0.0
 10
5.775449
 20
3.333114
 30
0.0
 10
5.791890
 20
3.315313
 30
0.0
  0
SPLINE
  5
218
100
AcDbEntity
  8
Layer_1
 62
7
100
AcDbSpline
 70
8
 71
3
 72
8
 73
4
 74
0
 40
0
 40
0
 40
0
 40
0
 40
1
 40
1
 40
1
 40
1
 10
5.791890
 20
3.315313
 30
0.0
 10
5.797559
 20
3.309927
 30
0.0
 10
5.791805
 20
3.300289
 30
0.0
 10
5.780551
 20
3.293203
 30
0.0
  0
SPLINE
  5
219
100
AcDbEntity
  8
Layer_1
 62
7
100
AcDbSpline
 70
8
 71
3
 72
8
 73
4
 74
0
 40
0
 40
0
 40
0
 40
0
 40
1
 40
1
 40
1
 40
1
 10
5.780551
 20
3.293203
 30
0.0
 10
5.766378
 20
3.281864
 30
0.0
 10
5.766378
 20
3.278179
 30
0.0
 10
5.779247
 20
3.267691
 30
0.0
  0
SPLINE
  5
21a
100
AcDbEntity
  8
Layer_1
 62
7
100
AcDbSpline
 70
8
 71
3
 72
8
 73
4
 74
0
 40
0
 40
0
 40
0
 40
0
 40
1
 40
1
 40
1
 40
1
 10
5.779247
 20
3.267691
 30
0.0
 10
5.787751
 20
3.260888
 30
0.0
 10
5.793420
 20
3.248132
 30
0.0
 10
5.787751
 20
3.239628
 30
0.0
  0
SPLINE
  5
21b
100
AcDbEntity
  8
Layer_1
 62
7
100
AcDbSpline
 70
8
 71
3
 72
8
 73
4
 74
0
 40
0
 40
0
 40
0
 40
0
 40
1
 40
1
 40
1
 40
1
 10
5.787751
 20
3.239628
 30
0.0
 10
5.773578
 20
3.210941
 30
0.0
 10
5.752035
 20
3.223754
 30
0.0
 10
5.752035
 20
3.265140
 30
0.0
  0
LWPOLYLINE
  5
21c
100
AcDbEntity
  8
Layer_1
 62
7
100
AcDbPolyline
 90
1
 70
1
 10
5.741433
 20
3.139338
 30
0.0
  0
SPLINE
  5
21d
100
AcDbEntity
  8
Layer_1
 62
7
100
AcDbSpline
 70
8
 71
3
 72
8
 73
4
 74
0
 40
0
 40
0
 40
0
 40
0
 40
1
 40
1
 40
1
 40
1
 10
4.525483
 20
3.279483
 30
0.0
 10
4.531153
 20
3.287136
 30
0.0
 10
4.536822
 20
3.293656
 30
0.0
 10
4.539657
 20
3.293656
 30
0.0
  0
SPLINE
  5
21e
100
AcDbEntity
  8
Layer_1
 62
7
100
AcDbSpline
 70
8
 71
3
 72
8
 73
4
 74
0
 40
0
 40
0
 40
0
 40
0
 40
1
 40
1
 40
1
 40
1
 10
4.539657
 20
3.293656
 30
0.0
 10
4.542491
 20
3.293656
 30
0.0
 10
4.545326
 20
3.287136
 30
0.0
 10
4.545326
 20
3.279483
 30
0.0
  0
SPLINE
  5
21f
100
AcDbEntity
  8
Layer_1
 62
7
100
AcDbSpline
 70
8
 71
3
 72
8
 73
4
 74
0
 40
0
 40
0
 40
0
 40
0
 40
1
 40
1
 40
1
 40
1
 10
4.545326
 20
3.279483
 30
0.0
 10
4.545326
 20
3.271829
 30
0.0
 10
4.539657
 20
3.265310
 30
0.0
 10
4.531153
 20
3.265310
 30
0.0
  0
SPLINE
  5
220
100
AcDbEntity
  8
Layer_1
 62
7
100
AcDbSpline
 70
8
 71
3
 72
8
 73
4
 74
0
 40
0
 40
0
 40
0
 40
0
 40
1
 40
1
 40
1
 40
1
 10
4.531153
 20
3.265310
 30
0.0
 10
4.522649
 20
3.265310
 30
0.0
 10
4.519814
 20
3.271829
 30
0.0
 10
4.525483
 20
3.279483
 30
0.0
  0
LWPOLYLINE
  5
221
100
AcDbEntity
  8
Layer_1
 62
7
100
AcDbPolyline
 90
2
 70
0
 10
5.752035
 20
3.265140
 30
0.0
 10
5.752772
 20
3.264743
 30
0.0
  0
SPLINE
  5
222
100
AcDbEntity
  8
Layer_1
 62
7
100
AcDbSpline
 70
8
 71
3
 72
8
 73
4
 74
0
 40
0
 40
0
 40
0
 40
0
 40
1
 40
1
 40
1
 40
1
 10
4.514145
 20
3.330903
 30
0.0
 10
4.499972
 20
3.348195
 30
0.0
 10
4.505641
 20
3.377675
 30
0.0
 10
4.525483
 20
3.377675
 30
0.0
  0
SPLINE
  5
223
100
AcDbEntity
  8
Layer_1
 62
7
100
AcDbSpline
 70
8
 71
3
 72
8
 73
4
 74
0
 40
0
 40
0
 40
0
 40
0
 40
1
 40
1
 40
1
 40
1
 10
4.525483
 20
3.377675
 30
0.0
 10
4.536822
 20
3.377675
 30
0.0
 10
4.548161
 20
3.365203
 30
0.0
 10
4.548161
 20
3.349612
 30
0.0
  0
SPLINE
  5
224
100
AcDbEntity
  8
Layer_1
 62
7
100
AcDbSpline
 70
8
 71
3
 72
8
 73
4
 74
0
 40
0
 40
0
 40
0
 40
0
 40
1
 40
1
 40
1
 40
1
 10
4.548161
 20
3.349612
 30
0.0
 10
4.548161
 20
3.321833
 30
0.0
 10
4.533987
 20
3.313130
 30
0.0
 10
4.515562
 20
3.330903
 30
0.0
  0
LWPOLYLINE
  5
225
100
AcDbEntity
  8
Layer_1
 62
7
100
AcDbPolyline
 90
1
 70
1
 10
4.525483
 20
3.279483
 30
0.0
  0
SPLINE
  5
226
100
AcDbEntity
  8
Layer_1
 62
7
100
AcDbSpline
 70
8
 71
3
 72
8
 73
4
 74
0
 40
0
 40
0
 40
0
 40
0
 40
1
 40
1
 40
1
 40
1
 10
5.764535
 20
3.358966
 30
0.0
 10
5.773039
 20
3.362935
 30
0.0
 10
5.787213
 20
3.362651
 30
0.0
 10
5.790047
 20
3.357872
 30
0.0
  0
SPLINE
  5
227
100
AcDbEntity
  8
Layer_1
 62
7
100
AcDbSpline
 70
8
 71
3
 72
8
 73
4
 74
0
 40
0
 40
0
 40
0
 40
0
 40
1
 40
1
 40
1
 40
1
 10
5.790047
 20
3.357872
 30
0.0
 10
5.795717
 20
3.353053
 30
0.0
 10
5.787213
 20
3.349935
 30
0.0
 10
5.770205
 20
3.350502
 30
0.0
  0
SPLINE
  5
228
100
AcDbEntity
  8
Layer_1
 62
7
100
AcDbSpline
 70
8
 71
3
 72
8
 73
4
 74
0
 40
0
 40
0
 40
0
 40
0
 40
1
 40
1
 40
1
 40
1
 10
5.770205
 20
3.350502
 30
0.0
 10
5.756031
 20
3.351163
 30
0.0
 10
5.750362
 20
3.354471
 30
0.0
 10
5.761701
 20
3.358723
 30
0.0
  0
LWPOLYLINE
  5
229
100
AcDbEntity
  8
Layer_1
 62
7
100
AcDbPolyline
 90
2
 70
0
 10
4.515562
 20
3.330903
 30
0.0
 10
4.514145
 20
3.330903
 30
0.0
  0
SPLINE
  5
22a
100
AcDbEntity
  8
Layer_1
 62
7
100
AcDbSpline
 70
8
 71
3
 72
8
 73
4
 74
0
 40
0
 40
0
 40
0
 40
0
 40
1
 40
1
 40
1
 40
1
 10
5.097940
 20
4.061083
 30
0.0
 10
5.142444
 20
4.063917
 30
0.0
 10
5.211893
 20
4.063917
 30
0.0
 10
5.252428
 20
4.061026
 30
0.0
  0
SPLINE
  5
22b
100
AcDbEntity
  8
Layer_1
 62
7
100
AcDbSpline
 70
8
 71
3
 72
8
 73
4
 74
0
 40
0
 40
0
 40
0
 40
0
 40
1
 40
1
 40
1
 40
1
 10
5.252428
 20
4.061026
 30
0.0
 10
5.292680
 20
4.058191
 30
0.0
 10
5.255263
 20
4.055640
 30
0.0
 10
5.171074
 20
4.055640
 30
0.0
  0
SPLINE
  5
22c
100
AcDbEntity
  8
Layer_1
 62
7
100
AcDbSpline
 70
8
 71
3
 72
8
 73
4
 74
0
 40
0
 40
0
 40
0
 40
0
 40
1
 40
1
 40
1
 40
1
 10
5.171074
 20
4.055640
 30
0.0
 10
5.086318
 20
4.055668
 30
0.0
 10
5.053436
 20
4.057990
 30
0.0
 10
5.097940
 20
4.061026
 30
0.0
  0
LWPOLYLINE
  5
22d
100
AcDbEntity
  8
Layer_1
 62
7
100
AcDbPolyline
 90
2
 70
0
 10
5.761701
 20
3.358723
 30
0.0
 10
5.764535
 20
3.358966
 30
0.0
  0
SPLINE
  5
22e
100
AcDbEntity
  8
Layer_1
 62
7
100
AcDbSpline
 70
8
 71
3
 72
8
 73
4
 74
0
 40
0
 40
0
 40
0
 40
0
 40
1
 40
1
 40
1
 40
1
 10
3.593112
 20
1.434330
 30
0.0
 10
3.764891
 20
1.487593
 30
0.0
 10
3.969780
 20
1.630402
 30
0.0
 10
4.131581
 20
1.809566
 30
0.0
  0
SPLINE
  5
22f
100
AcDbEntity
  8
Layer_1
 62
7
100
AcDbSpline
 70
8
 71
3
 72
8
 73
4
 74
0
 40
0
 40
0
 40
0
 40
0
 40
1
 40
1
 40
1
 40
1
 10
4.131581
 20
1.809566
 30
0.0
 10
4.268211
 20
1.960936
 30
0.0
 10
4.432876
 20
2.185352
 30
0.0
 10
4.448409
 20
2.241311
 30
0.0
  0
SPLINE
  5
230
100
AcDbEntity
  8
Layer_1
 62
7
100
AcDbSpline
 70
8
 71
3
 72
8
 73
4
 74
0
 40
0
 40
0
 40
0
 40
0
 40
1
 40
1
 40
1
 40
1
 10
4.448409
 20
2.241311
 30
0.0
 10
4.522677
 20
2.510149
 30
0.0
 10
4.543087
 20
2.599678
 30
0.0
 10
4.531748
 20
2.603658
 30
0.0
  0
SPLINE
  5
231
100
AcDbEntity
  8
Layer_1
 62
7
100
AcDbSpline
 70
8
 71
3
 72
8
 73
4
 74
0
 40
0
 40
0
 40
0
 40
0
 40
1
 40
1
 40
1
 40
1
 10
4.531748
 20
2.603658
 30
0.0
 10
4.509071
 20
2.611312
 30
0.0
 10
4.517575
 20
2.634074
 30
0.0
 10
4.540252
 20
2.634074
 30
0.0
  0
SPLINE
  5
232
100
AcDbEntity
  8
Layer_1
 62
7
100
AcDbSpline
 70
8
 71
3
 72
8
 73
4
 74
0
 40
0
 40
0
 40
0
 40
0
 40
1
 40
1
 40
1
 40
1
 10
4.540252
 20
2.634074
 30
0.0
 10
4.560094
 20
2.634074
 30
0.0
 10
4.554425
 20
2.640877
 30
0.0
 10
4.531748
 20
2.672171
 30
0.0
  0
SPLINE
  5
233
100
AcDbEntity
  8
Layer_1
 62
7
100
AcDbSpline
 70
8
 71
3
 72
8
 73
4
 74
0
 40
0
 40
0
 40
0
 40
0
 40
1
 40
1
 40
1
 40
1
 10
4.531748
 20
2.672171
 30
0.0
 10
4.506236
 20
2.704543
 30
0.0
 10
4.506236
 20
2.711403
 30
0.0
 10
4.523244
 20
2.717753
 30
0.0
  0
SPLINE
  5
234
100
AcDbEntity
  8
Layer_1
 62
7
100
AcDbSpline
 70
8
 71
3
 72
8
 73
4
 74
0
 40
0
 40
0
 40
0
 40
0
 40
1
 40
1
 40
1
 40
1
 10
4.523244
 20
2.717753
 30
0.0
 10
4.548756
 20
2.726823
 30
0.0
 10
4.534583
 20
2.750124
 30
0.0
 10
4.493764
 20
2.772745
 30
0.0
  0
SPLINE
  5
235
100
AcDbEntity
  8
Layer_1
 62
7
100
AcDbSpline
 70
8
 71
3
 72
8
 73
4
 74
0
 40
0
 40
0
 40
0
 40
0
 40
1
 40
1
 40
1
 40
1
 10
4.493764
 20
2.772745
 30
0.0
 10
4.458898
 20
2.791170
 30
0.0
 10
4.450110
 20
2.820253
 30
0.0
 10
4.485260
 20
2.807469
 30
0.0
  0
SPLINE
  5
236
100
AcDbEntity
  8
Layer_1
 62
7
100
AcDbSpline
 70
8
 71
3
 72
8
 73
4
 74
0
 40
0
 40
0
 40
0
 40
0
 40
1
 40
1
 40
1
 40
1
 10
4.485260
 20
2.807469
 30
0.0
 10
4.524378
 20
2.792729
 30
0.0
 10
4.507937
 20
2.813989
 30
0.0
 10
4.452945
 20
2.845765
 30
0.0
  0
SPLINE
  5
237
100
AcDbEntity
  8
Layer_1
 62
7
100
AcDbSpline
 70
8
 71
3
 72
8
 73
4
 74
0
 40
0
 40
0
 40
0
 40
0
 40
1
 40
1
 40
1
 40
1
 10
4.452945
 20
2.845765
 30
0.0
 10
4.423465
 20
2.863340
 30
0.0
 10
4.388882
 20
2.888937
 30
0.0
 10
4.375276
 20
2.902997
 30
0.0
  0
SPLINE
  5
238
100
AcDbEntity
  8
Layer_1
 62
7
100
AcDbSpline
 70
8
 71
3
 72
8
 73
4
 74
0
 40
0
 40
0
 40
0
 40
0
 40
1
 40
1
 40
1
 40
1
 10
4.375276
 20
2.902997
 30
0.0
 10
4.363937
 20
2.917170
 30
0.0
 10
4.331906
 20
2.928508
 30
0.0
 10
4.309512
 20
2.928508
 30
0.0
  0
SPLINE
  5
239
100
AcDbEntity
  8
Layer_1
 62
7
100
AcDbSpline
 70
8
 71
3
 72
8
 73
4
 74
0
 40
0
 40
0
 40
0
 40
0
 40
1
 40
1
 40
1
 40
1
 10
4.309512
 20
2.928508
 30
0.0
 10
4.254520
 20
2.928508
 30
0.0
 10
4.244031
 20
2.950619
 30
0.0
 10
4.289669
 20
2.968307
 30
0.0
  0
SPLINE
  5
23a
100
AcDbEntity
  8
Layer_1
 62
7
100
AcDbSpline
 70
8
 71
3
 72
8
 73
4
 74
0
 40
0
 40
0
 40
0
 40
0
 40
1
 40
1
 40
1
 40
1
 10
4.289669
 20
2.968307
 30
0.0
 10
4.326236
 20
2.981630
 30
0.0
 10
4.326803
 20
2.982480
 30
0.0
 10
4.295339
 20
2.983330
 30
0.0
  0
SPLINE
  5
23b
100
AcDbEntity
  8
Layer_1
 62
7
100
AcDbSpline
 70
8
 71
3
 72
8
 73
4
 74
0
 40
0
 40
0
 40
0
 40
0
 40
1
 40
1
 40
1
 40
1
 10
4.295339
 20
2.983330
 30
0.0
 10
4.272661
 20
2.984107
 30
0.0
 10
4.265858
 20
2.990701
 30
0.0
 10
4.269827
 20
3.004874
 30
0.0
  0
SPLINE
  5
23c
100
AcDbEntity
  8
Layer_1
 62
7
100
AcDbSpline
 70
8
 71
3
 72
8
 73
4
 74
0
 40
0
 40
0
 40
0
 40
0
 40
1
 40
1
 40
1
 40
1
 10
4.269827
 20
3.004874
 30
0.0
 10
4.278331
 20
3.026417
 30
0.0
 10
4.275496
 20
3.026417
 30
0.0
 10
4.117890
 20
2.997220
 30
0.0
  0
SPLINE
  5
23d
100
AcDbEntity
  8
Layer_1
 62
7
100
AcDbSpline
 70
8
 71
3
 72
8
 73
4
 74
0
 40
0
 40
0
 40
0
 40
0
 40
1
 40
1
 40
1
 40
1
 10
4.117890
 20
2.997220
 30
0.0
 10
4.035685
 20
2.982197
 30
0.0
 10
2.570258
 20
2.975960
 30
0.0
 10
2.497493
 20
2.990417
 30
0.0
  0
SPLINE
  5
23e
100
AcDbEntity
  8
Layer_1
 62
7
100
AcDbSpline
 70
8
 71
3
 72
8
 73
4
 74
0
 40
0
 40
0
 40
0
 40
0
 40
1
 40
1
 40
1
 40
1
 10
2.497493
 20
2.990417
 30
0.0
 10
2.455540
 20
2.998638
 30
0.0
 10
2.423509
 20
2.988572
 30
0.0
 10
2.280076
 20
2.921365
 30
0.0
  0
SPLINE
  5
23f
100
AcDbEntity
  8
Layer_1
 62
7
100
AcDbSpline
 70
8
 71
3
 72
8
 73
4
 74
0
 40
0
 40
0
 40
0
 40
0
 40
1
 40
1
 40
1
 40
1
 10
2.280076
 20
2.921365
 30
0.0
 10
1.867578
 20
2.727560
 30
0.0
 10
1.538986
 20
2.423125
 30
0.0
 10
1.541509
 20
2.237110
 30
0.0
  0
SPLINE
  5
240
100
AcDbEntity
  8
Layer_1
 62
7
100
AcDbSpline
 70
8
 71
3
 72
8
 73
4
 74
0
 40
0
 40
0
 40
0
 40
0
 40
1
 40
1
 40
1
 40
1
 10
1.541509
 20
2.237110
 30
0.0
 10
1.542416
 20
2.167434
 30
0.0
 10
1.637036
 20
2.038912
 30
0.0
 10
1.833194
 20
1.841022
 30
0.0
  0
SPLINE
  5
241
100
AcDbEntity
  8
Layer_1
 62
7
100
AcDbSpline
 70
8
 71
3
 72
8
 73
4
 74
0
 40
0
 40
0
 40
0
 40
0
 40
1
 40
1
 40
1
 40
1
 10
1.833194
 20
1.841022
 30
0.0
 10
2.071020
 20
1.600616
 30
0.0
 10
2.273953
 20
1.491448
 30
0.0
 10
2.561131
 20
1.449045
 30
0.0
  0
SPLINE
  5
242
100
AcDbEntity
  8
Layer_1
 62
7
100
AcDbSpline
 70
8
 71
3
 72
8
 73
4
 74
0
 40
0
 40
0
 40
0
 40
0
 40
1
 40
1
 40
1
 40
1
 10
2.561131
 20
1.449045
 30
0.0
 10
2.850435
 20
1.406298
 30
0.0
 10
2.925921
 20
1.401337
 30
0.0
 10
3.220328
 20
1.405674
 30
0.0
  0
SPLINE
  5
243
100
AcDbEntity
  8
Layer_1
 62
7
100
AcDbSpline
 70
8
 71
3
 72
8
 73
4
 74
0
 40
0
 40
0
 40
0
 40
0
 40
1
 40
1
 40
1
 40
1
 10
3.220328
 20
1.405674
 30
0.0
 10
3.448800
 20
1.408793
 30
0.0
 10
3.532309
 20
1.415312
 30
0.0
 10
3.592063
 20
1.433737
 30
0.0
  0
LWPOLYLINE
  5
244
100
AcDbEntity
  8
Layer_1
 62
7
100
AcDbPolyline
 90
1
 70
1
 10
5.097940
 20
4.061026
 30
0.0
  0
SPLINE
  5
245
100
AcDbEntity
  8
Layer_1
 62
7
100
AcDbSpline
 70
8
 71
3
 72
8
 73
4
 74
0
 40
0
 40
0
 40
0
 40
0
 40
1
 40
1
 40
1
 40
1
 10
7.555550
 20
1.420440
 30
0.0
 10
7.945994
 20
1.464349
 30
0.0
 10
8.066211
 20
1.500547
 30
0.0
 10
8.270447
 20
1.635760
 30
0.0
  0
SPLINE
  5
246
100
AcDbEntity
  8
Layer_1
 62
7
100
AcDbSpline
 70
8
 71
3
 72
8
 73
4
 74
0
 40
0
 40
0
 40
0
 40
0
 40
1
 40
1
 40
1
 40
1
 10
8.270447
 20
1.635760
 30
0.0
 10
8.452715
 20
1.756374
 30
0.0
 10
8.782413
 20
2.120467
 30
0.0
 10
8.801263
 20
2.221743
 30
0.0
  0
SPLINE
  5
247
100
AcDbEntity
  8
Layer_1
 62
7
100
AcDbSpline
 70
8
 71
3
 72
8
 73
4
 74
0
 40
0
 40
0
 40
0
 40
0
 40
1
 40
1
 40
1
 40
1
 10
8.801263
 20
2.221743
 30
0.0
 10
8.806932
 20
2.253123
 30
0.0
 10
8.798428
 20
2.289548
 30
0.0
 10
8.768098
 20
2.351967
 30
0.0
  0
SPLINE
  5
248
100
AcDbEntity
  8
Layer_1
 62
7
100
AcDbSpline
 70
8
 71
3
 72
8
 73
4
 74
0
 40
0
 40
0
 40
0
 40
0
 40
1
 40
1
 40
1
 40
1
 10
8.768098
 20
2.351967
 30
0.0
 10
8.685326
 20
2.527063
 30
0.0
 10
8.391940
 20
2.764859
 30
0.0
 10
8.072646
 20
2.915792
 30
0.0
  0
SPLINE
  5
249
100
AcDbEntity
  8
Layer_1
 62
7
100
AcDbSpline
 70
8
 71
3
 72
8
 73
4
 74
0
 40
0
 40
0
 40
0
 40
0
 40
1
 40
1
 40
1
 40
1
 10
8.072646
 20
2.915792
 30
0.0
 10
7.925528
 20
2.985213
 30
0.0
 10
7.886976
 20
2.998167
 30
0.0
 10
7.851260
 20
2.989918
 30
0.0
  0
SPLINE
  5
24a
100
AcDbEntity
  8
Layer_1
 62
7
100
AcDbSpline
 70
8
 71
3
 72
8
 73
4
 74
0
 40
0
 40
0
 40
0
 40
0
 40
1
 40
1
 40
1
 40
1
 10
7.851260
 20
2.989918
 30
0.0
 10
7.789181
 20
2.975745
 30
0.0
 10
6.289824
 20
2.982832
 30
0.0
 10
6.230296
 20
2.997572
 30
0.0
  0
SPLINE
  5
24b
100
AcDbEntity
  8
Layer_1
 62
7
100
AcDbSpline
 70
8
 71
3
 72
8
 73
4
 74
0
 40
0
 40
0
 40
0
 40
0
 40
1
 40
1
 40
1
 40
1
 10
6.230296
 20
2.997572
 30
0.0
 10
6.204784
 20
3.004375
 30
0.0
 10
6.147808
 20
3.013729
 30
0.0
 10
6.107272
 20
3.018832
 30
0.0
  0
SPLINE
  5
24c
100
AcDbEntity
  8
Layer_1
 62
7
100
AcDbSpline
 70
8
 71
3
 72
8
 73
4
 74
0
 40
0
 40
0
 40
0
 40
0
 40
1
 40
1
 40
1
 40
1
 10
6.107272
 20
3.018832
 30
0.0
 10
6.044910
 20
3.026202
 30
0.0
 10
6.034989
 20
3.024501
 30
0.0
 10
6.042076
 20
3.006076
 30
0.0
  0
SPLINE
  5
24d
100
AcDbEntity
  8
Layer_1
 62
7
100
AcDbSpline
 70
8
 71
3
 72
8
 73
4
 74
0
 40
0
 40
0
 40
0
 40
0
 40
1
 40
1
 40
1
 40
1
 10
6.042076
 20
3.006076
 30
0.0
 10
6.047745
 20
2.990485
 30
0.0
 10
6.040998
 20
2.984532
 30
0.0
 10
6.016564
 20
2.983399
 30
0.0
  0
SPLINE
  5
24e
100
AcDbEntity
  8
Layer_1
 62
7
100
AcDbSpline
 70
8
 71
3
 72
8
 73
4
 74
0
 40
0
 40
0
 40
0
 40
0
 40
1
 40
1
 40
1
 40
1
 10
6.016564
 20
2.983399
 30
0.0
 10
5.984249
 20
2.982358
 30
0.0
 10
5.984249
 20
2.981556
 30
0.0
 10
6.022233
 20
2.968375
 30
0.0
  0
SPLINE
  5
24f
100
AcDbEntity
  8
Layer_1
 62
7
100
AcDbSpline
 70
8
 71
3
 72
8
 73
4
 74
0
 40
0
 40
0
 40
0
 40
0
 40
1
 40
1
 40
1
 40
1
 10
6.022233
 20
2.968375
 30
0.0
 10
6.069855
 20
2.951084
 30
0.0
 10
6.059650
 20
2.928576
 30
0.0
 10
6.002391
 20
2.928576
 30
0.0
  0
SPLINE
  5
250
100
AcDbEntity
  8
Layer_1
 62
7
100
AcDbSpline
 70
8
 71
3
 72
8
 73
4
 74
0
 40
0
 40
0
 40
0
 40
0
 40
1
 40
1
 40
1
 40
1
 10
6.002391
 20
2.928576
 30
0.0
 10
5.979713
 20
2.928576
 30
0.0
 10
5.950233
 20
2.916954
 30
0.0
 10
5.936627
 20
2.902214
 30
0.0
  0
SPLINE
  5
251
100
AcDbEntity
  8
Layer_1
 62
7
100
AcDbSpline
 70
8
 71
3
 72
8
 73
4
 74
0
 40
0
 40
0
 40
0
 40
0
 40
1
 40
1
 40
1
 40
1
 10
5.936627
 20
2.902214
 30
0.0
 10
5.925288
 20
2.887758
 30
0.0
 10
5.891272
 20
2.865704
 30
0.0
 10
5.866894
 20
2.853232
 30
0.0
  0
SPLINE
  5
252
100
AcDbEntity
  8
Layer_1
 62
7
100
AcDbSpline
 70
8
 71
3
 72
8
 73
4
 74
0
 40
0
 40
0
 40
0
 40
0
 40
1
 40
1
 40
1
 40
1
 10
5.866894
 20
2.853232
 30
0.0
 10
5.818422
 20
2.828570
 30
0.0
 10
5.784690
 20
2.790954
 30
0.0
 10
5.825225
 20
2.806432
 30
0.0
  0
SPLINE
  5
253
100
AcDbEntity
  8
Layer_1
 62
7
100
AcDbSpline
 70
8
 71
3
 72
8
 73
4
 74
0
 40
0
 40
0
 40
0
 40
0
 40
1
 40
1
 40
1
 40
1
 10
5.825225
 20
2.806432
 30
0.0
 10
5.864910
 20
2.821455
 30
0.0
 10
5.850737
 20
2.791408
 30
0.0
 10
5.805383
 20
2.764932
 30
0.0
  0
SPLINE
  5
254
100
AcDbEntity
  8
Layer_1
 62
7
100
AcDbSpline
 70
8
 71
3
 72
8
 73
4
 74
0
 40
0
 40
0
 40
0
 40
0
 40
1
 40
1
 40
1
 40
1
 10
5.805383
 20
2.764932
 30
0.0
 10
5.759745
 20
2.738003
 30
0.0
 10
5.750957
 20
2.718076
 30
0.0
 10
5.785540
 20
2.718076
 30
0.0
  0
SPLINE
  5
255
100
AcDbEntity
  8
Layer_1
 62
7
100
AcDbSpline
 70
8
 71
3
 72
8
 73
4
 74
0
 40
0
 40
0
 40
0
 40
0
 40
1
 40
1
 40
1
 40
1
 10
5.785540
 20
2.718076
 30
0.0
 10
5.805383
 20
2.718076
 30
0.0
 10
5.805383
 20
2.714107
 30
0.0
 10
5.784803
 20
2.684287
 30
0.0
  0
SPLINE
  5
256
100
AcDbEntity
  8
Layer_1
 62
7
100
AcDbSpline
 70
8
 71
3
 72
8
 73
4
 74
0
 40
0
 40
0
 40
0
 40
0
 40
1
 40
1
 40
1
 40
1
 10
5.784803
 20
2.684287
 30
0.0
 10
5.770630
 20
2.662176
 30
0.0
 10
5.770630
 20
2.647465
 30
0.0
 10
5.779134
 20
2.641370
 30
0.0
  0
SPLINE
  5
257
100
AcDbEntity
  8
Layer_1
 62
7
100
AcDbSpline
 70
8
 71
3
 72
8
 73
4
 74
0
 40
0
 40
0
 40
0
 40
0
 40
1
 40
1
 40
1
 40
1
 10
5.779134
 20
2.641370
 30
0.0
 10
5.787638
 20
2.635984
 30
0.0
 10
5.793307
 20
2.619260
 30
0.0
 10
5.793307
 20
2.603244
 30
0.0
  0
SPLINE
  5
258
100
AcDbEntity
  8
Layer_1
 62
7
100
AcDbSpline
 70
8
 71
3
 72
8
 73
4
 74
0
 40
0
 40
0
 40
0
 40
0
 40
1
 40
1
 40
1
 40
1
 10
5.793307
 20
2.603244
 30
0.0
 10
5.793307
 20
2.587370
 30
0.0
 10
5.807480
 20
2.500885
 30
0.0
 10
5.831575
 20
2.411197
 30
0.0
  0
SPLINE
  5
259
100
AcDbEntity
  8
Layer_1
 62
7
100
AcDbSpline
 70
8
 71
3
 72
8
 73
4
 74
0
 40
0
 40
0
 40
0
 40
0
 40
1
 40
1
 40
1
 40
1
 10
5.831575
 20
2.411197
 30
0.0
 10
5.873244
 20
2.231962
 30
0.0
 10
5.892520
 20
2.198910
 30
0.0
 10
6.111354
 20
1.924117
 30
0.0
  0
SPLINE
  5
25a
100
AcDbEntity
  8
Layer_1
 62
7
100
AcDbSpline
 70
8
 71
3
 72
8
 73
4
 74
0
 40
0
 40
0
 40
0
 40
0
 40
1
 40
1
 40
1
 40
1
 10
6.111354
 20
1.924117
 30
0.0
 10
6.343228
 20
1.633336
 30
0.0
 10
6.607446
 20
1.449107
 30
0.0
 10
6.841672
 20
1.414816
 30
0.0
  0
SPLINE
  5
25b
100
AcDbEntity
  8
Layer_1
 62
7
100
AcDbSpline
 70
8
 71
3
 72
8
 73
4
 74
0
 40
0
 40
0
 40
0
 40
0
 40
1
 40
1
 40
1
 40
1
 10
6.841672
 20
1.414816
 30
0.0
 10
6.974334
 20
1.395257
 30
0.0
 10
7.358428
 20
1.398375
 30
0.0
 10
7.553650
 20
1.420485
 30
0.0
  0
LWPOLYLINE
  5
25c
100
AcDbEntity
  8
Layer_1
 62
7
100
AcDbPolyline
 90
2
 70
0
 10
3.592063
 20
1.433737
 30
0.0
 10
3.593112
 20
1.434330
 30
0.0
  0
LWPOLYLINE
  5
25d
100
AcDbEntity
  8
Layer_1
 62
7
100
AcDbPolyline
 90
2
 70
0
 10
7.553650
 20
1.420485
 30
0.0
 10
7.555550
 20
1.420440
 30
0.0
  0
SPLINE
  5
25e
100
AcDbEntity
  8
Layer_1
 62
7
100
AcDbSpline
 70
8
 71
3
 72
8
 73
4
 74
0
 40
0
 40
0
 40
0
 40
0
 40
1
 40
1
 40
1
 40
1
 10
4.655197
 20
4.015363
 30
0.0
 10
4.625717
 20
4.040024
 30
0.0
 10
4.552016
 20
4.087788
 30
0.0
 10
4.488520
 20
4.121804
 30
0.0
  0
SPLINE
  5
25f
100
AcDbEntity
  8
Layer_1
 62
7
100
AcDbSpline
 70
8
 71
3
 72
8
 73
4
 74
0
 40
0
 40
0
 40
0
 40
0
 40
1
 40
1
 40
1
 40
1
 10
4.488520
 20
4.121804
 30
0.0
 10
4.347921
 20
4.197404
 30
0.0
 10
4.304551
 20
4.239640
 30
0.0
 10
4.267984
 20
4.334827
 30
0.0
  0
SPLINE
  5
260
100
AcDbEntity
  8
Layer_1
 62
7
100
AcDbSpline
 70
8
 71
3
 72
8
 73
4
 74
0
 40
0
 40
0
 40
0
 40
0
 40
1
 40
1
 40
1
 40
1
 10
4.267984
 20
4.334827
 30
0.0
 10
4.233969
 20
4.422815
 30
0.0
 10
4.229717
 20
4.406884
 30
0.0
 10
4.259480
 20
4.305233
 30
0.0
  0
SPLINE
  5
261
100
AcDbEntity
  8
Layer_1
 62
7
100
AcDbSpline
 70
8
 71
3
 72
8
 73
4
 74
0
 40
0
 40
0
 40
0
 40
0
 40
1
 40
1
 40
1
 40
1
 10
4.259480
 20
4.305233
 30
0.0
 10
4.284992
 20
4.215035
 30
0.0
 10
4.346504
 20
4.144679
 30
0.0
 10
4.444583
 20
4.089432
 30
0.0
  0
SPLINE
  5
262
100
AcDbEntity
  8
Layer_1
 62
7
100
AcDbSpline
 70
8
 71
3
 72
8
 73
4
 74
0
 40
0
 40
0
 40
0
 40
0
 40
1
 40
1
 40
1
 40
1
 10
4.444583
 20
4.089432
 30
0.0
 10
4.498724
 20
4.059016
 30
0.0
 10
4.527638
 20
4.030840
 30
0.0
 10
4.548614
 20
3.989142
 30
0.0
  0
SPLINE
  5
263
100
AcDbEntity
  8
Layer_1
 62
7
100
AcDbSpline
 70
8
 71
3
 72
8
 73
4
 74
0
 40
0
 40
0
 40
0
 40
0
 40
1
 40
1
 40
1
 40
1
 10
4.548614
 20
3.989142
 30
0.0
 10
4.578094
 20
3.928906
 30
0.0
 10
4.614945
 20
3.881539
 30
0.0
 10
4.629118
 20
3.882871
 30
0.0
  0
SPLINE
  5
264
100
AcDbEntity
  8
Layer_1
 62
7
100
AcDbSpline
 70
8
 71
3
 72
8
 73
4
 74
0
 40
0
 40
0
 40
0
 40
0
 40
1
 40
1
 40
1
 40
1
 10
4.629118
 20
3.882871
 30
0.0
 10
4.634787
 20
3.883308
 30
0.0
 10
4.651795
 20
3.903281
 30
0.0
 10
4.671638
 20
3.927120
 30
0.0
  0
LWPOLYLINE
  5
265
100
AcDbEntity
  8
Layer_1
 62
7
100
AcDbPolyline
 90
3
 70
0
 10
4.672488
 20
3.927347
 30
0.0
 10
4.706787
 20
3.970802
 30
0.0
 10
4.655197
 20
4.015363
 30
0.0
  0
SPLINE
  5
266
100
AcDbEntity
  8
Layer_1
 62
7
100
AcDbSpline
 70
8
 71
3
 72
8
 73
4
 74
0
 40
0
 40
0
 40
0
 40
0
 40
1
 40
1
 40
1
 40
1
 10
5.630117
 20
4.005045
 30
0.0
 10
5.641455
 20
4.018651
 30
0.0
 10
5.664699
 20
4.055671
 30
0.0
 10
5.680857
 20
4.087561
 30
0.0
  0
SPLINE
  5
267
100
AcDbEntity
  8
Layer_1
 62
7
100
AcDbSpline
 70
8
 71
3
 72
8
 73
4
 74
0
 40
0
 40
0
 40
0
 40
0
 40
1
 40
1
 40
1
 40
1
 10
5.680857
 20
4.087561
 30
0.0
 10
5.700699
 20
4.127104
 30
0.0
 10
5.731313
 20
4.157747
 30
0.0
 10
5.777235
 20
4.184052
 30
0.0
  0
SPLINE
  5
268
100
AcDbEntity
  8
Layer_1
 62
7
100
AcDbSpline
 70
8
 71
3
 72
8
 73
4
 74
0
 40
0
 40
0
 40
0
 40
0
 40
1
 40
1
 40
1
 40
1
 10
5.777235
 20
4.184052
 30
0.0
 10
5.814085
 20
4.205312
 30
0.0
 10
5.865109
 20
4.241964
 30
0.0
 10
5.890337
 20
4.265633
 30
0.0
  0
SPLINE
  5
269
100
AcDbEntity
  8
Layer_1
 62
7
100
AcDbSpline
 70
8
 71
3
 72
8
 73
4
 74
0
 40
0
 40
0
 40
0
 40
0
 40
1
 40
1
 40
1
 40
1
 10
5.890337
 20
4.265633
 30
0.0
 10
5.934557
 20
4.307048
 30
0.0
 10
5.992951
 20
4.432764
 30
0.0
 10
5.991250
 20
4.482456
 30
0.0
  0
SPLINE
  5
26a
100
AcDbEntity
  8
Layer_1
 62
7
100
AcDbSpline
 70
8
 71
3
 72
8
 73
4
 74
0
 40
0
 40
0
 40
0
 40
0
 40
1
 40
1
 40
1
 40
1
 10
5.991250
 20
4.482456
 30
0.0
 10
5.990854
 20
4.495778
 30
0.0
 10
5.979912
 20
4.473385
 30
0.0
 10
5.961770
 20
4.432991
 30
0.0
  0
SPLINE
  5
26b
100
AcDbEntity
  8
Layer_1
 62
7
100
AcDbSpline
 70
8
 71
3
 72
8
 73
4
 74
0
 40
0
 40
0
 40
0
 40
0
 40
1
 40
1
 40
1
 40
1
 10
5.961770
 20
4.432991
 30
0.0
 10
5.925203
 20
4.337775
 30
0.0
 10
5.882683
 20
4.297268
 30
0.0
 10
5.731313
 20
4.212626
 30
0.0
  0
SPLINE
  5
26c
100
AcDbEntity
  8
Layer_1
 62
7
100
AcDbSpline
 70
8
 71
3
 72
8
 73
4
 74
0
 40
0
 40
0
 40
0
 40
0
 40
1
 40
1
 40
1
 40
1
 10
5.731313
 20
4.212626
 30
0.0
 10
5.603471
 20
4.141079
 30
0.0
 10
5.514463
 20
4.073076
 30
0.0
 10
5.514463
 20
4.046770
 30
0.0
  0
SPLINE
  5
26d
100
AcDbEntity
  8
Layer_1
 62
7
100
AcDbSpline
 70
8
 71
3
 72
8
 73
4
 74
0
 40
0
 40
0
 40
0
 40
0
 40
1
 40
1
 40
1
 40
1
 10
5.514463
 20
4.046770
 30
0.0
 10
5.514463
 20
4.022393
 30
0.0
 10
5.558967
 20
3.980496
 30
0.0
 10
5.584479
 20
3.980496
 30
0.0
  0
SPLINE
  5
26e
100
AcDbEntity
  8
Layer_1
 62
7
100
AcDbSpline
 70
8
 71
3
 72
8
 73
4
 74
0
 40
0
 40
0
 40
0
 40
0
 40
1
 40
1
 40
1
 40
1
 10
5.584479
 20
3.980496
 30
0.0
 10
5.595817
 20
3.980496
 30
0.0
 10
5.617928
 20
3.991552
 30
0.0
 10
5.629833
 20
4.005158
 30
0.0
  0
LWPOLYLINE
  5
26f
100
AcDbEntity
  8
Layer_1
 62
7
100
AcDbPolyline
 90
2
 70
0
 10
4.671638
 20
3.927120
 30
0.0
 10
4.672488
 20
3.927347
 30
0.0
  0
SPLINE
  5
270
100
AcDbEntity
  8
Layer_1
 62
7
100
AcDbSpline
 70
8
 71
3
 72
8
 73
4
 74
0
 40
0
 40
0
 40
0
 40
0
 40
1
 40
1
 40
1
 40
1
 10
5.531754
 20
4.382327
 30
0.0
 10
5.554431
 20
4.393949
 30
0.0
 10
5.566904
 20
4.409256
 30
0.0
 10
5.561235
 20
4.421332
 30
0.0
  0
SPLINE
  5
271
100
AcDbEntity
  8
Layer_1
 62
7
100
AcDbSpline
 70
8
 71
3
 72
8
 73
4
 74
0
 40
0
 40
0
 40
0
 40
0
 40
1
 40
1
 40
1
 40
1
 10
5.561235
 20
4.421332
 30
0.0
 10
5.555565
 20
4.432387
 30
0.0
 10
5.566904
 20
4.447694
 30
0.0
 10
5.581077
 20
4.455858
 30
0.0
  0
SPLINE
  5
272
100
AcDbEntity
  8
Layer_1
 62
7
100
AcDbSpline
 70
8
 71
3
 72
8
 73
4
 74
0
 40
0
 40
0
 40
0
 40
0
 40
1
 40
1
 40
1
 40
1
 10
5.581077
 20
4.455858
 30
0.0
 10
5.595250
 20
4.464079
 30
0.0
 10
5.606589
 20
4.485452
 30
0.0
 10
5.606589
 20
4.506031
 30
0.0
  0
SPLINE
  5
273
100
AcDbEntity
  8
Layer_1
 62
7
100
AcDbSpline
 70
8
 71
3
 72
8
 73
4
 74
0
 40
0
 40
0
 40
0
 40
0
 40
1
 40
1
 40
1
 40
1
 10
5.606589
 20
4.506031
 30
0.0
 10
5.606589
 20
4.541408
 30
0.0
 10
5.606447
 20
4.541379
 30
0.0
 10
5.570872
 20
4.496110
 30
0.0
  0
SPLINE
  5
274
100
AcDbEntity
  8
Layer_1
 62
7
100
AcDbSpline
 70
8
 71
3
 72
8
 73
4
 74
0
 40
0
 40
0
 40
0
 40
0
 40
1
 40
1
 40
1
 40
1
 10
5.570872
 20
4.496110
 30
0.0
 10
5.551030
 20
4.471165
 30
0.0
 10
5.507093
 20
4.426548
 30
0.0
 10
5.472510
 20
4.397209
 30
0.0
  0
SPLINE
  5
275
100
AcDbEntity
  8
Layer_1
 62
7
100
AcDbSpline
 70
8
 71
3
 72
8
 73
4
 74
0
 40
0
 40
0
 40
0
 40
0
 40
1
 40
1
 40
1
 40
1
 10
5.472510
 20
4.397209
 30
0.0
 10
5.414117
 20
4.347291
 30
0.0
 10
5.412699
 20
4.344485
 30
0.0
 10
5.449833
 20
4.353584
 30
0.0
  0
SPLINE
  5
276
100
AcDbEntity
  8
Layer_1
 62
7
100
AcDbSpline
 70
8
 71
3
 72
8
 73
4
 74
0
 40
0
 40
0
 40
0
 40
0
 40
1
 40
1
 40
1
 40
1
 10
5.449833
 20
4.353584
 30
0.0
 10
5.472510
 20
4.359253
 30
0.0
 10
5.507660
 20
4.372009
 30
0.0
 10
5.528636
 20
4.382271
 30
0.0
  0
LWPOLYLINE
  5
277
100
AcDbEntity
  8
Layer_1
 62
7
100
AcDbPolyline
 90
2
 70
0
 10
5.629833
 20
4.005158
 30
0.0
 10
5.630117
 20
4.005045
 30
0.0
  0
SPLINE
  5
278
100
AcDbEntity
  8
Layer_1
 62
7
100
AcDbSpline
 70
8
 71
3
 72
8
 73
4
 74
0
 40
0
 40
0
 40
0
 40
0
 40
1
 40
1
 40
1
 40
1
 10
4.745906
 20
4.403020
 30
0.0
 10
4.720394
 20
4.427115
 30
0.0
 10
4.701118
 20
4.452938
 30
0.0
 10
4.701118
 20
4.460479
 30
0.0
  0
SPLINE
  5
279
100
AcDbEntity
  8
Layer_1
 62
7
100
AcDbSpline
 70
8
 71
3
 72
8
 73
4
 74
0
 40
0
 40
0
 40
0
 40
0
 40
1
 40
1
 40
1
 40
1
 10
4.701118
 20
4.460479
 30
0.0
 10
4.701118
 20
4.467849
 30
0.0
 10
4.689780
 20
4.490894
 30
0.0
 10
4.675606
 20
4.511417
 30
0.0
  0
SPLINE
  5
27a
100
AcDbEntity
  8
Layer_1
 62
7
100
AcDbSpline
 70
8
 71
3
 72
8
 73
4
 74
0
 40
0
 40
0
 40
0
 40
0
 40
1
 40
1
 40
1
 40
1
 10
4.675606
 20
4.511417
 30
0.0
 10
4.664268
 20
4.531827
 30
0.0
 10
4.636205
 20
4.586762
 30
0.0
 10
4.619197
 20
4.633307
 30
0.0
  0
SPLINE
  5
27b
100
AcDbEntity
  8
Layer_1
 62
7
100
AcDbSpline
 70
8
 71
3
 72
8
 73
4
 74
0
 40
0
 40
0
 40
0
 40
0
 40
1
 40
1
 40
1
 40
1
 10
4.619197
 20
4.633307
 30
0.0
 10
4.589717
 20
4.715171
 30
0.0
 10
4.520551
 20
4.818863
 30
0.0
 10
4.519701
 20
4.784025
 30
0.0
  0
SPLINE
  5
27c
100
AcDbEntity
  8
Layer_1
 62
7
100
AcDbSpline
 70
8
 71
3
 72
8
 73
4
 74
0
 40
0
 40
0
 40
0
 40
0
 40
1
 40
1
 40
1
 40
1
 10
4.519701
 20
4.784025
 30
0.0
 10
4.519417
 20
4.774671
 30
0.0
 10
4.531039
 20
4.744453
 30
0.0
 10
4.545213
 20
4.716957
 30
0.0
  0
SPLINE
  5
27d
100
AcDbEntity
  8
Layer_1
 62
7
100
AcDbSpline
 70
8
 71
3
 72
8
 73
4
 74
0
 40
0
 40
0
 40
0
 40
0
 40
1
 40
1
 40
1
 40
1
 10
4.545213
 20
4.716957
 30
0.0
 10
4.559386
 20
4.689461
 30
0.0
 10
4.574693
 20
4.655587
 30
0.0
 10
4.574693
 20
4.641556
 30
0.0
  0
SPLINE
  5
27e
100
AcDbEntity
  8
Layer_1
 62
7
100
AcDbSpline
 70
8
 71
3
 72
8
 73
4
 74
0
 40
0
 40
0
 40
0
 40
0
 40
1
 40
1
 40
1
 40
1
 10
4.574693
 20
4.641556
 30
0.0
 10
4.574693
 20
4.627666
 30
0.0
 10
4.586031
 20
4.604819
 30
0.0
 10
4.604173
 20
4.591014
 30
0.0
  0
SPLINE
  5
27f
100
AcDbEntity
  8
Layer_1
 62
7
100
AcDbSpline
 70
8
 71
3
 72
8
 73
4
 74
0
 40
0
 40
0
 40
0
 40
0
 40
1
 40
1
 40
1
 40
1
 10
4.604173
 20
4.591014
 30
0.0
 10
4.618346
 20
4.577408
 30
0.0
 10
4.629685
 20
4.560598
 30
0.0
 10
4.624016
 20
4.554192
 30
0.0
  0
SPLINE
  5
280
100
AcDbEntity
  8
Layer_1
 62
7
100
AcDbSpline
 70
8
 71
3
 72
8
 73
4
 74
0
 40
0
 40
0
 40
0
 40
0
 40
1
 40
1
 40
1
 40
1
 10
4.624016
 20
4.554192
 30
0.0
 10
4.615512
 20
4.540586
 30
0.0
 10
4.656331
 20
4.474879
 30
0.0
 10
4.691480
 20
4.441628
 30
0.0
  0
SPLINE
  5
281
100
AcDbEntity
  8
Layer_1
 62
7
100
AcDbSpline
 70
8
 71
3
 72
8
 73
4
 74
0
 40
0
 40
0
 40
0
 40
0
 40
1
 40
1
 40
1
 40
1
 10
4.691480
 20
4.441628
 30
0.0
 10
4.702819
 20
4.428872
 30
0.0
 10
4.714157
 20
4.409086
 30
0.0
 10
4.705654
 20
4.397266
 30
0.0
  0
SPLINE
  5
282
100
AcDbEntity
  8
Layer_1
 62
7
100
AcDbSpline
 70
8
 71
3
 72
8
 73
4
 74
0
 40
0
 40
0
 40
0
 40
0
 40
1
 40
1
 40
1
 40
1
 10
4.705654
 20
4.397266
 30
0.0
 10
4.699984
 20
4.383660
 30
0.0
 10
4.706844
 20
4.373171
 30
0.0
 10
4.719827
 20
4.369203
 30
0.0
  0
SPLINE
  5
283
100
AcDbEntity
  8
Layer_1
 62
7
100
AcDbSpline
 70
8
 71
3
 72
8
 73
4
 74
0
 40
0
 40
0
 40
0
 40
0
 40
1
 40
1
 40
1
 40
1
 10
4.719827
 20
4.369203
 30
0.0
 10
4.779071
 20
4.354179
 30
0.0
 10
4.783606
 20
4.361549
 30
0.0
 10
4.742504
 20
4.403077
 30
0.0
  0
LWPOLYLINE
  5
284
100
AcDbEntity
  8
Layer_1
 62
7
100
AcDbPolyline
 90
2
 70
0
 10
5.528636
 20
4.382271
 30
0.0
 10
5.531754
 20
4.382327
 30
0.0
  0
SPLINE
  5
285
100
AcDbEntity
  8
Layer_1
 62
7
100
AcDbSpline
 70
8
 71
3
 72
8
 73
4
 74
0
 40
0
 40
0
 40
0
 40
0
 40
1
 40
1
 40
1
 40
1
 10
4.807134
 20
4.439984
 30
0.0
 10
4.798630
 20
4.460110
 30
0.0
 10
4.795795
 20
4.460393
 30
0.0
 10
4.784457
 20
4.443669
 30
0.0
  0
SPLINE
  5
286
100
AcDbEntity
  8
Layer_1
 62
7
100
AcDbSpline
 70
8
 71
3
 72
8
 73
4
 74
0
 40
0
 40
0
 40
0
 40
0
 40
1
 40
1
 40
1
 40
1
 10
4.784457
 20
4.443669
 30
0.0
 10
4.775953
 20
4.430913
 30
0.0
 10
4.778787
 20
4.416173
 30
0.0
 10
4.787291
 20
4.403984
 30
0.0
  0
SPLINE
  5
287
100
AcDbEntity
  8
Layer_1
 62
7
100
AcDbSpline
 70
8
 71
3
 72
8
 73
4
 74
0
 40
0
 40
0
 40
0
 40
0
 40
1
 40
1
 40
1
 40
1
 10
4.787291
 20
4.403984
 30
0.0
 10
4.807134
 20
4.380456
 30
0.0
 10
4.819606
 20
4.404418
 30
0.0
 10
4.801465
 20
4.440182
 30
0.0
  0
LWPOLYLINE
  5
288
100
AcDbEntity
  8
Layer_1
 62
7
100
AcDbPolyline
 90
2
 70
0
 10
4.742504
 20
4.403077
 30
0.0
 10
4.745906
 20
4.403020
 30
0.0
  0
SPLINE
  5
289
100
AcDbEntity
  8
Layer_1
 62
7
100
AcDbSpline
 70
8
 71
3
 72
8
 73
4
 74
0
 40
0
 40
0
 40
0
 40
0
 40
1
 40
1
 40
1
 40
1
 10
5.430728
 20
4.440792
 30
0.0
 10
5.430728
 20
4.458367
 30
0.0
 10
5.427893
 20
4.457233
 30
0.0
 10
5.410885
 20
4.435406
 30
0.0
  0
SPLINE
  5
28a
100
AcDbEntity
  8
Layer_1
 62
7
100
AcDbSpline
 70
8
 71
3
 72
8
 73
4
 74
0
 40
0
 40
0
 40
0
 40
0
 40
1
 40
1
 40
1
 40
1
 10
5.410885
 20
4.435406
 30
0.0
 10
5.385373
 20
4.399775
 30
0.0
 10
5.385373
 20
4.378968
 30
0.0
 10
5.410431
 20
4.401192
 30
0.0
  0
SPLINE
  5
28b
100
AcDbEntity
  8
Layer_1
 62
7
100
AcDbSpline
 70
8
 71
3
 72
8
 73
4
 74
0
 40
0
 40
0
 40
0
 40
0
 40
1
 40
1
 40
1
 40
1
 10
5.410431
 20
4.401192
 30
0.0
 10
5.421770
 20
4.410830
 30
0.0
 10
5.430274
 20
4.428688
 30
0.0
 10
5.430274
 20
4.440650
 30
0.0
  0
LWPOLYLINE
  5
28c
100
AcDbEntity
  8
Layer_1
 62
7
100
AcDbPolyline
 90
2
 70
0
 10
4.801465
 20
4.440182
 30
0.0
 10
4.807134
 20
4.439984
 30
0.0
  0
SPLINE
  5
28d
100
AcDbEntity
  8
Layer_1
 62
7
100
AcDbSpline
 70
8
 71
3
 72
8
 73
4
 74
0
 40
0
 40
0
 40
0
 40
0
 40
1
 40
1
 40
1
 40
1
 10
4.738139
 20
4.508795
 30
0.0
 10
4.726800
 20
4.530622
 30
0.0
 10
4.715461
 20
4.540175
 30
0.0
 10
4.715461
 20
4.530055
 30
0.0
  0
SPLINE
  5
28e
100
AcDbEntity
  8
Layer_1
 62
7
100
AcDbSpline
 70
8
 71
3
 72
8
 73
4
 74
0
 40
0
 40
0
 40
0
 40
0
 40
1
 40
1
 40
1
 40
1
 10
4.715461
 20
4.530055
 30
0.0
 10
4.714724
 20
4.505677
 30
0.0
 10
4.744942
 20
4.452924
 30
0.0
 10
4.752028
 20
4.461938
 30
0.0
  0
SPLINE
  5
28f
100
AcDbEntity
  8
Layer_1
 62
7
100
AcDbSpline
 70
8
 71
3
 72
8
 73
4
 74
0
 40
0
 40
0
 40
0
 40
0
 40
1
 40
1
 40
1
 40
1
 10
4.752028
 20
4.461938
 30
0.0
 10
4.754863
 20
4.465907
 30
0.0
 10
4.749194
 20
4.486883
 30
0.0
 10
4.737855
 20
4.508738
 30
0.0
  0
LWPOLYLINE
  5
290
100
AcDbEntity
  8
Layer_1
 62
7
100
AcDbPolyline
 90
2
 70
0
 10
5.430274
 20
4.440650
 30
0.0
 10
5.430728
 20
4.440792
 30
0.0
  0
SPLINE
  5
291
100
AcDbEntity
  8
Layer_1
 62
7
100
AcDbSpline
 70
8
 71
3
 72
8
 73
4
 74
0
 40
0
 40
0
 40
0
 40
0
 40
1
 40
1
 40
1
 40
1
 10
5.514406
 20
4.484417
 30
0.0
 10
5.537083
 20
4.526143
 30
0.0
 10
5.528580
 20
4.534307
 30
0.0
 10
5.503068
 20
4.506244
 30
0.0
  0
SPLINE
  5
292
100
AcDbEntity
  8
Layer_1
 62
7
100
AcDbSpline
 70
8
 71
3
 72
8
 73
4
 74
0
 40
0
 40
0
 40
0
 40
0
 40
1
 40
1
 40
1
 40
1
 10
5.503068
 20
4.506244
 30
0.0
 10
5.473587
 20
4.479031
 30
0.0
 10
5.466501
 20
4.457148
 30
0.0
 10
5.488894
 20
4.457148
 30
0.0
  0
SPLINE
  5
293
100
AcDbEntity
  8
Layer_1
 62
7
100
AcDbSpline
 70
8
 71
3
 72
8
 73
4
 74
0
 40
0
 40
0
 40
0
 40
0
 40
1
 40
1
 40
1
 40
1
 10
5.488894
 20
4.457148
 30
0.0
 10
5.494564
 20
4.457148
 30
0.0
 10
5.508737
 20
4.469620
 30
0.0
 10
5.518375
 20
4.484360
 30
0.0
  0
LWPOLYLINE
  5
294
100
AcDbEntity
  8
Layer_1
 62
7
100
AcDbPolyline
 90
2
 70
0
 10
4.737855
 20
4.508738
 30
0.0
 10
4.738139
 20
4.508795
 30
0.0
  0
SPLINE
  5
295
100
AcDbEntity
  8
Layer_1
 62
7
100
AcDbSpline
 70
8
 71
3
 72
8
 73
4
 74
0
 40
0
 40
0
 40
0
 40
0
 40
1
 40
1
 40
1
 40
1
 10
5.696391
 20
4.706086
 30
0.0
 10
5.729556
 20
4.815419
 30
0.0
 10
5.725871
 20
4.839967
 30
0.0
 10
5.690721
 20
4.742086
 30
0.0
  0
SPLINE
  5
296
100
AcDbEntity
  8
Layer_1
 62
7
100
AcDbSpline
 70
8
 71
3
 72
8
 73
4
 74
0
 40
0
 40
0
 40
0
 40
0
 40
1
 40
1
 40
1
 40
1
 10
5.690721
 20
4.742086
 30
0.0
 10
5.650186
 20
4.627368
 30
0.0
 10
5.642532
 20
4.596612
 30
0.0
 10
5.655855
 20
4.604805
 30
0.0
  0
SPLINE
  5
297
100
AcDbEntity
  8
Layer_1
 62
7
100
AcDbSpline
 70
8
 71
3
 72
8
 73
4
 74
0
 40
0
 40
0
 40
0
 40
0
 40
1
 40
1
 40
1
 40
1
 10
5.655855
 20
4.604805
 30
0.0
 10
5.661524
 20
4.609056
 30
0.0
 10
5.681367
 20
4.654694
 30
0.0
 10
5.696391
 20
4.706115
 30
0.0
  0
LWPOLYLINE
  5
298
100
AcDbEntity
  8
Layer_1
 62
7
100
AcDbPolyline
 90
2
 70
0
 10
5.518375
 20
4.484360
 30
0.0
 10
5.514406
 20
4.484417
 30
0.0
  0
SPLINE
  5
299
100
AcDbEntity
  8
Layer_1
 62
7
100
AcDbSpline
 70
8
 71
3
 72
8
 73
4
 74
0
 40
0
 40
0
 40
0
 40
0
 40
1
 40
1
 40
1
 40
1
 10
4.182633
 20
4.681708
 30
0.0
 10
4.159956
 20
4.737523
 30
0.0
 10
4.149468
 20
4.727771
 30
0.0
 10
4.171294
 20
4.669236
 30
0.0
  0
SPLINE
  5
29a
100
AcDbEntity
  8
Layer_1
 62
7
100
AcDbSpline
 70
8
 71
3
 72
8
 73
4
 74
0
 40
0
 40
0
 40
0
 40
0
 40
1
 40
1
 40
1
 40
1
 10
4.171294
 20
4.669236
 30
0.0
 10
4.179798
 20
4.644291
 30
0.0
 10
4.191137
 20
4.627453
 30
0.0
 10
4.193972
 20
4.631450
 30
0.0
  0
SPLINE
  5
29b
100
AcDbEntity
  8
Layer_1
 62
7
100
AcDbSpline
 70
8
 71
3
 72
8
 73
4
 74
0
 40
0
 40
0
 40
0
 40
0
 40
1
 40
1
 40
1
 40
1
 10
4.193972
 20
4.631450
 30
0.0
 10
4.196806
 20
4.635419
 30
0.0
 10
4.193235
 20
4.658096
 30
0.0
 10
4.185468
 20
4.681708
 30
0.0
  0
LWPOLYLINE
  5
29c
100
AcDbEntity
  8
Layer_1
 62
7
100
AcDbPolyline
 90
1
 70
1
 10
5.696391
 20
4.706115
 30
0.0
  0
SPLINE
  5
29d
100
AcDbEntity
  8
Layer_1
 62
7
100
AcDbSpline
 70
8
 71
3
 72
8
 73
4
 74
0
 40
0
 40
0
 40
0
 40
0
 40
1
 40
1
 40
1
 40
1
 10
5.625751
 20
4.670937
 30
0.0
 10
5.637090
 20
4.712634
 30
0.0
 10
5.637090
 20
4.714222
 30
0.0
 10
5.620082
 20
4.689362
 30
0.0
  0
SPLINE
  5
29e
100
AcDbEntity
  8
Layer_1
 62
7
100
AcDbSpline
 70
8
 71
3
 72
8
 73
4
 74
0
 40
0
 40
0
 40
0
 40
0
 40
1
 40
1
 40
1
 40
1
 10
5.620082
 20
4.689362
 30
0.0
 10
5.608743
 20
4.674622
 30
0.0
 10
5.600239
 20
4.653901
 30
0.0
 10
5.600239
 20
4.643809
 30
0.0
  0
SPLINE
  5
29f
100
AcDbEntity
  8
Layer_1
 62
7
100
AcDbSpline
 70
8
 71
3
 72
8
 73
4
 74
0
 40
0
 40
0
 40
0
 40
0
 40
1
 40
1
 40
1
 40
1
 10
5.600239
 20
4.643809
 30
0.0
 10
5.600239
 20
4.612430
 30
0.0
 10
5.608743
 20
4.623400
 30
0.0
 10
5.625751
 20
4.671022
 30
0.0
  0
LWPOLYLINE
  5
2a0
100
AcDbEntity
  8
Layer_1
 62
7
100
AcDbPolyline
 90
2
 70
0
 10
4.185468
 20
4.681708
 30
0.0
 10
4.182633
 20
4.681708
 30
0.0
  0
SPLINE
  5
2a1
100
AcDbEntity
  8
Layer_1
 62
7
100
AcDbSpline
 70
8
 71
3
 72
8
 73
4
 74
0
 40
0
 40
0
 40
0
 40
0
 40
1
 40
1
 40
1
 40
1
 10
6.061691
 20
4.779645
 30
0.0
 10
6.061691
 20
4.798354
 30
0.0
 10
6.060189
 20
4.798354
 30
0.0
 10
6.050353
 20
4.779645
 30
0.0
  0
SPLINE
  5
2a2
100
AcDbEntity
  8
Layer_1
 62
7
100
AcDbSpline
 70
8
 71
3
 72
8
 73
4
 74
0
 40
0
 40
0
 40
0
 40
0
 40
1
 40
1
 40
1
 40
1
 10
6.050353
 20
4.779645
 30
0.0
 10
6.044683
 20
4.768023
 30
0.0
 10
6.039014
 20
4.749230
 30
0.0
 10
6.039014
 20
4.737579
 30
0.0
  0
SPLINE
  5
2a3
100
AcDbEntity
  8
Layer_1
 62
7
100
AcDbSpline
 70
8
 71
3
 72
8
 73
4
 74
0
 40
0
 40
0
 40
0
 40
0
 40
1
 40
1
 40
1
 40
1
 10
6.039014
 20
4.737579
 30
0.0
 10
6.039014
 20
4.718871
 30
0.0
 10
6.040545
 20
4.718871
 30
0.0
 10
6.050353
 20
4.737579
 30
0.0
  0
SPLINE
  5
2a4
100
AcDbEntity
  8
Layer_1
 62
7
100
AcDbSpline
 70
8
 71
3
 72
8
 73
4
 74
0
 40
0
 40
0
 40
0
 40
0
 40
1
 40
1
 40
1
 40
1
 10
6.050353
 20
4.737579
 30
0.0
 10
6.056022
 20
4.749201
 30
0.0
 10
6.061691
 20
4.767995
 30
0.0
 10
6.061691
 20
4.779645
 30
0.0
  0
LWPOLYLINE
  5
2a5
100
AcDbEntity
  8
Layer_1
 62
7
100
AcDbPolyline
 90
1
 70
1
 10
5.625751
 20
4.671022
 30
0.0
  0
SPLINE
  5
2a6
100
AcDbEntity
  8
Layer_1
 62
7
100
AcDbSpline
 70
8
 71
3
 72
8
 73
4
 74
0
 40
0
 40
0
 40
0
 40
0
 40
1
 40
1
 40
1
 40
1
 10
1.110559
 20
0.305398
 30
0.0
 10
1.144386
 20
0.366154
 30
0.0
 10
1.184827
 20
0.410989
 30
0.0
 10
1.231882
 20
0.439902
 30
0.0
  0
SPLINE
  5
2a7
100
AcDbEntity
  8
Layer_1
 62
7
100
AcDbSpline
 70
8
 71
3
 72
8
 73
4
 74
0
 40
0
 40
0
 40
0
 40
0
 40
1
 40
1
 40
1
 40
1
 10
1.231882
 20
0.439902
 30
0.0
 10
1.278937
 20
0.468816
 30
0.0
 10
1.334307
 20
0.483272
 30
0.0
 10
1.397992
 20
0.483272
 30
0.0
  0
SPLINE
  5
2a8
100
AcDbEntity
  8
Layer_1
 62
7
100
AcDbSpline
 70
8
 71
3
 72
8
 73
4
 74
0
 40
0
 40
0
 40
0
 40
0
 40
1
 40
1
 40
1
 40
1
 10
1.397992
 20
0.483272
 30
0.0
 10
1.483787
 20
0.483272
 30
0.0
 10
1.549929
 20
0.453131
 30
0.0
 10
1.596417
 20
0.392847
 30
0.0
  0
SPLINE
  5
2a9
100
AcDbEntity
  8
Layer_1
 62
7
100
AcDbSpline
 70
8
 71
3
 72
8
 73
4
 74
0
 40
0
 40
0
 40
0
 40
0
 40
1
 40
1
 40
1
 40
1
 10
1.596417
 20
0.392847
 30
0.0
 10
1.642905
 20
0.333055
 30
0.0
 10
1.666149
 20
0.247789
 30
0.0
 10
1.666149
 20
0.137049
 30
0.0
  0
LWPOLYLINE
  5
2aa
100
AcDbEntity
  8
Layer_1
 62
7
100
AcDbPolyline
 90
1
 70
1
 10
6.061691
 20
4.779645
 30
0.0
  0
SPLINE
  5
2ab
100
AcDbEntity
  8
Layer_1
 62
7
100
AcDbSpline
 70
8
 71
3
 72
8
 73
4
 74
0
 40
0
 40
0
 40
0
 40
0
 40
1
 40
1
 40
1
 40
1
 10
1.530086
 20
0.132641
 30
0.0
 10
1.530086
 20
0.211539
 30
0.0
 10
1.516102
 20
0.270102
 30
0.0
 10
1.488134
 20
0.308332
 30
0.0
  0
SPLINE
  5
2ac
100
AcDbEntity
  8
Layer_1
 62
7
100
AcDbSpline
 70
8
 71
3
 72
8
 73
4
 74
0
 40
0
 40
0
 40
0
 40
0
 40
1
 40
1
 40
1
 40
1
 10
1.488134
 20
0.308332
 30
0.0
 10
1.460165
 20
0.346562
 30
0.0
 10
1.417551
 20
0.365677
 30
0.0
 10
1.360291
 20
0.365677
 30
0.0
  0
SPLINE
  5
2ad
100
AcDbEntity
  8
Layer_1
 62
7
100
AcDbSpline
 70
8
 71
3
 72
8
 73
4
 74
0
 40
0
 40
0
 40
0
 40
0
 40
1
 40
1
 40
1
 40
1
 10
1.360291
 20
0.365677
 30
0.0
 10
1.290181
 20
0.365677
 30
0.0
 10
1.234811
 20
0.342405
 30
0.0
 10
1.194181
 20
0.295860
 30
0.0
  0
SPLINE
  5
2ae
100
AcDbEntity
  8
Layer_1
 62
7
100
AcDbSpline
 70
8
 71
3
 72
8
 73
4
 74
0
 40
0
 40
0
 40
0
 40
0
 40
1
 40
1
 40
1
 40
1
 10
1.194181
 20
0.295860
 30
0.0
 10
1.153551
 20
0.249296
 30
0.0
 10
1.133236
 20
0.185838
 30
0.0
 10
1.133236
 20
0.105485
 30
0.0
  0
LWPOLYLINE
  5
2af
100
AcDbEntity
  8
Layer_1
 62
7
100
AcDbPolyline
 90
4
 70
0
 10
1.666149
 20
0.137049
 30
0.0
 10
1.666149
 20
-0.359865
 30
0.0
 10
1.530086
 20
-0.359865
 30
0.0
 10
1.530086
 20
0.132641
 30
0.0
  0
SPLINE
  5
2b0
100
AcDbEntity
  8
Layer_1
 62
7
100
AcDbSpline
 70
8
 71
3
 72
8
 73
4
 74
0
 40
0
 40
0
 40
0
 40
0
 40
1
 40
1
 40
1
 40
1
 10
0.997173
 20
0.132683
 30
0.0
 10
0.997173
 20
0.212072
 30
0.0
 10
0.983189
 20
0.270636
 30
0.0
 10
0.955220
 20
0.308375
 30
0.0
  0
SPLINE
  5
2b1
100
AcDbEntity
  8
Layer_1
 62
7
100
AcDbSpline
 70
8
 71
3
 72
8
 73
4
 74
0
 40
0
 40
0
 40
0
 40
0
 40
1
 40
1
 40
1
 40
1
 10
0.955220
 20
0.308375
 30
0.0
 10
0.927252
 20
0.346605
 30
0.0
 10
0.884165
 20
0.365720
 30
0.0
 10
0.825960
 20
0.365720
 30
0.0
  0
SPLINE
  5
2b2
100
AcDbEntity
  8
Layer_1
 62
7
100
AcDbSpline
 70
8
 71
3
 72
8
 73
4
 74
0
 40
0
 40
0
 40
0
 40
0
 40
1
 40
1
 40
1
 40
1
 10
0.825960
 20
0.365720
 30
0.0
 10
0.756795
 20
0.365720
 30
0.0
 10
0.701897
 20
0.342192
 30
0.0
 10
0.661268
 20
0.295137
 30
0.0
  0
SPLINE
  5
2b3
100
AcDbEntity
  8
Layer_1
 62
7
100
AcDbSpline
 70
8
 71
3
 72
8
 73
4
 74
0
 40
0
 40
0
 40
0
 40
0
 40
1
 40
1
 40
1
 40
1
 10
0.661268
 20
0.295137
 30
0.0
 10
0.620638
 20
0.248592
 30
0.0
 10
0.600323
 20
0.185380
 30
0.0
 10
0.600323
 20
0.105499
 30
0.0
  0
LWPOLYLINE
  5
2b4
100
AcDbEntity
  8
Layer_1
 62
7
100
AcDbPolyline
 90
4
 70
0
 10
1.133236
 20
0.105485
 30
0.0
 10
1.133236
 20
-0.359822
 30
0.0
 10
0.997173
 20
-0.359822
 30
0.0
 10
0.997173
 20
0.132683
 30
0.0
  0
SPLINE
  5
2b5
100
AcDbEntity
  8
Layer_1
 62
7
100
AcDbSpline
 70
8
 71
3
 72
8
 73
4
 74
0
 40
0
 40
0
 40
0
 40
0
 40
1
 40
1
 40
1
 40
1
 10
0.600323
 20
0.335582
 30
0.0
 10
0.631126
 20
0.386057
 30
0.0
 10
0.668165
 20
0.423305
 30
0.0
 10
0.711441
 20
0.447323
 30
0.0
  0
SPLINE
  5
2b6
100
AcDbEntity
  8
Layer_1
 62
7
100
AcDbSpline
 70
8
 71
3
 72
8
 73
4
 74
0
 40
0
 40
0
 40
0
 40
0
 40
1
 40
1
 40
1
 40
1
 10
0.711441
 20
0.447323
 30
0.0
 10
0.754527
 20
0.471342
 30
0.0
 10
0.805740
 20
0.483352
 30
0.0
 10
0.865079
 20
0.483352
 30
0.0
  0
SPLINE
  5
2b7
100
AcDbEntity
  8
Layer_1
 62
7
100
AcDbSpline
 70
8
 71
3
 72
8
 73
4
 74
0
 40
0
 40
0
 40
0
 40
0
 40
1
 40
1
 40
1
 40
1
 10
0.865079
 20
0.483352
 30
0.0
 10
0.924795
 20
0.483352
 30
0.0
 10
0.975535
 20
0.468158
 30
0.0
 10
1.017299
 20
0.437771
 30
0.0
  0
SPLINE
  5
2b8
100
AcDbEntity
  8
Layer_1
 62
7
100
AcDbSpline
 70
8
 71
3
 72
8
 73
4
 74
0
 40
0
 40
0
 40
0
 40
0
 40
1
 40
1
 40
1
 40
1
 10
1.017299
 20
0.437771
 30
0.0
 10
1.059441
 20
0.407383
 30
0.0
 10
1.090527
 20
0.363276
 30
0.0
 10
1.110559
 20
0.305449
 30
0.0
  0
LWPOLYLINE
  5
2b9
100
AcDbEntity
  8
Layer_1
 62
7
100
AcDbPolyline
 90
6
 70
0
 10
0.600323
 20
0.105499
 30
0.0
 10
0.600323
 20
-0.359808
 30
0.0
 10
0.464260
 20
-0.359808
 30
0.0
 10
0.464260
 20
0.463481
 30
0.0
 10
0.600323
 20
0.463481
 30
0.0
 10
0.600323
 20
0.335582
 30
0.0
  0
SPLINE
  5
2ba
100
AcDbEntity
  8
Layer_1
 62
7
100
AcDbSpline
 70
8
 71
3
 72
8
 73
4
 74
0
 40
0
 40
0
 40
0
 40
0
 40
1
 40
1
 40
1
 40
1
 10
2.255812
 20
0.368614
 30
0.0
 10
2.183246
 20
0.368614
 30
0.0
 10
2.125891
 20
0.340192
 30
0.0
 10
2.083749
 20
0.283348
 30
0.0
  0
SPLINE
  5
2bb
100
AcDbEntity
  8
Layer_1
 62
7
100
AcDbSpline
 70
8
 71
3
 72
8
 73
4
 74
0
 40
0
 40
0
 40
0
 40
0
 40
1
 40
1
 40
1
 40
1
 10
2.083749
 20
0.283348
 30
0.0
 10
2.041608
 20
0.226995
 30
0.0
 10
2.020537
 20
0.149571
 30
0.0
 10
2.020537
 20
0.051077
 30
0.0
  0
SPLINE
  5
2bc
100
AcDbEntity
  8
Layer_1
 62
7
100
AcDbSpline
 70
8
 71
3
 72
8
 73
4
 74
0
 40
0
 40
0
 40
0
 40
0
 40
1
 40
1
 40
1
 40
1
 10
2.020537
 20
0.051077
 30
0.0
 10
2.020537
 20
-0.047418
 30
0.0
 10
2.041324
 20
-0.125087
 30
0.0
 10
2.082899
 20
-0.181931
 30
0.0
  0
SPLINE
  5
2bd
100
AcDbEntity
  8
Layer_1
 62
7
100
AcDbSpline
 70
8
 71
3
 72
8
 73
4
 74
0
 40
0
 40
0
 40
0
 40
0
 40
1
 40
1
 40
1
 40
1
 10
2.082899
 20
-0.181931
 30
0.0
 10
2.125041
 20
-0.238284
 30
0.0
 10
2.182584
 20
-0.266460
 30
0.0
 10
2.255529
 20
-0.266460
 30
0.0
  0
SPLINE
  5
2be
100
AcDbEntity
  8
Layer_1
 62
7
100
AcDbSpline
 70
8
 71
3
 72
8
 73
4
 74
0
 40
0
 40
0
 40
0
 40
0
 40
1
 40
1
 40
1
 40
1
 10
2.255529
 20
-0.266460
 30
0.0
 10
2.327529
 20
-0.266460
 30
0.0
 10
2.384600
 20
-0.238038
 30
0.0
 10
2.426742
 20
-0.181194
 30
0.0
  0
SPLINE
  5
2bf
100
AcDbEntity
  8
Layer_1
 62
7
100
AcDbSpline
 70
8
 71
3
 72
8
 73
4
 74
0
 40
0
 40
0
 40
0
 40
0
 40
1
 40
1
 40
1
 40
1
 10
2.426742
 20
-0.181194
 30
0.0
 10
2.468883
 20
-0.124350
 30
0.0
 10
2.489954
 20
-0.046917
 30
0.0
 10
2.489954
 20
0.051105
 30
0.0
  0
SPLINE
  5
2c0
100
AcDbEntity
  8
Layer_1
 62
7
100
AcDbSpline
 70
8
 71
3
 72
8
 73
4
 74
0
 40
0
 40
0
 40
0
 40
0
 40
1
 40
1
 40
1
 40
1
 10
2.489954
 20
0.051105
 30
0.0
 10
2.489954
 20
0.148617
 30
0.0
 10
2.468883
 20
0.225804
 30
0.0
 10
2.426742
 20
0.282667
 30
0.0
  0
SPLINE
  5
2c1
100
AcDbEntity
  8
Layer_1
 62
7
100
AcDbSpline
 70
8
 71
3
 72
8
 73
4
 74
0
 40
0
 40
0
 40
0
 40
0
 40
1
 40
1
 40
1
 40
1
 10
2.426742
 20
0.282667
 30
0.0
 10
2.384600
 20
0.340003
 30
0.0
 10
2.327529
 20
0.368671
 30
0.0
 10
2.255529
 20
0.368671
 30
0.0
  0
LWPOLYLINE
  5
2c2
100
AcDbEntity
  8
Layer_1
 62
7
100
AcDbPolyline
 90
1
 70
1
 10
1.110559
 20
0.305449
 30
0.0
  0
SPLINE
  5
2c3
100
AcDbEntity
  8
Layer_1
 62
7
100
AcDbSpline
 70
8
 71
3
 72
8
 73
4
 74
0
 40
0
 40
0
 40
0
 40
0
 40
1
 40
1
 40
1
 40
1
 10
2.255812
 20
0.483275
 30
0.0
 10
2.373356
 20
0.483275
 30
0.0
 10
2.465765
 20
0.445055
 30
0.0
 10
2.533041
 20
0.368614
 30
0.0
  0
SPLINE
  5
2c4
100
AcDbEntity
  8
Layer_1
 62
7
100
AcDbSpline
 70
8
 71
3
 72
8
 73
4
 74
0
 40
0
 40
0
 40
0
 40
0
 40
1
 40
1
 40
1
 40
1
 10
2.533041
 20
0.368614
 30
0.0
 10
2.600127
 20
0.292173
 30
0.0
 10
2.633671
 20
0.186322
 30
0.0
 10
2.633671
 20
0.051060
 30
0.0
  0
SPLINE
  5
2c5
100
AcDbEntity
  8
Layer_1
 62
7
100
AcDbSpline
 70
8
 71
3
 72
8
 73
4
 74
0
 40
0
 40
0
 40
0
 40
0
 40
1
 40
1
 40
1
 40
1
 10
2.633671
 20
0.051060
 30
0.0
 10
2.633671
 20
-0.083699
 30
0.0
 10
2.600127
 20
-0.189551
 30
0.0
 10
2.533041
 20
-0.266494
 30
0.0
  0
SPLINE
  5
2c6
100
AcDbEntity
  8
Layer_1
 62
7
100
AcDbSpline
 70
8
 71
3
 72
8
 73
4
 74
0
 40
0
 40
0
 40
0
 40
0
 40
1
 40
1
 40
1
 40
1
 10
2.533041
 20
-0.266494
 30
0.0
 10
2.465954
 20
-0.342935
 30
0.0
 10
2.373545
 20
-0.381156
 30
0.0
 10
2.255812
 20
-0.381156
 30
0.0
  0
SPLINE
  5
2c7
100
AcDbEntity
  8
Layer_1
 62
7
100
AcDbSpline
 70
8
 71
3
 72
8
 73
4
 74
0
 40
0
 40
0
 40
0
 40
0
 40
1
 40
1
 40
1
 40
1
 10
2.255812
 20
-0.381156
 30
0.0
 10
2.137702
 20
-0.381156
 30
0.0
 10
2.045104
 20
-0.342935
 30
0.0
 10
1.978017
 20
-0.266494
 30
0.0
  0
SPLINE
  5
2c8
100
AcDbEntity
  8
Layer_1
 62
7
100
AcDbSpline
 70
8
 71
3
 72
8
 73
4
 74
0
 40
0
 40
0
 40
0
 40
0
 40
1
 40
1
 40
1
 40
1
 10
1.978017
 20
-0.266494
 30
0.0
 10
1.911309
 20
-0.189562
 30
0.0
 10
1.877954
 20
-0.083711
 30
0.0
 10
1.877954
 20
0.051060
 30
0.0
  0
SPLINE
  5
2c9
100
AcDbEntity
  8
Layer_1
 62
7
100
AcDbSpline
 70
8
 71
3
 72
8
 73
4
 74
0
 40
0
 40
0
 40
0
 40
0
 40
1
 40
1
 40
1
 40
1
 10
1.877954
 20
0.051060
 30
0.0
 10
1.877954
 20
0.186310
 30
0.0
 10
1.911309
 20
0.292162
 30
0.0
 10
1.978017
 20
0.368614
 30
0.0
  0
SPLINE
  5
2ca
100
AcDbEntity
  8
Layer_1
 62
7
100
AcDbSpline
 70
8
 71
3
 72
8
 73
4
 74
0
 40
0
 40
0
 40
0
 40
0
 40
1
 40
1
 40
1
 40
1
 10
1.978017
 20
0.368614
 30
0.0
 10
2.045104
 20
0.445055
 30
0.0
 10
2.137702
 20
0.483275
 30
0.0
 10
2.255812
 20
0.483275
 30
0.0
  0
LWPOLYLINE
  5
2cb
100
AcDbEntity
  8
Layer_1
 62
7
100
AcDbPolyline
 90
2
 70
0
 10
2.255529
 20
0.368671
 30
0.0
 10
2.255812
 20
0.368614
 30
0.0
  0
LWPOLYLINE
  5
2cc
100
AcDbEntity
  8
Layer_1
 62
7
100
AcDbPolyline
 90
1
 70
1
 10
2.255812
 20
0.483275
 30
0.0
  0
SPLINE
  5
2cd
100
AcDbEntity
  8
Layer_1
 62
7
100
AcDbSpline
 70
8
 71
3
 72
8
 73
4
 74
0
 40
0
 40
0
 40
0
 40
0
 40
1
 40
1
 40
1
 40
1
 10
2.990893
 20
-0.088589
 30
0.0
 10
2.990893
 20
-0.155732
 30
0.0
 10
3.000342
 20
-0.198857
 30
0.0
 10
3.019239
 20
-0.217962
 30
0.0
  0
SPLINE
  5
2ce
100
AcDbEntity
  8
Layer_1
 62
7
100
AcDbSpline
 70
8
 71
3
 72
8
 73
4
 74
0
 40
0
 40
0
 40
0
 40
0
 40
1
 40
1
 40
1
 40
1
 10
3.019239
 20
-0.217962
 30
0.0
 10
3.038137
 20
-0.237068
 30
0.0
 10
3.075649
 20
-0.246620
 30
0.0
 10
3.131775
 20
-0.246620
 30
0.0
  0
LWPOLYLINE
  5
2cf
100
AcDbEntity
  8
Layer_1
 62
7
100
AcDbPolyline
 90
6
 70
0
 10
2.990893
 20
0.697195
 30
0.0
 10
2.990893
 20
0.463450
 30
0.0
 10
3.269538
 20
0.463450
 30
0.0
 10
3.269538
 20
0.358341
 30
0.0
 10
2.990893
 20
0.358341
 30
0.0
 10
2.990893
 20
-0.088589
 30
0.0
  0
SPLINE
  5
2d0
100
AcDbEntity
  8
Layer_1
 62
7
100
AcDbSpline
 70
8
 71
3
 72
8
 73
4
 74
0
 40
0
 40
0
 40
0
 40
0
 40
1
 40
1
 40
1
 40
1
 10
3.131775
 20
-0.359836
 30
0.0
 10
3.027460
 20
-0.359836
 30
0.0
 10
2.955460
 20
-0.340476
 30
0.0
 10
2.915775
 20
-0.301754
 30
0.0
  0
SPLINE
  5
2d1
100
AcDbEntity
  8
Layer_1
 62
7
100
AcDbSpline
 70
8
 71
3
 72
8
 73
4
 74
0
 40
0
 40
0
 40
0
 40
0
 40
1
 40
1
 40
1
 40
1
 10
2.915775
 20
-0.301754
 30
0.0
 10
2.876090
 20
-0.262561
 30
0.0
 10
2.856247
 20
-0.191506
 30
0.0
 10
2.856247
 20
-0.088589
 30
0.0
  0
LWPOLYLINE
  5
2d2
100
AcDbEntity
  8
Layer_1
 62
7
100
AcDbPolyline
 90
4
 70
0
 10
3.131775
 20
-0.246620
 30
0.0
 10
3.270672
 20
-0.246620
 30
0.0
 10
3.270672
 20
-0.359836
 30
0.0
 10
3.131775
 20
-0.359836
 30
0.0
  0
LWPOLYLINE
  5
2d3
100
AcDbEntity
  8
Layer_1
 62
7
100
AcDbPolyline
 90
7
 70
0
 10
2.856247
 20
-0.088589
 30
0.0
 10
2.856247
 20
0.358341
 30
0.0
 10
2.757034
 20
0.358341
 30
0.0
 10
2.757034
 20
0.463450
 30
0.0
 10
2.856247
 20
0.463450
 30
0.0
 10
2.856247
 20
0.697195
 30
0.0
 10
2.990893
 20
0.697195
 30
0.0
  0
SPLINE
  5
2d4
100
AcDbEntity
  8
Layer_1
 62
7
100
AcDbSpline
 70
8
 71
3
 72
8
 73
4
 74
0
 40
0
 40
0
 40
0
 40
0
 40
1
 40
1
 40
1
 40
1
 10
3.997277
 20
0.132655
 30
0.0
 10
3.997277
 20
0.210570
 30
0.0
 10
3.982064
 20
0.268888
 30
0.0
 10
3.951639
 20
0.307609
 30
0.0
  0
SPLINE
  5
2d5
100
AcDbEntity
  8
Layer_1
 62
7
100
AcDbSpline
 70
8
 71
3
 72
8
 73
4
 74
0
 40
0
 40
0
 40
0
 40
0
 40
1
 40
1
 40
1
 40
1
 10
3.951639
 20
0.307609
 30
0.0
 10
3.921214
 20
0.346331
 30
0.0
 10
3.875671
 20
0.365691
 30
0.0
 10
3.815009
 20
0.365691
 30
0.0
  0
SPLINE
  5
2d6
100
AcDbEntity
  8
Layer_1
 62
7
100
AcDbSpline
 70
8
 71
3
 72
8
 73
4
 74
0
 40
0
 40
0
 40
0
 40
0
 40
1
 40
1
 40
1
 40
1
 10
3.815009
 20
0.365691
 30
0.0
 10
3.742064
 20
0.365691
 30
0.0
 10
3.684521
 20
0.342419
 30
0.0
 10
3.642379
 20
0.295874
 30
0.0
  0
SPLINE
  5
2d7
100
AcDbEntity
  8
Layer_1
 62
7
100
AcDbSpline
 70
8
 71
3
 72
8
 73
4
 74
0
 40
0
 40
0
 40
0
 40
0
 40
1
 40
1
 40
1
 40
1
 10
3.642379
 20
0.295874
 30
0.0
 10
3.600238
 20
0.249310
 30
0.0
 10
3.579167
 20
0.185852
 30
0.0
 10
3.579167
 20
0.105499
 30
0.0
  0
LWPOLYLINE
  5
2d8
100
AcDbEntity
  8
Layer_1
 62
7
100
AcDbPolyline
 90
4
 70
0
 10
4.132490
 20
0.137063
 30
0.0
 10
4.132490
 20
-0.359850
 30
0.0
 10
3.997277
 20
-0.359850
 30
0.0
 10
3.997277
 20
0.132655
 30
0.0
  0
SPLINE
  5
2d9
100
AcDbEntity
  8
Layer_1
 62
7
100
AcDbSpline
 70
8
 71
3
 72
8
 73
4
 74
0
 40
0
 40
0
 40
0
 40
0
 40
1
 40
1
 40
1
 40
1
 10
3.579167
 20
0.335579
 30
0.0
 10
3.611482
 20
0.385072
 30
0.0
 10
3.649466
 20
0.422073
 30
0.0
 10
3.693120
 20
0.446584
 30
0.0
  0
SPLINE
  5
2da
100
AcDbEntity
  8
Layer_1
 62
7
100
AcDbSpline
 70
8
 71
3
 72
8
 73
4
 74
0
 40
0
 40
0
 40
0
 40
0
 40
1
 40
1
 40
1
 40
1
 10
3.693120
 20
0.446584
 30
0.0
 10
3.737151
 20
0.471094
 30
0.0
 10
3.787891
 20
0.483349
 30
0.0
 10
3.845340
 20
0.483349
 30
0.0
  0
SPLINE
  5
2db
100
AcDbEntity
  8
Layer_1
 62
7
100
AcDbSpline
 70
8
 71
3
 72
8
 73
4
 74
0
 40
0
 40
0
 40
0
 40
0
 40
1
 40
1
 40
1
 40
1
 10
3.845340
 20
0.483349
 30
0.0
 10
3.939828
 20
0.483349
 30
0.0
 10
4.011356
 20
0.453944
 30
0.0
 10
4.059923
 20
0.395135
 30
0.0
  0
SPLINE
  5
2dc
100
AcDbEntity
  8
Layer_1
 62
7
100
AcDbSpline
 70
8
 71
3
 72
8
 73
4
 74
0
 40
0
 40
0
 40
0
 40
0
 40
1
 40
1
 40
1
 40
1
 10
4.059923
 20
0.395135
 30
0.0
 10
4.108490
 20
0.336817
 30
0.0
 10
4.132773
 20
0.250814
 30
0.0
 10
4.132773
 20
0.137125
 30
0.0
  0
LWPOLYLINE
  5
2dd
100
AcDbEntity
  8
Layer_1
 62
7
100
AcDbPolyline
 90
6
 70
0
 10
3.579167
 20
0.105499
 30
0.0
 10
3.579167
 20
-0.359808
 30
0.0
 10
3.443104
 20
-0.359808
 30
0.0
 10
3.443104
 20
0.783977
 30
0.0
 10
3.579167
 20
0.783977
 30
0.0
 10
3.579167
 20
0.335579
 30
0.0
  0
SPLINE
  5
2de
100
AcDbEntity
  8
Layer_1
 62
7
100
AcDbSpline
 70
8
 71
3
 72
8
 73
4
 74
0
 40
0
 40
0
 40
0
 40
0
 40
1
 40
1
 40
1
 40
1
 10
6.793111
 20
0.051048
 30
0.0
 10
6.793111
 20
0.150526
 30
0.0
 10
6.772513
 20
0.228441
 30
0.0
 10
6.731316
 20
0.284793
 30
0.0
  0
SPLINE
  5
2df
100
AcDbEntity
  8
Layer_1
 62
7
100
AcDbSpline
 70
8
 71
3
 72
8
 73
4
 74
0
 40
0
 40
0
 40
0
 40
0
 40
1
 40
1
 40
1
 40
1
 10
6.731316
 20
0.284793
 30
0.0
 10
6.690686
 20
0.341637
 30
0.0
 10
6.634560
 20
0.370060
 30
0.0
 10
6.562938
 20
0.370060
 30
0.0
  0
SPLINE
  5
2e0
100
AcDbEntity
  8
Layer_1
 62
7
100
AcDbSpline
 70
8
 71
3
 72
8
 73
4
 74
0
 40
0
 40
0
 40
0
 40
0
 40
1
 40
1
 40
1
 40
1
 10
6.562938
 20
0.370060
 30
0.0
 10
6.491316
 20
0.370060
 30
0.0
 10
6.435001
 20
0.341637
 30
0.0
 10
6.393993
 20
0.284793
 30
0.0
  0
SPLINE
  5
2e1
100
AcDbEntity
  8
Layer_1
 62
7
100
AcDbSpline
 70
8
 71
3
 72
8
 73
4
 74
0
 40
0
 40
0
 40
0
 40
0
 40
1
 40
1
 40
1
 40
1
 10
6.393993
 20
0.284793
 30
0.0
 10
6.353363
 20
0.228441
 30
0.0
 10
6.333048
 20
0.150526
 30
0.0
 10
6.333048
 20
0.051048
 30
0.0
  0
SPLINE
  5
2e2
100
AcDbEntity
  8
Layer_1
 62
7
100
AcDbSpline
 70
8
 71
3
 72
8
 73
4
 74
0
 40
0
 40
0
 40
0
 40
0
 40
1
 40
1
 40
1
 40
1
 10
6.333048
 20
0.051048
 30
0.0
 10
6.333048
 20
-0.048429
 30
0.0
 10
6.353363
 20
-0.126589
 30
0.0
 10
6.393993
 20
-0.183433
 30
0.0
  0
SPLINE
  5
2e3
100
AcDbEntity
  8
Layer_1
 62
7
100
AcDbSpline
 70
8
 71
3
 72
8
 73
4
 74
0
 40
0
 40
0
 40
0
 40
0
 40
1
 40
1
 40
1
 40
1
 10
6.393993
 20
-0.183433
 30
0.0
 10
6.435190
 20
-0.239786
 30
0.0
 10
6.491505
 20
-0.267963
 30
0.0
 10
6.562938
 20
-0.267963
 30
0.0
  0
SPLINE
  5
2e4
100
AcDbEntity
  8
Layer_1
 62
7
100
AcDbSpline
 70
8
 71
3
 72
8
 73
4
 74
0
 40
0
 40
0
 40
0
 40
0
 40
1
 40
1
 40
1
 40
1
 10
6.562938
 20
-0.267963
 30
0.0
 10
6.634560
 20
-0.267963
 30
0.0
 10
6.690686
 20
-0.239786
 30
0.0
 10
6.731316
 20
-0.183433
 30
0.0
  0
SPLINE
  5
2e5
100
AcDbEntity
  8
Layer_1
 62
7
100
AcDbSpline
 70
8
 71
3
 72
8
 73
4
 74
0
 40
0
 40
0
 40
0
 40
0
 40
1
 40
1
 40
1
 40
1
 10
6.731316
 20
-0.183433
 30
0.0
 10
6.772513
 20
-0.126589
 30
0.0
 10
6.793111
 20
-0.048429
 30
0.0
 10
6.793111
 20
0.051048
 30
0.0
  0
LWPOLYLINE
  5
2e6
100
AcDbEntity
  8
Layer_1
 62
7
100
AcDbPolyline
 90
2
 70
0
 10
4.132773
 20
0.137125
 30
0.0
 10
4.132490
 20
0.137063
 30
0.0
  0
SPLINE
  5
2e7
100
AcDbEntity
  8
Layer_1
 62
7
100
AcDbSpline
 70
8
 71
3
 72
8
 73
4
 74
0
 40
0
 40
0
 40
0
 40
0
 40
1
 40
1
 40
1
 40
1
 10
6.332963
 20
0.338465
 30
0.0
 10
6.361309
 20
0.387466
 30
0.0
 10
6.397120
 20
0.423731
 30
0.0
 10
6.440396
 20
0.447258
 30
0.0
  0
SPLINE
  5
2e8
100
AcDbEntity
  8
Layer_1
 62
7
100
AcDbSpline
 70
8
 71
3
 72
8
 73
4
 74
0
 40
0
 40
0
 40
0
 40
0
 40
1
 40
1
 40
1
 40
1
 10
6.440396
 20
0.447258
 30
0.0
 10
6.484050
 20
0.471277
 30
0.0
 10
6.536018
 20
0.483287
 30
0.0
 10
6.596302
 20
0.483287
 30
0.0
  0
SPLINE
  5
2e9
100
AcDbEntity
  8
Layer_1
 62
7
100
AcDbSpline
 70
8
 71
3
 72
8
 73
4
 74
0
 40
0
 40
0
 40
0
 40
0
 40
1
 40
1
 40
1
 40
1
 10
6.596302
 20
0.483287
 30
0.0
 10
6.696270
 20
0.483287
 30
0.0
 10
6.777341
 20
0.443592
 30
0.0
 10
6.839514
 20
0.364203
 30
0.0
  0
SPLINE
  5
2ea
100
AcDbEntity
  8
Layer_1
 62
7
100
AcDbSpline
 70
8
 71
3
 72
8
 73
4
 74
0
 40
0
 40
0
 40
0
 40
0
 40
1
 40
1
 40
1
 40
1
 10
6.839514
 20
0.364203
 30
0.0
 10
6.902254
 20
0.284814
 30
0.0
 10
6.933624
 20
0.180433
 30
0.0
 10
6.933624
 20
0.051060
 30
0.0
  0
SPLINE
  5
2eb
100
AcDbEntity
  8
Layer_1
 62
7
100
AcDbSpline
 70
8
 71
3
 72
8
 73
4
 74
0
 40
0
 40
0
 40
0
 40
0
 40
1
 40
1
 40
1
 40
1
 10
6.933624
 20
0.051060
 30
0.0
 10
6.933624
 20
-0.078313
 30
0.0
 10
6.902254
 20
-0.182695
 30
0.0
 10
6.839514
 20
-0.262083
 30
0.0
  0
SPLINE
  5
2ec
100
AcDbEntity
  8
Layer_1
 62
7
100
AcDbSpline
 70
8
 71
3
 72
8
 73
4
 74
0
 40
0
 40
0
 40
0
 40
0
 40
1
 40
1
 40
1
 40
1
 10
6.839514
 20
-0.262083
 30
0.0
 10
6.777341
 20
-0.341472
 30
0.0
 10
6.696270
 20
-0.381167
 30
0.0
 10
6.596302
 20
-0.381167
 30
0.0
  0
SPLINE
  5
2ed
100
AcDbEntity
  8
Layer_1
 62
7
100
AcDbSpline
 70
8
 71
3
 72
8
 73
4
 74
0
 40
0
 40
0
 40
0
 40
0
 40
1
 40
1
 40
1
 40
1
 10
6.596302
 20
-0.381167
 30
0.0
 10
6.536018
 20
-0.381167
 30
0.0
 10
6.484050
 20
-0.369403
 30
0.0
 10
6.440396
 20
-0.345876
 30
0.0
  0
SPLINE
  5
2ee
100
AcDbEntity
  8
Layer_1
 62
7
100
AcDbSpline
 70
8
 71
3
 72
8
 73
4
 74
0
 40
0
 40
0
 40
0
 40
0
 40
1
 40
1
 40
1
 40
1
 10
6.440396
 20
-0.345876
 30
0.0
 10
6.397309
 20
-0.321857
 30
0.0
 10
6.361498
 20
-0.285346
 30
0.0
 10
6.332963
 20
-0.236345
 30
0.0
  0
LWPOLYLINE
  5
2ef
100
AcDbEntity
  8
Layer_1
 62
7
100
AcDbPolyline
 90
1
 70
1
 10
6.793111
 20
0.051048
 30
0.0
  0
SPLINE
  5
2f0
100
AcDbEntity
  8
Layer_1
 62
7
100
AcDbSpline
 70
8
 71
3
 72
8
 73
4
 74
0
 40
0
 40
0
 40
0
 40
0
 40
1
 40
1
 40
1
 40
1
 10
7.476743
 20
0.368602
 30
0.0
 10
7.404176
 20
0.368602
 30
0.0
 10
7.346821
 20
0.340180
 30
0.0
 10
7.304680
 20
0.283336
 30
0.0
  0
SPLINE
  5
2f1
100
AcDbEntity
  8
Layer_1
 62
7
100
AcDbSpline
 70
8
 71
3
 72
8
 73
4
 74
0
 40
0
 40
0
 40
0
 40
0
 40
1
 40
1
 40
1
 40
1
 10
7.304680
 20
0.283336
 30
0.0
 10
7.262538
 20
0.226984
 30
0.0
 10
7.241467
 20
0.149560
 30
0.0
 10
7.241467
 20
0.051065
 30
0.0
  0
SPLINE
  5
2f2
100
AcDbEntity
  8
Layer_1
 62
7
100
AcDbSpline
 70
8
 71
3
 72
8
 73
4
 74
0
 40
0
 40
0
 40
0
 40
0
 40
1
 40
1
 40
1
 40
1
 10
7.241467
 20
0.051065
 30
0.0
 10
7.241467
 20
-0.047429
 30
0.0
 10
7.262254
 20
-0.125108
 30
0.0
 10
7.303829
 20
-0.181971
 30
0.0
  0
SPLINE
  5
2f3
100
AcDbEntity
  8
Layer_1
 62
7
100
AcDbSpline
 70
8
 71
3
 72
8
 73
4
 74
0
 40
0
 40
0
 40
0
 40
0
 40
1
 40
1
 40
1
 40
1
 10
7.303829
 20
-0.181971
 30
0.0
 10
7.345971
 20
-0.238323
 30
0.0
 10
7.403514
 20
-0.266500
 30
0.0
 10
7.476459
 20
-0.266500
 30
0.0
  0
SPLINE
  5
2f4
100
AcDbEntity
  8
Layer_1
 62
7
100
AcDbSpline
 70
8
 71
3
 72
8
 73
4
 74
0
 40
0
 40
0
 40
0
 40
0
 40
1
 40
1
 40
1
 40
1
 10
7.476459
 20
-0.266500
 30
0.0
 10
7.548459
 20
-0.266500
 30
0.0
 10
7.605530
 20
-0.238078
 30
0.0
 10
7.647672
 20
-0.181234
 30
0.0
  0
SPLINE
  5
2f5
100
AcDbEntity
  8
Layer_1
 62
7
100
AcDbSpline
 70
8
 71
3
 72
8
 73
4
 74
0
 40
0
 40
0
 40
0
 40
0
 40
1
 40
1
 40
1
 40
1
 10
7.647672
 20
-0.181234
 30
0.0
 10
7.689813
 20
-0.124390
 30
0.0
 10
7.710884
 20
-0.046966
 30
0.0
 10
7.710884
 20
0.051037
 30
0.0
  0
SPLINE
  5
2f6
100
AcDbEntity
  8
Layer_1
 62
7
100
AcDbSpline
 70
8
 71
3
 72
8
 73
4
 74
0
 40
0
 40
0
 40
0
 40
0
 40
1
 40
1
 40
1
 40
1
 10
7.710884
 20
0.051037
 30
0.0
 10
7.710884
 20
0.148549
 30
0.0
 10
7.689813
 20
0.225736
 30
0.0
 10
7.647672
 20
0.282599
 30
0.0
  0
SPLINE
  5
2f7
100
AcDbEntity
  8
Layer_1
 62
7
100
AcDbSpline
 70
8
 71
3
 72
8
 73
4
 74
0
 40
0
 40
0
 40
0
 40
0
 40
1
 40
1
 40
1
 40
1
 10
7.647672
 20
0.282599
 30
0.0
 10
7.605530
 20
0.339935
 30
0.0
 10
7.548459
 20
0.368602
 30
0.0
 10
7.476459
 20
0.368602
 30
0.0
  0
LWPOLYLINE
  5
2f8
100
AcDbEntity
  8
Layer_1
 62
7
100
AcDbPolyline
 90
6
 70
0
 10
6.332963
 20
-0.236345
 30
0.0
 10
6.332963
 20
-0.359850
 30
0.0
 10
6.196900
 20
-0.359850
 30
0.0
 10
6.196900
 20
0.783935
 30
0.0
 10
6.332963
 20
0.783935
 30
0.0
 10
6.332963
 20
0.338465
 30
0.0
  0
SPLINE
  5
2f9
100
AcDbEntity
  8
Layer_1
 62
7
100
AcDbSpline
 70
8
 71
3
 72
8
 73
4
 74
0
 40
0
 40
0
 40
0
 40
0
 40
1
 40
1
 40
1
 40
1
 10
7.476743
 20
0.483264
 30
0.0
 10
7.594286
 20
0.483264
 30
0.0
 10
7.686695
 20
0.445043
 30
0.0
 10
7.753971
 20
0.368602
 30
0.0
  0
SPLINE
  5
2fa
100
AcDbEntity
  8
Layer_1
 62
7
100
AcDbSpline
 70
8
 71
3
 72
8
 73
4
 74
0
 40
0
 40
0
 40
0
 40
0
 40
1
 40
1
 40
1
 40
1
 10
7.753971
 20
0.368602
 30
0.0
 10
7.821058
 20
0.292162
 30
0.0
 10
7.854601
 20
0.186310
 30
0.0
 10
7.854601
 20
0.051048
 30
0.0
  0
SPLINE
  5
2fb
100
AcDbEntity
  8
Layer_1
 62
7
100
AcDbSpline
 70
8
 71
3
 72
8
 73
4
 74
0
 40
0
 40
0
 40
0
 40
0
 40
1
 40
1
 40
1
 40
1
 10
7.854601
 20
0.051048
 30
0.0
 10
7.854601
 20
-0.083711
 30
0.0
 10
7.821058
 20
-0.189562
 30
0.0
 10
7.753971
 20
-0.266506
 30
0.0
  0
SPLINE
  5
2fc
100
AcDbEntity
  8
Layer_1
 62
7
100
AcDbSpline
 70
8
 71
3
 72
8
 73
4
 74
0
 40
0
 40
0
 40
0
 40
0
 40
1
 40
1
 40
1
 40
1
 10
7.753971
 20
-0.266506
 30
0.0
 10
7.686884
 20
-0.342946
 30
0.0
 10
7.594475
 20
-0.381167
 30
0.0
 10
7.476743
 20
-0.381167
 30
0.0
  0
SPLINE
  5
2fd
100
AcDbEntity
  8
Layer_1
 62
7
100
AcDbSpline
 70
8
 71
3
 72
8
 73
4
 74
0
 40
0
 40
0
 40
0
 40
0
 40
1
 40
1
 40
1
 40
1
 10
7.476743
 20
-0.381167
 30
0.0
 10
7.358632
 20
-0.381167
 30
0.0
 10
7.266034
 20
-0.342946
 30
0.0
 10
7.198947
 20
-0.266506
 30
0.0
  0
SPLINE
  5
2fe
100
AcDbEntity
  8
Layer_1
 62
7
100
AcDbSpline
 70
8
 71
3
 72
8
 73
4
 74
0
 40
0
 40
0
 40
0
 40
0
 40
1
 40
1
 40
1
 40
1
 10
7.198947
 20
-0.266506
 30
0.0
 10
7.132239
 20
-0.189573
 30
0.0
 10
7.098884
 20
-0.083722
 30
0.0
 10
7.098884
 20
0.051048
 30
0.0
  0
SPLINE
  5
2ff
100
AcDbEntity
  8
Layer_1
 62
7
100
AcDbSpline
 70
8
 71
3
 72
8
 73
4
 74
0
 40
0
 40
0
 40
0
 40
0
 40
1
 40
1
 40
1
 40
1
 10
7.098884
 20
0.051048
 30
0.0
 10
7.098884
 20
0.186299
 30
0.0
 10
7.132239
 20
0.292150
 30
0.0
 10
7.198947
 20
0.368602
 30
0.0
  0
SPLINE
  5
300
100
AcDbEntity
  8
Layer_1
 62
7
100
AcDbSpline
 70
8
 71
3
 72
8
 73
4
 74
0
 40
0
 40
0
 40
0
 40
0
 40
1
 40
1
 40
1
 40
1
 10
7.198947
 20
0.368602
 30
0.0
 10
7.266034
 20
0.445043
 30
0.0
 10
7.358632
 20
0.483264
 30
0.0
 10
7.476743
 20
0.483264
 30
0.0
  0
LWPOLYLINE
  5
301
100
AcDbEntity
  8
Layer_1
 62
7
100
AcDbPolyline
 90
2
 70
0
 10
7.476459
 20
0.368602
 30
0.0
 10
7.476743
 20
0.368602
 30
0.0
  0
LWPOLYLINE
  5
302
100
AcDbEntity
  8
Layer_1
 62
7
100
AcDbPolyline
 90
1
 70
1
 10
7.476743
 20
0.483264
 30
0.0
  0
SPLINE
  5
303
100
AcDbEntity
  8
Layer_1
 62
7
100
AcDbSpline
 70
8
 71
3
 72
8
 73
4
 74
0
 40
0
 40
0
 40
0
 40
0
 40
1
 40
1
 40
1
 40
1
 10
8.211823
 20
-0.088600
 30
0.0
 10
8.211823
 20
-0.155744
 30
0.0
 10
8.221272
 20
-0.198868
 30
0.0
 10
8.240169
 20
-0.217974
 30
0.0
  0
SPLINE
  5
304
100
AcDbEntity
  8
Layer_1
 62
7
100
AcDbSpline
 70
8
 71
3
 72
8
 73
4
 74
0
 40
0
 40
0
 40
0
 40
0
 40
1
 40
1
 40
1
 40
1
 10
8.240169
 20
-0.217974
 30
0.0
 10
8.259067
 20
-0.237079
 30
0.0
 10
8.296579
 20
-0.246632
 30
0.0
 10
8.352705
 20
-0.246632
 30
0.0
  0
LWPOLYLINE
  5
305
100
AcDbEntity
  8
Layer_1
 62
7
100
AcDbPolyline
 90
6
 70
0
 10
8.211823
 20
0.697183
 30
0.0
 10
8.211823
 20
0.463438
 30
0.0
 10
8.490469
 20
0.463438
 30
0.0
 10
8.490469
 20
0.358330
 30
0.0
 10
8.211823
 20
0.358330
 30
0.0
 10
8.211823
 20
-0.088600
 30
0.0
  0
SPLINE
  5
306
100
AcDbEntity
  8
Layer_1
 62
7
100
AcDbSpline
 70
8
 71
3
 72
8
 73
4
 74
0
 40
0
 40
0
 40
0
 40
0
 40
1
 40
1
 40
1
 40
1
 10
8.352705
 20
-0.359819
 30
0.0
 10
8.248390
 20
-0.359819
 30
0.0
 10
8.176390
 20
-0.340459
 30
0.0
 10
8.136705
 20
-0.301737
 30
0.0
  0
SPLINE
  5
307
100
AcDbEntity
  8
Layer_1
 62
7
100
AcDbSpline
 70
8
 71
3
 72
8
 73
4
 74
0
 40
0
 40
0
 40
0
 40
0
 40
1
 40
1
 40
1
 40
1
 10
8.136705
 20
-0.301737
 30
0.0
 10
8.097020
 20
-0.262525
 30
0.0
 10
8.077177
 20
-0.191470
 30
0.0
 10
8.077177
 20
-0.088572
 30
0.0
  0
LWPOLYLINE
  5
308
100
AcDbEntity
  8
Layer_1
 62
7
100
AcDbPolyline
 90
4
 70
0
 10
8.352705
 20
-0.246632
 30
0.0
 10
8.491602
 20
-0.246632
 30
0.0
 10
8.491602
 20
-0.359819
 30
0.0
 10
8.352705
 20
-0.359819
 30
0.0
  0
LWPOLYLINE
  5
309
100
AcDbEntity
  8
Layer_1
 62
7
100
AcDbPolyline
 90
7
 70
0
 10
8.077177
 20
-0.088572
 30
0.0
 10
8.077177
 20
0.358358
 30
0.0
 10
7.977965
 20
0.358358
 30
0.0
 10
7.977965
 20
0.463467
 30
0.0
 10
8.077177
 20
0.463467
 30
0.0
 10
8.077177
 20
0.697212
 30
0.0
 10
8.211823
 20
0.697183
 30
0.0
  0
ENDSEC
  0
SECTION
  2
OBJECTS
  0
DICTIONARY
  5
C
330
0
100
AcDbDictionary
  3
ACAD_GROUP
350
D
  3
ACAD_MLINESTYLE
350
17
  0
DICTIONARY
  5
D
330
C
100
AcDbDictionary
  0
DICTIONARY
  5
1A
330
C
100
AcDbDictionary
  0
DICTIONARY
  5
17
330
C
100
AcDbDictionary
  3
STANDARD
350
18
  0
DICTIONARY
  5
19
330
C
100
AcDbDictionary
  0
ENDSEC
  0
EOF
