%TF.GenerationSoftware,KiCad,Pcbnew,5.0.2-bee76a0~70~ubuntu18.04.1*%
%TF.CreationDate,2021-01-16T21:03:51-05:00*%
%TF.ProjectId,dippy,64697070-792e-46b6-9963-61645f706362,rev?*%
%TF.SameCoordinates,Original*%
%TF.FileFunction,Legend,Bot*%
%TF.FilePolarity,Positive*%
%FSLAX46Y46*%
G04 Gerber Fmt 4.6, Leading zero omitted, Abs format (unit mm)*
G04 Created by KiCad (PCBNEW 5.0.2-bee76a0~70~ubuntu18.04.1) date Sat 16 Jan 2021 09:03:51 PM EST*
%MOMM*%
%LPD*%
G01*
G04 APERTURE LIST*
%ADD10C,0.150000*%
%ADD11C,0.120000*%
G04 APERTURE END LIST*
D10*
X-121965476Y-13015476D02*
X-122248809Y-13420238D01*
X-122451190Y-13015476D02*
X-122451190Y-13865476D01*
X-122127380Y-13865476D01*
X-122046428Y-13825000D01*
X-122005952Y-13784523D01*
X-121965476Y-13703571D01*
X-121965476Y-13582142D01*
X-122005952Y-13501190D01*
X-122046428Y-13460714D01*
X-122127380Y-13420238D01*
X-122451190Y-13420238D01*
X-121641666Y-13055952D02*
X-121520238Y-13015476D01*
X-121317857Y-13015476D01*
X-121236904Y-13055952D01*
X-121196428Y-13096428D01*
X-121155952Y-13177380D01*
X-121155952Y-13258333D01*
X-121196428Y-13339285D01*
X-121236904Y-13379761D01*
X-121317857Y-13420238D01*
X-121479761Y-13460714D01*
X-121560714Y-13501190D01*
X-121601190Y-13541666D01*
X-121641666Y-13622619D01*
X-121641666Y-13703571D01*
X-121601190Y-13784523D01*
X-121560714Y-13825000D01*
X-121479761Y-13865476D01*
X-121277380Y-13865476D01*
X-121155952Y-13825000D01*
X-120913095Y-13865476D02*
X-120427380Y-13865476D01*
X-120670238Y-13015476D02*
X-120670238Y-13865476D01*
X-125342857Y-13205952D02*
X-125221428Y-13165476D01*
X-125019047Y-13165476D01*
X-124938095Y-13205952D01*
X-124897619Y-13246428D01*
X-124857142Y-13327380D01*
X-124857142Y-13408333D01*
X-124897619Y-13489285D01*
X-124938095Y-13529761D01*
X-125019047Y-13570238D01*
X-125180952Y-13610714D01*
X-125261904Y-13651190D01*
X-125302380Y-13691666D01*
X-125342857Y-13772619D01*
X-125342857Y-13853571D01*
X-125302380Y-13934523D01*
X-125261904Y-13975000D01*
X-125180952Y-14015476D01*
X-124978571Y-14015476D01*
X-124857142Y-13975000D01*
X-124007142Y-13246428D02*
X-124047619Y-13205952D01*
X-124169047Y-13165476D01*
X-124250000Y-13165476D01*
X-124371428Y-13205952D01*
X-124452380Y-13286904D01*
X-124492857Y-13367857D01*
X-124533333Y-13529761D01*
X-124533333Y-13651190D01*
X-124492857Y-13813095D01*
X-124452380Y-13894047D01*
X-124371428Y-13975000D01*
X-124250000Y-14015476D01*
X-124169047Y-14015476D01*
X-124047619Y-13975000D01*
X-124007142Y-13934523D01*
X-123642857Y-13165476D02*
X-123642857Y-14015476D01*
X-123157142Y-13165476D02*
X-123521428Y-13651190D01*
X-123157142Y-14015476D02*
X-123642857Y-13529761D01*
X-118775000Y-472619D02*
X-118734523Y-553571D01*
X-118734523Y-675000D01*
X-118775000Y-796428D01*
X-118855952Y-877380D01*
X-118936904Y-917857D01*
X-119098809Y-958333D01*
X-119220238Y-958333D01*
X-119382142Y-917857D01*
X-119463095Y-877380D01*
X-119544047Y-796428D01*
X-119584523Y-674999D01*
X-119584523Y-594047D01*
X-119544047Y-472619D01*
X-119503571Y-432142D01*
X-119220238Y-432142D01*
X-119220238Y-594047D01*
X-119584523Y-67857D02*
X-118734523Y-67857D01*
X-119584523Y417857D01*
X-118734523Y417857D01*
X-119584523Y822619D02*
X-118734523Y822619D01*
X-118734523Y1024999D01*
X-118775000Y1146428D01*
X-118855952Y1227380D01*
X-118936904Y1267857D01*
X-119098809Y1308333D01*
X-119220238Y1308333D01*
X-119382142Y1267857D01*
X-119463095Y1227380D01*
X-119544047Y1146428D01*
X-119584523Y1025000D01*
X-119584523Y822619D01*
X-124525000Y-447619D02*
X-124484523Y-528571D01*
X-124484523Y-650000D01*
X-124525000Y-771428D01*
X-124605952Y-852380D01*
X-124686904Y-892857D01*
X-124848809Y-933333D01*
X-124970238Y-933333D01*
X-125132142Y-892857D01*
X-125213095Y-852380D01*
X-125294047Y-771428D01*
X-125334523Y-649999D01*
X-125334523Y-569047D01*
X-125294047Y-447619D01*
X-125253571Y-407142D01*
X-124970238Y-407142D01*
X-124970238Y-569047D01*
X-125334523Y-42857D02*
X-124484523Y-42857D01*
X-125334523Y442857D01*
X-124484523Y442857D01*
X-125334523Y847619D02*
X-124484523Y847619D01*
X-124484523Y1050000D01*
X-124525000Y1171428D01*
X-124605952Y1252380D01*
X-124686904Y1292857D01*
X-124848809Y1333333D01*
X-124970238Y1333333D01*
X-125132142Y1292857D01*
X-125213095Y1252380D01*
X-125294047Y1171428D01*
X-125334523Y1050000D01*
X-125334523Y847619D01*
X-128835714Y-13215476D02*
X-128835714Y-14065476D01*
X-128552380Y-13458333D01*
X-128269047Y-14065476D01*
X-128269047Y-13215476D01*
X-127864285Y-13215476D02*
X-127864285Y-14065476D01*
X-127500000Y-13255952D02*
X-127378571Y-13215476D01*
X-127176190Y-13215476D01*
X-127095238Y-13255952D01*
X-127054761Y-13296428D01*
X-127014285Y-13377380D01*
X-127014285Y-13458333D01*
X-127054761Y-13539285D01*
X-127095238Y-13579761D01*
X-127176190Y-13620238D01*
X-127338095Y-13660714D01*
X-127419047Y-13701190D01*
X-127459523Y-13741666D01*
X-127500000Y-13822619D01*
X-127500000Y-13903571D01*
X-127459523Y-13984523D01*
X-127419047Y-14025000D01*
X-127338095Y-14065476D01*
X-127135714Y-14065476D01*
X-127014285Y-14025000D01*
X-126488095Y-14065476D02*
X-126326190Y-14065476D01*
X-126245238Y-14025000D01*
X-126164285Y-13944047D01*
X-126123809Y-13782142D01*
X-126123809Y-13498809D01*
X-126164285Y-13336904D01*
X-126245238Y-13255952D01*
X-126326190Y-13215476D01*
X-126488095Y-13215476D01*
X-126569047Y-13255952D01*
X-126650000Y-13336904D01*
X-126690476Y-13498809D01*
X-126690476Y-13782142D01*
X-126650000Y-13944047D01*
X-126569047Y-14025000D01*
X-126488095Y-14065476D01*
X-128997619Y-5415476D02*
X-128471428Y-5415476D01*
X-128754761Y-5091666D01*
X-128633333Y-5091666D01*
X-128552380Y-5051190D01*
X-128511904Y-5010714D01*
X-128471428Y-4929761D01*
X-128471428Y-4727380D01*
X-128511904Y-4646428D01*
X-128552380Y-4605952D01*
X-128633333Y-4565476D01*
X-128876190Y-4565476D01*
X-128957142Y-4605952D01*
X-128997619Y-4646428D01*
X-128228571Y-5415476D02*
X-127945238Y-4565476D01*
X-127661904Y-5415476D01*
X-125610714Y-3340476D02*
X-125610714Y-4190476D01*
X-125327380Y-3583333D01*
X-125044047Y-4190476D01*
X-125044047Y-3340476D01*
X-124477380Y-4190476D02*
X-124315476Y-4190476D01*
X-124234523Y-4150000D01*
X-124153571Y-4069047D01*
X-124113095Y-3907142D01*
X-124113095Y-3623809D01*
X-124153571Y-3461904D01*
X-124234523Y-3380952D01*
X-124315476Y-3340476D01*
X-124477380Y-3340476D01*
X-124558333Y-3380952D01*
X-124639285Y-3461904D01*
X-124679761Y-3623809D01*
X-124679761Y-3907142D01*
X-124639285Y-4069047D01*
X-124558333Y-4150000D01*
X-124477380Y-4190476D01*
X-123789285Y-3380952D02*
X-123667857Y-3340476D01*
X-123465476Y-3340476D01*
X-123384523Y-3380952D01*
X-123344047Y-3421428D01*
X-123303571Y-3502380D01*
X-123303571Y-3583333D01*
X-123344047Y-3664285D01*
X-123384523Y-3704761D01*
X-123465476Y-3745238D01*
X-123627380Y-3785714D01*
X-123708333Y-3826190D01*
X-123748809Y-3866666D01*
X-123789285Y-3947619D01*
X-123789285Y-4028571D01*
X-123748809Y-4109523D01*
X-123708333Y-4150000D01*
X-123627380Y-4190476D01*
X-123425000Y-4190476D01*
X-123303571Y-4150000D01*
X-122939285Y-3340476D02*
X-122939285Y-4190476D01*
X-120172619Y-5400000D02*
X-120253571Y-5440476D01*
X-120375000Y-5440476D01*
X-120496428Y-5400000D01*
X-120577380Y-5319047D01*
X-120617857Y-5238095D01*
X-120658333Y-5076190D01*
X-120658333Y-4954761D01*
X-120617857Y-4792857D01*
X-120577380Y-4711904D01*
X-120496428Y-4630952D01*
X-120375000Y-4590476D01*
X-120294047Y-4590476D01*
X-120172619Y-4630952D01*
X-120132142Y-4671428D01*
X-120132142Y-4954761D01*
X-120294047Y-4954761D01*
X-119767857Y-4590476D02*
X-119767857Y-5440476D01*
X-119282142Y-4590476D01*
X-119282142Y-5440476D01*
X-118877380Y-4590476D02*
X-118877380Y-5440476D01*
X-118675000Y-5440476D01*
X-118553571Y-5400000D01*
X-118472619Y-5319047D01*
X-118432142Y-5238095D01*
X-118391666Y-5076190D01*
X-118391666Y-4954761D01*
X-118432142Y-4792857D01*
X-118472619Y-4711904D01*
X-118553571Y-4630952D01*
X-118675000Y-4590476D01*
X-118877380Y-4590476D01*
D11*
%TO.C,J5*%
X-128045000Y-6025000D02*
X-128045000Y-11225000D01*
X-128045000Y-11225000D02*
X-127475000Y-11225000D01*
X-125955000Y-11225000D02*
X-124935000Y-11225000D01*
X-123415000Y-11225000D02*
X-122395000Y-11225000D01*
X-120875000Y-11225000D02*
X-120305000Y-11225000D01*
X-120305000Y-6025000D02*
X-120305000Y-11225000D01*
X-128045000Y-6025000D02*
X-127475000Y-6025000D01*
X-125955000Y-6025000D02*
X-124935000Y-6025000D01*
X-123415000Y-6025000D02*
X-122395000Y-6025000D01*
X-120875000Y-6025000D02*
X-120305000Y-6025000D01*
X-127475000Y-11225000D02*
X-127475000Y-12585000D01*
D10*
X-130032619Y-8291666D02*
X-129318333Y-8291666D01*
X-129175476Y-8244047D01*
X-129080238Y-8148809D01*
X-129032619Y-8005952D01*
X-129032619Y-7910714D01*
X-130032619Y-9244047D02*
X-130032619Y-8767857D01*
X-129556428Y-8720238D01*
X-129604047Y-8767857D01*
X-129651666Y-8863095D01*
X-129651666Y-9101190D01*
X-129604047Y-9196428D01*
X-129556428Y-9244047D01*
X-129461190Y-9291666D01*
X-129223095Y-9291666D01*
X-129127857Y-9244047D01*
X-129080238Y-9196428D01*
X-129032619Y-9101190D01*
X-129032619Y-8863095D01*
X-129080238Y-8767857D01*
X-129127857Y-8720238D01*
%TD*%
M02*
