%TF.GenerationSoftware,KiCad,Pcbnew,5.0.2-bee76a0~70~ubuntu18.04.1*%
%TF.CreationDate,2021-01-16T21:04:08-05:00*%
%TF.ProjectId,dippy,64697070-792e-46b6-9963-61645f706362,rev?*%
%TF.SameCoordinates,Original*%
%TF.FileFunction,Copper,L1,Top*%
%TF.FilePolarity,Positive*%
%FSLAX46Y46*%
G04 Gerber Fmt 4.6, Leading zero omitted, Abs format (unit mm)*
G04 Created by KiCad (PCBNEW 5.0.2-bee76a0~70~ubuntu18.04.1) date Sat 16 Jan 2021 09:04:08 PM EST*
%MOMM*%
%LPD*%
G01*
G04 APERTURE LIST*
%TA.AperFunction,ComponentPad*%
%ADD10O,1.700000X1.700000*%
%TD*%
%TA.AperFunction,ComponentPad*%
%ADD11R,1.700000X1.700000*%
%TD*%
%TA.AperFunction,ComponentPad*%
%ADD12C,2.600000*%
%TD*%
%TA.AperFunction,ComponentPad*%
%ADD13R,2.600000X2.600000*%
%TD*%
%TA.AperFunction,ComponentPad*%
%ADD14C,1.500000*%
%TD*%
%TA.AperFunction,ComponentPad*%
%ADD15O,1.400000X1.400000*%
%TD*%
%TA.AperFunction,ComponentPad*%
%ADD16C,1.400000*%
%TD*%
%TA.AperFunction,ComponentPad*%
%ADD17C,1.600000*%
%TD*%
%TA.AperFunction,ComponentPad*%
%ADD18R,1.800000X1.800000*%
%TD*%
%TA.AperFunction,ComponentPad*%
%ADD19C,1.800000*%
%TD*%
%TA.AperFunction,ComponentPad*%
%ADD20R,1.500000X1.500000*%
%TD*%
%TA.AperFunction,SMDPad,CuDef*%
%ADD21O,2.000000X1.000000*%
%TD*%
%TA.AperFunction,ComponentPad*%
%ADD22O,1.600000X1.600000*%
%TD*%
%TA.AperFunction,ComponentPad*%
%ADD23R,1.600000X1.600000*%
%TD*%
%TA.AperFunction,ComponentPad*%
%ADD24C,1.700000*%
%TD*%
%TA.AperFunction,SMDPad,CuDef*%
%ADD25R,1.270000X3.600000*%
%TD*%
%TA.AperFunction,SMDPad,CuDef*%
%ADD26R,1.350000X4.200000*%
%TD*%
%TA.AperFunction,ViaPad*%
%ADD27C,0.800000*%
%TD*%
%TA.AperFunction,Conductor*%
%ADD28C,1.000000*%
%TD*%
G04 APERTURE END LIST*
D10*
%TO.P,J12,2*%
%TO.N,VIN*%
X-96106000Y-73719000D03*
D11*
%TO.P,J12,1*%
%TO.N,GND*%
X-93566000Y-73719000D03*
%TD*%
%TO.P,J11,1*%
%TO.N,GND*%
X-104450000Y-54325000D03*
D10*
%TO.P,J11,2*%
%TO.N,VCC*%
X-106990000Y-54325000D03*
%TO.P,J11,3*%
%TO.N,A5*%
X-109530000Y-54325000D03*
%TO.P,J11,4*%
%TO.N,A4*%
X-112070000Y-54325000D03*
%TD*%
%TO.P,J10,6*%
%TO.N,D5*%
X-98830000Y-36140000D03*
%TO.P,J10,5*%
%TO.N,D4*%
X-98830000Y-38680000D03*
%TO.P,J10,4*%
%TO.N,D3*%
X-98830000Y-41220000D03*
%TO.P,J10,3*%
%TO.N,VCC*%
X-98830000Y-43760000D03*
%TO.P,J10,2*%
%TO.N,GND*%
X-98830000Y-46300000D03*
D11*
%TO.P,J10,1*%
%TO.N,VIN*%
X-98830000Y-48840000D03*
%TD*%
D12*
%TO.P,J3,6*%
%TO.N,D5*%
X-91110000Y-24810000D03*
%TO.P,J3,5*%
%TO.N,D4*%
X-91110000Y-29810000D03*
%TO.P,J3,4*%
%TO.N,D3*%
X-91110000Y-34810000D03*
%TO.P,J3,3*%
%TO.N,VCC*%
X-91110000Y-39810000D03*
%TO.P,J3,2*%
%TO.N,GND*%
X-91110000Y-44810000D03*
D13*
%TO.P,J3,1*%
%TO.N,VIN*%
X-91110000Y-49810000D03*
%TD*%
D14*
%TO.P,Y1,2*%
%TO.N,Net-(U1-Pad10)*%
X-99925000Y-19275000D03*
%TO.P,Y1,1*%
%TO.N,Net-(U1-Pad9)*%
X-99925000Y-24275000D03*
%TD*%
D10*
%TO.P,J7,5*%
%TO.N,GND*%
X-118030000Y-15470000D03*
%TO.P,J7,4*%
%TO.N,VCC*%
X-118030000Y-18010000D03*
%TO.P,J7,3*%
%TO.N,A0*%
X-118030000Y-20550000D03*
%TO.P,J7,2*%
%TO.N,A1*%
X-118030000Y-23090000D03*
D11*
%TO.P,J7,1*%
%TO.N,A2*%
X-118030000Y-25630000D03*
%TD*%
D15*
%TO.P,R9,2*%
%TO.N,D3*%
X-113495000Y-58650000D03*
D16*
%TO.P,R9,1*%
%TO.N,VCC*%
X-105875000Y-58650000D03*
%TD*%
D17*
%TO.P,C3,2*%
%TO.N,GND*%
X-127525000Y-34375000D03*
%TO.P,C3,1*%
%TO.N,Net-(C3-Pad1)*%
X-122525000Y-34375000D03*
%TD*%
D15*
%TO.P,R8,2*%
%TO.N,A5*%
X-113470000Y-60925000D03*
D16*
%TO.P,R8,1*%
%TO.N,VCC*%
X-105850000Y-60925000D03*
%TD*%
D15*
%TO.P,R7,2*%
%TO.N,A4*%
X-127220000Y-59900000D03*
D16*
%TO.P,R7,1*%
%TO.N,VCC*%
X-119600000Y-59900000D03*
%TD*%
%TO.P,R6,1*%
%TO.N,Net-(LED1-Pad1)*%
X-87875000Y-18025000D03*
D15*
%TO.P,R6,2*%
%TO.N,GND*%
X-95495000Y-18025000D03*
%TD*%
%TO.P,R5,2*%
%TO.N,GND*%
X-99930000Y-62130000D03*
D16*
%TO.P,R5,1*%
%TO.N,A3*%
X-99930000Y-69750000D03*
%TD*%
D15*
%TO.P,R4,2*%
%TO.N,A3*%
X-97580000Y-70870000D03*
D16*
%TO.P,R4,1*%
%TO.N,VIN*%
X-97580000Y-63250000D03*
%TD*%
%TO.P,R3,1*%
%TO.N,VCC*%
X-87850000Y-20375000D03*
D15*
%TO.P,R3,2*%
%TO.N,D4*%
X-95470000Y-20375000D03*
%TD*%
%TO.P,R2,2*%
%TO.N,A2*%
X-114850000Y-42270000D03*
D16*
%TO.P,R2,1*%
%TO.N,VCC*%
X-114850000Y-34650000D03*
%TD*%
D15*
%TO.P,R1,2*%
%TO.N,RST*%
X-120200000Y-70945000D03*
D16*
%TO.P,R1,1*%
%TO.N,VCC*%
X-120200000Y-63325000D03*
%TD*%
D17*
%TO.P,C6,2*%
%TO.N,GND*%
X-127500000Y-31675000D03*
%TO.P,C6,1*%
%TO.N,A3*%
X-122500000Y-31675000D03*
%TD*%
%TO.P,C4,2*%
%TO.N,GND*%
X-87450000Y-55110000D03*
%TO.P,C4,1*%
%TO.N,VCC*%
X-92450000Y-55110000D03*
%TD*%
%TO.P,C2,2*%
%TO.N,GND*%
X-87450000Y-57700000D03*
%TO.P,C2,1*%
%TO.N,VIN*%
X-92450000Y-57700000D03*
%TD*%
%TO.P,C1,2*%
%TO.N,Net-(C1-Pad2)*%
X-118825000Y-74350000D03*
%TO.P,C1,1*%
%TO.N,RST*%
X-123825000Y-74350000D03*
%TD*%
D18*
%TO.P,LED1,1*%
%TO.N,Net-(LED1-Pad1)*%
X-89025000Y-12025000D03*
D19*
%TO.P,LED1,2*%
%TO.N,A0*%
X-89025000Y-9485000D03*
%TD*%
D20*
%TO.P,U3,1*%
%TO.N,GND*%
X-99890000Y-56500000D03*
D14*
%TO.P,U3,3*%
%TO.N,VCC*%
X-94810000Y-56500000D03*
%TO.P,U3,2*%
%TO.N,VIN*%
X-97350000Y-53960000D03*
%TD*%
D21*
%TO.P,U2,16*%
%TO.N,N/C*%
X-111026000Y-13575000D03*
%TO.P,U2,15*%
%TO.N,D6*%
X-111026000Y-11575000D03*
%TO.P,U2,14*%
%TO.N,D2*%
X-111026000Y-9575000D03*
%TO.P,U2,13*%
%TO.N,VCC*%
X-111026000Y-7575000D03*
%TO.P,U2,12*%
%TO.N,N/C*%
X-111026000Y-5575000D03*
%TO.P,U2,11*%
X-111026000Y-3575000D03*
%TO.P,U2,10*%
%TO.N,GND*%
X-111026000Y-1575000D03*
%TO.P,U2,9*%
%TO.N,Net-(AT1-Pad1)*%
X-111026000Y425000D03*
%TO.P,U2,8*%
%TO.N,GND*%
X-95026000Y425000D03*
%TO.P,U2,7*%
%TO.N,N/C*%
X-95026000Y-1575000D03*
%TO.P,U2,6*%
%TO.N,D7*%
X-95026000Y-3575000D03*
%TO.P,U2,5*%
%TO.N,D8*%
X-95026000Y-5575000D03*
%TO.P,U2,4*%
%TO.N,SCK*%
X-95026000Y-7575000D03*
%TO.P,U2,3*%
%TO.N,MOSI*%
X-95026000Y-9575000D03*
%TO.P,U2,2*%
%TO.N,MISO*%
X-95026000Y-11575000D03*
%TO.P,U2,1*%
%TO.N,GND*%
X-95026000Y-13575000D03*
%TD*%
D22*
%TO.P,U1,28*%
%TO.N,A5*%
X-112120000Y-50875000D03*
%TO.P,U1,14*%
%TO.N,D8*%
X-104500000Y-17855000D03*
%TO.P,U1,27*%
%TO.N,A4*%
X-112120000Y-48335000D03*
%TO.P,U1,13*%
%TO.N,D7*%
X-104500000Y-20395000D03*
%TO.P,U1,26*%
%TO.N,A3*%
X-112120000Y-45795000D03*
%TO.P,U1,12*%
%TO.N,D6*%
X-104500000Y-22935000D03*
%TO.P,U1,25*%
%TO.N,A2*%
X-112120000Y-43255000D03*
%TO.P,U1,11*%
%TO.N,D5*%
X-104500000Y-25475000D03*
%TO.P,U1,24*%
%TO.N,A1*%
X-112120000Y-40715000D03*
%TO.P,U1,10*%
%TO.N,Net-(U1-Pad10)*%
X-104500000Y-28015000D03*
%TO.P,U1,23*%
%TO.N,A0*%
X-112120000Y-38175000D03*
%TO.P,U1,9*%
%TO.N,Net-(U1-Pad9)*%
X-104500000Y-30555000D03*
%TO.P,U1,22*%
%TO.N,GND*%
X-112120000Y-35635000D03*
%TO.P,U1,8*%
X-104500000Y-33095000D03*
%TO.P,U1,21*%
%TO.N,Net-(C3-Pad1)*%
X-112120000Y-33095000D03*
%TO.P,U1,7*%
%TO.N,VCC*%
X-104500000Y-35635000D03*
%TO.P,U1,20*%
X-112120000Y-30555000D03*
%TO.P,U1,6*%
%TO.N,D4*%
X-104500000Y-38175000D03*
%TO.P,U1,19*%
%TO.N,SCK*%
X-112120000Y-28015000D03*
%TO.P,U1,5*%
%TO.N,D3*%
X-104500000Y-40715000D03*
%TO.P,U1,18*%
%TO.N,MISO*%
X-112120000Y-25475000D03*
%TO.P,U1,4*%
%TO.N,D2*%
X-104500000Y-43255000D03*
%TO.P,U1,17*%
%TO.N,MOSI*%
X-112120000Y-22935000D03*
%TO.P,U1,3*%
%TO.N,TX0*%
X-104500000Y-45795000D03*
%TO.P,U1,16*%
%TO.N,N/C*%
X-112120000Y-20395000D03*
%TO.P,U1,2*%
%TO.N,RX0*%
X-104500000Y-48335000D03*
%TO.P,U1,15*%
%TO.N,N/C*%
X-112120000Y-17855000D03*
D23*
%TO.P,U1,1*%
%TO.N,RST*%
X-104500000Y-50875000D03*
%TD*%
D24*
%TO.P,SW1,1*%
%TO.N,RST*%
X-123220000Y-62851000D03*
%TO.P,SW1,2*%
X-123220000Y-69351000D03*
%TO.P,SW1,3*%
%TO.N,GND*%
X-127720000Y-62851000D03*
%TO.P,SW1,4*%
X-127720000Y-69351000D03*
%TD*%
D11*
%TO.P,J9,1*%
%TO.N,VIN*%
X-107286000Y-67897000D03*
D10*
%TO.P,J9,2*%
%TO.N,GND*%
X-109826000Y-67897000D03*
%TO.P,J9,3*%
%TO.N,VCC*%
X-112366000Y-67897000D03*
%TD*%
D12*
%TO.P,J8,4*%
%TO.N,GND*%
X-124600000Y-55060000D03*
%TO.P,J8,3*%
%TO.N,VCC*%
X-124600000Y-50060000D03*
%TO.P,J8,2*%
%TO.N,A5*%
X-124600000Y-45060000D03*
D13*
%TO.P,J8,1*%
%TO.N,A4*%
X-124600000Y-40060000D03*
%TD*%
D10*
%TO.P,J6,4*%
%TO.N,A4*%
X-118020000Y-45750000D03*
%TO.P,J6,3*%
%TO.N,A5*%
X-118020000Y-48290000D03*
%TO.P,J6,2*%
%TO.N,VCC*%
X-118020000Y-50830000D03*
D11*
%TO.P,J6,1*%
%TO.N,GND*%
X-118020000Y-53370000D03*
%TD*%
D25*
%TO.P,J4,1*%
%TO.N,Net-(AT1-Pad1)*%
X-120680000Y-421000D03*
D26*
%TO.P,J4,2*%
%TO.N,GND*%
X-123505000Y-621000D03*
X-117855000Y-621000D03*
%TD*%
D12*
%TO.P,J2,3*%
%TO.N,A2*%
X-124470000Y-25820000D03*
%TO.P,J2,2*%
%TO.N,VCC*%
X-124470000Y-20820000D03*
D13*
%TO.P,J2,1*%
%TO.N,GND*%
X-124470000Y-15820000D03*
%TD*%
%TO.P,J1,1*%
%TO.N,GND*%
X-91660000Y-67800000D03*
D12*
%TO.P,J1,2*%
%TO.N,VIN*%
X-91660000Y-62800000D03*
%TD*%
D11*
%TO.P,FTDI1,1*%
%TO.N,GND*%
X-102425000Y-73425000D03*
D10*
%TO.P,FTDI1,2*%
%TO.N,N/C*%
X-104965000Y-73425000D03*
%TO.P,FTDI1,3*%
%TO.N,VIN*%
X-107505000Y-73425000D03*
%TO.P,FTDI1,4*%
%TO.N,RX0*%
X-110045000Y-73425000D03*
%TO.P,FTDI1,5*%
%TO.N,TX0*%
X-112585000Y-73425000D03*
%TO.P,FTDI1,6*%
%TO.N,Net-(C1-Pad2)*%
X-115125000Y-73425000D03*
%TD*%
D23*
%TO.P,C5,1*%
%TO.N,VCC*%
X-100125000Y-31975000D03*
D17*
%TO.P,C5,2*%
%TO.N,GND*%
X-100125000Y-29475000D03*
%TD*%
D11*
%TO.P,AT1,1*%
%TO.N,Net-(AT1-Pad1)*%
X-114584000Y-367000D03*
%TD*%
D27*
%TO.N,Net-(AT1-Pad1)*%
X-120680000Y-367000D03*
%TO.N,RST*%
X-121650000Y-12150000D03*
X-126875000Y-15700000D03*
X-113960000Y-54560000D03*
%TO.N,GND*%
X-117855000Y-621000D03*
X-123505000Y-621000D03*
X-108996000Y-28561000D03*
X-121635000Y-6105000D03*
X-127030000Y-19315000D03*
X-103825000Y-65025000D03*
X-97350000Y-19850000D03*
%TO.N,VCC*%
X-126700000Y-5225000D03*
X-102375000Y-63500000D03*
X-94325000Y-32450000D03*
%TO.N,TX0*%
X-115800000Y-59850000D03*
X-117380000Y-57070000D03*
%TO.N,D4*%
X-95450000Y-24775000D03*
%TO.N,D3*%
X-102200000Y-58000000D03*
X-101175000Y-52700000D03*
%TO.N,MOSI*%
X-95026000Y-9575000D03*
X-124175000Y-6105000D03*
X-114125000Y-4775000D03*
X-102025000Y-3875000D03*
X-101820000Y-9575000D03*
%TO.N,SCK*%
X-95026000Y-7479000D03*
X-124175000Y-12225000D03*
X-104175000Y-3925000D03*
X-104054000Y-7479000D03*
%TO.N,MISO*%
X-95026000Y-11575000D03*
X-106350000Y-2175000D03*
X-103408000Y-12813000D03*
%TO.N,A4*%
X-118140000Y-55730000D03*
%TO.N,A5*%
X-108300000Y-50925000D03*
%TO.N,D8*%
X-92750000Y-14940000D03*
%TO.N,D7*%
X-92330000Y-16340000D03*
%TD*%
D28*
%TO.N,Net-(AT1-Pad1)*%
X-114584000Y-367000D02*
X-113314000Y-367000D01*
X-112522000Y425000D02*
X-111026000Y425000D01*
X-113314000Y-367000D02*
X-112522000Y425000D01*
X-120680000Y-421000D02*
X-120680000Y-367000D01*
%TO.N,Net-(C1-Pad2)*%
X-115285000Y-73265000D02*
X-115125000Y-73425000D01*
X-117900000Y-73425000D02*
X-118825000Y-74350000D01*
X-115125000Y-73425000D02*
X-117900000Y-73425000D01*
%TO.N,RST*%
X-104500000Y-50875000D02*
X-104500000Y-50989000D01*
X-123220000Y-69351000D02*
X-123220000Y-62851000D01*
X-122966000Y-69605000D02*
X-123220000Y-69351000D01*
X-123220000Y-69351000D02*
X-123220000Y-72120000D01*
X-121794000Y-69351000D02*
X-120200000Y-70945000D01*
X-123220000Y-69351000D02*
X-121794000Y-69351000D01*
X-123825000Y-72725000D02*
X-123220000Y-72120000D01*
X-123825000Y-74350000D02*
X-123825000Y-72725000D01*
X-111375001Y-52375001D02*
X-112775001Y-52375001D01*
X-112775001Y-52375001D02*
X-113620001Y-53220001D01*
X-111375001Y-52375001D02*
X-110000000Y-51000000D01*
X-110000000Y-51000000D02*
X-110000000Y-49175000D01*
X-110000000Y-49175000D02*
X-109300000Y-48475000D01*
X-109300000Y-48475000D02*
X-107500000Y-48475000D01*
X-105100000Y-50875000D02*
X-104500000Y-50875000D01*
X-107500000Y-48475000D02*
X-105100000Y-50875000D01*
X-113620001Y-53220001D02*
X-113620001Y-54220001D01*
X-113620001Y-54220001D02*
X-113960000Y-54560000D01*
X-121635000Y-12135000D02*
X-121650000Y-12150000D01*
X-122025000Y-8975000D02*
X-121635000Y-9365000D01*
X-125225000Y-8975000D02*
X-122025000Y-8975000D01*
X-126875000Y-15700000D02*
X-126875000Y-10625000D01*
X-121635000Y-9365000D02*
X-121635000Y-12135000D01*
X-126875000Y-10625000D02*
X-125225000Y-8975000D01*
%TO.N,GND*%
X-112120000Y-35635000D02*
X-111574000Y-35635000D01*
X-117855000Y-621000D02*
X-117855000Y-621000D01*
X-117855000Y-1414000D02*
X-117124000Y-2145000D01*
X-123505000Y-621000D02*
X-123505000Y-621000D01*
X-123505000Y-621000D02*
X-123505000Y-2114000D01*
X-123505000Y-2114000D02*
X-122204000Y-3415000D01*
X-122204000Y-3415000D02*
X-119978998Y-3415000D01*
X-117855000Y-1291002D02*
X-117855000Y-621000D01*
X-119978998Y-3415000D02*
X-117855000Y-1291002D01*
X-97026000Y-13575000D02*
X-97413000Y-13188000D01*
X-95026000Y-13575000D02*
X-97026000Y-13575000D01*
X-96012000Y425000D02*
X-95026000Y425000D01*
X-97566000Y-1129000D02*
X-96012000Y425000D01*
X-127720000Y-69351000D02*
X-127720000Y-62851000D01*
X-117855000Y-621000D02*
X-117855000Y-1414000D01*
X-123505000Y-621000D02*
X-123505000Y-1098000D01*
X-97566000Y-13035000D02*
X-97566000Y-1966000D01*
X-97566000Y-1966000D02*
X-97566000Y-1129000D01*
X-94410000Y-46135000D02*
X-92400000Y-44125000D01*
X-128554000Y-10019000D02*
X-128554000Y-14756930D01*
X-124215009Y-16500009D02*
X-123825000Y-16110000D01*
X-128554000Y-14756930D02*
X-128600009Y-14802939D01*
X-128600009Y-14802939D02*
X-128600009Y-16374991D01*
X-121635000Y-6885000D02*
X-121635000Y-6105000D01*
X-122150000Y-7400000D02*
X-121635000Y-6885000D01*
X-125935000Y-7400000D02*
X-122150000Y-7400000D01*
X-112120000Y-35635000D02*
X-110635000Y-35635000D01*
X-108996000Y-33996000D02*
X-108996000Y-28561000D01*
X-110635000Y-35635000D02*
X-108996000Y-33996000D01*
X-128554000Y-10019000D02*
X-125935000Y-7400000D01*
X-122955000Y-15240000D02*
X-123825000Y-16110000D01*
X-117350000Y-15240000D02*
X-122955000Y-15240000D01*
X-128600009Y-16374991D02*
X-128600009Y-17744991D01*
X-128600009Y-17744991D02*
X-127030000Y-19315000D01*
X-110301000Y-64876000D02*
X-110301000Y-67422000D01*
X-104805000Y-75805000D02*
X-102425000Y-73425000D01*
X-126125000Y-70946000D02*
X-126125000Y-74270002D01*
X-127720000Y-69351000D02*
X-126125000Y-70946000D01*
X-126125000Y-74270002D02*
X-123970002Y-76425000D01*
X-111450000Y-76425000D02*
X-110830000Y-75805000D01*
X-123970002Y-76425000D02*
X-111450000Y-76425000D01*
X-110830000Y-75805000D02*
X-104805000Y-75805000D01*
X-110152000Y-65025000D02*
X-110301000Y-64876000D01*
X-103825000Y-65025000D02*
X-110152000Y-65025000D01*
X-88175000Y-53680000D02*
X-87569000Y-54286000D01*
X-88175000Y-46500000D02*
X-88175000Y-53680000D01*
X-90550000Y-44125000D02*
X-88175000Y-46500000D01*
X-109826000Y-67897000D02*
X-110301000Y-67422000D01*
X-97413000Y-13188000D02*
X-97566000Y-13035000D01*
X-97350000Y-27800000D02*
X-97450000Y-27900000D01*
X-97350000Y-19850000D02*
X-97350000Y-26900000D01*
X-97350000Y-26900000D02*
X-97350000Y-27800000D01*
X-91600000Y-44250000D02*
X-91475000Y-44125000D01*
X-91600000Y-44850000D02*
X-91600000Y-44250000D01*
X-92400000Y-44125000D02*
X-91475000Y-44125000D01*
X-91475000Y-44125000D02*
X-90550000Y-44125000D01*
X-97320000Y-19850000D02*
X-95495000Y-18025000D01*
X-97350000Y-19850000D02*
X-97320000Y-19850000D01*
X-111596000Y-2145000D02*
X-111026000Y-1575000D01*
X-117124000Y-2145000D02*
X-111596000Y-2145000D01*
X-111026000Y-1575000D02*
X-109050000Y-1575000D01*
X-107050000Y425000D02*
X-95026000Y425000D01*
X-109050000Y-1575000D02*
X-107050000Y425000D01*
X-127720000Y-62851000D02*
X-126101000Y-62851000D01*
X-123750000Y-60500000D02*
X-123750000Y-55125000D01*
X-126101000Y-62851000D02*
X-123750000Y-60500000D01*
X-88422000Y-64375000D02*
X-89175000Y-64375000D01*
X-95495000Y-14044000D02*
X-95026000Y-13575000D01*
X-95495000Y-18025000D02*
X-95495000Y-14044000D01*
X-98450000Y-27800000D02*
X-100125000Y-29475000D01*
X-97350000Y-27800000D02*
X-98450000Y-27800000D01*
X-124600000Y-55060000D02*
X-123685000Y-55060000D01*
X-123685000Y-55060000D02*
X-123352500Y-54727500D01*
X-123352500Y-54727500D02*
X-123750000Y-55125000D01*
X-118040000Y-53350000D02*
X-118020000Y-53370000D01*
X-87459000Y-63412000D02*
X-88422000Y-64375000D01*
X-87459000Y-57984000D02*
X-87459000Y-63412000D01*
X-87450000Y-55110000D02*
X-87518000Y-55110000D01*
X-87518000Y-55110000D02*
X-87569000Y-55059000D01*
X-87569000Y-57334000D02*
X-87569000Y-55059000D01*
X-87569000Y-55059000D02*
X-87569000Y-54286000D01*
X-87450000Y-57700000D02*
X-87450000Y-55110000D01*
X-123535000Y-15820000D02*
X-122955000Y-15240000D01*
X-124470000Y-15820000D02*
X-123535000Y-15820000D01*
X-98665000Y-46135000D02*
X-98830000Y-46300000D01*
X-94410000Y-46135000D02*
X-98665000Y-46135000D01*
X-89175000Y-64375000D02*
X-90950000Y-66150000D01*
X-90950000Y-67090000D02*
X-91660000Y-67800000D01*
X-90950000Y-66150000D02*
X-90950000Y-67090000D01*
X-91660000Y-71813000D02*
X-93566000Y-73719000D01*
X-91660000Y-67800000D02*
X-91660000Y-71813000D01*
X-104450000Y-54325000D02*
X-100425000Y-54325000D01*
X-100425000Y-54325000D02*
X-99875000Y-54875000D01*
X-99875000Y-56485000D02*
X-99890000Y-56500000D01*
X-99875000Y-54875000D02*
X-99875000Y-56485000D01*
X-99890000Y-62090000D02*
X-99930000Y-62130000D01*
X-99890000Y-56500000D02*
X-99890000Y-62090000D01*
%TO.N,VIN*%
X-107686000Y-73244000D02*
X-107505000Y-73425000D01*
X-107761000Y-73169000D02*
X-107505000Y-73425000D01*
X-99125000Y-48675000D02*
X-99450000Y-48350000D01*
X-98425000Y-48675000D02*
X-99125000Y-48675000D01*
X-99325000Y-48675000D02*
X-98425000Y-48675000D01*
X-107647000Y-67897000D02*
X-107761000Y-68011000D01*
X-107286000Y-67897000D02*
X-107647000Y-67897000D01*
X-90975000Y-49825000D02*
X-91650000Y-49150000D01*
X-99575000Y-48700000D02*
X-99575000Y-51520000D01*
X-107505000Y-73425000D02*
X-107286000Y-73206000D01*
X-107286000Y-67897000D02*
X-107286000Y-71086000D01*
X-107286000Y-71086000D02*
X-107286000Y-73206000D01*
X-90425000Y-55950000D02*
X-92459000Y-57984000D01*
X-90425000Y-51025000D02*
X-90425000Y-55950000D01*
X-91600000Y-49850000D02*
X-90425000Y-51025000D01*
X-98425000Y-48675000D02*
X-92850000Y-48675000D01*
X-91675000Y-49850000D02*
X-91600000Y-49850000D01*
X-92850000Y-48675000D02*
X-91675000Y-49850000D01*
X-92459000Y-62621000D02*
X-92190000Y-62890000D01*
X-92450000Y-57975000D02*
X-92459000Y-57984000D01*
X-92450000Y-57700000D02*
X-92450000Y-57975000D01*
X-97350000Y-53745000D02*
X-97957500Y-53137500D01*
X-97350000Y-53960000D02*
X-97350000Y-53745000D01*
X-99575000Y-51520000D02*
X-97957500Y-53137500D01*
X-97957500Y-53137500D02*
X-97335000Y-53760000D01*
X-92728000Y-61732000D02*
X-91660000Y-62800000D01*
X-91842000Y-62982000D02*
X-91660000Y-62800000D01*
X-97547000Y-62982000D02*
X-91842000Y-62982000D01*
X-91660000Y-62800000D02*
X-93240000Y-61220000D01*
X-93240000Y-58490000D02*
X-92450000Y-57700000D01*
X-93240000Y-61220000D02*
X-93240000Y-58490000D01*
X-92600000Y-62800000D02*
X-91660000Y-62800000D01*
X-107286000Y-67897000D02*
X-97697000Y-67897000D01*
X-96106000Y-73719000D02*
X-96106000Y-72456000D01*
X-96106000Y-72456000D02*
X-95360000Y-71710000D01*
X-95360000Y-68980000D02*
X-97070000Y-67270000D01*
X-95360000Y-71710000D02*
X-95360000Y-68980000D01*
X-97697000Y-67897000D02*
X-97070000Y-67270000D01*
X-97070000Y-67270000D02*
X-92600000Y-62800000D01*
%TO.N,Net-(C3-Pad1)*%
X-112120000Y-33095000D02*
X-112158000Y-33133000D01*
%TO.N,VCC*%
X-120247000Y-63022000D02*
X-116216000Y-63022000D01*
X-127215000Y-21110000D02*
X-123825000Y-21110000D01*
X-130078000Y-8749000D02*
X-130078000Y-18247000D01*
X-130078000Y-18247000D02*
X-127215000Y-21110000D01*
X-128574000Y-7245000D02*
X-130078000Y-8749000D01*
X-93100000Y-39125000D02*
X-92400000Y-39125000D01*
X-97570000Y-43595000D02*
X-93100000Y-39125000D01*
X-128574000Y-7245000D02*
X-127855000Y-7245000D01*
X-127855000Y-7245000D02*
X-126715000Y-6105000D01*
X-123825000Y-21110000D02*
X-121935000Y-21110000D01*
X-121935000Y-21110000D02*
X-119305000Y-18480000D01*
X-113375000Y-7575000D02*
X-111026000Y-7575000D01*
X-115275000Y-9475000D02*
X-113375000Y-7575000D01*
X-115275000Y-17675000D02*
X-115275000Y-9475000D01*
X-113430000Y-30555000D02*
X-112120000Y-30555000D01*
X-114850000Y-34650000D02*
X-114850000Y-32075000D01*
X-113430000Y-30655000D02*
X-113430000Y-30555000D01*
X-114850000Y-32075000D02*
X-113430000Y-30655000D01*
X-116216000Y-63422000D02*
X-116216000Y-63022000D01*
X-112841000Y-66797000D02*
X-116216000Y-63422000D01*
X-112841000Y-66797000D02*
X-112841000Y-64491000D01*
X-118050000Y-18480000D02*
X-117350000Y-17780000D01*
X-119305000Y-18480000D02*
X-118050000Y-18480000D01*
X-115275000Y-17675000D02*
X-117245000Y-17675000D01*
X-126715000Y-5240000D02*
X-126700000Y-5225000D01*
X-126715000Y-6105000D02*
X-126715000Y-5240000D01*
X-112841000Y-67422000D02*
X-112366000Y-67897000D01*
X-112841000Y-66797000D02*
X-112841000Y-67422000D01*
X-109275000Y-60925000D02*
X-112841000Y-64491000D01*
X-105850000Y-60925000D02*
X-109275000Y-60925000D01*
X-105875000Y-60900000D02*
X-105850000Y-60925000D01*
X-105875000Y-58650000D02*
X-105875000Y-60900000D01*
X-105850000Y-60925000D02*
X-104950000Y-60925000D01*
X-104950000Y-60925000D02*
X-102375000Y-63500000D01*
X-94795000Y-56300000D02*
X-94583000Y-56300000D01*
X-120850000Y-58650000D02*
X-119600000Y-59900000D01*
X-91675000Y-39850000D02*
X-92400000Y-39125000D01*
X-91600000Y-39850000D02*
X-91675000Y-39850000D01*
X-87150001Y-29750001D02*
X-89050000Y-31650000D01*
X-87150001Y-21074999D02*
X-87150001Y-29750001D01*
X-87850000Y-20375000D02*
X-87150001Y-21074999D01*
X-89050000Y-31650000D02*
X-89100000Y-31650000D01*
X-89900000Y-32450000D02*
X-94325000Y-32450000D01*
X-89100000Y-31650000D02*
X-89900000Y-32450000D01*
X-123830000Y-50830000D02*
X-124600000Y-50060000D01*
X-121490000Y-58010000D02*
X-120850000Y-58650000D01*
X-121490000Y-50830000D02*
X-121490000Y-58010000D01*
X-121490000Y-50830000D02*
X-123830000Y-50830000D01*
X-118020000Y-50830000D02*
X-121490000Y-50830000D01*
X-98665000Y-43595000D02*
X-98830000Y-43760000D01*
X-97570000Y-43595000D02*
X-98665000Y-43595000D01*
%TO.N,TX0*%
X-117380000Y-58270000D02*
X-115800000Y-59850000D01*
X-117380000Y-57070000D02*
X-117380000Y-58270000D01*
%TO.N,A0*%
X-113800000Y-38175000D02*
X-116450000Y-35525000D01*
X-116450000Y-35525000D02*
X-116450000Y-31325000D01*
X-114175000Y-22500000D02*
X-115655000Y-21020000D01*
X-114175000Y-29050000D02*
X-114175000Y-22500000D01*
X-112120000Y-38175000D02*
X-113800000Y-38175000D01*
X-116450000Y-31325000D02*
X-114175000Y-29050000D01*
X-116650000Y-21020000D02*
X-117350000Y-20320000D01*
X-115655000Y-21020000D02*
X-116650000Y-21020000D01*
%TO.N,D4*%
X-99665000Y-38175000D02*
X-99325000Y-38515000D01*
X-104500000Y-38175000D02*
X-99665000Y-38175000D01*
X-94700000Y-29125000D02*
X-92400000Y-29125000D01*
X-91675000Y-29850000D02*
X-92400000Y-29125000D01*
X-91600000Y-29850000D02*
X-91675000Y-29850000D01*
X-95470000Y-20375000D02*
X-95470000Y-24755000D01*
X-95470000Y-24755000D02*
X-95450000Y-24775000D01*
X-99335000Y-38175000D02*
X-98830000Y-38680000D01*
X-99665000Y-38175000D02*
X-99335000Y-38175000D01*
X-96002500Y-35852500D02*
X-96002500Y-30427500D01*
X-98830000Y-38680000D02*
X-96002500Y-35852500D01*
X-96002500Y-30427500D02*
X-94700000Y-29125000D01*
%TO.N,D3*%
X-99665000Y-40715000D02*
X-99325000Y-41055000D01*
X-99575000Y-41080000D02*
X-100630000Y-41080000D01*
X-100630000Y-41080000D02*
X-101175000Y-41625000D01*
X-101175000Y-41625000D02*
X-101175000Y-52700000D01*
X-103425000Y-56775000D02*
X-102200000Y-58000000D01*
X-113495000Y-58650000D02*
X-110525000Y-58650000D01*
X-108650000Y-56775000D02*
X-103425000Y-56775000D01*
X-110525000Y-58650000D02*
X-108650000Y-56775000D01*
X-91600000Y-34850000D02*
X-91800000Y-34850000D01*
X-95325000Y-38575000D02*
X-91600000Y-34850000D01*
X-98330000Y-41055000D02*
X-95850000Y-38575000D01*
X-95850000Y-38575000D02*
X-95325000Y-38575000D01*
X-99125000Y-41055000D02*
X-98330000Y-41055000D01*
X-104500000Y-40715000D02*
X-99465000Y-40715000D01*
X-99465000Y-40715000D02*
X-99125000Y-41055000D01*
%TO.N,MOSI*%
X-123474000Y-4685000D02*
X-123474000Y-5404000D01*
X-123474000Y-5404000D02*
X-124175000Y-6105000D01*
X-123474000Y-4685000D02*
X-114215000Y-4685000D01*
X-114215000Y-4685000D02*
X-114125000Y-4775000D01*
X-102025000Y-3875000D02*
X-102025000Y-9370000D01*
X-102025000Y-9370000D02*
X-101820000Y-9575000D01*
%TO.N,SCK*%
X-95026000Y-7575000D02*
X-95026000Y-7479000D01*
X-104175000Y-3925000D02*
X-104175000Y-7358000D01*
X-104175000Y-7358000D02*
X-104054000Y-7479000D01*
%TO.N,MISO*%
X-106350000Y-2175000D02*
X-106350000Y-9871000D01*
X-106350000Y-9871000D02*
X-103408000Y-12813000D01*
%TO.N,A4*%
X-112120000Y-48335000D02*
X-112773000Y-48335000D01*
X-112120000Y-48335000D02*
X-113915000Y-48335000D01*
X-116345000Y-45730000D02*
X-117350000Y-45730000D01*
X-113915000Y-48160000D02*
X-116345000Y-45730000D01*
X-118145000Y-45730000D02*
X-123750000Y-40125000D01*
X-117350000Y-45730000D02*
X-118145000Y-45730000D01*
X-113915000Y-48335000D02*
X-113915000Y-48160000D01*
X-117022930Y-55730000D02*
X-116762930Y-55990000D01*
X-118140000Y-55730000D02*
X-117022930Y-55730000D01*
X-112532919Y-55990000D02*
X-112070000Y-55527081D01*
X-112070000Y-55527081D02*
X-112070000Y-54325000D01*
X-116762930Y-55990000D02*
X-112532919Y-55990000D01*
%TO.N,A5*%
X-112407000Y-50588000D02*
X-112120000Y-50875000D01*
X-113875000Y-50875000D02*
X-112120000Y-50875000D01*
X-117350000Y-48270000D02*
X-119580000Y-48270000D01*
X-122725000Y-45125000D02*
X-123750000Y-45125000D01*
X-119580000Y-48270000D02*
X-122725000Y-45125000D01*
X-117350000Y-48270000D02*
X-116455000Y-48270000D01*
X-113875000Y-50850000D02*
X-113875000Y-50875000D01*
X-116455000Y-48270000D02*
X-113875000Y-50850000D01*
X-109750000Y-54105000D02*
X-109530000Y-54325000D01*
X-108300000Y-53095000D02*
X-108300000Y-50925000D01*
X-109530000Y-54325000D02*
X-108300000Y-53095000D01*
%TO.N,A1*%
X-113340000Y-40715000D02*
X-113610000Y-40715000D01*
X-112120000Y-40715000D02*
X-113340000Y-40715000D01*
X-116015000Y-22860000D02*
X-117350000Y-22860000D01*
X-113757998Y-40715000D02*
X-117772998Y-36700000D01*
X-113340000Y-40715000D02*
X-113757998Y-40715000D01*
X-117772998Y-36700000D02*
X-117875000Y-36700000D01*
X-117875000Y-36700000D02*
X-117875000Y-30550000D01*
X-115600000Y-23275000D02*
X-116015000Y-22860000D01*
X-117875000Y-30550000D02*
X-115600000Y-28275000D01*
X-115600000Y-28275000D02*
X-115600000Y-23275000D01*
%TO.N,A2*%
X-125252000Y-27537000D02*
X-123825000Y-26110000D01*
X-113565000Y-43255000D02*
X-114750000Y-42070000D01*
X-112120000Y-43255000D02*
X-113565000Y-43255000D01*
X-125252000Y-27537000D02*
X-125252000Y-34077000D01*
X-117184000Y-42145000D02*
X-114575000Y-42145000D01*
X-125252000Y-34077000D02*
X-117184000Y-42145000D01*
X-124280000Y-25630000D02*
X-124470000Y-25820000D01*
X-118030000Y-25630000D02*
X-124280000Y-25630000D01*
%TO.N,D8*%
X-95026000Y-5575000D02*
X-93882000Y-5575000D01*
X-93882000Y-5575000D02*
X-92740000Y-6717000D01*
X-92740000Y-6717000D02*
X-92740000Y-14845000D01*
X-92740000Y-14845000D02*
X-92740000Y-14930000D01*
X-92740000Y-14930000D02*
X-92750000Y-14940000D01*
%TO.N,D7*%
X-93596000Y-3575000D02*
X-95026000Y-3575000D01*
X-91216000Y-5955000D02*
X-93596000Y-3575000D01*
X-91216000Y-15607000D02*
X-91216000Y-5955000D01*
X-92330000Y-16340000D02*
X-91949000Y-16340000D01*
X-91949000Y-16340000D02*
X-91216000Y-15607000D01*
%TO.N,D6*%
X-109026000Y-11575000D02*
X-108742000Y-11859000D01*
X-111026000Y-11575000D02*
X-109026000Y-11575000D01*
X-108742000Y-11859000D02*
X-108742000Y-16877000D01*
X-106000001Y-21434999D02*
X-104500000Y-22935000D01*
X-106000001Y-19618999D02*
X-106000001Y-21434999D01*
X-108742000Y-16877000D02*
X-106000001Y-19618999D01*
%TO.N,Net-(U1-Pad10)*%
X-104500000Y-28015000D02*
X-101700000Y-25215000D01*
X-101700000Y-21050000D02*
X-99925000Y-19275000D01*
X-101700000Y-25215000D02*
X-101700000Y-21050000D01*
%TO.N,Net-(U1-Pad9)*%
X-104500000Y-30555000D02*
X-104386000Y-30555000D01*
%TO.N,D2*%
X-106964000Y-40791000D02*
X-104500000Y-43255000D01*
X-106964000Y-26021000D02*
X-106964000Y-40791000D01*
X-111223070Y-9575000D02*
X-112909998Y-11261928D01*
X-112909998Y-11261928D02*
X-112909998Y-14845000D01*
X-107726000Y-20179000D02*
X-107726000Y-25259000D01*
X-111026000Y-9575000D02*
X-111223070Y-9575000D01*
X-112909998Y-14845000D02*
X-109504000Y-18250998D01*
X-109504000Y-18250998D02*
X-109504000Y-18401000D01*
X-107726000Y-25259000D02*
X-106964000Y-26021000D01*
X-109504000Y-18401000D02*
X-107726000Y-20179000D01*
%TO.N,Net-(LED1-Pad1)*%
X-87875000Y-13175000D02*
X-89025000Y-12025000D01*
X-87875000Y-18025000D02*
X-87875000Y-13175000D01*
%TD*%
M02*
