M48
;DRILL file {KiCad 5.0.2-bee76a0~70~ubuntu18.04.1} date Sat 16 Jan 2021 09:04:18 PM EST
;FORMAT={-:-/ absolute / inch / decimal}
FMAT,2
INCH,TZ
T1C0.0157
T2C0.0276
T3C0.0315
T4C0.0354
T5C0.0394
T6C0.0512
T7C0.1063
%
G90
G05
T1
X-5.0012Y-0.7604
X-4.9951Y-0.6181
X-4.9882Y-0.2057
X-4.8888Y-0.2404
X-4.8888Y-0.4813
X-4.8624Y-0.0244
X-4.7894Y-0.4783
X-4.7888Y-0.2404
X-4.7512Y-0.0144
X-4.6512Y-2.1941
X-4.64Y-0.0244
X-4.6213Y-2.2469
X-4.5591Y-2.3563
X-4.4931Y-0.188
X-4.4866Y-2.148
X-4.2912Y-1.1244
X-4.2638Y-2.0049
X-4.187Y-0.0856
X-4.1014Y-0.1545
X-4.0966Y-0.2944
X-4.0876Y-2.56
X-4.0712Y-0.5044
X-4.0305Y-2.5
X-4.0236Y-2.2835
X-4.0167Y-0.1526
X-4.0087Y-0.377
X-3.9833Y-2.0748
X-3.8327Y-0.7815
X-3.7579Y-0.9754
X-3.7412Y-0.2944
X-3.7412Y-0.377
X-3.7412Y-0.4557
X-3.7136Y-1.2776
X-3.6516Y-0.5882
X-3.635Y-0.6433
T2
X-4.5217Y-1.3642
X-4.5217Y-1.6642
X-3.7596Y-0.7096
X-3.4596Y-0.7096
X-5.0087Y-2.3583
X-4.7087Y-2.3583
X-3.8417Y-2.4902
X-3.8417Y-2.7902
X-4.4683Y-2.3091
X-4.1683Y-2.3091
X-3.7587Y-0.8022
X-3.4587Y-0.8022
X-4.7323Y-2.4931
X-4.7323Y-2.7931
X-3.9343Y-2.4461
X-3.9343Y-2.7461
X-4.4673Y-2.3986
X-4.1673Y-2.3986
T3
X-3.9341Y-0.7589
X-3.9341Y-0.9557
X-3.6398Y-2.1697
X-3.4429Y-2.1697
X-3.6398Y-2.2717
X-3.4429Y-2.2717
X-5.0207Y-1.3533
X-4.8238Y-1.3533
X-5.0197Y-1.247
X-4.8228Y-1.247
X-4.4142Y-0.703
X-4.4142Y-0.803
X-4.4142Y-0.903
X-4.4142Y-1.003
X-4.4142Y-1.103
X-4.4142Y-1.203
X-4.4142Y-1.303
X-4.4142Y-1.403
X-4.4142Y-1.503
X-4.4142Y-1.603
X-4.4142Y-1.703
X-4.4142Y-1.803
X-4.4142Y-1.903
X-4.4142Y-2.003
X-4.1142Y-0.703
X-4.1142Y-0.803
X-4.1142Y-0.903
X-4.1142Y-1.003
X-4.1142Y-1.103
X-4.1142Y-1.203
X-4.1142Y-1.303
X-4.1142Y-1.403
X-4.1142Y-1.503
X-4.1142Y-1.603
X-4.1142Y-1.703
X-4.1142Y-1.803
X-4.1142Y-1.903
X-4.1142Y-2.003
X-3.9327Y-2.2244
X-3.8327Y-2.1244
X-3.7327Y-2.2244
X-4.875Y-2.9272
X-4.6781Y-2.9272
X-3.9419Y-1.1604
X-3.9419Y-1.2589
T4
X-3.5049Y-0.3734
X-3.5049Y-0.4734
T5
X-4.4239Y-2.6731
X-4.3239Y-2.6731
X-4.2239Y-2.6731
X-5.0283Y-2.4744
X-5.0283Y-2.7304
X-4.8512Y-2.4744
X-4.8512Y-2.7304
X-4.5325Y-2.8907
X-4.4325Y-2.8907
X-4.3325Y-2.8907
X-4.2325Y-2.8907
X-4.1325Y-2.8907
X-4.0325Y-2.8907
X-4.5112Y-0.0144
X-4.6465Y-1.8012
X-4.6465Y-1.9012
X-4.6465Y-2.0012
X-4.6465Y-2.1012
X-4.6469Y-0.6091
X-4.6469Y-0.7091
X-4.6469Y-0.8091
X-4.6469Y-0.9091
X-4.6469Y-1.0091
X-3.7837Y-2.9023
X-3.6837Y-2.9023
X-3.8909Y-1.4228
X-3.8909Y-1.5228
X-3.8909Y-1.6228
X-3.8909Y-1.7228
X-3.8909Y-1.8228
X-3.8909Y-1.9228
X-4.4122Y-2.1388
X-4.3122Y-2.1388
X-4.2122Y-2.1388
X-4.1122Y-2.1388
T6
X-4.9004Y-0.6228
X-4.9004Y-0.8197
X-4.9004Y-1.0165
X-4.9055Y-1.5772
X-4.9055Y-1.774
X-4.9055Y-1.9709
X-4.9055Y-2.1677
X-3.6087Y-2.4724
X-3.6087Y-2.6693
X-3.587Y-0.9768
X-3.587Y-1.1736
X-3.587Y-1.3705
X-3.587Y-1.5673
X-3.587Y-1.7642
X-3.587Y-1.961
T7
X-5.061Y-0.0482
X-3.4567Y-2.937
X-5.06Y-2.937
X-3.4567Y-0.0482
T0
M30
