%TF.GenerationSoftware,KiCad,Pcbnew,5.0.2-bee76a0~70~ubuntu18.04.1*%
%TF.CreationDate,2021-01-16T21:04:08-05:00*%
%TF.ProjectId,dippy,64697070-792e-46b6-9963-61645f706362,rev?*%
%TF.SameCoordinates,Original*%
%TF.FileFunction,Copper,L2,Bot*%
%TF.FilePolarity,Positive*%
%FSLAX46Y46*%
G04 Gerber Fmt 4.6, Leading zero omitted, Abs format (unit mm)*
G04 Created by KiCad (PCBNEW 5.0.2-bee76a0~70~ubuntu18.04.1) date Sat 16 Jan 2021 09:04:08 PM EST*
%MOMM*%
%LPD*%
G01*
G04 APERTURE LIST*
%TA.AperFunction,ComponentPad*%
%ADD10O,1.700000X1.700000*%
%TD*%
%TA.AperFunction,ComponentPad*%
%ADD11R,1.700000X1.700000*%
%TD*%
%TA.AperFunction,ComponentPad*%
%ADD12C,2.600000*%
%TD*%
%TA.AperFunction,ComponentPad*%
%ADD13R,2.600000X2.600000*%
%TD*%
%TA.AperFunction,ComponentPad*%
%ADD14C,1.500000*%
%TD*%
%TA.AperFunction,ComponentPad*%
%ADD15O,1.400000X1.400000*%
%TD*%
%TA.AperFunction,ComponentPad*%
%ADD16C,1.400000*%
%TD*%
%TA.AperFunction,ComponentPad*%
%ADD17C,1.600000*%
%TD*%
%TA.AperFunction,ComponentPad*%
%ADD18R,1.800000X1.800000*%
%TD*%
%TA.AperFunction,ComponentPad*%
%ADD19C,1.800000*%
%TD*%
%TA.AperFunction,ComponentPad*%
%ADD20R,1.500000X1.500000*%
%TD*%
%TA.AperFunction,ComponentPad*%
%ADD21O,1.600000X1.600000*%
%TD*%
%TA.AperFunction,ComponentPad*%
%ADD22R,1.600000X1.600000*%
%TD*%
%TA.AperFunction,ComponentPad*%
%ADD23C,1.700000*%
%TD*%
%TA.AperFunction,SMDPad,CuDef*%
%ADD24R,1.000000X3.000000*%
%TD*%
%TA.AperFunction,SMDPad,CuDef*%
%ADD25R,1.350000X4.200000*%
%TD*%
%TA.AperFunction,ViaPad*%
%ADD26C,0.800000*%
%TD*%
%TA.AperFunction,Conductor*%
%ADD27C,1.000000*%
%TD*%
G04 APERTURE END LIST*
D10*
%TO.P,J12,2*%
%TO.N,VIN*%
X-96106000Y-73719000D03*
D11*
%TO.P,J12,1*%
%TO.N,GND*%
X-93566000Y-73719000D03*
%TD*%
%TO.P,J11,1*%
%TO.N,GND*%
X-104450000Y-54325000D03*
D10*
%TO.P,J11,2*%
%TO.N,VCC*%
X-106990000Y-54325000D03*
%TO.P,J11,3*%
%TO.N,A5*%
X-109530000Y-54325000D03*
%TO.P,J11,4*%
%TO.N,A4*%
X-112070000Y-54325000D03*
%TD*%
%TO.P,J10,6*%
%TO.N,D5*%
X-98830000Y-36140000D03*
%TO.P,J10,5*%
%TO.N,D4*%
X-98830000Y-38680000D03*
%TO.P,J10,4*%
%TO.N,D3*%
X-98830000Y-41220000D03*
%TO.P,J10,3*%
%TO.N,VCC*%
X-98830000Y-43760000D03*
%TO.P,J10,2*%
%TO.N,GND*%
X-98830000Y-46300000D03*
D11*
%TO.P,J10,1*%
%TO.N,VIN*%
X-98830000Y-48840000D03*
%TD*%
D12*
%TO.P,J3,6*%
%TO.N,D5*%
X-91110000Y-24810000D03*
%TO.P,J3,5*%
%TO.N,D4*%
X-91110000Y-29810000D03*
%TO.P,J3,4*%
%TO.N,D3*%
X-91110000Y-34810000D03*
%TO.P,J3,3*%
%TO.N,VCC*%
X-91110000Y-39810000D03*
%TO.P,J3,2*%
%TO.N,GND*%
X-91110000Y-44810000D03*
D13*
%TO.P,J3,1*%
%TO.N,VIN*%
X-91110000Y-49810000D03*
%TD*%
D14*
%TO.P,Y1,2*%
%TO.N,Net-(U1-Pad10)*%
X-99925000Y-19275000D03*
%TO.P,Y1,1*%
%TO.N,Net-(U1-Pad9)*%
X-99925000Y-24275000D03*
%TD*%
D10*
%TO.P,J7,5*%
%TO.N,GND*%
X-118030000Y-15470000D03*
%TO.P,J7,4*%
%TO.N,VCC*%
X-118030000Y-18010000D03*
%TO.P,J7,3*%
%TO.N,A0*%
X-118030000Y-20550000D03*
%TO.P,J7,2*%
%TO.N,A1*%
X-118030000Y-23090000D03*
D11*
%TO.P,J7,1*%
%TO.N,A2*%
X-118030000Y-25630000D03*
%TD*%
D15*
%TO.P,R9,2*%
%TO.N,D3*%
X-113495000Y-58650000D03*
D16*
%TO.P,R9,1*%
%TO.N,VCC*%
X-105875000Y-58650000D03*
%TD*%
D17*
%TO.P,C3,2*%
%TO.N,GND*%
X-127525000Y-34375000D03*
%TO.P,C3,1*%
%TO.N,Net-(C3-Pad1)*%
X-122525000Y-34375000D03*
%TD*%
D15*
%TO.P,R8,2*%
%TO.N,A5*%
X-113470000Y-60925000D03*
D16*
%TO.P,R8,1*%
%TO.N,VCC*%
X-105850000Y-60925000D03*
%TD*%
D15*
%TO.P,R7,2*%
%TO.N,A4*%
X-127220000Y-59900000D03*
D16*
%TO.P,R7,1*%
%TO.N,VCC*%
X-119600000Y-59900000D03*
%TD*%
%TO.P,R6,1*%
%TO.N,Net-(LED1-Pad1)*%
X-87875000Y-18025000D03*
D15*
%TO.P,R6,2*%
%TO.N,GND*%
X-95495000Y-18025000D03*
%TD*%
%TO.P,R5,2*%
%TO.N,GND*%
X-99930000Y-62130000D03*
D16*
%TO.P,R5,1*%
%TO.N,A3*%
X-99930000Y-69750000D03*
%TD*%
D15*
%TO.P,R4,2*%
%TO.N,A3*%
X-97580000Y-70870000D03*
D16*
%TO.P,R4,1*%
%TO.N,VIN*%
X-97580000Y-63250000D03*
%TD*%
%TO.P,R3,1*%
%TO.N,VCC*%
X-87850000Y-20375000D03*
D15*
%TO.P,R3,2*%
%TO.N,D4*%
X-95470000Y-20375000D03*
%TD*%
%TO.P,R2,2*%
%TO.N,A2*%
X-114850000Y-42270000D03*
D16*
%TO.P,R2,1*%
%TO.N,VCC*%
X-114850000Y-34650000D03*
%TD*%
D15*
%TO.P,R1,2*%
%TO.N,RST*%
X-120200000Y-70945000D03*
D16*
%TO.P,R1,1*%
%TO.N,VCC*%
X-120200000Y-63325000D03*
%TD*%
D17*
%TO.P,C6,2*%
%TO.N,GND*%
X-127500000Y-31675000D03*
%TO.P,C6,1*%
%TO.N,A3*%
X-122500000Y-31675000D03*
%TD*%
%TO.P,C4,2*%
%TO.N,GND*%
X-87450000Y-55110000D03*
%TO.P,C4,1*%
%TO.N,VCC*%
X-92450000Y-55110000D03*
%TD*%
%TO.P,C2,2*%
%TO.N,GND*%
X-87450000Y-57700000D03*
%TO.P,C2,1*%
%TO.N,VIN*%
X-92450000Y-57700000D03*
%TD*%
%TO.P,C1,2*%
%TO.N,Net-(C1-Pad2)*%
X-118825000Y-74350000D03*
%TO.P,C1,1*%
%TO.N,RST*%
X-123825000Y-74350000D03*
%TD*%
D18*
%TO.P,LED1,1*%
%TO.N,Net-(LED1-Pad1)*%
X-89025000Y-12025000D03*
D19*
%TO.P,LED1,2*%
%TO.N,A0*%
X-89025000Y-9485000D03*
%TD*%
D20*
%TO.P,U3,1*%
%TO.N,GND*%
X-99890000Y-56500000D03*
D14*
%TO.P,U3,3*%
%TO.N,VCC*%
X-94810000Y-56500000D03*
%TO.P,U3,2*%
%TO.N,VIN*%
X-97350000Y-53960000D03*
%TD*%
D21*
%TO.P,U1,28*%
%TO.N,A5*%
X-112120000Y-50875000D03*
%TO.P,U1,14*%
%TO.N,D8*%
X-104500000Y-17855000D03*
%TO.P,U1,27*%
%TO.N,A4*%
X-112120000Y-48335000D03*
%TO.P,U1,13*%
%TO.N,D7*%
X-104500000Y-20395000D03*
%TO.P,U1,26*%
%TO.N,A3*%
X-112120000Y-45795000D03*
%TO.P,U1,12*%
%TO.N,D6*%
X-104500000Y-22935000D03*
%TO.P,U1,25*%
%TO.N,A2*%
X-112120000Y-43255000D03*
%TO.P,U1,11*%
%TO.N,D5*%
X-104500000Y-25475000D03*
%TO.P,U1,24*%
%TO.N,A1*%
X-112120000Y-40715000D03*
%TO.P,U1,10*%
%TO.N,Net-(U1-Pad10)*%
X-104500000Y-28015000D03*
%TO.P,U1,23*%
%TO.N,A0*%
X-112120000Y-38175000D03*
%TO.P,U1,9*%
%TO.N,Net-(U1-Pad9)*%
X-104500000Y-30555000D03*
%TO.P,U1,22*%
%TO.N,GND*%
X-112120000Y-35635000D03*
%TO.P,U1,8*%
X-104500000Y-33095000D03*
%TO.P,U1,21*%
%TO.N,Net-(C3-Pad1)*%
X-112120000Y-33095000D03*
%TO.P,U1,7*%
%TO.N,VCC*%
X-104500000Y-35635000D03*
%TO.P,U1,20*%
X-112120000Y-30555000D03*
%TO.P,U1,6*%
%TO.N,D4*%
X-104500000Y-38175000D03*
%TO.P,U1,19*%
%TO.N,SCK*%
X-112120000Y-28015000D03*
%TO.P,U1,5*%
%TO.N,D3*%
X-104500000Y-40715000D03*
%TO.P,U1,18*%
%TO.N,MISO*%
X-112120000Y-25475000D03*
%TO.P,U1,4*%
%TO.N,D2*%
X-104500000Y-43255000D03*
%TO.P,U1,17*%
%TO.N,MOSI*%
X-112120000Y-22935000D03*
%TO.P,U1,3*%
%TO.N,TX0*%
X-104500000Y-45795000D03*
%TO.P,U1,16*%
%TO.N,N/C*%
X-112120000Y-20395000D03*
%TO.P,U1,2*%
%TO.N,RX0*%
X-104500000Y-48335000D03*
%TO.P,U1,15*%
%TO.N,N/C*%
X-112120000Y-17855000D03*
D22*
%TO.P,U1,1*%
%TO.N,RST*%
X-104500000Y-50875000D03*
%TD*%
D23*
%TO.P,SW1,1*%
%TO.N,RST*%
X-123220000Y-62851000D03*
%TO.P,SW1,2*%
X-123220000Y-69351000D03*
%TO.P,SW1,3*%
%TO.N,GND*%
X-127720000Y-62851000D03*
%TO.P,SW1,4*%
X-127720000Y-69351000D03*
%TD*%
D11*
%TO.P,J9,1*%
%TO.N,VIN*%
X-107286000Y-67897000D03*
D10*
%TO.P,J9,2*%
%TO.N,GND*%
X-109826000Y-67897000D03*
%TO.P,J9,3*%
%TO.N,VCC*%
X-112366000Y-67897000D03*
%TD*%
D12*
%TO.P,J8,4*%
%TO.N,GND*%
X-124600000Y-55060000D03*
%TO.P,J8,3*%
%TO.N,VCC*%
X-124600000Y-50060000D03*
%TO.P,J8,2*%
%TO.N,A5*%
X-124600000Y-45060000D03*
D13*
%TO.P,J8,1*%
%TO.N,A4*%
X-124600000Y-40060000D03*
%TD*%
D10*
%TO.P,J6,4*%
%TO.N,A4*%
X-118020000Y-45750000D03*
%TO.P,J6,3*%
%TO.N,A5*%
X-118020000Y-48290000D03*
%TO.P,J6,2*%
%TO.N,VCC*%
X-118020000Y-50830000D03*
D11*
%TO.P,J6,1*%
%TO.N,GND*%
X-118020000Y-53370000D03*
%TD*%
D24*
%TO.P,J5,1*%
%TO.N,MISO*%
X-126715000Y-11145000D03*
%TO.P,J5,2*%
%TO.N,VCC*%
X-126715000Y-6105000D03*
%TO.P,J5,3*%
%TO.N,SCK*%
X-124175000Y-11145000D03*
%TO.P,J5,4*%
%TO.N,MOSI*%
X-124175000Y-6105000D03*
%TO.P,J5,5*%
%TO.N,RST*%
X-121635000Y-11145000D03*
%TO.P,J5,6*%
%TO.N,GND*%
X-121635000Y-6105000D03*
%TD*%
D25*
%TO.P,J4,2*%
%TO.N,GND*%
X-123505000Y-621000D03*
X-117855000Y-621000D03*
%TD*%
D12*
%TO.P,J2,3*%
%TO.N,A2*%
X-124470000Y-25820000D03*
%TO.P,J2,2*%
%TO.N,VCC*%
X-124470000Y-20820000D03*
D13*
%TO.P,J2,1*%
%TO.N,GND*%
X-124470000Y-15820000D03*
%TD*%
%TO.P,J1,1*%
%TO.N,GND*%
X-91660000Y-67800000D03*
D12*
%TO.P,J1,2*%
%TO.N,VIN*%
X-91660000Y-62800000D03*
%TD*%
D11*
%TO.P,FTDI1,1*%
%TO.N,GND*%
X-102425000Y-73425000D03*
D10*
%TO.P,FTDI1,2*%
%TO.N,N/C*%
X-104965000Y-73425000D03*
%TO.P,FTDI1,3*%
%TO.N,VIN*%
X-107505000Y-73425000D03*
%TO.P,FTDI1,4*%
%TO.N,RX0*%
X-110045000Y-73425000D03*
%TO.P,FTDI1,5*%
%TO.N,TX0*%
X-112585000Y-73425000D03*
%TO.P,FTDI1,6*%
%TO.N,Net-(C1-Pad2)*%
X-115125000Y-73425000D03*
%TD*%
D22*
%TO.P,C5,1*%
%TO.N,VCC*%
X-100125000Y-31975000D03*
D17*
%TO.P,C5,2*%
%TO.N,GND*%
X-100125000Y-29475000D03*
%TD*%
D11*
%TO.P,AT1,1*%
%TO.N,Net-(AT1-Pad1)*%
X-114584000Y-367000D03*
%TD*%
D26*
%TO.N,Net-(AT1-Pad1)*%
X-120680000Y-367000D03*
%TO.N,RST*%
X-121650000Y-12150000D03*
X-126875000Y-15700000D03*
X-113960000Y-54560000D03*
%TO.N,GND*%
X-117855000Y-621000D03*
X-123505000Y-621000D03*
X-108996000Y-28561000D03*
X-121635000Y-6105000D03*
X-127030000Y-19315000D03*
X-103825000Y-65025000D03*
X-97350000Y-19850000D03*
%TO.N,VCC*%
X-126700000Y-5225000D03*
X-102375000Y-63500000D03*
X-94325000Y-32450000D03*
%TO.N,TX0*%
X-115800000Y-59850000D03*
X-117380000Y-57070000D03*
%TO.N,D4*%
X-95450000Y-24775000D03*
%TO.N,D3*%
X-102200000Y-58000000D03*
X-101175000Y-52700000D03*
%TO.N,MOSI*%
X-95026000Y-9575000D03*
X-124175000Y-6105000D03*
X-114125000Y-4775000D03*
X-102025000Y-3875000D03*
X-101820000Y-9575000D03*
%TO.N,SCK*%
X-95026000Y-7479000D03*
X-124175000Y-12225000D03*
X-104175000Y-3925000D03*
X-104054000Y-7479000D03*
%TO.N,MISO*%
X-95026000Y-11575000D03*
X-106350000Y-2175000D03*
X-103408000Y-12813000D03*
%TO.N,A4*%
X-118140000Y-55730000D03*
%TO.N,A5*%
X-108300000Y-50925000D03*
%TO.N,D8*%
X-92750000Y-14940000D03*
%TO.N,D7*%
X-92330000Y-16340000D03*
%TD*%
D27*
%TO.N,Net-(AT1-Pad1)*%
X-120680000Y-367000D02*
X-120680000Y-2653000D01*
X-120680000Y-2653000D02*
X-119156000Y-4177000D01*
X-119156000Y-4177000D02*
X-116362000Y-4177000D01*
X-114584000Y-2399000D02*
X-114584000Y-367000D01*
X-116362000Y-4177000D02*
X-114584000Y-2399000D01*
%TO.N,RST*%
X-124422081Y-69351000D02*
X-130078000Y-63695081D01*
X-123220000Y-69351000D02*
X-124422081Y-69351000D01*
X-129700001Y-34533001D02*
X-129700001Y-18531001D01*
X-130078000Y-63695081D02*
X-130078000Y-34911000D01*
X-130078000Y-34911000D02*
X-129700001Y-34533001D01*
X-129700001Y-18531001D02*
X-129700001Y-17600001D01*
X-129700001Y-17600001D02*
X-129700001Y-17250001D01*
X-129700001Y-17250001D02*
X-128325000Y-15875000D01*
X-128325000Y-15875000D02*
X-127050000Y-15875000D01*
X-127050000Y-15875000D02*
X-126875000Y-15700000D01*
X-123474000Y-62597000D02*
X-123220000Y-62851000D01*
X-123474000Y-59803000D02*
X-123474000Y-62597000D01*
X-119751000Y-57009000D02*
X-120680000Y-57009000D01*
X-113960000Y-56585000D02*
X-114384000Y-57009000D01*
X-113960000Y-54560000D02*
X-113960000Y-56585000D01*
X-116610000Y-58710000D02*
X-118050000Y-58710000D01*
X-114384000Y-57009000D02*
X-114909000Y-57009000D01*
X-118050000Y-58710000D02*
X-119751000Y-57009000D01*
X-120680000Y-57009000D02*
X-123474000Y-59803000D01*
X-114909000Y-57009000D02*
X-116610000Y-58710000D01*
%TO.N,GND*%
X-102670998Y-73425000D02*
X-102425000Y-73425000D01*
X-109034000Y-28561000D02*
X-108996000Y-28561000D01*
X-123505000Y-621000D02*
X-123505000Y-1160000D01*
X-121696000Y-7245000D02*
X-121696000Y-4745000D01*
X-121635000Y-3605000D02*
X-123505000Y-1735000D01*
X-123505000Y-1735000D02*
X-123505000Y-621000D01*
X-121635000Y-6105000D02*
X-121635000Y-3605000D01*
X-123825000Y-16110000D02*
X-127030000Y-19315000D01*
X-127030000Y-19315000D02*
X-127030000Y-30795000D01*
X-127550000Y-31250000D02*
X-127525000Y-31225000D01*
X-108996000Y-28561000D02*
X-107639000Y-28561000D01*
X-107639000Y-28561000D02*
X-106750000Y-29450000D01*
X-106750000Y-29450000D02*
X-106750000Y-31775000D01*
X-105430000Y-33095000D02*
X-104500000Y-33095000D01*
X-106750000Y-31775000D02*
X-105430000Y-33095000D01*
X-127525000Y-31700000D02*
X-127500000Y-31675000D01*
X-127525000Y-34375000D02*
X-127525000Y-31700000D01*
X-127500000Y-31265000D02*
X-127030000Y-30795000D01*
X-127500000Y-31675000D02*
X-127500000Y-31265000D01*
X-104500000Y-33095000D02*
X-103695000Y-33095000D01*
X-97413000Y-19787000D02*
X-97350000Y-19850000D01*
X-87275000Y-39775000D02*
X-91650000Y-44150000D01*
X-87275000Y-24200000D02*
X-87275000Y-39775000D01*
X-87700000Y-24200000D02*
X-87275000Y-24200000D01*
X-95495000Y-18025000D02*
X-93875000Y-18025000D01*
X-93875000Y-18025000D02*
X-87700000Y-24200000D01*
X-100125000Y-29475000D02*
X-100835000Y-29475000D01*
X-100835000Y-29475000D02*
X-102060000Y-30700000D01*
X-102060000Y-31460000D02*
X-103695000Y-33095000D01*
X-102060000Y-30700000D02*
X-102060000Y-31460000D01*
X-118020000Y-53370000D02*
X-118590000Y-53370000D01*
X-118590000Y-53370000D02*
X-119640000Y-52320000D01*
X-119640000Y-52320000D02*
X-123630000Y-52320000D01*
X-124600000Y-53290000D02*
X-124600000Y-55060000D01*
X-123630000Y-52320000D02*
X-124600000Y-53290000D01*
X-97130000Y-56300000D02*
X-97728998Y-56300000D01*
X-95475000Y-54645000D02*
X-97130000Y-56300000D01*
X-98372919Y-46160000D02*
X-95475000Y-49057919D01*
X-97728998Y-56300000D02*
X-99875000Y-56300000D01*
X-95475000Y-49057919D02*
X-95475000Y-54645000D01*
X-100328000Y-61732000D02*
X-99930000Y-62130000D01*
X-102304070Y-61732000D02*
X-100328000Y-61732000D01*
X-103825000Y-65025000D02*
X-103825000Y-63252930D01*
X-103825000Y-63252930D02*
X-102304070Y-61732000D01*
X-102425000Y-66425000D02*
X-103825000Y-65025000D01*
X-102425000Y-73425000D02*
X-102425000Y-66425000D01*
%TO.N,Net-(C3-Pad1)*%
X-112919999Y-32295001D02*
X-112120000Y-33095000D01*
X-116870001Y-32295001D02*
X-112919999Y-32295001D01*
X-118500000Y-33925000D02*
X-116870001Y-32295001D01*
X-122525000Y-34325000D02*
X-122125000Y-33925000D01*
X-122525000Y-34375000D02*
X-122525000Y-34325000D01*
X-122550000Y-33925000D02*
X-122125000Y-33925000D01*
X-122125000Y-33925000D02*
X-118500000Y-33925000D01*
%TO.N,VCC*%
X-104500000Y-35635000D02*
X-105478000Y-35635000D01*
X-110558000Y-30555000D02*
X-112120000Y-30555000D01*
X-105478000Y-35635000D02*
X-110558000Y-30555000D01*
X-104500000Y-35635000D02*
X-101835000Y-35635000D01*
X-120172000Y-60472000D02*
X-119600000Y-59900000D01*
X-120172000Y-62597000D02*
X-120172000Y-60472000D01*
X-106990000Y-57535000D02*
X-106990000Y-54325000D01*
X-105875000Y-58650000D02*
X-106990000Y-57535000D01*
X-95170000Y-56675000D02*
X-94795000Y-56300000D01*
X-92569000Y-54286000D02*
X-94025000Y-52830000D01*
X-94025000Y-52830000D02*
X-94025000Y-47575000D01*
X-97980000Y-43620000D02*
X-99575000Y-43620000D01*
X-94025000Y-47575000D02*
X-97980000Y-43620000D01*
X-101835000Y-41360000D02*
X-101835000Y-35635000D01*
X-99575000Y-43620000D02*
X-101835000Y-41360000D01*
X-100125000Y-33925000D02*
X-101835000Y-35635000D01*
X-100125000Y-31975000D02*
X-100125000Y-33925000D01*
X-94800000Y-31975000D02*
X-94325000Y-32450000D01*
X-100125000Y-31975000D02*
X-94800000Y-31975000D01*
X-121200000Y-26410000D02*
X-121200000Y-24090000D01*
X-115514998Y-29035002D02*
X-118574998Y-29035002D01*
X-121200000Y-24090000D02*
X-124470000Y-20820000D01*
X-118574998Y-29035002D02*
X-121200000Y-26410000D01*
X-112120000Y-30555000D02*
X-113995000Y-30555000D01*
X-113995000Y-30555000D02*
X-115514998Y-29035002D01*
X-120200000Y-62625000D02*
X-120172000Y-62597000D01*
X-120200000Y-63325000D02*
X-120200000Y-62625000D01*
X-92569000Y-54991000D02*
X-92450000Y-55110000D01*
X-92569000Y-54286000D02*
X-92569000Y-54991000D01*
X-93420000Y-55110000D02*
X-94810000Y-56500000D01*
X-92450000Y-55110000D02*
X-93420000Y-55110000D01*
X-94810000Y-56500000D02*
X-94810000Y-59710000D01*
X-102375000Y-63500000D02*
X-100870000Y-65005000D01*
X-100870000Y-65005000D02*
X-96575000Y-65005000D01*
X-96575000Y-65005000D02*
X-94930000Y-63360000D01*
X-94930000Y-59830000D02*
X-94810000Y-59710000D01*
X-94930000Y-63360000D02*
X-94930000Y-59830000D01*
%TO.N,A3*%
X-112120000Y-45795000D02*
X-114205000Y-45795000D01*
X-114205000Y-45795000D02*
X-117375000Y-42625000D01*
X-117375000Y-42625000D02*
X-117375000Y-42475000D01*
X-117375000Y-42625000D02*
X-119600000Y-40400000D01*
X-124950000Y-34125000D02*
X-122500000Y-31675000D01*
X-124950000Y-35530000D02*
X-124950000Y-34125000D01*
X-120080000Y-40400000D02*
X-124950000Y-35530000D01*
X-119600000Y-40400000D02*
X-120080000Y-40400000D01*
X-101122000Y-76059000D02*
X-99227000Y-74164000D01*
X-128569999Y-61300001D02*
X-126976997Y-61300001D01*
X-117775000Y-70975000D02*
X-120325001Y-73525001D01*
X-128810000Y-54030000D02*
X-128840000Y-54060000D01*
X-128840000Y-61030000D02*
X-128569999Y-61300001D01*
X-124950000Y-35530000D02*
X-128810000Y-39390000D01*
X-122754999Y-66445001D02*
X-118686001Y-66445001D01*
X-128810000Y-39390000D02*
X-128810000Y-54030000D01*
X-126976997Y-61300001D02*
X-125575000Y-62701998D01*
X-119616000Y-75984000D02*
X-119616000Y-76059000D01*
X-125575000Y-62701998D02*
X-125575000Y-63625000D01*
X-128840000Y-54060000D02*
X-128840000Y-61030000D01*
X-120325001Y-75274999D02*
X-119616000Y-75984000D01*
X-125575000Y-63625000D02*
X-122754999Y-66445001D01*
X-119616000Y-76059000D02*
X-101122000Y-76059000D01*
X-118686001Y-66445001D02*
X-117775000Y-67356002D01*
X-120325001Y-73525001D02*
X-120325001Y-75274999D01*
X-117775000Y-67356002D02*
X-117775000Y-70975000D01*
X-98810000Y-70870000D02*
X-99930000Y-69750000D01*
X-97580000Y-70870000D02*
X-98810000Y-70870000D01*
X-99227000Y-72517000D02*
X-97580000Y-70870000D01*
X-99227000Y-74164000D02*
X-99227000Y-72517000D01*
%TO.N,D5*%
X-104500000Y-25475000D02*
X-103875000Y-25475000D01*
X-104500000Y-25475000D02*
X-102350000Y-23325000D01*
X-102350000Y-23325000D02*
X-102350000Y-23250000D01*
X-102350000Y-23250000D02*
X-101575000Y-22475000D01*
X-93975000Y-22475000D02*
X-91600000Y-24850000D01*
X-101575000Y-22475000D02*
X-93975000Y-22475000D01*
X-91650000Y-24150000D02*
X-88950000Y-26850000D01*
X-90250000Y-37325000D02*
X-96225000Y-37325000D01*
X-88950000Y-28210000D02*
X-88660000Y-28500000D01*
X-88950000Y-26850000D02*
X-88950000Y-28210000D01*
X-88660000Y-35735000D02*
X-90250000Y-37325000D01*
X-88660000Y-28500000D02*
X-88660000Y-35735000D01*
X-97410000Y-36140000D02*
X-96225000Y-37325000D01*
X-98830000Y-36140000D02*
X-97410000Y-36140000D01*
%TO.N,TX0*%
X-112585000Y-71590000D02*
X-112585000Y-73425000D01*
X-115400001Y-68774999D02*
X-112585000Y-71590000D01*
X-115400001Y-60249999D02*
X-115400001Y-68774999D01*
X-115800000Y-59850000D02*
X-115400001Y-60249999D01*
X-106425000Y-47720000D02*
X-104500000Y-45795000D01*
X-115350000Y-53250000D02*
X-115325000Y-53250000D01*
X-106425000Y-51750000D02*
X-106425000Y-47720000D01*
X-115375000Y-53275000D02*
X-115350000Y-53250000D01*
X-115325000Y-53250000D02*
X-114625000Y-52550000D01*
X-107225000Y-52550000D02*
X-106425000Y-51750000D01*
X-114625000Y-52550000D02*
X-107225000Y-52550000D01*
X-115325000Y-53250000D02*
X-115325000Y-55285000D01*
X-115325000Y-55285000D02*
X-117110000Y-57070000D01*
X-117110000Y-57070000D02*
X-117380000Y-57070000D01*
%TO.N,RX0*%
X-106030000Y-70650000D02*
X-109275000Y-70650000D01*
X-105240000Y-69860000D02*
X-106030000Y-70650000D01*
X-105525000Y-62942930D02*
X-105525000Y-66065000D01*
X-105525000Y-66065000D02*
X-105240000Y-66350000D01*
X-103850000Y-61267930D02*
X-105525000Y-62942930D01*
X-103368630Y-48335000D02*
X-102899999Y-48803631D01*
X-110045000Y-71420000D02*
X-110045000Y-73425000D01*
X-109275000Y-70650000D02*
X-110045000Y-71420000D01*
X-102899999Y-48803631D02*
X-102899999Y-55735001D01*
X-103435002Y-56235002D02*
X-103850000Y-56650000D01*
X-103850000Y-56650000D02*
X-103850000Y-61267930D01*
X-104500000Y-48335000D02*
X-103368630Y-48335000D01*
X-102899999Y-55735001D02*
X-103400000Y-56235002D01*
X-105240000Y-66350000D02*
X-105240000Y-69860000D01*
X-103400000Y-56235002D02*
X-103435002Y-56235002D01*
%TO.N,A0*%
X-115276010Y-18246010D02*
X-115276010Y-14251010D01*
X-117350000Y-20320000D02*
X-115276010Y-18246010D01*
X-115276010Y-14251010D02*
X-110500000Y-9475000D01*
X-110500000Y-9475000D02*
X-110500000Y-9425000D01*
X-110500000Y-9475000D02*
X-110450000Y-9475000D01*
X-92810000Y-5700000D02*
X-89025000Y-9485000D01*
X-106700000Y-5700000D02*
X-92810000Y-5700000D01*
X-110500000Y-9475000D02*
X-110475000Y-9475000D01*
X-110475000Y-9475000D02*
X-106700000Y-5700000D01*
%TO.N,D4*%
X-95450000Y-24775000D02*
X-95450000Y-25800000D01*
X-91600000Y-29650000D02*
X-91600000Y-29850000D01*
X-95450000Y-25800000D02*
X-91600000Y-29650000D01*
%TO.N,D3*%
X-102200000Y-58000000D02*
X-101699989Y-57499989D01*
X-101574999Y-57374999D02*
X-101699989Y-57499989D01*
X-101574999Y-53099999D02*
X-101574999Y-57374999D01*
X-101175000Y-52700000D02*
X-101574999Y-53099999D01*
%TO.N,MOSI*%
X-109942009Y-20757009D02*
X-109942009Y-16379939D01*
X-109942009Y-16379939D02*
X-103137070Y-9575000D01*
X-112120000Y-22935000D02*
X-109942009Y-20757009D01*
X-103137070Y-9575000D02*
X-101820000Y-9575000D01*
X-101820000Y-9575000D02*
X-95026000Y-9575000D01*
X-124236000Y-7245000D02*
X-124236000Y-7225000D01*
X-114125000Y-4775000D02*
X-109975000Y-625000D01*
X-109975000Y-625000D02*
X-104550000Y-625000D01*
X-104550000Y-625000D02*
X-102025000Y-3150000D01*
X-102025000Y-3150000D02*
X-102025000Y-3875000D01*
%TO.N,SCK*%
X-114076000Y-26059000D02*
X-112120000Y-28015000D01*
X-114076000Y-16623000D02*
X-114076000Y-26059000D01*
X-113701500Y-16248500D02*
X-114076000Y-16623000D01*
X-124175000Y-11145000D02*
X-124175000Y-12875000D01*
X-124175000Y-12875000D02*
X-123325000Y-13725000D01*
X-111178000Y-13725000D02*
X-111039000Y-13586000D01*
X-104932000Y-7479000D02*
X-111039000Y-13586000D01*
X-111039000Y-13586000D02*
X-113701500Y-16248500D01*
X-123325000Y-13725000D02*
X-119975000Y-13725000D01*
X-119975000Y-13725000D02*
X-119150000Y-12900000D01*
X-119150000Y-12900000D02*
X-117000000Y-12900000D01*
X-117000000Y-12900000D02*
X-108025000Y-3925000D01*
X-108025000Y-3925000D02*
X-104175000Y-3925000D01*
X-95026000Y-7479000D02*
X-104054000Y-7479000D01*
X-104054000Y-7479000D02*
X-104932000Y-7479000D01*
%TO.N,MISO*%
X-95058000Y-11543000D02*
X-95026000Y-11575000D01*
X-109542000Y-25475000D02*
X-112120000Y-25475000D01*
X-107980000Y-23913000D02*
X-109542000Y-25475000D01*
X-107980000Y-17385000D02*
X-107980000Y-23913000D01*
X-95026000Y-11575000D02*
X-102170000Y-11575000D01*
X-102170000Y-11575000D02*
X-103408000Y-12813000D01*
X-103408000Y-12813000D02*
X-107980000Y-17385000D01*
X-126776000Y-12285000D02*
X-126776000Y-11564998D01*
X-126715000Y-11145000D02*
X-126715000Y-9715000D01*
X-126715000Y-9715000D02*
X-125800000Y-8800000D01*
X-125800000Y-8800000D02*
X-115900000Y-8800000D01*
X-115900000Y-8800000D02*
X-115425000Y-8800000D01*
X-115900000Y-8800000D02*
X-115700000Y-8800000D01*
X-115700000Y-8800000D02*
X-109075000Y-2175000D01*
X-109075000Y-2175000D02*
X-106350000Y-2175000D01*
%TO.N,A4*%
X-118350000Y-55600000D02*
X-118270000Y-55600000D01*
X-118270000Y-55600000D02*
X-118140000Y-55730000D01*
X-118140000Y-55730000D02*
X-121550000Y-55730000D01*
X-125720000Y-59900000D02*
X-127220000Y-59900000D01*
X-121550000Y-55730000D02*
X-125720000Y-59900000D01*
X-127220000Y-59900000D02*
X-127220000Y-48400000D01*
X-127220000Y-48400000D02*
X-126430000Y-47610000D01*
X-126430000Y-47610000D02*
X-120970000Y-47610000D01*
X-119110000Y-45750000D02*
X-118020000Y-45750000D01*
X-120970000Y-47610000D02*
X-119110000Y-45750000D01*
%TO.N,A5*%
X-109530000Y-56985000D02*
X-109530000Y-54325000D01*
X-113470000Y-60925000D02*
X-109530000Y-56985000D01*
X-112070000Y-50925000D02*
X-112120000Y-50875000D01*
X-108300000Y-50925000D02*
X-112070000Y-50925000D01*
%TO.N,D8*%
X-104500000Y-16890000D02*
X-104500000Y-17855000D01*
X-92750000Y-14940000D02*
X-102550000Y-14940000D01*
X-102550000Y-14940000D02*
X-104500000Y-16890000D01*
%TO.N,D7*%
X-104500000Y-20395000D02*
X-103745000Y-20395000D01*
X-103745000Y-20395000D02*
X-102330000Y-18980000D01*
X-102330000Y-18980000D02*
X-102330000Y-18650000D01*
X-102330000Y-18650000D02*
X-100020000Y-16340000D01*
X-100020000Y-16340000D02*
X-92330000Y-16340000D01*
%TO.N,Net-(U1-Pad9)*%
X-99925000Y-26750000D02*
X-99925000Y-24275000D01*
X-99925000Y-26750000D02*
X-100550000Y-26750000D01*
X-100550000Y-26750000D02*
X-102020000Y-28220000D01*
X-102165000Y-28220000D02*
X-104500000Y-30555000D01*
X-102020000Y-28220000D02*
X-102165000Y-28220000D01*
%TD*%
M02*
