  0
SECTION
  2
HEADER
  9
$ACADVER
  1
AC1014
  9
$HANDSEED
  5
FFFF
  9
$MEASUREMENT
 70
     1
  0
ENDSEC
  0
SECTION
  2
TABLES
  0
TABLE
  2
VPORT
  5
8
330
0
100
AcDbSymbolTable
 70
     4
  0
VPORT
  5
2E
330
8
100
AcDbSymbolTableRecord
100
AcDbViewportTableRecord
  2
*ACTIVE
 70
     0
 10
0.0
 20
0.0
 11
1.0
 21
1.0
 12
210.0
 22
148.5
 13
0.0
 23
0.0
 14
10.0
 24
10.0
 15
10.0
 25
10.0
 16
0.0
 26
0.0
 36
1.0
 17
0.0
 27
0.0
 37
0.0
 40
341.0
 41
1.24
 42
50.0
 43
0.0
 44
0.0
 50
0.0
 51
0.0
 71
     0
 72
   100
 73
     1
 74
     3
 75
     0
 76
     0
 77
     0
 78
     0
  0
ENDTAB
  0
TABLE
  2
LTYPE
  5
5
330
0
100
AcDbSymbolTable
 70
     1
  0
LTYPE
  5
14
330
5
100
AcDbSymbolTableRecord
100
AcDbLinetypeTableRecord
  2
BYBLOCK
 70
     0
  3

 72
    65
 73
     0
 40
0.0
  0
LTYPE
  5
15
330
5
100
AcDbSymbolTableRecord
100
AcDbLinetypeTableRecord
  2
BYLAYER
 70
     0
  3

 72
    65
 73
     0
 40
0.0
  0
LTYPE
  5
16
330
5
100
AcDbSymbolTableRecord
100
AcDbLinetypeTableRecord
  2
CONTINUOUS
 70
     0
  3
Solid line
 72
    65
 73
     0
 40
0.0
  0
ENDTAB
  0
TABLE
  2
LAYER
  5
2
100
AcDbSymbolTable
 70
2
  0
LAYER
  5
50
100
AcDbSymbolTableRecord
100
AcDbLayerTableRecord
  2
0
 70
0
  6
CONTINUOUS
  0
LAYER
  5
51
100
AcDbSymbolTableRecord
100
AcDbLayerTableRecord
  2
Layer_1
 70
0
  6
CONTINUOUS
  0
ENDTAB
  0
TABLE
  2
STYLE
  5
3
330
0
100
AcDbSymbolTable
 70
     1
  0
STYLE
  5
11
330
3
100
AcDbSymbolTableRecord
100
AcDbTextStyleTableRecord
  2
STANDARD
 70
     0
 40
0.0
 41
1.0
 50
0.0
 71
     0
 42
2.5
  3
txt
  4

  0
ENDTAB
  0
TABLE
  2
VIEW
  5
6
330
0
100
AcDbSymbolTable
 70
     0
  0
ENDTAB
  0
TABLE
  2
UCS
  5
7
330
0
100
AcDbSymbolTable
 70
     0
  0
ENDTAB
  0
TABLE
  2
APPID
  5
9
330
0
100
AcDbSymbolTable
 70
     2
  0
APPID
  5
12
330
9
100
AcDbSymbolTableRecord
100
AcDbRegAppTableRecord
  2
ACAD
 70
     0
  0
ENDTAB
  0
TABLE
  2
DIMSTYLE
  5
A
330
0
100
AcDbSymbolTable
 70
     1
  0
DIMSTYLE
105
27
330
A
100
AcDbSymbolTableRecord
100
AcDbDimStyleTableRecord
  2
ISO-25
 70
     0
  3

  4

  5

  6

  7

 40
1.0
 41
2.5
 42
0.625
 43
3.75
 44
1.25
 45
0.0
 46
0.0
 47
0.0
 48
0.0
140
2.5
141
2.5
142
0.0
143
0.03937007874016
144
1.0
145
0.0
146
1.0
147
0.625
 71
     0
 72
     0
 73
     0
 74
     0
 75
     0
 76
     0
 77
     1
 78
     8
170
     0
171
     3
172
     1
173
     0
174
     0
175
     0
176
     0
177
     0
178
     0
270
     2
271
     2
272
     2
273
     2
274
     3
340
11
275
     0
280
     0
281
     0
282
     0
283
     0
284
     8
285
     0
286
     0
287
     3
288
     0
  0
ENDTAB
  0
TABLE
  2
BLOCK_RECORD
  5
1
330
0
100
AcDbSymbolTable
 70
     1
  0
BLOCK_RECORD
  5
1F
330
1
100
AcDbSymbolTableRecord
100
AcDbBlockTableRecord
  2
*MODEL_SPACE
  0
BLOCK_RECORD
  5
1B
330
1
100
AcDbSymbolTableRecord
100
AcDbBlockTableRecord
  2
*PAPER_SPACE
  0
ENDTAB
  0
ENDSEC
  0
SECTION
  2
BLOCKS
  0
BLOCK
  5
20
330
1F
100
AcDbEntity
  8
0
100
AcDbBlockBegin
  2
*MODEL_SPACE
 70
     0
 10
0.0
 20
0.0
 30
0.0
  3
*MODEL_SPACE
  1

  0
ENDBLK
  5
21
330
1F
100
AcDbEntity
  8
0
100
AcDbBlockEnd
  0
BLOCK
  5
1C
330
1B
100
AcDbEntity
 67
     1
  8
0
100
AcDbBlockBegin
  2
*PAPER_SPACE
  1

  0
ENDBLK
  5
1D
330
1B
100
AcDbEntity
 67
     1
  8
0
100
AcDbBlockEnd
  0
ENDSEC
  0
SECTION
  2
ENTITIES
  0
SPLINE
  5
100
100
AcDbEntity
  8
Layer_1
 62
7
100
AcDbSpline
 70
8
 71
3
 72
8
 73
4
 74
0
 40
0
 40
0
 40
0
 40
0
 40
1
 40
1
 40
1
 40
1
 10
6.489116
 20
3.449042
 30
0.0
 10
5.355955
 20
3.449349
 30
0.0
 10
4.955491
 20
3.441672
 30
0.0
 10
4.196458
 20
3.404170
 30
0.0
  0
SPLINE
  5
101
100
AcDbEntity
  8
Layer_1
 62
7
100
AcDbSpline
 70
8
 71
3
 72
8
 73
4
 74
0
 40
0
 40
0
 40
0
 40
0
 40
1
 40
1
 40
1
 40
1
 10
4.196458
 20
3.404170
 30
0.0
 10
3.444384
 20
3.367064
 30
0.0
 10
2.885941
 20
3.317005
 30
0.0
 10
2.490860
 20
3.250986
 30
0.0
  0
SPLINE
  5
102
100
AcDbEntity
  8
Layer_1
 62
7
100
AcDbSpline
 70
8
 71
3
 72
8
 73
4
 74
0
 40
0
 40
0
 40
0
 40
0
 40
1
 40
1
 40
1
 40
1
 10
2.490860
 20
3.250986
 30
0.0
 10
2.419115
 20
3.239080
 30
0.0
 10
2.283080
 20
3.223490
 30
0.0
 10
2.189200
 20
3.216375
 30
0.0
  0
SPLINE
  5
103
100
AcDbEntity
  8
Layer_1
 62
7
100
AcDbSpline
 70
8
 71
3
 72
8
 73
4
 74
0
 40
0
 40
0
 40
0
 40
0
 40
1
 40
1
 40
1
 40
1
 10
2.189200
 20
3.216375
 30
0.0
 10
1.766347
 20
3.184627
 30
0.0
 10
1.529045
 20
3.133149
 30
0.0
 10
1.211077
 20
3.004683
 30
0.0
  0
SPLINE
  5
104
100
AcDbEntity
  8
Layer_1
 62
7
100
AcDbSpline
 70
8
 71
3
 72
8
 73
4
 74
0
 40
0
 40
0
 40
0
 40
0
 40
1
 40
1
 40
1
 40
1
 10
0.930645
 20
3.009446
 30
0.0
 10
0.780239
 20
3.087823
 30
0.0
 10
0.570954
 20
3.159171
 30
0.0
 10
0.463360
 20
3.168214
 30
0.0
  0
LWPOLYLINE
  5
105
100
AcDbEntity
  8
Layer_1
 62
7
100
AcDbPolyline
 90
3
 70
0
 10
1.211077
 20
3.004683
 30
0.0
 10
1.058034
 20
2.942973
 30
0.0
 10
0.930645
 20
3.009446
 30
0.0
  0
SPLINE
  5
106
100
AcDbEntity
  8
Layer_1
 62
7
100
AcDbSpline
 70
8
 71
3
 72
8
 73
4
 74
0
 40
0
 40
0
 40
0
 40
0
 40
1
 40
1
 40
1
 40
1
 10
0.390849
 20
3.124107
 30
0.0
 10
0.395668
 20
3.091962
 30
0.0
 10
0.415227
 20
3.043234
 30
0.0
 10
0.444708
 20
2.982942
 30
0.0
  0
SPLINE
  5
107
100
AcDbEntity
  8
Layer_1
 62
7
100
AcDbSpline
 70
8
 71
3
 72
8
 73
4
 74
0
 40
0
 40
0
 40
0
 40
0
 40
1
 40
1
 40
1
 40
1
 10
0.444708
 20
2.982942
 30
0.0
 10
0.474386
 20
2.922592
 30
0.0
 10
0.514497
 20
2.851131
 30
0.0
 10
0.562005
 20
2.774879
 30
0.0
  0
SPLINE
  5
108
100
AcDbEntity
  8
Layer_1
 62
7
100
AcDbSpline
 70
8
 71
3
 72
8
 73
4
 74
0
 40
0
 40
0
 40
0
 40
0
 40
1
 40
1
 40
1
 40
1
 10
0.562005
 20
2.774879
 30
0.0
 10
0.597467
 20
2.717789
 30
0.0
 10
0.617848
 20
2.683631
 30
0.0
 10
0.628846
 20
2.658516
 30
0.0
  0
SPLINE
  5
109
100
AcDbEntity
  8
Layer_1
 62
7
100
AcDbSpline
 70
8
 71
3
 72
8
 73
4
 74
0
 40
0
 40
0
 40
0
 40
0
 40
1
 40
1
 40
1
 40
1
 10
0.628846
 20
2.658516
 30
0.0
 10
0.639618
 20
2.633288
 30
0.0
 10
0.641602
 20
2.617697
 30
0.0
 10
0.641602
 20
2.595502
 30
0.0
  0
SPLINE
  5
10a
100
AcDbEntity
  8
Layer_1
 62
7
100
AcDbSpline
 70
8
 71
3
 72
8
 73
4
 74
0
 40
0
 40
0
 40
0
 40
0
 40
1
 40
1
 40
1
 40
1
 10
0.641602
 20
2.595502
 30
0.0
 10
0.640213
 20
2.527839
 30
0.0
 10
0.593498
 20
2.401868
 30
0.0
 10
0.527394
 20
2.272287
 30
0.0
  0
SPLINE
  5
10b
100
AcDbEntity
  8
Layer_1
 62
7
100
AcDbSpline
 70
8
 71
3
 72
8
 73
4
 74
0
 40
0
 40
0
 40
0
 40
0
 40
1
 40
1
 40
1
 40
1
 10
0.527394
 20
2.272287
 30
0.0
 10
0.461234
 20
2.142659
 30
0.0
 10
0.375712
 20
2.008665
 30
0.0
 10
0.297590
 20
1.922282
 30
0.0
  0
SPLINE
  5
10c
100
AcDbEntity
  8
Layer_1
 62
7
100
AcDbSpline
 70
8
 71
3
 72
8
 73
4
 74
0
 40
0
 40
0
 40
0
 40
0
 40
1
 40
1
 40
1
 40
1
 10
0.297590
 20
1.922282
 30
0.0
 10
0.263375
 20
1.884780
 30
0.0
 10
0.223860
 20
1.851558
 30
0.0
 10
0.186216
 20
1.828115
 30
0.0
  0
SPLINE
  5
10d
100
AcDbEntity
  8
Layer_1
 62
7
100
AcDbSpline
 70
8
 71
3
 72
8
 73
4
 74
0
 40
0
 40
0
 40
0
 40
0
 40
1
 40
1
 40
1
 40
1
 10
0.186216
 20
1.828115
 30
0.0
 10
0.148714
 20
1.804588
 30
0.0
 10
0.112771
 20
1.791010
 30
0.0
 10
0.087996
 20
1.791010
 30
0.0
  0
SPLINE
  5
10e
100
AcDbEntity
  8
Layer_1
 62
7
100
AcDbSpline
 70
8
 71
3
 72
8
 73
4
 74
0
 40
0
 40
0
 40
0
 40
0
 40
1
 40
1
 40
1
 40
1
 10
0.087996
 20
1.791010
 30
0.0
 10
0.060783
 20
1.790933
 30
0.0
 10
0.038985
 20
1.783640
 30
0.0
 10
0.023990
 20
1.767482
 30
0.0
  0
SPLINE
  5
10f
100
AcDbEntity
  8
Layer_1
 62
7
100
AcDbSpline
 70
8
 71
3
 72
8
 73
4
 74
0
 40
0
 40
0
 40
0
 40
0
 40
1
 40
1
 40
1
 40
1
 10
0.023990
 20
1.767482
 30
0.0
 10
0.009249
 20
1.751325
 30
0.0
 10
0.001312
 20
1.727514
 30
0.0
 10
0.000179
 20
1.694915
 30
0.0
  0
SPLINE
  5
110
100
AcDbEntity
  8
Layer_1
 62
7
100
AcDbSpline
 70
8
 71
3
 72
8
 73
4
 74
0
 40
0
 40
0
 40
0
 40
0
 40
1
 40
1
 40
1
 40
1
 10
0.000179
 20
1.694915
 30
0.0
 10
-0.002288
 20
1.629832
 30
0.0
 10
0.020871
 20
1.529315
 30
0.0
 10
0.067813
 20
1.382005
 30
0.0
  0
SPLINE
  5
111
100
AcDbEntity
  8
Layer_1
 62
7
100
AcDbSpline
 70
8
 71
3
 72
8
 73
4
 74
0
 40
0
 40
0
 40
0
 40
0
 40
1
 40
1
 40
1
 40
1
 10
0.067813
 20
1.382005
 30
0.0
 10
0.085671
 20
1.326616
 30
0.0
 10
0.099561
 20
1.284748
 30
0.0
 10
0.116371
 20
1.252263
 30
0.0
  0
SPLINE
  5
112
100
AcDbEntity
  8
Layer_1
 62
7
100
AcDbSpline
 70
8
 71
3
 72
8
 73
4
 74
0
 40
0
 40
0
 40
0
 40
0
 40
1
 40
1
 40
1
 40
1
 10
0.116371
 20
1.252263
 30
0.0
 10
0.133379
 20
1.219693
 30
0.0
 10
0.153873
 20
1.196732
 30
0.0
 10
0.183438
 20
1.181000
 30
0.0
  0
SPLINE
  5
113
100
AcDbEntity
  8
Layer_1
 62
7
100
AcDbSpline
 70
8
 71
3
 72
8
 73
4
 74
0
 40
0
 40
0
 40
0
 40
0
 40
1
 40
1
 40
1
 40
1
 10
0.183438
 20
1.181000
 30
0.0
 10
0.242881
 20
1.149677
 30
0.0
 10
0.337842
 20
1.145567
 30
0.0
 10
0.522726
 20
1.139529
 30
0.0
  0
SPLINE
  5
114
100
AcDbEntity
  8
Layer_1
 62
7
100
AcDbSpline
 70
8
 71
3
 72
8
 73
4
 74
0
 40
0
 40
0
 40
0
 40
0
 40
1
 40
1
 40
1
 40
1
 10
0.522726
 20
1.139529
 30
0.0
 10
0.784165
 20
1.130742
 30
0.0
 10
0.893710
 20
1.120253
 30
0.0
 10
1.167866
 20
1.077252
 30
0.0
  0
SPLINE
  5
115
100
AcDbEntity
  8
Layer_1
 62
7
100
AcDbSpline
 70
8
 71
3
 72
8
 73
4
 74
0
 40
0
 40
0
 40
0
 40
0
 40
1
 40
1
 40
1
 40
1
 10
1.167866
 20
1.077252
 30
0.0
 10
1.250921
 20
1.063929
 30
0.0
 10
1.344917
 20
1.059110
 30
0.0
 10
1.471051
 20
1.061094
 30
0.0
  0
SPLINE
  5
116
100
AcDbEntity
  8
Layer_1
 62
7
100
AcDbSpline
 70
8
 71
3
 72
8
 73
4
 74
0
 40
0
 40
0
 40
0
 40
0
 40
1
 40
1
 40
1
 40
1
 10
1.471051
 20
1.061094
 30
0.0
 10
1.571397
 20
1.062631
 30
0.0
 10
1.691218
 20
1.064496
 30
0.0
 10
1.737337
 20
1.065346
 30
0.0
  0
LWPOLYLINE
  5
117
100
AcDbEntity
  8
Layer_1
 62
7
100
AcDbPolyline
 90
3
 70
0
 10
0.463360
 20
3.168214
 30
0.0
 10
0.382912
 20
3.174734
 30
0.0
 10
0.390849
 20
3.124107
 30
0.0
  0
SPLINE
  5
118
100
AcDbEntity
  8
Layer_1
 62
7
100
AcDbSpline
 70
8
 71
3
 72
8
 73
4
 74
0
 40
0
 40
0
 40
0
 40
0
 40
1
 40
1
 40
1
 40
1
 10
1.853643
 20
0.978989
 30
0.0
 10
1.924339
 20
0.808031
 30
0.0
 10
1.943416
 20
0.638630
 30
0.0
 10
1.910024
 20
0.480950
 30
0.0
  0
SPLINE
  5
119
100
AcDbEntity
  8
Layer_1
 62
7
100
AcDbSpline
 70
8
 71
3
 72
8
 73
4
 74
0
 40
0
 40
0
 40
0
 40
0
 40
1
 40
1
 40
1
 40
1
 10
1.910024
 20
0.480950
 30
0.0
 10
1.900953
 20
0.438090
 30
0.0
 10
1.867646
 20
0.326462
 30
0.0
 10
1.836295
 20
0.234137
 30
0.0
  0
SPLINE
  5
11a
100
AcDbEntity
  8
Layer_1
 62
7
100
AcDbSpline
 70
8
 71
3
 72
8
 73
4
 74
0
 40
0
 40
0
 40
0
 40
0
 40
1
 40
1
 40
1
 40
1
 10
1.836295
 20
0.234137
 30
0.0
 10
1.820704
 20
0.187819
 30
0.0
 10
1.806219
 20
0.142352
 30
0.0
 10
1.795901
 20
0.106522
 30
0.0
  0
SPLINE
  5
11b
100
AcDbEntity
  8
Layer_1
 62
7
100
AcDbSpline
 70
8
 71
3
 72
8
 73
4
 74
0
 40
0
 40
0
 40
0
 40
0
 40
1
 40
1
 40
1
 40
1
 10
1.795901
 20
0.106522
 30
0.0
 10
1.791082
 20
0.088380
 30
0.0
 10
1.786547
 20
0.073130
 30
0.0
 10
1.783429
 20
0.060856
 30
0.0
  0
SPLINE
  5
11c
100
AcDbEntity
  8
Layer_1
 62
7
100
AcDbSpline
 70
8
 71
3
 72
8
 73
4
 74
0
 40
0
 40
0
 40
0
 40
0
 40
1
 40
1
 40
1
 40
1
 10
1.783429
 20
0.060856
 30
0.0
 10
1.780594
 20
0.048950
 30
0.0
 10
1.779177
 20
0.041013
 30
0.0
 10
1.779177
 20
0.035627
 30
0.0
  0
LWPOLYLINE
  5
11d
100
AcDbEntity
  8
Layer_1
 62
7
100
AcDbPolyline
 90
3
 70
0
 10
1.737337
 20
1.065346
 30
0.0
 10
1.817388
 20
1.066664
 30
0.0
 10
1.853643
 20
0.978989
 30
0.0
  0
SPLINE
  5
11e
100
AcDbEntity
  8
Layer_1
 62
7
100
AcDbSpline
 70
8
 71
3
 72
8
 73
4
 74
0
 40
0
 40
0
 40
0
 40
0
 40
1
 40
1
 40
1
 40
1
 10
1.778978
 20
0.035627
 30
0.0
 10
1.778978
 20
0.035508
 30
0.0
 10
1.778978
 20
0.035179
 30
0.0
 10
1.778978
 20
0.035052
 30
0.0
  0
SPLINE
  5
11f
100
AcDbEntity
  8
Layer_1
 62
7
100
AcDbSpline
 70
8
 71
3
 72
8
 73
4
 74
0
 40
0
 40
0
 40
0
 40
0
 40
1
 40
1
 40
1
 40
1
 10
1.778978
 20
0.035052
 30
0.0
 10
1.778978
 20
0.027965
 30
0.0
 10
1.779043
 20
0.022296
 30
0.0
 10
1.780733
 20
0.016910
 30
0.0
  0
SPLINE
  5
120
100
AcDbEntity
  8
Layer_1
 62
7
100
AcDbSpline
 70
8
 71
3
 72
8
 73
4
 74
0
 40
0
 40
0
 40
0
 40
0
 40
1
 40
1
 40
1
 40
1
 10
1.780733
 20
0.016910
 30
0.0
 10
1.782414
 20
0.011524
 30
0.0
 10
1.786119
 20
0.006989
 30
0.0
 10
1.791788
 20
0.005005
 30
0.0
  0
SPLINE
  5
121
100
AcDbEntity
  8
Layer_1
 62
7
100
AcDbSpline
 70
8
 71
3
 72
8
 73
4
 74
0
 40
0
 40
0
 40
0
 40
0
 40
1
 40
1
 40
1
 40
1
 10
1.791788
 20
0.005005
 30
0.0
 10
1.802843
 20
0.000469
 30
0.0
 10
1.819284
 20
0.000753
 30
0.0
 10
1.851542
 20
0.000753
 30
0.0
  0
SPLINE
  5
122
100
AcDbEntity
  8
Layer_1
 62
7
100
AcDbSpline
 70
8
 71
3
 72
8
 73
4
 74
0
 40
0
 40
0
 40
0
 40
0
 40
1
 40
1
 40
1
 40
1
 10
1.851542
 20
0.000753
 30
0.0
 10
1.922097
 20
0.000753
 30
0.0
 10
1.964900
 20
0.005005
 30
0.0
 10
2.000163
 20
0.028249
 30
0.0
  0
SPLINE
  5
123
100
AcDbEntity
  8
Layer_1
 62
7
100
AcDbSpline
 70
8
 71
3
 72
8
 73
4
 74
0
 40
0
 40
0
 40
0
 40
0
 40
1
 40
1
 40
1
 40
1
 10
2.000163
 20
0.028249
 30
0.0
 10
2.035596
 20
0.051776
 30
0.0
 10
2.061788
 20
0.093616
 30
0.0
 10
2.101388
 20
0.167316
 30
0.0
  0
SPLINE
  5
124
100
AcDbEntity
  8
Layer_1
 62
7
100
AcDbSpline
 70
8
 71
3
 72
8
 73
4
 74
0
 40
0
 40
0
 40
0
 40
0
 40
1
 40
1
 40
1
 40
1
 10
2.101388
 20
0.167316
 30
0.0
 10
2.390227
 20
0.704502
 30
0.0
 10
2.442736
 20
0.816096
 30
0.0
 10
2.457286
 20
0.926315
 30
0.0
  0
SPLINE
  5
125
100
AcDbEntity
  8
Layer_1
 62
7
100
AcDbSpline
 70
8
 71
3
 72
8
 73
4
 74
0
 40
0
 40
0
 40
0
 40
0
 40
1
 40
1
 40
1
 40
1
 10
2.457286
 20
0.926315
 30
0.0
 10
2.459344
 20
0.942473
 30
0.0
 10
2.462672
 20
0.958063
 30
0.0
 10
2.466074
 20
0.969686
 30
0.0
  0
SPLINE
  5
126
100
AcDbEntity
  8
Layer_1
 62
7
100
AcDbSpline
 70
8
 71
3
 72
8
 73
4
 74
0
 40
0
 40
0
 40
0
 40
0
 40
1
 40
1
 40
1
 40
1
 10
2.466074
 20
0.969686
 30
0.0
 10
2.467755
 20
0.975355
 30
0.0
 10
2.469475
 20
0.980457
 30
0.0
 10
2.470893
 20
0.983575
 30
0.0
  0
SPLINE
  5
127
100
AcDbEntity
  8
Layer_1
 62
7
100
AcDbSpline
 70
8
 71
3
 72
8
 73
4
 74
0
 40
0
 40
0
 40
0
 40
0
 40
1
 40
1
 40
1
 40
1
 10
2.470893
 20
0.983575
 30
0.0
 10
2.472435
 20
0.986977
 30
0.0
 10
2.474294
 20
0.988961
 30
0.0
 10
2.473362
 20
0.988111
 30
0.0
  0
SPLINE
  5
128
100
AcDbEntity
  8
Layer_1
 62
7
100
AcDbSpline
 70
8
 71
3
 72
8
 73
4
 74
0
 40
0
 40
0
 40
0
 40
0
 40
1
 40
1
 40
1
 40
1
 10
2.473362
 20
0.988111
 30
0.0
 10
2.472191
 20
0.987382
 30
0.0
 10
2.473421
 20
0.988145
 30
0.0
 10
2.475264
 20
0.988306
 30
0.0
  0
SPLINE
  5
129
100
AcDbEntity
  8
Layer_1
 62
7
100
AcDbSpline
 70
8
 71
3
 72
8
 73
4
 74
0
 40
0
 40
0
 40
0
 40
0
 40
1
 40
1
 40
1
 40
1
 10
2.475264
 20
0.988306
 30
0.0
 10
2.477089
 20
0.988462
 30
0.0
 10
2.479799
 20
0.988374
 30
0.0
 10
2.483201
 20
0.988306
 30
0.0
  0
SPLINE
  5
12a
100
AcDbEntity
  8
Layer_1
 62
7
100
AcDbSpline
 70
8
 71
3
 72
8
 73
4
 74
0
 40
0
 40
0
 40
0
 40
0
 40
1
 40
1
 40
1
 40
1
 10
2.483201
 20
0.988306
 30
0.0
 10
2.489720
 20
0.988170
 30
0.0
 10
2.499358
 20
0.987663
 30
0.0
 10
2.510130
 20
0.986554
 30
0.0
  0
SPLINE
  5
12b
100
AcDbEntity
  8
Layer_1
 62
7
100
AcDbSpline
 70
8
 71
3
 72
8
 73
4
 74
0
 40
0
 40
0
 40
0
 40
0
 40
1
 40
1
 40
1
 40
1
 10
2.510130
 20
0.986554
 30
0.0
 10
2.531957
 20
0.984497
 30
0.0
 10
2.560785
 20
0.980318
 30
0.0
 10
2.591172
 20
0.975499
 30
0.0
  0
SPLINE
  5
12c
100
AcDbEntity
  8
Layer_1
 62
7
100
AcDbSpline
 70
8
 71
3
 72
8
 73
4
 74
0
 40
0
 40
0
 40
0
 40
0
 40
1
 40
1
 40
1
 40
1
 10
2.591172
 20
0.975499
 30
0.0
 10
2.659714
 20
0.964444
 30
0.0
 10
2.815676
 20
0.953673
 30
0.0
 10
2.993479
 20
0.948570
 30
0.0
  0
LWPOLYLINE
  5
12d
100
AcDbEntity
  8
Layer_1
 62
7
100
AcDbPolyline
 90
2
 70
0
 10
1.779177
 20
0.035627
 30
0.0
 10
1.778978
 20
0.035627
 30
0.0
  0
SPLINE
  5
12e
100
AcDbEntity
  8
Layer_1
 62
7
100
AcDbSpline
 70
8
 71
3
 72
8
 73
4
 74
0
 40
0
 40
0
 40
0
 40
0
 40
1
 40
1
 40
1
 40
1
 10
3.300344
 20
0.881786
 30
0.0
 10
3.327273
 20
0.803465
 30
0.0
 10
3.337846
 20
0.590101
 30
0.0
 10
3.318769
 20
0.493780
 30
0.0
  0
SPLINE
  5
12f
100
AcDbEntity
  8
Layer_1
 62
7
100
AcDbSpline
 70
8
 71
3
 72
8
 73
4
 74
0
 40
0
 40
0
 40
0
 40
0
 40
1
 40
1
 40
1
 40
1
 10
3.318769
 20
0.493780
 30
0.0
 10
3.311399
 20
0.455455
 30
0.0
 10
3.280842
 20
0.351367
 30
0.0
 10
3.250936
 20
0.263748
 30
0.0
  0
SPLINE
  5
130
100
AcDbEntity
  8
Layer_1
 62
7
100
AcDbSpline
 70
8
 71
3
 72
8
 73
4
 74
0
 40
0
 40
0
 40
0
 40
0
 40
1
 40
1
 40
1
 40
1
 10
3.250936
 20
0.263748
 30
0.0
 10
3.216325
 20
0.161871
 30
0.0
 10
3.197673
 20
0.104413
 30
0.0
 10
3.190757
 20
0.069858
 30
0.0
  0
SPLINE
  5
131
100
AcDbEntity
  8
Layer_1
 62
7
100
AcDbSpline
 70
8
 71
3
 72
8
 73
4
 74
0
 40
0
 40
0
 40
0
 40
0
 40
1
 40
1
 40
1
 40
1
 10
3.190757
 20
0.069858
 30
0.0
 10
3.187355
 20
0.052567
 30
0.0
 10
3.186505
 20
0.041002
 30
0.0
 10
3.188999
 20
0.031931
 30
0.0
  0
SPLINE
  5
132
100
AcDbEntity
  8
Layer_1
 62
7
100
AcDbSpline
 70
8
 71
3
 72
8
 73
4
 74
0
 40
0
 40
0
 40
0
 40
0
 40
1
 40
1
 40
1
 40
1
 10
3.188999
 20
0.031931
 30
0.0
 10
3.191468
 20
0.022860
 30
0.0
 10
3.197786
 20
0.017191
 30
0.0
 10
3.205157
 20
0.012939
 30
0.0
  0
SPLINE
  5
133
100
AcDbEntity
  8
Layer_1
 62
7
100
AcDbSpline
 70
8
 71
3
 72
8
 73
4
 74
0
 40
0
 40
0
 40
0
 40
0
 40
1
 40
1
 40
1
 40
1
 10
3.205157
 20
0.012939
 30
0.0
 10
3.213377
 20
0.008403
 30
0.0
 10
3.226700
 20
0.007553
 30
0.0
 10
3.245550
 20
0.007269
 30
0.0
  0
SPLINE
  5
134
100
AcDbEntity
  8
Layer_1
 62
7
100
AcDbSpline
 70
8
 71
3
 72
8
 73
4
 74
0
 40
0
 40
0
 40
0
 40
0
 40
1
 40
1
 40
1
 40
1
 10
3.245550
 20
0.007269
 30
0.0
 10
3.263975
 20
0.007026
 30
0.0
 10
3.287333
 20
0.008369
 30
0.0
 10
3.312249
 20
0.010954
 30
0.0
  0
SPLINE
  5
135
100
AcDbEntity
  8
Layer_1
 62
7
100
AcDbSpline
 70
8
 71
3
 72
8
 73
4
 74
0
 40
0
 40
0
 40
0
 40
0
 40
1
 40
1
 40
1
 40
1
 10
3.312249
 20
0.010954
 30
0.0
 10
3.347683
 20
0.014640
 30
0.0
 10
3.370416
 20
0.018325
 30
0.0
 10
3.388076
 20
0.024561
 30
0.0
  0
SPLINE
  5
136
100
AcDbEntity
  8
Layer_1
 62
7
100
AcDbSpline
 70
8
 71
3
 72
8
 73
4
 74
0
 40
0
 40
0
 40
0
 40
0
 40
1
 40
1
 40
1
 40
1
 10
3.388076
 20
0.024561
 30
0.0
 10
3.405934
 20
0.030797
 30
0.0
 10
3.418152
 20
0.040151
 30
0.0
 10
3.432013
 20
0.054240
 30
0.0
  0
SPLINE
  5
137
100
AcDbEntity
  8
Layer_1
 62
7
100
AcDbSpline
 70
8
 71
3
 72
8
 73
4
 74
0
 40
0
 40
0
 40
0
 40
0
 40
1
 40
1
 40
1
 40
1
 10
3.432013
 20
0.054240
 30
0.0
 10
3.439950
 20
0.062460
 30
0.0
 10
3.451856
 20
0.079468
 30
0.0
 10
3.466624
 20
0.103336
 30
0.0
  0
SPLINE
  5
138
100
AcDbEntity
  8
Layer_1
 62
7
100
AcDbSpline
 70
8
 71
3
 72
8
 73
4
 74
0
 40
0
 40
0
 40
0
 40
0
 40
1
 40
1
 40
1
 40
1
 10
3.466624
 20
0.103336
 30
0.0
 10
3.481364
 20
0.127147
 30
0.0
 10
3.500016
 20
0.158611
 30
0.0
 10
3.520284
 20
0.194668
 30
0.0
  0
SPLINE
  5
139
100
AcDbEntity
  8
Layer_1
 62
7
100
AcDbSpline
 70
8
 71
3
 72
8
 73
4
 74
0
 40
0
 40
0
 40
0
 40
0
 40
1
 40
1
 40
1
 40
1
 10
3.520284
 20
0.194668
 30
0.0
 10
3.561103
 20
0.266725
 30
0.0
 10
3.609632
 20
0.358170
 30
0.0
 10
3.657453
 20
0.451033
 30
0.0
  0
SPLINE
  5
13a
100
AcDbEntity
  8
Layer_1
 62
7
100
AcDbSpline
 70
8
 71
3
 72
8
 73
4
 74
0
 40
0
 40
0
 40
0
 40
0
 40
1
 40
1
 40
1
 40
1
 10
3.657453
 20
0.451033
 30
0.0
 10
3.705273
 20
0.543896
 30
0.0
 10
3.752158
 20
0.638035
 30
0.0
 10
3.788527
 20
0.715421
 30
0.0
  0
SPLINE
  5
13b
100
AcDbEntity
  8
Layer_1
 62
7
100
AcDbSpline
 70
8
 71
3
 72
8
 73
4
 74
0
 40
0
 40
0
 40
0
 40
0
 40
1
 40
1
 40
1
 40
1
 10
3.788527
 20
0.715421
 30
0.0
 10
3.824810
 20
0.792835
 30
0.0
 10
3.850549
 20
0.852759
 30
0.0
 10
3.856898
 20
0.879717
 30
0.0
  0
LWPOLYLINE
  5
13c
100
AcDbEntity
  8
Layer_1
 62
7
100
AcDbPolyline
 90
3
 70
0
 10
2.993479
 20
0.948570
 30
0.0
 10
3.280218
 20
0.940633
 30
0.0
 10
3.300344
 20
0.881786
 30
0.0
  0
SPLINE
  5
13d
100
AcDbEntity
  8
Layer_1
 62
7
100
AcDbSpline
 70
8
 71
3
 72
8
 73
4
 74
0
 40
0
 40
0
 40
0
 40
0
 40
1
 40
1
 40
1
 40
1
 10
4.125254
 20
0.937572
 30
0.0
 10
4.268035
 20
0.939034
 30
0.0
 10
4.444801
 20
0.940041
 30
0.0
 10
4.517836
 20
0.940406
 30
0.0
  0
LWPOLYLINE
  5
13e
100
AcDbEntity
  8
Layer_1
 62
7
100
AcDbPolyline
 90
3
 70
0
 10
3.856898
 20
0.879717
 30
0.0
 10
3.870221
 20
0.934737
 30
0.0
 10
4.125254
 20
0.937572
 30
0.0
  0
SPLINE
  5
13f
100
AcDbEntity
  8
Layer_1
 62
7
100
AcDbSpline
 70
8
 71
3
 72
8
 73
4
 74
0
 40
0
 40
0
 40
0
 40
0
 40
1
 40
1
 40
1
 40
1
 10
4.666428
 20
0.881956
 30
0.0
 10
4.696929
 20
0.792438
 30
0.0
 10
4.709628
 20
0.654447
 30
0.0
 10
4.697325
 20
0.546291
 30
0.0
  0
SPLINE
  5
140
100
AcDbEntity
  8
Layer_1
 62
7
100
AcDbSpline
 70
8
 71
3
 72
8
 73
4
 74
0
 40
0
 40
0
 40
0
 40
0
 40
1
 40
1
 40
1
 40
1
 10
4.697325
 20
0.546291
 30
0.0
 10
4.690806
 20
0.487728
 30
0.0
 10
4.664755
 20
0.388317
 30
0.0
 10
4.625325
 20
0.271217
 30
0.0
  0
SPLINE
  5
141
100
AcDbEntity
  8
Layer_1
 62
7
100
AcDbSpline
 70
8
 71
3
 72
8
 73
4
 74
0
 40
0
 40
0
 40
0
 40
0
 40
1
 40
1
 40
1
 40
1
 10
4.625325
 20
0.271217
 30
0.0
 10
4.596469
 20
0.185696
 30
0.0
 10
4.579404
 20
0.132943
 30
0.0
 10
4.569936
 20
0.096263
 30
0.0
  0
SPLINE
  5
142
100
AcDbEntity
  8
Layer_1
 62
7
100
AcDbSpline
 70
8
 71
3
 72
8
 73
4
 74
0
 40
0
 40
0
 40
0
 40
0
 40
1
 40
1
 40
1
 40
1
 10
4.569936
 20
0.096263
 30
0.0
 10
4.560582
 20
0.059583
 30
0.0
 10
4.558881
 20
0.038550
 30
0.0
 10
4.560582
 20
0.017942
 30
0.0
  0
SPLINE
  5
143
100
AcDbEntity
  8
Layer_1
 62
7
100
AcDbSpline
 70
8
 71
3
 72
8
 73
4
 74
0
 40
0
 40
0
 40
0
 40
0
 40
1
 40
1
 40
1
 40
1
 10
4.560582
 20
0.017942
 30
0.0
 10
4.560837
 20
0.014540
 30
0.0
 10
4.562631
 20
0.011706
 30
0.0
 10
4.564834
 20
0.010005
 30
0.0
  0
SPLINE
  5
144
100
AcDbEntity
  8
Layer_1
 62
7
100
AcDbSpline
 70
8
 71
3
 72
8
 73
4
 74
0
 40
0
 40
0
 40
0
 40
0
 40
1
 40
1
 40
1
 40
1
 10
4.564834
 20
0.010005
 30
0.0
 10
4.566892
 20
0.008179
 30
0.0
 10
4.569369
 20
0.006887
 30
0.0
 10
4.572204
 20
0.005753
 30
0.0
  0
SPLINE
  5
145
100
AcDbEntity
  8
Layer_1
 62
7
100
AcDbSpline
 70
8
 71
3
 72
8
 73
4
 74
0
 40
0
 40
0
 40
0
 40
0
 40
1
 40
1
 40
1
 40
1
 10
4.572204
 20
0.005753
 30
0.0
 10
4.577590
 20
0.003494
 30
0.0
 10
4.584960
 20
0.002351
 30
0.0
 10
4.593747
 20
0.001501
 30
0.0
  0
SPLINE
  5
146
100
AcDbEntity
  8
Layer_1
 62
7
100
AcDbSpline
 70
8
 71
3
 72
8
 73
4
 74
0
 40
0
 40
0
 40
0
 40
0
 40
1
 40
1
 40
1
 40
1
 10
4.593747
 20
0.001501
 30
0.0
 10
4.611039
 20
-0.000330
 30
0.0
 10
4.633716
 20
-0.000257
 30
0.0
 10
4.657924
 20
0.001303
 30
0.0
  0
SPLINE
  5
147
100
AcDbEntity
  8
Layer_1
 62
7
100
AcDbSpline
 70
8
 71
3
 72
8
 73
4
 74
0
 40
0
 40
0
 40
0
 40
0
 40
1
 40
1
 40
1
 40
1
 10
4.657924
 20
0.001303
 30
0.0
 10
4.681735
 20
0.002915
 30
0.0
 10
4.707190
 20
0.005838
 30
0.0
 10
4.729017
 20
0.010090
 30
0.0
  0
SPLINE
  5
148
100
AcDbEntity
  8
Layer_1
 62
7
100
AcDbSpline
 70
8
 71
3
 72
8
 73
4
 74
0
 40
0
 40
0
 40
0
 40
0
 40
1
 40
1
 40
1
 40
1
 10
4.729017
 20
0.010090
 30
0.0
 10
4.750843
 20
0.014342
 30
0.0
 10
4.768985
 20
0.020011
 30
0.0
 10
4.780409
 20
0.027381
 30
0.0
  0
SPLINE
  5
149
100
AcDbEntity
  8
Layer_1
 62
7
100
AcDbSpline
 70
8
 71
3
 72
8
 73
4
 74
0
 40
0
 40
0
 40
0
 40
0
 40
1
 40
1
 40
1
 40
1
 10
4.780409
 20
0.027381
 30
0.0
 10
4.815445
 20
0.050058
 30
0.0
 10
4.848780
 20
0.108282
 30
0.0
 10
5.025691
 20
0.441940
 30
0.0
  0
SPLINE
  5
14a
100
AcDbEntity
  8
Layer_1
 62
7
100
AcDbSpline
 70
8
 71
3
 72
8
 73
4
 74
0
 40
0
 40
0
 40
0
 40
0
 40
1
 40
1
 40
1
 40
1
 10
5.025691
 20
0.441940
 30
0.0
 10
5.168585
 20
0.711401
 30
0.0
 10
5.222443
 20
0.830606
 30
0.0
 10
5.232960
 20
0.904253
 30
0.0
  0
LWPOLYLINE
  5
14b
100
AcDbEntity
  8
Layer_1
 62
7
100
AcDbPolyline
 90
3
 70
0
 10
4.517836
 20
0.940406
 30
0.0
 10
4.646585
 20
0.940605
 30
0.0
 10
4.666428
 20
0.881956
 30
0.0
  0
SPLINE
  5
14c
100
AcDbEntity
  8
Layer_1
 62
7
100
AcDbSpline
 70
8
 71
3
 72
8
 73
4
 74
0
 40
0
 40
0
 40
0
 40
0
 40
1
 40
1
 40
1
 40
1
 10
5.502506
 20
0.959557
 30
0.0
 10
5.649908
 20
0.963809
 30
0.0
 10
5.834871
 20
0.969479
 30
0.0
 10
5.913799
 20
0.973164
 30
0.0
  0
LWPOLYLINE
  5
14d
100
AcDbEntity
  8
Layer_1
 62
7
100
AcDbPolyline
 90
3
 70
0
 10
5.232960
 20
0.904253
 30
0.0
 10
5.239480
 20
0.952187
 30
0.0
 10
5.502506
 20
0.959557
 30
0.0
  0
SPLINE
  5
14e
100
AcDbEntity
  8
Layer_1
 62
7
100
AcDbSpline
 70
8
 71
3
 72
8
 73
4
 74
0
 40
0
 40
0
 40
0
 40
0
 40
1
 40
1
 40
1
 40
1
 10
6.071009
 20
0.929538
 30
0.0
 10
6.100262
 20
0.847475
 30
0.0
 10
6.123591
 20
0.724083
 30
0.0
 10
6.123762
 20
0.649674
 30
0.0
  0
SPLINE
  5
14f
100
AcDbEntity
  8
Layer_1
 62
7
100
AcDbSpline
 70
8
 71
3
 72
8
 73
4
 74
0
 40
0
 40
0
 40
0
 40
0
 40
1
 40
1
 40
1
 40
1
 10
6.123762
 20
0.649674
 30
0.0
 10
6.123937
 20
0.538924
 30
0.0
 10
6.103919
 20
0.445494
 30
0.0
 10
6.037418
 20
0.249056
 30
0.0
  0
SPLINE
  5
150
100
AcDbEntity
  8
Layer_1
 62
7
100
AcDbSpline
 70
8
 71
3
 72
8
 73
4
 74
0
 40
0
 40
0
 40
0
 40
0
 40
1
 40
1
 40
1
 40
1
 10
6.037418
 20
0.249056
 30
0.0
 10
6.020127
 20
0.197863
 30
0.0
 10
6.004848
 20
0.148540
 30
0.0
 10
5.994048
 20
0.110159
 30
0.0
  0
SPLINE
  5
151
100
AcDbEntity
  8
Layer_1
 62
7
100
AcDbSpline
 70
8
 71
3
 72
8
 73
4
 74
0
 40
0
 40
0
 40
0
 40
0
 40
1
 40
1
 40
1
 40
1
 10
5.994048
 20
0.110159
 30
0.0
 10
5.988662
 20
0.090883
 30
0.0
 10
5.984127
 20
0.074300
 30
0.0
 10
5.981292
 20
0.061800
 30
0.0
  0
SPLINE
  5
152
100
AcDbEntity
  8
Layer_1
 62
7
100
AcDbSpline
 70
8
 71
3
 72
8
 73
4
 74
0
 40
0
 40
0
 40
0
 40
0
 40
1
 40
1
 40
1
 40
1
 10
5.981292
 20
0.061800
 30
0.0
 10
5.979903
 20
0.055563
 30
0.0
 10
5.978823
 20
0.050744
 30
0.0
 10
5.978174
 20
0.045642
 30
0.0
  0
SPLINE
  5
153
100
AcDbEntity
  8
Layer_1
 62
7
100
AcDbSpline
 70
8
 71
3
 72
8
 73
4
 74
0
 40
0
 40
0
 40
0
 40
0
 40
1
 40
1
 40
1
 40
1
 10
5.978174
 20
0.045642
 30
0.0
 10
5.977536
 20
0.041390
 30
0.0
 10
5.977148
 20
0.038272
 30
0.0
 10
5.977593
 20
0.035437
 30
0.0
  0
SPLINE
  5
154
100
AcDbEntity
  8
Layer_1
 62
7
100
AcDbSpline
 70
8
 71
3
 72
8
 73
4
 74
0
 40
0
 40
0
 40
0
 40
0
 40
1
 40
1
 40
1
 40
1
 10
5.977593
 20
0.035437
 30
0.0
 10
5.979132
 20
0.024666
 30
0.0
 10
5.983262
 20
0.015595
 30
0.0
 10
5.992333
 20
0.010209
 30
0.0
  0
SPLINE
  5
155
100
AcDbEntity
  8
Layer_1
 62
7
100
AcDbSpline
 70
8
 71
3
 72
8
 73
4
 74
0
 40
0
 40
0
 40
0
 40
0
 40
1
 40
1
 40
1
 40
1
 10
5.992333
 20
0.010209
 30
0.0
 10
6.001121
 20
0.005390
 30
0.0
 10
6.013310
 20
0.003122
 30
0.0
 10
6.031905
 20
0.001422
 30
0.0
  0
SPLINE
  5
156
100
AcDbEntity
  8
Layer_1
 62
7
100
AcDbSpline
 70
8
 71
3
 72
8
 73
4
 74
0
 40
0
 40
0
 40
0
 40
0
 40
1
 40
1
 40
1
 40
1
 10
6.031905
 20
0.001422
 30
0.0
 10
6.106314
 20
-0.004815
 30
0.0
 10
6.174006
 20
0.009642
 30
0.0
 10
6.211678
 20
0.041390
 30
0.0
  0
SPLINE
  5
157
100
AcDbEntity
  8
Layer_1
 62
7
100
AcDbSpline
 70
8
 71
3
 72
8
 73
4
 74
0
 40
0
 40
0
 40
0
 40
0
 40
1
 40
1
 40
1
 40
1
 10
6.211678
 20
0.041390
 30
0.0
 10
6.218198
 20
0.046776
 30
0.0
 10
6.226418
 20
0.057831
 30
0.0
 10
6.238040
 20
0.075604
 30
0.0
  0
SPLINE
  5
158
100
AcDbEntity
  8
Layer_1
 62
7
100
AcDbSpline
 70
8
 71
3
 72
8
 73
4
 74
0
 40
0
 40
0
 40
0
 40
0
 40
1
 40
1
 40
1
 40
1
 10
6.238040
 20
0.075604
 30
0.0
 10
6.249662
 20
0.093463
 30
0.0
 10
6.264119
 20
0.117160
 30
0.0
 10
6.281410
 20
0.146499
 30
0.0
  0
SPLINE
  5
159
100
AcDbEntity
  8
Layer_1
 62
7
100
AcDbSpline
 70
8
 71
3
 72
8
 73
4
 74
0
 40
0
 40
0
 40
0
 40
0
 40
1
 40
1
 40
1
 40
1
 10
6.281410
 20
0.146499
 30
0.0
 10
6.315625
 20
0.205148
 30
0.0
 10
6.360299
 20
0.285566
 30
0.0
 10
6.411322
 20
0.381463
 30
0.0
  0
SPLINE
  5
15a
100
AcDbEntity
  8
Layer_1
 62
7
100
AcDbSpline
 70
8
 71
3
 72
8
 73
4
 74
0
 40
0
 40
0
 40
0
 40
0
 40
1
 40
1
 40
1
 40
1
 10
6.411322
 20
0.381463
 30
0.0
 10
6.595801
 20
0.728171
 30
0.0
 10
6.632481
 20
0.808406
 30
0.0
 10
6.648979
 20
0.903000
 30
0.0
  0
SPLINE
  5
15b
100
AcDbEntity
  8
Layer_1
 62
7
100
AcDbSpline
 70
8
 71
3
 72
8
 73
4
 74
0
 40
0
 40
0
 40
0
 40
0
 40
1
 40
1
 40
1
 40
1
 10
6.648979
 20
0.903000
 30
0.0
 10
6.657766
 20
0.952749
 30
0.0
 10
6.665136
 20
0.981180
 30
0.0
 10
6.675908
 20
0.996034
 30
0.0
  0
SPLINE
  5
15c
100
AcDbEntity
  8
Layer_1
 62
7
100
AcDbSpline
 70
8
 71
3
 72
8
 73
4
 74
0
 40
0
 40
0
 40
0
 40
0
 40
1
 40
1
 40
1
 40
1
 10
6.675908
 20
0.996034
 30
0.0
 10
6.681294
 20
1.003404
 30
0.0
 10
6.686963
 20
1.007656
 30
0.0
 10
6.695184
 20
1.009923
 30
0.0
  0
SPLINE
  5
15d
100
AcDbEntity
  8
Layer_1
 62
7
100
AcDbSpline
 70
8
 71
3
 72
8
 73
4
 74
0
 40
0
 40
0
 40
0
 40
0
 40
1
 40
1
 40
1
 40
1
 10
6.695184
 20
1.009923
 30
0.0
 10
6.703121
 20
1.012758
 30
0.0
 10
6.713325
 20
1.014175
 30
0.0
 10
6.726932
 20
1.014175
 30
0.0
  0
SPLINE
  5
15e
100
AcDbEntity
  8
Layer_1
 62
7
100
AcDbSpline
 70
8
 71
3
 72
8
 73
4
 74
0
 40
0
 40
0
 40
0
 40
0
 40
1
 40
1
 40
1
 40
1
 10
6.726932
 20
1.014175
 30
0.0
 10
6.840403
 20
1.014711
 30
0.0
 10
7.028717
 20
1.049637
 30
0.0
 10
7.168615
 20
1.095756
 30
0.0
  0
LWPOLYLINE
  5
15f
100
AcDbEntity
  8
Layer_1
 62
7
100
AcDbPolyline
 90
3
 70
0
 10
5.913799
 20
0.973164
 30
0.0
 10
6.052867
 20
0.979400
 30
0.0
 10
6.071009
 20
0.929538
 30
0.0
  0
SPLINE
  5
160
100
AcDbEntity
  8
Layer_1
 62
7
100
AcDbSpline
 70
8
 71
3
 72
8
 73
4
 74
0
 40
0
 40
0
 40
0
 40
0
 40
1
 40
1
 40
1
 40
1
 10
7.387620
 20
1.086771
 30
0.0
 10
7.528416
 20
0.982937
 30
0.0
 10
7.627346
 20
0.924799
 30
0.0
 10
7.828160
 20
0.827344
 30
0.0
  0
SPLINE
  5
161
100
AcDbEntity
  8
Layer_1
 62
7
100
AcDbSpline
 70
8
 71
3
 72
8
 73
4
 74
0
 40
0
 40
0
 40
0
 40
0
 40
1
 40
1
 40
1
 40
1
 10
7.828160
 20
0.827344
 30
0.0
 10
7.882359
 20
0.800982
 30
0.0
 10
7.936897
 20
0.772663
 30
0.0
 10
7.980976
 20
0.748059
 30
0.0
  0
SPLINE
  5
162
100
AcDbEntity
  8
Layer_1
 62
7
100
AcDbSpline
 70
8
 71
3
 72
8
 73
4
 74
0
 40
0
 40
0
 40
0
 40
0
 40
1
 40
1
 40
1
 40
1
 10
7.980976
 20
0.748059
 30
0.0
 10
8.025083
 20
0.723397
 30
0.0
 10
8.059127
 20
0.702137
 30
0.0
 10
8.070778
 20
0.692074
 30
0.0
  0
SPLINE
  5
163
100
AcDbEntity
  8
Layer_1
 62
7
100
AcDbSpline
 70
8
 71
3
 72
8
 73
4
 74
0
 40
0
 40
0
 40
0
 40
0
 40
1
 40
1
 40
1
 40
1
 10
8.070778
 20
0.692074
 30
0.0
 10
8.122907
 20
0.647032
 30
0.0
 10
8.179968
 20
0.545637
 30
0.0
 10
8.197798
 20
0.465104
 30
0.0
  0
SPLINE
  5
164
100
AcDbEntity
  8
Layer_1
 62
7
100
AcDbSpline
 70
8
 71
3
 72
8
 73
4
 74
0
 40
0
 40
0
 40
0
 40
0
 40
1
 40
1
 40
1
 40
1
 10
8.197798
 20
0.465104
 30
0.0
 10
8.211121
 20
0.404811
 30
0.0
 10
8.227052
 20
0.273482
 30
0.0
 10
8.239637
 20
0.120664
 30
0.0
  0
LWPOLYLINE
  5
165
100
AcDbEntity
  8
Layer_1
 62
7
100
AcDbPolyline
 90
3
 70
0
 10
7.168615
 20
1.095756
 30
0.0
 10
7.311566
 20
1.142953
 30
0.0
 10
7.387620
 20
1.086771
 30
0.0
  0
SPLINE
  5
166
100
AcDbEntity
  8
Layer_1
 62
7
100
AcDbSpline
 70
8
 71
3
 72
8
 73
4
 74
0
 40
0
 40
0
 40
0
 40
0
 40
1
 40
1
 40
1
 40
1
 10
8.516015
 20
0.146601
 30
0.0
 10
8.524236
 20
0.209983
 30
0.0
 10
8.532173
 20
0.358491
 30
0.0
 10
8.533023
 20
0.477852
 30
0.0
  0
SPLINE
  5
167
100
AcDbEntity
  8
Layer_1
 62
7
100
AcDbSpline
 70
8
 71
3
 72
8
 73
4
 74
0
 40
0
 40
0
 40
0
 40
0
 40
1
 40
1
 40
1
 40
1
 10
8.533023
 20
0.477852
 30
0.0
 10
8.535285
 20
0.726479
 30
0.0
 10
8.527354
 20
0.771102
 30
0.0
 10
8.441889
 20
0.993273
 30
0.0
  0
SPLINE
  5
168
100
AcDbEntity
  8
Layer_1
 62
7
100
AcDbSpline
 70
8
 71
3
 72
8
 73
4
 74
0
 40
0
 40
0
 40
0
 40
0
 40
1
 40
1
 40
1
 40
1
 10
8.441889
 20
0.993273
 30
0.0
 10
8.403962
 20
1.092514
 30
0.0
 10
8.385593
 20
1.146797
 30
0.0
 10
8.389137
 20
1.202441
 30
0.0
  0
SPLINE
  5
169
100
AcDbEntity
  8
Layer_1
 62
7
100
AcDbSpline
 70
8
 71
3
 72
8
 73
4
 74
0
 40
0
 40
0
 40
0
 40
0
 40
1
 40
1
 40
1
 40
1
 10
8.389137
 20
1.202441
 30
0.0
 10
8.392538
 20
1.258085
 30
0.0
 10
8.418390
 20
1.316451
 30
0.0
 10
8.469754
 20
1.423685
 30
0.0
  0
SPLINE
  5
16a
100
AcDbEntity
  8
Layer_1
 62
7
100
AcDbSpline
 70
8
 71
3
 72
8
 73
4
 74
0
 40
0
 40
0
 40
0
 40
0
 40
1
 40
1
 40
1
 40
1
 10
8.469754
 20
1.423685
 30
0.0
 10
8.606582
 20
1.709106
 30
0.0
 10
8.647713
 20
1.927560
 30
0.0
 10
8.622201
 20
2.232543
 30
0.0
  0
SPLINE
  5
16b
100
AcDbEntity
  8
Layer_1
 62
7
100
AcDbSpline
 70
8
 71
3
 72
8
 73
4
 74
0
 40
0
 40
0
 40
0
 40
0
 40
1
 40
1
 40
1
 40
1
 10
8.622201
 20
2.232543
 30
0.0
 10
8.614831
 20
2.321721
 30
0.0
 10
8.602926
 20
2.429352
 30
0.0
 10
8.595839
 20
2.472496
 30
0.0
  0
SPLINE
  5
16c
100
AcDbEntity
  8
Layer_1
 62
7
100
AcDbSpline
 70
8
 71
3
 72
8
 73
4
 74
0
 40
0
 40
0
 40
0
 40
0
 40
1
 40
1
 40
1
 40
1
 10
8.595839
 20
2.472496
 30
0.0
 10
8.591587
 20
2.498007
 30
0.0
 10
8.589603
 20
2.517878
 30
0.0
 10
8.589319
 20
2.532307
 30
0.0
  0
SPLINE
  5
16d
100
AcDbEntity
  8
Layer_1
 62
7
100
AcDbSpline
 70
8
 71
3
 72
8
 73
4
 74
0
 40
0
 40
0
 40
0
 40
0
 40
1
 40
1
 40
1
 40
1
 10
8.589319
 20
2.532307
 30
0.0
 10
8.589220
 20
2.539677
 30
0.0
 10
8.589518
 20
2.545629
 30
0.0
 10
8.590272
 20
2.549598
 30
0.0
  0
SPLINE
  5
16e
100
AcDbEntity
  8
Layer_1
 62
7
100
AcDbSpline
 70
8
 71
3
 72
8
 73
4
 74
0
 40
0
 40
0
 40
0
 40
0
 40
1
 40
1
 40
1
 40
1
 10
8.590272
 20
2.549598
 30
0.0
 10
8.591077
 20
2.553850
 30
0.0
 10
8.592321
 20
2.555834
 30
0.0
 10
8.592741
 20
2.556118
 30
0.0
  0
SPLINE
  5
16f
100
AcDbEntity
  8
Layer_1
 62
7
100
AcDbSpline
 70
8
 71
3
 72
8
 73
4
 74
0
 40
0
 40
0
 40
0
 40
0
 40
1
 40
1
 40
1
 40
1
 10
8.592741
 20
2.556118
 30
0.0
 10
8.592744
 20
2.556126
 30
0.0
 10
8.596426
 20
2.558952
 30
0.0
 10
8.602095
 20
2.560937
 30
0.0
  0
SPLINE
  5
170
100
AcDbEntity
  8
Layer_1
 62
7
100
AcDbSpline
 70
8
 71
3
 72
8
 73
4
 74
0
 40
0
 40
0
 40
0
 40
0
 40
1
 40
1
 40
1
 40
1
 10
8.602095
 20
2.560937
 30
0.0
 10
8.607481
 20
2.563400
 30
0.0
 10
8.614851
 20
2.566322
 30
0.0
 10
8.623922
 20
2.569157
 30
0.0
  0
SPLINE
  5
171
100
AcDbEntity
  8
Layer_1
 62
7
100
AcDbSpline
 70
8
 71
3
 72
8
 73
4
 74
0
 40
0
 40
0
 40
0
 40
0
 40
1
 40
1
 40
1
 40
1
 10
8.623922
 20
2.569157
 30
0.0
 10
8.641213
 20
2.575393
 30
0.0
 10
8.664316
 20
2.582480
 30
0.0
 10
8.687730
 20
2.589000
 30
0.0
  0
SPLINE
  5
172
100
AcDbEntity
  8
Layer_1
 62
7
100
AcDbSpline
 70
8
 71
3
 72
8
 73
4
 74
0
 40
0
 40
0
 40
0
 40
0
 40
1
 40
1
 40
1
 40
1
 10
8.687730
 20
2.589000
 30
0.0
 10
8.754797
 20
2.607141
 30
0.0
 10
8.801087
 20
2.631661
 30
0.0
 10
8.830454
 20
2.669050
 30
0.0
  0
SPLINE
  5
173
100
AcDbEntity
  8
Layer_1
 62
7
100
AcDbSpline
 70
8
 71
3
 72
8
 73
4
 74
0
 40
0
 40
0
 40
0
 40
0
 40
1
 40
1
 40
1
 40
1
 10
8.830454
 20
2.669050
 30
0.0
 10
8.859708
 20
2.706552
 30
0.0
 10
8.871670
 20
2.756130
 30
0.0
 10
8.871698
 20
2.823396
 30
0.0
  0
SPLINE
  5
174
100
AcDbEntity
  8
Layer_1
 62
7
100
AcDbSpline
 70
8
 71
3
 72
8
 73
4
 74
0
 40
0
 40
0
 40
0
 40
0
 40
1
 40
1
 40
1
 40
1
 10
8.871698
 20
2.823396
 30
0.0
 10
8.871780
 20
2.892562
 30
0.0
 10
8.855541
 20
2.935308
 30
0.0
 10
8.810952
 20
2.981371
 30
0.0
  0
SPLINE
  5
175
100
AcDbEntity
  8
Layer_1
 62
7
100
AcDbSpline
 70
8
 71
3
 72
8
 73
4
 74
0
 40
0
 40
0
 40
0
 40
0
 40
1
 40
1
 40
1
 40
1
 10
8.810952
 20
2.981371
 30
0.0
 10
8.792527
 20
3.000647
 30
0.0
 10
8.767979
 20
3.018051
 30
0.0
 10
8.746407
 20
3.029503
 30
0.0
  0
SPLINE
  5
176
100
AcDbEntity
  8
Layer_1
 62
7
100
AcDbSpline
 70
8
 71
3
 72
8
 73
4
 74
0
 40
0
 40
0
 40
0
 40
0
 40
1
 40
1
 40
1
 40
1
 10
8.746407
 20
3.029503
 30
0.0
 10
8.735635
 20
3.034889
 30
0.0
 10
8.725714
 20
3.038858
 30
0.0
 10
8.717153
 20
3.041126
 30
0.0
  0
SPLINE
  5
177
100
AcDbEntity
  8
Layer_1
 62
7
100
AcDbSpline
 70
8
 71
3
 72
8
 73
4
 74
0
 40
0
 40
0
 40
0
 40
0
 40
1
 40
1
 40
1
 40
1
 10
8.717153
 20
3.041126
 30
0.0
 10
8.708366
 20
3.043098
 30
0.0
 10
8.700712
 20
3.043594
 30
0.0
 10
8.694760
 20
3.038007
 30
0.0
  0
SPLINE
  5
178
100
AcDbEntity
  8
Layer_1
 62
7
100
AcDbSpline
 70
8
 71
3
 72
8
 73
4
 74
0
 40
0
 40
0
 40
0
 40
0
 40
1
 40
1
 40
1
 40
1
 10
8.694760
 20
3.038007
 30
0.0
 10
8.692860
 20
3.036105
 30
0.0
 10
8.692291
 20
3.033755
 30
0.0
 10
8.692291
 20
3.031771
 30
0.0
  0
SPLINE
  5
179
100
AcDbEntity
  8
Layer_1
 62
7
100
AcDbSpline
 70
8
 71
3
 72
8
 73
4
 74
0
 40
0
 40
0
 40
0
 40
0
 40
1
 40
1
 40
1
 40
1
 10
8.692291
 20
3.031771
 30
0.0
 10
8.692200
 20
3.029943
 30
0.0
 10
8.692486
 20
3.028370
 30
0.0
 10
8.692877
 20
3.026385
 30
0.0
  0
SPLINE
  5
17a
100
AcDbEntity
  8
Layer_1
 62
7
100
AcDbSpline
 70
8
 71
3
 72
8
 73
4
 74
0
 40
0
 40
0
 40
0
 40
0
 40
1
 40
1
 40
1
 40
1
 10
8.692877
 20
3.026385
 30
0.0
 10
8.693756
 20
3.022700
 30
0.0
 10
8.695346
 20
3.018448
 30
0.0
 10
8.697413
 20
3.013629
 30
0.0
  0
SPLINE
  5
17b
100
AcDbEntity
  8
Layer_1
 62
7
100
AcDbSpline
 70
8
 71
3
 72
8
 73
4
 74
0
 40
0
 40
0
 40
0
 40
0
 40
1
 40
1
 40
1
 40
1
 10
8.697413
 20
3.013629
 30
0.0
 10
8.701665
 20
3.004275
 30
0.0
 10
8.708468
 20
2.992086
 30
0.0
 10
8.717255
 20
2.979840
 30
0.0
  0
SPLINE
  5
17c
100
AcDbEntity
  8
Layer_1
 62
7
100
AcDbSpline
 70
8
 71
3
 72
8
 73
4
 74
0
 40
0
 40
0
 40
0
 40
0
 40
1
 40
1
 40
1
 40
1
 10
8.717255
 20
2.979840
 30
0.0
 10
8.741917
 20
2.943982
 30
0.0
 10
8.750648
 20
2.898798
 30
0.0
 10
8.744751
 20
2.859085
 30
0.0
  0
SPLINE
  5
17d
100
AcDbEntity
  8
Layer_1
 62
7
100
AcDbSpline
 70
8
 71
3
 72
8
 73
4
 74
0
 40
0
 40
0
 40
0
 40
0
 40
1
 40
1
 40
1
 40
1
 10
8.744751
 20
2.859085
 30
0.0
 10
8.739082
 20
2.819513
 30
0.0
 10
8.718673
 20
2.785724
 30
0.0
 10
8.687463
 20
2.771409
 30
0.0
  0
SPLINE
  5
17e
100
AcDbEntity
  8
Layer_1
 62
7
100
AcDbSpline
 70
8
 71
3
 72
8
 73
4
 74
0
 40
0
 40
0
 40
0
 40
0
 40
1
 40
1
 40
1
 40
1
 10
8.687463
 20
2.771409
 30
0.0
 10
8.647892
 20
2.753267
 30
0.0
 10
8.575523
 20
2.755251
 30
0.0
 10
8.534648
 20
2.775944
 30
0.0
  0
SPLINE
  5
17f
100
AcDbEntity
  8
Layer_1
 62
7
100
AcDbSpline
 70
8
 71
3
 72
8
 73
4
 74
0
 40
0
 40
0
 40
0
 40
0
 40
1
 40
1
 40
1
 40
1
 10
8.534648
 20
2.775944
 30
0.0
 10
8.465000
 20
2.810981
 30
0.0
 10
8.428802
 20
2.846726
 30
0.0
 10
8.352607
 20
2.954159
 30
0.0
  0
SPLINE
  5
180
100
AcDbEntity
  8
Layer_1
 62
7
100
AcDbSpline
 70
8
 71
3
 72
8
 73
4
 74
0
 40
0
 40
0
 40
0
 40
0
 40
1
 40
1
 40
1
 40
1
 10
8.352607
 20
2.954159
 30
0.0
 10
8.272783
 20
3.066807
 30
0.0
 10
8.128386
 20
3.214974
 30
0.0
 10
8.037017
 20
3.277787
 30
0.0
  0
SPLINE
  5
181
100
AcDbEntity
  8
Layer_1
 62
7
100
AcDbSpline
 70
8
 71
3
 72
8
 73
4
 74
0
 40
0
 40
0
 40
0
 40
0
 40
1
 40
1
 40
1
 40
1
 10
8.037017
 20
3.277787
 30
0.0
 10
7.951212
 20
3.336805
 30
0.0
 10
7.827055
 20
3.395227
 30
0.0
 10
7.731360
 20
3.421646
 30
0.0
  0
SPLINE
  5
182
100
AcDbEntity
  8
Layer_1
 62
7
100
AcDbSpline
 70
8
 71
3
 72
8
 73
4
 74
0
 40
0
 40
0
 40
0
 40
0
 40
1
 40
1
 40
1
 40
1
 10
7.731360
 20
3.421646
 30
0.0
 10
7.686771
 20
3.434118
 30
0.0
 10
7.661656
 20
3.440071
 30
0.0
 10
7.505580
 20
3.443472
 30
0.0
  0
SPLINE
  5
183
100
AcDbEntity
  8
Layer_1
 62
7
100
AcDbSpline
 70
8
 71
3
 72
8
 73
4
 74
0
 40
0
 40
0
 40
0
 40
0
 40
1
 40
1
 40
1
 40
1
 10
7.505580
 20
3.443472
 30
0.0
 10
7.349505
 20
3.446590
 30
0.0
 10
7.061397
 20
3.446874
 30
0.0
 10
6.488300
 20
3.446874
 30
0.0
  0
LWPOLYLINE
  5
184
100
AcDbEntity
  8
Layer_1
 62
7
100
AcDbPolyline
 90
5
 70
0
 10
8.239637
 20
0.120664
 30
0.0
 10
8.247574
 20
0.020771
 30
0.0
 10
8.374425
 20
0.024172
 30
0.0
 10
8.500708
 20
0.027574
 30
0.0
 10
8.516015
 20
0.146601
 30
0.0
  0
SPLINE
  5
185
100
AcDbEntity
  8
Layer_1
 62
7
100
AcDbSpline
 70
8
 71
3
 72
8
 73
4
 74
0
 40
0
 40
0
 40
0
 40
0
 40
1
 40
1
 40
1
 40
1
 10
6.489116
 20
3.437987
 30
0.0
 10
7.062216
 20
3.437840
 30
0.0
 10
7.350398
 20
3.437692
 30
0.0
 10
7.506213
 20
3.434586
 30
0.0
  0
SPLINE
  5
186
100
AcDbEntity
  8
Layer_1
 62
7
100
AcDbSpline
 70
8
 71
3
 72
8
 73
4
 74
0
 40
0
 40
0
 40
0
 40
0
 40
1
 40
1
 40
1
 40
1
 10
7.506213
 20
3.434586
 30
0.0
 10
7.662005
 20
3.431468
 30
0.0
 10
7.684597
 20
3.425515
 30
0.0
 10
7.729157
 20
3.413042
 30
0.0
  0
SPLINE
  5
187
100
AcDbEntity
  8
Layer_1
 62
7
100
AcDbSpline
 70
8
 71
3
 72
8
 73
4
 74
0
 40
0
 40
0
 40
0
 40
0
 40
1
 40
1
 40
1
 40
1
 10
7.729157
 20
3.413042
 30
0.0
 10
7.823126
 20
3.386964
 30
0.0
 10
7.946887
 20
3.328995
 30
0.0
 10
8.031393
 20
3.270885
 30
0.0
  0
SPLINE
  5
188
100
AcDbEntity
  8
Layer_1
 62
7
100
AcDbSpline
 70
8
 71
3
 72
8
 73
4
 74
0
 40
0
 40
0
 40
0
 40
0
 40
1
 40
1
 40
1
 40
1
 10
8.031393
 20
3.270885
 30
0.0
 10
8.120458
 20
3.209685
 30
0.0
 10
8.265336
 20
3.061093
 30
0.0
 10
8.344140
 20
2.949935
 30
0.0
  0
SPLINE
  5
189
100
AcDbEntity
  8
Layer_1
 62
7
100
AcDbSpline
 70
8
 71
3
 72
8
 73
4
 74
0
 40
0
 40
0
 40
0
 40
0
 40
1
 40
1
 40
1
 40
1
 10
8.344140
 20
2.949935
 30
0.0
 10
8.420647
 20
2.841992
 30
0.0
 10
8.459425
 20
2.804149
 30
0.0
 10
8.530404
 20
2.768263
 30
0.0
  0
SPLINE
  5
18a
100
AcDbEntity
  8
Layer_1
 62
7
100
AcDbSpline
 70
8
 71
3
 72
8
 73
4
 74
0
 40
0
 40
0
 40
0
 40
0
 40
1
 40
1
 40
1
 40
1
 10
8.530404
 20
2.768263
 30
0.0
 10
8.575617
 20
2.745585
 30
0.0
 10
8.648524
 20
2.743034
 30
0.0
 10
8.692999
 20
2.763444
 30
0.0
  0
SPLINE
  5
18b
100
AcDbEntity
  8
Layer_1
 62
7
100
AcDbSpline
 70
8
 71
3
 72
8
 73
4
 74
0
 40
0
 40
0
 40
0
 40
0
 40
1
 40
1
 40
1
 40
1
 10
8.692999
 20
2.763444
 30
0.0
 10
8.728858
 20
2.779601
 30
0.0
 10
8.750713
 20
2.817217
 30
0.0
 10
8.757006
 20
2.859737
 30
0.0
  0
SPLINE
  5
18c
100
AcDbEntity
  8
Layer_1
 62
7
100
AcDbSpline
 70
8
 71
3
 72
8
 73
4
 74
0
 40
0
 40
0
 40
0
 40
0
 40
1
 40
1
 40
1
 40
1
 10
8.757006
 20
2.859737
 30
0.0
 10
8.763242
 20
2.902228
 30
0.0
 10
8.754171
 20
2.950332
 30
0.0
 10
8.727752
 20
2.988855
 30
0.0
  0
SPLINE
  5
18d
100
AcDbEntity
  8
Layer_1
 62
7
100
AcDbSpline
 70
8
 71
3
 72
8
 73
4
 74
0
 40
0
 40
0
 40
0
 40
0
 40
1
 40
1
 40
1
 40
1
 10
8.727752
 20
2.988855
 30
0.0
 10
8.719815
 20
3.000477
 30
0.0
 10
8.713012
 20
3.011815
 30
0.0
 10
8.709327
 20
3.020603
 30
0.0
  0
SPLINE
  5
18e
100
AcDbEntity
  8
Layer_1
 62
7
100
AcDbSpline
 70
8
 71
3
 72
8
 73
4
 74
0
 40
0
 40
0
 40
0
 40
0
 40
1
 40
1
 40
1
 40
1
 10
8.709327
 20
3.020603
 30
0.0
 10
8.707351
 20
3.024855
 30
0.0
 10
8.705925
 20
3.028540
 30
0.0
 10
8.705642
 20
3.030807
 30
0.0
  0
SPLINE
  5
18f
100
AcDbEntity
  8
Layer_1
 62
7
100
AcDbSpline
 70
8
 71
3
 72
8
 73
4
 74
0
 40
0
 40
0
 40
0
 40
0
 40
1
 40
1
 40
1
 40
1
 10
8.705642
 20
3.030807
 30
0.0
 10
8.705551
 20
3.031213
 30
0.0
 10
8.705543
 20
3.031247
 30
0.0
 10
8.705449
 20
3.031539
 30
0.0
  0
SPLINE
  5
190
100
AcDbEntity
  8
Layer_1
 62
7
100
AcDbSpline
 70
8
 71
3
 72
8
 73
4
 74
0
 40
0
 40
0
 40
0
 40
0
 40
1
 40
1
 40
1
 40
1
 10
8.705449
 20
3.031539
 30
0.0
 10
8.706546
 20
3.032111
 30
0.0
 10
8.709701
 20
3.033217
 30
0.0
 10
8.715654
 20
3.031734
 30
0.0
  0
SPLINE
  5
191
100
AcDbEntity
  8
Layer_1
 62
7
100
AcDbSpline
 70
8
 71
3
 72
8
 73
4
 74
0
 40
0
 40
0
 40
0
 40
0
 40
1
 40
1
 40
1
 40
1
 10
8.715654
 20
3.031734
 30
0.0
 10
8.722740
 20
3.030121
 30
0.0
 10
8.732095
 20
3.026349
 30
0.0
 10
8.742583
 20
3.020963
 30
0.0
  0
SPLINE
  5
192
100
AcDbEntity
  8
Layer_1
 62
7
100
AcDbSpline
 70
8
 71
3
 72
8
 73
4
 74
0
 40
0
 40
0
 40
0
 40
0
 40
1
 40
1
 40
1
 40
1
 10
8.742583
 20
3.020963
 30
0.0
 10
8.762709
 20
3.010191
 30
0.0
 10
8.786633
 20
2.993467
 30
0.0
 10
8.804293
 20
2.974928
 30
0.0
  0
SPLINE
  5
193
100
AcDbEntity
  8
Layer_1
 62
7
100
AcDbSpline
 70
8
 71
3
 72
8
 73
4
 74
0
 40
0
 40
0
 40
0
 40
0
 40
1
 40
1
 40
1
 40
1
 10
8.804293
 20
2.974928
 30
0.0
 10
8.847351
 20
2.930282
 30
0.0
 10
8.862063
 20
2.892411
 30
0.0
 10
8.862007
 20
2.824975
 30
0.0
  0
SPLINE
  5
194
100
AcDbEntity
  8
Layer_1
 62
7
100
AcDbSpline
 70
8
 71
3
 72
8
 73
4
 74
0
 40
0
 40
0
 40
0
 40
0
 40
1
 40
1
 40
1
 40
1
 10
8.862007
 20
2.824975
 30
0.0
 10
8.861907
 20
2.758985
 30
0.0
 10
8.850385
 20
2.712411
 30
0.0
 10
8.822860
 20
2.677659
 30
0.0
  0
SPLINE
  5
195
100
AcDbEntity
  8
Layer_1
 62
7
100
AcDbSpline
 70
8
 71
3
 72
8
 73
4
 74
0
 40
0
 40
0
 40
0
 40
0
 40
1
 40
1
 40
1
 40
1
 10
8.822860
 20
2.677659
 30
0.0
 10
8.795648
 20
2.643048
 30
0.0
 10
8.751937
 20
2.619492
 30
0.0
 10
8.686117
 20
2.601605
 30
0.0
  0
SPLINE
  5
196
100
AcDbEntity
  8
Layer_1
 62
7
100
AcDbSpline
 70
8
 71
3
 72
8
 73
4
 74
0
 40
0
 40
0
 40
0
 40
0
 40
1
 40
1
 40
1
 40
1
 10
8.686117
 20
2.601605
 30
0.0
 10
8.662306
 20
2.595086
 30
0.0
 10
8.639430
 20
2.587999
 30
0.0
 10
8.621515
 20
2.581763
 30
0.0
  0
SPLINE
  5
197
100
AcDbEntity
  8
Layer_1
 62
7
100
AcDbSpline
 70
8
 71
3
 72
8
 73
4
 74
0
 40
0
 40
0
 40
0
 40
0
 40
1
 40
1
 40
1
 40
1
 10
8.621515
 20
2.581763
 30
0.0
 10
8.612728
 20
2.578645
 30
0.0
 10
8.605074
 20
2.575526
 30
0.0
 10
8.598838
 20
2.572975
 30
0.0
  0
SPLINE
  5
198
100
AcDbEntity
  8
Layer_1
 62
7
100
AcDbSpline
 70
8
 71
3
 72
8
 73
4
 74
0
 40
0
 40
0
 40
0
 40
0
 40
1
 40
1
 40
1
 40
1
 10
8.598838
 20
2.572975
 30
0.0
 10
8.593169
 20
2.570506
 30
0.0
 10
8.588917
 20
2.568723
 30
0.0
 10
8.586082
 20
2.565605
 30
0.0
  0
SPLINE
  5
199
100
AcDbEntity
  8
Layer_1
 62
7
100
AcDbSpline
 70
8
 71
3
 72
8
 73
4
 74
0
 40
0
 40
0
 40
0
 40
0
 40
1
 40
1
 40
1
 40
1
 10
8.586082
 20
2.565605
 30
0.0
 10
8.582681
 20
2.562204
 30
0.0
 10
8.581547
 20
2.558235
 30
0.0
 10
8.580696
 20
2.552849
 30
0.0
  0
SPLINE
  5
19a
100
AcDbEntity
  8
Layer_1
 62
7
100
AcDbSpline
 70
8
 71
3
 72
8
 73
4
 74
0
 40
0
 40
0
 40
0
 40
0
 40
1
 40
1
 40
1
 40
1
 10
8.580696
 20
2.552849
 30
0.0
 10
8.579744
 20
2.547463
 30
0.0
 10
8.579381
 20
2.541227
 30
0.0
 10
8.579526
 20
2.533574
 30
0.0
  0
SPLINE
  5
19b
100
AcDbEntity
  8
Layer_1
 62
7
100
AcDbSpline
 70
8
 71
3
 72
8
 73
4
 74
0
 40
0
 40
0
 40
0
 40
0
 40
1
 40
1
 40
1
 40
1
 10
8.579526
 20
2.533574
 30
0.0
 10
8.579818
 20
2.518267
 30
0.0
 10
8.581995
 20
2.497715
 30
0.0
 10
8.586045
 20
2.472034
 30
0.0
  0
SPLINE
  5
19c
100
AcDbEntity
  8
Layer_1
 62
7
100
AcDbSpline
 70
8
 71
3
 72
8
 73
4
 74
0
 40
0
 40
0
 40
0
 40
0
 40
1
 40
1
 40
1
 40
1
 10
8.586045
 20
2.472034
 30
0.0
 10
8.592565
 20
2.429911
 30
0.0
 10
8.605037
 20
2.321967
 30
0.0
 10
8.612408
 20
2.233073
 30
0.0
  0
SPLINE
  5
19d
100
AcDbEntity
  8
Layer_1
 62
7
100
AcDbSpline
 70
8
 71
3
 72
8
 73
4
 74
0
 40
0
 40
0
 40
0
 40
0
 40
1
 40
1
 40
1
 40
1
 10
8.612408
 20
2.233073
 30
0.0
 10
8.637919
 20
1.929559
 30
0.0
 10
8.597100
 20
1.714307
 30
0.0
 10
8.460896
 20
1.430134
 30
0.0
  0
SPLINE
  5
19e
100
AcDbEntity
  8
Layer_1
 62
7
100
AcDbSpline
 70
8
 71
3
 72
8
 73
4
 74
0
 40
0
 40
0
 40
0
 40
0
 40
1
 40
1
 40
1
 40
1
 10
8.460896
 20
1.430134
 30
0.0
 10
8.409447
 20
1.322814
 30
0.0
 10
8.382858
 20
1.263088
 30
0.0
 10
8.379116
 20
1.204525
 30
0.0
  0
SPLINE
  5
19f
100
AcDbEntity
  8
Layer_1
 62
7
100
AcDbSpline
 70
8
 71
3
 72
8
 73
4
 74
0
 40
0
 40
0
 40
0
 40
0
 40
1
 40
1
 40
1
 40
1
 10
8.379116
 20
1.204525
 30
0.0
 10
8.375431
 20
1.145961
 30
0.0
 10
8.394423
 20
1.089977
 30
0.0
 10
8.432606
 20
0.990566
 30
0.0
  0
SPLINE
  5
1a0
100
AcDbEntity
  8
Layer_1
 62
7
100
AcDbSpline
 70
8
 71
3
 72
8
 73
4
 74
0
 40
0
 40
0
 40
0
 40
0
 40
1
 40
1
 40
1
 40
1
 10
8.432606
 20
0.990566
 30
0.0
 10
8.517844
 20
0.768613
 30
0.0
 10
8.525186
 20
0.727907
 30
0.0
 10
8.523003
 20
0.479533
 30
0.0
  0
SPLINE
  5
1a1
100
AcDbEntity
  8
Layer_1
 62
7
100
AcDbSpline
 70
8
 71
3
 72
8
 73
4
 74
0
 40
0
 40
0
 40
0
 40
0
 40
1
 40
1
 40
1
 40
1
 10
8.523003
 20
0.479533
 30
0.0
 10
8.521974
 20
0.360534
 30
0.0
 10
8.514215
 20
0.211432
 30
0.0
 10
8.506562
 20
0.149435
 30
0.0
  0
LWPOLYLINE
  5
1a2
100
AcDbEntity
  8
Layer_1
 62
7
100
AcDbPolyline
 90
2
 70
0
 10
6.488300
 20
3.446874
 30
0.0
 10
6.489116
 20
3.449042
 30
0.0
  0
SPLINE
  5
1a3
100
AcDbEntity
  8
Layer_1
 62
7
100
AcDbSpline
 70
8
 71
3
 72
8
 73
4
 74
0
 40
0
 40
0
 40
0
 40
0
 40
1
 40
1
 40
1
 40
1
 10
8.252861
 20
0.122988
 30
0.0
 10
8.240389
 20
0.276059
 30
0.0
 10
8.224430
 20
0.407130
 30
0.0
 10
8.210852
 20
0.468954
 30
0.0
  0
SPLINE
  5
1a4
100
AcDbEntity
  8
Layer_1
 62
7
100
AcDbSpline
 70
8
 71
3
 72
8
 73
4
 74
0
 40
0
 40
0
 40
0
 40
0
 40
1
 40
1
 40
1
 40
1
 10
8.210852
 20
0.468954
 30
0.0
 10
8.192426
 20
0.552463
 30
0.0
 10
8.135507
 20
0.654396
 30
0.0
 10
8.080203
 20
0.702189
 30
0.0
  0
SPLINE
  5
1a5
100
AcDbEntity
  8
Layer_1
 62
7
100
AcDbSpline
 70
8
 71
3
 72
8
 73
4
 74
0
 40
0
 40
0
 40
0
 40
0
 40
1
 40
1
 40
1
 40
1
 10
8.080203
 20
0.702189
 30
0.0
 10
8.066313
 20
0.714094
 30
0.0
 10
8.032836
 20
0.734759
 30
0.0
 10
7.988530
 20
0.759307
 30
0.0
  0
SPLINE
  5
1a6
100
AcDbEntity
  8
Layer_1
 62
7
100
AcDbSpline
 70
8
 71
3
 72
8
 73
4
 74
0
 40
0
 40
0
 40
0
 40
0
 40
1
 40
1
 40
1
 40
1
 10
7.988530
 20
0.759307
 30
0.0
 10
7.944225
 20
0.783968
 30
0.0
 10
7.889516
 20
0.812570
 30
0.0
 10
7.835119
 20
0.838989
 30
0.0
  0
SPLINE
  5
1a7
100
AcDbEntity
  8
Layer_1
 62
7
100
AcDbSpline
 70
8
 71
3
 72
8
 73
4
 74
0
 40
0
 40
0
 40
0
 40
0
 40
1
 40
1
 40
1
 40
1
 10
7.835119
 20
0.838989
 30
0.0
 10
7.634568
 20
0.936302
 30
0.0
 10
7.536677
 20
0.993703
 30
0.0
 10
7.396308
 20
1.097281
 30
0.0
  0
LWPOLYLINE
  5
1a8
100
AcDbEntity
  8
Layer_1
 62
7
100
AcDbPolyline
 90
5
 70
0
 10
8.506562
 20
0.149435
 30
0.0
 10
8.492672
 20
0.040330
 30
0.0
 10
8.376168
 20
0.036928
 30
0.0
 10
8.260231
 20
0.033810
 30
0.0
 10
8.252861
 20
0.122988
 30
0.0
  0
SPLINE
  5
1a9
100
AcDbEntity
  8
Layer_1
 62
7
100
AcDbSpline
 70
8
 71
3
 72
8
 73
4
 74
0
 40
0
 40
0
 40
0
 40
0
 40
1
 40
1
 40
1
 40
1
 10
7.167070
 20
1.107798
 30
0.0
 10
7.028456
 20
1.062047
 30
0.0
 10
6.840230
 20
1.027351
 30
0.0
 10
6.729021
 20
1.026755
 30
0.0
  0
SPLINE
  5
1aa
100
AcDbEntity
  8
Layer_1
 62
7
100
AcDbSpline
 70
8
 71
3
 72
8
 73
4
 74
0
 40
0
 40
0
 40
0
 40
0
 40
1
 40
1
 40
1
 40
1
 10
6.729021
 20
1.026755
 30
0.0
 10
6.715131
 20
1.026682
 30
0.0
 10
6.703509
 20
1.025806
 30
0.0
 10
6.693559
 20
1.022503
 30
0.0
  0
SPLINE
  5
1ab
100
AcDbEntity
  8
Layer_1
 62
7
100
AcDbSpline
 70
8
 71
3
 72
8
 73
4
 74
0
 40
0
 40
0
 40
0
 40
0
 40
1
 40
1
 40
1
 40
1
 10
6.693559
 20
1.022503
 30
0.0
 10
6.683638
 20
1.019102
 30
0.0
 10
6.675418
 20
1.013149
 30
0.0
 10
6.668898
 20
1.004078
 30
0.0
  0
SPLINE
  5
1ac
100
AcDbEntity
  8
Layer_1
 62
7
100
AcDbSpline
 70
8
 71
3
 72
8
 73
4
 74
0
 40
0
 40
0
 40
0
 40
0
 40
1
 40
1
 40
1
 40
1
 10
6.668898
 20
1.004078
 30
0.0
 10
6.655575
 20
0.985937
 30
0.0
 10
6.649055
 20
0.956513
 30
0.0
 10
6.640041
 20
0.906425
 30
0.0
  0
SPLINE
  5
1ad
100
AcDbEntity
  8
Layer_1
 62
7
100
AcDbSpline
 70
8
 71
3
 72
8
 73
4
 74
0
 40
0
 40
0
 40
0
 40
0
 40
1
 40
1
 40
1
 40
1
 10
6.640041
 20
0.906425
 30
0.0
 10
6.623884
 20
0.813562
 30
0.0
 10
6.588111
 20
0.734957
 30
0.0
 10
6.403717
 20
0.388331
 30
0.0
  0
SPLINE
  5
1ae
100
AcDbEntity
  8
Layer_1
 62
7
100
AcDbSpline
 70
8
 71
3
 72
8
 73
4
 74
0
 40
0
 40
0
 40
0
 40
0
 40
1
 40
1
 40
1
 40
1
 10
6.403717
 20
0.388331
 30
0.0
 10
6.352778
 20
0.292548
 30
0.0
 10
6.308246
 20
0.212186
 30
0.0
 10
6.273975
 20
0.153736
 30
0.0
  0
SPLINE
  5
1af
100
AcDbEntity
  8
Layer_1
 62
7
100
AcDbSpline
 70
8
 71
3
 72
8
 73
4
 74
0
 40
0
 40
0
 40
0
 40
0
 40
1
 40
1
 40
1
 40
1
 10
6.273975
 20
0.153736
 30
0.0
 10
6.256684
 20
0.124482
 30
0.0
 10
6.242227
 20
0.100869
 30
0.0
 10
6.230775
 20
0.083408
 30
0.0
  0
SPLINE
  5
1b0
100
AcDbEntity
  8
Layer_1
 62
7
100
AcDbSpline
 70
8
 71
3
 72
8
 73
4
 74
0
 40
0
 40
0
 40
0
 40
0
 40
1
 40
1
 40
1
 40
1
 10
6.230775
 20
0.083408
 30
0.0
 10
6.219720
 20
0.066117
 30
0.0
 10
6.210082
 20
0.054551
 30
0.0
 10
6.206397
 20
0.051263
 30
0.0
  0
SPLINE
  5
1b1
100
AcDbEntity
  8
Layer_1
 62
7
100
AcDbSpline
 70
8
 71
3
 72
8
 73
4
 74
0
 40
0
 40
0
 40
0
 40
0
 40
1
 40
1
 40
1
 40
1
 10
6.206397
 20
0.051263
 30
0.0
 10
6.172608
 20
0.022832
 30
0.0
 10
6.107185
 20
0.007950
 30
0.0
 10
6.034844
 20
0.013761
 30
0.0
  0
SPLINE
  5
1b2
100
AcDbEntity
  8
Layer_1
 62
7
100
AcDbSpline
 70
8
 71
3
 72
8
 73
4
 74
0
 40
0
 40
0
 40
0
 40
0
 40
1
 40
1
 40
1
 40
1
 10
6.034844
 20
0.013761
 30
0.0
 10
6.016703
 20
0.015223
 30
0.0
 10
6.005591
 20
0.017446
 30
0.0
 10
5.999808
 20
0.021131
 30
0.0
  0
SPLINE
  5
1b3
100
AcDbEntity
  8
Layer_1
 62
7
100
AcDbSpline
 70
8
 71
3
 72
8
 73
4
 74
0
 40
0
 40
0
 40
0
 40
0
 40
1
 40
1
 40
1
 40
1
 10
5.999808
 20
0.021131
 30
0.0
 10
5.994139
 20
0.024532
 30
0.0
 10
5.991871
 20
0.028501
 30
0.0
 10
5.990737
 20
0.037572
 30
0.0
  0
SPLINE
  5
1b4
100
AcDbEntity
  8
Layer_1
 62
7
100
AcDbSpline
 70
8
 71
3
 72
8
 73
4
 74
0
 40
0
 40
0
 40
0
 40
0
 40
1
 40
1
 40
1
 40
1
 10
5.990737
 20
0.037572
 30
0.0
 10
5.990681
 20
0.037960
 30
0.0
 10
5.990734
 20
0.040973
 30
0.0
 10
5.991310
 20
0.044942
 30
0.0
  0
SPLINE
  5
1b5
100
AcDbEntity
  8
Layer_1
 62
7
100
AcDbSpline
 70
8
 71
3
 72
8
 73
4
 74
0
 40
0
 40
0
 40
0
 40
0
 40
1
 40
1
 40
1
 40
1
 10
5.991310
 20
0.044942
 30
0.0
 10
5.991888
 20
0.048627
 30
0.0
 10
5.992994
 20
0.053729
 30
0.0
 10
5.994428
 20
0.060249
 30
0.0
  0
SPLINE
  5
1b6
100
AcDbEntity
  8
Layer_1
 62
7
100
AcDbSpline
 70
8
 71
3
 72
8
 73
4
 74
0
 40
0
 40
0
 40
0
 40
0
 40
1
 40
1
 40
1
 40
1
 10
5.994428
 20
0.060249
 30
0.0
 10
5.997263
 20
0.072154
 30
0.0
 10
6.000948
 20
0.089106
 30
0.0
 10
6.006334
 20
0.108013
 30
0.0
  0
SPLINE
  5
1b7
100
AcDbEntity
  8
Layer_1
 62
7
100
AcDbSpline
 70
8
 71
3
 72
8
 73
4
 74
0
 40
0
 40
0
 40
0
 40
0
 40
1
 40
1
 40
1
 40
1
 10
6.006334
 20
0.108013
 30
0.0
 10
6.017105
 20
0.145940
 30
0.0
 10
6.032412
 20
0.195320
 30
0.0
 10
6.049534
 20
0.246343
 30
0.0
  0
SPLINE
  5
1b8
100
AcDbEntity
  8
Layer_1
 62
7
100
AcDbSpline
 70
8
 71
3
 72
8
 73
4
 74
0
 40
0
 40
0
 40
0
 40
0
 40
1
 40
1
 40
1
 40
1
 10
6.049534
 20
0.246343
 30
0.0
 10
6.116091
 20
0.443153
 30
0.0
 10
6.136614
 20
0.538442
 30
0.0
 10
6.136444
 20
0.650589
 30
0.0
  0
SPLINE
  5
1b9
100
AcDbEntity
  8
Layer_1
 62
7
100
AcDbSpline
 70
8
 71
3
 72
8
 73
4
 74
0
 40
0
 40
0
 40
0
 40
0
 40
1
 40
1
 40
1
 40
1
 10
6.136444
 20
0.650589
 30
0.0
 10
6.136345
 20
0.727295
 30
0.0
 10
6.112916
 20
0.850602
 30
0.0
 10
6.083152
 20
0.934278
 30
0.0
  0
LWPOLYLINE
  5
1ba
100
AcDbEntity
  8
Layer_1
 62
7
100
AcDbPolyline
 90
3
 70
0
 10
7.396308
 20
1.097281
 30
0.0
 10
7.315690
 20
1.156894
 30
0.0
 10
7.167070
 20
1.107798
 30
0.0
  0
SPLINE
  5
1bb
100
AcDbEntity
  8
Layer_1
 62
7
100
AcDbSpline
 70
8
 71
3
 72
8
 73
4
 74
0
 40
0
 40
0
 40
0
 40
0
 40
1
 40
1
 40
1
 40
1
 10
5.914774
 20
0.985472
 30
0.0
 10
5.836056
 20
0.982070
 30
0.0
 10
5.650954
 20
0.976117
 30
0.0
 10
5.503646
 20
0.971865
 30
0.0
  0
LWPOLYLINE
  5
1bc
100
AcDbEntity
  8
Layer_1
 62
7
100
AcDbPolyline
 90
3
 70
0
 10
6.083152
 20
0.934278
 30
0.0
 10
6.062460
 20
0.991991
 30
0.0
 10
5.914774
 20
0.985472
 30
0.0
  0
SPLINE
  5
1bd
100
AcDbEntity
  8
Layer_1
 62
7
100
AcDbSpline
 70
8
 71
3
 72
8
 73
4
 74
0
 40
0
 40
0
 40
0
 40
0
 40
1
 40
1
 40
1
 40
1
 10
5.223101
 20
0.907207
 30
0.0
 10
5.213180
 20
0.837305
 30
0.0
 10
5.159747
 20
0.717824
 30
0.0
 10
5.016994
 20
0.448519
 30
0.0
  0
SPLINE
  5
1be
100
AcDbEntity
  8
Layer_1
 62
7
100
AcDbSpline
 70
8
 71
3
 72
8
 73
4
 74
0
 40
0
 40
0
 40
0
 40
0
 40
1
 40
1
 40
1
 40
1
 10
5.016994
 20
0.448519
 30
0.0
 10
4.840084
 20
0.114875
 30
0.0
 10
4.805898
 20
0.057959
 30
0.0
 10
4.775709
 20
0.038173
 30
0.0
  0
SPLINE
  5
1bf
100
AcDbEntity
  8
Layer_1
 62
7
100
AcDbSpline
 70
8
 71
3
 72
8
 73
4
 74
0
 40
0
 40
0
 40
0
 40
0
 40
1
 40
1
 40
1
 40
1
 10
4.775709
 20
0.038173
 30
0.0
 10
4.767489
 20
0.032787
 30
0.0
 10
4.749347
 20
0.027118
 30
0.0
 10
4.728342
 20
0.022866
 30
0.0
  0
SPLINE
  5
1c0
100
AcDbEntity
  8
Layer_1
 62
7
100
AcDbSpline
 70
8
 71
3
 72
8
 73
4
 74
0
 40
0
 40
0
 40
0
 40
0
 40
1
 40
1
 40
1
 40
1
 10
4.728342
 20
0.022866
 30
0.0
 10
4.706799
 20
0.018614
 30
0.0
 10
4.682194
 20
0.015496
 30
0.0
 10
4.658610
 20
0.014078
 30
0.0
  0
SPLINE
  5
1c1
100
AcDbEntity
  8
Layer_1
 62
7
100
AcDbSpline
 70
8
 71
3
 72
8
 73
4
 74
0
 40
0
 40
0
 40
0
 40
0
 40
1
 40
1
 40
1
 40
1
 10
4.658610
 20
0.014078
 30
0.0
 10
4.635082
 20
0.012542
 30
0.0
 10
4.612575
 20
0.012542
 30
0.0
 10
4.596333
 20
0.014271
 30
0.0
  0
SPLINE
  5
1c2
100
AcDbEntity
  8
Layer_1
 62
7
100
AcDbSpline
 70
8
 71
3
 72
8
 73
4
 74
0
 40
0
 40
0
 40
0
 40
0
 40
1
 40
1
 40
1
 40
1
 10
4.596333
 20
0.014271
 30
0.0
 10
4.588396
 20
0.015150
 30
0.0
 10
4.581876
 20
0.016536
 30
0.0
 10
4.577907
 20
0.017956
 30
0.0
  0
SPLINE
  5
1c3
100
AcDbEntity
  8
Layer_1
 62
7
100
AcDbSpline
 70
8
 71
3
 72
8
 73
4
 74
0
 40
0
 40
0
 40
0
 40
0
 40
1
 40
1
 40
1
 40
1
 10
4.577907
 20
0.017956
 30
0.0
 10
4.575858
 20
0.018758
 30
0.0
 10
4.574506
 20
0.019563
 30
0.0
 10
4.573655
 20
0.020011
 30
0.0
  0
SPLINE
  5
1c4
100
AcDbEntity
  8
Layer_1
 62
7
100
AcDbSpline
 70
8
 71
3
 72
8
 73
4
 74
0
 40
0
 40
0
 40
0
 40
0
 40
1
 40
1
 40
1
 40
1
 10
4.573655
 20
0.020011
 30
0.0
 10
4.573066
 20
0.020527
 30
0.0
 10
4.573256
 20
0.020490
 30
0.0
 10
4.573273
 20
0.020207
 30
0.0
  0
SPLINE
  5
1c5
100
AcDbEntity
  8
Layer_1
 62
7
100
AcDbSpline
 70
8
 71
3
 72
8
 73
4
 74
0
 40
0
 40
0
 40
0
 40
0
 40
1
 40
1
 40
1
 40
1
 10
4.573273
 20
0.020207
 30
0.0
 10
4.571739
 20
0.039482
 30
0.0
 10
4.573511
 20
0.058531
 30
0.0
 10
4.582627
 20
0.094673
 30
0.0
  0
SPLINE
  5
1c6
100
AcDbEntity
  8
Layer_1
 62
7
100
AcDbSpline
 70
8
 71
3
 72
8
 73
4
 74
0
 40
0
 40
0
 40
0
 40
0
 40
1
 40
1
 40
1
 40
1
 10
4.582627
 20
0.094673
 30
0.0
 10
4.591981
 20
0.130956
 30
0.0
 10
4.608706
 20
0.183454
 30
0.0
 10
4.637648
 20
0.268890
 30
0.0
  0
SPLINE
  5
1c7
100
AcDbEntity
  8
Layer_1
 62
7
100
AcDbSpline
 70
8
 71
3
 72
8
 73
4
 74
0
 40
0
 40
0
 40
0
 40
0
 40
1
 40
1
 40
1
 40
1
 10
4.637648
 20
0.268890
 30
0.0
 10
4.677219
 20
0.386443
 30
0.0
 10
4.703581
 20
0.485882
 30
0.0
 10
4.710441
 20
0.546289
 30
0.0
  0
SPLINE
  5
1c8
100
AcDbEntity
  8
Layer_1
 62
7
100
AcDbSpline
 70
8
 71
3
 72
8
 73
4
 74
0
 40
0
 40
0
 40
0
 40
0
 40
1
 40
1
 40
1
 40
1
 10
4.710441
 20
0.546289
 30
0.0
 10
4.722914
 20
0.656386
 30
0.0
 10
4.709993
 20
0.794944
 30
0.0
 10
4.678693
 20
0.886897
 30
0.0
  0
LWPOLYLINE
  5
1c9
100
AcDbEntity
  8
Layer_1
 62
7
100
AcDbPolyline
 90
3
 70
0
 10
5.503646
 20
0.971865
 30
0.0
 10
5.231038
 20
0.964495
 30
0.0
 10
5.223101
 20
0.907207
 30
0.0
  0
SPLINE
  5
1ca
100
AcDbEntity
  8
Layer_1
 62
7
100
AcDbSpline
 70
8
 71
3
 72
8
 73
4
 74
0
 40
0
 40
0
 40
0
 40
0
 40
1
 40
1
 40
1
 40
1
 10
4.519046
 20
0.953171
 30
0.0
 10
4.445884
 20
0.953072
 30
0.0
 10
4.269285
 20
0.951708
 30
0.0
 10
4.126465
 20
0.950336
 30
0.0
  0
LWPOLYLINE
  5
1cb
100
AcDbEntity
  8
Layer_1
 62
7
100
AcDbPolyline
 90
3
 70
0
 10
4.678693
 20
0.886897
 30
0.0
 10
4.656016
 20
0.953369
 30
0.0
 10
4.519046
 20
0.953171
 30
0.0
  0
SPLINE
  5
1cc
100
AcDbEntity
  8
Layer_1
 62
7
100
AcDbSpline
 70
8
 71
3
 72
8
 73
4
 74
0
 40
0
 40
0
 40
0
 40
0
 40
1
 40
1
 40
1
 40
1
 10
3.846969
 20
0.883892
 30
0.0
 10
3.841583
 20
0.860081
 30
0.0
 10
3.815220
 20
0.799108
 30
0.0
 10
3.779135
 20
0.721920
 30
0.0
  0
SPLINE
  5
1cd
100
AcDbEntity
  8
Layer_1
 62
7
100
AcDbSpline
 70
8
 71
3
 72
8
 73
4
 74
0
 40
0
 40
0
 40
0
 40
0
 40
1
 40
1
 40
1
 40
1
 10
3.779135
 20
0.721920
 30
0.0
 10
3.742852
 20
0.644733
 30
0.0
 10
3.696194
 20
0.550453
 30
0.0
 10
3.648487
 20
0.457731
 30
0.0
  0
SPLINE
  5
1ce
100
AcDbEntity
  8
Layer_1
 62
7
100
AcDbSpline
 70
8
 71
3
 72
8
 73
4
 74
0
 40
0
 40
0
 40
0
 40
0
 40
1
 40
1
 40
1
 40
1
 10
3.648487
 20
0.457731
 30
0.0
 10
3.600723
 20
0.364954
 30
0.0
 10
3.552052
 20
0.273621
 30
0.0
 10
3.511517
 20
0.201735
 30
0.0
  0
SPLINE
  5
1cf
100
AcDbEntity
  8
Layer_1
 62
7
100
AcDbSpline
 70
8
 71
3
 72
8
 73
4
 74
0
 40
0
 40
0
 40
0
 40
0
 40
1
 40
1
 40
1
 40
1
 10
3.511517
 20
0.201735
 30
0.0
 10
3.491391
 20
0.165876
 30
0.0
 10
3.472767
 20
0.134809
 30
0.0
 10
3.458027
 20
0.110969
 30
0.0
  0
SPLINE
  5
1d0
100
AcDbEntity
  8
Layer_1
 62
7
100
AcDbSpline
 70
8
 71
3
 72
8
 73
4
 74
0
 40
0
 40
0
 40
0
 40
0
 40
1
 40
1
 40
1
 40
1
 10
3.458027
 20
0.110969
 30
0.0
 10
3.443287
 20
0.087158
 30
0.0
 10
3.431098
 20
0.070150
 30
0.0
 10
3.424635
 20
0.063772
 30
0.0
  0
SPLINE
  5
1d1
100
AcDbEntity
  8
Layer_1
 62
7
100
AcDbSpline
 70
8
 71
3
 72
8
 73
4
 74
0
 40
0
 40
0
 40
0
 40
0
 40
1
 40
1
 40
1
 40
1
 10
3.424635
 20
0.063772
 30
0.0
 10
3.411312
 20
0.050450
 30
0.0
 10
3.401107
 20
0.042229
 30
0.0
 10
3.385063
 20
0.036843
 30
0.0
  0
SPLINE
  5
1d2
100
AcDbEntity
  8
Layer_1
 62
7
100
AcDbSpline
 70
8
 71
3
 72
8
 73
4
 74
0
 40
0
 40
0
 40
0
 40
0
 40
1
 40
1
 40
1
 40
1
 10
3.385063
 20
0.036843
 30
0.0
 10
3.368906
 20
0.031174
 30
0.0
 10
3.347135
 20
0.027489
 30
0.0
 10
3.312099
 20
0.023520
 30
0.0
  0
SPLINE
  5
1d3
100
AcDbEntity
  8
Layer_1
 62
7
100
AcDbSpline
 70
8
 71
3
 72
8
 73
4
 74
0
 40
0
 40
0
 40
0
 40
0
 40
1
 40
1
 40
1
 40
1
 10
3.312099
 20
0.023520
 30
0.0
 10
3.287438
 20
0.020686
 30
0.0
 10
3.264732
 20
0.019835
 30
0.0
 10
3.246761
 20
0.020119
 30
0.0
  0
SPLINE
  5
1d4
100
AcDbEntity
  8
Layer_1
 62
7
100
AcDbSpline
 70
8
 71
3
 72
8
 73
4
 74
0
 40
0
 40
0
 40
0
 40
0
 40
1
 40
1
 40
1
 40
1
 10
3.246761
 20
0.020119
 30
0.0
 10
3.228619
 20
0.020357
 30
0.0
 10
3.215041
 20
0.022582
 30
0.0
 10
3.211724
 20
0.024371
 30
0.0
  0
SPLINE
  5
1d5
100
AcDbEntity
  8
Layer_1
 62
7
100
AcDbSpline
 70
8
 71
3
 72
8
 73
4
 74
0
 40
0
 40
0
 40
0
 40
0
 40
1
 40
1
 40
1
 40
1
 10
3.211724
 20
0.024371
 30
0.0
 10
3.206339
 20
0.027489
 30
0.0
 10
3.202937
 20
0.029757
 30
0.0
 10
3.201520
 20
0.035993
 30
0.0
  0
SPLINE
  5
1d6
100
AcDbEntity
  8
Layer_1
 62
7
100
AcDbSpline
 70
8
 71
3
 72
8
 73
4
 74
0
 40
0
 40
0
 40
0
 40
0
 40
1
 40
1
 40
1
 40
1
 10
3.201520
 20
0.035993
 30
0.0
 10
3.199912
 20
0.042229
 30
0.0
 10
3.200131
 20
0.052434
 30
0.0
 10
3.203422
 20
0.068960
 30
0.0
  0
SPLINE
  5
1d7
100
AcDbEntity
  8
Layer_1
 62
7
100
AcDbSpline
 70
8
 71
3
 72
8
 73
4
 74
0
 40
0
 40
0
 40
0
 40
0
 40
1
 40
1
 40
1
 40
1
 10
3.203422
 20
0.068960
 30
0.0
 10
3.209941
 20
0.101927
 30
0.0
 10
3.228650
 20
0.159555
 30
0.0
 10
3.263233
 20
0.261347
 30
0.0
  0
SPLINE
  5
1d8
100
AcDbEntity
  8
Layer_1
 62
7
100
AcDbSpline
 70
8
 71
3
 72
8
 73
4
 74
0
 40
0
 40
0
 40
0
 40
0
 40
1
 40
1
 40
1
 40
1
 10
3.263233
 20
0.261347
 30
0.0
 10
3.293308
 20
0.349335
 30
0.0
 10
3.323866
 20
0.452828
 30
0.0
 10
3.331604
 20
0.492909
 30
0.0
  0
SPLINE
  5
1d9
100
AcDbEntity
  8
Layer_1
 62
7
100
AcDbSpline
 70
8
 71
3
 72
8
 73
4
 74
0
 40
0
 40
0
 40
0
 40
0
 40
1
 40
1
 40
1
 40
1
 10
3.331604
 20
0.492909
 30
0.0
 10
3.350880
 20
0.592972
 30
0.0
 10
3.340959
 20
0.803349
 30
0.0
 10
3.312612
 20
0.886645
 30
0.0
  0
LWPOLYLINE
  5
1da
100
AcDbEntity
  8
Layer_1
 62
7
100
AcDbPolyline
 90
3
 70
0
 10
4.126465
 20
0.950336
 30
0.0
 10
3.862276
 20
0.947502
 30
0.0
 10
3.846969
 20
0.883892
 30
0.0
  0
SPLINE
  5
1db
100
AcDbEntity
  8
Layer_1
 62
7
100
AcDbSpline
 70
8
 71
3
 72
8
 73
4
 74
0
 40
0
 40
0
 40
0
 40
0
 40
1
 40
1
 40
1
 40
1
 10
2.995157
 20
0.961054
 30
0.0
 10
2.817595
 20
0.965589
 30
0.0
 10
2.661185
 20
0.976361
 30
0.0
 10
2.594375
 20
0.987416
 30
0.0
  0
SPLINE
  5
1dc
100
AcDbEntity
  8
Layer_1
 62
7
100
AcDbSpline
 70
8
 71
3
 72
8
 73
4
 74
0
 40
0
 40
0
 40
0
 40
0
 40
1
 40
1
 40
1
 40
1
 10
2.594375
 20
0.987416
 30
0.0
 10
2.563875
 20
0.992235
 30
0.0
 10
2.534820
 20
0.996487
 30
0.0
 10
2.512596
 20
0.998471
 30
0.0
  0
SPLINE
  5
1dd
100
AcDbEntity
  8
Layer_1
 62
7
100
AcDbSpline
 70
8
 71
3
 72
8
 73
4
 74
0
 40
0
 40
0
 40
0
 40
0
 40
1
 40
1
 40
1
 40
1
 10
2.512596
 20
0.998471
 30
0.0
 10
2.501541
 20
0.999571
 30
0.0
 10
2.492470
 20
1.000232
 30
0.0
 10
2.485100
 20
1.000376
 30
0.0
  0
SPLINE
  5
1de
100
AcDbEntity
  8
Layer_1
 62
7
100
AcDbSpline
 70
8
 71
3
 72
8
 73
4
 74
0
 40
0
 40
0
 40
0
 40
0
 40
1
 40
1
 40
1
 40
1
 10
2.485100
 20
1.000376
 30
0.0
 10
2.481698
 20
1.000450
 30
0.0
 10
2.478580
 20
1.000396
 30
0.0
 10
2.476029
 20
1.000178
 30
0.0
  0
SPLINE
  5
1df
100
AcDbEntity
  8
Layer_1
 62
7
100
AcDbSpline
 70
8
 71
3
 72
8
 73
4
 74
0
 40
0
 40
0
 40
0
 40
0
 40
1
 40
1
 40
1
 40
1
 10
2.476029
 20
1.000178
 30
0.0
 10
2.473560
 20
0.999962
 30
0.0
 10
2.471777
 20
1.000113
 30
0.0
 10
2.469509
 20
0.998426
 30
0.0
  0
SPLINE
  5
1e0
100
AcDbEntity
  8
Layer_1
 62
7
100
AcDbSpline
 70
8
 71
3
 72
8
 73
4
 74
0
 40
0
 40
0
 40
0
 40
0
 40
1
 40
1
 40
1
 40
1
 10
2.469509
 20
0.998426
 30
0.0
 10
2.465541
 20
0.995957
 30
0.0
 10
2.464690
 20
0.993040
 30
0.0
 10
2.462423
 20
0.988505
 30
0.0
  0
SPLINE
  5
1e1
100
AcDbEntity
  8
Layer_1
 62
7
100
AcDbSpline
 70
8
 71
3
 72
8
 73
4
 74
0
 40
0
 40
0
 40
0
 40
0
 40
1
 40
1
 40
1
 40
1
 10
2.462423
 20
0.988505
 30
0.0
 10
2.460591
 20
0.984253
 30
0.0
 10
2.459021
 20
0.979150
 30
0.0
 10
2.457037
 20
0.972914
 30
0.0
  0
SPLINE
  5
1e2
100
AcDbEntity
  8
Layer_1
 62
7
100
AcDbSpline
 70
8
 71
3
 72
8
 73
4
 74
0
 40
0
 40
0
 40
0
 40
0
 40
1
 40
1
 40
1
 40
1
 10
2.457037
 20
0.972914
 30
0.0
 10
2.453635
 20
0.960442
 30
0.0
 10
2.450517
 20
0.944483
 30
0.0
 10
2.448249
 20
0.927815
 30
0.0
  0
SPLINE
  5
1e3
100
AcDbEntity
  8
Layer_1
 62
7
100
AcDbSpline
 70
8
 71
3
 72
8
 73
4
 74
0
 40
0
 40
0
 40
0
 40
0
 40
1
 40
1
 40
1
 40
1
 10
2.448249
 20
0.927815
 30
0.0
 10
2.434360
 20
0.820155
 30
0.0
 10
2.382316
 20
0.709746
 30
0.0
 10
2.093505
 20
0.172637
 30
0.0
  0
SPLINE
  5
1e4
100
AcDbEntity
  8
Layer_1
 62
7
100
AcDbSpline
 70
8
 71
3
 72
8
 73
4
 74
0
 40
0
 40
0
 40
0
 40
0
 40
1
 40
1
 40
1
 40
1
 10
2.093505
 20
0.172637
 30
0.0
 10
2.053933
 20
0.099220
 30
0.0
 10
2.028308
 20
0.059166
 30
0.0
 10
1.996078
 20
0.037566
 30
0.0
  0
SPLINE
  5
1e5
100
AcDbEntity
  8
Layer_1
 62
7
100
AcDbSpline
 70
8
 71
3
 72
8
 73
4
 74
0
 40
0
 40
0
 40
0
 40
0
 40
1
 40
1
 40
1
 40
1
 10
1.996078
 20
0.037566
 30
0.0
 10
1.963933
 20
0.016023
 30
0.0
 10
1.923880
 20
0.011487
 30
0.0
 10
1.853751
 20
0.011487
 30
0.0
  0
SPLINE
  5
1e6
100
AcDbEntity
  8
Layer_1
 62
7
100
AcDbSpline
 70
8
 71
3
 72
8
 73
4
 74
0
 40
0
 40
0
 40
0
 40
0
 40
1
 40
1
 40
1
 40
1
 10
1.853751
 20
0.011487
 30
0.0
 10
1.821606
 20
0.011487
 30
0.0
 10
1.804938
 20
0.012372
 30
0.0
 10
1.798560
 20
0.014889
 30
0.0
  0
SPLINE
  5
1e7
100
AcDbEntity
  8
Layer_1
 62
7
100
AcDbSpline
 70
8
 71
3
 72
8
 73
4
 74
0
 40
0
 40
0
 40
0
 40
0
 40
1
 40
1
 40
1
 40
1
 10
1.798560
 20
0.014889
 30
0.0
 10
1.795158
 20
0.016278
 30
0.0
 10
1.794875
 20
0.017151
 30
0.0
 10
1.794025
 20
0.019708
 30
0.0
  0
SPLINE
  5
1e8
100
AcDbEntity
  8
Layer_1
 62
7
100
AcDbSpline
 70
8
 71
3
 72
8
 73
4
 74
0
 40
0
 40
0
 40
0
 40
0
 40
1
 40
1
 40
1
 40
1
 10
1.794025
 20
0.019708
 30
0.0
 10
1.793146
 20
0.022543
 30
0.0
 10
1.792709
 20
0.027078
 30
0.0
 10
1.792709
 20
0.033598
 30
0.0
  0
SPLINE
  5
1e9
100
AcDbEntity
  8
Layer_1
 62
7
100
AcDbSpline
 70
8
 71
3
 72
8
 73
4
 74
0
 40
0
 40
0
 40
0
 40
0
 40
1
 40
1
 40
1
 40
1
 10
1.792709
 20
0.033598
 30
0.0
 10
1.792709
 20
0.033861
 30
0.0
 10
1.792709
 20
0.033904
 30
0.0
 10
1.792709
 20
0.034176
 30
0.0
  0
SPLINE
  5
1ea
100
AcDbEntity
  8
Layer_1
 62
7
100
AcDbSpline
 70
8
 71
3
 72
8
 73
4
 74
0
 40
0
 40
0
 40
0
 40
0
 40
1
 40
1
 40
1
 40
1
 10
1.792709
 20
0.034176
 30
0.0
 10
1.792709
 20
0.036645
 30
0.0
 10
1.794246
 20
0.045231
 30
0.0
 10
1.796961
 20
0.057137
 30
0.0
  0
SPLINE
  5
1eb
100
AcDbEntity
  8
Layer_1
 62
7
100
AcDbSpline
 70
8
 71
3
 72
8
 73
4
 74
0
 40
0
 40
0
 40
0
 40
0
 40
1
 40
1
 40
1
 40
1
 10
1.796961
 20
0.057137
 30
0.0
 10
1.799796
 20
0.069042
 30
0.0
 10
1.804048
 20
0.084349
 30
0.0
 10
1.808867
 20
0.102236
 30
0.0
  0
SPLINE
  5
1ec
100
AcDbEntity
  8
Layer_1
 62
7
100
AcDbSpline
 70
8
 71
3
 72
8
 73
4
 74
0
 40
0
 40
0
 40
0
 40
0
 40
1
 40
1
 40
1
 40
1
 10
1.808867
 20
0.102236
 30
0.0
 10
1.819071
 20
0.137669
 30
0.0
 10
1.833528
 20
0.183108
 30
0.0
 10
1.849260
 20
0.229256
 30
0.0
  0
SPLINE
  5
1ed
100
AcDbEntity
  8
Layer_1
 62
7
100
AcDbSpline
 70
8
 71
3
 72
8
 73
4
 74
0
 40
0
 40
0
 40
0
 40
0
 40
1
 40
1
 40
1
 40
1
 10
1.849260
 20
0.229256
 30
0.0
 10
1.880583
 20
0.321921
 30
0.0
 10
1.913975
 20
0.433152
 30
0.0
 10
1.923358
 20
0.477571
 30
0.0
  0
SPLINE
  5
1ee
100
AcDbEntity
  8
Layer_1
 62
7
100
AcDbSpline
 70
8
 71
3
 72
8
 73
4
 74
0
 40
0
 40
0
 40
0
 40
0
 40
1
 40
1
 40
1
 40
1
 10
1.923358
 20
0.477571
 30
0.0
 10
1.957147
 20
0.637729
 30
0.0
 10
1.937248
 20
0.809565
 30
0.0
 10
1.866240
 20
0.982303
 30
0.0
  0
LWPOLYLINE
  5
1ef
100
AcDbEntity
  8
Layer_1
 62
7
100
AcDbPolyline
 90
3
 70
0
 10
3.312612
 20
0.886645
 30
0.0
 10
3.289935
 20
0.953117
 30
0.0
 10
2.995157
 20
0.961054
 30
0.0
  0
SPLINE
  5
1f0
100
AcDbEntity
  8
Layer_1
 62
7
100
AcDbSpline
 70
8
 71
3
 72
8
 73
4
 74
0
 40
0
 40
0
 40
0
 40
0
 40
1
 40
1
 40
1
 40
1
 10
1.739418
 20
1.075752
 30
0.0
 10
1.693270
 20
1.075066
 30
0.0
 10
1.573279
 20
1.073283
 30
0.0
 10
1.472905
 20
1.071500
 30
0.0
  0
SPLINE
  5
1f1
100
AcDbEntity
  8
Layer_1
 62
7
100
AcDbSpline
 70
8
 71
3
 72
8
 73
4
 74
0
 40
0
 40
0
 40
0
 40
0
 40
1
 40
1
 40
1
 40
1
 10
1.472905
 20
1.071500
 30
0.0
 10
1.347160
 20
1.069598
 30
0.0
 10
1.253843
 20
1.074618
 30
0.0
 10
1.171616
 20
1.087658
 30
0.0
  0
SPLINE
  5
1f2
100
AcDbEntity
  8
Layer_1
 62
7
100
AcDbSpline
 70
8
 71
3
 72
8
 73
4
 74
0
 40
0
 40
0
 40
0
 40
0
 40
1
 40
1
 40
1
 40
1
 10
1.171616
 20
1.087658
 30
0.0
 10
0.897279
 20
1.130773
 30
0.0
 10
0.786742
 20
1.141459
 30
0.0
 10
0.525135
 20
1.150133
 30
0.0
  0
SPLINE
  5
1f3
100
AcDbEntity
  8
Layer_1
 62
7
100
AcDbSpline
 70
8
 71
3
 72
8
 73
4
 74
0
 40
0
 40
0
 40
0
 40
0
 40
1
 40
1
 40
1
 40
1
 10
0.525135
 20
1.150133
 30
0.0
 10
0.340288
 20
1.156370
 30
0.0
 10
0.246064
 20
1.160905
 30
0.0
 10
0.190834
 20
1.190102
 30
0.0
  0
SPLINE
  5
1f4
100
AcDbEntity
  8
Layer_1
 62
7
100
AcDbSpline
 70
8
 71
3
 72
8
 73
4
 74
0
 40
0
 40
0
 40
0
 40
0
 40
1
 40
1
 40
1
 40
1
 10
0.190834
 20
1.190102
 30
0.0
 10
0.163338
 20
1.204842
 30
0.0
 10
0.144799
 20
1.225138
 30
0.0
 10
0.128557
 20
1.256376
 30
0.0
  0
SPLINE
  5
1f5
100
AcDbEntity
  8
Layer_1
 62
7
100
AcDbSpline
 70
8
 71
3
 72
8
 73
4
 74
0
 40
0
 40
0
 40
0
 40
0
 40
1
 40
1
 40
1
 40
1
 10
0.128557
 20
1.256376
 30
0.0
 10
0.112399
 20
1.287302
 30
0.0
 10
0.098481
 20
1.329198
 30
0.0
 10
0.080793
 20
1.384559
 30
0.0
  0
SPLINE
  5
1f6
100
AcDbEntity
  8
Layer_1
 62
7
100
AcDbSpline
 70
8
 71
3
 72
8
 73
4
 74
0
 40
0
 40
0
 40
0
 40
0
 40
1
 40
1
 40
1
 40
1
 10
0.080793
 20
1.384559
 30
0.0
 10
0.033738
 20
1.531450
 30
0.0
 10
0.011429
 20
1.631371
 30
0.0
 10
0.013725
 20
1.693263
 30
0.0
  0
SPLINE
  5
1f7
100
AcDbEntity
  8
Layer_1
 62
7
100
AcDbSpline
 70
8
 71
3
 72
8
 73
4
 74
0
 40
0
 40
0
 40
0
 40
0
 40
1
 40
1
 40
1
 40
1
 10
0.013725
 20
1.693263
 30
0.0
 10
0.014896
 20
1.724160
 30
0.0
 10
0.021662
 20
1.745307
 30
0.0
 10
0.034418
 20
1.758601
 30
0.0
  0
SPLINE
  5
1f8
100
AcDbEntity
  8
Layer_1
 62
7
100
AcDbSpline
 70
8
 71
3
 72
8
 73
4
 74
0
 40
0
 40
0
 40
0
 40
0
 40
1
 40
1
 40
1
 40
1
 10
0.034418
 20
1.758601
 30
0.0
 10
0.046891
 20
1.771924
 30
0.0
 10
0.064919
 20
1.777877
 30
0.0
 10
0.090176
 20
1.778444
 30
0.0
  0
SPLINE
  5
1f9
100
AcDbEntity
  8
Layer_1
 62
7
100
AcDbSpline
 70
8
 71
3
 72
8
 73
4
 74
0
 40
0
 40
0
 40
0
 40
0
 40
1
 40
1
 40
1
 40
1
 10
0.090176
 20
1.778444
 30
0.0
 10
0.119032
 20
1.778520
 30
0.0
 10
0.155628
 20
1.793184
 30
0.0
 10
0.194292
 20
1.817590
 30
0.0
  0
SPLINE
  5
1fa
100
AcDbEntity
  8
Layer_1
 62
7
100
AcDbSpline
 70
8
 71
3
 72
8
 73
4
 74
0
 40
0
 40
0
 40
0
 40
0
 40
1
 40
1
 40
1
 40
1
 10
0.194292
 20
1.817590
 30
0.0
 10
0.233042
 20
1.841401
 30
0.0
 10
0.273464
 20
1.875389
 30
0.0
 10
0.308330
 20
1.913855
 30
0.0
  0
SPLINE
  5
1fb
100
AcDbEntity
  8
Layer_1
 62
7
100
AcDbSpline
 70
8
 71
3
 72
8
 73
4
 74
0
 40
0
 40
0
 40
0
 40
0
 40
1
 40
1
 40
1
 40
1
 10
0.308330
 20
1.913855
 30
0.0
 10
0.387672
 20
2.001531
 30
0.0
 10
0.473363
 20
2.135808
 30
0.0
 10
0.539836
 20
2.266128
 30
0.0
  0
SPLINE
  5
1fc
100
AcDbEntity
  8
Layer_1
 62
7
100
AcDbSpline
 70
8
 71
3
 72
8
 73
4
 74
0
 40
0
 40
0
 40
0
 40
0
 40
1
 40
1
 40
1
 40
1
 10
0.539836
 20
2.266128
 30
0.0
 10
0.606365
 20
2.396465
 30
0.0
 10
0.653562
 20
2.522040
 30
0.0
 10
0.655036
 20
2.594536
 30
0.0
  0
SPLINE
  5
1fd
100
AcDbEntity
  8
Layer_1
 62
7
100
AcDbSpline
 70
8
 71
3
 72
8
 73
4
 74
0
 40
0
 40
0
 40
0
 40
0
 40
1
 40
1
 40
1
 40
1
 10
0.655036
 20
2.594536
 30
0.0
 10
0.655483
 20
2.617496
 30
0.0
 10
0.652986
 20
2.636120
 30
0.0
 10
0.641713
 20
2.662369
 30
0.0
  0
SPLINE
  5
1fe
100
AcDbEntity
  8
Layer_1
 62
7
100
AcDbSpline
 70
8
 71
3
 72
8
 73
4
 74
0
 40
0
 40
0
 40
0
 40
0
 40
1
 40
1
 40
1
 40
1
 10
0.641713
 20
2.662369
 30
0.0
 10
0.630091
 20
2.688731
 30
0.0
 10
0.609965
 20
2.722888
 30
0.0
 10
0.574248
 20
2.780035
 30
0.0
  0
SPLINE
  5
1ff
100
AcDbEntity
  8
Layer_1
 62
7
100
AcDbSpline
 70
8
 71
3
 72
8
 73
4
 74
0
 40
0
 40
0
 40
0
 40
0
 40
1
 40
1
 40
1
 40
1
 10
0.574248
 20
2.780035
 30
0.0
 10
0.526881
 20
2.856003
 30
0.0
 10
0.486913
 20
2.927465
 30
0.0
 10
0.457517
 20
2.987304
 30
0.0
  0
SPLINE
  5
200
100
AcDbEntity
  8
Layer_1
 62
7
100
AcDbSpline
 70
8
 71
3
 72
8
 73
4
 74
0
 40
0
 40
0
 40
0
 40
0
 40
1
 40
1
 40
1
 40
1
 10
0.457517
 20
2.987304
 30
0.0
 10
0.428264
 20
3.047200
 30
0.0
 10
0.409385
 20
3.095701
 30
0.0
 10
0.404595
 20
3.125040
 30
0.0
  0
LWPOLYLINE
  5
201
100
AcDbEntity
  8
Layer_1
 62
7
100
AcDbPolyline
 90
3
 70
0
 10
1.866240
 20
0.982303
 30
0.0
 10
1.827094
 20
1.077065
 30
0.0
 10
1.739418
 20
1.075752
 30
0.0
  0
SPLINE
  5
202
100
AcDbEntity
  8
Layer_1
 62
7
100
AcDbSpline
 70
8
 71
3
 72
8
 73
4
 74
0
 40
0
 40
0
 40
0
 40
0
 40
1
 40
1
 40
1
 40
1
 10
0.464831
 20
3.155937
 30
0.0
 10
0.568607
 20
3.147150
 30
0.0
 10
0.778689
 20
3.076029
 30
0.0
 10
0.927717
 20
2.998331
 30
0.0
  0
LWPOLYLINE
  5
203
100
AcDbEntity
  8
Layer_1
 62
7
100
AcDbPolyline
 90
3
 70
0
 10
0.404595
 20
3.125040
 30
0.0
 10
0.398925
 20
3.161323
 30
0.0
 10
0.464831
 20
3.155937
 30
0.0
  0
SPLINE
  5
204
100
AcDbEntity
  8
Layer_1
 62
7
100
AcDbSpline
 70
8
 71
3
 72
8
 73
4
 74
0
 40
0
 40
0
 40
0
 40
0
 40
1
 40
1
 40
1
 40
1
 10
1.217673
 20
2.993143
 30
0.0
 10
1.534791
 20
3.121241
 30
0.0
 10
1.770100
 20
3.172236
 30
0.0
 10
2.192355
 20
3.204041
 30
0.0
  0
SPLINE
  5
205
100
AcDbEntity
  8
Layer_1
 62
7
100
AcDbSpline
 70
8
 71
3
 72
8
 73
4
 74
0
 40
0
 40
0
 40
0
 40
0
 40
1
 40
1
 40
1
 40
1
 10
2.192355
 20
3.204041
 30
0.0
 10
2.286663
 20
3.211128
 30
0.0
 10
2.422670
 20
3.226718
 30
0.0
 10
2.495169
 20
3.238652
 30
0.0
  0
SPLINE
  5
206
100
AcDbEntity
  8
Layer_1
 62
7
100
AcDbSpline
 70
8
 71
3
 72
8
 73
4
 74
0
 40
0
 40
0
 40
0
 40
0
 40
1
 40
1
 40
1
 40
1
 10
2.495169
 20
3.238652
 30
0.0
 10
2.889439
 20
3.304558
 30
0.0
 10
3.447584
 20
3.354674
 30
0.0
 10
4.199428
 20
3.391695
 30
0.0
  0
SPLINE
  5
207
100
AcDbEntity
  8
Layer_1
 62
7
100
AcDbSpline
 70
8
 71
3
 72
8
 73
4
 74
0
 40
0
 40
0
 40
0
 40
0
 40
1
 40
1
 40
1
 40
1
 10
4.199428
 20
3.391695
 30
0.0
 10
4.958345
 20
3.429197
 30
0.0
 10
5.358407
 20
3.436907
 30
0.0
 10
6.491517
 20
3.436567
 30
0.0
  0
LWPOLYLINE
  5
208
100
AcDbEntity
  8
Layer_1
 62
7
100
AcDbPolyline
 90
3
 70
0
 10
0.927717
 20
2.998331
 30
0.0
 10
1.059897
 20
2.929336
 30
0.0
 10
1.217673
 20
2.993143
 30
0.0
  0
SPLINE
  5
209
100
AcDbEntity
  8
Layer_1
 62
7
100
AcDbSpline
 70
8
 71
3
 72
8
 73
4
 74
0
 40
0
 40
0
 40
0
 40
0
 40
1
 40
1
 40
1
 40
1
 10
7.570210
 20
0.863352
 30
0.0
 10
7.569751
 20
0.863310
 30
0.0
 10
7.568527
 20
0.862989
 30
0.0
 10
7.568453
 20
0.862972
 30
0.0
  0
SPLINE
  5
20a
100
AcDbEntity
  8
Layer_1
 62
7
100
AcDbSpline
 70
8
 71
3
 72
8
 73
4
 74
0
 40
0
 40
0
 40
0
 40
0
 40
1
 40
1
 40
1
 40
1
 10
7.568453
 20
0.862972
 30
0.0
 10
7.568396
 20
0.862947
 30
0.0
 10
7.566194
 20
0.861510
 30
0.0
 10
7.566194
 20
0.861436
 30
0.0
  0
SPLINE
  5
20b
100
AcDbEntity
  8
Layer_1
 62
7
100
AcDbSpline
 70
8
 71
3
 72
8
 73
4
 74
0
 40
0
 40
0
 40
0
 40
0
 40
1
 40
1
 40
1
 40
1
 10
7.566194
 20
0.861436
 30
0.0
 10
7.566174
 20
0.861419
 30
0.0
 10
7.565584
 20
0.860710
 30
0.0
 10
7.565462
 20
0.860484
 30
0.0
  0
SPLINE
  5
20c
100
AcDbEntity
  8
Layer_1
 62
7
100
AcDbSpline
 70
8
 71
3
 72
8
 73
4
 74
0
 40
0
 40
0
 40
0
 40
0
 40
1
 40
1
 40
1
 40
1
 10
7.565462
 20
0.860484
 30
0.0
 10
7.565304
 20
0.860260
 30
0.0
 10
7.565355
 20
0.860075
 30
0.0
 10
7.565267
 20
0.859911
 30
0.0
  0
SPLINE
  5
20d
100
AcDbEntity
  8
Layer_1
 62
7
100
AcDbSpline
 70
8
 71
3
 72
8
 73
4
 74
0
 40
0
 40
0
 40
0
 40
0
 40
1
 40
1
 40
1
 40
1
 10
7.565267
 20
0.859911
 30
0.0
 10
7.565091
 20
0.859594
 30
0.0
 10
7.565000
 20
0.859398
 30
0.0
 10
7.564884
 20
0.859177
 30
0.0
  0
SPLINE
  5
20e
100
AcDbEntity
  8
Layer_1
 62
7
100
AcDbSpline
 70
8
 71
3
 72
8
 73
4
 74
0
 40
0
 40
0
 40
0
 40
0
 40
1
 40
1
 40
1
 40
1
 10
7.564884
 20
0.859177
 30
0.0
 10
7.564660
 20
0.858667
 30
0.0
 10
7.564357
 20
0.858080
 30
0.0
 10
7.564156
 20
0.857419
 30
0.0
  0
SPLINE
  5
20f
100
AcDbEntity
  8
Layer_1
 62
7
100
AcDbSpline
 70
8
 71
3
 72
8
 73
4
 74
0
 40
0
 40
0
 40
0
 40
0
 40
1
 40
1
 40
1
 40
1
 10
7.564156
 20
0.857419
 30
0.0
 10
7.563685
 20
0.856181
 30
0.0
 10
7.563132
 20
0.854585
 30
0.0
 10
7.562398
 20
0.852600
 30
0.0
  0
SPLINE
  5
210
100
AcDbEntity
  8
Layer_1
 62
7
100
AcDbSpline
 70
8
 71
3
 72
8
 73
4
 74
0
 40
0
 40
0
 40
0
 40
0
 40
1
 40
1
 40
1
 40
1
 10
7.562398
 20
0.852600
 30
0.0
 10
7.561009
 20
0.848349
 30
0.0
 10
7.558997
 20
0.842679
 30
0.0
 10
7.557012
 20
0.835309
 30
0.0
  0
SPLINE
  5
211
100
AcDbEntity
  8
Layer_1
 62
7
100
AcDbSpline
 70
8
 71
3
 72
8
 73
4
 74
0
 40
0
 40
0
 40
0
 40
0
 40
1
 40
1
 40
1
 40
1
 10
7.557012
 20
0.835309
 30
0.0
 10
7.552477
 20
0.820569
 30
0.0
 10
7.546241
 20
0.799026
 30
0.0
 10
7.538871
 20
0.773032
 30
0.0
  0
SPLINE
  5
212
100
AcDbEntity
  8
Layer_1
 62
7
100
AcDbSpline
 70
8
 71
3
 72
8
 73
4
 74
0
 40
0
 40
0
 40
0
 40
0
 40
1
 40
1
 40
1
 40
1
 10
7.538871
 20
0.773032
 30
0.0
 10
7.523563
 20
0.721186
 30
0.0
 10
7.503437
 20
0.650830
 30
0.0
 10
7.482319
 20
0.575684
 30
0.0
  0
SPLINE
  5
213
100
AcDbEntity
  8
Layer_1
 62
7
100
AcDbSpline
 70
8
 71
3
 72
8
 73
4
 74
0
 40
0
 40
0
 40
0
 40
0
 40
1
 40
1
 40
1
 40
1
 10
7.482319
 20
0.575684
 30
0.0
 10
7.439856
 20
0.425363
 30
0.0
 10
7.392830
 20
0.255891
 30
0.0
 10
7.372108
 20
0.176013
 30
0.0
  0
SPLINE
  5
214
100
AcDbEntity
  8
Layer_1
 62
7
100
AcDbSpline
 70
8
 71
3
 72
8
 73
4
 74
0
 40
0
 40
0
 40
0
 40
0
 40
1
 40
1
 40
1
 40
1
 10
7.372108
 20
0.176013
 30
0.0
 10
7.360203
 20
0.129411
 30
0.0
 10
7.353683
 20
0.100668
 30
0.0
 10
7.351132
 20
0.081052
 30
0.0
  0
SPLINE
  5
215
100
AcDbEntity
  8
Layer_1
 62
7
100
AcDbSpline
 70
8
 71
3
 72
8
 73
4
 74
0
 40
0
 40
0
 40
0
 40
0
 40
1
 40
1
 40
1
 40
1
 10
7.351132
 20
0.081052
 30
0.0
 10
7.349074
 20
0.061777
 30
0.0
 10
7.351931
 20
0.050155
 30
0.0
 10
7.359069
 20
0.041481
 30
0.0
  0
SPLINE
  5
216
100
AcDbEntity
  8
Layer_1
 62
7
100
AcDbSpline
 70
8
 71
3
 72
8
 73
4
 74
0
 40
0
 40
0
 40
0
 40
0
 40
1
 40
1
 40
1
 40
1
 10
7.359069
 20
0.041481
 30
0.0
 10
7.365589
 20
0.033544
 30
0.0
 10
7.375510
 20
0.028158
 30
0.0
 10
7.390817
 20
0.026174
 30
0.0
  0
SPLINE
  5
217
100
AcDbEntity
  8
Layer_1
 62
7
100
AcDbSpline
 70
8
 71
3
 72
8
 73
4
 74
0
 40
0
 40
0
 40
0
 40
0
 40
1
 40
1
 40
1
 40
1
 10
7.390817
 20
0.026174
 30
0.0
 10
7.406124
 20
0.024124
 30
0.0
 10
7.427100
 20
0.024711
 30
0.0
 10
7.458820
 20
0.026746
 30
0.0
  0
SPLINE
  5
218
100
AcDbEntity
  8
Layer_1
 62
7
100
AcDbSpline
 70
8
 71
3
 72
8
 73
4
 74
0
 40
0
 40
0
 40
0
 40
0
 40
1
 40
1
 40
1
 40
1
 10
7.458820
 20
0.026746
 30
0.0
 10
7.481214
 20
0.028209
 30
0.0
 10
7.504373
 20
0.031282
 30
0.0
 10
7.523932
 20
0.034967
 30
0.0
  0
SPLINE
  5
219
100
AcDbEntity
  8
Layer_1
 62
7
100
AcDbSpline
 70
8
 71
3
 72
8
 73
4
 74
0
 40
0
 40
0
 40
0
 40
0
 40
1
 40
1
 40
1
 40
1
 10
7.523932
 20
0.034967
 30
0.0
 10
7.543208
 20
0.039219
 30
0.0
 10
7.558968
 20
0.042904
 30
0.0
 10
7.567869
 20
0.048290
 30
0.0
  0
SPLINE
  5
21a
100
AcDbEntity
  8
Layer_1
 62
7
100
AcDbSpline
 70
8
 71
3
 72
8
 73
4
 74
0
 40
0
 40
0
 40
0
 40
0
 40
1
 40
1
 40
1
 40
1
 10
7.567869
 20
0.048290
 30
0.0
 10
7.607837
 20
0.072668
 30
0.0
 10
7.647749
 20
0.143364
 30
0.0
 10
7.740726
 20
0.343807
 30
0.0
  0
SPLINE
  5
21b
100
AcDbEntity
  8
Layer_1
 62
7
100
AcDbSpline
 70
8
 71
3
 72
8
 73
4
 74
0
 40
0
 40
0
 40
0
 40
0
 40
1
 40
1
 40
1
 40
1
 10
7.740726
 20
0.343807
 30
0.0
 10
7.785060
 20
0.439335
 30
0.0
 10
7.842234
 20
0.553911
 30
0.0
 10
7.867378
 20
0.597536
 30
0.0
  0
SPLINE
  5
21c
100
AcDbEntity
  8
Layer_1
 62
7
100
AcDbSpline
 70
8
 71
3
 72
8
 73
4
 74
0
 40
0
 40
0
 40
0
 40
0
 40
1
 40
1
 40
1
 40
1
 10
7.867378
 20
0.597536
 30
0.0
 10
7.887504
 20
0.632572
 30
0.0
 10
7.898700
 20
0.652642
 30
0.0
 10
7.902811
 20
0.666135
 30
0.0
  0
SPLINE
  5
21d
100
AcDbEntity
  8
Layer_1
 62
7
100
AcDbSpline
 70
8
 71
3
 72
8
 73
4
 74
0
 40
0
 40
0
 40
0
 40
0
 40
1
 40
1
 40
1
 40
1
 10
7.902811
 20
0.666135
 30
0.0
 10
7.904857
 20
0.672654
 30
0.0
 10
7.905280
 20
0.678607
 30
0.0
 10
7.902811
 20
0.683426
 30
0.0
  0
SPLINE
  5
21e
100
AcDbEntity
  8
Layer_1
 62
7
100
AcDbSpline
 70
8
 71
3
 72
8
 73
4
 74
0
 40
0
 40
0
 40
0
 40
0
 40
1
 40
1
 40
1
 40
1
 10
7.902811
 20
0.683426
 30
0.0
 10
7.900342
 20
0.687961
 30
0.0
 10
7.895724
 20
0.690796
 30
0.0
 10
7.890905
 20
0.692213
 30
0.0
  0
SPLINE
  5
21f
100
AcDbEntity
  8
Layer_1
 62
7
100
AcDbSpline
 70
8
 71
3
 72
8
 73
4
 74
0
 40
0
 40
0
 40
0
 40
0
 40
1
 40
1
 40
1
 40
1
 10
7.890905
 20
0.692213
 30
0.0
 10
7.834864
 20
0.710072
 30
0.0
 10
7.772162
 20
0.742160
 30
0.0
 10
7.680206
 20
0.801120
 30
0.0
  0
SPLINE
  5
220
100
AcDbEntity
  8
Layer_1
 62
7
100
AcDbSpline
 70
8
 71
3
 72
8
 73
4
 74
0
 40
0
 40
0
 40
0
 40
0
 40
1
 40
1
 40
1
 40
1
 10
7.680206
 20
0.801120
 30
0.0
 10
7.652143
 20
0.819262
 30
0.0
 10
7.625894
 20
0.835335
 30
0.0
 10
7.606477
 20
0.846418
 30
0.0
  0
SPLINE
  5
221
100
AcDbEntity
  8
Layer_1
 62
7
100
AcDbSpline
 70
8
 71
3
 72
8
 73
4
 74
0
 40
0
 40
0
 40
0
 40
0
 40
1
 40
1
 40
1
 40
1
 10
7.606477
 20
0.846418
 30
0.0
 10
7.597123
 20
0.851804
 30
0.0
 10
7.589186
 20
0.856339
 30
0.0
 10
7.582949
 20
0.859174
 30
0.0
  0
SPLINE
  5
222
100
AcDbEntity
  8
Layer_1
 62
7
100
AcDbSpline
 70
8
 71
3
 72
8
 73
4
 74
0
 40
0
 40
0
 40
0
 40
0
 40
1
 40
1
 40
1
 40
1
 10
7.582949
 20
0.859174
 30
0.0
 10
7.579831
 20
0.860634
 30
0.0
 10
7.577563
 20
0.861643
 30
0.0
 10
7.575579
 20
0.862576
 30
0.0
  0
SPLINE
  5
223
100
AcDbEntity
  8
Layer_1
 62
7
100
AcDbSpline
 70
8
 71
3
 72
8
 73
4
 74
0
 40
0
 40
0
 40
0
 40
0
 40
1
 40
1
 40
1
 40
1
 10
7.575579
 20
0.862576
 30
0.0
 10
7.574556
 20
0.862953
 30
0.0
 10
7.573819
 20
0.863310
 30
0.0
 10
7.572745
 20
0.863528
 30
0.0
  0
SPLINE
  5
224
100
AcDbEntity
  8
Layer_1
 62
7
100
AcDbSpline
 70
8
 71
3
 72
8
 73
4
 74
0
 40
0
 40
0
 40
0
 40
0
 40
1
 40
1
 40
1
 40
1
 10
7.572745
 20
0.863528
 30
0.0
 10
7.572195
 20
0.863624
 30
0.0
 10
7.571574
 20
0.863803
 30
0.0
 10
7.570687
 20
0.863726
 30
0.0
  0
LWPOLYLINE
  5
225
100
AcDbEntity
  8
Layer_1
 62
7
100
AcDbPolyline
 90
2
 70
0
 10
6.491517
 20
3.436567
 30
0.0
 10
6.489116
 20
3.437987
 30
0.0
  0
LWPOLYLINE
  5
226
100
AcDbEntity
  8
Layer_1
 62
7
100
AcDbPolyline
 90
2
 70
0
 10
7.570687
 20
0.863726
 30
0.0
 10
7.570210
 20
0.863352
 30
0.0
  0
SPLINE
  5
227
100
AcDbEntity
  8
Layer_1
 62
7
100
AcDbSpline
 70
8
 71
3
 72
8
 73
4
 74
0
 40
0
 40
0
 40
0
 40
0
 40
1
 40
1
 40
1
 40
1
 10
3.905323
 20
0.739592
 30
0.0
 10
3.883779
 20
0.681028
 30
0.0
 10
3.850869
 20
0.605853
 30
0.0
 10
3.832529
 20
0.573765
 30
0.0
  0
SPLINE
  5
228
100
AcDbEntity
  8
Layer_1
 62
7
100
AcDbSpline
 70
8
 71
3
 72
8
 73
4
 74
0
 40
0
 40
0
 40
0
 40
0
 40
1
 40
1
 40
1
 40
1
 10
3.832529
 20
0.573765
 30
0.0
 10
3.823174
 20
0.557324
 30
0.0
 10
3.814387
 20
0.540798
 30
0.0
 10
3.808151
 20
0.527362
 30
0.0
  0
SPLINE
  5
229
100
AcDbEntity
  8
Layer_1
 62
7
100
AcDbSpline
 70
8
 71
3
 72
8
 73
4
 74
0
 40
0
 40
0
 40
0
 40
0
 40
1
 40
1
 40
1
 40
1
 10
3.808151
 20
0.527362
 30
0.0
 10
3.805033
 20
0.520842
 30
0.0
 10
3.802482
 20
0.514889
 30
0.0
 10
3.800781
 20
0.510070
 30
0.0
  0
SPLINE
  5
22a
100
AcDbEntity
  8
Layer_1
 62
7
100
AcDbSpline
 70
8
 71
3
 72
8
 73
4
 74
0
 40
0
 40
0
 40
0
 40
0
 40
1
 40
1
 40
1
 40
1
 10
3.800781
 20
0.510070
 30
0.0
 10
3.798955
 20
0.505535
 30
0.0
 10
3.797663
 20
0.502133
 30
0.0
 10
3.797663
 20
0.498448
 30
0.0
  0
SPLINE
  5
22b
100
AcDbEntity
  8
Layer_1
 62
7
100
AcDbSpline
 70
8
 71
3
 72
8
 73
4
 74
0
 40
0
 40
0
 40
0
 40
0
 40
1
 40
1
 40
1
 40
1
 10
3.797663
 20
0.498448
 30
0.0
 10
3.797663
 20
0.495047
 30
0.0
 10
3.798901
 20
0.491929
 30
0.0
 10
3.800497
 20
0.487393
 30
0.0
  0
SPLINE
  5
22c
100
AcDbEntity
  8
Layer_1
 62
7
100
AcDbSpline
 70
8
 71
3
 72
8
 73
4
 74
0
 40
0
 40
0
 40
0
 40
0
 40
1
 40
1
 40
1
 40
1
 10
3.800497
 20
0.487393
 30
0.0
 10
3.802181
 20
0.482858
 30
0.0
 10
3.804182
 20
0.477472
 30
0.0
 10
3.807017
 20
0.470385
 30
0.0
  0
SPLINE
  5
22d
100
AcDbEntity
  8
Layer_1
 62
7
100
AcDbSpline
 70
8
 71
3
 72
8
 73
4
 74
0
 40
0
 40
0
 40
0
 40
0
 40
1
 40
1
 40
1
 40
1
 10
3.807017
 20
0.470385
 30
0.0
 10
3.813253
 20
0.457063
 30
0.0
 10
3.821474
 20
0.439063
 30
0.0
 10
3.831678
 20
0.418625
 30
0.0
  0
SPLINE
  5
22e
100
AcDbEntity
  8
Layer_1
 62
7
100
AcDbSpline
 70
8
 71
3
 72
8
 73
4
 74
0
 40
0
 40
0
 40
0
 40
0
 40
1
 40
1
 40
1
 40
1
 10
3.831678
 20
0.418625
 30
0.0
 10
3.852371
 20
0.377409
 30
0.0
 10
3.880151
 20
0.325138
 30
0.0
 10
3.909036
 20
0.272470
 30
0.0
  0
SPLINE
  5
22f
100
AcDbEntity
  8
Layer_1
 62
7
100
AcDbSpline
 70
8
 71
3
 72
8
 73
4
 74
0
 40
0
 40
0
 40
0
 40
0
 40
1
 40
1
 40
1
 40
1
 10
3.909036
 20
0.272470
 30
0.0
 10
3.937893
 20
0.219803
 30
0.0
 10
3.967883
 20
0.166880
 30
0.0
 10
3.992913
 20
0.124785
 30
0.0
  0
SPLINE
  5
230
100
AcDbEntity
  8
Layer_1
 62
7
100
AcDbSpline
 70
8
 71
3
 72
8
 73
4
 74
0
 40
0
 40
0
 40
0
 40
0
 40
1
 40
1
 40
1
 40
1
 10
3.992913
 20
0.124785
 30
0.0
 10
4.005386
 20
0.103809
 30
0.0
 10
4.016724
 20
0.085214
 30
0.0
 10
4.025880
 20
0.071126
 30
0.0
  0
SPLINE
  5
231
100
AcDbEntity
  8
Layer_1
 62
7
100
AcDbSpline
 70
8
 71
3
 72
8
 73
4
 74
0
 40
0
 40
0
 40
0
 40
0
 40
1
 40
1
 40
1
 40
1
 10
4.025880
 20
0.071126
 30
0.0
 10
4.034667
 20
0.057803
 30
0.0
 10
4.040620
 20
0.049299
 30
0.0
 10
4.045723
 20
0.043629
 30
0.0
  0
LWPOLYLINE
  5
232
100
AcDbEntity
  8
Layer_1
 62
7
100
AcDbPolyline
 90
2
 70
0
 10
3.949061
 20
0.859951
 30
0.0
 10
3.905323
 20
0.739592
 30
0.0
  0
SPLINE
  5
233
100
AcDbEntity
  8
Layer_1
 62
7
100
AcDbSpline
 70
8
 71
3
 72
8
 73
4
 74
0
 40
0
 40
0
 40
0
 40
0
 40
1
 40
1
 40
1
 40
1
 10
4.047259
 20
0.041492
 30
0.0
 10
4.064550
 20
0.023350
 30
0.0
 10
4.076116
 20
0.013061
 30
0.0
 10
4.091564
 20
0.007278
 30
0.0
  0
SPLINE
  5
234
100
AcDbEntity
  8
Layer_1
 62
7
100
AcDbSpline
 70
8
 71
3
 72
8
 73
4
 74
0
 40
0
 40
0
 40
0
 40
0
 40
1
 40
1
 40
1
 40
1
 10
4.091564
 20
0.007278
 30
0.0
 10
4.106871
 20
0.001609
 30
0.0
 10
4.124957
 20
0.000758
 30
0.0
 10
4.155571
 20
0.000758
 30
0.0
  0
SPLINE
  5
235
100
AcDbEntity
  8
Layer_1
 62
7
100
AcDbSpline
 70
8
 71
3
 72
8
 73
4
 74
0
 40
0
 40
0
 40
0
 40
0
 40
1
 40
1
 40
1
 40
1
 10
4.155571
 20
0.000758
 30
0.0
 10
4.176264
 20
0.000758
 30
0.0
 10
4.191854
 20
0.001266
 30
0.0
 10
4.204298
 20
0.003876
 30
0.0
  0
SPLINE
  5
236
100
AcDbEntity
  8
Layer_1
 62
7
100
AcDbSpline
 70
8
 71
3
 72
8
 73
4
 74
0
 40
0
 40
0
 40
0
 40
0
 40
1
 40
1
 40
1
 40
1
 10
4.204298
 20
0.003876
 30
0.0
 10
4.216771
 20
0.006345
 30
0.0
 10
4.226692
 20
0.011813
 30
0.0
 10
4.231511
 20
0.021168
 30
0.0
  0
SPLINE
  5
237
100
AcDbEntity
  8
Layer_1
 62
7
100
AcDbSpline
 70
8
 71
3
 72
8
 73
4
 74
0
 40
0
 40
0
 40
0
 40
0
 40
1
 40
1
 40
1
 40
1
 10
4.231511
 20
0.021168
 30
0.0
 10
4.236330
 20
0.030522
 30
0.0
 10
4.237180
 20
0.042994
 30
0.0
 10
4.235763
 20
0.059917
 30
0.0
  0
SPLINE
  5
238
100
AcDbEntity
  8
Layer_1
 62
7
100
AcDbSpline
 70
8
 71
3
 72
8
 73
4
 74
0
 40
0
 40
0
 40
0
 40
0
 40
1
 40
1
 40
1
 40
1
 10
4.235763
 20
0.059917
 30
0.0
 10
4.234300
 20
0.076925
 30
0.0
 10
4.230377
 20
0.098242
 30
0.0
 10
4.224991
 20
0.126617
 30
0.0
  0
SPLINE
  5
239
100
AcDbEntity
  8
Layer_1
 62
7
100
AcDbSpline
 70
8
 71
3
 72
8
 73
4
 74
0
 40
0
 40
0
 40
0
 40
0
 40
1
 40
1
 40
1
 40
1
 10
4.224991
 20
0.126617
 30
0.0
 10
4.195312
 20
0.281955
 30
0.0
 10
4.140916
 20
0.446285
 30
0.0
 10
4.069483
 20
0.596383
 30
0.0
  0
SPLINE
  5
23a
100
AcDbEntity
  8
Layer_1
 62
7
100
AcDbSpline
 70
8
 71
3
 72
8
 73
4
 74
0
 40
0
 40
0
 40
0
 40
0
 40
1
 40
1
 40
1
 40
1
 10
4.069483
 20
0.596383
 30
0.0
 10
4.030733
 20
0.677907
 30
0.0
 10
3.988894
 20
0.767850
 30
0.0
 10
3.976620
 20
0.795828
 30
0.0
  0
LWPOLYLINE
  5
23b
100
AcDbEntity
  8
Layer_1
 62
7
100
AcDbPolyline
 90
3
 70
0
 10
4.045723
 20
0.043629
 30
0.0
 10
4.045723
 20
0.043250
 30
0.0
 10
4.047259
 20
0.041492
 30
0.0
  0
LWPOLYLINE
  5
23c
100
AcDbEntity
  8
Layer_1
 62
7
100
AcDbPolyline
 90
2
 70
0
 10
3.976620
 20
0.795828
 30
0.0
 10
3.949061
 20
0.859951
 30
0.0
  0
SPLINE
  5
23d
100
AcDbEntity
  8
Layer_1
 62
7
100
AcDbSpline
 70
8
 71
3
 72
8
 73
4
 74
0
 40
0
 40
0
 40
0
 40
0
 40
1
 40
1
 40
1
 40
1
 10
2.498496
 20
0.732732
 30
0.0
 10
2.474969
 20
0.670256
 30
0.0
 10
2.441917
 20
0.595535
 30
0.0
 10
2.425901
 20
0.568237
 30
0.0
  0
SPLINE
  5
23e
100
AcDbEntity
  8
Layer_1
 62
7
100
AcDbSpline
 70
8
 71
3
 72
8
 73
4
 74
0
 40
0
 40
0
 40
0
 40
0
 40
1
 40
1
 40
1
 40
1
 10
2.425901
 20
0.568237
 30
0.0
 10
2.417681
 20
0.554348
 30
0.0
 10
2.410311
 20
0.539381
 30
0.0
 10
2.404358
 20
0.527022
 30
0.0
  0
SPLINE
  5
23f
100
AcDbEntity
  8
Layer_1
 62
7
100
AcDbSpline
 70
8
 71
3
 72
8
 73
4
 74
0
 40
0
 40
0
 40
0
 40
0
 40
1
 40
1
 40
1
 40
1
 10
2.404358
 20
0.527022
 30
0.0
 10
2.401523
 20
0.520785
 30
0.0
 10
2.399539
 20
0.515400
 30
0.0
 10
2.397838
 20
0.510864
 30
0.0
  0
SPLINE
  5
240
100
AcDbEntity
  8
Layer_1
 62
7
100
AcDbSpline
 70
8
 71
3
 72
8
 73
4
 74
0
 40
0
 40
0
 40
0
 40
0
 40
1
 40
1
 40
1
 40
1
 10
2.397838
 20
0.510864
 30
0.0
 10
2.396228
 20
0.506329
 30
0.0
 10
2.395003
 20
0.502927
 30
0.0
 10
2.395003
 20
0.499809
 30
0.0
  0
SPLINE
  5
241
100
AcDbEntity
  8
Layer_1
 62
7
100
AcDbSpline
 70
8
 71
3
 72
8
 73
4
 74
0
 40
0
 40
0
 40
0
 40
0
 40
1
 40
1
 40
1
 40
1
 10
2.395003
 20
0.499809
 30
0.0
 10
2.394969
 20
0.496407
 30
0.0
 10
2.396027
 20
0.493289
 30
0.0
 10
2.397838
 20
0.488754
 30
0.0
  0
SPLINE
  5
242
100
AcDbEntity
  8
Layer_1
 62
7
100
AcDbSpline
 70
8
 71
3
 72
8
 73
4
 74
0
 40
0
 40
0
 40
0
 40
0
 40
1
 40
1
 40
1
 40
1
 10
2.397838
 20
0.488754
 30
0.0
 10
2.399445
 20
0.484218
 30
0.0
 10
2.402090
 20
0.478549
 30
0.0
 10
2.404358
 20
0.471463
 30
0.0
  0
SPLINE
  5
243
100
AcDbEntity
  8
Layer_1
 62
7
100
AcDbSpline
 70
8
 71
3
 72
8
 73
4
 74
0
 40
0
 40
0
 40
0
 40
0
 40
1
 40
1
 40
1
 40
1
 10
2.404358
 20
0.471463
 30
0.0
 10
2.410027
 20
0.457856
 30
0.0
 10
2.418248
 20
0.440140
 30
0.0
 10
2.428736
 20
0.419702
 30
0.0
  0
SPLINE
  5
244
100
AcDbEntity
  8
Layer_1
 62
7
100
AcDbSpline
 70
8
 71
3
 72
8
 73
4
 74
0
 40
0
 40
0
 40
0
 40
0
 40
1
 40
1
 40
1
 40
1
 10
2.428736
 20
0.419702
 30
0.0
 10
2.449429
 20
0.378486
 30
0.0
 10
2.476755
 20
0.326357
 30
0.0
 10
2.505555
 20
0.273746
 30
0.0
  0
SPLINE
  5
245
100
AcDbEntity
  8
Layer_1
 62
7
100
AcDbSpline
 70
8
 71
3
 72
8
 73
4
 74
0
 40
0
 40
0
 40
0
 40
0
 40
1
 40
1
 40
1
 40
1
 10
2.505555
 20
0.273746
 30
0.0
 10
2.534411
 20
0.221163
 30
0.0
 10
2.564374
 20
0.168240
 30
0.0
 10
2.589432
 20
0.126061
 30
0.0
  0
SPLINE
  5
246
100
AcDbEntity
  8
Layer_1
 62
7
100
AcDbSpline
 70
8
 71
3
 72
8
 73
4
 74
0
 40
0
 40
0
 40
0
 40
0
 40
1
 40
1
 40
1
 40
1
 10
2.589432
 20
0.126061
 30
0.0
 10
2.601904
 20
0.105085
 30
0.0
 10
2.613243
 20
0.086489
 30
0.0
 10
2.622824
 20
0.072203
 30
0.0
  0
SPLINE
  5
247
100
AcDbEntity
  8
Layer_1
 62
7
100
AcDbSpline
 70
8
 71
3
 72
8
 73
4
 74
0
 40
0
 40
0
 40
0
 40
0
 40
1
 40
1
 40
1
 40
1
 10
2.622824
 20
0.072203
 30
0.0
 10
2.632178
 20
0.057746
 30
0.0
 10
2.639265
 20
0.047541
 30
0.0
 10
2.645218
 20
0.042099
 30
0.0
  0
SPLINE
  5
248
100
AcDbEntity
  8
Layer_1
 62
7
100
AcDbSpline
 70
8
 71
3
 72
8
 73
4
 74
0
 40
0
 40
0
 40
0
 40
0
 40
1
 40
1
 40
1
 40
1
 10
2.645218
 20
0.042099
 30
0.0
 10
2.662509
 20
0.023957
 30
0.0
 10
2.674471
 20
0.013667
 30
0.0
 10
2.689722
 20
0.007885
 30
0.0
  0
SPLINE
  5
249
100
AcDbEntity
  8
Layer_1
 62
7
100
AcDbSpline
 70
8
 71
3
 72
8
 73
4
 74
0
 40
0
 40
0
 40
0
 40
0
 40
1
 40
1
 40
1
 40
1
 10
2.689722
 20
0.007885
 30
0.0
 10
2.705029
 20
0.002215
 30
0.0
 10
2.723114
 20
0.001365
 30
0.0
 10
2.753728
 20
0.001365
 30
0.0
  0
SPLINE
  5
24a
100
AcDbEntity
  8
Layer_1
 62
7
100
AcDbSpline
 70
8
 71
3
 72
8
 73
4
 74
0
 40
0
 40
0
 40
0
 40
0
 40
1
 40
1
 40
1
 40
1
 10
2.753728
 20
0.001365
 30
0.0
 10
2.778389
 20
0.001365
 30
0.0
 10
2.795681
 20
0.002462
 30
0.0
 10
2.808181
 20
0.005617
 30
0.0
  0
SPLINE
  5
24b
100
AcDbEntity
  8
Layer_1
 62
7
100
AcDbSpline
 70
8
 71
3
 72
8
 73
4
 74
0
 40
0
 40
0
 40
0
 40
0
 40
1
 40
1
 40
1
 40
1
 10
2.808181
 20
0.005617
 30
0.0
 10
2.820654
 20
0.008735
 30
0.0
 10
2.828874
 20
0.013837
 30
0.0
 10
2.831992
 20
0.022058
 30
0.0
  0
SPLINE
  5
24c
100
AcDbEntity
  8
Layer_1
 62
7
100
AcDbSpline
 70
8
 71
3
 72
8
 73
4
 74
0
 40
0
 40
0
 40
0
 40
0
 40
1
 40
1
 40
1
 40
1
 10
2.831992
 20
0.022058
 30
0.0
 10
2.835111
 20
0.029995
 30
0.0
 10
2.835677
 20
0.041333
 30
0.0
 10
2.834827
 20
0.056272
 30
0.0
  0
SPLINE
  5
24d
100
AcDbEntity
  8
Layer_1
 62
7
100
AcDbSpline
 70
8
 71
3
 72
8
 73
4
 74
0
 40
0
 40
0
 40
0
 40
0
 40
1
 40
1
 40
1
 40
1
 10
2.834827
 20
0.056272
 30
0.0
 10
2.833946
 20
0.071012
 30
0.0
 10
2.831426
 20
0.088842
 30
0.0
 10
2.827457
 20
0.109762
 30
0.0
  0
SPLINE
  5
24e
100
AcDbEntity
  8
Layer_1
 62
7
100
AcDbSpline
 70
8
 71
3
 72
8
 73
4
 74
0
 40
0
 40
0
 40
0
 40
0
 40
1
 40
1
 40
1
 40
1
 10
2.827457
 20
0.109762
 30
0.0
 10
2.820087
 20
0.151318
 30
0.0
 10
2.807331
 20
0.203702
 30
0.0
 10
2.790777
 20
0.260111
 30
0.0
  0
SPLINE
  5
24f
100
AcDbEntity
  8
Layer_1
 62
7
100
AcDbSpline
 70
8
 71
3
 72
8
 73
4
 74
0
 40
0
 40
0
 40
0
 40
0
 40
1
 40
1
 40
1
 40
1
 10
2.790777
 20
0.260111
 30
0.0
 10
2.758207
 20
0.372959
 30
0.0
 10
2.712144
 20
0.502502
 30
0.0
 10
2.667385
 20
0.596723
 30
0.0
  0
SPLINE
  5
250
100
AcDbEntity
  8
Layer_1
 62
7
100
AcDbSpline
 70
8
 71
3
 72
8
 73
4
 74
0
 40
0
 40
0
 40
0
 40
0
 40
1
 40
1
 40
1
 40
1
 10
2.667385
 20
0.596723
 30
0.0
 10
2.628635
 20
0.678247
 30
0.0
 10
2.586654
 20
0.768190
 30
0.0
 10
2.574351
 20
0.796168
 30
0.0
  0
LWPOLYLINE
  5
251
100
AcDbEntity
  8
Layer_1
 62
7
100
AcDbPolyline
 90
2
 70
0
 10
2.546260
 20
0.859752
 30
0.0
 10
2.498496
 20
0.732732
 30
0.0
  0
SPLINE
  5
252
100
AcDbEntity
  8
Layer_1
 62
7
100
AcDbSpline
 70
8
 71
3
 72
8
 73
4
 74
0
 40
0
 40
0
 40
0
 40
0
 40
1
 40
1
 40
1
 40
1
 10
7.573842
 20
0.850681
 30
0.0
 10
7.575009
 20
0.850174
 30
0.0
 10
7.575888
 20
0.849729
 30
0.0
 10
7.577243
 20
0.848927
 30
0.0
  0
SPLINE
  5
253
100
AcDbEntity
  8
Layer_1
 62
7
100
AcDbSpline
 70
8
 71
3
 72
8
 73
4
 74
0
 40
0
 40
0
 40
0
 40
0
 40
1
 40
1
 40
1
 40
1
 10
7.577243
 20
0.848927
 30
0.0
 10
7.582629
 20
0.846092
 30
0.0
 10
7.590566
 20
0.841840
 30
0.0
 10
7.599920
 20
0.836171
 30
0.0
  0
SPLINE
  5
254
100
AcDbEntity
  8
Layer_1
 62
7
100
AcDbSpline
 70
8
 71
3
 72
8
 73
4
 74
0
 40
0
 40
0
 40
0
 40
0
 40
1
 40
1
 40
1
 40
1
 10
7.599920
 20
0.836171
 30
0.0
 10
7.619196
 20
0.825116
 30
0.0
 10
7.645190
 20
0.808958
 30
0.0
 10
7.673281
 20
0.791072
 30
0.0
  0
SPLINE
  5
255
100
AcDbEntity
  8
Layer_1
 62
7
100
AcDbSpline
 70
8
 71
3
 72
8
 73
4
 74
0
 40
0
 40
0
 40
0
 40
0
 40
1
 40
1
 40
1
 40
1
 10
7.673281
 20
0.791072
 30
0.0
 10
7.765634
 20
0.731856
 30
0.0
 10
7.829130
 20
0.698946
 30
0.0
 10
7.886701
 20
0.680804
 30
0.0
  0
SPLINE
  5
256
100
AcDbEntity
  8
Layer_1
 62
7
100
AcDbSpline
 70
8
 71
3
 72
8
 73
4
 74
0
 40
0
 40
0
 40
0
 40
0
 40
1
 40
1
 40
1
 40
1
 10
7.886701
 20
0.680804
 30
0.0
 10
7.890386
 20
0.679633
 30
0.0
 10
7.891237
 20
0.678542
 30
0.0
 10
7.892087
 20
0.677686
 30
0.0
  0
SPLINE
  5
257
100
AcDbEntity
  8
Layer_1
 62
7
100
AcDbSpline
 70
8
 71
3
 72
8
 73
4
 74
0
 40
0
 40
0
 40
0
 40
0
 40
1
 40
1
 40
1
 40
1
 10
7.892087
 20
0.677686
 30
0.0
 10
7.892572
 20
0.676807
 30
0.0
 10
7.892960
 20
0.674284
 30
0.0
 10
7.891282
 20
0.668898
 30
0.0
  0
SPLINE
  5
258
100
AcDbEntity
  8
Layer_1
 62
7
100
AcDbSpline
 70
8
 71
3
 72
8
 73
4
 74
0
 40
0
 40
0
 40
0
 40
0
 40
1
 40
1
 40
1
 40
1
 10
7.891282
 20
0.668898
 30
0.0
 10
7.887881
 20
0.658127
 30
0.0
 10
7.877392
 20
0.637576
 30
0.0
 10
7.857068
 20
0.602794
 30
0.0
  0
SPLINE
  5
259
100
AcDbEntity
  8
Layer_1
 62
7
100
AcDbSpline
 70
8
 71
3
 72
8
 73
4
 74
0
 40
0
 40
0
 40
0
 40
0
 40
1
 40
1
 40
1
 40
1
 10
7.857068
 20
0.602794
 30
0.0
 10
7.831556
 20
0.558234
 30
0.0
 10
7.774296
 20
0.443913
 30
0.0
 10
7.729821
 20
0.348130
 30
0.0
  0
SPLINE
  5
25a
100
AcDbEntity
  8
Layer_1
 62
7
100
AcDbSpline
 70
8
 71
3
 72
8
 73
4
 74
0
 40
0
 40
0
 40
0
 40
0
 40
1
 40
1
 40
1
 40
1
 10
7.729821
 20
0.348130
 30
0.0
 10
7.636929
 20
0.147919
 30
0.0
 10
7.595572
 20
0.078498
 30
0.0
 10
7.561500
 20
0.057559
 30
0.0
  0
SPLINE
  5
25b
100
AcDbEntity
  8
Layer_1
 62
7
100
AcDbSpline
 70
8
 71
3
 72
8
 73
4
 74
0
 40
0
 40
0
 40
0
 40
0
 40
1
 40
1
 40
1
 40
1
 10
7.561500
 20
0.057559
 30
0.0
 10
7.556114
 20
0.054157
 30
0.0
 10
7.539956
 20
0.049338
 30
0.0
 10
7.521106
 20
0.045653
 30
0.0
  0
SPLINE
  5
25c
100
AcDbEntity
  8
Layer_1
 62
7
100
AcDbSpline
 70
8
 71
3
 72
8
 73
4
 74
0
 40
0
 40
0
 40
0
 40
0
 40
1
 40
1
 40
1
 40
1
 10
7.521106
 20
0.045653
 30
0.0
 10
7.502114
 20
0.041968
 30
0.0
 10
7.479266
 20
0.039134
 30
0.0
 10
7.457525
 20
0.037716
 30
0.0
  0
SPLINE
  5
25d
100
AcDbEntity
  8
Layer_1
 62
7
100
AcDbSpline
 70
8
 71
3
 72
8
 73
4
 74
0
 40
0
 40
0
 40
0
 40
0
 40
1
 40
1
 40
1
 40
1
 10
7.457525
 20
0.037716
 30
0.0
 10
7.425777
 20
0.035667
 30
0.0
 10
7.405339
 20
0.035247
 30
0.0
 10
7.391789
 20
0.037138
 30
0.0
  0
SPLINE
  5
25e
100
AcDbEntity
  8
Layer_1
 62
7
100
AcDbSpline
 70
8
 71
3
 72
8
 73
4
 74
0
 40
0
 40
0
 40
0
 40
0
 40
1
 40
1
 40
1
 40
1
 10
7.391789
 20
0.037138
 30
0.0
 10
7.378466
 20
0.038964
 30
0.0
 10
7.372514
 20
0.042524
 30
0.0
 10
7.367128
 20
0.048193
 30
0.0
  0
SPLINE
  5
25f
100
AcDbEntity
  8
Layer_1
 62
7
100
AcDbSpline
 70
8
 71
3
 72
8
 73
4
 74
0
 40
0
 40
0
 40
0
 40
0
 40
1
 40
1
 40
1
 40
1
 10
7.367128
 20
0.048193
 30
0.0
 10
7.361742
 20
0.054429
 30
0.0
 10
7.359758
 20
0.060949
 30
0.0
 10
7.361742
 20
0.079516
 30
0.0
  0
SPLINE
  5
260
100
AcDbEntity
  8
Layer_1
 62
7
100
AcDbSpline
 70
8
 71
3
 72
8
 73
4
 74
0
 40
0
 40
0
 40
0
 40
0
 40
1
 40
1
 40
1
 40
1
 10
7.361742
 20
0.079516
 30
0.0
 10
7.363718
 20
0.097658
 30
0.0
 10
7.370529
 20
0.126429
 30
0.0
 10
7.382435
 20
0.172918
 30
0.0
  0
SPLINE
  5
261
100
AcDbEntity
  8
Layer_1
 62
7
100
AcDbSpline
 70
8
 71
3
 72
8
 73
4
 74
0
 40
0
 40
0
 40
0
 40
0
 40
1
 40
1
 40
1
 40
1
 10
7.382435
 20
0.172918
 30
0.0
 10
7.403128
 20
0.252514
 30
0.0
 10
7.450240
 20
0.422111
 30
0.0
 10
7.492703
 20
0.572382
 30
0.0
  0
SPLINE
  5
262
100
AcDbEntity
  8
Layer_1
 62
7
100
AcDbSpline
 70
8
 71
3
 72
8
 73
4
 74
0
 40
0
 40
0
 40
0
 40
0
 40
1
 40
1
 40
1
 40
1
 10
7.492703
 20
0.572382
 30
0.0
 10
7.514246
 20
0.647528
 30
0.0
 10
7.533947
 20
0.717714
 30
0.0
 10
7.549084
 20
0.769531
 30
0.0
  0
SPLINE
  5
263
100
AcDbEntity
  8
Layer_1
 62
7
100
AcDbSpline
 70
8
 71
3
 72
8
 73
4
 74
0
 40
0
 40
0
 40
0
 40
0
 40
1
 40
1
 40
1
 40
1
 10
7.549084
 20
0.769531
 30
0.0
 10
7.556454
 20
0.795610
 30
0.0
 10
7.562690
 20
0.816898
 30
0.0
 10
7.567226
 20
0.831808
 30
0.0
  0
SPLINE
  5
264
100
AcDbEntity
  8
Layer_1
 62
7
100
AcDbSpline
 70
8
 71
3
 72
8
 73
4
 74
0
 40
0
 40
0
 40
0
 40
0
 40
1
 40
1
 40
1
 40
1
 10
7.567226
 20
0.831808
 30
0.0
 10
7.569490
 20
0.839178
 30
0.0
 10
7.571477
 20
0.845131
 30
0.0
 10
7.572611
 20
0.849100
 30
0.0
  0
SPLINE
  5
265
100
AcDbEntity
  8
Layer_1
 62
7
100
AcDbSpline
 70
8
 71
3
 72
8
 73
4
 74
0
 40
0
 40
0
 40
0
 40
0
 40
1
 40
1
 40
1
 40
1
 10
7.572611
 20
0.849100
 30
0.0
 10
7.572844
 20
0.849800
 30
0.0
 10
7.572986
 20
0.850049
 30
0.0
 10
7.573187
 20
0.850630
 30
0.0
  0
LWPOLYLINE
  5
266
100
AcDbEntity
  8
Layer_1
 62
7
100
AcDbPolyline
 90
2
 70
0
 10
2.574351
 20
0.796168
 30
0.0
 10
2.546260
 20
0.859752
 30
0.0
  0
SPLINE
  5
267
100
AcDbEntity
  8
Layer_1
 62
7
100
AcDbSpline
 70
8
 71
3
 72
8
 73
4
 74
0
 40
0
 40
0
 40
0
 40
0
 40
1
 40
1
 40
1
 40
1
 10
6.759822
 20
0.845863
 30
0.0
 10
6.756704
 20
0.844618
 30
0.0
 10
6.755287
 20
0.842461
 30
0.0
 10
6.753302
 20
0.839626
 30
0.0
  0
SPLINE
  5
268
100
AcDbEntity
  8
Layer_1
 62
7
100
AcDbSpline
 70
8
 71
3
 72
8
 73
4
 74
0
 40
0
 40
0
 40
0
 40
0
 40
1
 40
1
 40
1
 40
1
 10
6.753302
 20
0.839626
 30
0.0
 10
6.745932
 20
0.828855
 30
0.0
 10
6.738562
 20
0.805412
 30
0.0
 10
6.723624
 20
0.760171
 30
0.0
  0
SPLINE
  5
269
100
AcDbEntity
  8
Layer_1
 62
7
100
AcDbSpline
 70
8
 71
3
 72
8
 73
4
 74
0
 40
0
 40
0
 40
0
 40
0
 40
1
 40
1
 40
1
 40
1
 10
6.723624
 20
0.760171
 30
0.0
 10
6.706332
 20
0.707872
 30
0.0
 10
6.672798
 20
0.628729
 30
0.0
 10
6.649668
 20
0.585387
 30
0.0
  0
LWPOLYLINE
  5
26a
100
AcDbEntity
  8
Layer_1
 62
7
100
AcDbPolyline
 90
2
 70
0
 10
7.573187
 20
0.850630
 30
0.0
 10
7.573842
 20
0.850681
 30
0.0
  0
SPLINE
  5
26b
100
AcDbEntity
  8
Layer_1
 62
7
100
AcDbSpline
 70
8
 71
3
 72
8
 73
4
 74
0
 40
0
 40
0
 40
0
 40
0
 40
1
 40
1
 40
1
 40
1
 10
6.712143
 20
0.302234
 30
0.0
 10
6.767447
 20
0.197948
 30
0.0
 10
6.805460
 20
0.130114
 30
0.0
 10
6.834969
 20
0.086177
 30
0.0
  0
SPLINE
  5
26c
100
AcDbEntity
  8
Layer_1
 62
7
100
AcDbSpline
 70
8
 71
3
 72
8
 73
4
 74
0
 40
0
 40
0
 40
0
 40
0
 40
1
 40
1
 40
1
 40
1
 10
6.834969
 20
0.086177
 30
0.0
 10
6.864647
 20
0.042212
 30
0.0
 10
6.885709
 20
0.021633
 30
0.0
 10
6.907535
 20
0.012817
 30
0.0
  0
SPLINE
  5
26d
100
AcDbEntity
  8
Layer_1
 62
7
100
AcDbSpline
 70
8
 71
3
 72
8
 73
4
 74
0
 40
0
 40
0
 40
0
 40
0
 40
1
 40
1
 40
1
 40
1
 10
6.907535
 20
0.012817
 30
0.0
 10
6.923126
 20
0.006581
 30
0.0
 10
6.945860
 20
0.002896
 30
0.0
 10
6.968282
 20
0.002045
 30
0.0
  0
SPLINE
  5
26e
100
AcDbEntity
  8
Layer_1
 62
7
100
AcDbSpline
 70
8
 71
3
 72
8
 73
4
 74
0
 40
0
 40
0
 40
0
 40
0
 40
1
 40
1
 40
1
 40
1
 10
6.968282
 20
0.002045
 30
0.0
 10
6.990676
 20
0.001166
 30
0.0
 10
7.012332
 20
0.002714
 30
0.0
 10
7.026562
 20
0.008281
 30
0.0
  0
SPLINE
  5
26f
100
AcDbEntity
  8
Layer_1
 62
7
100
AcDbSpline
 70
8
 71
3
 72
8
 73
4
 74
0
 40
0
 40
0
 40
0
 40
0
 40
1
 40
1
 40
1
 40
1
 10
7.026562
 20
0.008281
 30
0.0
 10
7.035633
 20
0.011683
 30
0.0
 10
7.041019
 20
0.021037
 30
0.0
 10
7.043854
 20
0.032659
 30
0.0
  0
SPLINE
  5
270
100
AcDbEntity
  8
Layer_1
 62
7
100
AcDbSpline
 70
8
 71
3
 72
8
 73
4
 74
0
 40
0
 40
0
 40
0
 40
0
 40
1
 40
1
 40
1
 40
1
 10
7.043854
 20
0.032659
 30
0.0
 10
7.046972
 20
0.044281
 30
0.0
 10
7.047539
 20
0.059022
 30
0.0
 10
7.046688
 20
0.077163
 30
0.0
  0
SPLINE
  5
271
100
AcDbEntity
  8
Layer_1
 62
7
100
AcDbSpline
 70
8
 71
3
 72
8
 73
4
 74
0
 40
0
 40
0
 40
0
 40
0
 40
1
 40
1
 40
1
 40
1
 10
7.046688
 20
0.077163
 30
0.0
 10
7.045007
 20
0.113447
 30
0.0
 10
7.036767
 20
0.161863
 30
0.0
 10
7.022310
 20
0.218357
 30
0.0
  0
SPLINE
  5
272
100
AcDbEntity
  8
Layer_1
 62
7
100
AcDbSpline
 70
8
 71
3
 72
8
 73
4
 74
0
 40
0
 40
0
 40
0
 40
0
 40
1
 40
1
 40
1
 40
1
 10
7.022310
 20
0.218357
 30
0.0
 10
6.994247
 20
0.331289
 30
0.0
 10
6.943592
 20
0.475970
 30
0.0
 10
6.880351
 20
0.613824
 30
0.0
  0
SPLINE
  5
273
100
AcDbEntity
  8
Layer_1
 62
7
100
AcDbSpline
 70
8
 71
3
 72
8
 73
4
 74
0
 40
0
 40
0
 40
0
 40
0
 40
1
 40
1
 40
1
 40
1
 10
6.880351
 20
0.613824
 30
0.0
 10
6.832871
 20
0.717345
 30
0.0
 10
6.787942
 20
0.813695
 30
0.0
 10
6.779665
 20
0.829711
 30
0.0
  0
SPLINE
  5
274
100
AcDbEntity
  8
Layer_1
 62
7
100
AcDbSpline
 70
8
 71
3
 72
8
 73
4
 74
0
 40
0
 40
0
 40
0
 40
0
 40
1
 40
1
 40
1
 40
1
 10
6.779665
 20
0.829711
 30
0.0
 10
6.776263
 20
0.836230
 30
0.0
 10
6.773995
 20
0.840766
 30
0.0
 10
6.769460
 20
0.844451
 30
0.0
  0
SPLINE
  5
275
100
AcDbEntity
  8
Layer_1
 62
7
100
AcDbSpline
 70
8
 71
3
 72
8
 73
4
 74
0
 40
0
 40
0
 40
0
 40
0
 40
1
 40
1
 40
1
 40
1
 10
6.769460
 20
0.844451
 30
0.0
 10
6.767198
 20
0.846132
 30
0.0
 10
6.763224
 20
0.846920
 30
0.0
 10
6.760106
 20
0.845766
 30
0.0
  0
LWPOLYLINE
  5
276
100
AcDbEntity
  8
Layer_1
 62
7
100
AcDbPolyline
 90
3
 70
0
 10
6.649668
 20
0.585387
 30
0.0
 10
6.605731
 20
0.502842
 30
0.0
 10
6.712143
 20
0.302234
 30
0.0
  0
SPLINE
  5
277
100
AcDbEntity
  8
Layer_1
 62
7
100
AcDbSpline
 70
8
 71
3
 72
8
 73
4
 74
0
 40
0
 40
0
 40
0
 40
0
 40
1
 40
1
 40
1
 40
1
 10
5.327983
 20
0.841327
 30
0.0
 10
5.327926
 20
0.841330
 30
0.0
 10
5.326152
 20
0.841149
 30
0.0
 10
5.326078
 20
0.841129
 30
0.0
  0
SPLINE
  5
278
100
AcDbEntity
  8
Layer_1
 62
7
100
AcDbSpline
 70
8
 71
3
 72
8
 73
4
 74
0
 40
0
 40
0
 40
0
 40
0
 40
1
 40
1
 40
1
 40
1
 10
5.326078
 20
0.841129
 30
0.0
 10
5.326013
 20
0.841112
 30
0.0
 10
5.325131
 20
0.840757
 30
0.0
 10
5.324763
 20
0.840553
 30
0.0
  0
SPLINE
  5
279
100
AcDbEntity
  8
Layer_1
 62
7
100
AcDbSpline
 70
8
 71
3
 72
8
 73
4
 74
0
 40
0
 40
0
 40
0
 40
0
 40
1
 40
1
 40
1
 40
1
 10
5.324763
 20
0.840553
 30
0.0
 10
5.323226
 20
0.839748
 30
0.0
 10
5.322506
 20
0.839020
 30
0.0
 10
5.321928
 20
0.838288
 30
0.0
  0
SPLINE
  5
27a
100
AcDbEntity
  8
Layer_1
 62
7
100
AcDbSpline
 70
8
 71
3
 72
8
 73
4
 74
0
 40
0
 40
0
 40
0
 40
0
 40
1
 40
1
 40
1
 40
1
 10
5.321928
 20
0.838288
 30
0.0
 10
5.320689
 20
0.836755
 30
0.0
 10
5.319666
 20
0.834887
 30
0.0
 10
5.318527
 20
0.832903
 30
0.0
  0
SPLINE
  5
27b
100
AcDbEntity
  8
Layer_1
 62
7
100
AcDbSpline
 70
8
 71
3
 72
8
 73
4
 74
0
 40
0
 40
0
 40
0
 40
0
 40
1
 40
1
 40
1
 40
1
 10
5.318527
 20
0.832903
 30
0.0
 10
5.316060
 20
0.828367
 30
0.0
 10
5.313141
 20
0.822131
 30
0.0
 10
5.309739
 20
0.813910
 30
0.0
  0
SPLINE
  5
27c
100
AcDbEntity
  8
Layer_1
 62
7
100
AcDbSpline
 70
8
 71
3
 72
8
 73
4
 74
0
 40
0
 40
0
 40
0
 40
0
 40
1
 40
1
 40
1
 40
1
 10
5.309739
 20
0.813910
 30
0.0
 10
5.303220
 20
0.797469
 30
0.0
 10
5.294999
 20
0.774339
 30
0.0
 10
5.286212
 20
0.748175
 30
0.0
  0
SPLINE
  5
27d
100
AcDbEntity
  8
Layer_1
 62
7
100
AcDbSpline
 70
8
 71
3
 72
8
 73
4
 74
0
 40
0
 40
0
 40
0
 40
0
 40
1
 40
1
 40
1
 40
1
 10
5.286212
 20
0.748175
 30
0.0
 10
5.269204
 20
0.696443
 30
0.0
 10
5.237824
 20
0.622430
 30
0.0
 10
5.217046
 20
0.584843
 30
0.0
  0
SPLINE
  5
27e
100
AcDbEntity
  8
Layer_1
 62
7
100
AcDbSpline
 70
8
 71
3
 72
8
 73
4
 74
0
 40
0
 40
0
 40
0
 40
0
 40
1
 40
1
 40
1
 40
1
 10
5.217046
 20
0.584843
 30
0.0
 10
5.206275
 20
0.565567
 30
0.0
 10
5.196920
 20
0.546518
 30
0.0
 10
5.189834
 20
0.531183
 30
0.0
  0
SPLINE
  5
27f
100
AcDbEntity
  8
Layer_1
 62
7
100
AcDbSpline
 70
8
 71
3
 72
8
 73
4
 74
0
 40
0
 40
0
 40
0
 40
0
 40
1
 40
1
 40
1
 40
1
 10
5.189834
 20
0.531183
 30
0.0
 10
5.186432
 20
0.523813
 30
0.0
 10
5.183597
 20
0.516726
 30
0.0
 10
5.181613
 20
0.511340
 30
0.0
  0
SPLINE
  5
280
100
AcDbEntity
  8
Layer_1
 62
7
100
AcDbSpline
 70
8
 71
3
 72
8
 73
4
 74
0
 40
0
 40
0
 40
0
 40
0
 40
1
 40
1
 40
1
 40
1
 10
5.181613
 20
0.511340
 30
0.0
 10
5.179567
 20
0.505954
 30
0.0
 10
5.178212
 20
0.502553
 30
0.0
 10
5.178212
 20
0.498584
 30
0.0
  0
SPLINE
  5
281
100
AcDbEntity
  8
Layer_1
 62
7
100
AcDbSpline
 70
8
 71
3
 72
8
 73
4
 74
0
 40
0
 40
0
 40
0
 40
0
 40
1
 40
1
 40
1
 40
1
 10
5.178212
 20
0.498584
 30
0.0
 10
5.178212
 20
0.495183
 30
0.0
 10
5.179232
 20
0.492065
 30
0.0
 10
5.181046
 20
0.487529
 30
0.0
  0
SPLINE
  5
282
100
AcDbEntity
  8
Layer_1
 62
7
100
AcDbSpline
 70
8
 71
3
 72
8
 73
4
 74
0
 40
0
 40
0
 40
0
 40
0
 40
1
 40
1
 40
1
 40
1
 10
5.181046
 20
0.487529
 30
0.0
 10
5.182654
 20
0.482994
 30
0.0
 10
5.185298
 20
0.477325
 30
0.0
 10
5.187566
 20
0.470521
 30
0.0
  0
SPLINE
  5
283
100
AcDbEntity
  8
Layer_1
 62
7
100
AcDbSpline
 70
8
 71
3
 72
8
 73
4
 74
0
 40
0
 40
0
 40
0
 40
0
 40
1
 40
1
 40
1
 40
1
 10
5.187566
 20
0.470521
 30
0.0
 10
5.193235
 20
0.457199
 30
0.0
 10
5.202023
 20
0.439595
 30
0.0
 10
5.212227
 20
0.419129
 30
0.0
  0
SPLINE
  5
284
100
AcDbEntity
  8
Layer_1
 62
7
100
AcDbSpline
 70
8
 71
3
 72
8
 73
4
 74
0
 40
0
 40
0
 40
0
 40
0
 40
1
 40
1
 40
1
 40
1
 10
5.212227
 20
0.419129
 30
0.0
 10
5.232353
 20
0.378310
 30
0.0
 10
5.260218
 20
0.325813
 30
0.0
 10
5.288848
 20
0.273173
 30
0.0
  0
SPLINE
  5
285
100
AcDbEntity
  8
Layer_1
 62
7
100
AcDbSpline
 70
8
 71
3
 72
8
 73
4
 74
0
 40
0
 40
0
 40
0
 40
0
 40
1
 40
1
 40
1
 40
1
 10
5.288848
 20
0.273173
 30
0.0
 10
5.317705
 20
0.220534
 30
0.0
 10
5.347128
 20
0.167498
 30
0.0
 10
5.371931
 20
0.125290
 30
0.0
  0
SPLINE
  5
286
100
AcDbEntity
  8
Layer_1
 62
7
100
AcDbSpline
 70
8
 71
3
 72
8
 73
4
 74
0
 40
0
 40
0
 40
0
 40
0
 40
1
 40
1
 40
1
 40
1
 10
5.371931
 20
0.125290
 30
0.0
 10
5.384404
 20
0.104314
 30
0.0
 10
5.395459
 20
0.085718
 30
0.0
 10
5.404898
 20
0.071432
 30
0.0
  0
SPLINE
  5
287
100
AcDbEntity
  8
Layer_1
 62
7
100
AcDbSpline
 70
8
 71
3
 72
8
 73
4
 74
0
 40
0
 40
0
 40
0
 40
0
 40
1
 40
1
 40
1
 40
1
 10
5.404898
 20
0.071432
 30
0.0
 10
5.413686
 20
0.058109
 30
0.0
 10
5.419638
 20
0.049038
 30
0.0
 10
5.424741
 20
0.043369
 30
0.0
  0
LWPOLYLINE
  5
288
100
AcDbEntity
  8
Layer_1
 62
7
100
AcDbPolyline
 90
2
 70
0
 10
6.760106
 20
0.845766
 30
0.0
 10
6.759822
 20
0.845863
 30
0.0
  0
SPLINE
  5
289
100
AcDbEntity
  8
Layer_1
 62
7
100
AcDbSpline
 70
8
 71
3
 72
8
 73
4
 74
0
 40
0
 40
0
 40
0
 40
0
 40
1
 40
1
 40
1
 40
1
 10
5.426274
 20
0.041229
 30
0.0
 10
5.442715
 20
0.023937
 30
0.0
 10
5.453770
 20
0.013166
 30
0.0
 10
5.469049
 20
0.007836
 30
0.0
  0
SPLINE
  5
28a
100
AcDbEntity
  8
Layer_1
 62
7
100
AcDbSpline
 70
8
 71
3
 72
8
 73
4
 74
0
 40
0
 40
0
 40
0
 40
0
 40
1
 40
1
 40
1
 40
1
 10
5.469049
 20
0.007836
 30
0.0
 10
5.484356
 20
0.002451
 30
0.0
 10
5.502838
 20
0.001600
 30
0.0
 10
5.534586
 20
0.001600
 30
0.0
  0
SPLINE
  5
28b
100
AcDbEntity
  8
Layer_1
 62
7
100
AcDbSpline
 70
8
 71
3
 72
8
 73
4
 74
0
 40
0
 40
0
 40
0
 40
0
 40
1
 40
1
 40
1
 40
1
 10
5.534586
 20
0.001600
 30
0.0
 10
5.557263
 20
0.001600
 30
0.0
 10
5.575405
 20
0.002845
 30
0.0
 10
5.588444
 20
0.005285
 30
0.0
  0
SPLINE
  5
28c
100
AcDbEntity
  8
Layer_1
 62
7
100
AcDbSpline
 70
8
 71
3
 72
8
 73
4
 74
0
 40
0
 40
0
 40
0
 40
0
 40
1
 40
1
 40
1
 40
1
 10
5.588444
 20
0.005285
 30
0.0
 10
5.594964
 20
0.006600
 30
0.0
 10
5.600350
 20
0.008403
 30
0.0
 10
5.604602
 20
0.010104
 30
0.0
  0
SPLINE
  5
28d
100
AcDbEntity
  8
Layer_1
 62
7
100
AcDbSpline
 70
8
 71
3
 72
8
 73
4
 74
0
 40
0
 40
0
 40
0
 40
0
 40
1
 40
1
 40
1
 40
1
 10
5.604602
 20
0.010104
 30
0.0
 10
5.608854
 20
0.012366
 30
0.0
 10
5.612539
 20
0.014923
 30
0.0
 10
5.613956
 20
0.019458
 30
0.0
  0
SPLINE
  5
28e
100
AcDbEntity
  8
Layer_1
 62
7
100
AcDbSpline
 70
8
 71
3
 72
8
 73
4
 74
0
 40
0
 40
0
 40
0
 40
0
 40
1
 40
1
 40
1
 40
1
 10
5.613956
 20
0.019458
 30
0.0
 10
5.617641
 20
0.029380
 30
0.0
 10
5.617074
 20
0.044970
 30
0.0
 10
5.614532
 20
0.067591
 30
0.0
  0
SPLINE
  5
28f
100
AcDbEntity
  8
Layer_1
 62
7
100
AcDbSpline
 70
8
 71
3
 72
8
 73
4
 74
0
 40
0
 40
0
 40
0
 40
0
 40
1
 40
1
 40
1
 40
1
 10
5.614532
 20
0.067591
 30
0.0
 10
5.612063
 20
0.090268
 30
0.0
 10
5.607162
 20
0.119096
 30
0.0
 10
5.599791
 20
0.152205
 30
0.0
  0
SPLINE
  5
290
100
AcDbEntity
  8
Layer_1
 62
7
100
AcDbSpline
 70
8
 71
3
 72
8
 73
4
 74
0
 40
0
 40
0
 40
0
 40
0
 40
1
 40
1
 40
1
 40
1
 10
5.599791
 20
0.152205
 30
0.0
 10
5.585902
 20
0.218451
 30
0.0
 10
5.563508
 20
0.301647
 30
0.0
 10
5.536947
 20
0.384901
 30
0.0
  0
SPLINE
  5
291
100
AcDbEntity
  8
Layer_1
 62
7
100
AcDbSpline
 70
8
 71
3
 72
8
 73
4
 74
0
 40
0
 40
0
 40
0
 40
0
 40
1
 40
1
 40
1
 40
1
 10
5.536947
 20
0.384901
 30
0.0
 10
5.525042
 20
0.422006
 30
0.0
 10
5.478724
 20
0.530063
 30
0.0
 10
5.432831
 20
0.632110
 30
0.0
  0
SPLINE
  5
292
100
AcDbEntity
  8
Layer_1
 62
7
100
AcDbSpline
 70
8
 71
3
 72
8
 73
4
 74
0
 40
0
 40
0
 40
0
 40
0
 40
1
 40
1
 40
1
 40
1
 10
5.432831
 20
0.632110
 30
0.0
 10
5.410154
 20
0.683134
 30
0.0
 10
5.387136
 20
0.732599
 30
0.0
 10
5.369023
 20
0.770214
 30
0.0
  0
SPLINE
  5
293
100
AcDbEntity
  8
Layer_1
 62
7
100
AcDbSpline
 70
8
 71
3
 72
8
 73
4
 74
0
 40
0
 40
0
 40
0
 40
0
 40
1
 40
1
 40
1
 40
1
 10
5.369023
 20
0.770214
 30
0.0
 10
5.359952
 20
0.788640
 30
0.0
 10
5.352015
 20
0.804825
 30
0.0
 10
5.346062
 20
0.816617
 30
0.0
  0
SPLINE
  5
294
100
AcDbEntity
  8
Layer_1
 62
7
100
AcDbSpline
 70
8
 71
3
 72
8
 73
4
 74
0
 40
0
 40
0
 40
0
 40
0
 40
1
 40
1
 40
1
 40
1
 10
5.346062
 20
0.816617
 30
0.0
 10
5.342944
 20
0.822287
 30
0.0
 10
5.340393
 20
0.827389
 30
0.0
 10
5.338125
 20
0.831074
 30
0.0
  0
SPLINE
  5
295
100
AcDbEntity
  8
Layer_1
 62
7
100
AcDbSpline
 70
8
 71
3
 72
8
 73
4
 74
0
 40
0
 40
0
 40
0
 40
0
 40
1
 40
1
 40
1
 40
1
 10
5.338125
 20
0.831074
 30
0.0
 10
5.335863
 20
0.835043
 30
0.0
 10
5.334724
 20
0.837310
 30
0.0
 10
5.332740
 20
0.839295
 30
0.0
  0
SPLINE
  5
296
100
AcDbEntity
  8
Layer_1
 62
7
100
AcDbSpline
 70
8
 71
3
 72
8
 73
4
 74
0
 40
0
 40
0
 40
0
 40
0
 40
1
 40
1
 40
1
 40
1
 10
5.332740
 20
0.839295
 30
0.0
 10
5.332689
 20
0.839340
 30
0.0
 10
5.331059
 20
0.840392
 30
0.0
 10
5.330982
 20
0.840460
 30
0.0
  0
SPLINE
  5
297
100
AcDbEntity
  8
Layer_1
 62
7
100
AcDbSpline
 70
8
 71
3
 72
8
 73
4
 74
0
 40
0
 40
0
 40
0
 40
0
 40
1
 40
1
 40
1
 40
1
 10
5.330982
 20
0.840460
 30
0.0
 10
5.330931
 20
0.840491
 30
0.0
 10
5.328720
 20
0.841029
 30
0.0
 10
5.328720
 20
0.841041
 30
0.0
  0
LWPOLYLINE
  5
298
100
AcDbEntity
  8
Layer_1
 62
7
100
AcDbPolyline
 90
3
 70
0
 10
5.424741
 20
0.043369
 30
0.0
 10
5.424741
 20
0.042989
 30
0.0
 10
5.426274
 20
0.041229
 30
0.0
  0
SPLINE
  5
299
100
AcDbEntity
  8
Layer_1
 62
7
100
AcDbSpline
 70
8
 71
3
 72
8
 73
4
 74
0
 40
0
 40
0
 40
0
 40
0
 40
1
 40
1
 40
1
 40
1
 10
6.763260
 20
0.834240
 30
0.0
 10
6.764213
 20
0.833220
 30
0.0
 10
6.766662
 20
0.829989
 30
0.0
 10
6.769497
 20
0.824319
 30
0.0
  0
SPLINE
  5
29a
100
AcDbEntity
  8
Layer_1
 62
7
100
AcDbSpline
 70
8
 71
3
 72
8
 73
4
 74
0
 40
0
 40
0
 40
0
 40
0
 40
1
 40
1
 40
1
 40
1
 10
6.769497
 20
0.824319
 30
0.0
 10
6.776867
 20
0.810429
 30
0.0
 10
6.822306
 20
0.712492
 30
0.0
 10
6.869786
 20
0.609000
 30
0.0
  0
SPLINE
  5
29b
100
AcDbEntity
  8
Layer_1
 62
7
100
AcDbSpline
 70
8
 71
3
 72
8
 73
4
 74
0
 40
0
 40
0
 40
0
 40
0
 40
1
 40
1
 40
1
 40
1
 10
6.869786
 20
0.609000
 30
0.0
 10
6.932716
 20
0.471831
 30
0.0
 10
6.983172
 20
0.327689
 30
0.0
 10
7.011150
 20
0.215636
 30
0.0
  0
SPLINE
  5
29c
100
AcDbEntity
  8
Layer_1
 62
7
100
AcDbSpline
 70
8
 71
3
 72
8
 73
4
 74
0
 40
0
 40
0
 40
0
 40
0
 40
1
 40
1
 40
1
 40
1
 10
7.011150
 20
0.215636
 30
0.0
 10
7.025040
 20
0.159623
 30
0.0
 10
7.033544
 20
0.111576
 30
0.0
 10
7.034961
 20
0.076738
 30
0.0
  0
SPLINE
  5
29d
100
AcDbEntity
  8
Layer_1
 62
7
100
AcDbSpline
 70
8
 71
3
 72
8
 73
4
 74
0
 40
0
 40
0
 40
0
 40
0
 40
1
 40
1
 40
1
 40
1
 10
7.034961
 20
0.076738
 30
0.0
 10
7.035766
 20
0.059447
 30
0.0
 10
7.034961
 20
0.044990
 30
0.0
 10
7.032492
 20
0.035267
 30
0.0
  0
SPLINE
  5
29e
100
AcDbEntity
  8
Layer_1
 62
7
100
AcDbSpline
 70
8
 71
3
 72
8
 73
4
 74
0
 40
0
 40
0
 40
0
 40
0
 40
1
 40
1
 40
1
 40
1
 10
7.032492
 20
0.035267
 30
0.0
 10
7.030023
 20
0.025346
 30
0.0
 10
7.026256
 20
0.020527
 30
0.0
 10
7.022288
 20
0.019110
 30
0.0
  0
SPLINE
  5
29f
100
AcDbEntity
  8
Layer_1
 62
7
100
AcDbSpline
 70
8
 71
3
 72
8
 73
4
 74
0
 40
0
 40
0
 40
0
 40
0
 40
1
 40
1
 40
1
 40
1
 10
7.022288
 20
0.019110
 30
0.0
 10
7.011232
 20
0.014858
 30
0.0
 10
6.990143
 20
0.012874
 30
0.0
 10
6.968628
 20
0.013724
 30
0.0
  0
SPLINE
  5
2a0
100
AcDbEntity
  8
Layer_1
 62
7
100
AcDbSpline
 70
8
 71
3
 72
8
 73
4
 74
0
 40
0
 40
0
 40
0
 40
0
 40
1
 40
1
 40
1
 40
1
 10
6.968628
 20
0.013724
 30
0.0
 10
6.947084
 20
0.014529
 30
0.0
 10
6.924974
 20
0.018259
 30
0.0
 10
6.911510
 20
0.023645
 30
0.0
  0
SPLINE
  5
2a1
100
AcDbEntity
  8
Layer_1
 62
7
100
AcDbSpline
 70
8
 71
3
 72
8
 73
4
 74
0
 40
0
 40
0
 40
0
 40
0
 40
1
 40
1
 40
1
 40
1
 10
6.911510
 20
0.023645
 30
0.0
 10
6.893084
 20
0.031015
 30
0.0
 10
6.873185
 20
0.049724
 30
0.0
 10
6.844243
 20
0.092811
 30
0.0
  0
SPLINE
  5
2a2
100
AcDbEntity
  8
Layer_1
 62
7
100
AcDbSpline
 70
8
 71
3
 72
8
 73
4
 74
0
 40
0
 40
0
 40
0
 40
0
 40
1
 40
1
 40
1
 40
1
 10
6.844243
 20
0.092811
 30
0.0
 10
6.814990
 20
0.136039
 30
0.0
 10
6.777062
 20
0.203759
 30
0.0
 10
6.721787
 20
0.307903
 30
0.0
  0
LWPOLYLINE
  5
2a3
100
AcDbEntity
  8
Layer_1
 62
7
100
AcDbPolyline
 90
2
 70
0
 10
5.328720
 20
0.841041
 30
0.0
 10
5.327983
 20
0.841327
 30
0.0
  0
SPLINE
  5
2a4
100
AcDbEntity
  8
Layer_1
 62
7
100
AcDbSpline
 70
8
 71
3
 72
8
 73
4
 74
0
 40
0
 40
0
 40
0
 40
0
 40
1
 40
1
 40
1
 40
1
 10
6.659510
 20
0.580341
 30
0.0
 10
6.683037
 20
0.624760
 30
0.0
 10
6.716429
 20
0.703818
 30
0.0
 10
6.733976
 20
0.757025
 30
0.0
  0
SPLINE
  5
2a5
100
AcDbEntity
  8
Layer_1
 62
7
100
AcDbSpline
 70
8
 71
3
 72
8
 73
4
 74
0
 40
0
 40
0
 40
0
 40
0
 40
1
 40
1
 40
1
 40
1
 10
6.733976
 20
0.757025
 30
0.0
 10
6.748716
 20
0.802322
 30
0.0
 10
6.757503
 20
0.826275
 30
0.0
 10
6.762407
 20
0.833447
 30
0.0
  0
SPLINE
  5
2a6
100
AcDbEntity
  8
Layer_1
 62
7
100
AcDbSpline
 70
8
 71
3
 72
8
 73
4
 74
0
 40
0
 40
0
 40
0
 40
0
 40
1
 40
1
 40
1
 40
1
 10
6.762407
 20
0.833447
 30
0.0
 10
6.762949
 20
0.834249
 30
0.0
 10
6.762849
 20
0.834079
 30
0.0
 10
6.763139
 20
0.834394
 30
0.0
  0
LWPOLYLINE
  5
2a7
100
AcDbEntity
  8
Layer_1
 62
7
100
AcDbPolyline
 90
3
 70
0
 10
6.721787
 20
0.307903
 30
0.0
 10
6.618237
 20
0.503154
 30
0.0
 10
6.659510
 20
0.580341
 30
0.0
  0
LWPOLYLINE
  5
2a8
100
AcDbEntity
  8
Layer_1
 62
7
100
AcDbPolyline
 90
2
 70
0
 10
6.763139
 20
0.834394
 30
0.0
 10
6.763260
 20
0.834240
 30
0.0
  0
SPLINE
  5
2a9
100
AcDbEntity
  8
Layer_1
 62
7
100
AcDbSpline
 70
8
 71
3
 72
8
 73
4
 74
0
 40
0
 40
0
 40
0
 40
0
 40
1
 40
1
 40
1
 40
1
 10
2.564031
 20
0.791239
 30
0.0
 10
2.576503
 20
0.762807
 30
0.0
 10
2.618314
 20
0.673204
 30
0.0
 10
2.657064
 20
0.591595
 30
0.0
  0
SPLINE
  5
2aa
100
AcDbEntity
  8
Layer_1
 62
7
100
AcDbSpline
 70
8
 71
3
 72
8
 73
4
 74
0
 40
0
 40
0
 40
0
 40
0
 40
1
 40
1
 40
1
 40
1
 10
2.657064
 20
0.591595
 30
0.0
 10
2.701397
 20
0.498278
 30
0.0
 10
2.747517
 20
0.368877
 30
0.0
 10
2.779889
 20
0.256511
 30
0.0
  0
SPLINE
  5
2ab
100
AcDbEntity
  8
Layer_1
 62
7
100
AcDbSpline
 70
8
 71
3
 72
8
 73
4
 74
0
 40
0
 40
0
 40
0
 40
0
 40
1
 40
1
 40
1
 40
1
 10
2.779889
 20
0.256511
 30
0.0
 10
2.796046
 20
0.200329
 30
0.0
 10
2.808746
 20
0.148483
 30
0.0
 10
2.816569
 20
0.107466
 30
0.0
  0
SPLINE
  5
2ac
100
AcDbEntity
  8
Layer_1
 62
7
100
AcDbSpline
 70
8
 71
3
 72
8
 73
4
 74
0
 40
0
 40
0
 40
0
 40
0
 40
1
 40
1
 40
1
 40
1
 10
2.816569
 20
0.107466
 30
0.0
 10
2.820254
 20
0.086773
 30
0.0
 10
2.822805
 20
0.069141
 30
0.0
 10
2.823089
 20
0.055110
 30
0.0
  0
SPLINE
  5
2ad
100
AcDbEntity
  8
Layer_1
 62
7
100
AcDbSpline
 70
8
 71
3
 72
8
 73
4
 74
0
 40
0
 40
0
 40
0
 40
0
 40
1
 40
1
 40
1
 40
1
 10
2.823089
 20
0.055110
 30
0.0
 10
2.823888
 20
0.041220
 30
0.0
 10
2.823049
 20
0.030448
 30
0.0
 10
2.821184
 20
0.025856
 30
0.0
  0
SPLINE
  5
2ae
100
AcDbEntity
  8
Layer_1
 62
7
100
AcDbSpline
 70
8
 71
3
 72
8
 73
4
 74
0
 40
0
 40
0
 40
0
 40
0
 40
1
 40
1
 40
1
 40
1
 10
2.821184
 20
0.025856
 30
0.0
 10
2.819650
 20
0.021604
 30
0.0
 10
2.815798
 20
0.018486
 30
0.0
 10
2.805026
 20
0.016502
 30
0.0
  0
SPLINE
  5
2af
100
AcDbEntity
  8
Layer_1
 62
7
100
AcDbSpline
 70
8
 71
3
 72
8
 73
4
 74
0
 40
0
 40
0
 40
0
 40
0
 40
1
 40
1
 40
1
 40
1
 10
2.805026
 20
0.016502
 30
0.0
 10
2.794255
 20
0.014033
 30
0.0
 10
2.777530
 20
0.013100
 30
0.0
 10
2.753266
 20
0.013100
 30
0.0
  0
SPLINE
  5
2b0
100
AcDbEntity
  8
Layer_1
 62
7
100
AcDbSpline
 70
8
 71
3
 72
8
 73
4
 74
0
 40
0
 40
0
 40
0
 40
0
 40
1
 40
1
 40
1
 40
1
 10
2.753266
 20
0.013100
 30
0.0
 10
2.722765
 20
0.013100
 30
0.0
 10
2.706239
 20
0.013973
 30
0.0
 10
2.693256
 20
0.018486
 30
0.0
  0
SPLINE
  5
2b1
100
AcDbEntity
  8
Layer_1
 62
7
100
AcDbSpline
 70
8
 71
3
 72
8
 73
4
 74
0
 40
0
 40
0
 40
0
 40
0
 40
1
 40
1
 40
1
 40
1
 10
2.693256
 20
0.018486
 30
0.0
 10
2.680500
 20
0.023022
 30
0.0
 10
2.670296
 20
0.032092
 30
0.0
 10
2.652863
 20
0.049809
 30
0.0
  0
SPLINE
  5
2b2
100
AcDbEntity
  8
Layer_1
 62
7
100
AcDbSpline
 70
8
 71
3
 72
8
 73
4
 74
0
 40
0
 40
0
 40
0
 40
0
 40
1
 40
1
 40
1
 40
1
 10
2.652863
 20
0.049809
 30
0.0
 10
2.649178
 20
0.054061
 30
0.0
 10
2.641808
 20
0.063699
 30
0.0
 10
2.632170
 20
0.078240
 30
0.0
  0
SPLINE
  5
2b3
100
AcDbEntity
  8
Layer_1
 62
7
100
AcDbSpline
 70
8
 71
3
 72
8
 73
4
 74
0
 40
0
 40
0
 40
0
 40
0
 40
1
 40
1
 40
1
 40
1
 10
2.632170
 20
0.078240
 30
0.0
 10
2.623099
 20
0.092130
 30
0.0
 10
2.611477
 20
0.110811
 30
0.0
 10
2.599203
 20
0.131730
 30
0.0
  0
SPLINE
  5
2b4
100
AcDbEntity
  8
Layer_1
 62
7
100
AcDbSpline
 70
8
 71
3
 72
8
 73
4
 74
0
 40
0
 40
0
 40
0
 40
0
 40
1
 40
1
 40
1
 40
1
 10
2.599203
 20
0.131730
 30
0.0
 10
2.574541
 20
0.173740
 30
0.0
 10
2.544437
 20
0.226322
 30
0.0
 10
2.515751
 20
0.278820
 30
0.0
  0
SPLINE
  5
2b5
100
AcDbEntity
  8
Layer_1
 62
7
100
AcDbSpline
 70
8
 71
3
 72
8
 73
4
 74
0
 40
0
 40
0
 40
0
 40
0
 40
1
 40
1
 40
1
 40
1
 10
2.515751
 20
0.278820
 30
0.0
 10
2.486894
 20
0.331318
 30
0.0
 10
2.459455
 20
0.383560
 30
0.0
 10
2.439130
 20
0.424407
 30
0.0
  0
SPLINE
  5
2b6
100
AcDbEntity
  8
Layer_1
 62
7
100
AcDbSpline
 70
8
 71
3
 72
8
 73
4
 74
0
 40
0
 40
0
 40
0
 40
0
 40
1
 40
1
 40
1
 40
1
 10
2.439130
 20
0.424407
 30
0.0
 10
2.429209
 20
0.445100
 30
0.0
 10
2.420705
 20
0.462335
 30
0.0
 10
2.414752
 20
0.475800
 30
0.0
  0
SPLINE
  5
2b7
100
AcDbEntity
  8
Layer_1
 62
7
100
AcDbSpline
 70
8
 71
3
 72
8
 73
4
 74
0
 40
0
 40
0
 40
0
 40
0
 40
1
 40
1
 40
1
 40
1
 10
2.414752
 20
0.475800
 30
0.0
 10
2.411918
 20
0.482319
 30
0.0
 10
2.409934
 20
0.487705
 30
0.0
 10
2.408233
 20
0.492240
 30
0.0
  0
SPLINE
  5
2b8
100
AcDbEntity
  8
Layer_1
 62
7
100
AcDbSpline
 70
8
 71
3
 72
8
 73
4
 74
0
 40
0
 40
0
 40
0
 40
0
 40
1
 40
1
 40
1
 40
1
 10
2.408233
 20
0.492240
 30
0.0
 10
2.406770
 20
0.496492
 30
0.0
 10
2.406334
 20
0.499611
 30
0.0
 10
2.406334
 20
0.499611
 30
0.0
  0
SPLINE
  5
2b9
100
AcDbEntity
  8
Layer_1
 62
7
100
AcDbSpline
 70
8
 71
3
 72
8
 73
4
 74
0
 40
0
 40
0
 40
0
 40
0
 40
1
 40
1
 40
1
 40
1
 10
2.406334
 20
0.499611
 30
0.0
 10
2.406336
 20
0.500041
 30
0.0
 10
2.406980
 20
0.503296
 30
0.0
 10
2.408391
 20
0.507548
 30
0.0
  0
SPLINE
  5
2ba
100
AcDbEntity
  8
Layer_1
 62
7
100
AcDbSpline
 70
8
 71
3
 72
8
 73
4
 74
0
 40
0
 40
0
 40
0
 40
0
 40
1
 40
1
 40
1
 40
1
 10
2.408391
 20
0.507548
 30
0.0
 10
2.409854
 20
0.511800
 30
0.0
 10
2.411793
 20
0.516902
 30
0.0
 10
2.414628
 20
0.522855
 30
0.0
  0
SPLINE
  5
2bb
100
AcDbEntity
  8
Layer_1
 62
7
100
AcDbSpline
 70
8
 71
3
 72
8
 73
4
 74
0
 40
0
 40
0
 40
0
 40
0
 40
1
 40
1
 40
1
 40
1
 10
2.414628
 20
0.522855
 30
0.0
 10
2.420014
 20
0.534477
 30
0.0
 10
2.427384
 20
0.548933
 30
0.0
 10
2.435604
 20
0.562823
 30
0.0
  0
SPLINE
  5
2bc
100
AcDbEntity
  8
Layer_1
 62
7
100
AcDbSpline
 70
8
 71
3
 72
8
 73
4
 74
0
 40
0
 40
0
 40
0
 40
0
 40
1
 40
1
 40
1
 40
1
 10
2.435604
 20
0.562823
 30
0.0
 10
2.452612
 20
0.592077
 30
0.0
 10
2.485352
 20
0.666231
 30
0.0
 10
2.508965
 20
0.729217
 30
0.0
  0
LWPOLYLINE
  5
2bd
100
AcDbEntity
  8
Layer_1
 62
7
100
AcDbPolyline
 90
2
 70
0
 10
2.547023
 20
0.829989
 30
0.0
 10
2.564031
 20
0.791239
 30
0.0
  0
LWPOLYLINE
  5
2be
100
AcDbEntity
  8
Layer_1
 62
7
100
AcDbPolyline
 90
2
 70
0
 10
2.508965
 20
0.729217
 30
0.0
 10
2.547023
 20
0.829989
 30
0.0
  0
SPLINE
  5
2bf
100
AcDbEntity
  8
Layer_1
 62
7
100
AcDbSpline
 70
8
 71
3
 72
8
 73
4
 74
0
 40
0
 40
0
 40
0
 40
0
 40
1
 40
1
 40
1
 40
1
 10
3.966457
 20
0.791466
 30
0.0
 10
3.978930
 20
0.763034
 30
0.0
 10
4.020684
 20
0.673233
 30
0.0
 10
4.059490
 20
0.591595
 30
0.0
  0
SPLINE
  5
2c0
100
AcDbEntity
  8
Layer_1
 62
7
100
AcDbSpline
 70
8
 71
3
 72
8
 73
4
 74
0
 40
0
 40
0
 40
0
 40
0
 40
1
 40
1
 40
1
 40
1
 10
4.059490
 20
0.591595
 30
0.0
 10
4.130470
 20
0.442379
 30
0.0
 10
4.184697
 20
0.278973
 30
0.0
 10
4.214205
 20
0.124695
 30
0.0
  0
SPLINE
  5
2c1
100
AcDbEntity
  8
Layer_1
 62
7
100
AcDbSpline
 70
8
 71
3
 72
8
 73
4
 74
0
 40
0
 40
0
 40
0
 40
0
 40
1
 40
1
 40
1
 40
1
 10
4.214205
 20
0.124695
 30
0.0
 10
4.219591
 20
0.096632
 30
0.0
 10
4.223276
 20
0.075145
 30
0.0
 10
4.224410
 20
0.059158
 30
0.0
  0
SPLINE
  5
2c2
100
AcDbEntity
  8
Layer_1
 62
7
100
AcDbSpline
 70
8
 71
3
 72
8
 73
4
 74
0
 40
0
 40
0
 40
0
 40
0
 40
1
 40
1
 40
1
 40
1
 10
4.224410
 20
0.059158
 30
0.0
 10
4.225799
 20
0.043000
 30
0.0
 10
4.224464
 20
0.032795
 30
0.0
 10
4.221009
 20
0.026588
 30
0.0
  0
SPLINE
  5
2c3
100
AcDbEntity
  8
Layer_1
 62
7
100
AcDbSpline
 70
8
 71
3
 72
8
 73
4
 74
0
 40
0
 40
0
 40
0
 40
0
 40
1
 40
1
 40
1
 40
1
 10
4.221009
 20
0.026588
 30
0.0
 10
4.217607
 20
0.020351
 30
0.0
 10
4.212221
 20
0.017233
 30
0.0
 10
4.201733
 20
0.014966
 30
0.0
  0
SPLINE
  5
2c4
100
AcDbEntity
  8
Layer_1
 62
7
100
AcDbSpline
 70
8
 71
3
 72
8
 73
4
 74
0
 40
0
 40
0
 40
0
 40
0
 40
1
 40
1
 40
1
 40
1
 10
4.201733
 20
0.014966
 30
0.0
 10
4.190961
 20
0.012703
 30
0.0
 10
4.175654
 20
0.012131
 30
0.0
 10
4.155330
 20
0.012131
 30
0.0
  0
SPLINE
  5
2c5
100
AcDbEntity
  8
Layer_1
 62
7
100
AcDbSpline
 70
8
 71
3
 72
8
 73
4
 74
0
 40
0
 40
0
 40
0
 40
0
 40
1
 40
1
 40
1
 40
1
 10
4.155330
 20
0.012131
 30
0.0
 10
4.124829
 20
0.012131
 30
0.0
 10
4.108218
 20
0.013083
 30
0.0
 10
4.095320
 20
0.017517
 30
0.0
  0
SPLINE
  5
2c6
100
AcDbEntity
  8
Layer_1
 62
7
100
AcDbSpline
 70
8
 71
3
 72
8
 73
4
 74
0
 40
0
 40
0
 40
0
 40
0
 40
1
 40
1
 40
1
 40
1
 10
4.095320
 20
0.017517
 30
0.0
 10
4.082564
 20
0.022052
 30
0.0
 10
4.072360
 20
0.031406
 30
0.0
 10
4.055352
 20
0.048840
 30
0.0
  0
SPLINE
  5
2c7
100
AcDbEntity
  8
Layer_1
 62
7
100
AcDbSpline
 70
8
 71
3
 72
8
 73
4
 74
0
 40
0
 40
0
 40
0
 40
0
 40
1
 40
1
 40
1
 40
1
 10
4.055352
 20
0.048840
 30
0.0
 10
4.051950
 20
0.052525
 30
0.0
 10
4.044580
 20
0.062446
 30
0.0
 10
4.035509
 20
0.076903
 30
0.0
  0
SPLINE
  5
2c8
100
AcDbEntity
  8
Layer_1
 62
7
100
AcDbSpline
 70
8
 71
3
 72
8
 73
4
 74
0
 40
0
 40
0
 40
0
 40
0
 40
1
 40
1
 40
1
 40
1
 10
4.035509
 20
0.076903
 30
0.0
 10
4.026438
 20
0.090792
 30
0.0
 10
4.015383
 20
0.109047
 30
0.0
 10
4.002542
 20
0.130194
 30
0.0
  0
SPLINE
  5
2c9
100
AcDbEntity
  8
Layer_1
 62
7
100
AcDbSpline
 70
8
 71
3
 72
8
 73
4
 74
0
 40
0
 40
0
 40
0
 40
0
 40
1
 40
1
 40
1
 40
1
 10
4.002542
 20
0.130194
 30
0.0
 10
3.977881
 20
0.172147
 30
0.0
 10
3.947720
 20
0.224899
 30
0.0
 10
3.918864
 20
0.277510
 30
0.0
  0
SPLINE
  5
2ca
100
AcDbEntity
  8
Layer_1
 62
7
100
AcDbSpline
 70
8
 71
3
 72
8
 73
4
 74
0
 40
0
 40
0
 40
0
 40
0
 40
1
 40
1
 40
1
 40
1
 10
3.918864
 20
0.277510
 30
0.0
 10
3.890007
 20
0.330065
 30
0.0
 10
3.862199
 20
0.382449
 30
0.0
 10
3.841676
 20
0.423296
 30
0.0
  0
SPLINE
  5
2cb
100
AcDbEntity
  8
Layer_1
 62
7
100
AcDbSpline
 70
8
 71
3
 72
8
 73
4
 74
0
 40
0
 40
0
 40
0
 40
0
 40
1
 40
1
 40
1
 40
1
 10
3.841676
 20
0.423296
 30
0.0
 10
3.831755
 20
0.443989
 30
0.0
 10
3.823251
 20
0.461224
 30
0.0
 10
3.817298
 20
0.474490
 30
0.0
  0
SPLINE
  5
2cc
100
AcDbEntity
  8
Layer_1
 62
7
100
AcDbSpline
 70
8
 71
3
 72
8
 73
4
 74
0
 40
0
 40
0
 40
0
 40
0
 40
1
 40
1
 40
1
 40
1
 10
3.817298
 20
0.474490
 30
0.0
 10
3.814180
 20
0.481010
 30
0.0
 10
3.812479
 20
0.486395
 30
0.0
 10
3.810779
 20
0.490647
 30
0.0
  0
SPLINE
  5
2cd
100
AcDbEntity
  8
Layer_1
 62
7
100
AcDbSpline
 70
8
 71
3
 72
8
 73
4
 74
0
 40
0
 40
0
 40
0
 40
0
 40
1
 40
1
 40
1
 40
1
 10
3.810779
 20
0.490647
 30
0.0
 10
3.809319
 20
0.494899
 30
0.0
 10
3.808721
 20
0.498017
 30
0.0
 10
3.808721
 20
0.498017
 30
0.0
  0
SPLINE
  5
2ce
100
AcDbEntity
  8
Layer_1
 62
7
100
AcDbSpline
 70
8
 71
3
 72
8
 73
4
 74
0
 40
0
 40
0
 40
0
 40
0
 40
1
 40
1
 40
1
 40
1
 10
3.808721
 20
0.498017
 30
0.0
 10
3.808721
 20
0.497683
 30
0.0
 10
3.809361
 20
0.501419
 30
0.0
 10
3.810986
 20
0.505388
 30
0.0
  0
SPLINE
  5
2cf
100
AcDbEntity
  8
Layer_1
 62
7
100
AcDbSpline
 70
8
 71
3
 72
8
 73
4
 74
0
 40
0
 40
0
 40
0
 40
0
 40
1
 40
1
 40
1
 40
1
 10
3.810986
 20
0.505388
 30
0.0
 10
3.812669
 20
0.509640
 30
0.0
 10
3.815237
 20
0.515309
 30
0.0
 10
3.818356
 20
0.521829
 30
0.0
  0
SPLINE
  5
2d0
100
AcDbEntity
  8
Layer_1
 62
7
100
AcDbSpline
 70
8
 71
3
 72
8
 73
4
 74
0
 40
0
 40
0
 40
0
 40
0
 40
1
 40
1
 40
1
 40
1
 10
3.818356
 20
0.521829
 30
0.0
 10
3.824592
 20
0.534584
 30
0.0
 10
3.832812
 20
0.551082
 30
0.0
 10
3.842167
 20
0.567296
 30
0.0
  0
SPLINE
  5
2d1
100
AcDbEntity
  8
Layer_1
 62
7
100
AcDbSpline
 70
8
 71
3
 72
8
 73
4
 74
0
 40
0
 40
0
 40
0
 40
0
 40
1
 40
1
 40
1
 40
1
 10
3.842167
 20
0.567296
 30
0.0
 10
3.861442
 20
0.601085
 30
0.0
 10
3.894182
 20
0.675863
 30
0.0
 10
3.915726
 20
0.735051
 30
0.0
  0
LWPOLYLINE
  5
2d2
100
AcDbEntity
  8
Layer_1
 62
7
100
AcDbPolyline
 90
2
 70
0
 10
3.950016
 20
0.829790
 30
0.0
 10
3.966457
 20
0.791466
 30
0.0
  0
SPLINE
  5
2d3
100
AcDbEntity
  8
Layer_1
 62
7
100
AcDbSpline
 70
8
 71
3
 72
8
 73
4
 74
0
 40
0
 40
0
 40
0
 40
0
 40
1
 40
1
 40
1
 40
1
 10
5.327600
 20
0.825538
 30
0.0
 10
5.327677
 20
0.825411
 30
0.0
 10
5.327719
 20
0.825476
 30
0.0
 10
5.327799
 20
0.825340
 30
0.0
  0
SPLINE
  5
2d4
100
AcDbEntity
  8
Layer_1
 62
7
100
AcDbSpline
 70
8
 71
3
 72
8
 73
4
 74
0
 40
0
 40
0
 40
0
 40
0
 40
1
 40
1
 40
1
 40
1
 10
5.327799
 20
0.825340
 30
0.0
 10
5.329843
 20
0.821938
 30
0.0
 10
5.332334
 20
0.817403
 30
0.0
 10
5.335736
 20
0.811450
 30
0.0
  0
SPLINE
  5
2d5
100
AcDbEntity
  8
Layer_1
 62
7
100
AcDbSpline
 70
8
 71
3
 72
8
 73
4
 74
0
 40
0
 40
0
 40
0
 40
0
 40
1
 40
1
 40
1
 40
1
 10
5.335736
 20
0.811450
 30
0.0
 10
5.341972
 20
0.799828
 30
0.0
 10
5.349626
 20
0.783954
 30
0.0
 10
5.358413
 20
0.765217
 30
0.0
  0
SPLINE
  5
2d6
100
AcDbEntity
  8
Layer_1
 62
7
100
AcDbSpline
 70
8
 71
3
 72
8
 73
4
 74
0
 40
0
 40
0
 40
0
 40
0
 40
1
 40
1
 40
1
 40
1
 10
5.358413
 20
0.765217
 30
0.0
 10
5.376555
 20
0.727714
 30
0.0
 10
5.399232
 20
0.678420
 30
0.0
 10
5.421994
 20
0.627481
 30
0.0
  0
SPLINE
  5
2d7
100
AcDbEntity
  8
Layer_1
 62
7
100
AcDbSpline
 70
8
 71
3
 72
8
 73
4
 74
0
 40
0
 40
0
 40
0
 40
0
 40
1
 40
1
 40
1
 40
1
 10
5.421994
 20
0.627481
 30
0.0
 10
5.467830
 20
0.525548
 30
0.0
 10
5.514659
 20
0.416244
 30
0.0
 10
5.525742
 20
0.381434
 30
0.0
  0
SPLINE
  5
2d8
100
AcDbEntity
  8
Layer_1
 62
7
100
AcDbSpline
 70
8
 71
3
 72
8
 73
4
 74
0
 40
0
 40
0
 40
0
 40
0
 40
1
 40
1
 40
1
 40
1
 10
5.525742
 20
0.381434
 30
0.0
 10
5.552104
 20
0.298521
 30
0.0
 10
5.574158
 20
0.215664
 30
0.0
 10
5.588218
 20
0.149929
 30
0.0
  0
SPLINE
  5
2d9
100
AcDbEntity
  8
Layer_1
 62
7
100
AcDbSpline
 70
8
 71
3
 72
8
 73
4
 74
0
 40
0
 40
0
 40
0
 40
0
 40
1
 40
1
 40
1
 40
1
 10
5.588218
 20
0.149929
 30
0.0
 10
5.595304
 20
0.116962
 30
0.0
 10
5.600123
 20
0.088445
 30
0.0
 10
5.602674
 20
0.066477
 30
0.0
  0
SPLINE
  5
2da
100
AcDbEntity
  8
Layer_1
 62
7
100
AcDbSpline
 70
8
 71
3
 72
8
 73
4
 74
0
 40
0
 40
0
 40
0
 40
0
 40
1
 40
1
 40
1
 40
1
 10
5.602674
 20
0.066477
 30
0.0
 10
5.605143
 20
0.044083
 30
0.0
 10
5.604650
 20
0.028152
 30
0.0
 10
5.602873
 20
0.023475
 30
0.0
  0
SPLINE
  5
2db
100
AcDbEntity
  8
Layer_1
 62
7
100
AcDbSpline
 70
8
 71
3
 72
8
 73
4
 74
0
 40
0
 40
0
 40
0
 40
0
 40
1
 40
1
 40
1
 40
1
 10
5.602873
 20
0.023475
 30
0.0
 10
5.602669
 20
0.022925
 30
0.0
 10
5.601702
 20
0.021644
 30
0.0
 10
5.598621
 20
0.020074
 30
0.0
  0
SPLINE
  5
2dc
100
AcDbEntity
  8
Layer_1
 62
7
100
AcDbSpline
 70
8
 71
3
 72
8
 73
4
 74
0
 40
0
 40
0
 40
0
 40
0
 40
1
 40
1
 40
1
 40
1
 10
5.598621
 20
0.020074
 30
0.0
 10
5.595786
 20
0.018611
 30
0.0
 10
5.591251
 20
0.017239
 30
0.0
 10
5.585298
 20
0.015822
 30
0.0
  0
SPLINE
  5
2dd
100
AcDbEntity
  8
Layer_1
 62
7
100
AcDbSpline
 70
8
 71
3
 72
8
 73
4
 74
0
 40
0
 40
0
 40
0
 40
0
 40
1
 40
1
 40
1
 40
1
 10
5.585298
 20
0.015822
 30
0.0
 10
5.573392
 20
0.013560
 30
0.0
 10
5.556044
 20
0.012420
 30
0.0
 10
5.533537
 20
0.012420
 30
0.0
  0
SPLINE
  5
2de
100
AcDbEntity
  8
Layer_1
 62
7
100
AcDbSpline
 70
8
 71
3
 72
8
 73
4
 74
0
 40
0
 40
0
 40
0
 40
0
 40
1
 40
1
 40
1
 40
1
 10
5.533537
 20
0.012420
 30
0.0
 10
5.502214
 20
0.012420
 30
0.0
 10
5.484810
 20
0.013296
 30
0.0
 10
5.471997
 20
0.017806
 30
0.0
  0
SPLINE
  5
2df
100
AcDbEntity
  8
Layer_1
 62
7
100
AcDbSpline
 70
8
 71
3
 72
8
 73
4
 74
0
 40
0
 40
0
 40
0
 40
0
 40
1
 40
1
 40
1
 40
1
 10
5.471997
 20
0.017806
 30
0.0
 10
5.459241
 20
0.022341
 30
0.0
 10
5.449603
 20
0.031129
 30
0.0
 10
5.433248
 20
0.048307
 30
0.0
  0
SPLINE
  5
2e0
100
AcDbEntity
  8
Layer_1
 62
7
100
AcDbSpline
 70
8
 71
3
 72
8
 73
4
 74
0
 40
0
 40
0
 40
0
 40
0
 40
1
 40
1
 40
1
 40
1
 10
5.433248
 20
0.048307
 30
0.0
 10
5.429563
 20
0.052559
 30
0.0
 10
5.422476
 20
0.062196
 30
0.0
 10
5.413405
 20
0.076738
 30
0.0
  0
SPLINE
  5
2e1
100
AcDbEntity
  8
Layer_1
 62
7
100
AcDbSpline
 70
8
 71
3
 72
8
 73
4
 74
0
 40
0
 40
0
 40
0
 40
0
 40
1
 40
1
 40
1
 40
1
 10
5.413405
 20
0.076738
 30
0.0
 10
5.404334
 20
0.090628
 30
0.0
 10
5.393563
 20
0.109308
 30
0.0
 10
5.380835
 20
0.130228
 30
0.0
  0
SPLINE
  5
2e2
100
AcDbEntity
  8
Layer_1
 62
7
100
AcDbSpline
 70
8
 71
3
 72
8
 73
4
 74
0
 40
0
 40
0
 40
0
 40
0
 40
1
 40
1
 40
1
 40
1
 10
5.380835
 20
0.130228
 30
0.0
 10
5.356174
 20
0.172266
 30
0.0
 10
5.326296
 20
0.225160
 30
0.0
 10
5.297751
 20
0.277686
 30
0.0
  0
SPLINE
  5
2e3
100
AcDbEntity
  8
Layer_1
 62
7
100
AcDbSpline
 70
8
 71
3
 72
8
 73
4
 74
0
 40
0
 40
0
 40
0
 40
0
 40
1
 40
1
 40
1
 40
1
 10
5.297751
 20
0.277686
 30
0.0
 10
5.269320
 20
0.330240
 30
0.0
 10
5.241654
 20
0.382540
 30
0.0
 10
5.221329
 20
0.423274
 30
0.0
  0
SPLINE
  5
2e4
100
AcDbEntity
  8
Layer_1
 62
7
100
AcDbSpline
 70
8
 71
3
 72
8
 73
4
 74
0
 40
0
 40
0
 40
0
 40
0
 40
1
 40
1
 40
1
 40
1
 10
5.221329
 20
0.423274
 30
0.0
 10
5.211408
 20
0.443400
 30
0.0
 10
5.202904
 20
0.461201
 30
0.0
 10
5.196951
 20
0.474297
 30
0.0
  0
SPLINE
  5
2e5
100
AcDbEntity
  8
Layer_1
 62
7
100
AcDbSpline
 70
8
 71
3
 72
8
 73
4
 74
0
 40
0
 40
0
 40
0
 40
0
 40
1
 40
1
 40
1
 40
1
 10
5.196951
 20
0.474297
 30
0.0
 10
5.193833
 20
0.480817
 30
0.0
 10
5.192133
 20
0.486203
 30
0.0
 10
5.190432
 20
0.490455
 30
0.0
  0
SPLINE
  5
2e6
100
AcDbEntity
  8
Layer_1
 62
7
100
AcDbSpline
 70
8
 71
3
 72
8
 73
4
 74
0
 40
0
 40
0
 40
0
 40
0
 40
1
 40
1
 40
1
 40
1
 10
5.190432
 20
0.490455
 30
0.0
 10
5.188975
 20
0.494707
 30
0.0
 10
5.188533
 20
0.497825
 30
0.0
 10
5.188533
 20
0.497825
 30
0.0
  0
SPLINE
  5
2e7
100
AcDbEntity
  8
Layer_1
 62
7
100
AcDbSpline
 70
8
 71
3
 72
8
 73
4
 74
0
 40
0
 40
0
 40
0
 40
0
 40
1
 40
1
 40
1
 40
1
 10
5.188533
 20
0.497825
 30
0.0
 10
5.188533
 20
0.497660
 30
0.0
 10
5.189335
 20
0.502077
 30
0.0
 10
5.191367
 20
0.506612
 30
0.0
  0
SPLINE
  5
2e8
100
AcDbEntity
  8
Layer_1
 62
7
100
AcDbSpline
 70
8
 71
3
 72
8
 73
4
 74
0
 40
0
 40
0
 40
0
 40
0
 40
1
 40
1
 40
1
 40
1
 10
5.191367
 20
0.506612
 30
0.0
 10
5.193266
 20
0.511431
 30
0.0
 10
5.195903
 20
0.518234
 30
0.0
 10
5.199304
 20
0.525604
 30
0.0
  0
SPLINE
  5
2e9
100
AcDbEntity
  8
Layer_1
 62
7
100
AcDbSpline
 70
8
 71
3
 72
8
 73
4
 74
0
 40
0
 40
0
 40
0
 40
0
 40
1
 40
1
 40
1
 40
1
 10
5.199304
 20
0.525604
 30
0.0
 10
5.205824
 20
0.540344
 30
0.0
 10
5.215745
 20
0.559393
 30
0.0
 10
5.226233
 20
0.578527
 30
0.0
  0
SPLINE
  5
2ea
100
AcDbEntity
  8
Layer_1
 62
7
100
AcDbSpline
 70
8
 71
3
 72
8
 73
4
 74
0
 40
0
 40
0
 40
0
 40
0
 40
1
 40
1
 40
1
 40
1
 10
5.226233
 20
0.578527
 30
0.0
 10
5.247777
 20
0.617277
 30
0.0
 10
5.279043
 20
0.691176
 30
0.0
 10
5.296334
 20
0.743759
 30
0.0
  0
SPLINE
  5
2eb
100
AcDbEntity
  8
Layer_1
 62
7
100
AcDbSpline
 70
8
 71
3
 72
8
 73
4
 74
0
 40
0
 40
0
 40
0
 40
0
 40
1
 40
1
 40
1
 40
1
 10
5.296334
 20
0.743759
 30
0.0
 10
5.305122
 20
0.769837
 30
0.0
 10
5.313342
 20
0.792685
 30
0.0
 10
5.319862
 20
0.808729
 30
0.0
  0
SPLINE
  5
2ec
100
AcDbEntity
  8
Layer_1
 62
7
100
AcDbSpline
 70
8
 71
3
 72
8
 73
4
 74
0
 40
0
 40
0
 40
0
 40
0
 40
1
 40
1
 40
1
 40
1
 10
5.319862
 20
0.808729
 30
0.0
 10
5.322980
 20
0.816099
 30
0.0
 10
5.325248
 20
0.821201
 30
0.0
 10
5.327232
 20
0.825170
 30
0.0
  0
LWPOLYLINE
  5
2ed
100
AcDbEntity
  8
Layer_1
 62
7
100
AcDbPolyline
 90
2
 70
0
 10
3.915726
 20
0.735051
 30
0.0
 10
3.950016
 20
0.829790
 30
0.0
  0
LWPOLYLINE
  5
2ee
100
AcDbEntity
  8
Layer_1
 62
7
100
AcDbPolyline
 90
2
 70
0
 10
5.327232
 20
0.825170
 30
0.0
 10
5.327600
 20
0.825538
 30
0.0
  0
ENDSEC
  0
SECTION
  2
OBJECTS
  0
DICTIONARY
  5
C
330
0
100
AcDbDictionary
  3
ACAD_GROUP
350
D
  3
ACAD_MLINESTYLE
350
17
  0
DICTIONARY
  5
D
330
C
100
AcDbDictionary
  0
DICTIONARY
  5
1A
330
C
100
AcDbDictionary
  0
DICTIONARY
  5
17
330
C
100
AcDbDictionary
  3
STANDARD
350
18
  0
DICTIONARY
  5
19
330
C
100
AcDbDictionary
  0
ENDSEC
  0
EOF
