  0
SECTION
  2
HEADER
  9
$ACADVER
  1
AC1014
  9
$HANDSEED
  5
FFFF
  9
$MEASUREMENT
 70
     1
  0
ENDSEC
  0
SECTION
  2
TABLES
  0
TABLE
  2
VPORT
  5
8
330
0
100
AcDbSymbolTable
 70
     4
  0
VPORT
  5
2E
330
8
100
AcDbSymbolTableRecord
100
AcDbViewportTableRecord
  2
*ACTIVE
 70
     0
 10
0.0
 20
0.0
 11
1.0
 21
1.0
 12
210.0
 22
148.5
 13
0.0
 23
0.0
 14
10.0
 24
10.0
 15
10.0
 25
10.0
 16
0.0
 26
0.0
 36
1.0
 17
0.0
 27
0.0
 37
0.0
 40
341.0
 41
1.24
 42
50.0
 43
0.0
 44
0.0
 50
0.0
 51
0.0
 71
     0
 72
   100
 73
     1
 74
     3
 75
     0
 76
     0
 77
     0
 78
     0
  0
ENDTAB
  0
TABLE
  2
LTYPE
  5
5
330
0
100
AcDbSymbolTable
 70
     1
  0
LTYPE
  5
14
330
5
100
AcDbSymbolTableRecord
100
AcDbLinetypeTableRecord
  2
BYBLOCK
 70
     0
  3

 72
    65
 73
     0
 40
0.0
  0
LTYPE
  5
15
330
5
100
AcDbSymbolTableRecord
100
AcDbLinetypeTableRecord
  2
BYLAYER
 70
     0
  3

 72
    65
 73
     0
 40
0.0
  0
LTYPE
  5
16
330
5
100
AcDbSymbolTableRecord
100
AcDbLinetypeTableRecord
  2
CONTINUOUS
 70
     0
  3
Solid line
 72
    65
 73
     0
 40
0.0
  0
ENDTAB
  0
TABLE
  2
LAYER
  5
2
100
AcDbSymbolTable
 70
2
  0
LAYER
  5
50
100
AcDbSymbolTableRecord
100
AcDbLayerTableRecord
  2
0
 70
0
  6
CONTINUOUS
  0
LAYER
  5
51
100
AcDbSymbolTableRecord
100
AcDbLayerTableRecord
  2
Layer_1
 70
0
  6
CONTINUOUS
  0
ENDTAB
  0
TABLE
  2
STYLE
  5
3
330
0
100
AcDbSymbolTable
 70
     1
  0
STYLE
  5
11
330
3
100
AcDbSymbolTableRecord
100
AcDbTextStyleTableRecord
  2
STANDARD
 70
     0
 40
0.0
 41
1.0
 50
0.0
 71
     0
 42
2.5
  3
txt
  4

  0
ENDTAB
  0
TABLE
  2
VIEW
  5
6
330
0
100
AcDbSymbolTable
 70
     0
  0
ENDTAB
  0
TABLE
  2
UCS
  5
7
330
0
100
AcDbSymbolTable
 70
     0
  0
ENDTAB
  0
TABLE
  2
APPID
  5
9
330
0
100
AcDbSymbolTable
 70
     2
  0
APPID
  5
12
330
9
100
AcDbSymbolTableRecord
100
AcDbRegAppTableRecord
  2
ACAD
 70
     0
  0
ENDTAB
  0
TABLE
  2
DIMSTYLE
  5
A
330
0
100
AcDbSymbolTable
 70
     1
  0
DIMSTYLE
105
27
330
A
100
AcDbSymbolTableRecord
100
AcDbDimStyleTableRecord
  2
ISO-25
 70
     0
  3

  4

  5

  6

  7

 40
1.0
 41
2.5
 42
0.625
 43
3.75
 44
1.25
 45
0.0
 46
0.0
 47
0.0
 48
0.0
140
2.5
141
2.5
142
0.0
143
0.03937007874016
144
1.0
145
0.0
146
1.0
147
0.625
 71
     0
 72
     0
 73
     0
 74
     0
 75
     0
 76
     0
 77
     1
 78
     8
170
     0
171
     3
172
     1
173
     0
174
     0
175
     0
176
     0
177
     0
178
     0
270
     2
271
     2
272
     2
273
     2
274
     3
340
11
275
     0
280
     0
281
     0
282
     0
283
     0
284
     8
285
     0
286
     0
287
     3
288
     0
  0
ENDTAB
  0
TABLE
  2
BLOCK_RECORD
  5
1
330
0
100
AcDbSymbolTable
 70
     1
  0
BLOCK_RECORD
  5
1F
330
1
100
AcDbSymbolTableRecord
100
AcDbBlockTableRecord
  2
*MODEL_SPACE
  0
BLOCK_RECORD
  5
1B
330
1
100
AcDbSymbolTableRecord
100
AcDbBlockTableRecord
  2
*PAPER_SPACE
  0
ENDTAB
  0
ENDSEC
  0
SECTION
  2
BLOCKS
  0
BLOCK
  5
20
330
1F
100
AcDbEntity
  8
0
100
AcDbBlockBegin
  2
*MODEL_SPACE
 70
     0
 10
0.0
 20
0.0
 30
0.0
  3
*MODEL_SPACE
  1

  0
ENDBLK
  5
21
330
1F
100
AcDbEntity
  8
0
100
AcDbBlockEnd
  0
BLOCK
  5
1C
330
1B
100
AcDbEntity
 67
     1
  8
0
100
AcDbBlockBegin
  2
*PAPER_SPACE
  1

  0
ENDBLK
  5
1D
330
1B
100
AcDbEntity
 67
     1
  8
0
100
AcDbBlockEnd
  0
ENDSEC
  0
SECTION
  2
ENTITIES
  0
SPLINE
  5
100
100
AcDbEntity
  8
Layer_1
 62
7
100
AcDbSpline
 70
8
 71
3
 72
8
 73
4
 74
0
 40
0
 40
0
 40
0
 40
0
 40
1
 40
1
 40
1
 40
1
 10
4.860680
 20
0.006892
 30
0.0
 10
4.813625
 20
0.014262
 30
0.0
 10
4.665373
 20
0.137569
 30
0.0
 10
4.587987
 20
0.233210
 30
0.0
  0
SPLINE
  5
101
100
AcDbEntity
  8
Layer_1
 62
7
100
AcDbSpline
 70
8
 71
3
 72
8
 73
4
 74
0
 40
0
 40
0
 40
0
 40
0
 40
1
 40
1
 40
1
 40
1
 10
4.587987
 20
0.233210
 30
0.0
 10
4.496995
 20
0.345689
 30
0.0
 10
4.373405
 20
0.603999
 30
0.0
 10
4.316145
 20
0.800757
 30
0.0
  0
SPLINE
  5
102
100
AcDbEntity
  8
Layer_1
 62
7
100
AcDbSpline
 70
8
 71
3
 72
8
 73
4
 74
0
 40
0
 40
0
 40
0
 40
0
 40
1
 40
1
 40
1
 40
1
 10
4.316145
 20
0.800757
 30
0.0
 10
4.237342
 20
1.070842
 30
0.0
 10
4.204460
 20
1.515250
 30
0.0
 10
4.235924
 20
1.892187
 30
0.0
  0
SPLINE
  5
103
100
AcDbEntity
  8
Layer_1
 62
7
100
AcDbSpline
 70
8
 71
3
 72
8
 73
4
 74
0
 40
0
 40
0
 40
0
 40
0
 40
1
 40
1
 40
1
 40
1
 10
4.235924
 20
1.892187
 30
0.0
 10
4.244428
 20
1.999733
 30
0.0
 10
4.244428
 20
2.004864
 30
0.0
 10
4.221751
 20
1.986297
 30
0.0
  0
SPLINE
  5
104
100
AcDbEntity
  8
Layer_1
 62
7
100
AcDbSpline
 70
8
 71
3
 72
8
 73
4
 74
0
 40
0
 40
0
 40
0
 40
0
 40
1
 40
1
 40
1
 40
1
 10
4.221751
 20
1.986297
 30
0.0
 10
4.210413
 20
1.975525
 30
0.0
 10
4.165342
 20
1.919938
 30
0.0
 10
4.125373
 20
1.862820
 30
0.0
  0
SPLINE
  5
105
100
AcDbEntity
  8
Layer_1
 62
7
100
AcDbSpline
 70
8
 71
3
 72
8
 73
4
 74
0
 40
0
 40
0
 40
0
 40
0
 40
1
 40
1
 40
1
 40
1
 10
4.125373
 20
1.862820
 30
0.0
 10
4.020491
 20
1.713406
 30
0.0
 10
3.812088
 20
1.506593
 30
0.0
 10
3.690198
 20
1.431347
 30
0.0
  0
SPLINE
  5
106
100
AcDbEntity
  8
Layer_1
 62
7
100
AcDbSpline
 70
8
 71
3
 72
8
 73
4
 74
0
 40
0
 40
0
 40
0
 40
0
 40
1
 40
1
 40
1
 40
1
 10
3.690198
 20
1.431347
 30
0.0
 10
3.520120
 20
1.326437
 30
0.0
 10
3.424309
 20
1.300188
 30
0.0
 10
3.180728
 20
1.291939
 30
0.0
  0
SPLINE
  5
107
100
AcDbEntity
  8
Layer_1
 62
7
100
AcDbSpline
 70
8
 71
3
 72
8
 73
4
 74
0
 40
0
 40
0
 40
0
 40
0
 40
1
 40
1
 40
1
 40
1
 10
3.180728
 20
1.291939
 30
0.0
 10
2.909452
 20
1.282585
 30
0.0
 10
2.433402
 20
1.330632
 30
0.0
 10
2.266753
 20
1.383895
 30
0.0
  0
SPLINE
  5
108
100
AcDbEntity
  8
Layer_1
 62
7
100
AcDbSpline
 70
8
 71
3
 72
8
 73
4
 74
0
 40
0
 40
0
 40
0
 40
0
 40
1
 40
1
 40
1
 40
1
 10
2.266753
 20
1.383895
 30
0.0
 10
2.197587
 20
1.406005
 30
0.0
 10
2.018721
 20
1.496629
 30
0.0
 10
1.947260
 20
1.545725
 30
0.0
  0
SPLINE
  5
109
100
AcDbEntity
  8
Layer_1
 62
7
100
AcDbSpline
 70
8
 71
3
 72
8
 73
4
 74
0
 40
0
 40
0
 40
0
 40
0
 40
1
 40
1
 40
1
 40
1
 10
1.947260
 20
1.545725
 30
0.0
 10
1.863638
 20
1.603382
 30
0.0
 10
1.620142
 20
1.840058
 30
0.0
 10
1.572605
 20
1.910124
 30
0.0
  0
SPLINE
  5
10a
100
AcDbEntity
  8
Layer_1
 62
7
100
AcDbSpline
 70
8
 71
3
 72
8
 73
4
 74
0
 40
0
 40
0
 40
0
 40
0
 40
1
 40
1
 40
1
 40
1
 10
1.572605
 20
1.910124
 30
0.0
 10
1.549928
 20
1.941192
 30
0.0
 10
1.530652
 20
1.969623
 30
0.0
 10
1.526400
 20
1.973365
 30
0.0
  0
SPLINE
  5
10b
100
AcDbEntity
  8
Layer_1
 62
7
100
AcDbSpline
 70
8
 71
3
 72
8
 73
4
 74
0
 40
0
 40
0
 40
0
 40
0
 40
1
 40
1
 40
1
 40
1
 10
1.526400
 20
1.973365
 30
0.0
 10
1.520731
 20
1.977050
 30
0.0
 10
1.500888
 20
2.007863
 30
0.0
 10
1.482746
 20
2.041737
 30
0.0
  0
SPLINE
  5
10c
100
AcDbEntity
  8
Layer_1
 62
7
100
AcDbSpline
 70
8
 71
3
 72
8
 73
4
 74
0
 40
0
 40
0
 40
0
 40
0
 40
1
 40
1
 40
1
 40
1
 10
1.482746
 20
2.041737
 30
0.0
 10
1.443912
 20
2.108323
 30
0.0
 10
1.438526
 20
2.164165
 30
0.0
 10
1.460069
 20
2.248836
 30
0.0
  0
SPLINE
  5
10d
100
AcDbEntity
  8
Layer_1
 62
7
100
AcDbSpline
 70
8
 71
3
 72
8
 73
4
 74
0
 40
0
 40
0
 40
0
 40
0
 40
1
 40
1
 40
1
 40
1
 10
1.460069
 20
2.248836
 30
0.0
 10
1.492951
 20
2.367239
 30
0.0
 10
1.867408
 20
2.692444
 30
0.0
 10
2.105972
 20
2.809798
 30
0.0
  0
SPLINE
  5
10e
100
AcDbEntity
  8
Layer_1
 62
7
100
AcDbSpline
 70
8
 71
3
 72
8
 73
4
 74
0
 40
0
 40
0
 40
0
 40
0
 40
1
 40
1
 40
1
 40
1
 10
2.105972
 20
2.809798
 30
0.0
 10
2.170035
 20
2.841348
 30
0.0
 10
2.223043
 20
2.871707
 30
0.0
 10
2.223609
 20
2.877263
 30
0.0
  0
SPLINE
  5
10f
100
AcDbEntity
  8
Layer_1
 62
7
100
AcDbSpline
 70
8
 71
3
 72
8
 73
4
 74
0
 40
0
 40
0
 40
0
 40
0
 40
1
 40
1
 40
1
 40
1
 10
2.223609
 20
2.877263
 30
0.0
 10
2.224176
 20
2.882932
 30
0.0
 10
2.171735
 20
2.887468
 30
0.0
 10
2.107106
 20
2.887751
 30
0.0
  0
SPLINE
  5
110
100
AcDbEntity
  8
Layer_1
 62
7
100
AcDbSpline
 70
8
 71
3
 72
8
 73
4
 74
0
 40
0
 40
0
 40
0
 40
0
 40
1
 40
1
 40
1
 40
1
 10
2.107106
 20
2.887751
 30
0.0
 10
1.915767
 20
2.888250
 30
0.0
 10
1.515713
 20
2.923808
 30
0.0
 10
1.373868
 20
2.952920
 30
0.0
  0
SPLINE
  5
111
100
AcDbEntity
  8
Layer_1
 62
7
100
AcDbSpline
 70
8
 71
3
 72
8
 73
4
 74
0
 40
0
 40
0
 40
0
 40
0
 40
1
 40
1
 40
1
 40
1
 10
1.373868
 20
2.952920
 30
0.0
 10
1.297899
 20
2.968510
 30
0.0
 10
1.187065
 20
3.004425
 30
0.0
 10
1.111946
 20
3.037874
 30
0.0
  0
SPLINE
  5
112
100
AcDbEntity
  8
Layer_1
 62
7
100
AcDbSpline
 70
8
 71
3
 72
8
 73
4
 74
0
 40
0
 40
0
 40
0
 40
0
 40
1
 40
1
 40
1
 40
1
 10
1.111946
 20
3.037874
 30
0.0
 10
0.992041
 20
3.091279
 30
0.0
 10
0.970781
 20
3.106727
 30
0.0
 10
0.842655
 20
3.235902
 30
0.0
  0
SPLINE
  5
113
100
AcDbEntity
  8
Layer_1
 62
7
100
AcDbSpline
 70
8
 71
3
 72
8
 73
4
 74
0
 40
0
 40
0
 40
0
 40
0
 40
1
 40
1
 40
1
 40
1
 10
0.842655
 20
3.235902
 30
0.0
 10
0.766120
 20
3.312976
 30
0.0
 10
0.655569
 20
3.435291
 30
0.0
 10
0.596608
 20
3.507660
 30
0.0
  0
SPLINE
  5
114
100
AcDbEntity
  8
Layer_1
 62
7
100
AcDbSpline
 70
8
 71
3
 72
8
 73
4
 74
0
 40
0
 40
0
 40
0
 40
0
 40
1
 40
1
 40
1
 40
1
 10
0.596608
 20
3.507660
 30
0.0
 10
0.537931
 20
3.580057
 30
0.0
 10
0.457427
 20
3.674394
 30
0.0
 10
0.417742
 20
3.717282
 30
0.0
  0
SPLINE
  5
115
100
AcDbEntity
  8
Layer_1
 62
7
100
AcDbSpline
 70
8
 71
3
 72
8
 73
4
 74
0
 40
0
 40
0
 40
0
 40
0
 40
1
 40
1
 40
1
 40
1
 10
0.417742
 20
3.717282
 30
0.0
 10
0.287348
 20
3.857937
 30
0.0
 10
0.154403
 20
4.047419
 30
0.0
 10
0.076535
 20
4.203015
 30
0.0
  0
SPLINE
  5
116
100
AcDbEntity
  8
Layer_1
 62
7
100
AcDbSpline
 70
8
 71
3
 72
8
 73
4
 74
0
 40
0
 40
0
 40
0
 40
0
 40
1
 40
1
 40
1
 40
1
 10
0.076535
 20
4.203015
 30
0.0
 10
0.005953
 20
4.344124
 30
0.0
 10
0.000000
 20
4.363031
 30
0.0
 10
0.000000
 20
4.447418
 30
0.0
  0
SPLINE
  5
117
100
AcDbEntity
  8
Layer_1
 62
7
100
AcDbSpline
 70
8
 71
3
 72
8
 73
4
 74
0
 40
0
 40
0
 40
0
 40
0
 40
1
 40
1
 40
1
 40
1
 10
0.000000
 20
4.447418
 30
0.0
 10
0.000000
 20
4.530757
 30
0.0
 10
0.002835
 20
4.542663
 30
0.0
 10
0.040252
 20
4.581015
 30
0.0
  0
SPLINE
  5
118
100
AcDbEntity
  8
Layer_1
 62
7
100
AcDbSpline
 70
8
 71
3
 72
8
 73
4
 74
0
 40
0
 40
0
 40
0
 40
0
 40
1
 40
1
 40
1
 40
1
 10
0.040252
 20
4.581015
 30
0.0
 10
0.105449
 20
4.648962
 30
0.0
 10
0.250866
 20
4.711494
 30
0.0
 10
0.450198
 20
4.757103
 30
0.0
  0
SPLINE
  5
119
100
AcDbEntity
  8
Layer_1
 62
7
100
AcDbSpline
 70
8
 71
3
 72
8
 73
4
 74
0
 40
0
 40
0
 40
0
 40
0
 40
1
 40
1
 40
1
 40
1
 10
0.450198
 20
4.757103
 30
0.0
 10
0.624529
 20
4.797015
 30
0.0
 10
0.640970
 20
4.798404
 30
0.0
 10
0.866835
 20
4.792508
 30
0.0
  0
SPLINE
  5
11a
100
AcDbEntity
  8
Layer_1
 62
7
100
AcDbSpline
 70
8
 71
3
 72
8
 73
4
 74
0
 40
0
 40
0
 40
0
 40
0
 40
1
 40
1
 40
1
 40
1
 10
0.866835
 20
4.792508
 30
0.0
 10
1.196929
 20
4.784004
 30
0.0
 10
1.379594
 20
4.750811
 30
0.0
 10
1.948847
 20
4.596322
 30
0.0
  0
SPLINE
  5
11b
100
AcDbEntity
  8
Layer_1
 62
7
100
AcDbSpline
 70
8
 71
3
 72
8
 73
4
 74
0
 40
0
 40
0
 40
0
 40
0
 40
1
 40
1
 40
1
 40
1
 10
1.948847
 20
4.596322
 30
0.0
 10
2.030202
 20
4.574212
 30
0.0
 10
2.235713
 20
4.506578
 30
0.0
 10
2.405849
 20
4.445916
 30
0.0
  0
SPLINE
  5
11c
100
AcDbEntity
  8
Layer_1
 62
7
100
AcDbSpline
 70
8
 71
3
 72
8
 73
4
 74
0
 40
0
 40
0
 40
0
 40
0
 40
1
 40
1
 40
1
 40
1
 10
2.405849
 20
4.445916
 30
0.0
 10
2.575928
 20
4.385255
 30
0.0
 10
2.851087
 20
4.289047
 30
0.0
 10
3.017395
 20
4.232155
 30
0.0
  0
SPLINE
  5
11d
100
AcDbEntity
  8
Layer_1
 62
7
100
AcDbSpline
 70
8
 71
3
 72
8
 73
4
 74
0
 40
0
 40
0
 40
0
 40
0
 40
1
 40
1
 40
1
 40
1
 10
3.017395
 20
4.232155
 30
0.0
 10
3.428901
 20
4.091359
 30
0.0
 10
3.887887
 20
3.861270
 30
0.0
 10
4.243776
 20
3.617358
 30
0.0
  0
SPLINE
  5
11e
100
AcDbEntity
  8
Layer_1
 62
7
100
AcDbSpline
 70
8
 71
3
 72
8
 73
4
 74
0
 40
0
 40
0
 40
0
 40
0
 40
1
 40
1
 40
1
 40
1
 10
4.243776
 20
3.617358
 30
0.0
 10
4.301036
 20
3.578126
 30
0.0
 10
4.352343
 20
3.546066
 30
0.0
 10
4.358013
 20
3.546095
 30
0.0
  0
SPLINE
  5
11f
100
AcDbEntity
  8
Layer_1
 62
7
100
AcDbSpline
 70
8
 71
3
 72
8
 73
4
 74
0
 40
0
 40
0
 40
0
 40
0
 40
1
 40
1
 40
1
 40
1
 10
4.358013
 20
3.546095
 30
0.0
 10
4.377855
 20
3.546188
 30
0.0
 10
4.420375
 20
3.669884
 30
0.0
 10
4.407335
 20
3.686665
 30
0.0
  0
SPLINE
  5
120
100
AcDbEntity
  8
Layer_1
 62
7
100
AcDbSpline
 70
8
 71
3
 72
8
 73
4
 74
0
 40
0
 40
0
 40
0
 40
0
 40
1
 40
1
 40
1
 40
1
 10
4.407335
 20
3.686665
 30
0.0
 10
4.401666
 20
3.695452
 30
0.0
 10
4.375587
 20
3.732388
 30
0.0
 10
4.351776
 20
3.768813
 30
0.0
  0
SPLINE
  5
121
100
AcDbEntity
  8
Layer_1
 62
7
100
AcDbSpline
 70
8
 71
3
 72
8
 73
4
 74
0
 40
0
 40
0
 40
0
 40
0
 40
1
 40
1
 40
1
 40
1
 10
4.351776
 20
3.768813
 30
0.0
 10
4.326265
 20
3.805210
 30
0.0
 10
4.271272
 20
3.862243
 30
0.0
 10
4.225635
 20
3.895493
 30
0.0
  0
SPLINE
  5
122
100
AcDbEntity
  8
Layer_1
 62
7
100
AcDbSpline
 70
8
 71
3
 72
8
 73
4
 74
0
 40
0
 40
0
 40
0
 40
0
 40
1
 40
1
 40
1
 40
1
 10
4.225635
 20
3.895493
 30
0.0
 10
4.096091
 20
3.990114
 30
0.0
 10
4.070296
 20
4.030082
 30
0.0
 10
4.030894
 20
4.198880
 30
0.0
  0
SPLINE
  5
123
100
AcDbEntity
  8
Layer_1
 62
7
100
AcDbSpline
 70
8
 71
3
 72
8
 73
4
 74
0
 40
0
 40
0
 40
0
 40
0
 40
1
 40
1
 40
1
 40
1
 10
4.030894
 20
4.198880
 30
0.0
 10
4.011052
 20
4.279667
 30
0.0
 10
3.981855
 20
4.395037
 30
0.0
 10
3.963997
 20
4.455245
 30
0.0
  0
SPLINE
  5
124
100
AcDbEntity
  8
Layer_1
 62
7
100
AcDbSpline
 70
8
 71
3
 72
8
 73
4
 74
0
 40
0
 40
0
 40
0
 40
0
 40
1
 40
1
 40
1
 40
1
 10
3.963997
 20
4.455245
 30
0.0
 10
3.924879
 20
4.586517
 30
0.0
 10
3.924595
 20
4.594426
 30
0.0
 10
3.955493
 20
4.594426
 30
0.0
  0
SPLINE
  5
125
100
AcDbEntity
  8
Layer_1
 62
7
100
AcDbSpline
 70
8
 71
3
 72
8
 73
4
 74
0
 40
0
 40
0
 40
0
 40
0
 40
1
 40
1
 40
1
 40
1
 10
3.955493
 20
4.594426
 30
0.0
 10
4.017855
 20
4.594426
 30
0.0
 10
4.071430
 20
4.472480
 30
0.0
 10
4.119902
 20
4.221928
 30
0.0
  0
SPLINE
  5
126
100
AcDbEntity
  8
Layer_1
 62
7
100
AcDbSpline
 70
8
 71
3
 72
8
 73
4
 74
0
 40
0
 40
0
 40
0
 40
0
 40
1
 40
1
 40
1
 40
1
 10
4.119902
 20
4.221928
 30
0.0
 10
4.142580
 20
4.113333
 30
0.0
 10
4.194737
 20
4.049978
 30
0.0
 10
4.328532
 20
3.976533
 30
0.0
  0
SPLINE
  5
127
100
AcDbEntity
  8
Layer_1
 62
7
100
AcDbSpline
 70
8
 71
3
 72
8
 73
4
 74
0
 40
0
 40
0
 40
0
 40
0
 40
1
 40
1
 40
1
 40
1
 10
4.328532
 20
3.976533
 30
0.0
 10
4.384375
 20
3.945834
 30
0.0
 10
4.453824
 20
3.899430
 30
0.0
 10
4.482737
 20
3.873408
 30
0.0
  0
SPLINE
  5
128
100
AcDbEntity
  8
Layer_1
 62
7
100
AcDbSpline
 70
8
 71
3
 72
8
 73
4
 74
0
 40
0
 40
0
 40
0
 40
0
 40
1
 40
1
 40
1
 40
1
 10
4.482737
 20
3.873408
 30
0.0
 10
4.511083
 20
3.847330
 30
0.0
 10
4.540847
 20
3.829528
 30
0.0
 10
4.547650
 20
3.833780
 30
0.0
  0
SPLINE
  5
129
100
AcDbEntity
  8
Layer_1
 62
7
100
AcDbSpline
 70
8
 71
3
 72
8
 73
4
 74
0
 40
0
 40
0
 40
0
 40
0
 40
1
 40
1
 40
1
 40
1
 10
4.547650
 20
3.833780
 30
0.0
 10
4.553320
 20
3.837749
 30
0.0
 10
4.556154
 20
3.879815
 30
0.0
 10
4.553320
 20
3.926671
 30
0.0
  0
SPLINE
  5
12a
100
AcDbEntity
  8
Layer_1
 62
7
100
AcDbSpline
 70
8
 71
3
 72
8
 73
4
 74
0
 40
0
 40
0
 40
0
 40
0
 40
1
 40
1
 40
1
 40
1
 10
4.553320
 20
3.926671
 30
0.0
 10
4.547650
 20
3.994703
 30
0.0
 10
4.552243
 20
4.024863
 30
0.0
 10
4.575997
 20
4.076397
 30
0.0
  0
SPLINE
  5
12b
100
AcDbEntity
  8
Layer_1
 62
7
100
AcDbSpline
 70
8
 71
3
 72
8
 73
4
 74
0
 40
0
 40
0
 40
0
 40
0
 40
1
 40
1
 40
1
 40
1
 10
4.575997
 20
4.076397
 30
0.0
 10
4.590170
 20
4.111887
 30
0.0
 10
4.604343
 20
4.142416
 30
0.0
 10
4.604343
 20
4.144259
 30
0.0
  0
SPLINE
  5
12c
100
AcDbEntity
  8
Layer_1
 62
7
100
AcDbSpline
 70
8
 71
3
 72
8
 73
4
 74
0
 40
0
 40
0
 40
0
 40
0
 40
1
 40
1
 40
1
 40
1
 10
4.604343
 20
4.144259
 30
0.0
 10
4.604343
 20
4.146028
 30
0.0
 10
4.584501
 20
4.151345
 30
0.0
 10
4.560973
 20
4.156448
 30
0.0
  0
SPLINE
  5
12d
100
AcDbEntity
  8
Layer_1
 62
7
100
AcDbSpline
 70
8
 71
3
 72
8
 73
4
 74
0
 40
0
 40
0
 40
0
 40
0
 40
1
 40
1
 40
1
 40
1
 10
4.560973
 20
4.156448
 30
0.0
 10
4.500879
 20
4.168637
 30
0.0
 10
4.412438
 20
4.229015
 30
0.0
 10
4.421225
 20
4.252174
 30
0.0
  0
SPLINE
  5
12e
100
AcDbEntity
  8
Layer_1
 62
7
100
AcDbSpline
 70
8
 71
3
 72
8
 73
4
 74
0
 40
0
 40
0
 40
0
 40
0
 40
1
 40
1
 40
1
 40
1
 10
4.421225
 20
4.252174
 30
0.0
 10
4.429729
 20
4.271733
 30
0.0
 10
4.380123
 20
4.405953
 30
0.0
 10
4.335052
 20
4.488952
 30
0.0
  0
SPLINE
  5
12f
100
AcDbEntity
  8
Layer_1
 62
7
100
AcDbSpline
 70
8
 71
3
 72
8
 73
4
 74
0
 40
0
 40
0
 40
0
 40
0
 40
1
 40
1
 40
1
 40
1
 10
4.335052
 20
4.488952
 30
0.0
 10
4.320879
 20
4.515881
 30
0.0
 10
4.309540
 20
4.546580
 30
0.0
 10
4.309540
 20
4.557238
 30
0.0
  0
SPLINE
  5
130
100
AcDbEntity
  8
Layer_1
 62
7
100
AcDbSpline
 70
8
 71
3
 72
8
 73
4
 74
0
 40
0
 40
0
 40
0
 40
0
 40
1
 40
1
 40
1
 40
1
 10
4.309540
 20
4.557238
 30
0.0
 10
4.309540
 20
4.567726
 30
0.0
 10
4.295367
 20
4.606108
 30
0.0
 10
4.276375
 20
4.642108
 30
0.0
  0
SPLINE
  5
131
100
AcDbEntity
  8
Layer_1
 62
7
100
AcDbSpline
 70
8
 71
3
 72
8
 73
4
 74
0
 40
0
 40
0
 40
0
 40
0
 40
1
 40
1
 40
1
 40
1
 10
4.276375
 20
4.642108
 30
0.0
 10
4.256532
 20
4.678108
 30
0.0
 10
4.245477
 20
4.710252
 30
0.0
 10
4.248028
 20
4.713484
 30
0.0
  0
SPLINE
  5
132
100
AcDbEntity
  8
Layer_1
 62
7
100
AcDbSpline
 70
8
 71
3
 72
8
 73
4
 74
0
 40
0
 40
0
 40
0
 40
0
 40
1
 40
1
 40
1
 40
1
 10
4.248028
 20
4.713484
 30
0.0
 10
4.262202
 20
4.730208
 30
0.0
 10
4.509950
 20
4.484955
 30
0.0
 10
4.509950
 20
4.451478
 30
0.0
  0
SPLINE
  5
133
100
AcDbEntity
  8
Layer_1
 62
7
100
AcDbSpline
 70
8
 71
3
 72
8
 73
4
 74
0
 40
0
 40
0
 40
0
 40
0
 40
1
 40
1
 40
1
 40
1
 10
4.509950
 20
4.451478
 30
0.0
 10
4.509950
 20
4.440989
 30
0.0
 10
4.584784
 20
4.372930
 30
0.0
 10
4.619934
 20
4.351131
 30
0.0
  0
SPLINE
  5
134
100
AcDbEntity
  8
Layer_1
 62
7
100
AcDbSpline
 70
8
 71
3
 72
8
 73
4
 74
0
 40
0
 40
0
 40
0
 40
0
 40
1
 40
1
 40
1
 40
1
 10
4.619934
 20
4.351131
 30
0.0
 10
4.628438
 20
4.346596
 30
0.0
 10
4.634107
 20
4.314734
 30
0.0
 10
4.642611
 20
4.280662
 30
0.0
  0
SPLINE
  5
135
100
AcDbEntity
  8
Layer_1
 62
7
100
AcDbSpline
 70
8
 71
3
 72
8
 73
4
 74
0
 40
0
 40
0
 40
0
 40
0
 40
1
 40
1
 40
1
 40
1
 10
4.723965
 20
4.287777
 30
0.0
 10
4.800501
 20
4.357651
 30
0.0
 10
4.863713
 20
4.392999
 30
0.0
 10
4.912753
 20
4.392999
 30
0.0
  0
SPLINE
  5
136
100
AcDbEntity
  8
Layer_1
 62
7
100
AcDbSpline
 70
8
 71
3
 72
8
 73
4
 74
0
 40
0
 40
0
 40
0
 40
0
 40
1
 40
1
 40
1
 40
1
 10
4.912753
 20
4.392999
 30
0.0
 10
4.926926
 20
4.392999
 30
0.0
 10
4.984753
 20
4.353682
 30
0.0
 10
5.039745
 20
4.305635
 30
0.0
  0
SPLINE
  5
137
100
AcDbEntity
  8
Layer_1
 62
7
100
AcDbSpline
 70
8
 71
3
 72
8
 73
4
 74
0
 40
0
 40
0
 40
0
 40
0
 40
1
 40
1
 40
1
 40
1
 10
5.039745
 20
4.305635
 30
0.0
 10
5.095020
 20
4.257588
 30
0.0
 10
5.142643
 20
4.218271
 30
0.0
 10
5.146044
 20
4.218271
 30
0.0
  0
SPLINE
  5
138
100
AcDbEntity
  8
Layer_1
 62
7
100
AcDbSpline
 70
8
 71
3
 72
8
 73
4
 74
0
 40
0
 40
0
 40
0
 40
0
 40
1
 40
1
 40
1
 40
1
 10
5.146044
 20
4.218271
 30
0.0
 10
5.148879
 20
4.218271
 30
0.0
 10
5.160217
 20
4.236697
 30
0.0
 10
5.168721
 20
4.259062
 30
0.0
  0
SPLINE
  5
139
100
AcDbEntity
  8
Layer_1
 62
7
100
AcDbSpline
 70
8
 71
3
 72
8
 73
4
 74
0
 40
0
 40
0
 40
0
 40
0
 40
1
 40
1
 40
1
 40
1
 10
5.168721
 20
4.259062
 30
0.0
 10
5.177225
 20
4.281456
 30
0.0
 10
5.199619
 20
4.310369
 30
0.0
 10
5.215209
 20
4.323153
 30
0.0
  0
SPLINE
  5
13a
100
AcDbEntity
  8
Layer_1
 62
7
100
AcDbSpline
 70
8
 71
3
 72
8
 73
4
 74
0
 40
0
 40
0
 40
0
 40
0
 40
1
 40
1
 40
1
 40
1
 10
5.215209
 20
4.323153
 30
0.0
 10
5.229383
 20
4.335909
 30
0.0
 10
5.252060
 20
4.360117
 30
0.0
 10
5.261131
 20
4.376841
 30
0.0
  0
SPLINE
  5
13b
100
AcDbEntity
  8
Layer_1
 62
7
100
AcDbSpline
 70
8
 71
3
 72
8
 73
4
 74
0
 40
0
 40
0
 40
0
 40
0
 40
1
 40
1
 40
1
 40
1
 10
5.261131
 20
4.376841
 30
0.0
 10
5.269635
 20
4.393566
 30
0.0
 10
5.283808
 20
4.403771
 30
0.0
 10
5.289477
 20
4.399802
 30
0.0
  0
SPLINE
  5
13c
100
AcDbEntity
  8
Layer_1
 62
7
100
AcDbSpline
 70
8
 71
3
 72
8
 73
4
 74
0
 40
0
 40
0
 40
0
 40
0
 40
1
 40
1
 40
1
 40
1
 10
5.289477
 20
4.399802
 30
0.0
 10
5.303650
 20
4.391015
 30
0.0
 10
5.343052
 20
4.461371
 30
0.0
 10
5.343052
 20
4.494734
 30
0.0
  0
SPLINE
  5
13d
100
AcDbEntity
  8
Layer_1
 62
7
100
AcDbSpline
 70
8
 71
3
 72
8
 73
4
 74
0
 40
0
 40
0
 40
0
 40
0
 40
1
 40
1
 40
1
 40
1
 10
5.343052
 20
4.494734
 30
0.0
 10
5.343052
 20
4.515711
 30
0.0
 10
5.485918
 20
4.660731
 30
0.0
 10
5.507745
 20
4.661582
 30
0.0
  0
SPLINE
  5
13e
100
AcDbEntity
  8
Layer_1
 62
7
100
AcDbSpline
 70
8
 71
3
 72
8
 73
4
 74
0
 40
0
 40
0
 40
0
 40
0
 40
1
 40
1
 40
1
 40
1
 10
5.507745
 20
4.661582
 30
0.0
 10
5.521918
 20
4.662137
 30
0.0
 10
5.519083
 20
4.639755
 30
0.0
 10
5.499241
 20
4.548111
 30
0.0
  0
SPLINE
  5
13f
100
AcDbEntity
  8
Layer_1
 62
7
100
AcDbSpline
 70
8
 71
3
 72
8
 73
4
 74
0
 40
0
 40
0
 40
0
 40
0
 40
1
 40
1
 40
1
 40
1
 10
5.499241
 20
4.548111
 30
0.0
 10
5.490737
 20
4.503947
 30
0.0
 10
5.485068
 20
4.462845
 30
0.0
 10
5.487902
 20
4.456807
 30
0.0
  0
SPLINE
  5
140
100
AcDbEntity
  8
Layer_1
 62
7
100
AcDbSpline
 70
8
 71
3
 72
8
 73
4
 74
0
 40
0
 40
0
 40
0
 40
0
 40
1
 40
1
 40
1
 40
1
 10
5.487902
 20
4.456807
 30
0.0
 10
5.490737
 20
4.450571
 30
0.0
 10
5.485068
 20
4.430161
 30
0.0
 10
5.473729
 20
4.411169
 30
0.0
  0
SPLINE
  5
141
100
AcDbEntity
  8
Layer_1
 62
7
100
AcDbSpline
 70
8
 71
3
 72
8
 73
4
 74
0
 40
0
 40
0
 40
0
 40
0
 40
1
 40
1
 40
1
 40
1
 10
5.473729
 20
4.411169
 30
0.0
 10
5.462391
 20
4.392177
 30
0.0
 10
5.448217
 20
4.360939
 30
0.0
 10
5.445383
 20
4.341862
 30
0.0
  0
SPLINE
  5
142
100
AcDbEntity
  8
Layer_1
 62
7
100
AcDbSpline
 70
8
 71
3
 72
8
 73
4
 74
0
 40
0
 40
0
 40
0
 40
0
 40
1
 40
1
 40
1
 40
1
 10
5.445383
 20
4.341862
 30
0.0
 10
5.443767
 20
4.322586
 30
0.0
 10
5.422706
 20
4.292199
 30
0.0
 10
5.403146
 20
4.273972
 30
0.0
  0
SPLINE
  5
143
100
AcDbEntity
  8
Layer_1
 62
7
100
AcDbSpline
 70
8
 71
3
 72
8
 73
4
 74
0
 40
0
 40
0
 40
0
 40
0
 40
1
 40
1
 40
1
 40
1
 10
5.403146
 20
4.273972
 30
0.0
 10
5.380469
 20
4.255547
 30
0.0
 10
5.364595
 20
4.231226
 30
0.0
 10
5.364595
 20
4.219575
 30
0.0
  0
SPLINE
  5
144
100
AcDbEntity
  8
Layer_1
 62
7
100
AcDbSpline
 70
8
 71
3
 72
8
 73
4
 74
0
 40
0
 40
0
 40
0
 40
0
 40
1
 40
1
 40
1
 40
1
 10
5.364595
 20
4.219575
 30
0.0
 10
5.364595
 20
4.205402
 30
0.0
 10
5.336249
 20
4.189812
 30
0.0
 10
5.284091
 20
4.172719
 30
0.0
  0
SPLINE
  5
145
100
AcDbEntity
  8
Layer_1
 62
7
100
AcDbSpline
 70
8
 71
3
 72
8
 73
4
 74
0
 40
0
 40
0
 40
0
 40
0
 40
1
 40
1
 40
1
 40
1
 10
5.284091
 20
4.172719
 30
0.0
 10
5.239871
 20
4.158545
 30
0.0
 10
5.201603
 20
4.145506
 30
0.0
 10
5.199052
 20
4.143578
 30
0.0
  0
SPLINE
  5
146
100
AcDbEntity
  8
Layer_1
 62
7
100
AcDbSpline
 70
8
 71
3
 72
8
 73
4
 74
0
 40
0
 40
0
 40
0
 40
0
 40
1
 40
1
 40
1
 40
1
 10
5.199052
 20
4.143578
 30
0.0
 10
5.196217
 20
4.141648
 30
0.0
 10
5.204721
 20
4.126004
 30
0.0
 10
5.213225
 20
4.108712
 30
0.0
  0
SPLINE
  5
147
100
AcDbEntity
  8
Layer_1
 62
7
100
AcDbSpline
 70
8
 71
3
 72
8
 73
4
 74
0
 40
0
 40
0
 40
0
 40
0
 40
1
 40
1
 40
1
 40
1
 10
5.213225
 20
4.108712
 30
0.0
 10
5.238737
 20
4.069452
 30
0.0
 10
5.264816
 20
3.944104
 30
0.0
 10
5.254328
 20
3.916467
 30
0.0
  0
SPLINE
  5
148
100
AcDbEntity
  8
Layer_1
 62
7
100
AcDbSpline
 70
8
 71
3
 72
8
 73
4
 74
0
 40
0
 40
0
 40
0
 40
0
 40
1
 40
1
 40
1
 40
1
 10
5.254328
 20
3.916467
 30
0.0
 10
5.242989
 20
3.882281
 30
0.0
 10
5.259997
 20
3.892939
 30
0.0
 10
5.309320
 20
3.947166
 30
0.0
  0
SPLINE
  5
149
100
AcDbEntity
  8
Layer_1
 62
7
100
AcDbSpline
 70
8
 71
3
 72
8
 73
4
 74
0
 40
0
 40
0
 40
0
 40
0
 40
1
 40
1
 40
1
 40
1
 10
5.309320
 20
3.947166
 30
0.0
 10
5.334831
 20
3.975512
 30
0.0
 10
5.407965
 20
4.027755
 30
0.0
 10
5.471178
 20
4.063386
 30
0.0
  0
SPLINE
  5
14a
100
AcDbEntity
  8
Layer_1
 62
7
100
AcDbSpline
 70
8
 71
3
 72
8
 73
4
 74
0
 40
0
 40
0
 40
0
 40
0
 40
1
 40
1
 40
1
 40
1
 10
5.471178
 20
4.063386
 30
0.0
 10
5.618863
 20
4.146300
 30
0.0
 10
5.670737
 20
4.205686
 30
0.0
 10
5.692280
 20
4.316208
 30
0.0
  0
SPLINE
  5
14b
100
AcDbEntity
  8
Layer_1
 62
7
100
AcDbSpline
 70
8
 71
3
 72
8
 73
4
 74
0
 40
0
 40
0
 40
0
 40
0
 40
1
 40
1
 40
1
 40
1
 10
5.692280
 20
4.316208
 30
0.0
 10
5.737635
 20
4.549783
 30
0.0
 10
5.795745
 20
4.688703
 30
0.0
 10
5.849036
 20
4.688703
 30
0.0
  0
SPLINE
  5
14c
100
AcDbEntity
  8
Layer_1
 62
7
100
AcDbSpline
 70
8
 71
3
 72
8
 73
4
 74
0
 40
0
 40
0
 40
0
 40
0
 40
1
 40
1
 40
1
 40
1
 10
5.849036
 20
4.688703
 30
0.0
 10
5.879934
 20
4.688703
 30
0.0
 10
5.881351
 20
4.665459
 30
0.0
 10
5.854706
 20
4.579144
 30
0.0
  0
SPLINE
  5
14d
100
AcDbEntity
  8
Layer_1
 62
7
100
AcDbSpline
 70
8
 71
3
 72
8
 73
4
 74
0
 40
0
 40
0
 40
0
 40
0
 40
1
 40
1
 40
1
 40
1
 10
5.854706
 20
4.579144
 30
0.0
 10
5.840532
 20
4.532231
 30
0.0
 10
5.813603
 20
4.427292
 30
0.0
 10
5.795178
 20
4.345966
 30
0.0
  0
SPLINE
  5
14e
100
AcDbEntity
  8
Layer_1
 62
7
100
AcDbSpline
 70
8
 71
3
 72
8
 73
4
 74
0
 40
0
 40
0
 40
0
 40
0
 40
1
 40
1
 40
1
 40
1
 10
5.795178
 20
4.345966
 30
0.0
 10
5.775335
 20
4.264669
 30
0.0
 10
5.755776
 20
4.182152
 30
0.0
 10
5.748406
 20
4.162650
 30
0.0
  0
SPLINE
  5
14f
100
AcDbEntity
  8
Layer_1
 62
7
100
AcDbSpline
 70
8
 71
3
 72
8
 73
4
 74
0
 40
0
 40
0
 40
0
 40
0
 40
1
 40
1
 40
1
 40
1
 10
5.748406
 20
4.162650
 30
0.0
 10
5.725729
 20
4.108990
 30
0.0
 10
5.655997
 20
4.033107
 30
0.0
 10
5.578044
 20
3.983557
 30
0.0
  0
SPLINE
  5
150
100
AcDbEntity
  8
Layer_1
 62
7
100
AcDbSpline
 70
8
 71
3
 72
8
 73
4
 74
0
 40
0
 40
0
 40
0
 40
0
 40
1
 40
1
 40
1
 40
1
 10
5.578044
 20
3.983557
 30
0.0
 10
5.534957
 20
3.956061
 30
0.0
 10
5.495272
 20
3.916007
 30
0.0
 10
5.472595
 20
3.877740
 30
0.0
  0
SPLINE
  5
151
100
AcDbEntity
  8
Layer_1
 62
7
100
AcDbSpline
 70
8
 71
3
 72
8
 73
4
 74
0
 40
0
 40
0
 40
0
 40
0
 40
1
 40
1
 40
1
 40
1
 10
5.472595
 20
3.877740
 30
0.0
 10
5.452753
 20
3.843922
 30
0.0
 10
5.424123
 20
3.807582
 30
0.0
 10
5.409099
 20
3.796981
 30
0.0
  0
SPLINE
  5
152
100
AcDbEntity
  8
Layer_1
 62
7
100
AcDbSpline
 70
8
 71
3
 72
8
 73
4
 74
0
 40
0
 40
0
 40
0
 40
0
 40
1
 40
1
 40
1
 40
1
 10
5.409099
 20
3.796981
 30
0.0
 10
5.380753
 20
3.777989
 30
0.0
 10
5.380753
 20
3.776571
 30
0.0
 10
5.437446
 20
3.705648
 30
0.0
  0
SPLINE
  5
153
100
AcDbEntity
  8
Layer_1
 62
7
100
AcDbSpline
 70
8
 71
3
 72
8
 73
4
 74
0
 40
0
 40
0
 40
0
 40
0
 40
1
 40
1
 40
1
 40
1
 10
5.437446
 20
3.705648
 30
0.0
 10
5.468343
 20
3.666048
 30
0.0
 10
5.501509
 20
3.605274
 30
0.0
 10
5.513131
 20
3.570606
 30
0.0
  0
SPLINE
  5
154
100
AcDbEntity
  8
Layer_1
 62
7
100
AcDbSpline
 70
8
 71
3
 72
8
 73
4
 74
0
 40
0
 40
0
 40
0
 40
0
 40
1
 40
1
 40
1
 40
1
 10
5.513131
 20
3.570606
 30
0.0
 10
5.532973
 20
3.510540
 30
0.0
 10
5.535808
 20
3.508669
 30
0.0
 10
5.557351
 20
3.531119
 30
0.0
  0
SPLINE
  5
155
100
AcDbEntity
  8
Layer_1
 62
7
100
AcDbSpline
 70
8
 71
3
 72
8
 73
4
 74
0
 40
0
 40
0
 40
0
 40
0
 40
1
 40
1
 40
1
 40
1
 10
5.557351
 20
3.531119
 30
0.0
 10
5.580028
 20
3.552096
 30
0.0
 10
5.781855
 20
3.689916
 30
0.0
 10
5.908535
 20
3.768691
 30
0.0
  0
SPLINE
  5
156
100
AcDbEntity
  8
Layer_1
 62
7
100
AcDbSpline
 70
8
 71
3
 72
8
 73
4
 74
0
 40
0
 40
0
 40
0
 40
0
 40
1
 40
1
 40
1
 40
1
 10
5.908535
 20
3.768691
 30
0.0
 10
5.994992
 20
3.822521
 30
0.0
 10
6.397569
 20
4.030300
 30
0.0
 10
6.582643
 20
4.116593
 30
0.0
  0
SPLINE
  5
157
100
AcDbEntity
  8
Layer_1
 62
7
100
AcDbSpline
 70
8
 71
3
 72
8
 73
4
 74
0
 40
0
 40
0
 40
0
 40
0
 40
1
 40
1
 40
1
 40
1
 10
6.582643
 20
4.116593
 30
0.0
 10
6.610989
 20
4.129065
 30
0.0
 10
6.770013
 20
4.186920
 30
0.0
 10
6.938816
 20
4.244917
 30
0.0
  0
SPLINE
  5
158
100
AcDbEntity
  8
Layer_1
 62
7
100
AcDbSpline
 70
8
 71
3
 72
8
 73
4
 74
0
 40
0
 40
0
 40
0
 40
0
 40
1
 40
1
 40
1
 40
1
 10
6.938816
 20
4.244917
 30
0.0
 10
7.107761
 20
4.302914
 30
0.0
 10
7.375946
 20
4.396712
 30
0.0
 10
7.534885
 20
4.453405
 30
0.0
  0
SPLINE
  5
159
100
AcDbEntity
  8
Layer_1
 62
7
100
AcDbSpline
 70
8
 71
3
 72
8
 73
4
 74
0
 40
0
 40
0
 40
0
 40
0
 40
1
 40
1
 40
1
 40
1
 10
7.534885
 20
4.453405
 30
0.0
 10
7.693909
 20
4.510098
 30
0.0
 10
7.890406
 20
4.574501
 30
0.0
 10
7.971732
 20
4.596555
 30
0.0
  0
SPLINE
  5
15a
100
AcDbEntity
  8
Layer_1
 62
7
100
AcDbSpline
 70
8
 71
3
 72
8
 73
4
 74
0
 40
0
 40
0
 40
0
 40
0
 40
1
 40
1
 40
1
 40
1
 10
7.971732
 20
4.596555
 30
0.0
 10
8.541723
 20
4.751185
 30
0.0
 10
8.723707
 20
4.784152
 30
0.0
 10
9.053688
 20
4.792684
 30
0.0
  0
SPLINE
  5
15b
100
AcDbEntity
  8
Layer_1
 62
7
100
AcDbSpline
 70
8
 71
3
 72
8
 73
4
 74
0
 40
0
 40
0
 40
0
 40
0
 40
1
 40
1
 40
1
 40
1
 10
9.053688
 20
4.792684
 30
0.0
 10
9.280176
 20
4.798637
 30
0.0
 10
9.296050
 20
4.797219
 30
0.0
 10
9.470381
 20
4.757052
 30
0.0
  0
SPLINE
  5
15c
100
AcDbEntity
  8
Layer_1
 62
7
100
AcDbSpline
 70
8
 71
3
 72
8
 73
4
 74
0
 40
0
 40
0
 40
0
 40
0
 40
1
 40
1
 40
1
 40
1
 10
9.470381
 20
4.757052
 30
0.0
 10
9.669657
 20
4.711216
 30
0.0
 10
9.815783
 20
4.648627
 30
0.0
 10
9.880328
 20
4.581219
 30
0.0
  0
SPLINE
  5
15d
100
AcDbEntity
  8
Layer_1
 62
7
100
AcDbSpline
 70
8
 71
3
 72
8
 73
4
 74
0
 40
0
 40
0
 40
0
 40
0
 40
1
 40
1
 40
1
 40
1
 10
9.880328
 20
4.581219
 30
0.0
 10
9.916894
 20
4.542980
 30
0.0
 10
9.920580
 20
4.530819
 30
0.0
 10
9.920580
 20
4.448813
 30
0.0
  0
SPLINE
  5
15e
100
AcDbEntity
  8
Layer_1
 62
7
100
AcDbSpline
 70
8
 71
3
 72
8
 73
4
 74
0
 40
0
 40
0
 40
0
 40
0
 40
1
 40
1
 40
1
 40
1
 10
9.920580
 20
4.448813
 30
0.0
 10
9.920580
 20
4.367430
 30
0.0
 10
9.914910
 20
4.344555
 30
0.0
 10
9.851698
 20
4.217846
 30
0.0
  0
SPLINE
  5
15f
100
AcDbEntity
  8
Layer_1
 62
7
100
AcDbSpline
 70
8
 71
3
 72
8
 73
4
 74
0
 40
0
 40
0
 40
0
 40
0
 40
1
 40
1
 40
1
 40
1
 10
9.851698
 20
4.217846
 30
0.0
 10
9.771477
 20
4.053720
 30
0.0
 10
9.672548
 20
3.911945
 30
0.0
 10
9.503178
 20
3.718688
 30
0.0
  0
SPLINE
  5
160
100
AcDbEntity
  8
Layer_1
 62
7
100
AcDbSpline
 70
8
 71
3
 72
8
 73
4
 74
0
 40
0
 40
0
 40
0
 40
0
 40
1
 40
1
 40
1
 40
1
 10
9.503178
 20
3.718688
 30
0.0
 10
9.436280
 20
3.642322
 30
0.0
 10
9.344154
 20
3.533557
 30
0.0
 10
9.298233
 20
3.476921
 30
0.0
  0
SPLINE
  5
161
100
AcDbEntity
  8
Layer_1
 62
7
100
AcDbSpline
 70
8
 71
3
 72
8
 73
4
 74
0
 40
0
 40
0
 40
0
 40
0
 40
1
 40
1
 40
1
 40
1
 10
9.298233
 20
3.476921
 30
0.0
 10
9.252312
 20
3.420285
 30
0.0
 10
9.152816
 20
3.311434
 30
0.0
 10
9.076847
 20
3.235012
 30
0.0
  0
SPLINE
  5
162
100
AcDbEntity
  8
Layer_1
 62
7
100
AcDbSpline
 70
8
 71
3
 72
8
 73
4
 74
0
 40
0
 40
0
 40
0
 40
0
 40
1
 40
1
 40
1
 40
1
 10
9.076847
 20
3.235012
 30
0.0
 10
8.949855
 20
3.106971
 30
0.0
 10
8.928595
 20
3.091466
 30
0.0
 10
8.808406
 20
3.037948
 30
0.0
  0
SPLINE
  5
163
100
AcDbEntity
  8
Layer_1
 62
7
100
AcDbSpline
 70
8
 71
3
 72
8
 73
4
 74
0
 40
0
 40
0
 40
0
 40
0
 40
1
 40
1
 40
1
 40
1
 10
8.808406
 20
3.037948
 30
0.0
 10
8.736406
 20
3.005973
 30
0.0
 10
8.621603
 20
2.968102
 30
0.0
 10
8.553288
 20
2.953787
 30
0.0
  0
SPLINE
  5
164
100
AcDbEntity
  8
Layer_1
 62
7
100
AcDbSpline
 70
8
 71
3
 72
8
 73
4
 74
0
 40
0
 40
0
 40
0
 40
0
 40
1
 40
1
 40
1
 40
1
 10
8.553288
 20
2.953787
 30
0.0
 10
8.420343
 20
2.926007
 30
0.0
 10
7.990639
 20
2.888023
 30
0.0
 10
7.807039
 20
2.887853
 30
0.0
  0
SPLINE
  5
165
100
AcDbEntity
  8
Layer_1
 62
7
100
AcDbSpline
 70
8
 71
3
 72
8
 73
4
 74
0
 40
0
 40
0
 40
0
 40
0
 40
1
 40
1
 40
1
 40
1
 10
7.807039
 20
2.887853
 30
0.0
 10
7.746094
 20
2.887796
 30
0.0
 10
7.696772
 20
2.883318
 30
0.0
 10
7.697339
 20
2.877648
 30
0.0
  0
SPLINE
  5
166
100
AcDbEntity
  8
Layer_1
 62
7
100
AcDbSpline
 70
8
 71
3
 72
8
 73
4
 74
0
 40
0
 40
0
 40
0
 40
0
 40
1
 40
1
 40
1
 40
1
 10
7.697339
 20
2.877648
 30
0.0
 10
7.697849
 20
2.871979
 30
0.0
 10
7.750913
 20
2.841733
 30
0.0
 10
7.814976
 20
2.810212
 30
0.0
  0
SPLINE
  5
167
100
AcDbEntity
  8
Layer_1
 62
7
100
AcDbSpline
 70
8
 71
3
 72
8
 73
4
 74
0
 40
0
 40
0
 40
0
 40
0
 40
1
 40
1
 40
1
 40
1
 10
7.814976
 20
2.810212
 30
0.0
 10
8.053370
 20
2.692858
 30
0.0
 10
8.428054
 20
2.367659
 30
0.0
 10
8.460935
 20
2.249253
 30
0.0
  0
SPLINE
  5
168
100
AcDbEntity
  8
Layer_1
 62
7
100
AcDbSpline
 70
8
 71
3
 72
8
 73
4
 74
0
 40
0
 40
0
 40
0
 40
0
 40
1
 40
1
 40
1
 40
1
 10
8.460935
 20
2.249253
 30
0.0
 10
8.486447
 20
2.164780
 30
0.0
 10
8.480778
 20
2.111177
 30
0.0
 10
8.438258
 20
2.043372
 30
0.0
  0
SPLINE
  5
169
100
AcDbEntity
  8
Layer_1
 62
7
100
AcDbSpline
 70
8
 71
3
 72
8
 73
4
 74
0
 40
0
 40
0
 40
0
 40
0
 40
1
 40
1
 40
1
 40
1
 10
8.438258
 20
2.043372
 30
0.0
 10
8.418416
 20
2.008790
 30
0.0
 10
8.398573
 20
1.977467
 30
0.0
 10
8.394321
 20
1.973782
 30
0.0
  0
SPLINE
  5
16a
100
AcDbEntity
  8
Layer_1
 62
7
100
AcDbSpline
 70
8
 71
3
 72
8
 73
4
 74
0
 40
0
 40
0
 40
0
 40
0
 40
1
 40
1
 40
1
 40
1
 10
8.394321
 20
1.973782
 30
0.0
 10
8.388652
 20
1.970097
 30
0.0
 10
8.374479
 20
1.949404
 30
0.0
 10
8.361439
 20
1.927634
 30
0.0
  0
SPLINE
  5
16b
100
AcDbEntity
  8
Layer_1
 62
7
100
AcDbSpline
 70
8
 71
3
 72
8
 73
4
 74
0
 40
0
 40
0
 40
0
 40
0
 40
1
 40
1
 40
1
 40
1
 10
8.361439
 20
1.927634
 30
0.0
 10
8.322888
 20
1.867256
 30
0.0
 10
8.113975
 20
1.654743
 30
0.0
 10
8.031005
 20
1.591606
 30
0.0
  0
SPLINE
  5
16c
100
AcDbEntity
  8
Layer_1
 62
7
100
AcDbSpline
 70
8
 71
3
 72
8
 73
4
 74
0
 40
0
 40
0
 40
0
 40
0
 40
1
 40
1
 40
1
 40
1
 10
8.031005
 20
1.591606
 30
0.0
 10
7.869146
 20
1.468384
 30
0.0
 10
7.685943
 20
1.380595
 30
0.0
 10
7.540413
 20
1.356473
 30
0.0
  0
SPLINE
  5
16d
100
AcDbEntity
  8
Layer_1
 62
7
100
AcDbSpline
 70
8
 71
3
 72
8
 73
4
 74
0
 40
0
 40
0
 40
0
 40
0
 40
1
 40
1
 40
1
 40
1
 10
7.540413
 20
1.356473
 30
0.0
 10
7.237757
 20
1.306243
 30
0.0
 10
6.972605
 20
1.285153
 30
0.0
 10
6.733956
 20
1.292240
 30
0.0
  0
SPLINE
  5
16e
100
AcDbEntity
  8
Layer_1
 62
7
100
AcDbSpline
 70
8
 71
3
 72
8
 73
4
 74
0
 40
0
 40
0
 40
0
 40
0
 40
1
 40
1
 40
1
 40
1
 10
6.733956
 20
1.292240
 30
0.0
 10
6.498397
 20
1.299326
 30
0.0
 10
6.403039
 20
1.325745
 30
0.0
 10
6.231203
 20
1.431789
 30
0.0
  0
SPLINE
  5
16f
100
AcDbEntity
  8
Layer_1
 62
7
100
AcDbSpline
 70
8
 71
3
 72
8
 73
4
 74
0
 40
0
 40
0
 40
0
 40
0
 40
1
 40
1
 40
1
 40
1
 10
6.231203
 20
1.431789
 30
0.0
 10
6.110731
 20
1.505972
 30
0.0
 10
5.903546
 20
1.710888
 30
0.0
 10
5.794384
 20
1.863234
 30
0.0
  0
SPLINE
  5
170
100
AcDbEntity
  8
Layer_1
 62
7
100
AcDbSpline
 70
8
 71
3
 72
8
 73
4
 74
0
 40
0
 40
0
 40
0
 40
0
 40
1
 40
1
 40
1
 40
1
 10
5.794384
 20
1.863234
 30
0.0
 10
5.753565
 20
1.920352
 30
0.0
 10
5.703109
 20
1.986314
 30
0.0
 10
5.682416
 20
2.009813
 30
0.0
  0
LWPOLYLINE
  5
171
100
AcDbEntity
  8
Layer_1
 62
7
100
AcDbPolyline
 90
3
 70
0
 10
4.642611
 20
4.280662
 30
0.0
 10
4.648280
 20
4.218725
 30
0.0
 10
4.723965
 20
4.287777
 30
0.0
  0
SPLINE
  5
172
100
AcDbEntity
  8
Layer_1
 62
7
100
AcDbSpline
 70
8
 71
3
 72
8
 73
4
 74
0
 40
0
 40
0
 40
0
 40
0
 40
1
 40
1
 40
1
 40
1
 10
5.645225
 20
1.700686
 30
0.0
 10
5.645395
 20
1.361785
 30
0.0
 10
5.644035
 20
1.342832
 30
0.0
 10
5.607808
 20
1.187497
 30
0.0
  0
SPLINE
  5
173
100
AcDbEntity
  8
Layer_1
 62
7
100
AcDbSpline
 70
8
 71
3
 72
8
 73
4
 74
0
 40
0
 40
0
 40
0
 40
0
 40
1
 40
1
 40
1
 40
1
 10
5.607808
 20
1.187497
 30
0.0
 10
5.551398
 20
0.946665
 30
0.0
 10
5.485635
 20
0.767958
 30
0.0
 10
5.365729
 20
0.528895
 30
0.0
  0
SPLINE
  5
174
100
AcDbEntity
  8
Layer_1
 62
7
100
AcDbSpline
 70
8
 71
3
 72
8
 73
4
 74
0
 40
0
 40
0
 40
0
 40
0
 40
1
 40
1
 40
1
 40
1
 10
5.365729
 20
0.528895
 30
0.0
 10
5.192816
 20
0.184398
 30
0.0
 10
5.091902
 20
0.052513
 30
0.0
 10
4.974775
 20
0.017735
 30
0.0
  0
SPLINE
  5
175
100
AcDbEntity
  8
Layer_1
 62
7
100
AcDbSpline
 70
8
 71
3
 72
8
 73
4
 74
0
 40
0
 40
0
 40
0
 40
0
 40
1
 40
1
 40
1
 40
1
 10
4.974775
 20
0.017735
 30
0.0
 10
4.938208
 20
0.006963
 30
0.0
 10
4.904759
 20
-0.001257
 30
0.0
 10
4.900791
 20
0.000160
 30
0.0
  0
SPLINE
  5
176
100
AcDbEntity
  8
Layer_1
 62
7
100
AcDbSpline
 70
8
 71
3
 72
8
 73
4
 74
0
 40
0
 40
0
 40
0
 40
0
 40
1
 40
1
 40
1
 40
1
 10
4.900791
 20
0.000160
 30
0.0
 10
4.895121
 20
0.001265
 30
0.0
 10
4.878113
 20
0.004412
 30
0.0
 10
4.859688
 20
0.007530
 30
0.0
  0
LWPOLYLINE
  5
177
100
AcDbEntity
  8
Layer_1
 62
7
100
AcDbPolyline
 90
3
 70
0
 10
5.682416
 20
2.009813
 30
0.0
 10
5.644998
 20
2.052588
 30
0.0
 10
5.645225
 20
1.700686
 30
0.0
  0
SPLINE
  5
178
100
AcDbEntity
  8
Layer_1
 62
7
100
AcDbSpline
 70
8
 71
3
 72
8
 73
4
 74
0
 40
0
 40
0
 40
0
 40
0
 40
1
 40
1
 40
1
 40
1
 10
5.004680
 20
0.074810
 30
0.0
 10
5.088302
 20
0.120987
 30
0.0
 10
5.212743
 20
0.306996
 30
0.0
 10
5.348126
 20
0.588692
 30
0.0
  0
SPLINE
  5
179
100
AcDbEntity
  8
Layer_1
 62
7
100
AcDbSpline
 70
8
 71
3
 72
8
 73
4
 74
0
 40
0
 40
0
 40
0
 40
0
 40
1
 40
1
 40
1
 40
1
 10
5.348126
 20
0.588692
 30
0.0
 10
5.563843
 20
1.038170
 30
0.0
 10
5.621386
 20
1.288132
 30
0.0
 10
5.607213
 20
1.717958
 30
0.0
  0
SPLINE
  5
17a
100
AcDbEntity
  8
Layer_1
 62
7
100
AcDbSpline
 70
8
 71
3
 72
8
 73
4
 74
0
 40
0
 40
0
 40
0
 40
0
 40
1
 40
1
 40
1
 40
1
 10
5.607213
 20
1.717958
 30
0.0
 10
5.595874
 20
2.108586
 30
0.0
 10
5.562142
 20
2.346572
 30
0.0
 10
5.499213
 20
2.525121
 30
0.0
  0
LWPOLYLINE
  5
17b
100
AcDbEntity
  8
Layer_1
 62
7
100
AcDbPolyline
 90
2
 70
0
 10
4.859688
 20
0.007530
 30
0.0
 10
4.860680
 20
0.006892
 30
0.0
  0
SPLINE
  5
17c
100
AcDbEntity
  8
Layer_1
 62
7
100
AcDbSpline
 70
8
 71
3
 72
8
 73
4
 74
0
 40
0
 40
0
 40
0
 40
0
 40
1
 40
1
 40
1
 40
1
 10
5.496661
 20
2.625949
 30
0.0
 10
5.516504
 20
2.634736
 30
0.0
 10
5.525008
 20
2.648343
 30
0.0
 10
5.522173
 20
2.669035
 30
0.0
  0
SPLINE
  5
17d
100
AcDbEntity
  8
Layer_1
 62
7
100
AcDbSpline
 70
8
 71
3
 72
8
 73
4
 74
0
 40
0
 40
0
 40
0
 40
0
 40
1
 40
1
 40
1
 40
1
 10
5.522173
 20
2.669035
 30
0.0
 10
5.519339
 20
2.686610
 30
0.0
 10
5.527843
 20
2.702626
 30
0.0
 10
5.536346
 20
2.707133
 30
0.0
  0
SPLINE
  5
17e
100
AcDbEntity
  8
Layer_1
 62
7
100
AcDbSpline
 70
8
 71
3
 72
8
 73
4
 74
0
 40
0
 40
0
 40
0
 40
0
 40
1
 40
1
 40
1
 40
1
 10
5.536346
 20
2.707133
 30
0.0
 10
5.547685
 20
2.711102
 30
0.0
 10
5.550520
 20
2.723007
 30
0.0
 10
5.547685
 20
2.732928
 30
0.0
  0
SPLINE
  5
17f
100
AcDbEntity
  8
Layer_1
 62
7
100
AcDbSpline
 70
8
 71
3
 72
8
 73
4
 74
0
 40
0
 40
0
 40
0
 40
0
 40
1
 40
1
 40
1
 40
1
 10
5.547685
 20
2.732928
 30
0.0
 10
5.544850
 20
2.743417
 30
0.0
 10
5.556189
 20
2.759007
 30
0.0
 10
5.578583
 20
2.770176
 30
0.0
  0
SPLINE
  5
180
100
AcDbEntity
  8
Layer_1
 62
7
100
AcDbSpline
 70
8
 71
3
 72
8
 73
4
 74
0
 40
0
 40
0
 40
0
 40
0
 40
1
 40
1
 40
1
 40
1
 10
5.578583
 20
2.770176
 30
0.0
 10
5.604094
 20
2.782365
 30
0.0
 10
5.609480
 20
2.792853
 30
0.0
 10
5.601260
 20
2.798721
 30
0.0
  0
SPLINE
  5
181
100
AcDbEntity
  8
Layer_1
 62
7
100
AcDbSpline
 70
8
 71
3
 72
8
 73
4
 74
0
 40
0
 40
0
 40
0
 40
0
 40
1
 40
1
 40
1
 40
1
 10
5.601260
 20
2.798721
 30
0.0
 10
5.569512
 20
2.818280
 30
0.0
 10
5.589921
 20
2.833558
 30
0.0
 10
5.643213
 20
2.833927
 30
0.0
  0
SPLINE
  5
182
100
AcDbEntity
  8
Layer_1
 62
7
100
AcDbSpline
 70
8
 71
3
 72
8
 73
4
 74
0
 40
0
 40
0
 40
0
 40
0
 40
1
 40
1
 40
1
 40
1
 10
5.643213
 20
2.833927
 30
0.0
 10
5.688567
 20
2.834258
 30
0.0
 10
5.695370
 20
2.837045
 30
0.0
 10
5.676661
 20
2.848100
 30
0.0
  0
SPLINE
  5
183
100
AcDbEntity
  8
Layer_1
 62
7
100
AcDbSpline
 70
8
 71
3
 72
8
 73
4
 74
0
 40
0
 40
0
 40
0
 40
0
 40
1
 40
1
 40
1
 40
1
 10
5.676661
 20
2.848100
 30
0.0
 10
5.634992
 20
2.872195
 30
0.0
 10
5.651150
 20
2.888069
 30
0.0
 10
5.707559
 20
2.879111
 30
0.0
  0
SPLINE
  5
184
100
AcDbEntity
  8
Layer_1
 62
7
100
AcDbSpline
 70
8
 71
3
 72
8
 73
4
 74
0
 40
0
 40
0
 40
0
 40
0
 40
1
 40
1
 40
1
 40
1
 10
5.707559
 20
2.879111
 30
0.0
 10
5.738457
 20
2.874576
 30
0.0
 10
5.761417
 20
2.874009
 30
0.0
 10
5.761417
 20
2.878779
 30
0.0
  0
SPLINE
  5
185
100
AcDbEntity
  8
Layer_1
 62
7
100
AcDbSpline
 70
8
 71
3
 72
8
 73
4
 74
0
 40
0
 40
0
 40
0
 40
0
 40
1
 40
1
 40
1
 40
1
 10
5.761417
 20
2.878779
 30
0.0
 10
5.761417
 20
2.883315
 30
0.0
 10
5.735906
 20
2.903157
 30
0.0
 10
5.704724
 20
2.922915
 30
0.0
  0
SPLINE
  5
186
100
AcDbEntity
  8
Layer_1
 62
7
100
AcDbSpline
 70
8
 71
3
 72
8
 73
4
 74
0
 40
0
 40
0
 40
0
 40
0
 40
1
 40
1
 40
1
 40
1
 10
5.704724
 20
2.922915
 30
0.0
 10
5.659087
 20
2.951743
 30
0.0
 10
5.652567
 20
2.960417
 30
0.0
 10
5.671276
 20
2.966994
 30
0.0
  0
SPLINE
  5
187
100
AcDbEntity
  8
Layer_1
 62
7
100
AcDbSpline
 70
8
 71
3
 72
8
 73
4
 74
0
 40
0
 40
0
 40
0
 40
0
 40
1
 40
1
 40
1
 40
1
 10
5.671276
 20
2.966994
 30
0.0
 10
5.693953
 20
2.974364
 30
0.0
 10
5.693953
 20
2.977482
 30
0.0
 10
5.665606
 20
3.000868
 30
0.0
  0
SPLINE
  5
188
100
AcDbEntity
  8
Layer_1
 62
7
100
AcDbSpline
 70
8
 71
3
 72
8
 73
4
 74
0
 40
0
 40
0
 40
0
 40
0
 40
1
 40
1
 40
1
 40
1
 10
5.665606
 20
3.000868
 30
0.0
 10
5.628472
 20
3.032842
 30
0.0
 10
5.645764
 20
3.040099
 30
0.0
 10
5.723433
 20
3.022978
 30
0.0
  0
SPLINE
  5
189
100
AcDbEntity
  8
Layer_1
 62
7
100
AcDbSpline
 70
8
 71
3
 72
8
 73
4
 74
0
 40
0
 40
0
 40
0
 40
0
 40
1
 40
1
 40
1
 40
1
 10
5.723433
 20
3.022978
 30
0.0
 10
5.794299
 20
3.007104
 30
0.0
 10
5.805071
 20
3.012773
 30
0.0
 10
5.754331
 20
3.039702
 30
0.0
  0
SPLINE
  5
18a
100
AcDbEntity
  8
Layer_1
 62
7
100
AcDbSpline
 70
8
 71
3
 72
8
 73
4
 74
0
 40
0
 40
0
 40
0
 40
0
 40
1
 40
1
 40
1
 40
1
 10
5.754331
 20
3.039702
 30
0.0
 10
5.707276
 20
3.064647
 30
0.0
 10
5.655685
 20
3.112014
 30
0.0
 10
5.655685
 20
3.130921
 30
0.0
  0
SPLINE
  5
18b
100
AcDbEntity
  8
Layer_1
 62
7
100
AcDbSpline
 70
8
 71
3
 72
8
 73
4
 74
0
 40
0
 40
0
 40
0
 40
0
 40
1
 40
1
 40
1
 40
1
 10
5.655685
 20
3.130921
 30
0.0
 10
5.655685
 20
3.139992
 30
0.0
 10
5.678362
 20
3.141693
 30
0.0
 10
5.712661
 20
3.136590
 30
0.0
  0
LWPOLYLINE
  5
18c
100
AcDbEntity
  8
Layer_1
 62
7
100
AcDbPolyline
 90
3
 70
0
 10
5.499213
 20
2.525121
 30
0.0
 10
5.468315
 20
2.613193
 30
0.0
 10
5.496661
 20
2.625949
 30
0.0
  0
SPLINE
  5
18d
100
AcDbEntity
  8
Layer_1
 62
7
100
AcDbSpline
 70
8
 71
3
 72
8
 73
4
 74
0
 40
0
 40
0
 40
0
 40
0
 40
1
 40
1
 40
1
 40
1
 10
5.731654
 20
3.162811
 30
0.0
 10
5.700756
 20
3.190023
 30
0.0
 10
5.696504
 20
3.201475
 30
0.0
 10
5.708976
 20
3.216216
 30
0.0
  0
SPLINE
  5
18e
100
AcDbEntity
  8
Layer_1
 62
7
100
AcDbSpline
 70
8
 71
3
 72
8
 73
4
 74
0
 40
0
 40
0
 40
0
 40
0
 40
1
 40
1
 40
1
 40
1
 10
5.708976
 20
3.216216
 30
0.0
 10
5.720315
 20
3.231239
 30
0.0
 10
5.717480
 20
3.235775
 30
0.0
 10
5.694803
 20
3.239176
 30
0.0
  0
SPLINE
  5
18f
100
AcDbEntity
  8
Layer_1
 62
7
100
AcDbSpline
 70
8
 71
3
 72
8
 73
4
 74
0
 40
0
 40
0
 40
0
 40
0
 40
1
 40
1
 40
1
 40
1
 10
5.694803
 20
3.239176
 30
0.0
 10
5.672126
 20
3.242294
 30
0.0
 10
5.663906
 20
3.252216
 30
0.0
 10
5.663906
 20
3.273022
 30
0.0
  0
SPLINE
  5
190
100
AcDbEntity
  8
Layer_1
 62
7
100
AcDbSpline
 70
8
 71
3
 72
8
 73
4
 74
0
 40
0
 40
0
 40
0
 40
0
 40
1
 40
1
 40
1
 40
1
 10
5.663906
 20
3.273022
 30
0.0
 10
5.664756
 20
3.298250
 30
0.0
 10
5.658236
 20
3.301368
 30
0.0
 10
5.627055
 20
3.294849
 30
0.0
  0
SPLINE
  5
191
100
AcDbEntity
  8
Layer_1
 62
7
100
AcDbSpline
 70
8
 71
3
 72
8
 73
4
 74
0
 40
0
 40
0
 40
0
 40
0
 40
1
 40
1
 40
1
 40
1
 10
5.627055
 20
3.294849
 30
0.0
 10
5.604378
 20
3.290597
 30
0.0
 10
5.589354
 20
3.293083
 30
0.0
 10
5.589354
 20
3.301085
 30
0.0
  0
SPLINE
  5
192
100
AcDbEntity
  8
Layer_1
 62
7
100
AcDbSpline
 70
8
 71
3
 72
8
 73
4
 74
0
 40
0
 40
0
 40
0
 40
0
 40
1
 40
1
 40
1
 40
1
 10
5.589354
 20
3.301085
 30
0.0
 10
5.589354
 20
3.308455
 30
0.0
 10
5.612031
 20
3.318376
 30
0.0
 10
5.634992
 20
3.323479
 30
0.0
  0
SPLINE
  5
193
100
AcDbEntity
  8
Layer_1
 62
7
100
AcDbSpline
 70
8
 71
3
 72
8
 73
4
 74
0
 40
0
 40
0
 40
0
 40
0
 40
1
 40
1
 40
1
 40
1
 10
5.634992
 20
3.323479
 30
0.0
 10
5.660504
 20
3.328014
 30
0.0
 10
5.688000
 20
3.340770
 30
0.0
 10
5.697354
 20
3.352023
 30
0.0
  0
SPLINE
  5
194
100
AcDbEntity
  8
Layer_1
 62
7
100
AcDbSpline
 70
8
 71
3
 72
8
 73
4
 74
0
 40
0
 40
0
 40
0
 40
0
 40
1
 40
1
 40
1
 40
1
 10
5.697354
 20
3.352023
 30
0.0
 10
5.711528
 20
3.371583
 30
0.0
 10
5.750929
 20
3.379520
 30
0.0
 10
5.750929
 20
3.363079
 30
0.0
  0
SPLINE
  5
195
100
AcDbEntity
  8
Layer_1
 62
7
100
AcDbSpline
 70
8
 71
3
 72
8
 73
4
 74
0
 40
0
 40
0
 40
0
 40
0
 40
1
 40
1
 40
1
 40
1
 10
5.750929
 20
3.363079
 30
0.0
 10
5.750929
 20
3.358543
 30
0.0
 10
5.739591
 20
3.334732
 30
0.0
 10
5.722583
 20
3.310496
 30
0.0
  0
LWPOLYLINE
  5
196
100
AcDbEntity
  8
Layer_1
 62
7
100
AcDbPolyline
 90
3
 70
0
 10
5.712661
 20
3.136590
 30
0.0
 10
5.769921
 20
3.128086
 30
0.0
 10
5.731654
 20
3.162811
 30
0.0
  0
SPLINE
  5
197
100
AcDbEntity
  8
Layer_1
 62
7
100
AcDbSpline
 70
8
 71
3
 72
8
 73
4
 74
0
 40
0
 40
0
 40
0
 40
0
 40
1
 40
1
 40
1
 40
1
 10
5.744976
 20
3.249948
 30
0.0
 10
5.773323
 20
3.240877
 30
0.0
 10
5.803370
 20
3.227554
 30
0.0
 10
5.812441
 20
3.220496
 30
0.0
  0
SPLINE
  5
198
100
AcDbEntity
  8
Layer_1
 62
7
100
AcDbSpline
 70
8
 71
3
 72
8
 73
4
 74
0
 40
0
 40
0
 40
0
 40
0
 40
1
 40
1
 40
1
 40
1
 10
5.812441
 20
3.220496
 30
0.0
 10
5.837953
 20
3.201787
 30
0.0
 10
5.818110
 20
3.180726
 30
0.0
 10
5.786929
 20
3.190420
 30
0.0
  0
SPLINE
  5
199
100
AcDbEntity
  8
Layer_1
 62
7
100
AcDbSpline
 70
8
 71
3
 72
8
 73
4
 74
0
 40
0
 40
0
 40
0
 40
0
 40
1
 40
1
 40
1
 40
1
 10
5.786929
 20
3.190420
 30
0.0
 10
5.746677
 20
3.203176
 30
0.0
 10
5.756031
 20
3.173979
 30
0.0
 10
5.801102
 20
3.147589
 30
0.0
  0
SPLINE
  5
19a
100
AcDbEntity
  8
Layer_1
 62
7
100
AcDbSpline
 70
8
 71
3
 72
8
 73
4
 74
0
 40
0
 40
0
 40
0
 40
0
 40
1
 40
1
 40
1
 40
1
 10
5.801102
 20
3.147589
 30
0.0
 10
5.865165
 20
3.109661
 30
0.0
 10
5.854110
 20
3.084490
 30
0.0
 10
5.775591
 20
3.094808
 30
0.0
  0
SPLINE
  5
19b
100
AcDbEntity
  8
Layer_1
 62
7
100
AcDbSpline
 70
8
 71
3
 72
8
 73
4
 74
0
 40
0
 40
0
 40
0
 40
0
 40
1
 40
1
 40
1
 40
1
 10
5.775591
 20
3.094808
 30
0.0
 10
5.712661
 20
3.103312
 30
0.0
 10
5.712378
 20
3.102745
 30
0.0
 10
5.740157
 20
3.078934
 30
0.0
  0
SPLINE
  5
19c
100
AcDbEntity
  8
Layer_1
 62
7
100
AcDbSpline
 70
8
 71
3
 72
8
 73
4
 74
0
 40
0
 40
0
 40
0
 40
0
 40
1
 40
1
 40
1
 40
1
 10
5.740157
 20
3.078934
 30
0.0
 10
5.768504
 20
3.055690
 30
0.0
 10
5.829732
 20
3.032304
 30
0.0
 10
5.910236
 20
3.015664
 30
0.0
  0
SPLINE
  5
19d
100
AcDbEntity
  8
Layer_1
 62
7
100
AcDbSpline
 70
8
 71
3
 72
8
 73
4
 74
0
 40
0
 40
0
 40
0
 40
0
 40
1
 40
1
 40
1
 40
1
 10
5.910236
 20
3.015664
 30
0.0
 10
5.980819
 20
3.001208
 30
0.0
 10
5.947087
 20
2.981649
 30
0.0
 10
5.849858
 20
2.981252
 30
0.0
  0
SPLINE
  5
19e
100
AcDbEntity
  8
Layer_1
 62
7
100
AcDbSpline
 70
8
 71
3
 72
8
 73
4
 74
0
 40
0
 40
0
 40
0
 40
0
 40
1
 40
1
 40
1
 40
1
 10
5.849858
 20
2.981252
 30
0.0
 10
5.734488
 20
2.980781
 30
0.0
 10
5.748094
 20
2.966795
 30
0.0
 10
5.893512
 20
2.935983
 30
0.0
  0
SPLINE
  5
19f
100
AcDbEntity
  8
Layer_1
 62
7
100
AcDbSpline
 70
8
 71
3
 72
8
 73
4
 74
0
 40
0
 40
0
 40
0
 40
0
 40
1
 40
1
 40
1
 40
1
 10
5.893512
 20
2.935983
 30
0.0
 10
6.116598
 20
2.888871
 30
0.0
 10
6.335263
 20
2.882068
 30
0.0
 10
7.056142
 20
2.899586
 30
0.0
  0
SPLINE
  5
1a0
100
AcDbEntity
  8
Layer_1
 62
7
100
AcDbSpline
 70
8
 71
3
 72
8
 73
4
 74
0
 40
0
 40
0
 40
0
 40
0
 40
1
 40
1
 40
1
 40
1
 10
7.056142
 20
2.899586
 30
0.0
 10
8.259024
 20
2.928726
 30
0.0
 10
8.544387
 20
2.961353
 30
0.0
 10
8.843783
 20
3.103198
 30
0.0
  0
SPLINE
  5
1a1
100
AcDbEntity
  8
Layer_1
 62
7
100
AcDbSpline
 70
8
 71
3
 72
8
 73
4
 74
0
 40
0
 40
0
 40
0
 40
0
 40
1
 40
1
 40
1
 40
1
 10
8.843783
 20
3.103198
 30
0.0
 10
8.985515
 20
3.170294
 30
0.0
 10
9.279978
 20
3.483106
 30
0.0
 10
9.606784
 20
3.913388
 30
0.0
  0
SPLINE
  5
1a2
100
AcDbEntity
  8
Layer_1
 62
7
100
AcDbSpline
 70
8
 71
3
 72
8
 73
4
 74
0
 40
0
 40
0
 40
0
 40
0
 40
1
 40
1
 40
1
 40
1
 10
9.606784
 20
3.913388
 30
0.0
 10
9.786217
 20
4.149854
 30
0.0
 10
9.861902
 20
4.296278
 30
0.0
 10
9.868706
 20
4.419818
 30
0.0
  0
SPLINE
  5
1a3
100
AcDbEntity
  8
Layer_1
 62
7
100
AcDbSpline
 70
8
 71
3
 72
8
 73
4
 74
0
 40
0
 40
0
 40
0
 40
0
 40
1
 40
1
 40
1
 40
1
 10
9.868706
 20
4.419818
 30
0.0
 10
9.874375
 20
4.534366
 30
0.0
 10
9.846028
 20
4.579238
 30
0.0
 10
9.739162
 20
4.634117
 30
0.0
  0
SPLINE
  5
1a4
100
AcDbEntity
  8
Layer_1
 62
7
100
AcDbSpline
 70
8
 71
3
 72
8
 73
4
 74
0
 40
0
 40
0
 40
0
 40
0
 40
1
 40
1
 40
1
 40
1
 10
9.739162
 20
4.634117
 30
0.0
 10
9.487446
 20
4.761166
 30
0.0
 10
9.016498
 20
4.792942
 30
0.0
 10
8.606806
 20
4.710425
 30
0.0
  0
SPLINE
  5
1a5
100
AcDbEntity
  8
Layer_1
 62
7
100
AcDbSpline
 70
8
 71
3
 72
8
 73
4
 74
0
 40
0
 40
0
 40
0
 40
0
 40
1
 40
1
 40
1
 40
1
 10
8.606806
 20
4.710425
 30
0.0
 10
8.233370
 20
4.635251
 30
0.0
 10
7.801880
 20
4.512085
 30
0.0
 10
7.459398
 20
4.382942
 30
0.0
  0
SPLINE
  5
1a6
100
AcDbEntity
  8
Layer_1
 62
7
100
AcDbSpline
 70
8
 71
3
 72
8
 73
4
 74
0
 40
0
 40
0
 40
0
 40
0
 40
1
 40
1
 40
1
 40
1
 10
7.459398
 20
4.382942
 30
0.0
 10
7.370674
 20
4.349493
 30
0.0
 10
7.240847
 20
4.302409
 30
0.0
 10
7.170378
 20
4.278343
 30
0.0
  0
SPLINE
  5
1a7
100
AcDbEntity
  8
Layer_1
 62
7
100
AcDbSpline
 70
8
 71
3
 72
8
 73
4
 74
0
 40
0
 40
0
 40
0
 40
0
 40
1
 40
1
 40
1
 40
1
 10
7.170378
 20
4.278343
 30
0.0
 10
6.428126
 20
4.023820
 30
0.0
 10
6.155376
 20
3.892327
 30
0.0
 10
5.595080
 20
3.518857
 30
0.0
  0
LWPOLYLINE
  5
1a8
100
AcDbEntity
  8
Layer_1
 62
7
100
AcDbPolyline
 90
3
 70
0
 10
5.722583
 20
3.310496
 30
0.0
 10
5.694236
 20
3.266389
 30
0.0
 10
5.744976
 20
3.249948
 30
0.0
  0
SPLINE
  5
1a9
100
AcDbEntity
  8
Layer_1
 62
7
100
AcDbSpline
 70
8
 71
3
 72
8
 73
4
 74
0
 40
0
 40
0
 40
0
 40
0
 40
1
 40
1
 40
1
 40
1
 10
5.548025
 20
3.379534
 30
0.0
 10
5.549613
 20
3.304671
 30
0.0
 10
5.546438
 20
3.271675
 30
0.0
 10
5.533852
 20
3.267509
 30
0.0
  0
SPLINE
  5
1aa
100
AcDbEntity
  8
Layer_1
 62
7
100
AcDbSpline
 70
8
 71
3
 72
8
 73
4
 74
0
 40
0
 40
0
 40
0
 40
0
 40
1
 40
1
 40
1
 40
1
 10
5.533852
 20
3.267509
 30
0.0
 10
5.522513
 20
3.263257
 30
0.0
 10
5.519679
 20
3.283666
 30
0.0
 10
5.519679
 20
3.343023
 30
0.0
  0
SPLINE
  5
1ab
100
AcDbEntity
  8
Layer_1
 62
7
100
AcDbSpline
 70
8
 71
3
 72
8
 73
4
 74
0
 40
0
 40
0
 40
0
 40
0
 40
1
 40
1
 40
1
 40
1
 10
5.519679
 20
3.343023
 30
0.0
 10
5.519679
 20
3.399490
 30
0.0
 10
5.508340
 20
3.457430
 30
0.0
 10
5.480277
 20
3.532264
 30
0.0
  0
SPLINE
  5
1ac
100
AcDbEntity
  8
Layer_1
 62
7
100
AcDbSpline
 70
8
 71
3
 72
8
 73
4
 74
0
 40
0
 40
0
 40
0
 40
0
 40
1
 40
1
 40
1
 40
1
 10
5.480277
 20
3.532264
 30
0.0
 10
5.433789
 20
3.660079
 30
0.0
 10
5.404876
 20
3.702910
 30
0.0
 10
5.299710
 20
3.801754
 30
0.0
  0
SPLINE
  5
1ad
100
AcDbEntity
  8
Layer_1
 62
7
100
AcDbSpline
 70
8
 71
3
 72
8
 73
4
 74
0
 40
0
 40
0
 40
0
 40
0
 40
1
 40
1
 40
1
 40
1
 10
5.299710
 20
3.801754
 30
0.0
 10
5.223458
 20
3.873527
 30
0.0
 10
5.220624
 20
3.878431
 30
0.0
 10
5.215238
 20
3.954910
 30
0.0
  0
SPLINE
  5
1ae
100
AcDbEntity
  8
Layer_1
 62
7
100
AcDbSpline
 70
8
 71
3
 72
8
 73
4
 74
0
 40
0
 40
0
 40
0
 40
0
 40
1
 40
1
 40
1
 40
1
 10
5.215238
 20
3.954910
 30
0.0
 10
5.209569
 20
4.015713
 30
0.0
 10
5.201065
 20
4.052195
 30
0.0
 10
5.161663
 20
4.113083
 30
0.0
  0
SPLINE
  5
1af
100
AcDbEntity
  8
Layer_1
 62
7
100
AcDbSpline
 70
8
 71
3
 72
8
 73
4
 74
0
 40
0
 40
0
 40
0
 40
0
 40
1
 40
1
 40
1
 40
1
 10
5.161663
 20
4.113083
 30
0.0
 10
5.105537
 20
4.205663
 30
0.0
 10
4.942545
 20
4.352611
 30
0.0
 10
4.896340
 20
4.352611
 30
0.0
  0
SPLINE
  5
1b0
100
AcDbEntity
  8
Layer_1
 62
7
100
AcDbSpline
 70
8
 71
3
 72
8
 73
4
 74
0
 40
0
 40
0
 40
0
 40
0
 40
1
 40
1
 40
1
 40
1
 10
4.896340
 20
4.352611
 30
0.0
 10
4.852687
 20
4.352611
 30
0.0
 10
4.749222
 20
4.268280
 30
0.0
 10
4.679773
 20
4.175587
 30
0.0
  0
SPLINE
  5
1b1
100
AcDbEntity
  8
Layer_1
 62
7
100
AcDbSpline
 70
8
 71
3
 72
8
 73
4
 74
0
 40
0
 40
0
 40
0
 40
0
 40
1
 40
1
 40
1
 40
1
 10
4.679773
 20
4.175587
 30
0.0
 10
4.615143
 20
4.089868
 30
0.0
 10
4.583962
 20
3.984192
 30
0.0
 10
4.595584
 20
3.894475
 30
0.0
  0
SPLINE
  5
1b2
100
AcDbEntity
  8
Layer_1
 62
7
100
AcDbSpline
 70
8
 71
3
 72
8
 73
4
 74
0
 40
0
 40
0
 40
0
 40
0
 40
1
 40
1
 40
1
 40
1
 10
4.595584
 20
3.894475
 30
0.0
 10
4.601254
 20
3.851020
 30
0.0
 10
4.596406
 20
3.838633
 30
0.0
 10
4.558167
 20
3.801499
 30
0.0
  0
SPLINE
  5
1b3
100
AcDbEntity
  8
Layer_1
 62
7
100
AcDbSpline
 70
8
 71
3
 72
8
 73
4
 74
0
 40
0
 40
0
 40
0
 40
0
 40
1
 40
1
 40
1
 40
1
 10
4.558167
 20
3.801499
 30
0.0
 10
4.485883
 20
3.731625
 30
0.0
 10
4.392624
 20
3.530167
 30
0.0
 10
4.377317
 20
3.411755
 30
0.0
  0
SPLINE
  5
1b4
100
AcDbEntity
  8
Layer_1
 62
7
100
AcDbSpline
 70
8
 71
3
 72
8
 73
4
 74
0
 40
0
 40
0
 40
0
 40
0
 40
1
 40
1
 40
1
 40
1
 10
4.377317
 20
3.411755
 30
0.0
 10
4.371647
 20
3.356309
 30
0.0
 10
4.365978
 20
3.306391
 30
0.0
 10
4.365978
 20
3.300864
 30
0.0
  0
SPLINE
  5
1b5
100
AcDbEntity
  8
Layer_1
 62
7
100
AcDbSpline
 70
8
 71
3
 72
8
 73
4
 74
0
 40
0
 40
0
 40
0
 40
0
 40
1
 40
1
 40
1
 40
1
 10
4.365978
 20
3.300864
 30
0.0
 10
4.365751
 20
3.295195
 30
0.0
 10
4.357474
 20
3.290659
 30
0.0
 10
4.343301
 20
3.290659
 30
0.0
  0
SPLINE
  5
1b6
100
AcDbEntity
  8
Layer_1
 62
7
100
AcDbSpline
 70
8
 71
3
 72
8
 73
4
 74
0
 40
0
 40
0
 40
0
 40
0
 40
1
 40
1
 40
1
 40
1
 10
4.343301
 20
3.290659
 30
0.0
 10
4.323458
 20
3.290659
 30
0.0
 10
4.320624
 20
3.302848
 30
0.0
 10
4.329128
 20
3.374678
 30
0.0
  0
SPLINE
  5
1b7
100
AcDbEntity
  8
Layer_1
 62
7
100
AcDbSpline
 70
8
 71
3
 72
8
 73
4
 74
0
 40
0
 40
0
 40
0
 40
0
 40
1
 40
1
 40
1
 40
1
 10
4.329128
 20
3.374678
 30
0.0
 10
4.331962
 20
3.420883
 30
0.0
 10
4.340466
 20
3.468561
 30
0.0
 10
4.343301
 20
3.480609
 30
0.0
  0
SPLINE
  5
1b8
100
AcDbEntity
  8
Layer_1
 62
7
100
AcDbSpline
 70
8
 71
3
 72
8
 73
4
 74
0
 40
0
 40
0
 40
0
 40
0
 40
1
 40
1
 40
1
 40
1
 10
4.343301
 20
3.480609
 30
0.0
 10
4.348970
 20
3.497617
 30
0.0
 10
4.312403
 20
3.528089
 30
0.0
 10
4.180025
 20
3.615793
 30
0.0
  0
SPLINE
  5
1b9
100
AcDbEntity
  8
Layer_1
 62
7
100
AcDbSpline
 70
8
 71
3
 72
8
 73
4
 74
0
 40
0
 40
0
 40
0
 40
0
 40
1
 40
1
 40
1
 40
1
 10
4.180025
 20
3.615793
 30
0.0
 10
4.085348
 20
3.678098
 30
0.0
 10
3.971679
 20
3.750921
 30
0.0
 10
3.927175
 20
3.777595
 30
0.0
  0
SPLINE
  5
1ba
100
AcDbEntity
  8
Layer_1
 62
7
100
AcDbSpline
 70
8
 71
3
 72
8
 73
4
 74
0
 40
0
 40
0
 40
0
 40
0
 40
1
 40
1
 40
1
 40
1
 10
3.927175
 20
3.777595
 30
0.0
 10
3.766450
 20
3.874369
 30
0.0
 10
3.343578
 20
4.070255
 30
0.0
 10
3.153713
 20
4.135899
 30
0.0
  0
SPLINE
  5
1bb
100
AcDbEntity
  8
Layer_1
 62
7
100
AcDbSpline
 70
8
 71
3
 72
8
 73
4
 74
0
 40
0
 40
0
 40
0
 40
0
 40
1
 40
1
 40
1
 40
1
 10
3.153713
 20
4.135899
 30
0.0
 10
2.838557
 20
4.244863
 30
0.0
 10
2.472378
 20
4.376589
 30
0.0
 10
2.446157
 20
4.390394
 30
0.0
  0
SPLINE
  5
1bc
100
AcDbEntity
  8
Layer_1
 62
7
100
AcDbSpline
 70
8
 71
3
 72
8
 73
4
 74
0
 40
0
 40
0
 40
0
 40
0
 40
1
 40
1
 40
1
 40
1
 10
2.446157
 20
4.390394
 30
0.0
 10
2.336173
 20
4.448362
 30
0.0
 10
1.563364
 20
4.665298
 30
0.0
 10
1.265868
 20
4.721713
 30
0.0
  0
SPLINE
  5
1bd
100
AcDbEntity
  8
Layer_1
 62
7
100
AcDbSpline
 70
8
 71
3
 72
8
 73
4
 74
0
 40
0
 40
0
 40
0
 40
0
 40
1
 40
1
 40
1
 40
1
 10
1.265868
 20
4.721713
 30
0.0
 10
1.102309
 20
4.752724
 30
0.0
 10
0.743131
 20
4.764176
 30
0.0
 10
0.584220
 20
4.743540
 30
0.0
  0
SPLINE
  5
1be
100
AcDbEntity
  8
Layer_1
 62
7
100
AcDbSpline
 70
8
 71
3
 72
8
 73
4
 74
0
 40
0
 40
0
 40
0
 40
0
 40
1
 40
1
 40
1
 40
1
 10
0.584220
 20
4.743540
 30
0.0
 10
0.330803
 20
4.710403
 30
0.0
 10
0.127077
 20
4.633187
 30
0.0
 10
0.075203
 20
4.550500
 30
0.0
  0
SPLINE
  5
1bf
100
AcDbEntity
  8
Layer_1
 62
7
100
AcDbSpline
 70
8
 71
3
 72
8
 73
4
 74
0
 40
0
 40
0
 40
0
 40
0
 40
1
 40
1
 40
1
 40
1
 10
0.075203
 20
4.550500
 30
0.0
 10
0.030132
 20
4.479039
 30
0.0
 10
0.044306
 20
4.359842
 30
0.0
 10
0.114605
 20
4.217693
 30
0.0
  0
SPLINE
  5
1c0
100
AcDbEntity
  8
Layer_1
 62
7
100
AcDbSpline
 70
8
 71
3
 72
8
 73
4
 74
0
 40
0
 40
0
 40
0
 40
0
 40
1
 40
1
 40
1
 40
1
 10
0.114605
 20
4.217693
 30
0.0
 10
0.226857
 20
3.989901
 30
0.0
 10
0.706932
 20
3.401049
 30
0.0
 10
0.960803
 20
3.179720
 30
0.0
  0
SPLINE
  5
1c1
100
AcDbEntity
  8
Layer_1
 62
7
100
AcDbSpline
 70
8
 71
3
 72
8
 73
4
 74
0
 40
0
 40
0
 40
0
 40
0
 40
1
 40
1
 40
1
 40
1
 10
0.960803
 20
3.179720
 30
0.0
 10
1.046976
 20
3.104601
 30
0.0
 10
1.249824
 20
3.020781
 30
0.0
 10
1.420583
 20
2.989855
 30
0.0
  0
SPLINE
  5
1c2
100
AcDbEntity
  8
Layer_1
 62
7
100
AcDbSpline
 70
8
 71
3
 72
8
 73
4
 74
0
 40
0
 40
0
 40
0
 40
0
 40
1
 40
1
 40
1
 40
1
 10
1.420583
 20
2.989855
 30
0.0
 10
1.668331
 20
2.944983
 30
0.0
 10
2.035389
 20
2.920293
 30
0.0
 10
2.751250
 20
2.900450
 30
0.0
  0
SPLINE
  5
1c3
100
AcDbEntity
  8
Layer_1
 62
7
100
AcDbSpline
 70
8
 71
3
 72
8
 73
4
 74
0
 40
0
 40
0
 40
0
 40
0
 40
1
 40
1
 40
1
 40
1
 10
2.751250
 20
2.900450
 30
0.0
 10
3.565332
 20
2.877773
 30
0.0
 10
3.947896
 20
2.894498
 30
0.0
 10
4.095326
 20
2.958929
 30
0.0
  0
LWPOLYLINE
  5
1c4
100
AcDbEntity
  8
Layer_1
 62
7
100
AcDbPolyline
 90
3
 70
0
 10
5.595080
 20
3.518857
 30
0.0
 10
5.545191
 20
3.485663
 30
0.0
 10
5.548025
 20
3.379534
 30
0.0
  0
SPLINE
  5
1c5
100
AcDbEntity
  8
Layer_1
 62
7
100
AcDbSpline
 70
8
 71
3
 72
8
 73
4
 74
0
 40
0
 40
0
 40
0
 40
0
 40
1
 40
1
 40
1
 40
1
 10
4.044869
 20
2.980447
 30
0.0
 10
3.947357
 20
2.981552
 30
0.0
 10
3.913909
 20
3.000856
 30
0.0
 10
3.984491
 20
3.015540
 30
0.0
  0
SPLINE
  5
1c6
100
AcDbEntity
  8
Layer_1
 62
7
100
AcDbSpline
 70
8
 71
3
 72
8
 73
4
 74
0
 40
0
 40
0
 40
0
 40
0
 40
1
 40
1
 40
1
 40
1
 10
3.984491
 20
3.015540
 30
0.0
 10
4.064712
 20
3.032264
 30
0.0
 10
4.127357
 20
3.055480
 30
0.0
 10
4.154570
 20
3.078809
 30
0.0
  0
SPLINE
  5
1c7
100
AcDbEntity
  8
Layer_1
 62
7
100
AcDbSpline
 70
8
 71
3
 72
8
 73
4
 74
0
 40
0
 40
0
 40
0
 40
0
 40
1
 40
1
 40
1
 40
1
 10
4.154570
 20
3.078809
 30
0.0
 10
4.182917
 20
3.102903
 30
0.0
 10
4.182917
 20
3.102903
 30
0.0
 10
4.119137
 20
3.094683
 30
0.0
  0
SPLINE
  5
1c8
100
AcDbEntity
  8
Layer_1
 62
7
100
AcDbSpline
 70
8
 71
3
 72
8
 73
4
 74
0
 40
0
 40
0
 40
0
 40
0
 40
1
 40
1
 40
1
 40
1
 10
4.119137
 20
3.094683
 30
0.0
 10
4.042602
 20
3.084478
 30
0.0
 10
4.031263
 20
3.109707
 30
0.0
 10
4.093625
 20
3.147464
 30
0.0
  0
SPLINE
  5
1c9
100
AcDbEntity
  8
Layer_1
 62
7
100
AcDbSpline
 70
8
 71
3
 72
8
 73
4
 74
0
 40
0
 40
0
 40
0
 40
0
 40
1
 40
1
 40
1
 40
1
 10
4.093625
 20
3.147464
 30
0.0
 10
4.138696
 20
3.173826
 30
0.0
 10
4.148617
 20
3.202995
 30
0.0
 10
4.107798
 20
3.190296
 30
0.0
  0
SPLINE
  5
1ca
100
AcDbEntity
  8
Layer_1
 62
7
100
AcDbSpline
 70
8
 71
3
 72
8
 73
4
 74
0
 40
0
 40
0
 40
0
 40
0
 40
1
 40
1
 40
1
 40
1
 10
4.107798
 20
3.190296
 30
0.0
 10
4.076901
 20
3.180374
 30
0.0
 10
4.059609
 20
3.201351
 30
0.0
 10
4.082287
 20
3.220371
 30
0.0
  0
SPLINE
  5
1cb
100
AcDbEntity
  8
Layer_1
 62
7
100
AcDbSpline
 70
8
 71
3
 72
8
 73
4
 74
0
 40
0
 40
0
 40
0
 40
0
 40
1
 40
1
 40
1
 40
1
 10
4.082287
 20
3.220371
 30
0.0
 10
4.090791
 20
3.227458
 30
0.0
 10
4.121688
 20
3.240781
 30
0.0
 10
4.149751
 20
3.249823
 30
0.0
  0
LWPOLYLINE
  5
1cc
100
AcDbEntity
  8
Layer_1
 62
7
100
AcDbPolyline
 90
3
 70
0
 10
4.095326
 20
2.958929
 30
0.0
 10
4.142381
 20
2.979338
 30
0.0
 10
4.044869
 20
2.980447
 30
0.0
  0
SPLINE
  5
1cd
100
AcDbEntity
  8
Layer_1
 62
7
100
AcDbSpline
 70
8
 71
3
 72
8
 73
4
 74
0
 40
0
 40
0
 40
0
 40
0
 40
1
 40
1
 40
1
 40
1
 10
4.172145
 20
3.310371
 30
0.0
 10
4.157972
 20
3.334466
 30
0.0
 10
4.143798
 20
3.358277
 30
0.0
 10
4.143798
 20
3.362954
 30
0.0
  0
SPLINE
  5
1ce
100
AcDbEntity
  8
Layer_1
 62
7
100
AcDbSpline
 70
8
 71
3
 72
8
 73
4
 74
0
 40
0
 40
0
 40
0
 40
0
 40
1
 40
1
 40
1
 40
1
 10
4.143798
 20
3.362954
 30
0.0
 10
4.143798
 20
3.379111
 30
0.0
 10
4.180932
 20
3.371458
 30
0.0
 10
4.197373
 20
3.351899
 30
0.0
  0
SPLINE
  5
1cf
100
AcDbEntity
  8
Layer_1
 62
7
100
AcDbSpline
 70
8
 71
3
 72
8
 73
4
 74
0
 40
0
 40
0
 40
0
 40
0
 40
1
 40
1
 40
1
 40
1
 10
4.197373
 20
3.351899
 30
0.0
 10
4.205877
 20
3.341127
 30
0.0
 10
4.234224
 20
3.328371
 30
0.0
 10
4.259735
 20
3.323354
 30
0.0
  0
SPLINE
  5
1d0
100
AcDbEntity
  8
Layer_1
 62
7
100
AcDbSpline
 70
8
 71
3
 72
8
 73
4
 74
0
 40
0
 40
0
 40
0
 40
0
 40
1
 40
1
 40
1
 40
1
 10
4.259735
 20
3.323354
 30
0.0
 10
4.285247
 20
3.318818
 30
0.0
 10
4.305373
 20
3.308330
 30
0.0
 10
4.305373
 20
3.300960
 30
0.0
  0
SPLINE
  5
1d1
100
AcDbEntity
  8
Layer_1
 62
7
100
AcDbSpline
 70
8
 71
3
 72
8
 73
4
 74
0
 40
0
 40
0
 40
0
 40
0
 40
1
 40
1
 40
1
 40
1
 10
4.305373
 20
3.300960
 30
0.0
 10
4.305373
 20
3.293307
 30
0.0
 10
4.291200
 20
3.290472
 30
0.0
 10
4.267389
 20
3.294724
 30
0.0
  0
SPLINE
  5
1d2
100
AcDbEntity
  8
Layer_1
 62
7
100
AcDbSpline
 70
8
 71
3
 72
8
 73
4
 74
0
 40
0
 40
0
 40
0
 40
0
 40
1
 40
1
 40
1
 40
1
 10
4.267389
 20
3.294724
 30
0.0
 10
4.234791
 20
3.301244
 30
0.0
 10
4.229405
 20
3.298126
 30
0.0
 10
4.230539
 20
3.272897
 30
0.0
  0
SPLINE
  5
1d3
100
AcDbEntity
  8
Layer_1
 62
7
100
AcDbSpline
 70
8
 71
3
 72
8
 73
4
 74
0
 40
0
 40
0
 40
0
 40
0
 40
1
 40
1
 40
1
 40
1
 10
4.230539
 20
3.272897
 30
0.0
 10
4.231247
 20
3.252204
 30
0.0
 10
4.222035
 20
3.242198
 30
0.0
 10
4.199641
 20
3.239052
 30
0.0
  0
SPLINE
  5
1d4
100
AcDbEntity
  8
Layer_1
 62
7
100
AcDbSpline
 70
8
 71
3
 72
8
 73
4
 74
0
 40
0
 40
0
 40
0
 40
0
 40
1
 40
1
 40
1
 40
1
 10
4.199641
 20
3.239052
 30
0.0
 10
4.174129
 20
3.235650
 30
0.0
 10
4.171294
 20
3.231115
 30
0.0
 10
4.185468
 20
3.216091
 30
0.0
  0
SPLINE
  5
1d5
100
AcDbEntity
  8
Layer_1
 62
7
100
AcDbSpline
 70
8
 71
3
 72
8
 73
4
 74
0
 40
0
 40
0
 40
0
 40
0
 40
1
 40
1
 40
1
 40
1
 10
4.185468
 20
3.216091
 30
0.0
 10
4.196806
 20
3.201067
 30
0.0
 10
4.193972
 20
3.190012
 30
0.0
 10
4.162791
 20
3.162686
 30
0.0
  0
LWPOLYLINE
  5
1d6
100
AcDbEntity
  8
Layer_1
 62
7
100
AcDbPolyline
 90
3
 70
0
 10
4.149751
 20
3.249823
 30
0.0
 10
4.200491
 20
3.266264
 30
0.0
 10
4.172145
 20
3.310371
 30
0.0
  0
SPLINE
  5
1d7
100
AcDbEntity
  8
Layer_1
 62
7
100
AcDbSpline
 70
8
 71
3
 72
8
 73
4
 74
0
 40
0
 40
0
 40
0
 40
0
 40
1
 40
1
 40
1
 40
1
 10
4.182066
 20
3.136494
 30
0.0
 10
4.218350
 20
3.142163
 30
0.0
 10
4.239043
 20
3.139896
 30
0.0
 10
4.239043
 20
3.130825
 30
0.0
  0
SPLINE
  5
1d8
100
AcDbEntity
  8
Layer_1
 62
7
100
AcDbSpline
 70
8
 71
3
 72
8
 73
4
 74
0
 40
0
 40
0
 40
0
 40
0
 40
1
 40
1
 40
1
 40
1
 10
4.239043
 20
3.130825
 30
0.0
 10
4.239043
 20
3.111833
 30
0.0
 10
4.187452
 20
3.064324
 30
0.0
 10
4.140397
 20
3.039634
 30
0.0
  0
SPLINE
  5
1d9
100
AcDbEntity
  8
Layer_1
 62
7
100
AcDbSpline
 70
8
 71
3
 72
8
 73
4
 74
0
 40
0
 40
0
 40
0
 40
0
 40
1
 40
1
 40
1
 40
1
 10
4.140397
 20
3.039634
 30
0.0
 10
4.089090
 20
3.012989
 30
0.0
 10
4.103546
 20
3.002812
 30
0.0
 10
4.168743
 20
3.020359
 30
0.0
  0
SPLINE
  5
1da
100
AcDbEntity
  8
Layer_1
 62
7
100
AcDbSpline
 70
8
 71
3
 72
8
 73
4
 74
0
 40
0
 40
0
 40
0
 40
0
 40
1
 40
1
 40
1
 40
1
 10
4.168743
 20
3.020359
 30
0.0
 10
4.197090
 20
3.028012
 30
0.0
 10
4.224869
 20
3.034532
 30
0.0
 10
4.230539
 20
3.034815
 30
0.0
  0
SPLINE
  5
1db
100
AcDbEntity
  8
Layer_1
 62
7
100
AcDbSpline
 70
8
 71
3
 72
8
 73
4
 74
0
 40
0
 40
0
 40
0
 40
0
 40
1
 40
1
 40
1
 40
1
 10
4.230539
 20
3.034815
 30
0.0
 10
4.244712
 20
3.034934
 30
0.0
 10
4.241877
 20
2.997256
 30
0.0
 10
4.224869
 20
2.990028
 30
0.0
  0
SPLINE
  5
1dc
100
AcDbEntity
  8
Layer_1
 62
7
100
AcDbSpline
 70
8
 71
3
 72
8
 73
4
 74
0
 40
0
 40
0
 40
0
 40
0
 40
1
 40
1
 40
1
 40
1
 10
4.224869
 20
2.990028
 30
0.0
 10
4.216365
 20
2.986343
 30
0.0
 10
4.219200
 20
2.982941
 30
0.0
 10
4.233373
 20
2.982374
 30
0.0
  0
SPLINE
  5
1dd
100
AcDbEntity
  8
Layer_1
 62
7
100
AcDbSpline
 70
8
 71
3
 72
8
 73
4
 74
0
 40
0
 40
0
 40
0
 40
0
 40
1
 40
1
 40
1
 40
1
 10
4.233373
 20
2.982374
 30
0.0
 10
4.269373
 20
2.980824
 30
0.0
 10
4.256050
 20
2.953858
 30
0.0
 10
4.202476
 20
2.925937
 30
0.0
  0
SPLINE
  5
1de
100
AcDbEntity
  8
Layer_1
 62
7
100
AcDbSpline
 70
8
 71
3
 72
8
 73
4
 74
0
 40
0
 40
0
 40
0
 40
0
 40
1
 40
1
 40
1
 40
1
 10
4.202476
 20
2.925937
 30
0.0
 10
4.125940
 20
2.884919
 30
0.0
 10
4.120271
 20
2.869159
 30
0.0
 10
4.182633
 20
2.878966
 30
0.0
  0
SPLINE
  5
1df
100
AcDbEntity
  8
Layer_1
 62
7
100
AcDbSpline
 70
8
 71
3
 72
8
 73
4
 74
0
 40
0
 40
0
 40
0
 40
0
 40
1
 40
1
 40
1
 40
1
 10
4.182633
 20
2.878966
 30
0.0
 10
4.242161
 20
2.888037
 30
0.0
 10
4.258602
 20
2.872730
 30
0.0
 10
4.216082
 20
2.847955
 30
0.0
  0
SPLINE
  5
1e0
100
AcDbEntity
  8
Layer_1
 62
7
100
AcDbSpline
 70
8
 71
3
 72
8
 73
4
 74
0
 40
0
 40
0
 40
0
 40
0
 40
1
 40
1
 40
1
 40
1
 10
4.216082
 20
2.847955
 30
0.0
 10
4.196239
 20
2.837184
 30
0.0
 10
4.204743
 20
2.834066
 30
0.0
 10
4.249531
 20
2.833782
 30
0.0
  0
SPLINE
  5
1e1
100
AcDbEntity
  8
Layer_1
 62
7
100
AcDbSpline
 70
8
 71
3
 72
8
 73
4
 74
0
 40
0
 40
0
 40
0
 40
0
 40
1
 40
1
 40
1
 40
1
 10
4.249531
 20
2.833782
 30
0.0
 10
4.304806
 20
2.833397
 30
0.0
 10
4.322948
 20
2.818192
 30
0.0
 10
4.291483
 20
2.798576
 30
0.0
  0
SPLINE
  5
1e2
100
AcDbEntity
  8
Layer_1
 62
7
100
AcDbSpline
 70
8
 71
3
 72
8
 73
4
 74
0
 40
0
 40
0
 40
0
 40
0
 40
1
 40
1
 40
1
 40
1
 10
4.291483
 20
2.798576
 30
0.0
 10
4.282980
 20
2.792340
 30
0.0
 10
4.289868
 20
2.782135
 30
0.0
 10
4.314161
 20
2.770059
 30
0.0
  0
SPLINE
  5
1e3
100
AcDbEntity
  8
Layer_1
 62
7
100
AcDbSpline
 70
8
 71
3
 72
8
 73
4
 74
0
 40
0
 40
0
 40
0
 40
0
 40
1
 40
1
 40
1
 40
1
 10
4.314161
 20
2.770059
 30
0.0
 10
4.336838
 20
2.759004
 30
0.0
 10
4.347609
 20
2.743414
 30
0.0
 10
4.345058
 20
2.732812
 30
0.0
  0
SPLINE
  5
1e4
100
AcDbEntity
  8
Layer_1
 62
7
100
AcDbSpline
 70
8
 71
3
 72
8
 73
4
 74
0
 40
0
 40
0
 40
0
 40
0
 40
1
 40
1
 40
1
 40
1
 10
4.345058
 20
2.732812
 30
0.0
 10
4.342224
 20
2.722891
 30
0.0
 10
4.346674
 20
2.711552
 30
0.0
 10
4.356397
 20
2.707017
 30
0.0
  0
SPLINE
  5
1e5
100
AcDbEntity
  8
Layer_1
 62
7
100
AcDbSpline
 70
8
 71
3
 72
8
 73
4
 74
0
 40
0
 40
0
 40
0
 40
0
 40
1
 40
1
 40
1
 40
1
 10
4.356397
 20
2.707017
 30
0.0
 10
4.367735
 20
2.702765
 30
0.0
 10
4.376239
 20
2.688592
 30
0.0
 10
4.376239
 20
2.675666
 30
0.0
  0
SPLINE
  5
1e6
100
AcDbEntity
  8
Layer_1
 62
7
100
AcDbSpline
 70
8
 71
3
 72
8
 73
4
 74
0
 40
0
 40
0
 40
0
 40
0
 40
1
 40
1
 40
1
 40
1
 10
4.376239
 20
2.675666
 30
0.0
 10
4.374624
 20
2.662626
 30
0.0
 10
4.377855
 20
2.641395
 30
0.0
 10
4.384743
 20
2.628355
 30
0.0
  0
SPLINE
  5
1e7
100
AcDbEntity
  8
Layer_1
 62
7
100
AcDbSpline
 70
8
 71
3
 72
8
 73
4
 74
0
 40
0
 40
0
 40
0
 40
0
 40
1
 40
1
 40
1
 40
1
 10
4.384743
 20
2.628355
 30
0.0
 10
4.390413
 20
2.614466
 30
0.0
 10
4.387578
 20
2.596381
 30
0.0
 10
4.379074
 20
2.584702
 30
0.0
  0
SPLINE
  5
1e8
100
AcDbEntity
  8
Layer_1
 62
7
100
AcDbSpline
 70
8
 71
3
 72
8
 73
4
 74
0
 40
0
 40
0
 40
0
 40
0
 40
1
 40
1
 40
1
 40
1
 10
4.379074
 20
2.584702
 30
0.0
 10
4.364901
 20
2.566844
 30
0.0
 10
4.370570
 20
2.559190
 30
0.0
 10
4.393247
 20
2.562592
 30
0.0
  0
SPLINE
  5
1e9
100
AcDbEntity
  8
Layer_1
 62
7
100
AcDbSpline
 70
8
 71
3
 72
8
 73
4
 74
0
 40
0
 40
0
 40
0
 40
0
 40
1
 40
1
 40
1
 40
1
 10
4.393247
 20
2.562592
 30
0.0
 10
4.398917
 20
2.563229
 30
0.0
 10
4.407420
 20
2.555789
 30
0.0
 10
4.418759
 20
2.545867
 30
0.0
  0
SPLINE
  5
1ea
100
AcDbEntity
  8
Layer_1
 62
7
100
AcDbSpline
 70
8
 71
3
 72
8
 73
4
 74
0
 40
0
 40
0
 40
0
 40
0
 40
1
 40
1
 40
1
 40
1
 10
4.418759
 20
2.545867
 30
0.0
 10
4.430098
 20
2.532828
 30
0.0
 10
4.427263
 20
2.512503
 30
0.0
 10
4.413090
 20
2.469020
 30
0.0
  0
SPLINE
  5
1eb
100
AcDbEntity
  8
Layer_1
 62
7
100
AcDbSpline
 70
8
 71
3
 72
8
 73
4
 74
0
 40
0
 40
0
 40
0
 40
0
 40
1
 40
1
 40
1
 40
1
 10
4.413090
 20
2.469020
 30
0.0
 10
4.382192
 20
2.381685
 30
0.0
 10
4.331169
 20
2.184612
 30
0.0
 10
4.304239
 20
2.047097
 30
0.0
  0
SPLINE
  5
1ec
100
AcDbEntity
  8
Layer_1
 62
7
100
AcDbSpline
 70
8
 71
3
 72
8
 73
4
 74
0
 40
0
 40
0
 40
0
 40
0
 40
1
 40
1
 40
1
 40
1
 10
4.304239
 20
2.047097
 30
0.0
 10
4.284397
 20
1.953724
 30
0.0
 10
4.278728
 20
1.855589
 30
0.0
 10
4.278728
 20
1.616988
 30
0.0
  0
SPLINE
  5
1ed
100
AcDbEntity
  8
Layer_1
 62
7
100
AcDbSpline
 70
8
 71
3
 72
8
 73
4
 74
0
 40
0
 40
0
 40
0
 40
0
 40
1
 40
1
 40
1
 40
1
 10
4.278728
 20
1.616988
 30
0.0
 10
4.277622
 20
1.091583
 30
0.0
 10
4.311326
 20
0.882012
 30
0.0
 10
4.443987
 20
0.588763
 30
0.0
  0
SPLINE
  5
1ee
100
AcDbEntity
  8
Layer_1
 62
7
100
AcDbSpline
 70
8
 71
3
 72
8
 73
4
 74
0
 40
0
 40
0
 40
0
 40
0
 40
1
 40
1
 40
1
 40
1
 10
4.443987
 20
0.588763
 30
0.0
 10
4.565877
 20
0.319500
 30
0.0
 10
4.695704
 20
0.136971
 30
0.0
 10
4.807531
 20
0.077906
 30
0.0
  0
SPLINE
  5
1ef
100
AcDbEntity
  8
Layer_1
 62
7
100
AcDbSpline
 70
8
 71
3
 72
8
 73
4
 74
0
 40
0
 40
0
 40
0
 40
0
 40
1
 40
1
 40
1
 40
1
 10
4.807531
 20
0.077906
 30
0.0
 10
4.868759
 20
0.045591
 30
0.0
 10
4.951531
 20
0.044230
 30
0.0
 10
5.006523
 20
0.074788
 30
0.0
  0
LWPOLYLINE
  5
1f0
100
AcDbEntity
  8
Layer_1
 62
7
100
AcDbPolyline
 90
3
 70
0
 10
4.162791
 20
3.162686
 30
0.0
 10
4.124806
 20
3.127990
 30
0.0
 10
4.182066
 20
3.136494
 30
0.0
  0
SPLINE
  5
1f1
100
AcDbEntity
  8
Layer_1
 62
7
100
AcDbSpline
 70
8
 71
3
 72
8
 73
4
 74
0
 40
0
 40
0
 40
0
 40
0
 40
1
 40
1
 40
1
 40
1
 10
4.438970
 20
2.625889
 30
0.0
 10
4.430466
 20
2.651968
 30
0.0
 10
4.447474
 20
2.678302
 30
0.0
 10
4.469868
 20
2.670422
 30
0.0
  0
SPLINE
  5
1f2
100
AcDbEntity
  8
Layer_1
 62
7
100
AcDbSpline
 70
8
 71
3
 72
8
 73
4
 74
0
 40
0
 40
0
 40
0
 40
0
 40
1
 40
1
 40
1
 40
1
 10
4.469868
 20
2.670422
 30
0.0
 10
4.478372
 20
2.667303
 30
0.0
 10
4.478372
 20
2.653981
 30
0.0
 10
4.467033
 20
2.633741
 30
0.0
  0
SPLINE
  5
1f3
100
AcDbEntity
  8
Layer_1
 62
7
100
AcDbSpline
 70
8
 71
3
 72
8
 73
4
 74
0
 40
0
 40
0
 40
0
 40
0
 40
1
 40
1
 40
1
 40
1
 10
4.467033
 20
2.633741
 30
0.0
 10
4.452860
 20
2.605196
 30
0.0
 10
4.447191
 20
2.604289
 30
0.0
 10
4.441521
 20
2.626088
 30
0.0
  0
LWPOLYLINE
  5
1f4
100
AcDbEntity
  8
Layer_1
 62
7
100
AcDbPolyline
 90
2
 70
0
 10
5.006523
 20
0.074788
 30
0.0
 10
5.004680
 20
0.074810
 30
0.0
  0
SPLINE
  5
1f5
100
AcDbEntity
  8
Layer_1
 62
7
100
AcDbSpline
 70
8
 71
3
 72
8
 73
4
 74
0
 40
0
 40
0
 40
0
 40
0
 40
1
 40
1
 40
1
 40
1
 10
5.447282
 20
2.652252
 30
0.0
 10
5.441613
 20
2.664441
 30
0.0
 10
5.447310
 20
2.672378
 30
0.0
 10
5.458620
 20
2.672378
 30
0.0
  0
SPLINE
  5
1f6
100
AcDbEntity
  8
Layer_1
 62
7
100
AcDbSpline
 70
8
 71
3
 72
8
 73
4
 74
0
 40
0
 40
0
 40
0
 40
0
 40
1
 40
1
 40
1
 40
1
 10
5.458620
 20
2.672378
 30
0.0
 10
5.481298
 20
2.672378
 30
0.0
 10
5.486967
 20
2.651401
 30
0.0
 10
5.467124
 20
2.639637
 30
0.0
  0
SPLINE
  5
1f7
100
AcDbEntity
  8
Layer_1
 62
7
100
AcDbSpline
 70
8
 71
3
 72
8
 73
4
 74
0
 40
0
 40
0
 40
0
 40
0
 40
1
 40
1
 40
1
 40
1
 10
5.467124
 20
2.639637
 30
0.0
 10
5.461455
 20
2.635669
 30
0.0
 10
5.452951
 20
2.641245
 30
0.0
 10
5.447282
 20
2.652393
 30
0.0
  0
LWPOLYLINE
  5
1f8
100
AcDbEntity
  8
Layer_1
 62
7
100
AcDbPolyline
 90
2
 70
0
 10
4.441521
 20
2.626088
 30
0.0
 10
4.438970
 20
2.625889
 30
0.0
  0
SPLINE
  5
1f9
100
AcDbEntity
  8
Layer_1
 62
7
100
AcDbSpline
 70
8
 71
3
 72
8
 73
4
 74
0
 40
0
 40
0
 40
0
 40
0
 40
1
 40
1
 40
1
 40
1
 10
4.468280
 20
2.728787
 30
0.0
 10
4.479619
 20
2.741259
 30
0.0
 10
4.488123
 20
2.741259
 30
0.0
 10
4.500595
 20
2.728787
 30
0.0
  0
SPLINE
  5
1fa
100
AcDbEntity
  8
Layer_1
 62
7
100
AcDbSpline
 70
8
 71
3
 72
8
 73
4
 74
0
 40
0
 40
0
 40
0
 40
0
 40
1
 40
1
 40
1
 40
1
 10
4.500595
 20
2.728787
 30
0.0
 10
4.511934
 20
2.716315
 30
0.0
 10
4.509099
 20
2.712629
 30
0.0
 10
4.486422
 20
2.712629
 30
0.0
  0
SPLINE
  5
1fb
100
AcDbEntity
  8
Layer_1
 62
7
100
AcDbSpline
 70
8
 71
3
 72
8
 73
4
 74
0
 40
0
 40
0
 40
0
 40
0
 40
1
 40
1
 40
1
 40
1
 10
4.486422
 20
2.712629
 30
0.0
 10
4.460910
 20
2.712629
 30
0.0
 10
4.458076
 20
2.716031
 30
0.0
 10
4.472249
 20
2.728787
 30
0.0
  0
LWPOLYLINE
  5
1fc
100
AcDbEntity
  8
Layer_1
 62
7
100
AcDbPolyline
 90
2
 70
0
 10
5.447282
 20
2.652393
 30
0.0
 10
5.447282
 20
2.652252
 30
0.0
  0
SPLINE
  5
1fd
100
AcDbEntity
  8
Layer_1
 62
7
100
AcDbSpline
 70
8
 71
3
 72
8
 73
4
 74
0
 40
0
 40
0
 40
0
 40
0
 40
1
 40
1
 40
1
 40
1
 10
4.744942
 20
2.826781
 30
0.0
 10
4.782076
 20
2.855127
 30
0.0
 10
4.870233
 20
2.864396
 30
0.0
 10
5.025288
 20
2.856856
 30
0.0
  0
SPLINE
  5
1fe
100
AcDbEntity
  8
Layer_1
 62
7
100
AcDbSpline
 70
8
 71
3
 72
8
 73
4
 74
0
 40
0
 40
0
 40
0
 40
0
 40
1
 40
1
 40
1
 40
1
 10
5.025288
 20
2.856856
 30
0.0
 10
5.151430
 20
2.850620
 30
0.0
 10
5.275304
 20
2.827092
 30
0.0
 10
5.259997
 20
2.812012
 30
0.0
  0
SPLINE
  5
1ff
100
AcDbEntity
  8
Layer_1
 62
7
100
AcDbSpline
 70
8
 71
3
 72
8
 73
4
 74
0
 40
0
 40
0
 40
0
 40
0
 40
1
 40
1
 40
1
 40
1
 10
5.259997
 20
2.812012
 30
0.0
 10
5.257162
 20
2.808611
 30
0.0
 10
5.227115
 20
2.811916
 30
0.0
 10
5.194800
 20
2.819382
 30
0.0
  0
SPLINE
  5
200
100
AcDbEntity
  8
Layer_1
 62
7
100
AcDbSpline
 70
8
 71
3
 72
8
 73
4
 74
0
 40
0
 40
0
 40
0
 40
0
 40
1
 40
1
 40
1
 40
1
 10
5.194800
 20
2.819382
 30
0.0
 10
5.119398
 20
2.836674
 30
0.0
 10
4.827572
 20
2.837807
 30
0.0
 10
4.766202
 20
2.820598
 30
0.0
  0
SPLINE
  5
201
100
AcDbEntity
  8
Layer_1
 62
7
100
AcDbSpline
 70
8
 71
3
 72
8
 73
4
 74
0
 40
0
 40
0
 40
0
 40
0
 40
1
 40
1
 40
1
 40
1
 10
4.766202
 20
2.820598
 30
0.0
 10
4.723965
 20
2.808693
 30
0.0
 10
4.721981
 20
2.809543
 30
0.0
 10
4.743524
 20
2.826835
 30
0.0
  0
LWPOLYLINE
  5
202
100
AcDbEntity
  8
Layer_1
 62
7
100
AcDbPolyline
 90
2
 70
0
 10
4.472249
 20
2.728787
 30
0.0
 10
4.468280
 20
2.728787
 30
0.0
  0
SPLINE
  5
203
100
AcDbEntity
  8
Layer_1
 62
7
100
AcDbSpline
 70
8
 71
3
 72
8
 73
4
 74
0
 40
0
 40
0
 40
0
 40
0
 40
1
 40
1
 40
1
 40
1
 10
5.463043
 20
2.869697
 30
0.0
 10
5.471546
 20
2.873382
 30
0.0
 10
5.485720
 20
2.873099
 30
0.0
 10
5.488554
 20
2.868646
 30
0.0
  0
SPLINE
  5
204
100
AcDbEntity
  8
Layer_1
 62
7
100
AcDbSpline
 70
8
 71
3
 72
8
 73
4
 74
0
 40
0
 40
0
 40
0
 40
0
 40
1
 40
1
 40
1
 40
1
 10
5.488554
 20
2.868646
 30
0.0
 10
5.494224
 20
2.864110
 30
0.0
 10
5.485720
 20
2.860992
 30
0.0
 10
5.468712
 20
2.861559
 30
0.0
  0
SPLINE
  5
205
100
AcDbEntity
  8
Layer_1
 62
7
100
AcDbSpline
 70
8
 71
3
 72
8
 73
4
 74
0
 40
0
 40
0
 40
0
 40
0
 40
1
 40
1
 40
1
 40
1
 10
5.468712
 20
2.861559
 30
0.0
 10
5.454539
 20
2.862194
 30
0.0
 10
5.448869
 20
2.865244
 30
0.0
 10
5.460208
 20
2.869496
 30
0.0
  0
LWPOLYLINE
  5
206
100
AcDbEntity
  8
Layer_1
 62
7
100
AcDbPolyline
 90
2
 70
0
 10
4.743524
 20
2.826835
 30
0.0
 10
4.744942
 20
2.826781
 30
0.0
  0
SPLINE
  5
207
100
AcDbEntity
  8
Layer_1
 62
7
100
AcDbSpline
 70
8
 71
3
 72
8
 73
4
 74
0
 40
0
 40
0
 40
0
 40
0
 40
1
 40
1
 40
1
 40
1
 10
5.477216
 20
2.914286
 30
0.0
 10
5.477216
 20
2.921656
 30
0.0
 10
5.482885
 20
2.927892
 30
0.0
 10
5.488554
 20
2.927892
 30
0.0
  0
SPLINE
  5
208
100
AcDbEntity
  8
Layer_1
 62
7
100
AcDbSpline
 70
8
 71
3
 72
8
 73
4
 74
0
 40
0
 40
0
 40
0
 40
0
 40
1
 40
1
 40
1
 40
1
 10
5.488554
 20
2.927892
 30
0.0
 10
5.497058
 20
2.927892
 30
0.0
 10
5.499893
 20
2.921656
 30
0.0
 10
5.499893
 20
2.914286
 30
0.0
  0
SPLINE
  5
209
100
AcDbEntity
  8
Layer_1
 62
7
100
AcDbSpline
 70
8
 71
3
 72
8
 73
4
 74
0
 40
0
 40
0
 40
0
 40
0
 40
1
 40
1
 40
1
 40
1
 10
5.499893
 20
2.914286
 30
0.0
 10
5.499893
 20
2.906916
 30
0.0
 10
5.494224
 20
2.900680
 30
0.0
 10
5.488554
 20
2.900680
 30
0.0
  0
SPLINE
  5
20a
100
AcDbEntity
  8
Layer_1
 62
7
100
AcDbSpline
 70
8
 71
3
 72
8
 73
4
 74
0
 40
0
 40
0
 40
0
 40
0
 40
1
 40
1
 40
1
 40
1
 10
5.488554
 20
2.900680
 30
0.0
 10
5.480050
 20
2.900680
 30
0.0
 10
5.477216
 20
2.906916
 30
0.0
 10
5.477216
 20
2.914286
 30
0.0
  0
LWPOLYLINE
  5
20b
100
AcDbEntity
  8
Layer_1
 62
7
100
AcDbPolyline
 90
2
 70
0
 10
5.460208
 20
2.869496
 30
0.0
 10
5.463043
 20
2.869697
 30
0.0
  0
SPLINE
  5
20c
100
AcDbEntity
  8
Layer_1
 62
7
100
AcDbSpline
 70
8
 71
3
 72
8
 73
4
 74
0
 40
0
 40
0
 40
0
 40
0
 40
1
 40
1
 40
1
 40
1
 10
4.354894
 20
2.994903
 30
0.0
 10
4.349225
 20
3.002274
 30
0.0
 10
4.354526
 20
3.008510
 30
0.0
 10
4.363398
 20
3.008510
 30
0.0
  0
SPLINE
  5
20d
100
AcDbEntity
  8
Layer_1
 62
7
100
AcDbSpline
 70
8
 71
3
 72
8
 73
4
 74
0
 40
0
 40
0
 40
0
 40
0
 40
1
 40
1
 40
1
 40
1
 10
4.363398
 20
3.008510
 30
0.0
 10
4.374737
 20
3.008657
 30
0.0
 10
4.374737
 20
3.012195
 30
0.0
 10
4.360564
 20
3.021549
 30
0.0
  0
SPLINE
  5
20e
100
AcDbEntity
  8
Layer_1
 62
7
100
AcDbSpline
 70
8
 71
3
 72
8
 73
4
 74
0
 40
0
 40
0
 40
0
 40
0
 40
1
 40
1
 40
1
 40
1
 10
4.360564
 20
3.021549
 30
0.0
 10
4.340721
 20
3.032604
 30
0.0
 10
4.340721
 20
3.034589
 30
0.0
 10
4.362180
 20
3.034589
 30
0.0
  0
SPLINE
  5
20f
100
AcDbEntity
  8
Layer_1
 62
7
100
AcDbSpline
 70
8
 71
3
 72
8
 73
4
 74
0
 40
0
 40
0
 40
0
 40
0
 40
1
 40
1
 40
1
 40
1
 10
4.362180
 20
3.034589
 30
0.0
 10
4.373518
 20
3.034693
 30
0.0
 10
4.387691
 20
3.026652
 30
0.0
 10
4.390526
 20
3.015880
 30
0.0
  0
SPLINE
  5
210
100
AcDbEntity
  8
Layer_1
 62
7
100
AcDbSpline
 70
8
 71
3
 72
8
 73
4
 74
0
 40
0
 40
0
 40
0
 40
0
 40
1
 40
1
 40
1
 40
1
 10
4.390526
 20
3.015880
 30
0.0
 10
4.401865
 20
2.985181
 30
0.0
 10
4.367849
 20
2.966642
 30
0.0
 10
4.352542
 20
2.994620
 30
0.0
  0
LWPOLYLINE
  5
211
100
AcDbEntity
  8
Layer_1
 62
7
100
AcDbPolyline
 90
1
 70
1
 10
5.477216
 20
2.914286
 30
0.0
  0
SPLINE
  5
212
100
AcDbEntity
  8
Layer_1
 62
7
100
AcDbSpline
 70
8
 71
3
 72
8
 73
4
 74
0
 40
0
 40
0
 40
0
 40
0
 40
1
 40
1
 40
1
 40
1
 10
5.504117
 20
3.008510
 30
0.0
 10
5.504117
 20
3.015880
 30
0.0
 10
5.512620
 20
3.022116
 30
0.0
 10
5.526794
 20
3.022116
 30
0.0
  0
SPLINE
  5
213
100
AcDbEntity
  8
Layer_1
 62
7
100
AcDbSpline
 70
8
 71
3
 72
8
 73
4
 74
0
 40
0
 40
0
 40
0
 40
0
 40
1
 40
1
 40
1
 40
1
 10
5.526794
 20
3.022116
 30
0.0
 10
5.538132
 20
3.022116
 30
0.0
 10
5.546636
 20
3.015880
 30
0.0
 10
5.538132
 20
3.008510
 30
0.0
  0
SPLINE
  5
214
100
AcDbEntity
  8
Layer_1
 62
7
100
AcDbSpline
 70
8
 71
3
 72
8
 73
4
 74
0
 40
0
 40
0
 40
0
 40
0
 40
1
 40
1
 40
1
 40
1
 10
5.538132
 20
3.008510
 30
0.0
 10
5.532463
 20
3.001140
 30
0.0
 10
5.523959
 20
2.994903
 30
0.0
 10
5.515455
 20
2.994903
 30
0.0
  0
SPLINE
  5
215
100
AcDbEntity
  8
Layer_1
 62
7
100
AcDbSpline
 70
8
 71
3
 72
8
 73
4
 74
0
 40
0
 40
0
 40
0
 40
0
 40
1
 40
1
 40
1
 40
1
 10
5.515455
 20
2.994903
 30
0.0
 10
5.509786
 20
2.994903
 30
0.0
 10
5.504117
 20
3.001140
 30
0.0
 10
5.504117
 20
3.008510
 30
0.0
  0
LWPOLYLINE
  5
216
100
AcDbEntity
  8
Layer_1
 62
7
100
AcDbPolyline
 90
2
 70
0
 10
4.352542
 20
2.994620
 30
0.0
 10
4.354894
 20
2.994903
 30
0.0
  0
SPLINE
  5
217
100
AcDbEntity
  8
Layer_1
 62
7
100
AcDbSpline
 70
8
 71
3
 72
8
 73
4
 74
0
 40
0
 40
0
 40
0
 40
0
 40
1
 40
1
 40
1
 40
1
 10
5.515455
 20
3.128670
 30
0.0
 10
5.515455
 20
3.167732
 30
0.0
 10
5.538132
 20
3.194179
 30
0.0
 10
5.552872
 20
3.177115
 30
0.0
  0
SPLINE
  5
218
100
AcDbEntity
  8
Layer_1
 62
7
100
AcDbSpline
 70
8
 71
3
 72
8
 73
4
 74
0
 40
0
 40
0
 40
0
 40
0
 40
1
 40
1
 40
1
 40
1
 10
5.552872
 20
3.177115
 30
0.0
 10
5.558542
 20
3.172012
 30
0.0
 10
5.552787
 20
3.162658
 30
0.0
 10
5.541534
 20
3.155855
 30
0.0
  0
SPLINE
  5
219
100
AcDbEntity
  8
Layer_1
 62
7
100
AcDbSpline
 70
8
 71
3
 72
8
 73
4
 74
0
 40
0
 40
0
 40
0
 40
0
 40
1
 40
1
 40
1
 40
1
 10
5.541534
 20
3.155855
 30
0.0
 10
5.527361
 20
3.145083
 30
0.0
 10
5.527361
 20
3.141398
 30
0.0
 10
5.540287
 20
3.131477
 30
0.0
  0
SPLINE
  5
21a
100
AcDbEntity
  8
Layer_1
 62
7
100
AcDbSpline
 70
8
 71
3
 72
8
 73
4
 74
0
 40
0
 40
0
 40
0
 40
0
 40
1
 40
1
 40
1
 40
1
 10
5.540287
 20
3.131477
 30
0.0
 10
5.548791
 20
3.124957
 30
0.0
 10
5.554460
 20
3.112768
 30
0.0
 10
5.548791
 20
3.104548
 30
0.0
  0
SPLINE
  5
21b
100
AcDbEntity
  8
Layer_1
 62
7
100
AcDbSpline
 70
8
 71
3
 72
8
 73
4
 74
0
 40
0
 40
0
 40
0
 40
0
 40
1
 40
1
 40
1
 40
1
 10
5.548791
 20
3.104548
 30
0.0
 10
5.534617
 20
3.077052
 30
0.0
 10
5.514491
 20
3.089241
 30
0.0
 10
5.514491
 20
3.128926
 30
0.0
  0
LWPOLYLINE
  5
21c
100
AcDbEntity
  8
Layer_1
 62
7
100
AcDbPolyline
 90
1
 70
1
 10
5.504117
 20
3.008510
 30
0.0
  0
SPLINE
  5
21d
100
AcDbEntity
  8
Layer_1
 62
7
100
AcDbSpline
 70
8
 71
3
 72
8
 73
4
 74
0
 40
0
 40
0
 40
0
 40
0
 40
1
 40
1
 40
1
 40
1
 10
4.339389
 20
3.142844
 30
0.0
 10
4.345058
 20
3.150214
 30
0.0
 10
4.350728
 20
3.156450
 30
0.0
 10
4.353562
 20
3.156450
 30
0.0
  0
SPLINE
  5
21e
100
AcDbEntity
  8
Layer_1
 62
7
100
AcDbSpline
 70
8
 71
3
 72
8
 73
4
 74
0
 40
0
 40
0
 40
0
 40
0
 40
1
 40
1
 40
1
 40
1
 10
4.353562
 20
3.156450
 30
0.0
 10
4.356397
 20
3.156450
 30
0.0
 10
4.359231
 20
3.150214
 30
0.0
 10
4.359231
 20
3.142844
 30
0.0
  0
SPLINE
  5
21f
100
AcDbEntity
  8
Layer_1
 62
7
100
AcDbSpline
 70
8
 71
3
 72
8
 73
4
 74
0
 40
0
 40
0
 40
0
 40
0
 40
1
 40
1
 40
1
 40
1
 10
4.359231
 20
3.142844
 30
0.0
 10
4.359231
 20
3.135474
 30
0.0
 10
4.353562
 20
3.129237
 30
0.0
 10
4.345058
 20
3.129237
 30
0.0
  0
SPLINE
  5
220
100
AcDbEntity
  8
Layer_1
 62
7
100
AcDbSpline
 70
8
 71
3
 72
8
 73
4
 74
0
 40
0
 40
0
 40
0
 40
0
 40
1
 40
1
 40
1
 40
1
 10
4.345058
 20
3.129237
 30
0.0
 10
4.336554
 20
3.129237
 30
0.0
 10
4.333720
 20
3.135474
 30
0.0
 10
4.339389
 20
3.142844
 30
0.0
  0
LWPOLYLINE
  5
221
100
AcDbEntity
  8
Layer_1
 62
7
100
AcDbPolyline
 90
2
 70
0
 10
5.514491
 20
3.128926
 30
0.0
 10
5.515455
 20
3.128670
 30
0.0
  0
SPLINE
  5
222
100
AcDbEntity
  8
Layer_1
 62
7
100
AcDbSpline
 70
8
 71
3
 72
8
 73
4
 74
0
 40
0
 40
0
 40
0
 40
0
 40
1
 40
1
 40
1
 40
1
 10
4.328050
 20
3.192110
 30
0.0
 10
4.313877
 20
3.208551
 30
0.0
 10
4.319546
 20
3.236926
 30
0.0
 10
4.339389
 20
3.236926
 30
0.0
  0
SPLINE
  5
223
100
AcDbEntity
  8
Layer_1
 62
7
100
AcDbSpline
 70
8
 71
3
 72
8
 73
4
 74
0
 40
0
 40
0
 40
0
 40
0
 40
1
 40
1
 40
1
 40
1
 10
4.339389
 20
3.236926
 30
0.0
 10
4.350728
 20
3.236926
 30
0.0
 10
4.362066
 20
3.225020
 30
0.0
 10
4.362066
 20
3.209996
 30
0.0
  0
SPLINE
  5
224
100
AcDbEntity
  8
Layer_1
 62
7
100
AcDbSpline
 70
8
 71
3
 72
8
 73
4
 74
0
 40
0
 40
0
 40
0
 40
0
 40
1
 40
1
 40
1
 40
1
 10
4.362066
 20
3.209996
 30
0.0
 10
4.362066
 20
3.183351
 30
0.0
 10
4.347893
 20
3.175045
 30
0.0
 10
4.330885
 20
3.192138
 30
0.0
  0
LWPOLYLINE
  5
225
100
AcDbEntity
  8
Layer_1
 62
7
100
AcDbPolyline
 90
1
 70
1
 10
4.339389
 20
3.142844
 30
0.0
  0
SPLINE
  5
226
100
AcDbEntity
  8
Layer_1
 62
7
100
AcDbSpline
 70
8
 71
3
 72
8
 73
4
 74
0
 40
0
 40
0
 40
0
 40
0
 40
1
 40
1
 40
1
 40
1
 10
5.526255
 20
3.219039
 30
0.0
 10
5.534759
 20
3.222724
 30
0.0
 10
5.548932
 20
3.222441
 30
0.0
 10
5.551767
 20
3.217990
 30
0.0
  0
SPLINE
  5
227
100
AcDbEntity
  8
Layer_1
 62
7
100
AcDbSpline
 70
8
 71
3
 72
8
 73
4
 74
0
 40
0
 40
0
 40
0
 40
0
 40
1
 40
1
 40
1
 40
1
 10
5.551767
 20
3.217990
 30
0.0
 10
5.557436
 20
3.213455
 30
0.0
 10
5.548932
 20
3.210337
 30
0.0
 10
5.531924
 20
3.210903
 30
0.0
  0
SPLINE
  5
228
100
AcDbEntity
  8
Layer_1
 62
7
100
AcDbSpline
 70
8
 71
3
 72
8
 73
4
 74
0
 40
0
 40
0
 40
0
 40
0
 40
1
 40
1
 40
1
 40
1
 10
5.531924
 20
3.210903
 30
0.0
 10
5.517751
 20
3.211538
 30
0.0
 10
5.512082
 20
3.214589
 30
0.0
 10
5.523420
 20
3.218841
 30
0.0
  0
LWPOLYLINE
  5
229
100
AcDbEntity
  8
Layer_1
 62
7
100
AcDbPolyline
 90
2
 70
0
 10
4.330885
 20
3.192138
 30
0.0
 10
4.328050
 20
3.192110
 30
0.0
  0
SPLINE
  5
22a
100
AcDbEntity
  8
Layer_1
 62
7
100
AcDbSpline
 70
8
 71
3
 72
8
 73
4
 74
0
 40
0
 40
0
 40
0
 40
0
 40
1
 40
1
 40
1
 40
1
 10
4.887468
 20
3.891851
 30
0.0
 10
4.930271
 20
3.894583
 30
0.0
 10
4.996602
 20
3.894583
 30
0.0
 10
5.035436
 20
3.891797
 30
0.0
  0
SPLINE
  5
22b
100
AcDbEntity
  8
Layer_1
 62
7
100
AcDbSpline
 70
8
 71
3
 72
8
 73
4
 74
0
 40
0
 40
0
 40
0
 40
0
 40
1
 40
1
 40
1
 40
1
 10
5.035436
 20
3.891797
 30
0.0
 10
5.073987
 20
3.889067
 30
0.0
 10
5.038271
 20
3.886694
 30
0.0
 10
4.957483
 20
3.886694
 30
0.0
  0
SPLINE
  5
22c
100
AcDbEntity
  8
Layer_1
 62
7
100
AcDbSpline
 70
8
 71
3
 72
8
 73
4
 74
0
 40
0
 40
0
 40
0
 40
0
 40
1
 40
1
 40
1
 40
1
 10
4.957483
 20
3.886694
 30
0.0
 10
4.876129
 20
3.886720
 30
0.0
 10
4.844665
 20
3.888945
 30
0.0
 10
4.887468
 20
3.891797
 30
0.0
  0
LWPOLYLINE
  5
22d
100
AcDbEntity
  8
Layer_1
 62
7
100
AcDbPolyline
 90
2
 70
0
 10
5.523420
 20
3.218841
 30
0.0
 10
5.526255
 20
3.219039
 30
0.0
  0
SPLINE
  5
22e
100
AcDbEntity
  8
Layer_1
 62
7
100
AcDbSpline
 70
8
 71
3
 72
8
 73
4
 74
0
 40
0
 40
0
 40
0
 40
0
 40
1
 40
1
 40
1
 40
1
 10
3.445455
 20
1.374731
 30
0.0
 10
3.610148
 20
1.425783
 30
0.0
 10
3.806391
 20
1.562611
 30
0.0
 10
3.961446
 20
1.734305
 30
0.0
  0
SPLINE
  5
22f
100
AcDbEntity
  8
Layer_1
 62
7
100
AcDbSpline
 70
8
 71
3
 72
8
 73
4
 74
0
 40
0
 40
0
 40
0
 40
0
 40
1
 40
1
 40
1
 40
1
 10
3.961446
 20
1.734305
 30
0.0
 10
4.092406
 20
1.879354
 30
0.0
 10
4.250183
 20
2.094407
 30
0.0
 10
4.265065
 20
2.148030
 30
0.0
  0
SPLINE
  5
230
100
AcDbEntity
  8
Layer_1
 62
7
100
AcDbSpline
 70
8
 71
3
 72
8
 73
4
 74
0
 40
0
 40
0
 40
0
 40
0
 40
1
 40
1
 40
1
 40
1
 10
4.265065
 20
2.148030
 30
0.0
 10
4.336214
 20
2.405643
 30
0.0
 10
4.355773
 20
2.491442
 30
0.0
 10
4.345002
 20
2.495255
 30
0.0
  0
SPLINE
  5
231
100
AcDbEntity
  8
Layer_1
 62
7
100
AcDbSpline
 70
8
 71
3
 72
8
 73
4
 74
0
 40
0
 40
0
 40
0
 40
0
 40
1
 40
1
 40
1
 40
1
 10
4.345002
 20
2.495255
 30
0.0
 10
4.322324
 20
2.502625
 30
0.0
 10
4.330828
 20
2.524395
 30
0.0
 10
4.353506
 20
2.524395
 30
0.0
  0
SPLINE
  5
232
100
AcDbEntity
  8
Layer_1
 62
7
100
AcDbSpline
 70
8
 71
3
 72
8
 73
4
 74
0
 40
0
 40
0
 40
0
 40
0
 40
1
 40
1
 40
1
 40
1
 10
4.353506
 20
2.524395
 30
0.0
 10
4.373348
 20
2.524395
 30
0.0
 10
4.367679
 20
2.530915
 30
0.0
 10
4.345002
 20
2.560905
 30
0.0
  0
SPLINE
  5
233
100
AcDbEntity
  8
Layer_1
 62
7
100
AcDbSpline
 70
8
 71
3
 72
8
 73
4
 74
0
 40
0
 40
0
 40
0
 40
0
 40
1
 40
1
 40
1
 40
1
 10
4.345002
 20
2.560905
 30
0.0
 10
4.319490
 20
2.591916
 30
0.0
 10
4.319490
 20
2.598492
 30
0.0
 10
4.336498
 20
2.604587
 30
0.0
  0
SPLINE
  5
234
100
AcDbEntity
  8
Layer_1
 62
7
100
AcDbSpline
 70
8
 71
3
 72
8
 73
4
 74
0
 40
0
 40
0
 40
0
 40
0
 40
1
 40
1
 40
1
 40
1
 10
4.336498
 20
2.604587
 30
0.0
 10
4.362009
 20
2.613374
 30
0.0
 10
4.347836
 20
2.635598
 30
0.0
 10
4.308151
 20
2.657283
 30
0.0
  0
SPLINE
  5
235
100
AcDbEntity
  8
Layer_1
 62
7
100
AcDbSpline
 70
8
 71
3
 72
8
 73
4
 74
0
 40
0
 40
0
 40
0
 40
0
 40
1
 40
1
 40
1
 40
1
 10
4.308151
 20
2.657283
 30
0.0
 10
4.274702
 20
2.674858
 30
0.0
 10
4.266198
 20
2.702807
 30
0.0
 10
4.299647
 20
2.690562
 30
0.0
  0
SPLINE
  5
236
100
AcDbEntity
  8
Layer_1
 62
7
100
AcDbSpline
 70
8
 71
3
 72
8
 73
4
 74
0
 40
0
 40
0
 40
0
 40
0
 40
1
 40
1
 40
1
 40
1
 10
4.299647
 20
2.690562
 30
0.0
 10
4.337065
 20
2.676389
 30
0.0
 10
4.322324
 20
2.696798
 30
0.0
 10
4.268750
 20
2.727270
 30
0.0
  0
SPLINE
  5
237
100
AcDbEntity
  8
Layer_1
 62
7
100
AcDbSpline
 70
8
 71
3
 72
8
 73
4
 74
0
 40
0
 40
0
 40
0
 40
0
 40
1
 40
1
 40
1
 40
1
 10
4.268750
 20
2.727270
 30
0.0
 10
4.240403
 20
2.743995
 30
0.0
 10
4.207238
 20
2.768628
 30
0.0
 10
4.194198
 20
2.782121
 30
0.0
  0
SPLINE
  5
238
100
AcDbEntity
  8
Layer_1
 62
7
100
AcDbSpline
 70
8
 71
3
 72
8
 73
4
 74
0
 40
0
 40
0
 40
0
 40
0
 40
1
 40
1
 40
1
 40
1
 10
4.194198
 20
2.782121
 30
0.0
 10
4.182860
 20
2.795727
 30
0.0
 10
4.152529
 20
2.806499
 30
0.0
 10
4.131269
 20
2.806499
 30
0.0
  0
SPLINE
  5
239
100
AcDbEntity
  8
Layer_1
 62
7
100
AcDbSpline
 70
8
 71
3
 72
8
 73
4
 74
0
 40
0
 40
0
 40
0
 40
0
 40
1
 40
1
 40
1
 40
1
 10
4.131269
 20
2.806499
 30
0.0
 10
4.078545
 20
2.806499
 30
0.0
 10
4.068624
 20
2.827759
 30
0.0
 10
4.111427
 20
2.844625
 30
0.0
  0
SPLINE
  5
23a
100
AcDbEntity
  8
Layer_1
 62
7
100
AcDbSpline
 70
8
 71
3
 72
8
 73
4
 74
0
 40
0
 40
0
 40
0
 40
0
 40
1
 40
1
 40
1
 40
1
 10
4.111427
 20
2.844625
 30
0.0
 10
4.146576
 20
2.857381
 30
0.0
 10
4.147143
 20
2.858231
 30
0.0
 10
4.117096
 20
2.859081
 30
0.0
  0
SPLINE
  5
23b
100
AcDbEntity
  8
Layer_1
 62
7
100
AcDbSpline
 70
8
 71
3
 72
8
 73
4
 74
0
 40
0
 40
0
 40
0
 40
0
 40
1
 40
1
 40
1
 40
1
 10
4.117096
 20
2.859081
 30
0.0
 10
4.094419
 20
2.859827
 30
0.0
 10
4.088750
 20
2.866168
 30
0.0
 10
4.091584
 20
2.879774
 30
0.0
  0
SPLINE
  5
23c
100
AcDbEntity
  8
Layer_1
 62
7
100
AcDbSpline
 70
8
 71
3
 72
8
 73
4
 74
0
 40
0
 40
0
 40
0
 40
0
 40
1
 40
1
 40
1
 40
1
 10
4.091584
 20
2.879774
 30
0.0
 10
4.100088
 20
2.900467
 30
0.0
 10
4.097254
 20
2.900467
 30
0.0
 10
3.945883
 20
2.872404
 30
0.0
  0
SPLINE
  5
23d
100
AcDbEntity
  8
Layer_1
 62
7
100
AcDbSpline
 70
8
 71
3
 72
8
 73
4
 74
0
 40
0
 40
0
 40
0
 40
0
 40
1
 40
1
 40
1
 40
1
 10
3.945883
 20
2.872404
 30
0.0
 10
3.867080
 20
2.857948
 30
0.0
 10
2.462854
 20
2.851995
 30
0.0
 10
2.393121
 20
2.865885
 30
0.0
  0
SPLINE
  5
23e
100
AcDbEntity
  8
Layer_1
 62
7
100
AcDbSpline
 70
8
 71
3
 72
8
 73
4
 74
0
 40
0
 40
0
 40
0
 40
0
 40
1
 40
1
 40
1
 40
1
 10
2.393121
 20
2.865885
 30
0.0
 10
2.352869
 20
2.873822
 30
0.0
 10
2.322255
 20
2.864116
 30
0.0
 10
2.184775
 20
2.799724
 30
0.0
  0
SPLINE
  5
23f
100
AcDbEntity
  8
Layer_1
 62
7
100
AcDbSpline
 70
8
 71
3
 72
8
 73
4
 74
0
 40
0
 40
0
 40
0
 40
0
 40
1
 40
1
 40
1
 40
1
 10
2.184775
 20
2.799724
 30
0.0
 10
1.789483
 20
2.613998
 30
0.0
 10
1.474611
 20
2.322279
 30
0.0
 10
1.477049
 20
2.144028
 30
0.0
  0
SPLINE
  5
240
100
AcDbEntity
  8
Layer_1
 62
7
100
AcDbSpline
 70
8
 71
3
 72
8
 73
4
 74
0
 40
0
 40
0
 40
0
 40
0
 40
1
 40
1
 40
1
 40
1
 10
1.477049
 20
2.144028
 30
0.0
 10
1.477899
 20
2.077272
 30
0.0
 10
1.568608
 20
1.954107
 30
0.0
 10
1.756545
 20
1.764472
 30
0.0
  0
SPLINE
  5
241
100
AcDbEntity
  8
Layer_1
 62
7
100
AcDbSpline
 70
8
 71
3
 72
8
 73
4
 74
0
 40
0
 40
0
 40
0
 40
0
 40
1
 40
1
 40
1
 40
1
 10
1.756545
 20
1.764472
 30
0.0
 10
1.984450
 20
1.534100
 30
0.0
 10
2.178907
 20
1.429487
 30
0.0
 10
2.454094
 20
1.388853
 30
0.0
  0
SPLINE
  5
242
100
AcDbEntity
  8
Layer_1
 62
7
100
AcDbSpline
 70
8
 71
3
 72
8
 73
4
 74
0
 40
0
 40
0
 40
0
 40
0
 40
1
 40
1
 40
1
 40
1
 10
2.454094
 20
1.388853
 30
0.0
 10
2.731323
 20
1.347892
 30
0.0
 10
2.803663
 20
1.343130
 30
0.0
 10
3.085795
 20
1.347297
 30
0.0
  0
SPLINE
  5
243
100
AcDbEntity
  8
Layer_1
 62
7
100
AcDbSpline
 70
8
 71
3
 72
8
 73
4
 74
0
 40
0
 40
0
 40
0
 40
0
 40
1
 40
1
 40
1
 40
1
 10
3.085795
 20
1.347297
 30
0.0
 10
3.304630
 20
1.350415
 30
0.0
 10
3.384737
 20
1.356651
 30
0.0
 10
3.441997
 20
1.374226
 30
0.0
  0
LWPOLYLINE
  5
244
100
AcDbEntity
  8
Layer_1
 62
7
100
AcDbPolyline
 90
1
 70
1
 10
4.887468
 20
3.891797
 30
0.0
  0
SPLINE
  5
245
100
AcDbEntity
  8
Layer_1
 62
7
100
AcDbSpline
 70
8
 71
3
 72
8
 73
4
 74
0
 40
0
 40
0
 40
0
 40
0
 40
1
 40
1
 40
1
 40
1
 10
7.242520
 20
1.361408
 30
0.0
 10
7.616665
 20
1.403474
 30
0.0
 10
7.731865
 20
1.438170
 30
0.0
 10
7.927569
 20
1.567742
 30
0.0
  0
SPLINE
  5
246
100
AcDbEntity
  8
Layer_1
 62
7
100
AcDbSpline
 70
8
 71
3
 72
8
 73
4
 74
0
 40
0
 40
0
 40
0
 40
0
 40
1
 40
1
 40
1
 40
1
 10
7.927569
 20
1.567742
 30
0.0
 10
8.102183
 20
1.683310
 30
0.0
 10
8.418161
 20
2.032218
 30
0.0
 10
8.436246
 20
2.129268
 30
0.0
  0
SPLINE
  5
247
100
AcDbEntity
  8
Layer_1
 62
7
100
AcDbSpline
 70
8
 71
3
 72
8
 73
4
 74
0
 40
0
 40
0
 40
0
 40
0
 40
1
 40
1
 40
1
 40
1
 10
8.436246
 20
2.129268
 30
0.0
 10
8.441915
 20
2.159343
 30
0.0
 10
8.433411
 20
2.194238
 30
0.0
 10
8.404498
 20
2.254049
 30
0.0
  0
SPLINE
  5
248
100
AcDbEntity
  8
Layer_1
 62
7
100
AcDbSpline
 70
8
 71
3
 72
8
 73
4
 74
0
 40
0
 40
0
 40
0
 40
0
 40
1
 40
1
 40
1
 40
1
 10
8.404498
 20
2.254049
 30
0.0
 10
8.325128
 20
2.421832
 30
0.0
 10
8.044044
 20
2.649709
 30
0.0
 10
7.738072
 20
2.794344
 30
0.0
  0
SPLINE
  5
249
100
AcDbEntity
  8
Layer_1
 62
7
100
AcDbSpline
 70
8
 71
3
 72
8
 73
4
 74
0
 40
0
 40
0
 40
0
 40
0
 40
1
 40
1
 40
1
 40
1
 10
7.738072
 20
2.794344
 30
0.0
 10
7.597191
 20
2.860873
 30
0.0
 10
7.560057
 20
2.873289
 30
0.0
 10
7.526041
 20
2.865380
 30
0.0
  0
SPLINE
  5
24a
100
AcDbEntity
  8
Layer_1
 62
7
100
AcDbSpline
 70
8
 71
3
 72
8
 73
4
 74
0
 40
0
 40
0
 40
0
 40
0
 40
1
 40
1
 40
1
 40
1
 10
7.526041
 20
2.865380
 30
0.0
 10
7.466513
 20
2.851774
 30
0.0
 10
6.029773
 20
2.858577
 30
0.0
 10
5.972740
 20
2.872750
 30
0.0
  0
SPLINE
  5
24b
100
AcDbEntity
  8
Layer_1
 62
7
100
AcDbSpline
 70
8
 71
3
 72
8
 73
4
 74
0
 40
0
 40
0
 40
0
 40
0
 40
1
 40
1
 40
1
 40
1
 10
5.972740
 20
2.872750
 30
0.0
 10
5.947228
 20
2.879270
 30
0.0
 10
5.893654
 20
2.888341
 30
0.0
 10
5.854819
 20
2.893160
 30
0.0
  0
SPLINE
  5
24c
100
AcDbEntity
  8
Layer_1
 62
7
100
AcDbSpline
 70
8
 71
3
 72
8
 73
4
 74
0
 40
0
 40
0
 40
0
 40
0
 40
1
 40
1
 40
1
 40
1
 10
5.854819
 20
2.893160
 30
0.0
 10
5.795008
 20
2.900246
 30
0.0
 10
5.785654
 20
2.898545
 30
0.0
 10
5.792457
 20
2.880971
 30
0.0
  0
SPLINE
  5
24d
100
AcDbEntity
  8
Layer_1
 62
7
100
AcDbSpline
 70
8
 71
3
 72
8
 73
4
 74
0
 40
0
 40
0
 40
0
 40
0
 40
1
 40
1
 40
1
 40
1
 10
5.792457
 20
2.880971
 30
0.0
 10
5.798126
 20
2.865947
 30
0.0
 10
5.791408
 20
2.860278
 30
0.0
 10
5.766945
 20
2.859144
 30
0.0
  0
SPLINE
  5
24e
100
AcDbEntity
  8
Layer_1
 62
7
100
AcDbSpline
 70
8
 71
3
 72
8
 73
4
 74
0
 40
0
 40
0
 40
0
 40
0
 40
1
 40
1
 40
1
 40
1
 10
5.766945
 20
2.859144
 30
0.0
 10
5.736047
 20
2.858146
 30
0.0
 10
5.736047
 20
2.857378
 30
0.0
 10
5.772614
 20
2.844687
 30
0.0
  0
SPLINE
  5
24f
100
AcDbEntity
  8
Layer_1
 62
7
100
AcDbSpline
 70
8
 71
3
 72
8
 73
4
 74
0
 40
0
 40
0
 40
0
 40
0
 40
1
 40
1
 40
1
 40
1
 10
5.772614
 20
2.844687
 30
0.0
 10
5.818252
 20
2.828246
 30
0.0
 10
5.808331
 20
2.806561
 30
0.0
 10
5.752772
 20
2.806561
 30
0.0
  0
SPLINE
  5
250
100
AcDbEntity
  8
Layer_1
 62
7
100
AcDbSpline
 70
8
 71
3
 72
8
 73
4
 74
0
 40
0
 40
0
 40
0
 40
0
 40
1
 40
1
 40
1
 40
1
 10
5.752772
 20
2.806561
 30
0.0
 10
5.730094
 20
2.806561
 30
0.0
 10
5.702882
 20
2.795506
 30
0.0
 10
5.689843
 20
2.781333
 30
0.0
  0
SPLINE
  5
251
100
AcDbEntity
  8
Layer_1
 62
7
100
AcDbSpline
 70
8
 71
3
 72
8
 73
4
 74
0
 40
0
 40
0
 40
0
 40
0
 40
1
 40
1
 40
1
 40
1
 10
5.689843
 20
2.781333
 30
0.0
 10
5.678504
 20
2.767443
 30
0.0
 10
5.646472
 20
2.746353
 30
0.0
 10
5.622945
 20
2.734391
 30
0.0
  0
SPLINE
  5
252
100
AcDbEntity
  8
Layer_1
 62
7
100
AcDbSpline
 70
8
 71
3
 72
8
 73
4
 74
0
 40
0
 40
0
 40
0
 40
0
 40
1
 40
1
 40
1
 40
1
 10
5.622945
 20
2.734391
 30
0.0
 10
5.576457
 20
2.710863
 30
0.0
 10
5.544142
 20
2.674722
 30
0.0
 10
5.582976
 20
2.689547
 30
0.0
  0
SPLINE
  5
253
100
AcDbEntity
  8
Layer_1
 62
7
100
AcDbSpline
 70
8
 71
3
 72
8
 73
4
 74
0
 40
0
 40
0
 40
0
 40
0
 40
1
 40
1
 40
1
 40
1
 10
5.582976
 20
2.689547
 30
0.0
 10
5.620961
 20
2.704004
 30
0.0
 10
5.608488
 20
2.675090
 30
0.0
 10
5.563134
 20
2.649777
 30
0.0
  0
SPLINE
  5
254
100
AcDbEntity
  8
Layer_1
 62
7
100
AcDbSpline
 70
8
 71
3
 72
8
 73
4
 74
0
 40
0
 40
0
 40
0
 40
0
 40
1
 40
1
 40
1
 40
1
 10
5.563134
 20
2.649777
 30
0.0
 10
5.519480
 20
2.623982
 30
0.0
 10
5.510976
 20
2.604876
 30
0.0
 10
5.543291
 20
2.604876
 30
0.0
  0
SPLINE
  5
255
100
AcDbEntity
  8
Layer_1
 62
7
100
AcDbSpline
 70
8
 71
3
 72
8
 73
4
 74
0
 40
0
 40
0
 40
0
 40
0
 40
1
 40
1
 40
1
 40
1
 10
5.543291
 20
2.604876
 30
0.0
 10
5.563134
 20
2.604876
 30
0.0
 10
5.563134
 20
2.601191
 30
0.0
 10
5.542583
 20
2.572504
 30
0.0
  0
SPLINE
  5
256
100
AcDbEntity
  8
Layer_1
 62
7
100
AcDbSpline
 70
8
 71
3
 72
8
 73
4
 74
0
 40
0
 40
0
 40
0
 40
0
 40
1
 40
1
 40
1
 40
1
 10
5.542583
 20
2.572504
 30
0.0
 10
5.528409
 20
2.551245
 30
0.0
 10
5.528409
 20
2.537213
 30
0.0
 10
5.536913
 20
2.531374
 30
0.0
  0
SPLINE
  5
257
100
AcDbEntity
  8
Layer_1
 62
7
100
AcDbSpline
 70
8
 71
3
 72
8
 73
4
 74
0
 40
0
 40
0
 40
0
 40
0
 40
1
 40
1
 40
1
 40
1
 10
5.536913
 20
2.531374
 30
0.0
 10
5.545417
 20
2.526271
 30
0.0
 10
5.551087
 20
2.510114
 30
0.0
 10
5.551087
 20
2.494835
 30
0.0
  0
SPLINE
  5
258
100
AcDbEntity
  8
Layer_1
 62
7
100
AcDbSpline
 70
8
 71
3
 72
8
 73
4
 74
0
 40
0
 40
0
 40
0
 40
0
 40
1
 40
1
 40
1
 40
1
 10
5.551087
 20
2.494835
 30
0.0
 10
5.551087
 20
2.479528
 30
0.0
 10
5.565260
 20
2.396756
 30
0.0
 10
5.587654
 20
2.310810
 30
0.0
  0
SPLINE
  5
259
100
AcDbEntity
  8
Layer_1
 62
7
100
AcDbSpline
 70
8
 71
3
 72
8
 73
4
 74
0
 40
0
 40
0
 40
0
 40
0
 40
1
 40
1
 40
1
 40
1
 10
5.587654
 20
2.310810
 30
0.0
 10
5.627622
 20
2.139059
 30
0.0
 10
5.646047
 20
2.107396
 30
0.0
 10
5.855811
 20
1.844060
 30
0.0
  0
SPLINE
  5
25a
100
AcDbEntity
  8
Layer_1
 62
7
100
AcDbSpline
 70
8
 71
3
 72
8
 73
4
 74
0
 40
0
 40
0
 40
0
 40
0
 40
1
 40
1
 40
1
 40
1
 10
5.855811
 20
1.844060
 30
0.0
 10
6.078047
 20
1.565414
 30
0.0
 10
6.331181
 20
1.388875
 30
0.0
 10
6.555628
 20
1.356016
 30
0.0
  0
SPLINE
  5
25b
100
AcDbEntity
  8
Layer_1
 62
7
100
AcDbSpline
 70
8
 71
3
 72
8
 73
4
 74
0
 40
0
 40
0
 40
0
 40
0
 40
1
 40
1
 40
1
 40
1
 10
6.555628
 20
1.356016
 30
0.0
 10
6.682620
 20
1.337308
 30
0.0
 10
7.050813
 20
1.340142
 30
0.0
 10
7.237899
 20
1.361402
 30
0.0
  0
LWPOLYLINE
  5
25c
100
AcDbEntity
  8
Layer_1
 62
7
100
AcDbPolyline
 90
2
 70
0
 10
3.441997
 20
1.374226
 30
0.0
 10
3.445455
 20
1.374731
 30
0.0
  0
LWPOLYLINE
  5
25d
100
AcDbEntity
  8
Layer_1
 62
7
100
AcDbPolyline
 90
2
 70
0
 10
7.237899
 20
1.361402
 30
0.0
 10
7.242520
 20
1.361408
 30
0.0
  0
SPLINE
  5
25e
100
AcDbEntity
  8
Layer_1
 62
7
100
AcDbSpline
 70
8
 71
3
 72
8
 73
4
 74
0
 40
0
 40
0
 40
0
 40
0
 40
1
 40
1
 40
1
 40
1
 10
4.463348
 20
3.848016
 30
0.0
 10
4.435002
 20
3.871543
 30
0.0
 10
4.364419
 20
3.917408
 30
0.0
 10
4.303757
 20
3.950006
 30
0.0
  0
SPLINE
  5
25f
100
AcDbEntity
  8
Layer_1
 62
7
100
AcDbSpline
 70
8
 71
3
 72
8
 73
4
 74
0
 40
0
 40
0
 40
0
 40
0
 40
1
 40
1
 40
1
 40
1
 10
4.303757
 20
3.950006
 30
0.0
 10
4.169112
 20
4.022460
 30
0.0
 10
4.127443
 20
4.062938
 30
0.0
 10
4.092293
 20
4.154129
 30
0.0
  0
SPLINE
  5
260
100
AcDbEntity
  8
Layer_1
 62
7
100
AcDbSpline
 70
8
 71
3
 72
8
 73
4
 74
0
 40
0
 40
0
 40
0
 40
0
 40
1
 40
1
 40
1
 40
1
 10
4.092293
 20
4.154129
 30
0.0
 10
4.059694
 20
4.238431
 30
0.0
 10
4.055726
 20
4.223181
 30
0.0
 10
4.083789
 20
4.125783
 30
0.0
  0
SPLINE
  5
261
100
AcDbEntity
  8
Layer_1
 62
7
100
AcDbSpline
 70
8
 71
3
 72
8
 73
4
 74
0
 40
0
 40
0
 40
0
 40
0
 40
1
 40
1
 40
1
 40
1
 10
4.083789
 20
4.125783
 30
0.0
 10
4.109301
 20
4.039354
 30
0.0
 10
4.167128
 20
3.971918
 30
0.0
 10
4.261238
 20
3.918995
 30
0.0
  0
SPLINE
  5
262
100
AcDbEntity
  8
Layer_1
 62
7
100
AcDbSpline
 70
8
 71
3
 72
8
 73
4
 74
0
 40
0
 40
0
 40
0
 40
0
 40
1
 40
1
 40
1
 40
1
 10
4.261238
 20
3.918995
 30
0.0
 10
4.313112
 20
3.889855
 30
0.0
 10
4.340891
 20
3.862841
 30
0.0
 10
4.361017
 20
3.822901
 30
0.0
  0
SPLINE
  5
263
100
AcDbEntity
  8
Layer_1
 62
7
100
AcDbSpline
 70
8
 71
3
 72
8
 73
4
 74
0
 40
0
 40
0
 40
0
 40
0
 40
1
 40
1
 40
1
 40
1
 10
4.361017
 20
3.822901
 30
0.0
 10
4.389364
 20
3.765187
 30
0.0
 10
4.424513
 20
3.719776
 30
0.0
 10
4.438120
 20
3.721052
 30
0.0
  0
SPLINE
  5
264
100
AcDbEntity
  8
Layer_1
 62
7
100
AcDbSpline
 70
8
 71
3
 72
8
 73
4
 74
0
 40
0
 40
0
 40
0
 40
0
 40
1
 40
1
 40
1
 40
1
 10
4.438120
 20
3.721052
 30
0.0
 10
4.443789
 20
3.721469
 30
0.0
 10
4.460797
 20
3.740611
 30
0.0
 10
4.478939
 20
3.763458
 30
0.0
  0
LWPOLYLINE
  5
265
100
AcDbEntity
  8
Layer_1
 62
7
100
AcDbPolyline
 90
3
 70
0
 10
4.479789
 20
3.763685
 30
0.0
 10
4.512671
 20
3.805326
 30
0.0
 10
4.463348
 20
3.848016
 30
0.0
  0
SPLINE
  5
266
100
AcDbEntity
  8
Layer_1
 62
7
100
AcDbSpline
 70
8
 71
3
 72
8
 73
4
 74
0
 40
0
 40
0
 40
0
 40
0
 40
1
 40
1
 40
1
 40
1
 10
5.397449
 20
3.838151
 30
0.0
 10
5.408787
 20
3.851190
 30
0.0
 10
5.430614
 20
3.886652
 30
0.0
 10
5.445921
 20
3.917209
 30
0.0
  0
SPLINE
  5
267
100
AcDbEntity
  8
Layer_1
 62
7
100
AcDbSpline
 70
8
 71
3
 72
8
 73
4
 74
0
 40
0
 40
0
 40
0
 40
0
 40
1
 40
1
 40
1
 40
1
 10
5.445921
 20
3.917209
 30
0.0
 10
5.465764
 20
3.955109
 30
0.0
 10
5.494394
 20
3.984475
 30
0.0
 10
5.538331
 20
4.009675
 30
0.0
  0
SPLINE
  5
268
100
AcDbEntity
  8
Layer_1
 62
7
100
AcDbSpline
 70
8
 71
3
 72
8
 73
4
 74
0
 40
0
 40
0
 40
0
 40
0
 40
1
 40
1
 40
1
 40
1
 10
5.538331
 20
4.009675
 30
0.0
 10
5.573764
 20
4.030085
 30
0.0
 10
5.622520
 20
4.065178
 30
0.0
 10
5.646614
 20
4.087855
 30
0.0
  0
SPLINE
  5
269
100
AcDbEntity
  8
Layer_1
 62
7
100
AcDbSpline
 70
8
 71
3
 72
8
 73
4
 74
0
 40
0
 40
0
 40
0
 40
0
 40
1
 40
1
 40
1
 40
1
 10
5.646614
 20
4.087855
 30
0.0
 10
5.688850
 20
4.127540
 30
0.0
 10
5.744976
 20
4.248012
 30
0.0
 10
5.743276
 20
4.295635
 30
0.0
  0
SPLINE
  5
26a
100
AcDbEntity
  8
Layer_1
 62
7
100
AcDbSpline
 70
8
 71
3
 72
8
 73
4
 74
0
 40
0
 40
0
 40
0
 40
0
 40
1
 40
1
 40
1
 40
1
 10
5.743276
 20
4.295635
 30
0.0
 10
5.742907
 20
4.308390
 30
0.0
 10
5.731937
 20
4.286847
 30
0.0
 10
5.714929
 20
4.248239
 30
0.0
  0
SPLINE
  5
26b
100
AcDbEntity
  8
Layer_1
 62
7
100
AcDbSpline
 70
8
 71
3
 72
8
 73
4
 74
0
 40
0
 40
0
 40
0
 40
0
 40
1
 40
1
 40
1
 40
1
 10
5.714929
 20
4.248239
 30
0.0
 10
5.679780
 20
4.156992
 30
0.0
 10
5.639244
 20
4.118186
 30
0.0
 10
5.494110
 20
4.037058
 30
0.0
  0
SPLINE
  5
26c
100
AcDbEntity
  8
Layer_1
 62
7
100
AcDbSpline
 70
8
 71
3
 72
8
 73
4
 74
0
 40
0
 40
0
 40
0
 40
0
 40
1
 40
1
 40
1
 40
1
 10
5.494110
 20
4.037058
 30
0.0
 10
5.371654
 20
3.968488
 30
0.0
 10
5.286331
 20
3.903320
 30
0.0
 10
5.286331
 20
3.878120
 30
0.0
  0
SPLINE
  5
26d
100
AcDbEntity
  8
Layer_1
 62
7
100
AcDbSpline
 70
8
 71
3
 72
8
 73
4
 74
0
 40
0
 40
0
 40
0
 40
0
 40
1
 40
1
 40
1
 40
1
 10
5.286331
 20
3.878120
 30
0.0
 10
5.286331
 20
3.854875
 30
0.0
 10
5.328850
 20
3.814623
 30
0.0
 10
5.353512
 20
3.814623
 30
0.0
  0
SPLINE
  5
26e
100
AcDbEntity
  8
Layer_1
 62
7
100
AcDbSpline
 70
8
 71
3
 72
8
 73
4
 74
0
 40
0
 40
0
 40
0
 40
0
 40
1
 40
1
 40
1
 40
1
 10
5.353512
 20
3.814623
 30
0.0
 10
5.364850
 20
3.814623
 30
0.0
 10
5.385543
 20
3.825112
 30
0.0
 10
5.396882
 20
3.838151
 30
0.0
  0
LWPOLYLINE
  5
26f
100
AcDbEntity
  8
Layer_1
 62
7
100
AcDbPolyline
 90
2
 70
0
 10
4.478939
 20
3.763458
 30
0.0
 10
4.479789
 20
3.763685
 30
0.0
  0
SPLINE
  5
270
100
AcDbEntity
  8
Layer_1
 62
7
100
AcDbSpline
 70
8
 71
3
 72
8
 73
4
 74
0
 40
0
 40
0
 40
0
 40
0
 40
1
 40
1
 40
1
 40
1
 10
5.303055
 20
4.199687
 30
0.0
 10
5.325732
 20
4.210743
 30
0.0
 10
5.336787
 20
4.225483
 30
0.0
 10
5.331402
 20
4.237076
 30
0.0
  0
SPLINE
  5
271
100
AcDbEntity
  8
Layer_1
 62
7
100
AcDbSpline
 70
8
 71
3
 72
8
 73
4
 74
0
 40
0
 40
0
 40
0
 40
0
 40
1
 40
1
 40
1
 40
1
 10
5.331402
 20
4.237076
 30
0.0
 10
5.325732
 20
4.247565
 30
0.0
 10
5.337071
 20
4.262305
 30
0.0
 10
5.351244
 20
4.270157
 30
0.0
  0
SPLINE
  5
272
100
AcDbEntity
  8
Layer_1
 62
7
100
AcDbSpline
 70
8
 71
3
 72
8
 73
4
 74
0
 40
0
 40
0
 40
0
 40
0
 40
1
 40
1
 40
1
 40
1
 10
5.351244
 20
4.270157
 30
0.0
 10
5.365417
 20
4.278094
 30
0.0
 10
5.376756
 20
4.298503
 30
0.0
 10
5.376756
 20
4.318232
 30
0.0
  0
SPLINE
  5
273
100
AcDbEntity
  8
Layer_1
 62
7
100
AcDbSpline
 70
8
 71
3
 72
8
 73
4
 74
0
 40
0
 40
0
 40
0
 40
0
 40
1
 40
1
 40
1
 40
1
 10
5.376756
 20
4.318232
 30
0.0
 10
5.376756
 20
4.352135
 30
0.0
 10
5.376614
 20
4.352106
 30
0.0
 10
5.342457
 20
4.308595
 30
0.0
  0
SPLINE
  5
274
100
AcDbEntity
  8
Layer_1
 62
7
100
AcDbSpline
 70
8
 71
3
 72
8
 73
4
 74
0
 40
0
 40
0
 40
0
 40
0
 40
1
 40
1
 40
1
 40
1
 10
5.342457
 20
4.308595
 30
0.0
 10
5.322614
 20
4.284783
 30
0.0
 10
5.281228
 20
4.241924
 30
0.0
 10
5.248063
 20
4.213832
 30
0.0
  0
SPLINE
  5
275
100
AcDbEntity
  8
Layer_1
 62
7
100
AcDbSpline
 70
8
 71
3
 72
8
 73
4
 74
0
 40
0
 40
0
 40
0
 40
0
 40
1
 40
1
 40
1
 40
1
 10
5.248063
 20
4.213832
 30
0.0
 10
5.192220
 20
4.165983
 30
0.0
 10
5.190803
 20
4.163319
 30
0.0
 10
5.225386
 20
4.172021
 30
0.0
  0
SPLINE
  5
276
100
AcDbEntity
  8
Layer_1
 62
7
100
AcDbSpline
 70
8
 71
3
 72
8
 73
4
 74
0
 40
0
 40
0
 40
0
 40
0
 40
1
 40
1
 40
1
 40
1
 10
5.225386
 20
4.172021
 30
0.0
 10
5.248063
 20
4.177407
 30
0.0
 10
5.280661
 20
4.189596
 30
0.0
 10
5.300787
 20
4.199517
 30
0.0
  0
LWPOLYLINE
  5
277
100
AcDbEntity
  8
Layer_1
 62
7
100
AcDbPolyline
 90
2
 70
0
 10
5.396882
 20
3.838151
 30
0.0
 10
5.397449
 20
3.838151
 30
0.0
  0
SPLINE
  5
278
100
AcDbEntity
  8
Layer_1
 62
7
100
AcDbSpline
 70
8
 71
3
 72
8
 73
4
 74
0
 40
0
 40
0
 40
0
 40
0
 40
1
 40
1
 40
1
 40
1
 10
4.550003
 20
4.219530
 30
0.0
 10
4.524491
 20
4.242491
 30
0.0
 10
4.507200
 20
4.267350
 30
0.0
 10
4.507200
 20
4.274579
 30
0.0
  0
SPLINE
  5
279
100
AcDbEntity
  8
Layer_1
 62
7
100
AcDbSpline
 70
8
 71
3
 72
8
 73
4
 74
0
 40
0
 40
0
 40
0
 40
0
 40
1
 40
1
 40
1
 40
1
 10
4.507200
 20
4.274579
 30
0.0
 10
4.507200
 20
4.281665
 30
0.0
 10
4.495861
 20
4.303719
 30
0.0
 10
4.481688
 20
4.323391
 30
0.0
  0
SPLINE
  5
27a
100
AcDbEntity
  8
Layer_1
 62
7
100
AcDbSpline
 70
8
 71
3
 72
8
 73
4
 74
0
 40
0
 40
0
 40
0
 40
0
 40
1
 40
1
 40
1
 40
1
 10
4.481688
 20
4.323391
 30
0.0
 10
4.470350
 20
4.342950
 30
0.0
 10
4.443987
 20
4.395590
 30
0.0
 10
4.427546
 20
4.440207
 30
0.0
  0
SPLINE
  5
27b
100
AcDbEntity
  8
Layer_1
 62
7
100
AcDbSpline
 70
8
 71
3
 72
8
 73
4
 74
0
 40
0
 40
0
 40
0
 40
0
 40
1
 40
1
 40
1
 40
1
 10
4.427546
 20
4.440207
 30
0.0
 10
4.399200
 20
4.518642
 30
0.0
 10
4.333153
 20
4.618024
 30
0.0
 10
4.332302
 20
4.584632
 30
0.0
  0
SPLINE
  5
27c
100
AcDbEntity
  8
Layer_1
 62
7
100
AcDbSpline
 70
8
 71
3
 72
8
 73
4
 74
0
 40
0
 40
0
 40
0
 40
0
 40
1
 40
1
 40
1
 40
1
 10
4.332302
 20
4.584632
 30
0.0
 10
4.332047
 20
4.575561
 30
0.0
 10
4.343641
 20
4.546705
 30
0.0
 10
4.357814
 20
4.520371
 30
0.0
  0
SPLINE
  5
27d
100
AcDbEntity
  8
Layer_1
 62
7
100
AcDbSpline
 70
8
 71
3
 72
8
 73
4
 74
0
 40
0
 40
0
 40
0
 40
0
 40
1
 40
1
 40
1
 40
1
 10
4.357814
 20
4.520371
 30
0.0
 10
4.371987
 20
4.494009
 30
0.0
 10
4.386161
 20
4.461552
 30
0.0
 10
4.386161
 20
4.448116
 30
0.0
  0
SPLINE
  5
27e
100
AcDbEntity
  8
Layer_1
 62
7
100
AcDbSpline
 70
8
 71
3
 72
8
 73
4
 74
0
 40
0
 40
0
 40
0
 40
0
 40
1
 40
1
 40
1
 40
1
 10
4.386161
 20
4.448116
 30
0.0
 10
4.386161
 20
4.434793
 30
0.0
 10
4.397499
 20
4.412909
 30
0.0
 10
4.414507
 20
4.399672
 30
0.0
  0
SPLINE
  5
27f
100
AcDbEntity
  8
Layer_1
 62
7
100
AcDbSpline
 70
8
 71
3
 72
8
 73
4
 74
0
 40
0
 40
0
 40
0
 40
0
 40
1
 40
1
 40
1
 40
1
 10
4.414507
 20
4.399672
 30
0.0
 10
4.428680
 20
4.386632
 30
0.0
 10
4.440019
 20
4.370532
 30
0.0
 10
4.434350
 20
4.364380
 30
0.0
  0
SPLINE
  5
280
100
AcDbEntity
  8
Layer_1
 62
7
100
AcDbSpline
 70
8
 71
3
 72
8
 73
4
 74
0
 40
0
 40
0
 40
0
 40
0
 40
1
 40
1
 40
1
 40
1
 10
4.434350
 20
4.364380
 30
0.0
 10
4.425846
 20
4.351341
 30
0.0
 10
4.465247
 20
4.288383
 30
0.0
 10
4.498980
 20
4.256522
 30
0.0
  0
SPLINE
  5
281
100
AcDbEntity
  8
Layer_1
 62
7
100
AcDbSpline
 70
8
 71
3
 72
8
 73
4
 74
0
 40
0
 40
0
 40
0
 40
0
 40
1
 40
1
 40
1
 40
1
 10
4.498980
 20
4.256522
 30
0.0
 10
4.510318
 20
4.244333
 30
0.0
 10
4.521657
 20
4.225341
 30
0.0
 10
4.513153
 20
4.214002
 30
0.0
  0
SPLINE
  5
282
100
AcDbEntity
  8
Layer_1
 62
7
100
AcDbSpline
 70
8
 71
3
 72
8
 73
4
 74
0
 40
0
 40
0
 40
0
 40
0
 40
1
 40
1
 40
1
 40
1
 10
4.513153
 20
4.214002
 30
0.0
 10
4.507483
 20
4.200963
 30
0.0
 10
4.514287
 20
4.191042
 30
0.0
 10
4.527326
 20
4.187073
 30
0.0
  0
SPLINE
  5
283
100
AcDbEntity
  8
Layer_1
 62
7
100
AcDbSpline
 70
8
 71
3
 72
8
 73
4
 74
0
 40
0
 40
0
 40
0
 40
0
 40
1
 40
1
 40
1
 40
1
 10
4.527326
 20
4.187073
 30
0.0
 10
4.584019
 20
4.172617
 30
0.0
 10
4.588554
 20
4.179703
 30
0.0
 10
4.550003
 20
4.219530
 30
0.0
  0
LWPOLYLINE
  5
284
100
AcDbEntity
  8
Layer_1
 62
7
100
AcDbPolyline
 90
2
 70
0
 10
5.300787
 20
4.199517
 30
0.0
 10
5.303055
 20
4.199687
 30
0.0
  0
SPLINE
  5
285
100
AcDbEntity
  8
Layer_1
 62
7
100
AcDbSpline
 70
8
 71
3
 72
8
 73
4
 74
0
 40
0
 40
0
 40
0
 40
0
 40
1
 40
1
 40
1
 40
1
 10
4.608680
 20
4.254963
 30
0.0
 10
4.600176
 20
4.274239
 30
0.0
 10
4.597342
 20
4.274522
 30
0.0
 10
4.586003
 20
4.258365
 30
0.0
  0
SPLINE
  5
286
100
AcDbEntity
  8
Layer_1
 62
7
100
AcDbSpline
 70
8
 71
3
 72
8
 73
4
 74
0
 40
0
 40
0
 40
0
 40
0
 40
1
 40
1
 40
1
 40
1
 10
4.586003
 20
4.258365
 30
0.0
 10
4.577499
 20
4.246176
 30
0.0
 10
4.580334
 20
4.232002
 30
0.0
 10
4.588838
 20
4.220324
 30
0.0
  0
SPLINE
  5
287
100
AcDbEntity
  8
Layer_1
 62
7
100
AcDbSpline
 70
8
 71
3
 72
8
 73
4
 74
0
 40
0
 40
0
 40
0
 40
0
 40
1
 40
1
 40
1
 40
1
 10
4.588838
 20
4.220324
 30
0.0
 10
4.608680
 20
4.197646
 30
0.0
 10
4.619735
 20
4.220740
 30
0.0
 10
4.603011
 20
4.255020
 30
0.0
  0
LWPOLYLINE
  5
288
100
AcDbEntity
  8
Layer_1
 62
7
100
AcDbPolyline
 90
1
 70
1
 10
4.550003
 20
4.219530
 30
0.0
  0
SPLINE
  5
289
100
AcDbEntity
  8
Layer_1
 62
7
100
AcDbSpline
 70
8
 71
3
 72
8
 73
4
 74
0
 40
0
 40
0
 40
0
 40
0
 40
1
 40
1
 40
1
 40
1
 10
5.206252
 20
4.255737
 30
0.0
 10
5.206252
 20
4.272461
 30
0.0
 10
5.203417
 20
4.271611
 30
0.0
 10
5.186409
 20
4.250635
 30
0.0
  0
SPLINE
  5
28a
100
AcDbEntity
  8
Layer_1
 62
7
100
AcDbSpline
 70
8
 71
3
 72
8
 73
4
 74
0
 40
0
 40
0
 40
0
 40
0
 40
1
 40
1
 40
1
 40
1
 10
5.186409
 20
4.250635
 30
0.0
 10
5.160898
 20
4.216477
 30
0.0
 10
5.160898
 20
4.196549
 30
0.0
 10
5.185984
 20
4.217838
 30
0.0
  0
SPLINE
  5
28b
100
AcDbEntity
  8
Layer_1
 62
7
100
AcDbSpline
 70
8
 71
3
 72
8
 73
4
 74
0
 40
0
 40
0
 40
0
 40
0
 40
1
 40
1
 40
1
 40
1
 10
5.185984
 20
4.217838
 30
0.0
 10
5.197323
 20
4.227192
 30
0.0
 10
5.205827
 20
4.244200
 30
0.0
 10
5.205827
 20
4.255652
 30
0.0
  0
LWPOLYLINE
  5
28c
100
AcDbEntity
  8
Layer_1
 62
7
100
AcDbPolyline
 90
2
 70
0
 10
4.603011
 20
4.255020
 30
0.0
 10
4.608680
 20
4.254963
 30
0.0
  0
SPLINE
  5
28d
100
AcDbEntity
  8
Layer_1
 62
7
100
AcDbSpline
 70
8
 71
3
 72
8
 73
4
 74
0
 40
0
 40
0
 40
0
 40
0
 40
1
 40
1
 40
1
 40
1
 10
4.542548
 20
4.320905
 30
0.0
 10
4.531209
 20
4.341882
 30
0.0
 10
4.519871
 20
4.350981
 30
0.0
 10
4.519871
 20
4.341315
 30
0.0
  0
SPLINE
  5
28e
100
AcDbEntity
  8
Layer_1
 62
7
100
AcDbSpline
 70
8
 71
3
 72
8
 73
4
 74
0
 40
0
 40
0
 40
0
 40
0
 40
1
 40
1
 40
1
 40
1
 10
4.519871
 20
4.341315
 30
0.0
 10
4.519162
 20
4.318071
 30
0.0
 10
4.548217
 20
4.267416
 30
0.0
 10
4.555020
 20
4.276033
 30
0.0
  0
SPLINE
  5
28f
100
AcDbEntity
  8
Layer_1
 62
7
100
AcDbSpline
 70
8
 71
3
 72
8
 73
4
 74
0
 40
0
 40
0
 40
0
 40
0
 40
1
 40
1
 40
1
 40
1
 10
4.555020
 20
4.276033
 30
0.0
 10
4.557855
 20
4.279718
 30
0.0
 10
4.552186
 20
4.299844
 30
0.0
 10
4.540847
 20
4.320877
 30
0.0
  0
LWPOLYLINE
  5
290
100
AcDbEntity
  8
Layer_1
 62
7
100
AcDbPolyline
 90
2
 70
0
 10
5.205827
 20
4.255652
 30
0.0
 10
5.206252
 20
4.255737
 30
0.0
  0
SPLINE
  5
291
100
AcDbEntity
  8
Layer_1
 62
7
100
AcDbSpline
 70
8
 71
3
 72
8
 73
4
 74
0
 40
0
 40
0
 40
0
 40
0
 40
1
 40
1
 40
1
 40
1
 10
5.286416
 20
4.297661
 30
0.0
 10
5.309093
 20
4.337658
 30
0.0
 10
5.300589
 20
4.345482
 30
0.0
 10
5.275077
 20
4.318638
 30
0.0
  0
SPLINE
  5
292
100
AcDbEntity
  8
Layer_1
 62
7
100
AcDbSpline
 70
8
 71
3
 72
8
 73
4
 74
0
 40
0
 40
0
 40
0
 40
0
 40
1
 40
1
 40
1
 40
1
 10
5.275077
 20
4.318638
 30
0.0
 10
5.246731
 20
4.292559
 30
0.0
 10
5.239928
 20
4.271583
 30
0.0
 10
5.260904
 20
4.271583
 30
0.0
  0
SPLINE
  5
293
100
AcDbEntity
  8
Layer_1
 62
7
100
AcDbSpline
 70
8
 71
3
 72
8
 73
4
 74
0
 40
0
 40
0
 40
0
 40
0
 40
1
 40
1
 40
1
 40
1
 10
5.260904
 20
4.271583
 30
0.0
 10
5.266573
 20
4.271583
 30
0.0
 10
5.280746
 20
4.283488
 30
0.0
 10
5.289250
 20
4.297661
 30
0.0
  0
LWPOLYLINE
  5
294
100
AcDbEntity
  8
Layer_1
 62
7
100
AcDbPolyline
 90
2
 70
0
 10
4.540847
 20
4.320877
 30
0.0
 10
4.542548
 20
4.320905
 30
0.0
  0
SPLINE
  5
295
100
AcDbEntity
  8
Layer_1
 62
7
100
AcDbSpline
 70
8
 71
3
 72
8
 73
4
 74
0
 40
0
 40
0
 40
0
 40
0
 40
1
 40
1
 40
1
 40
1
 10
5.460746
 20
4.510090
 30
0.0
 10
5.492494
 20
4.614858
 30
0.0
 10
5.489093
 20
4.638386
 30
0.0
 10
5.455077
 20
4.544587
 30
0.0
  0
SPLINE
  5
296
100
AcDbEntity
  8
Layer_1
 62
7
100
AcDbSpline
 70
8
 71
3
 72
8
 73
4
 74
0
 40
0
 40
0
 40
0
 40
0
 40
1
 40
1
 40
1
 40
1
 10
5.455077
 20
4.544587
 30
0.0
 10
5.416243
 20
4.434660
 30
0.0
 10
5.408872
 20
4.405179
 30
0.0
 10
5.421628
 20
4.413031
 30
0.0
  0
SPLINE
  5
297
100
AcDbEntity
  8
Layer_1
 62
7
100
AcDbSpline
 70
8
 71
3
 72
8
 73
4
 74
0
 40
0
 40
0
 40
0
 40
0
 40
1
 40
1
 40
1
 40
1
 10
5.421628
 20
4.413031
 30
0.0
 10
5.427298
 20
4.417000
 30
0.0
 10
5.447140
 20
4.460823
 30
0.0
 10
5.460463
 20
4.510118
 30
0.0
  0
LWPOLYLINE
  5
298
100
AcDbEntity
  8
Layer_1
 62
7
100
AcDbPolyline
 90
2
 70
0
 10
5.289250
 20
4.297661
 30
0.0
 10
5.286416
 20
4.297661
 30
0.0
  0
SPLINE
  5
299
100
AcDbEntity
  8
Layer_1
 62
7
100
AcDbSpline
 70
8
 71
3
 72
8
 73
4
 74
0
 40
0
 40
0
 40
0
 40
0
 40
1
 40
1
 40
1
 40
1
 10
4.010145
 20
4.486846
 30
0.0
 10
3.987468
 20
4.540335
 30
0.0
 10
3.978397
 20
4.530981
 30
0.0
 10
3.998806
 20
4.474940
 30
0.0
  0
SPLINE
  5
29a
100
AcDbEntity
  8
Layer_1
 62
7
100
AcDbSpline
 70
8
 71
3
 72
8
 73
4
 74
0
 40
0
 40
0
 40
0
 40
0
 40
1
 40
1
 40
1
 40
1
 10
3.998806
 20
4.474940
 30
0.0
 10
4.007310
 20
4.451129
 30
0.0
 10
4.018649
 20
4.434915
 30
0.0
 10
4.021483
 20
4.438742
 30
0.0
  0
SPLINE
  5
29b
100
AcDbEntity
  8
Layer_1
 62
7
100
AcDbSpline
 70
8
 71
3
 72
8
 73
4
 74
0
 40
0
 40
0
 40
0
 40
0
 40
1
 40
1
 40
1
 40
1
 10
4.021483
 20
4.438742
 30
0.0
 10
4.024318
 20
4.442427
 30
0.0
 10
4.020775
 20
4.464253
 30
0.0
 10
4.012980
 20
4.486902
 30
0.0
  0
LWPOLYLINE
  5
29c
100
AcDbEntity
  8
Layer_1
 62
7
100
AcDbPolyline
 90
2
 70
0
 10
5.460463
 20
4.510118
 30
0.0
 10
5.460746
 20
4.510090
 30
0.0
  0
SPLINE
  5
29d
100
AcDbEntity
  8
Layer_1
 62
7
100
AcDbSpline
 70
8
 71
3
 72
8
 73
4
 74
0
 40
0
 40
0
 40
0
 40
0
 40
1
 40
1
 40
1
 40
1
 10
5.393055
 20
4.476641
 30
0.0
 10
5.404394
 20
4.516609
 30
0.0
 10
5.404394
 20
4.518112
 30
0.0
 10
5.387386
 20
4.494216
 30
0.0
  0
SPLINE
  5
29e
100
AcDbEntity
  8
Layer_1
 62
7
100
AcDbSpline
 70
8
 71
3
 72
8
 73
4
 74
0
 40
0
 40
0
 40
0
 40
0
 40
1
 40
1
 40
1
 40
1
 10
5.387386
 20
4.494216
 30
0.0
 10
5.376047
 20
4.480042
 30
0.0
 10
5.367543
 20
4.460228
 30
0.0
 10
5.367543
 20
4.450562
 30
0.0
  0
SPLINE
  5
29f
100
AcDbEntity
  8
Layer_1
 62
7
100
AcDbSpline
 70
8
 71
3
 72
8
 73
4
 74
0
 40
0
 40
0
 40
0
 40
0
 40
1
 40
1
 40
1
 40
1
 10
5.367543
 20
4.450562
 30
0.0
 10
5.367543
 20
4.420486
 30
0.0
 10
5.376047
 20
4.431003
 30
0.0
 10
5.393055
 20
4.476641
 30
0.0
  0
LWPOLYLINE
  5
2a0
100
AcDbEntity
  8
Layer_1
 62
7
100
AcDbPolyline
 90
2
 70
0
 10
4.012980
 20
4.486902
 30
0.0
 10
4.010145
 20
4.486846
 30
0.0
  0
SPLINE
  5
2a1
100
AcDbEntity
  8
Layer_1
 62
7
100
AcDbSpline
 70
8
 71
3
 72
8
 73
4
 74
0
 40
0
 40
0
 40
0
 40
0
 40
1
 40
1
 40
1
 40
1
 10
5.810797
 20
4.580814
 30
0.0
 10
5.810797
 20
4.598672
 30
0.0
 10
5.809351
 20
4.598672
 30
0.0
 10
5.799458
 20
4.580814
 30
0.0
  0
SPLINE
  5
2a2
100
AcDbEntity
  8
Layer_1
 62
7
100
AcDbSpline
 70
8
 71
3
 72
8
 73
4
 74
0
 40
0
 40
0
 40
0
 40
0
 40
1
 40
1
 40
1
 40
1
 10
5.799458
 20
4.580814
 30
0.0
 10
5.793789
 20
4.569759
 30
0.0
 10
5.788120
 20
4.551674
 30
0.0
 10
5.788120
 20
4.540505
 30
0.0
  0
SPLINE
  5
2a3
100
AcDbEntity
  8
Layer_1
 62
7
100
AcDbSpline
 70
8
 71
3
 72
8
 73
4
 74
0
 40
0
 40
0
 40
0
 40
0
 40
1
 40
1
 40
1
 40
1
 10
5.788120
 20
4.540505
 30
0.0
 10
5.788120
 20
4.522647
 30
0.0
 10
5.789565
 20
4.522647
 30
0.0
 10
5.799458
 20
4.540505
 30
0.0
  0
SPLINE
  5
2a4
100
AcDbEntity
  8
Layer_1
 62
7
100
AcDbSpline
 70
8
 71
3
 72
8
 73
4
 74
0
 40
0
 40
0
 40
0
 40
0
 40
1
 40
1
 40
1
 40
1
 10
5.799458
 20
4.540505
 30
0.0
 10
5.805128
 20
4.551561
 30
0.0
 10
5.810797
 20
4.569646
 30
0.0
 10
5.810797
 20
4.580814
 30
0.0
  0
LWPOLYLINE
  5
2a5
100
AcDbEntity
  8
Layer_1
 62
7
100
AcDbPolyline
 90
1
 70
1
 10
5.393055
 20
4.476641
 30
0.0
  0
LWPOLYLINE
  5
2a6
100
AcDbEntity
  8
Layer_1
 62
7
100
AcDbPolyline
 90
1
 70
1
 10
5.810797
 20
4.580814
 30
0.0
  0
ENDSEC
  0
SECTION
  2
OBJECTS
  0
DICTIONARY
  5
C
330
0
100
AcDbDictionary
  3
ACAD_GROUP
350
D
  3
ACAD_MLINESTYLE
350
17
  0
DICTIONARY
  5
D
330
C
100
AcDbDictionary
  0
DICTIONARY
  5
1A
330
C
100
AcDbDictionary
  0
DICTIONARY
  5
17
330
C
100
AcDbDictionary
  3
STANDARD
350
18
  0
DICTIONARY
  5
19
330
C
100
AcDbDictionary
  0
ENDSEC
  0
EOF
