%TF.GenerationSoftware,KiCad,Pcbnew,5.0.2-bee76a0~70~ubuntu18.04.1*%
%TF.CreationDate,2021-01-16T21:03:51-05:00*%
%TF.ProjectId,dippy,64697070-792e-46b6-9963-61645f706362,rev?*%
%TF.SameCoordinates,Original*%
%TF.FileFunction,Soldermask,Bot*%
%TF.FilePolarity,Negative*%
%FSLAX46Y46*%
G04 Gerber Fmt 4.6, Leading zero omitted, Abs format (unit mm)*
G04 Created by KiCad (PCBNEW 5.0.2-bee76a0~70~ubuntu18.04.1) date Sat 16 Jan 2021 09:03:51 PM EST*
%MOMM*%
%LPD*%
G01*
G04 APERTURE LIST*
%ADD10C,0.100000*%
G04 APERTURE END LIST*
D10*
G36*
X-87481567Y-73234893D02*
X-87391343Y-73252839D01*
X-87285733Y-73296585D01*
X-87136379Y-73358449D01*
X-86906911Y-73511774D01*
X-86711774Y-73706911D01*
X-86558449Y-73936379D01*
X-86505096Y-74065185D01*
X-86458457Y-74177779D01*
X-86452839Y-74191344D01*
X-86399000Y-74462012D01*
X-86399000Y-74737988D01*
X-86434893Y-74918433D01*
X-86452839Y-75008657D01*
X-86453816Y-75011015D01*
X-86558449Y-75263621D01*
X-86711774Y-75493089D01*
X-86906911Y-75688226D01*
X-87136379Y-75841551D01*
X-87285733Y-75903415D01*
X-87391343Y-75947161D01*
X-87481567Y-75965107D01*
X-87662012Y-76001000D01*
X-87937988Y-76001000D01*
X-88118433Y-75965107D01*
X-88208657Y-75947161D01*
X-88314267Y-75903415D01*
X-88463621Y-75841551D01*
X-88693089Y-75688226D01*
X-88888226Y-75493089D01*
X-89041551Y-75263621D01*
X-89146184Y-75011015D01*
X-89147161Y-75008657D01*
X-89165107Y-74918433D01*
X-89201000Y-74737988D01*
X-89201000Y-74462012D01*
X-89147161Y-74191344D01*
X-89141542Y-74177779D01*
X-89094904Y-74065185D01*
X-89041551Y-73936379D01*
X-88888226Y-73706911D01*
X-88693089Y-73511774D01*
X-88463621Y-73358449D01*
X-88314267Y-73296585D01*
X-88208657Y-73252839D01*
X-88118433Y-73234893D01*
X-87937988Y-73199000D01*
X-87662012Y-73199000D01*
X-87481567Y-73234893D01*
X-87481567Y-73234893D01*
G37*
G36*
X-128206567Y-73234893D02*
X-128116343Y-73252839D01*
X-128010733Y-73296585D01*
X-127861379Y-73358449D01*
X-127631911Y-73511774D01*
X-127436774Y-73706911D01*
X-127283449Y-73936379D01*
X-127230096Y-74065185D01*
X-127183457Y-74177779D01*
X-127177839Y-74191344D01*
X-127124000Y-74462012D01*
X-127124000Y-74737988D01*
X-127159893Y-74918433D01*
X-127177839Y-75008657D01*
X-127178816Y-75011015D01*
X-127283449Y-75263621D01*
X-127436774Y-75493089D01*
X-127631911Y-75688226D01*
X-127861379Y-75841551D01*
X-128010733Y-75903415D01*
X-128116343Y-75947161D01*
X-128206567Y-75965107D01*
X-128387012Y-76001000D01*
X-128662988Y-76001000D01*
X-128843433Y-75965107D01*
X-128933657Y-75947161D01*
X-129039267Y-75903415D01*
X-129188621Y-75841551D01*
X-129418089Y-75688226D01*
X-129613226Y-75493089D01*
X-129766551Y-75263621D01*
X-129871184Y-75011015D01*
X-129872161Y-75008657D01*
X-129890107Y-74918433D01*
X-129926000Y-74737988D01*
X-129926000Y-74462012D01*
X-129872161Y-74191344D01*
X-129866542Y-74177779D01*
X-129819904Y-74065185D01*
X-129766551Y-73936379D01*
X-129613226Y-73706911D01*
X-129418089Y-73511774D01*
X-129188621Y-73358449D01*
X-129039267Y-73296585D01*
X-128933657Y-73252839D01*
X-128843433Y-73234893D01*
X-128662988Y-73199000D01*
X-128387012Y-73199000D01*
X-128206567Y-73234893D01*
X-128206567Y-73234893D01*
G37*
G36*
X-123576772Y-73531703D02*
X-123421900Y-73595853D01*
X-123282519Y-73688985D01*
X-123163985Y-73807519D01*
X-123070853Y-73946900D01*
X-123006703Y-74101772D01*
X-122974000Y-74266184D01*
X-122974000Y-74433816D01*
X-123006703Y-74598228D01*
X-123070853Y-74753100D01*
X-123163985Y-74892481D01*
X-123282519Y-75011015D01*
X-123421900Y-75104147D01*
X-123576772Y-75168297D01*
X-123741184Y-75201000D01*
X-123908816Y-75201000D01*
X-124073228Y-75168297D01*
X-124228100Y-75104147D01*
X-124367481Y-75011015D01*
X-124486015Y-74892481D01*
X-124579147Y-74753100D01*
X-124643297Y-74598228D01*
X-124676000Y-74433816D01*
X-124676000Y-74266184D01*
X-124643297Y-74101772D01*
X-124579147Y-73946900D01*
X-124486015Y-73807519D01*
X-124367481Y-73688985D01*
X-124228100Y-73595853D01*
X-124073228Y-73531703D01*
X-123908816Y-73499000D01*
X-123741184Y-73499000D01*
X-123576772Y-73531703D01*
X-123576772Y-73531703D01*
G37*
G36*
X-118576772Y-73531703D02*
X-118421900Y-73595853D01*
X-118282519Y-73688985D01*
X-118163985Y-73807519D01*
X-118070853Y-73946900D01*
X-118006703Y-74101772D01*
X-117974000Y-74266184D01*
X-117974000Y-74433816D01*
X-118006703Y-74598228D01*
X-118070853Y-74753100D01*
X-118163985Y-74892481D01*
X-118282519Y-75011015D01*
X-118421900Y-75104147D01*
X-118576772Y-75168297D01*
X-118741184Y-75201000D01*
X-118908816Y-75201000D01*
X-119073228Y-75168297D01*
X-119228100Y-75104147D01*
X-119367481Y-75011015D01*
X-119486015Y-74892481D01*
X-119579147Y-74753100D01*
X-119643297Y-74598228D01*
X-119676000Y-74433816D01*
X-119676000Y-74266184D01*
X-119643297Y-74101772D01*
X-119579147Y-73946900D01*
X-119486015Y-73807519D01*
X-119367481Y-73688985D01*
X-119228100Y-73595853D01*
X-119073228Y-73531703D01*
X-118908816Y-73499000D01*
X-118741184Y-73499000D01*
X-118576772Y-73531703D01*
X-118576772Y-73531703D01*
G37*
G36*
X-92665000Y-74620000D02*
X-94467000Y-74620000D01*
X-94467000Y-72818000D01*
X-92665000Y-72818000D01*
X-92665000Y-74620000D01*
X-92665000Y-74620000D01*
G37*
G36*
X-95995558Y-72824518D02*
X-95929373Y-72831037D01*
X-95816147Y-72865384D01*
X-95759533Y-72882557D01*
X-95685725Y-72922009D01*
X-95603009Y-72966222D01*
X-95567271Y-72995552D01*
X-95465814Y-73078814D01*
X-95382552Y-73180271D01*
X-95353222Y-73216009D01*
X-95353221Y-73216011D01*
X-95269557Y-73372533D01*
X-95269557Y-73372534D01*
X-95218037Y-73542373D01*
X-95200641Y-73719000D01*
X-95218037Y-73895627D01*
X-95252384Y-74008853D01*
X-95269557Y-74065467D01*
X-95288963Y-74101772D01*
X-95353222Y-74221991D01*
X-95382552Y-74257729D01*
X-95465814Y-74359186D01*
X-95556752Y-74433816D01*
X-95603009Y-74471778D01*
X-95603011Y-74471779D01*
X-95759533Y-74555443D01*
X-95816147Y-74572616D01*
X-95929373Y-74606963D01*
X-95995557Y-74613481D01*
X-96061740Y-74620000D01*
X-96150260Y-74620000D01*
X-96216443Y-74613481D01*
X-96282627Y-74606963D01*
X-96395853Y-74572616D01*
X-96452467Y-74555443D01*
X-96608989Y-74471779D01*
X-96608991Y-74471778D01*
X-96655248Y-74433816D01*
X-96746186Y-74359186D01*
X-96829448Y-74257729D01*
X-96858778Y-74221991D01*
X-96923037Y-74101772D01*
X-96942443Y-74065467D01*
X-96959616Y-74008853D01*
X-96993963Y-73895627D01*
X-97011359Y-73719000D01*
X-96993963Y-73542373D01*
X-96942443Y-73372534D01*
X-96942443Y-73372533D01*
X-96858779Y-73216011D01*
X-96858778Y-73216009D01*
X-96829448Y-73180271D01*
X-96746186Y-73078814D01*
X-96644729Y-72995552D01*
X-96608991Y-72966222D01*
X-96526275Y-72922009D01*
X-96452467Y-72882557D01*
X-96395853Y-72865384D01*
X-96282627Y-72831037D01*
X-96216442Y-72824518D01*
X-96150260Y-72818000D01*
X-96061740Y-72818000D01*
X-95995558Y-72824518D01*
X-95995558Y-72824518D01*
G37*
G36*
X-115014557Y-72530519D02*
X-114948373Y-72537037D01*
X-114835147Y-72571384D01*
X-114778533Y-72588557D01*
X-114639913Y-72662652D01*
X-114622009Y-72672222D01*
X-114586271Y-72701552D01*
X-114484814Y-72784814D01*
X-114404600Y-72882557D01*
X-114372222Y-72922009D01*
X-114372221Y-72922011D01*
X-114288557Y-73078533D01*
X-114271384Y-73135147D01*
X-114237037Y-73248373D01*
X-114219641Y-73425000D01*
X-114237037Y-73601627D01*
X-114268975Y-73706914D01*
X-114288557Y-73771467D01*
X-114354922Y-73895625D01*
X-114372222Y-73927991D01*
X-114401552Y-73963729D01*
X-114484814Y-74065186D01*
X-114586271Y-74148448D01*
X-114622009Y-74177778D01*
X-114622011Y-74177779D01*
X-114778533Y-74261443D01*
X-114835147Y-74278616D01*
X-114948373Y-74312963D01*
X-115014558Y-74319482D01*
X-115080740Y-74326000D01*
X-115169260Y-74326000D01*
X-115235442Y-74319482D01*
X-115301627Y-74312963D01*
X-115414853Y-74278616D01*
X-115471467Y-74261443D01*
X-115627989Y-74177779D01*
X-115627991Y-74177778D01*
X-115663729Y-74148448D01*
X-115765186Y-74065186D01*
X-115848448Y-73963729D01*
X-115877778Y-73927991D01*
X-115895078Y-73895625D01*
X-115961443Y-73771467D01*
X-115981025Y-73706914D01*
X-116012963Y-73601627D01*
X-116030359Y-73425000D01*
X-116012963Y-73248373D01*
X-115978616Y-73135147D01*
X-115961443Y-73078533D01*
X-115877779Y-72922011D01*
X-115877778Y-72922009D01*
X-115845400Y-72882557D01*
X-115765186Y-72784814D01*
X-115663729Y-72701552D01*
X-115627991Y-72672222D01*
X-115610087Y-72662652D01*
X-115471467Y-72588557D01*
X-115414853Y-72571384D01*
X-115301627Y-72537037D01*
X-115235443Y-72530519D01*
X-115169260Y-72524000D01*
X-115080740Y-72524000D01*
X-115014557Y-72530519D01*
X-115014557Y-72530519D01*
G37*
G36*
X-109934557Y-72530519D02*
X-109868373Y-72537037D01*
X-109755147Y-72571384D01*
X-109698533Y-72588557D01*
X-109559913Y-72662652D01*
X-109542009Y-72672222D01*
X-109506271Y-72701552D01*
X-109404814Y-72784814D01*
X-109324600Y-72882557D01*
X-109292222Y-72922009D01*
X-109292221Y-72922011D01*
X-109208557Y-73078533D01*
X-109191384Y-73135147D01*
X-109157037Y-73248373D01*
X-109139641Y-73425000D01*
X-109157037Y-73601627D01*
X-109188975Y-73706914D01*
X-109208557Y-73771467D01*
X-109274922Y-73895625D01*
X-109292222Y-73927991D01*
X-109321552Y-73963729D01*
X-109404814Y-74065186D01*
X-109506271Y-74148448D01*
X-109542009Y-74177778D01*
X-109542011Y-74177779D01*
X-109698533Y-74261443D01*
X-109755147Y-74278616D01*
X-109868373Y-74312963D01*
X-109934558Y-74319482D01*
X-110000740Y-74326000D01*
X-110089260Y-74326000D01*
X-110155442Y-74319482D01*
X-110221627Y-74312963D01*
X-110334853Y-74278616D01*
X-110391467Y-74261443D01*
X-110547989Y-74177779D01*
X-110547991Y-74177778D01*
X-110583729Y-74148448D01*
X-110685186Y-74065186D01*
X-110768448Y-73963729D01*
X-110797778Y-73927991D01*
X-110815078Y-73895625D01*
X-110881443Y-73771467D01*
X-110901025Y-73706914D01*
X-110932963Y-73601627D01*
X-110950359Y-73425000D01*
X-110932963Y-73248373D01*
X-110898616Y-73135147D01*
X-110881443Y-73078533D01*
X-110797779Y-72922011D01*
X-110797778Y-72922009D01*
X-110765400Y-72882557D01*
X-110685186Y-72784814D01*
X-110583729Y-72701552D01*
X-110547991Y-72672222D01*
X-110530087Y-72662652D01*
X-110391467Y-72588557D01*
X-110334853Y-72571384D01*
X-110221627Y-72537037D01*
X-110155443Y-72530519D01*
X-110089260Y-72524000D01*
X-110000740Y-72524000D01*
X-109934557Y-72530519D01*
X-109934557Y-72530519D01*
G37*
G36*
X-107394557Y-72530519D02*
X-107328373Y-72537037D01*
X-107215147Y-72571384D01*
X-107158533Y-72588557D01*
X-107019913Y-72662652D01*
X-107002009Y-72672222D01*
X-106966271Y-72701552D01*
X-106864814Y-72784814D01*
X-106784600Y-72882557D01*
X-106752222Y-72922009D01*
X-106752221Y-72922011D01*
X-106668557Y-73078533D01*
X-106651384Y-73135147D01*
X-106617037Y-73248373D01*
X-106599641Y-73425000D01*
X-106617037Y-73601627D01*
X-106648975Y-73706914D01*
X-106668557Y-73771467D01*
X-106734922Y-73895625D01*
X-106752222Y-73927991D01*
X-106781552Y-73963729D01*
X-106864814Y-74065186D01*
X-106966271Y-74148448D01*
X-107002009Y-74177778D01*
X-107002011Y-74177779D01*
X-107158533Y-74261443D01*
X-107215147Y-74278616D01*
X-107328373Y-74312963D01*
X-107394558Y-74319482D01*
X-107460740Y-74326000D01*
X-107549260Y-74326000D01*
X-107615442Y-74319482D01*
X-107681627Y-74312963D01*
X-107794853Y-74278616D01*
X-107851467Y-74261443D01*
X-108007989Y-74177779D01*
X-108007991Y-74177778D01*
X-108043729Y-74148448D01*
X-108145186Y-74065186D01*
X-108228448Y-73963729D01*
X-108257778Y-73927991D01*
X-108275078Y-73895625D01*
X-108341443Y-73771467D01*
X-108361025Y-73706914D01*
X-108392963Y-73601627D01*
X-108410359Y-73425000D01*
X-108392963Y-73248373D01*
X-108358616Y-73135147D01*
X-108341443Y-73078533D01*
X-108257779Y-72922011D01*
X-108257778Y-72922009D01*
X-108225400Y-72882557D01*
X-108145186Y-72784814D01*
X-108043729Y-72701552D01*
X-108007991Y-72672222D01*
X-107990087Y-72662652D01*
X-107851467Y-72588557D01*
X-107794853Y-72571384D01*
X-107681627Y-72537037D01*
X-107615443Y-72530519D01*
X-107549260Y-72524000D01*
X-107460740Y-72524000D01*
X-107394557Y-72530519D01*
X-107394557Y-72530519D01*
G37*
G36*
X-112474557Y-72530519D02*
X-112408373Y-72537037D01*
X-112295147Y-72571384D01*
X-112238533Y-72588557D01*
X-112099913Y-72662652D01*
X-112082009Y-72672222D01*
X-112046271Y-72701552D01*
X-111944814Y-72784814D01*
X-111864600Y-72882557D01*
X-111832222Y-72922009D01*
X-111832221Y-72922011D01*
X-111748557Y-73078533D01*
X-111731384Y-73135147D01*
X-111697037Y-73248373D01*
X-111679641Y-73425000D01*
X-111697037Y-73601627D01*
X-111728975Y-73706914D01*
X-111748557Y-73771467D01*
X-111814922Y-73895625D01*
X-111832222Y-73927991D01*
X-111861552Y-73963729D01*
X-111944814Y-74065186D01*
X-112046271Y-74148448D01*
X-112082009Y-74177778D01*
X-112082011Y-74177779D01*
X-112238533Y-74261443D01*
X-112295147Y-74278616D01*
X-112408373Y-74312963D01*
X-112474558Y-74319482D01*
X-112540740Y-74326000D01*
X-112629260Y-74326000D01*
X-112695442Y-74319482D01*
X-112761627Y-74312963D01*
X-112874853Y-74278616D01*
X-112931467Y-74261443D01*
X-113087989Y-74177779D01*
X-113087991Y-74177778D01*
X-113123729Y-74148448D01*
X-113225186Y-74065186D01*
X-113308448Y-73963729D01*
X-113337778Y-73927991D01*
X-113355078Y-73895625D01*
X-113421443Y-73771467D01*
X-113441025Y-73706914D01*
X-113472963Y-73601627D01*
X-113490359Y-73425000D01*
X-113472963Y-73248373D01*
X-113438616Y-73135147D01*
X-113421443Y-73078533D01*
X-113337779Y-72922011D01*
X-113337778Y-72922009D01*
X-113305400Y-72882557D01*
X-113225186Y-72784814D01*
X-113123729Y-72701552D01*
X-113087991Y-72672222D01*
X-113070087Y-72662652D01*
X-112931467Y-72588557D01*
X-112874853Y-72571384D01*
X-112761627Y-72537037D01*
X-112695443Y-72530519D01*
X-112629260Y-72524000D01*
X-112540740Y-72524000D01*
X-112474557Y-72530519D01*
X-112474557Y-72530519D01*
G37*
G36*
X-104854557Y-72530519D02*
X-104788373Y-72537037D01*
X-104675147Y-72571384D01*
X-104618533Y-72588557D01*
X-104479913Y-72662652D01*
X-104462009Y-72672222D01*
X-104426271Y-72701552D01*
X-104324814Y-72784814D01*
X-104244600Y-72882557D01*
X-104212222Y-72922009D01*
X-104212221Y-72922011D01*
X-104128557Y-73078533D01*
X-104111384Y-73135147D01*
X-104077037Y-73248373D01*
X-104059641Y-73425000D01*
X-104077037Y-73601627D01*
X-104108975Y-73706914D01*
X-104128557Y-73771467D01*
X-104194922Y-73895625D01*
X-104212222Y-73927991D01*
X-104241552Y-73963729D01*
X-104324814Y-74065186D01*
X-104426271Y-74148448D01*
X-104462009Y-74177778D01*
X-104462011Y-74177779D01*
X-104618533Y-74261443D01*
X-104675147Y-74278616D01*
X-104788373Y-74312963D01*
X-104854558Y-74319482D01*
X-104920740Y-74326000D01*
X-105009260Y-74326000D01*
X-105075442Y-74319482D01*
X-105141627Y-74312963D01*
X-105254853Y-74278616D01*
X-105311467Y-74261443D01*
X-105467989Y-74177779D01*
X-105467991Y-74177778D01*
X-105503729Y-74148448D01*
X-105605186Y-74065186D01*
X-105688448Y-73963729D01*
X-105717778Y-73927991D01*
X-105735078Y-73895625D01*
X-105801443Y-73771467D01*
X-105821025Y-73706914D01*
X-105852963Y-73601627D01*
X-105870359Y-73425000D01*
X-105852963Y-73248373D01*
X-105818616Y-73135147D01*
X-105801443Y-73078533D01*
X-105717779Y-72922011D01*
X-105717778Y-72922009D01*
X-105685400Y-72882557D01*
X-105605186Y-72784814D01*
X-105503729Y-72701552D01*
X-105467991Y-72672222D01*
X-105450087Y-72662652D01*
X-105311467Y-72588557D01*
X-105254853Y-72571384D01*
X-105141627Y-72537037D01*
X-105075443Y-72530519D01*
X-105009260Y-72524000D01*
X-104920740Y-72524000D01*
X-104854557Y-72530519D01*
X-104854557Y-72530519D01*
G37*
G36*
X-101524000Y-74326000D02*
X-103326000Y-74326000D01*
X-103326000Y-72524000D01*
X-101524000Y-72524000D01*
X-101524000Y-74326000D01*
X-101524000Y-74326000D01*
G37*
G36*
X-120126335Y-70197622D02*
X-120052778Y-70204867D01*
X-119911214Y-70247810D01*
X-119780748Y-70317546D01*
X-119666394Y-70411394D01*
X-119572546Y-70525748D01*
X-119502810Y-70656214D01*
X-119459867Y-70797778D01*
X-119445367Y-70945000D01*
X-119459867Y-71092222D01*
X-119502810Y-71233786D01*
X-119572546Y-71364252D01*
X-119666394Y-71478606D01*
X-119780748Y-71572454D01*
X-119911214Y-71642190D01*
X-120052778Y-71685133D01*
X-120126335Y-71692378D01*
X-120163112Y-71696000D01*
X-120236888Y-71696000D01*
X-120273665Y-71692378D01*
X-120347222Y-71685133D01*
X-120488786Y-71642190D01*
X-120619252Y-71572454D01*
X-120733606Y-71478606D01*
X-120827454Y-71364252D01*
X-120897190Y-71233786D01*
X-120940133Y-71092222D01*
X-120954633Y-70945000D01*
X-120940133Y-70797778D01*
X-120897190Y-70656214D01*
X-120827454Y-70525748D01*
X-120733606Y-70411394D01*
X-120619252Y-70317546D01*
X-120488786Y-70247810D01*
X-120347222Y-70204867D01*
X-120273665Y-70197622D01*
X-120236888Y-70194000D01*
X-120163112Y-70194000D01*
X-120126335Y-70197622D01*
X-120126335Y-70197622D01*
G37*
G36*
X-97506335Y-70122622D02*
X-97432778Y-70129867D01*
X-97291214Y-70172810D01*
X-97160748Y-70242546D01*
X-97046394Y-70336394D01*
X-96952546Y-70450748D01*
X-96882810Y-70581214D01*
X-96839867Y-70722778D01*
X-96825367Y-70870000D01*
X-96839867Y-71017222D01*
X-96882810Y-71158786D01*
X-96952546Y-71289252D01*
X-97046394Y-71403606D01*
X-97160748Y-71497454D01*
X-97291214Y-71567190D01*
X-97432778Y-71610133D01*
X-97506335Y-71617378D01*
X-97543112Y-71621000D01*
X-97616888Y-71621000D01*
X-97653665Y-71617378D01*
X-97727222Y-71610133D01*
X-97868786Y-71567190D01*
X-97999252Y-71497454D01*
X-98113606Y-71403606D01*
X-98207454Y-71289252D01*
X-98277190Y-71158786D01*
X-98320133Y-71017222D01*
X-98334633Y-70870000D01*
X-98320133Y-70722778D01*
X-98277190Y-70581214D01*
X-98207454Y-70450748D01*
X-98113606Y-70336394D01*
X-97999252Y-70242546D01*
X-97868786Y-70172810D01*
X-97727222Y-70129867D01*
X-97653665Y-70122622D01*
X-97616888Y-70119000D01*
X-97543112Y-70119000D01*
X-97506335Y-70122622D01*
X-97506335Y-70122622D01*
G37*
G36*
X-99797996Y-69010544D02*
X-99710941Y-69027860D01*
X-99574268Y-69084472D01*
X-99574267Y-69084473D01*
X-99451262Y-69166662D01*
X-99346662Y-69271262D01*
X-99346660Y-69271265D01*
X-99264472Y-69394268D01*
X-99207860Y-69530941D01*
X-99179000Y-69676033D01*
X-99179000Y-69823967D01*
X-99207860Y-69969059D01*
X-99264472Y-70105732D01*
X-99339070Y-70217376D01*
X-99346662Y-70228738D01*
X-99451262Y-70333338D01*
X-99451265Y-70333340D01*
X-99574268Y-70415528D01*
X-99710941Y-70472140D01*
X-99797996Y-70489456D01*
X-99856031Y-70501000D01*
X-100003969Y-70501000D01*
X-100062004Y-70489456D01*
X-100149059Y-70472140D01*
X-100285732Y-70415528D01*
X-100408735Y-70333340D01*
X-100408738Y-70333338D01*
X-100513338Y-70228738D01*
X-100520930Y-70217376D01*
X-100595528Y-70105732D01*
X-100652140Y-69969059D01*
X-100681000Y-69823967D01*
X-100681000Y-69676033D01*
X-100652140Y-69530941D01*
X-100595528Y-69394268D01*
X-100513340Y-69271265D01*
X-100513338Y-69271262D01*
X-100408738Y-69166662D01*
X-100285733Y-69084473D01*
X-100285732Y-69084472D01*
X-100149059Y-69027860D01*
X-100062004Y-69010544D01*
X-100003969Y-68999000D01*
X-99856031Y-68999000D01*
X-99797996Y-69010544D01*
X-99797996Y-69010544D01*
G37*
G36*
X-127457188Y-68484624D02*
X-127293216Y-68552544D01*
X-127145646Y-68651147D01*
X-127020147Y-68776646D01*
X-126921544Y-68924216D01*
X-126853624Y-69088188D01*
X-126819000Y-69262259D01*
X-126819000Y-69439741D01*
X-126853624Y-69613812D01*
X-126921544Y-69777784D01*
X-127020147Y-69925354D01*
X-127145646Y-70050853D01*
X-127293216Y-70149456D01*
X-127457188Y-70217376D01*
X-127631259Y-70252000D01*
X-127808741Y-70252000D01*
X-127982812Y-70217376D01*
X-128146784Y-70149456D01*
X-128294354Y-70050853D01*
X-128419853Y-69925354D01*
X-128518456Y-69777784D01*
X-128586376Y-69613812D01*
X-128621000Y-69439741D01*
X-128621000Y-69262259D01*
X-128586376Y-69088188D01*
X-128518456Y-68924216D01*
X-128419853Y-68776646D01*
X-128294354Y-68651147D01*
X-128146784Y-68552544D01*
X-127982812Y-68484624D01*
X-127808741Y-68450000D01*
X-127631259Y-68450000D01*
X-127457188Y-68484624D01*
X-127457188Y-68484624D01*
G37*
G36*
X-122957188Y-68484624D02*
X-122793216Y-68552544D01*
X-122645646Y-68651147D01*
X-122520147Y-68776646D01*
X-122421544Y-68924216D01*
X-122353624Y-69088188D01*
X-122319000Y-69262259D01*
X-122319000Y-69439741D01*
X-122353624Y-69613812D01*
X-122421544Y-69777784D01*
X-122520147Y-69925354D01*
X-122645646Y-70050853D01*
X-122793216Y-70149456D01*
X-122957188Y-70217376D01*
X-123131259Y-70252000D01*
X-123308741Y-70252000D01*
X-123482812Y-70217376D01*
X-123646784Y-70149456D01*
X-123794354Y-70050853D01*
X-123919853Y-69925354D01*
X-124018456Y-69777784D01*
X-124086376Y-69613812D01*
X-124121000Y-69439741D01*
X-124121000Y-69262259D01*
X-124086376Y-69088188D01*
X-124018456Y-68924216D01*
X-123919853Y-68776646D01*
X-123794354Y-68651147D01*
X-123646784Y-68552544D01*
X-123482812Y-68484624D01*
X-123308741Y-68450000D01*
X-123131259Y-68450000D01*
X-122957188Y-68484624D01*
X-122957188Y-68484624D01*
G37*
G36*
X-90309000Y-69151000D02*
X-93011000Y-69151000D01*
X-93011000Y-66449000D01*
X-90309000Y-66449000D01*
X-90309000Y-69151000D01*
X-90309000Y-69151000D01*
G37*
G36*
X-112255557Y-67002519D02*
X-112189373Y-67009037D01*
X-112076147Y-67043384D01*
X-112019533Y-67060557D01*
X-111880913Y-67134652D01*
X-111863009Y-67144222D01*
X-111827271Y-67173552D01*
X-111725814Y-67256814D01*
X-111642552Y-67358271D01*
X-111613222Y-67394009D01*
X-111613221Y-67394011D01*
X-111529557Y-67550533D01*
X-111529557Y-67550534D01*
X-111478037Y-67720373D01*
X-111460641Y-67897000D01*
X-111478037Y-68073627D01*
X-111512384Y-68186853D01*
X-111529557Y-68243467D01*
X-111603652Y-68382087D01*
X-111613222Y-68399991D01*
X-111642552Y-68435729D01*
X-111725814Y-68537186D01*
X-111827271Y-68620448D01*
X-111863009Y-68649778D01*
X-111863011Y-68649779D01*
X-112019533Y-68733443D01*
X-112076147Y-68750616D01*
X-112189373Y-68784963D01*
X-112255557Y-68791481D01*
X-112321740Y-68798000D01*
X-112410260Y-68798000D01*
X-112476443Y-68791481D01*
X-112542627Y-68784963D01*
X-112655853Y-68750616D01*
X-112712467Y-68733443D01*
X-112868989Y-68649779D01*
X-112868991Y-68649778D01*
X-112904729Y-68620448D01*
X-113006186Y-68537186D01*
X-113089448Y-68435729D01*
X-113118778Y-68399991D01*
X-113128348Y-68382087D01*
X-113202443Y-68243467D01*
X-113219616Y-68186853D01*
X-113253963Y-68073627D01*
X-113271359Y-67897000D01*
X-113253963Y-67720373D01*
X-113202443Y-67550534D01*
X-113202443Y-67550533D01*
X-113118779Y-67394011D01*
X-113118778Y-67394009D01*
X-113089448Y-67358271D01*
X-113006186Y-67256814D01*
X-112904729Y-67173552D01*
X-112868991Y-67144222D01*
X-112851087Y-67134652D01*
X-112712467Y-67060557D01*
X-112655853Y-67043384D01*
X-112542627Y-67009037D01*
X-112476443Y-67002519D01*
X-112410260Y-66996000D01*
X-112321740Y-66996000D01*
X-112255557Y-67002519D01*
X-112255557Y-67002519D01*
G37*
G36*
X-109715557Y-67002519D02*
X-109649373Y-67009037D01*
X-109536147Y-67043384D01*
X-109479533Y-67060557D01*
X-109340913Y-67134652D01*
X-109323009Y-67144222D01*
X-109287271Y-67173552D01*
X-109185814Y-67256814D01*
X-109102552Y-67358271D01*
X-109073222Y-67394009D01*
X-109073221Y-67394011D01*
X-108989557Y-67550533D01*
X-108989557Y-67550534D01*
X-108938037Y-67720373D01*
X-108920641Y-67897000D01*
X-108938037Y-68073627D01*
X-108972384Y-68186853D01*
X-108989557Y-68243467D01*
X-109063652Y-68382087D01*
X-109073222Y-68399991D01*
X-109102552Y-68435729D01*
X-109185814Y-68537186D01*
X-109287271Y-68620448D01*
X-109323009Y-68649778D01*
X-109323011Y-68649779D01*
X-109479533Y-68733443D01*
X-109536147Y-68750616D01*
X-109649373Y-68784963D01*
X-109715557Y-68791481D01*
X-109781740Y-68798000D01*
X-109870260Y-68798000D01*
X-109936443Y-68791481D01*
X-110002627Y-68784963D01*
X-110115853Y-68750616D01*
X-110172467Y-68733443D01*
X-110328989Y-68649779D01*
X-110328991Y-68649778D01*
X-110364729Y-68620448D01*
X-110466186Y-68537186D01*
X-110549448Y-68435729D01*
X-110578778Y-68399991D01*
X-110588348Y-68382087D01*
X-110662443Y-68243467D01*
X-110679616Y-68186853D01*
X-110713963Y-68073627D01*
X-110731359Y-67897000D01*
X-110713963Y-67720373D01*
X-110662443Y-67550534D01*
X-110662443Y-67550533D01*
X-110578779Y-67394011D01*
X-110578778Y-67394009D01*
X-110549448Y-67358271D01*
X-110466186Y-67256814D01*
X-110364729Y-67173552D01*
X-110328991Y-67144222D01*
X-110311087Y-67134652D01*
X-110172467Y-67060557D01*
X-110115853Y-67043384D01*
X-110002627Y-67009037D01*
X-109936443Y-67002519D01*
X-109870260Y-66996000D01*
X-109781740Y-66996000D01*
X-109715557Y-67002519D01*
X-109715557Y-67002519D01*
G37*
G36*
X-106385000Y-68798000D02*
X-108187000Y-68798000D01*
X-108187000Y-66996000D01*
X-106385000Y-66996000D01*
X-106385000Y-68798000D01*
X-106385000Y-68798000D01*
G37*
G36*
X-91478645Y-61458606D02*
X-91265928Y-61500918D01*
X-91020061Y-61602759D01*
X-90799536Y-61750110D01*
X-90798785Y-61750612D01*
X-90610612Y-61938785D01*
X-90610610Y-61938788D01*
X-90462759Y-62160061D01*
X-90360918Y-62405928D01*
X-90357280Y-62424216D01*
X-90309000Y-62666937D01*
X-90309000Y-62933063D01*
X-90316202Y-62969268D01*
X-90360918Y-63194072D01*
X-90462759Y-63439939D01*
X-90573540Y-63605733D01*
X-90610612Y-63661215D01*
X-90798785Y-63849388D01*
X-90798788Y-63849390D01*
X-91020061Y-63997241D01*
X-91265928Y-64099082D01*
X-91396433Y-64125041D01*
X-91526937Y-64151000D01*
X-91793063Y-64151000D01*
X-91923567Y-64125041D01*
X-92054072Y-64099082D01*
X-92299939Y-63997241D01*
X-92521212Y-63849390D01*
X-92521215Y-63849388D01*
X-92709388Y-63661215D01*
X-92746460Y-63605733D01*
X-92857241Y-63439939D01*
X-92959082Y-63194072D01*
X-93003798Y-62969268D01*
X-93011000Y-62933063D01*
X-93011000Y-62666937D01*
X-92962720Y-62424216D01*
X-92959082Y-62405928D01*
X-92857241Y-62160061D01*
X-92709390Y-61938788D01*
X-92709388Y-61938785D01*
X-92521215Y-61750612D01*
X-92520464Y-61750110D01*
X-92299939Y-61602759D01*
X-92054072Y-61500918D01*
X-91841355Y-61458606D01*
X-91793063Y-61449000D01*
X-91526937Y-61449000D01*
X-91478645Y-61458606D01*
X-91478645Y-61458606D01*
G37*
G36*
X-120067996Y-62585544D02*
X-119980941Y-62602860D01*
X-119844268Y-62659472D01*
X-119722921Y-62740554D01*
X-119721262Y-62741662D01*
X-119616662Y-62846262D01*
X-119616660Y-62846265D01*
X-119534472Y-62969268D01*
X-119477860Y-63105941D01*
X-119463919Y-63176031D01*
X-119449000Y-63251031D01*
X-119449000Y-63398969D01*
X-119454249Y-63425357D01*
X-119477860Y-63544059D01*
X-119534472Y-63680732D01*
X-119534473Y-63680733D01*
X-119616662Y-63803738D01*
X-119721262Y-63908338D01*
X-119721265Y-63908340D01*
X-119844268Y-63990528D01*
X-119980941Y-64047140D01*
X-120067996Y-64064456D01*
X-120126031Y-64076000D01*
X-120273969Y-64076000D01*
X-120332004Y-64064456D01*
X-120419059Y-64047140D01*
X-120555732Y-63990528D01*
X-120678735Y-63908340D01*
X-120678738Y-63908338D01*
X-120783338Y-63803738D01*
X-120865527Y-63680733D01*
X-120865528Y-63680732D01*
X-120922140Y-63544059D01*
X-120945751Y-63425357D01*
X-120951000Y-63398969D01*
X-120951000Y-63251031D01*
X-120936081Y-63176031D01*
X-120922140Y-63105941D01*
X-120865528Y-62969268D01*
X-120783340Y-62846265D01*
X-120783338Y-62846262D01*
X-120678738Y-62741662D01*
X-120677079Y-62740554D01*
X-120555732Y-62659472D01*
X-120419059Y-62602860D01*
X-120332004Y-62585544D01*
X-120273969Y-62574000D01*
X-120126031Y-62574000D01*
X-120067996Y-62585544D01*
X-120067996Y-62585544D01*
G37*
G36*
X-97447996Y-62510544D02*
X-97360941Y-62527860D01*
X-97224268Y-62584472D01*
X-97112023Y-62659472D01*
X-97101262Y-62666662D01*
X-96996662Y-62771262D01*
X-96996660Y-62771265D01*
X-96914472Y-62894268D01*
X-96857860Y-63030941D01*
X-96829000Y-63176033D01*
X-96829000Y-63323967D01*
X-96857860Y-63469059D01*
X-96914472Y-63605732D01*
X-96989070Y-63717376D01*
X-96996662Y-63728738D01*
X-97101262Y-63833338D01*
X-97101265Y-63833340D01*
X-97224268Y-63915528D01*
X-97360941Y-63972140D01*
X-97447996Y-63989456D01*
X-97506031Y-64001000D01*
X-97653969Y-64001000D01*
X-97712004Y-63989456D01*
X-97799059Y-63972140D01*
X-97935732Y-63915528D01*
X-98058735Y-63833340D01*
X-98058738Y-63833338D01*
X-98163338Y-63728738D01*
X-98170930Y-63717376D01*
X-98245528Y-63605732D01*
X-98302140Y-63469059D01*
X-98331000Y-63323967D01*
X-98331000Y-63176033D01*
X-98302140Y-63030941D01*
X-98245528Y-62894268D01*
X-98163340Y-62771265D01*
X-98163338Y-62771262D01*
X-98058738Y-62666662D01*
X-98047977Y-62659472D01*
X-97935732Y-62584472D01*
X-97799059Y-62527860D01*
X-97712004Y-62510544D01*
X-97653969Y-62499000D01*
X-97506031Y-62499000D01*
X-97447996Y-62510544D01*
X-97447996Y-62510544D01*
G37*
G36*
X-127457188Y-61984624D02*
X-127293216Y-62052544D01*
X-127145646Y-62151147D01*
X-127020147Y-62276646D01*
X-126921544Y-62424216D01*
X-126853624Y-62588188D01*
X-126819000Y-62762259D01*
X-126819000Y-62939741D01*
X-126853624Y-63113812D01*
X-126921544Y-63277784D01*
X-127020147Y-63425354D01*
X-127145646Y-63550853D01*
X-127293216Y-63649456D01*
X-127457188Y-63717376D01*
X-127631259Y-63752000D01*
X-127808741Y-63752000D01*
X-127982812Y-63717376D01*
X-128146784Y-63649456D01*
X-128294354Y-63550853D01*
X-128419853Y-63425354D01*
X-128518456Y-63277784D01*
X-128586376Y-63113812D01*
X-128621000Y-62939741D01*
X-128621000Y-62762259D01*
X-128586376Y-62588188D01*
X-128518456Y-62424216D01*
X-128419853Y-62276646D01*
X-128294354Y-62151147D01*
X-128146784Y-62052544D01*
X-127982812Y-61984624D01*
X-127808741Y-61950000D01*
X-127631259Y-61950000D01*
X-127457188Y-61984624D01*
X-127457188Y-61984624D01*
G37*
G36*
X-122957188Y-61984624D02*
X-122793216Y-62052544D01*
X-122645646Y-62151147D01*
X-122520147Y-62276646D01*
X-122421544Y-62424216D01*
X-122353624Y-62588188D01*
X-122319000Y-62762259D01*
X-122319000Y-62939741D01*
X-122353624Y-63113812D01*
X-122421544Y-63277784D01*
X-122520147Y-63425354D01*
X-122645646Y-63550853D01*
X-122793216Y-63649456D01*
X-122957188Y-63717376D01*
X-123131259Y-63752000D01*
X-123308741Y-63752000D01*
X-123482812Y-63717376D01*
X-123646784Y-63649456D01*
X-123794354Y-63550853D01*
X-123919853Y-63425354D01*
X-124018456Y-63277784D01*
X-124086376Y-63113812D01*
X-124121000Y-62939741D01*
X-124121000Y-62762259D01*
X-124086376Y-62588188D01*
X-124018456Y-62424216D01*
X-123919853Y-62276646D01*
X-123794354Y-62151147D01*
X-123646784Y-62052544D01*
X-123482812Y-61984624D01*
X-123308741Y-61950000D01*
X-123131259Y-61950000D01*
X-122957188Y-61984624D01*
X-122957188Y-61984624D01*
G37*
G36*
X-99856335Y-61382622D02*
X-99782778Y-61389867D01*
X-99641214Y-61432810D01*
X-99510748Y-61502546D01*
X-99396394Y-61596394D01*
X-99302546Y-61710748D01*
X-99232810Y-61841214D01*
X-99189867Y-61982778D01*
X-99175367Y-62130000D01*
X-99189867Y-62277222D01*
X-99232810Y-62418786D01*
X-99302546Y-62549252D01*
X-99396394Y-62663606D01*
X-99510748Y-62757454D01*
X-99641214Y-62827190D01*
X-99782778Y-62870133D01*
X-99856335Y-62877378D01*
X-99893112Y-62881000D01*
X-99966888Y-62881000D01*
X-100003665Y-62877378D01*
X-100077222Y-62870133D01*
X-100218786Y-62827190D01*
X-100349252Y-62757454D01*
X-100463606Y-62663606D01*
X-100557454Y-62549252D01*
X-100627190Y-62418786D01*
X-100670133Y-62277222D01*
X-100684633Y-62130000D01*
X-100670133Y-61982778D01*
X-100627190Y-61841214D01*
X-100557454Y-61710748D01*
X-100463606Y-61596394D01*
X-100349252Y-61502546D01*
X-100218786Y-61432810D01*
X-100077222Y-61389867D01*
X-100003665Y-61382622D01*
X-99966888Y-61379000D01*
X-99893112Y-61379000D01*
X-99856335Y-61382622D01*
X-99856335Y-61382622D01*
G37*
G36*
X-105721400Y-60184867D02*
X-105630941Y-60202860D01*
X-105494268Y-60259472D01*
X-105372921Y-60340554D01*
X-105371262Y-60341662D01*
X-105266662Y-60446262D01*
X-105266660Y-60446265D01*
X-105184472Y-60569268D01*
X-105127860Y-60705941D01*
X-105099000Y-60851033D01*
X-105099000Y-60998967D01*
X-105127860Y-61144059D01*
X-105184472Y-61280732D01*
X-105250133Y-61379000D01*
X-105266662Y-61403738D01*
X-105371262Y-61508338D01*
X-105371265Y-61508340D01*
X-105494268Y-61590528D01*
X-105630941Y-61647140D01*
X-105717996Y-61664456D01*
X-105776031Y-61676000D01*
X-105923969Y-61676000D01*
X-105982004Y-61664456D01*
X-106069059Y-61647140D01*
X-106205732Y-61590528D01*
X-106328735Y-61508340D01*
X-106328738Y-61508338D01*
X-106433338Y-61403738D01*
X-106449867Y-61379000D01*
X-106515528Y-61280732D01*
X-106572140Y-61144059D01*
X-106601000Y-60998967D01*
X-106601000Y-60851033D01*
X-106572140Y-60705941D01*
X-106515528Y-60569268D01*
X-106433340Y-60446265D01*
X-106433338Y-60446262D01*
X-106328738Y-60341662D01*
X-106327079Y-60340554D01*
X-106205732Y-60259472D01*
X-106069059Y-60202860D01*
X-105978600Y-60184867D01*
X-105923969Y-60174000D01*
X-105776031Y-60174000D01*
X-105721400Y-60184867D01*
X-105721400Y-60184867D01*
G37*
G36*
X-113396335Y-60177622D02*
X-113322778Y-60184867D01*
X-113181214Y-60227810D01*
X-113050748Y-60297546D01*
X-112936394Y-60391394D01*
X-112842546Y-60505748D01*
X-112772810Y-60636214D01*
X-112729867Y-60777778D01*
X-112715367Y-60925000D01*
X-112729867Y-61072222D01*
X-112772810Y-61213786D01*
X-112842546Y-61344252D01*
X-112936394Y-61458606D01*
X-113050748Y-61552454D01*
X-113181214Y-61622190D01*
X-113322778Y-61665133D01*
X-113396335Y-61672378D01*
X-113433112Y-61676000D01*
X-113506888Y-61676000D01*
X-113543665Y-61672378D01*
X-113617222Y-61665133D01*
X-113758786Y-61622190D01*
X-113889252Y-61552454D01*
X-114003606Y-61458606D01*
X-114097454Y-61344252D01*
X-114167190Y-61213786D01*
X-114210133Y-61072222D01*
X-114224633Y-60925000D01*
X-114210133Y-60777778D01*
X-114167190Y-60636214D01*
X-114097454Y-60505748D01*
X-114003606Y-60391394D01*
X-113889252Y-60297546D01*
X-113758786Y-60227810D01*
X-113617222Y-60184867D01*
X-113543665Y-60177622D01*
X-113506888Y-60174000D01*
X-113433112Y-60174000D01*
X-113396335Y-60177622D01*
X-113396335Y-60177622D01*
G37*
G36*
X-127146335Y-59152622D02*
X-127072778Y-59159867D01*
X-126931214Y-59202810D01*
X-126800748Y-59272546D01*
X-126686394Y-59366394D01*
X-126592546Y-59480748D01*
X-126522810Y-59611214D01*
X-126479867Y-59752778D01*
X-126465367Y-59900000D01*
X-126479867Y-60047222D01*
X-126522810Y-60188786D01*
X-126592546Y-60319252D01*
X-126686394Y-60433606D01*
X-126800748Y-60527454D01*
X-126931214Y-60597190D01*
X-127072778Y-60640133D01*
X-127146335Y-60647378D01*
X-127183112Y-60651000D01*
X-127256888Y-60651000D01*
X-127293665Y-60647378D01*
X-127367222Y-60640133D01*
X-127508786Y-60597190D01*
X-127639252Y-60527454D01*
X-127753606Y-60433606D01*
X-127847454Y-60319252D01*
X-127917190Y-60188786D01*
X-127960133Y-60047222D01*
X-127974633Y-59900000D01*
X-127960133Y-59752778D01*
X-127917190Y-59611214D01*
X-127847454Y-59480748D01*
X-127753606Y-59366394D01*
X-127639252Y-59272546D01*
X-127508786Y-59202810D01*
X-127367222Y-59159867D01*
X-127293665Y-59152622D01*
X-127256888Y-59149000D01*
X-127183112Y-59149000D01*
X-127146335Y-59152622D01*
X-127146335Y-59152622D01*
G37*
G36*
X-119471400Y-59159867D02*
X-119380941Y-59177860D01*
X-119244268Y-59234472D01*
X-119179941Y-59277454D01*
X-119121262Y-59316662D01*
X-119016662Y-59421262D01*
X-119016660Y-59421265D01*
X-118934472Y-59544268D01*
X-118877860Y-59680941D01*
X-118849000Y-59826033D01*
X-118849000Y-59973967D01*
X-118877860Y-60119059D01*
X-118934472Y-60255732D01*
X-118991887Y-60341660D01*
X-119016662Y-60378738D01*
X-119121262Y-60483338D01*
X-119121265Y-60483340D01*
X-119244268Y-60565528D01*
X-119380941Y-60622140D01*
X-119467996Y-60639456D01*
X-119526031Y-60651000D01*
X-119673969Y-60651000D01*
X-119732004Y-60639456D01*
X-119819059Y-60622140D01*
X-119955732Y-60565528D01*
X-120078735Y-60483340D01*
X-120078738Y-60483338D01*
X-120183338Y-60378738D01*
X-120208113Y-60341660D01*
X-120265528Y-60255732D01*
X-120322140Y-60119059D01*
X-120351000Y-59973967D01*
X-120351000Y-59826033D01*
X-120322140Y-59680941D01*
X-120265528Y-59544268D01*
X-120183340Y-59421265D01*
X-120183338Y-59421262D01*
X-120078738Y-59316662D01*
X-120020059Y-59277454D01*
X-119955732Y-59234472D01*
X-119819059Y-59177860D01*
X-119728600Y-59159867D01*
X-119673969Y-59149000D01*
X-119526031Y-59149000D01*
X-119471400Y-59159867D01*
X-119471400Y-59159867D01*
G37*
G36*
X-105746400Y-57909867D02*
X-105655941Y-57927860D01*
X-105519268Y-57984472D01*
X-105462285Y-58022547D01*
X-105396262Y-58066662D01*
X-105291662Y-58171262D01*
X-105291660Y-58171265D01*
X-105209472Y-58294268D01*
X-105152860Y-58430941D01*
X-105124000Y-58576033D01*
X-105124000Y-58723967D01*
X-105152860Y-58869059D01*
X-105209472Y-59005732D01*
X-105290554Y-59127079D01*
X-105291662Y-59128738D01*
X-105396262Y-59233338D01*
X-105396265Y-59233340D01*
X-105519268Y-59315528D01*
X-105655941Y-59372140D01*
X-105742996Y-59389456D01*
X-105801031Y-59401000D01*
X-105948969Y-59401000D01*
X-106007004Y-59389456D01*
X-106094059Y-59372140D01*
X-106230732Y-59315528D01*
X-106353735Y-59233340D01*
X-106353738Y-59233338D01*
X-106458338Y-59128738D01*
X-106459446Y-59127079D01*
X-106540528Y-59005732D01*
X-106597140Y-58869059D01*
X-106626000Y-58723967D01*
X-106626000Y-58576033D01*
X-106597140Y-58430941D01*
X-106540528Y-58294268D01*
X-106458340Y-58171265D01*
X-106458338Y-58171262D01*
X-106353738Y-58066662D01*
X-106287715Y-58022547D01*
X-106230732Y-57984472D01*
X-106094059Y-57927860D01*
X-106003600Y-57909867D01*
X-105948969Y-57899000D01*
X-105801031Y-57899000D01*
X-105746400Y-57909867D01*
X-105746400Y-57909867D01*
G37*
G36*
X-113421335Y-57902622D02*
X-113347778Y-57909867D01*
X-113206214Y-57952810D01*
X-113075748Y-58022546D01*
X-112961394Y-58116394D01*
X-112867546Y-58230748D01*
X-112797810Y-58361214D01*
X-112754867Y-58502778D01*
X-112740367Y-58650000D01*
X-112754867Y-58797222D01*
X-112797810Y-58938786D01*
X-112867546Y-59069252D01*
X-112961394Y-59183606D01*
X-113075748Y-59277454D01*
X-113206214Y-59347190D01*
X-113347778Y-59390133D01*
X-113421335Y-59397378D01*
X-113458112Y-59401000D01*
X-113531888Y-59401000D01*
X-113568665Y-59397378D01*
X-113642222Y-59390133D01*
X-113783786Y-59347190D01*
X-113914252Y-59277454D01*
X-114028606Y-59183606D01*
X-114122454Y-59069252D01*
X-114192190Y-58938786D01*
X-114235133Y-58797222D01*
X-114249633Y-58650000D01*
X-114235133Y-58502778D01*
X-114192190Y-58361214D01*
X-114122454Y-58230748D01*
X-114028606Y-58116394D01*
X-113914252Y-58022546D01*
X-113783786Y-57952810D01*
X-113642222Y-57909867D01*
X-113568665Y-57902622D01*
X-113531888Y-57899000D01*
X-113458112Y-57899000D01*
X-113421335Y-57902622D01*
X-113421335Y-57902622D01*
G37*
G36*
X-87201772Y-56881703D02*
X-87046900Y-56945853D01*
X-86907519Y-57038985D01*
X-86788985Y-57157519D01*
X-86695853Y-57296900D01*
X-86631703Y-57451772D01*
X-86599000Y-57616184D01*
X-86599000Y-57783816D01*
X-86631703Y-57948228D01*
X-86695853Y-58103100D01*
X-86788985Y-58242481D01*
X-86907519Y-58361015D01*
X-87046900Y-58454147D01*
X-87201772Y-58518297D01*
X-87366184Y-58551000D01*
X-87533816Y-58551000D01*
X-87698228Y-58518297D01*
X-87853100Y-58454147D01*
X-87992481Y-58361015D01*
X-88111015Y-58242481D01*
X-88204147Y-58103100D01*
X-88268297Y-57948228D01*
X-88301000Y-57783816D01*
X-88301000Y-57616184D01*
X-88268297Y-57451772D01*
X-88204147Y-57296900D01*
X-88111015Y-57157519D01*
X-87992481Y-57038985D01*
X-87853100Y-56945853D01*
X-87698228Y-56881703D01*
X-87533816Y-56849000D01*
X-87366184Y-56849000D01*
X-87201772Y-56881703D01*
X-87201772Y-56881703D01*
G37*
G36*
X-92201772Y-56881703D02*
X-92046900Y-56945853D01*
X-91907519Y-57038985D01*
X-91788985Y-57157519D01*
X-91695853Y-57296900D01*
X-91631703Y-57451772D01*
X-91599000Y-57616184D01*
X-91599000Y-57783816D01*
X-91631703Y-57948228D01*
X-91695853Y-58103100D01*
X-91788985Y-58242481D01*
X-91907519Y-58361015D01*
X-92046900Y-58454147D01*
X-92201772Y-58518297D01*
X-92366184Y-58551000D01*
X-92533816Y-58551000D01*
X-92698228Y-58518297D01*
X-92853100Y-58454147D01*
X-92992481Y-58361015D01*
X-93111015Y-58242481D01*
X-93204147Y-58103100D01*
X-93268297Y-57948228D01*
X-93301000Y-57783816D01*
X-93301000Y-57616184D01*
X-93268297Y-57451772D01*
X-93204147Y-57296900D01*
X-93111015Y-57157519D01*
X-92992481Y-57038985D01*
X-92853100Y-56945853D01*
X-92698228Y-56881703D01*
X-92533816Y-56849000D01*
X-92366184Y-56849000D01*
X-92201772Y-56881703D01*
X-92201772Y-56881703D01*
G37*
G36*
X-99089000Y-57301000D02*
X-100691000Y-57301000D01*
X-100691000Y-55699000D01*
X-99089000Y-55699000D01*
X-99089000Y-57301000D01*
X-99089000Y-57301000D01*
G37*
G36*
X-94576357Y-55729781D02*
X-94430585Y-55790162D01*
X-94299389Y-55877824D01*
X-94187824Y-55989389D01*
X-94100162Y-56120585D01*
X-94039781Y-56266357D01*
X-94009000Y-56421107D01*
X-94009000Y-56578893D01*
X-94039781Y-56733643D01*
X-94100162Y-56879415D01*
X-94187824Y-57010611D01*
X-94299389Y-57122176D01*
X-94430585Y-57209838D01*
X-94576357Y-57270219D01*
X-94731107Y-57301000D01*
X-94888893Y-57301000D01*
X-95043643Y-57270219D01*
X-95189415Y-57209838D01*
X-95320611Y-57122176D01*
X-95432176Y-57010611D01*
X-95519838Y-56879415D01*
X-95580219Y-56733643D01*
X-95611000Y-56578893D01*
X-95611000Y-56421107D01*
X-95580219Y-56266357D01*
X-95519838Y-56120585D01*
X-95432176Y-55989389D01*
X-95320611Y-55877824D01*
X-95189415Y-55790162D01*
X-95043643Y-55729781D01*
X-94888893Y-55699000D01*
X-94731107Y-55699000D01*
X-94576357Y-55729781D01*
X-94576357Y-55729781D01*
G37*
G36*
X-124379678Y-53726357D02*
X-124205928Y-53760918D01*
X-123960061Y-53862759D01*
X-123786793Y-53978534D01*
X-123738785Y-54010612D01*
X-123550612Y-54198785D01*
X-123550610Y-54198788D01*
X-123402759Y-54420061D01*
X-123300918Y-54665928D01*
X-123299816Y-54671467D01*
X-123249000Y-54926937D01*
X-123249000Y-55193063D01*
X-123255552Y-55226000D01*
X-123300918Y-55454072D01*
X-123402759Y-55699939D01*
X-123512480Y-55864147D01*
X-123550612Y-55921215D01*
X-123738785Y-56109388D01*
X-123738788Y-56109390D01*
X-123960061Y-56257241D01*
X-124205928Y-56359082D01*
X-124336433Y-56385041D01*
X-124466937Y-56411000D01*
X-124733063Y-56411000D01*
X-124863567Y-56385041D01*
X-124994072Y-56359082D01*
X-125239939Y-56257241D01*
X-125461212Y-56109390D01*
X-125461215Y-56109388D01*
X-125649388Y-55921215D01*
X-125687520Y-55864147D01*
X-125797241Y-55699939D01*
X-125899082Y-55454072D01*
X-125944448Y-55226000D01*
X-125951000Y-55193063D01*
X-125951000Y-54926937D01*
X-125900184Y-54671467D01*
X-125899082Y-54665928D01*
X-125797241Y-54420061D01*
X-125649390Y-54198788D01*
X-125649388Y-54198785D01*
X-125461215Y-54010612D01*
X-125413207Y-53978534D01*
X-125239939Y-53862759D01*
X-124994072Y-53760918D01*
X-124820322Y-53726357D01*
X-124733063Y-53709000D01*
X-124466937Y-53709000D01*
X-124379678Y-53726357D01*
X-124379678Y-53726357D01*
G37*
G36*
X-92201772Y-54291703D02*
X-92046900Y-54355853D01*
X-91907519Y-54448985D01*
X-91788985Y-54567519D01*
X-91695853Y-54706900D01*
X-91631703Y-54861772D01*
X-91599000Y-55026184D01*
X-91599000Y-55193816D01*
X-91631703Y-55358228D01*
X-91695853Y-55513100D01*
X-91788985Y-55652481D01*
X-91907519Y-55771015D01*
X-92046900Y-55864147D01*
X-92201772Y-55928297D01*
X-92366184Y-55961000D01*
X-92533816Y-55961000D01*
X-92698228Y-55928297D01*
X-92853100Y-55864147D01*
X-92992481Y-55771015D01*
X-93111015Y-55652481D01*
X-93204147Y-55513100D01*
X-93268297Y-55358228D01*
X-93301000Y-55193816D01*
X-93301000Y-55026184D01*
X-93268297Y-54861772D01*
X-93204147Y-54706900D01*
X-93111015Y-54567519D01*
X-92992481Y-54448985D01*
X-92853100Y-54355853D01*
X-92698228Y-54291703D01*
X-92533816Y-54259000D01*
X-92366184Y-54259000D01*
X-92201772Y-54291703D01*
X-92201772Y-54291703D01*
G37*
G36*
X-87201772Y-54291703D02*
X-87046900Y-54355853D01*
X-86907519Y-54448985D01*
X-86788985Y-54567519D01*
X-86695853Y-54706900D01*
X-86631703Y-54861772D01*
X-86599000Y-55026184D01*
X-86599000Y-55193816D01*
X-86631703Y-55358228D01*
X-86695853Y-55513100D01*
X-86788985Y-55652481D01*
X-86907519Y-55771015D01*
X-87046900Y-55864147D01*
X-87201772Y-55928297D01*
X-87366184Y-55961000D01*
X-87533816Y-55961000D01*
X-87698228Y-55928297D01*
X-87853100Y-55864147D01*
X-87992481Y-55771015D01*
X-88111015Y-55652481D01*
X-88204147Y-55513100D01*
X-88268297Y-55358228D01*
X-88301000Y-55193816D01*
X-88301000Y-55026184D01*
X-88268297Y-54861772D01*
X-88204147Y-54706900D01*
X-88111015Y-54567519D01*
X-87992481Y-54448985D01*
X-87853100Y-54355853D01*
X-87698228Y-54291703D01*
X-87533816Y-54259000D01*
X-87366184Y-54259000D01*
X-87201772Y-54291703D01*
X-87201772Y-54291703D01*
G37*
G36*
X-109419558Y-53430518D02*
X-109353373Y-53437037D01*
X-109240147Y-53471384D01*
X-109183533Y-53488557D01*
X-109044913Y-53562652D01*
X-109027009Y-53572222D01*
X-109016819Y-53580585D01*
X-108889814Y-53684814D01*
X-108827358Y-53760918D01*
X-108777222Y-53822009D01*
X-108777221Y-53822011D01*
X-108693557Y-53978533D01*
X-108693557Y-53978534D01*
X-108642037Y-54148373D01*
X-108624641Y-54325000D01*
X-108642037Y-54501627D01*
X-108662025Y-54567519D01*
X-108693557Y-54671467D01*
X-108712497Y-54706900D01*
X-108777222Y-54827991D01*
X-108804946Y-54861772D01*
X-108889814Y-54965186D01*
X-108991271Y-55048448D01*
X-109027009Y-55077778D01*
X-109027011Y-55077779D01*
X-109183533Y-55161443D01*
X-109240147Y-55178616D01*
X-109353373Y-55212963D01*
X-109419558Y-55219482D01*
X-109485740Y-55226000D01*
X-109574260Y-55226000D01*
X-109640442Y-55219482D01*
X-109706627Y-55212963D01*
X-109819853Y-55178616D01*
X-109876467Y-55161443D01*
X-110032989Y-55077779D01*
X-110032991Y-55077778D01*
X-110068729Y-55048448D01*
X-110170186Y-54965186D01*
X-110255054Y-54861772D01*
X-110282778Y-54827991D01*
X-110347503Y-54706900D01*
X-110366443Y-54671467D01*
X-110397975Y-54567519D01*
X-110417963Y-54501627D01*
X-110435359Y-54325000D01*
X-110417963Y-54148373D01*
X-110366443Y-53978534D01*
X-110366443Y-53978533D01*
X-110282779Y-53822011D01*
X-110282778Y-53822009D01*
X-110232642Y-53760918D01*
X-110170186Y-53684814D01*
X-110043181Y-53580585D01*
X-110032991Y-53572222D01*
X-110015087Y-53562652D01*
X-109876467Y-53488557D01*
X-109819853Y-53471384D01*
X-109706627Y-53437037D01*
X-109640442Y-53430518D01*
X-109574260Y-53424000D01*
X-109485740Y-53424000D01*
X-109419558Y-53430518D01*
X-109419558Y-53430518D01*
G37*
G36*
X-106879558Y-53430518D02*
X-106813373Y-53437037D01*
X-106700147Y-53471384D01*
X-106643533Y-53488557D01*
X-106504913Y-53562652D01*
X-106487009Y-53572222D01*
X-106476819Y-53580585D01*
X-106349814Y-53684814D01*
X-106287358Y-53760918D01*
X-106237222Y-53822009D01*
X-106237221Y-53822011D01*
X-106153557Y-53978533D01*
X-106153557Y-53978534D01*
X-106102037Y-54148373D01*
X-106084641Y-54325000D01*
X-106102037Y-54501627D01*
X-106122025Y-54567519D01*
X-106153557Y-54671467D01*
X-106172497Y-54706900D01*
X-106237222Y-54827991D01*
X-106264946Y-54861772D01*
X-106349814Y-54965186D01*
X-106451271Y-55048448D01*
X-106487009Y-55077778D01*
X-106487011Y-55077779D01*
X-106643533Y-55161443D01*
X-106700147Y-55178616D01*
X-106813373Y-55212963D01*
X-106879558Y-55219482D01*
X-106945740Y-55226000D01*
X-107034260Y-55226000D01*
X-107100442Y-55219482D01*
X-107166627Y-55212963D01*
X-107279853Y-55178616D01*
X-107336467Y-55161443D01*
X-107492989Y-55077779D01*
X-107492991Y-55077778D01*
X-107528729Y-55048448D01*
X-107630186Y-54965186D01*
X-107715054Y-54861772D01*
X-107742778Y-54827991D01*
X-107807503Y-54706900D01*
X-107826443Y-54671467D01*
X-107857975Y-54567519D01*
X-107877963Y-54501627D01*
X-107895359Y-54325000D01*
X-107877963Y-54148373D01*
X-107826443Y-53978534D01*
X-107826443Y-53978533D01*
X-107742779Y-53822011D01*
X-107742778Y-53822009D01*
X-107692642Y-53760918D01*
X-107630186Y-53684814D01*
X-107503181Y-53580585D01*
X-107492991Y-53572222D01*
X-107475087Y-53562652D01*
X-107336467Y-53488557D01*
X-107279853Y-53471384D01*
X-107166627Y-53437037D01*
X-107100442Y-53430518D01*
X-107034260Y-53424000D01*
X-106945740Y-53424000D01*
X-106879558Y-53430518D01*
X-106879558Y-53430518D01*
G37*
G36*
X-103549000Y-55226000D02*
X-105351000Y-55226000D01*
X-105351000Y-53424000D01*
X-103549000Y-53424000D01*
X-103549000Y-55226000D01*
X-103549000Y-55226000D01*
G37*
G36*
X-111959558Y-53430518D02*
X-111893373Y-53437037D01*
X-111780147Y-53471384D01*
X-111723533Y-53488557D01*
X-111584913Y-53562652D01*
X-111567009Y-53572222D01*
X-111556819Y-53580585D01*
X-111429814Y-53684814D01*
X-111367358Y-53760918D01*
X-111317222Y-53822009D01*
X-111317221Y-53822011D01*
X-111233557Y-53978533D01*
X-111233557Y-53978534D01*
X-111182037Y-54148373D01*
X-111164641Y-54325000D01*
X-111182037Y-54501627D01*
X-111202025Y-54567519D01*
X-111233557Y-54671467D01*
X-111252497Y-54706900D01*
X-111317222Y-54827991D01*
X-111344946Y-54861772D01*
X-111429814Y-54965186D01*
X-111531271Y-55048448D01*
X-111567009Y-55077778D01*
X-111567011Y-55077779D01*
X-111723533Y-55161443D01*
X-111780147Y-55178616D01*
X-111893373Y-55212963D01*
X-111959558Y-55219482D01*
X-112025740Y-55226000D01*
X-112114260Y-55226000D01*
X-112180442Y-55219482D01*
X-112246627Y-55212963D01*
X-112359853Y-55178616D01*
X-112416467Y-55161443D01*
X-112572989Y-55077779D01*
X-112572991Y-55077778D01*
X-112608729Y-55048448D01*
X-112710186Y-54965186D01*
X-112795054Y-54861772D01*
X-112822778Y-54827991D01*
X-112887503Y-54706900D01*
X-112906443Y-54671467D01*
X-112937975Y-54567519D01*
X-112957963Y-54501627D01*
X-112975359Y-54325000D01*
X-112957963Y-54148373D01*
X-112906443Y-53978534D01*
X-112906443Y-53978533D01*
X-112822779Y-53822011D01*
X-112822778Y-53822009D01*
X-112772642Y-53760918D01*
X-112710186Y-53684814D01*
X-112583181Y-53580585D01*
X-112572991Y-53572222D01*
X-112555087Y-53562652D01*
X-112416467Y-53488557D01*
X-112359853Y-53471384D01*
X-112246627Y-53437037D01*
X-112180442Y-53430518D01*
X-112114260Y-53424000D01*
X-112025740Y-53424000D01*
X-111959558Y-53430518D01*
X-111959558Y-53430518D01*
G37*
G36*
X-97116357Y-53189781D02*
X-96970585Y-53250162D01*
X-96839389Y-53337824D01*
X-96727824Y-53449389D01*
X-96640162Y-53580585D01*
X-96579781Y-53726357D01*
X-96549000Y-53881107D01*
X-96549000Y-54038893D01*
X-96579781Y-54193643D01*
X-96640162Y-54339415D01*
X-96727824Y-54470611D01*
X-96839389Y-54582176D01*
X-96970585Y-54669838D01*
X-97116357Y-54730219D01*
X-97271107Y-54761000D01*
X-97428893Y-54761000D01*
X-97583643Y-54730219D01*
X-97729415Y-54669838D01*
X-97860611Y-54582176D01*
X-97972176Y-54470611D01*
X-98059838Y-54339415D01*
X-98120219Y-54193643D01*
X-98151000Y-54038893D01*
X-98151000Y-53881107D01*
X-98120219Y-53726357D01*
X-98059838Y-53580585D01*
X-97972176Y-53449389D01*
X-97860611Y-53337824D01*
X-97729415Y-53250162D01*
X-97583643Y-53189781D01*
X-97428893Y-53159000D01*
X-97271107Y-53159000D01*
X-97116357Y-53189781D01*
X-97116357Y-53189781D01*
G37*
G36*
X-117119000Y-54271000D02*
X-118921000Y-54271000D01*
X-118921000Y-52469000D01*
X-117119000Y-52469000D01*
X-117119000Y-54271000D01*
X-117119000Y-54271000D01*
G37*
G36*
X-117909558Y-49935518D02*
X-117843373Y-49942037D01*
X-117730147Y-49976384D01*
X-117673533Y-49993557D01*
X-117534913Y-50067652D01*
X-117517009Y-50077222D01*
X-117507560Y-50084977D01*
X-117379814Y-50189814D01*
X-117296552Y-50291271D01*
X-117267222Y-50327009D01*
X-117267221Y-50327011D01*
X-117183557Y-50483533D01*
X-117183557Y-50483534D01*
X-117132037Y-50653373D01*
X-117114641Y-50830000D01*
X-117132037Y-51006627D01*
X-117163209Y-51109388D01*
X-117183557Y-51176467D01*
X-117226732Y-51257241D01*
X-117267222Y-51332991D01*
X-117296552Y-51368729D01*
X-117379814Y-51470186D01*
X-117481271Y-51553448D01*
X-117517009Y-51582778D01*
X-117517011Y-51582779D01*
X-117673533Y-51666443D01*
X-117730147Y-51683616D01*
X-117843373Y-51717963D01*
X-117909557Y-51724481D01*
X-117975740Y-51731000D01*
X-118064260Y-51731000D01*
X-118130442Y-51724482D01*
X-118196627Y-51717963D01*
X-118309853Y-51683616D01*
X-118366467Y-51666443D01*
X-118522989Y-51582779D01*
X-118522991Y-51582778D01*
X-118558729Y-51553448D01*
X-118660186Y-51470186D01*
X-118743448Y-51368729D01*
X-118772778Y-51332991D01*
X-118813268Y-51257241D01*
X-118856443Y-51176467D01*
X-118876791Y-51109388D01*
X-118907963Y-51006627D01*
X-118925359Y-50830000D01*
X-118907963Y-50653373D01*
X-118856443Y-50483534D01*
X-118856443Y-50483533D01*
X-118772779Y-50327011D01*
X-118772778Y-50327009D01*
X-118743448Y-50291271D01*
X-118660186Y-50189814D01*
X-118532440Y-50084977D01*
X-118522991Y-50077222D01*
X-118505087Y-50067652D01*
X-118366467Y-49993557D01*
X-118309853Y-49976384D01*
X-118196627Y-49942037D01*
X-118130443Y-49935519D01*
X-118064260Y-49929000D01*
X-117975740Y-49929000D01*
X-117909558Y-49935518D01*
X-117909558Y-49935518D01*
G37*
G36*
X-111953179Y-50036313D02*
X-111953176Y-50036314D01*
X-111953175Y-50036314D01*
X-111792761Y-50084975D01*
X-111792759Y-50084976D01*
X-111792756Y-50084977D01*
X-111644922Y-50163995D01*
X-111515341Y-50270341D01*
X-111408995Y-50399922D01*
X-111329977Y-50547756D01*
X-111329976Y-50547759D01*
X-111329975Y-50547761D01*
X-111281314Y-50708175D01*
X-111281313Y-50708179D01*
X-111264883Y-50875000D01*
X-111281313Y-51041821D01*
X-111281314Y-51041824D01*
X-111281314Y-51041825D01*
X-111322157Y-51176467D01*
X-111329977Y-51202244D01*
X-111408995Y-51350078D01*
X-111515341Y-51479659D01*
X-111644922Y-51586005D01*
X-111792756Y-51665023D01*
X-111792759Y-51665024D01*
X-111792761Y-51665025D01*
X-111953175Y-51713686D01*
X-111953176Y-51713686D01*
X-111953179Y-51713687D01*
X-112078196Y-51726000D01*
X-112161804Y-51726000D01*
X-112286821Y-51713687D01*
X-112286824Y-51713686D01*
X-112286825Y-51713686D01*
X-112447239Y-51665025D01*
X-112447241Y-51665024D01*
X-112447244Y-51665023D01*
X-112595078Y-51586005D01*
X-112724659Y-51479659D01*
X-112831005Y-51350078D01*
X-112910023Y-51202244D01*
X-112917842Y-51176467D01*
X-112958686Y-51041825D01*
X-112958686Y-51041824D01*
X-112958687Y-51041821D01*
X-112975117Y-50875000D01*
X-112958687Y-50708179D01*
X-112958686Y-50708175D01*
X-112910025Y-50547761D01*
X-112910024Y-50547759D01*
X-112910023Y-50547756D01*
X-112831005Y-50399922D01*
X-112724659Y-50270341D01*
X-112595078Y-50163995D01*
X-112447244Y-50084977D01*
X-112447241Y-50084976D01*
X-112447239Y-50084975D01*
X-112286825Y-50036314D01*
X-112286824Y-50036314D01*
X-112286821Y-50036313D01*
X-112161804Y-50024000D01*
X-112078196Y-50024000D01*
X-111953179Y-50036313D01*
X-111953179Y-50036313D01*
G37*
G36*
X-103649000Y-51726000D02*
X-105351000Y-51726000D01*
X-105351000Y-50024000D01*
X-103649000Y-50024000D01*
X-103649000Y-51726000D01*
X-103649000Y-51726000D01*
G37*
G36*
X-124336433Y-48734959D02*
X-124205928Y-48760918D01*
X-123960061Y-48862759D01*
X-123739536Y-49010110D01*
X-123738785Y-49010612D01*
X-123550612Y-49198785D01*
X-123550610Y-49198788D01*
X-123402759Y-49420061D01*
X-123300918Y-49665928D01*
X-123249000Y-49926938D01*
X-123249000Y-50193062D01*
X-123300918Y-50454072D01*
X-123402759Y-50699939D01*
X-123489664Y-50830000D01*
X-123550612Y-50921215D01*
X-123738785Y-51109388D01*
X-123738788Y-51109390D01*
X-123960061Y-51257241D01*
X-124205928Y-51359082D01*
X-124336433Y-51385041D01*
X-124466937Y-51411000D01*
X-124733063Y-51411000D01*
X-124863567Y-51385041D01*
X-124994072Y-51359082D01*
X-125239939Y-51257241D01*
X-125461212Y-51109390D01*
X-125461215Y-51109388D01*
X-125649388Y-50921215D01*
X-125710336Y-50830000D01*
X-125797241Y-50699939D01*
X-125899082Y-50454072D01*
X-125951000Y-50193062D01*
X-125951000Y-49926938D01*
X-125899082Y-49665928D01*
X-125797241Y-49420061D01*
X-125649390Y-49198788D01*
X-125649388Y-49198785D01*
X-125461215Y-49010612D01*
X-125460464Y-49010110D01*
X-125239939Y-48862759D01*
X-124994072Y-48760918D01*
X-124863567Y-48734959D01*
X-124733063Y-48709000D01*
X-124466937Y-48709000D01*
X-124336433Y-48734959D01*
X-124336433Y-48734959D01*
G37*
G36*
X-89759000Y-51161000D02*
X-92461000Y-51161000D01*
X-92461000Y-48459000D01*
X-89759000Y-48459000D01*
X-89759000Y-51161000D01*
X-89759000Y-51161000D01*
G37*
G36*
X-97929000Y-49741000D02*
X-99731000Y-49741000D01*
X-99731000Y-47939000D01*
X-97929000Y-47939000D01*
X-97929000Y-49741000D01*
X-97929000Y-49741000D01*
G37*
G36*
X-117909557Y-47395519D02*
X-117843373Y-47402037D01*
X-117730147Y-47436384D01*
X-117673533Y-47453557D01*
X-117534913Y-47527652D01*
X-117517009Y-47537222D01*
X-117507560Y-47544977D01*
X-117379814Y-47649814D01*
X-117296552Y-47751271D01*
X-117267222Y-47787009D01*
X-117267221Y-47787011D01*
X-117183557Y-47943533D01*
X-117183557Y-47943534D01*
X-117132037Y-48113373D01*
X-117114641Y-48290000D01*
X-117132037Y-48466627D01*
X-117166384Y-48579853D01*
X-117183557Y-48636467D01*
X-117250078Y-48760918D01*
X-117267222Y-48792991D01*
X-117281245Y-48810078D01*
X-117379814Y-48930186D01*
X-117477812Y-49010610D01*
X-117517009Y-49042778D01*
X-117517011Y-49042779D01*
X-117673533Y-49126443D01*
X-117730147Y-49143616D01*
X-117843373Y-49177963D01*
X-117909557Y-49184481D01*
X-117975740Y-49191000D01*
X-118064260Y-49191000D01*
X-118130442Y-49184482D01*
X-118196627Y-49177963D01*
X-118309853Y-49143616D01*
X-118366467Y-49126443D01*
X-118522989Y-49042779D01*
X-118522991Y-49042778D01*
X-118562188Y-49010610D01*
X-118660186Y-48930186D01*
X-118758755Y-48810078D01*
X-118772778Y-48792991D01*
X-118789922Y-48760918D01*
X-118856443Y-48636467D01*
X-118873616Y-48579853D01*
X-118907963Y-48466627D01*
X-118925359Y-48290000D01*
X-118907963Y-48113373D01*
X-118856443Y-47943534D01*
X-118856443Y-47943533D01*
X-118772779Y-47787011D01*
X-118772778Y-47787009D01*
X-118743448Y-47751271D01*
X-118660186Y-47649814D01*
X-118532440Y-47544977D01*
X-118522991Y-47537222D01*
X-118505087Y-47527652D01*
X-118366467Y-47453557D01*
X-118309853Y-47436384D01*
X-118196627Y-47402037D01*
X-118130443Y-47395519D01*
X-118064260Y-47389000D01*
X-117975740Y-47389000D01*
X-117909557Y-47395519D01*
X-117909557Y-47395519D01*
G37*
G36*
X-111953179Y-47496313D02*
X-111953176Y-47496314D01*
X-111953175Y-47496314D01*
X-111792761Y-47544975D01*
X-111792759Y-47544976D01*
X-111792756Y-47544977D01*
X-111644922Y-47623995D01*
X-111515341Y-47730341D01*
X-111408995Y-47859922D01*
X-111329977Y-48007756D01*
X-111329976Y-48007759D01*
X-111329975Y-48007761D01*
X-111281314Y-48168175D01*
X-111281313Y-48168179D01*
X-111264883Y-48335000D01*
X-111281313Y-48501821D01*
X-111281314Y-48501824D01*
X-111281314Y-48501825D01*
X-111322157Y-48636467D01*
X-111329977Y-48662244D01*
X-111408995Y-48810078D01*
X-111515341Y-48939659D01*
X-111644922Y-49046005D01*
X-111792756Y-49125023D01*
X-111792759Y-49125024D01*
X-111792761Y-49125025D01*
X-111953175Y-49173686D01*
X-111953176Y-49173686D01*
X-111953179Y-49173687D01*
X-112078196Y-49186000D01*
X-112161804Y-49186000D01*
X-112286821Y-49173687D01*
X-112286824Y-49173686D01*
X-112286825Y-49173686D01*
X-112447239Y-49125025D01*
X-112447241Y-49125024D01*
X-112447244Y-49125023D01*
X-112595078Y-49046005D01*
X-112724659Y-48939659D01*
X-112831005Y-48810078D01*
X-112910023Y-48662244D01*
X-112917842Y-48636467D01*
X-112958686Y-48501825D01*
X-112958686Y-48501824D01*
X-112958687Y-48501821D01*
X-112975117Y-48335000D01*
X-112958687Y-48168179D01*
X-112958686Y-48168175D01*
X-112910025Y-48007761D01*
X-112910024Y-48007759D01*
X-112910023Y-48007756D01*
X-112831005Y-47859922D01*
X-112724659Y-47730341D01*
X-112595078Y-47623995D01*
X-112447244Y-47544977D01*
X-112447241Y-47544976D01*
X-112447239Y-47544975D01*
X-112286825Y-47496314D01*
X-112286824Y-47496314D01*
X-112286821Y-47496313D01*
X-112161804Y-47484000D01*
X-112078196Y-47484000D01*
X-111953179Y-47496313D01*
X-111953179Y-47496313D01*
G37*
G36*
X-104333179Y-47496313D02*
X-104333176Y-47496314D01*
X-104333175Y-47496314D01*
X-104172761Y-47544975D01*
X-104172759Y-47544976D01*
X-104172756Y-47544977D01*
X-104024922Y-47623995D01*
X-103895341Y-47730341D01*
X-103788995Y-47859922D01*
X-103709977Y-48007756D01*
X-103709976Y-48007759D01*
X-103709975Y-48007761D01*
X-103661314Y-48168175D01*
X-103661313Y-48168179D01*
X-103644883Y-48335000D01*
X-103661313Y-48501821D01*
X-103661314Y-48501824D01*
X-103661314Y-48501825D01*
X-103702157Y-48636467D01*
X-103709977Y-48662244D01*
X-103788995Y-48810078D01*
X-103895341Y-48939659D01*
X-104024922Y-49046005D01*
X-104172756Y-49125023D01*
X-104172759Y-49125024D01*
X-104172761Y-49125025D01*
X-104333175Y-49173686D01*
X-104333176Y-49173686D01*
X-104333179Y-49173687D01*
X-104458196Y-49186000D01*
X-104541804Y-49186000D01*
X-104666821Y-49173687D01*
X-104666824Y-49173686D01*
X-104666825Y-49173686D01*
X-104827239Y-49125025D01*
X-104827241Y-49125024D01*
X-104827244Y-49125023D01*
X-104975078Y-49046005D01*
X-105104659Y-48939659D01*
X-105211005Y-48810078D01*
X-105290023Y-48662244D01*
X-105297842Y-48636467D01*
X-105338686Y-48501825D01*
X-105338686Y-48501824D01*
X-105338687Y-48501821D01*
X-105355117Y-48335000D01*
X-105338687Y-48168179D01*
X-105338686Y-48168175D01*
X-105290025Y-48007761D01*
X-105290024Y-48007759D01*
X-105290023Y-48007756D01*
X-105211005Y-47859922D01*
X-105104659Y-47730341D01*
X-104975078Y-47623995D01*
X-104827244Y-47544977D01*
X-104827241Y-47544976D01*
X-104827239Y-47544975D01*
X-104666825Y-47496314D01*
X-104666824Y-47496314D01*
X-104666821Y-47496313D01*
X-104541804Y-47484000D01*
X-104458196Y-47484000D01*
X-104333179Y-47496313D01*
X-104333179Y-47496313D01*
G37*
G36*
X-98719557Y-45405519D02*
X-98653373Y-45412037D01*
X-98540147Y-45446384D01*
X-98483533Y-45463557D01*
X-98344913Y-45537652D01*
X-98327009Y-45547222D01*
X-98295144Y-45573373D01*
X-98189814Y-45659814D01*
X-98106552Y-45761271D01*
X-98077222Y-45797009D01*
X-98077221Y-45797011D01*
X-97993557Y-45953533D01*
X-97993557Y-45953534D01*
X-97942037Y-46123373D01*
X-97924641Y-46300000D01*
X-97942037Y-46476627D01*
X-97950949Y-46506005D01*
X-97993557Y-46646467D01*
X-97995980Y-46651000D01*
X-98077222Y-46802991D01*
X-98106552Y-46838729D01*
X-98189814Y-46940186D01*
X-98291271Y-47023448D01*
X-98327009Y-47052778D01*
X-98327011Y-47052779D01*
X-98483533Y-47136443D01*
X-98540147Y-47153616D01*
X-98653373Y-47187963D01*
X-98719557Y-47194481D01*
X-98785740Y-47201000D01*
X-98874260Y-47201000D01*
X-98940443Y-47194481D01*
X-99006627Y-47187963D01*
X-99119853Y-47153616D01*
X-99176467Y-47136443D01*
X-99332989Y-47052779D01*
X-99332991Y-47052778D01*
X-99368729Y-47023448D01*
X-99470186Y-46940186D01*
X-99553448Y-46838729D01*
X-99582778Y-46802991D01*
X-99664020Y-46651000D01*
X-99666443Y-46646467D01*
X-99709051Y-46506005D01*
X-99717963Y-46476627D01*
X-99735359Y-46300000D01*
X-99717963Y-46123373D01*
X-99666443Y-45953534D01*
X-99666443Y-45953533D01*
X-99582779Y-45797011D01*
X-99582778Y-45797009D01*
X-99553448Y-45761271D01*
X-99470186Y-45659814D01*
X-99364856Y-45573373D01*
X-99332991Y-45547222D01*
X-99315087Y-45537652D01*
X-99176467Y-45463557D01*
X-99119853Y-45446384D01*
X-99006627Y-45412037D01*
X-98940443Y-45405519D01*
X-98874260Y-45399000D01*
X-98785740Y-45399000D01*
X-98719557Y-45405519D01*
X-98719557Y-45405519D01*
G37*
G36*
X-117909557Y-44855519D02*
X-117843373Y-44862037D01*
X-117730147Y-44896384D01*
X-117673533Y-44913557D01*
X-117534913Y-44987652D01*
X-117517009Y-44997222D01*
X-117507560Y-45004977D01*
X-117379814Y-45109814D01*
X-117302460Y-45204072D01*
X-117267222Y-45247009D01*
X-117267221Y-45247011D01*
X-117183557Y-45403533D01*
X-117169481Y-45449937D01*
X-117132037Y-45573373D01*
X-117114641Y-45750000D01*
X-117132037Y-45926627D01*
X-117156491Y-46007241D01*
X-117183557Y-46096467D01*
X-117197939Y-46123373D01*
X-117267222Y-46252991D01*
X-117270710Y-46257241D01*
X-117379814Y-46390186D01*
X-117481271Y-46473448D01*
X-117517009Y-46502778D01*
X-117517011Y-46502779D01*
X-117673533Y-46586443D01*
X-117730147Y-46603616D01*
X-117843373Y-46637963D01*
X-117909557Y-46644481D01*
X-117975740Y-46651000D01*
X-118064260Y-46651000D01*
X-118130443Y-46644481D01*
X-118196627Y-46637963D01*
X-118309853Y-46603616D01*
X-118366467Y-46586443D01*
X-118522989Y-46502779D01*
X-118522991Y-46502778D01*
X-118558729Y-46473448D01*
X-118660186Y-46390186D01*
X-118769290Y-46257241D01*
X-118772778Y-46252991D01*
X-118842061Y-46123373D01*
X-118856443Y-46096467D01*
X-118883509Y-46007241D01*
X-118907963Y-45926627D01*
X-118925359Y-45750000D01*
X-118907963Y-45573373D01*
X-118870519Y-45449937D01*
X-118856443Y-45403533D01*
X-118772779Y-45247011D01*
X-118772778Y-45247009D01*
X-118737540Y-45204072D01*
X-118660186Y-45109814D01*
X-118532440Y-45004977D01*
X-118522991Y-44997222D01*
X-118505087Y-44987652D01*
X-118366467Y-44913557D01*
X-118309853Y-44896384D01*
X-118196627Y-44862037D01*
X-118130443Y-44855519D01*
X-118064260Y-44849000D01*
X-117975740Y-44849000D01*
X-117909557Y-44855519D01*
X-117909557Y-44855519D01*
G37*
G36*
X-104333179Y-44956313D02*
X-104333176Y-44956314D01*
X-104333175Y-44956314D01*
X-104172761Y-45004975D01*
X-104172759Y-45004976D01*
X-104172756Y-45004977D01*
X-104024922Y-45083995D01*
X-103895341Y-45190341D01*
X-103788995Y-45319922D01*
X-103709977Y-45467756D01*
X-103709976Y-45467759D01*
X-103709975Y-45467761D01*
X-103661314Y-45628175D01*
X-103661313Y-45628179D01*
X-103644883Y-45795000D01*
X-103661313Y-45961821D01*
X-103661314Y-45961824D01*
X-103661314Y-45961825D01*
X-103706077Y-46109390D01*
X-103709977Y-46122244D01*
X-103788995Y-46270078D01*
X-103895341Y-46399659D01*
X-104024922Y-46506005D01*
X-104172756Y-46585023D01*
X-104172759Y-46585024D01*
X-104172761Y-46585025D01*
X-104333175Y-46633686D01*
X-104333176Y-46633686D01*
X-104333179Y-46633687D01*
X-104458196Y-46646000D01*
X-104541804Y-46646000D01*
X-104666821Y-46633687D01*
X-104666824Y-46633686D01*
X-104666825Y-46633686D01*
X-104827239Y-46585025D01*
X-104827241Y-46585024D01*
X-104827244Y-46585023D01*
X-104975078Y-46506005D01*
X-105104659Y-46399659D01*
X-105211005Y-46270078D01*
X-105290023Y-46122244D01*
X-105293922Y-46109390D01*
X-105338686Y-45961825D01*
X-105338686Y-45961824D01*
X-105338687Y-45961821D01*
X-105355117Y-45795000D01*
X-105338687Y-45628179D01*
X-105338686Y-45628175D01*
X-105290025Y-45467761D01*
X-105290024Y-45467759D01*
X-105290023Y-45467756D01*
X-105211005Y-45319922D01*
X-105104659Y-45190341D01*
X-104975078Y-45083995D01*
X-104827244Y-45004977D01*
X-104827241Y-45004976D01*
X-104827239Y-45004975D01*
X-104666825Y-44956314D01*
X-104666824Y-44956314D01*
X-104666821Y-44956313D01*
X-104541804Y-44944000D01*
X-104458196Y-44944000D01*
X-104333179Y-44956313D01*
X-104333179Y-44956313D01*
G37*
G36*
X-111953179Y-44956313D02*
X-111953176Y-44956314D01*
X-111953175Y-44956314D01*
X-111792761Y-45004975D01*
X-111792759Y-45004976D01*
X-111792756Y-45004977D01*
X-111644922Y-45083995D01*
X-111515341Y-45190341D01*
X-111408995Y-45319922D01*
X-111329977Y-45467756D01*
X-111329976Y-45467759D01*
X-111329975Y-45467761D01*
X-111281314Y-45628175D01*
X-111281313Y-45628179D01*
X-111264883Y-45795000D01*
X-111281313Y-45961821D01*
X-111281314Y-45961824D01*
X-111281314Y-45961825D01*
X-111326077Y-46109390D01*
X-111329977Y-46122244D01*
X-111408995Y-46270078D01*
X-111515341Y-46399659D01*
X-111644922Y-46506005D01*
X-111792756Y-46585023D01*
X-111792759Y-46585024D01*
X-111792761Y-46585025D01*
X-111953175Y-46633686D01*
X-111953176Y-46633686D01*
X-111953179Y-46633687D01*
X-112078196Y-46646000D01*
X-112161804Y-46646000D01*
X-112286821Y-46633687D01*
X-112286824Y-46633686D01*
X-112286825Y-46633686D01*
X-112447239Y-46585025D01*
X-112447241Y-46585024D01*
X-112447244Y-46585023D01*
X-112595078Y-46506005D01*
X-112724659Y-46399659D01*
X-112831005Y-46270078D01*
X-112910023Y-46122244D01*
X-112913922Y-46109390D01*
X-112958686Y-45961825D01*
X-112958686Y-45961824D01*
X-112958687Y-45961821D01*
X-112975117Y-45795000D01*
X-112958687Y-45628179D01*
X-112958686Y-45628175D01*
X-112910025Y-45467761D01*
X-112910024Y-45467759D01*
X-112910023Y-45467756D01*
X-112831005Y-45319922D01*
X-112724659Y-45190341D01*
X-112595078Y-45083995D01*
X-112447244Y-45004977D01*
X-112447241Y-45004976D01*
X-112447239Y-45004975D01*
X-112286825Y-44956314D01*
X-112286824Y-44956314D01*
X-112286821Y-44956313D01*
X-112161804Y-44944000D01*
X-112078196Y-44944000D01*
X-111953179Y-44956313D01*
X-111953179Y-44956313D01*
G37*
G36*
X-124360971Y-43730078D02*
X-124205928Y-43760918D01*
X-123960061Y-43862759D01*
X-123805544Y-43966005D01*
X-123738785Y-44010612D01*
X-123550612Y-44198785D01*
X-123550610Y-44198788D01*
X-123402759Y-44420061D01*
X-123300918Y-44665928D01*
X-123300918Y-44665929D01*
X-123251661Y-44913557D01*
X-123249000Y-44926938D01*
X-123249000Y-45193062D01*
X-123300918Y-45454072D01*
X-123402759Y-45699939D01*
X-123509302Y-45859390D01*
X-123550612Y-45921215D01*
X-123738785Y-46109388D01*
X-123738788Y-46109390D01*
X-123960061Y-46257241D01*
X-124205928Y-46359082D01*
X-124336433Y-46385041D01*
X-124466937Y-46411000D01*
X-124733063Y-46411000D01*
X-124863567Y-46385041D01*
X-124994072Y-46359082D01*
X-125239939Y-46257241D01*
X-125461212Y-46109390D01*
X-125461215Y-46109388D01*
X-125649388Y-45921215D01*
X-125690698Y-45859390D01*
X-125797241Y-45699939D01*
X-125899082Y-45454072D01*
X-125951000Y-45193062D01*
X-125951000Y-44926938D01*
X-125948338Y-44913557D01*
X-125899082Y-44665929D01*
X-125899082Y-44665928D01*
X-125797241Y-44420061D01*
X-125649390Y-44198788D01*
X-125649388Y-44198785D01*
X-125461215Y-44010612D01*
X-125394456Y-43966005D01*
X-125239939Y-43862759D01*
X-124994072Y-43760918D01*
X-124839029Y-43730078D01*
X-124733063Y-43709000D01*
X-124466937Y-43709000D01*
X-124360971Y-43730078D01*
X-124360971Y-43730078D01*
G37*
G36*
X-90846433Y-43484959D02*
X-90715928Y-43510918D01*
X-90470061Y-43612759D01*
X-90294482Y-43730078D01*
X-90248785Y-43760612D01*
X-90060612Y-43948785D01*
X-90060610Y-43948788D01*
X-89912759Y-44170061D01*
X-89810918Y-44415928D01*
X-89791653Y-44512778D01*
X-89759000Y-44676937D01*
X-89759000Y-44943063D01*
X-89761636Y-44956313D01*
X-89810918Y-45204072D01*
X-89912759Y-45449939D01*
X-90031856Y-45628179D01*
X-90060612Y-45671215D01*
X-90248785Y-45859388D01*
X-90248788Y-45859390D01*
X-90470061Y-46007241D01*
X-90715928Y-46109082D01*
X-90782073Y-46122239D01*
X-90976937Y-46161000D01*
X-91243063Y-46161000D01*
X-91437927Y-46122239D01*
X-91504072Y-46109082D01*
X-91749939Y-46007241D01*
X-91971212Y-45859390D01*
X-91971215Y-45859388D01*
X-92159388Y-45671215D01*
X-92188144Y-45628179D01*
X-92307241Y-45449939D01*
X-92409082Y-45204072D01*
X-92458364Y-44956313D01*
X-92461000Y-44943063D01*
X-92461000Y-44676937D01*
X-92428347Y-44512778D01*
X-92409082Y-44415928D01*
X-92307241Y-44170061D01*
X-92159390Y-43948788D01*
X-92159388Y-43948785D01*
X-91971215Y-43760612D01*
X-91925518Y-43730078D01*
X-91749939Y-43612759D01*
X-91504072Y-43510918D01*
X-91373567Y-43484959D01*
X-91243063Y-43459000D01*
X-90976937Y-43459000D01*
X-90846433Y-43484959D01*
X-90846433Y-43484959D01*
G37*
G36*
X-98719558Y-42865518D02*
X-98653373Y-42872037D01*
X-98540147Y-42906384D01*
X-98483533Y-42923557D01*
X-98401903Y-42967190D01*
X-98327009Y-43007222D01*
X-98310221Y-43021000D01*
X-98189814Y-43119814D01*
X-98106552Y-43221271D01*
X-98077222Y-43257009D01*
X-98077221Y-43257011D01*
X-97993557Y-43413533D01*
X-97993557Y-43413534D01*
X-97942037Y-43583373D01*
X-97924641Y-43760000D01*
X-97942037Y-43936627D01*
X-97964480Y-44010612D01*
X-97993557Y-44106467D01*
X-98067652Y-44245087D01*
X-98077222Y-44262991D01*
X-98106552Y-44298729D01*
X-98189814Y-44400186D01*
X-98291271Y-44483448D01*
X-98327009Y-44512778D01*
X-98327011Y-44512779D01*
X-98483533Y-44596443D01*
X-98540147Y-44613616D01*
X-98653373Y-44647963D01*
X-98719557Y-44654481D01*
X-98785740Y-44661000D01*
X-98874260Y-44661000D01*
X-98940443Y-44654481D01*
X-99006627Y-44647963D01*
X-99119853Y-44613616D01*
X-99176467Y-44596443D01*
X-99332989Y-44512779D01*
X-99332991Y-44512778D01*
X-99368729Y-44483448D01*
X-99470186Y-44400186D01*
X-99553448Y-44298729D01*
X-99582778Y-44262991D01*
X-99592348Y-44245087D01*
X-99666443Y-44106467D01*
X-99695520Y-44010612D01*
X-99717963Y-43936627D01*
X-99735359Y-43760000D01*
X-99717963Y-43583373D01*
X-99666443Y-43413534D01*
X-99666443Y-43413533D01*
X-99582779Y-43257011D01*
X-99582778Y-43257009D01*
X-99553448Y-43221271D01*
X-99470186Y-43119814D01*
X-99349779Y-43021000D01*
X-99332991Y-43007222D01*
X-99258097Y-42967190D01*
X-99176467Y-42923557D01*
X-99119853Y-42906384D01*
X-99006627Y-42872037D01*
X-98940442Y-42865518D01*
X-98874260Y-42859000D01*
X-98785740Y-42859000D01*
X-98719558Y-42865518D01*
X-98719558Y-42865518D01*
G37*
G36*
X-111953179Y-42416313D02*
X-111953176Y-42416314D01*
X-111953175Y-42416314D01*
X-111792761Y-42464975D01*
X-111792759Y-42464976D01*
X-111792756Y-42464977D01*
X-111644922Y-42543995D01*
X-111515341Y-42650341D01*
X-111408995Y-42779922D01*
X-111329977Y-42927756D01*
X-111329976Y-42927759D01*
X-111329975Y-42927761D01*
X-111281314Y-43088175D01*
X-111281313Y-43088179D01*
X-111264883Y-43255000D01*
X-111281313Y-43421821D01*
X-111329977Y-43582244D01*
X-111408995Y-43730078D01*
X-111515341Y-43859659D01*
X-111644922Y-43966005D01*
X-111792756Y-44045023D01*
X-111792759Y-44045024D01*
X-111792761Y-44045025D01*
X-111953175Y-44093686D01*
X-111953176Y-44093686D01*
X-111953179Y-44093687D01*
X-112078196Y-44106000D01*
X-112161804Y-44106000D01*
X-112286821Y-44093687D01*
X-112286824Y-44093686D01*
X-112286825Y-44093686D01*
X-112447239Y-44045025D01*
X-112447241Y-44045024D01*
X-112447244Y-44045023D01*
X-112595078Y-43966005D01*
X-112724659Y-43859659D01*
X-112831005Y-43730078D01*
X-112910023Y-43582244D01*
X-112958687Y-43421821D01*
X-112975117Y-43255000D01*
X-112958687Y-43088179D01*
X-112958686Y-43088175D01*
X-112910025Y-42927761D01*
X-112910024Y-42927759D01*
X-112910023Y-42927756D01*
X-112831005Y-42779922D01*
X-112724659Y-42650341D01*
X-112595078Y-42543995D01*
X-112447244Y-42464977D01*
X-112447241Y-42464976D01*
X-112447239Y-42464975D01*
X-112286825Y-42416314D01*
X-112286824Y-42416314D01*
X-112286821Y-42416313D01*
X-112161804Y-42404000D01*
X-112078196Y-42404000D01*
X-111953179Y-42416313D01*
X-111953179Y-42416313D01*
G37*
G36*
X-104333179Y-42416313D02*
X-104333176Y-42416314D01*
X-104333175Y-42416314D01*
X-104172761Y-42464975D01*
X-104172759Y-42464976D01*
X-104172756Y-42464977D01*
X-104024922Y-42543995D01*
X-103895341Y-42650341D01*
X-103788995Y-42779922D01*
X-103709977Y-42927756D01*
X-103709976Y-42927759D01*
X-103709975Y-42927761D01*
X-103661314Y-43088175D01*
X-103661313Y-43088179D01*
X-103644883Y-43255000D01*
X-103661313Y-43421821D01*
X-103709977Y-43582244D01*
X-103788995Y-43730078D01*
X-103895341Y-43859659D01*
X-104024922Y-43966005D01*
X-104172756Y-44045023D01*
X-104172759Y-44045024D01*
X-104172761Y-44045025D01*
X-104333175Y-44093686D01*
X-104333176Y-44093686D01*
X-104333179Y-44093687D01*
X-104458196Y-44106000D01*
X-104541804Y-44106000D01*
X-104666821Y-44093687D01*
X-104666824Y-44093686D01*
X-104666825Y-44093686D01*
X-104827239Y-44045025D01*
X-104827241Y-44045024D01*
X-104827244Y-44045023D01*
X-104975078Y-43966005D01*
X-105104659Y-43859659D01*
X-105211005Y-43730078D01*
X-105290023Y-43582244D01*
X-105338687Y-43421821D01*
X-105355117Y-43255000D01*
X-105338687Y-43088179D01*
X-105338686Y-43088175D01*
X-105290025Y-42927761D01*
X-105290024Y-42927759D01*
X-105290023Y-42927756D01*
X-105211005Y-42779922D01*
X-105104659Y-42650341D01*
X-104975078Y-42543995D01*
X-104827244Y-42464977D01*
X-104827241Y-42464976D01*
X-104827239Y-42464975D01*
X-104666825Y-42416314D01*
X-104666824Y-42416314D01*
X-104666821Y-42416313D01*
X-104541804Y-42404000D01*
X-104458196Y-42404000D01*
X-104333179Y-42416313D01*
X-104333179Y-42416313D01*
G37*
G36*
X-114776335Y-41522622D02*
X-114702778Y-41529867D01*
X-114561214Y-41572810D01*
X-114430748Y-41642546D01*
X-114316394Y-41736394D01*
X-114222546Y-41850748D01*
X-114152810Y-41981214D01*
X-114109867Y-42122778D01*
X-114095367Y-42270000D01*
X-114109867Y-42417222D01*
X-114152810Y-42558786D01*
X-114222546Y-42689252D01*
X-114316394Y-42803606D01*
X-114430748Y-42897454D01*
X-114561214Y-42967190D01*
X-114702778Y-43010133D01*
X-114776335Y-43017378D01*
X-114813112Y-43021000D01*
X-114886888Y-43021000D01*
X-114923665Y-43017378D01*
X-114997222Y-43010133D01*
X-115138786Y-42967190D01*
X-115269252Y-42897454D01*
X-115383606Y-42803606D01*
X-115477454Y-42689252D01*
X-115547190Y-42558786D01*
X-115590133Y-42417222D01*
X-115604633Y-42270000D01*
X-115590133Y-42122778D01*
X-115547190Y-41981214D01*
X-115477454Y-41850748D01*
X-115383606Y-41736394D01*
X-115269252Y-41642546D01*
X-115138786Y-41572810D01*
X-114997222Y-41529867D01*
X-114923665Y-41522622D01*
X-114886888Y-41519000D01*
X-114813112Y-41519000D01*
X-114776335Y-41522622D01*
X-114776335Y-41522622D01*
G37*
G36*
X-98719557Y-40325519D02*
X-98653373Y-40332037D01*
X-98540147Y-40366384D01*
X-98483533Y-40383557D01*
X-98359347Y-40449937D01*
X-98327009Y-40467222D01*
X-98291271Y-40496552D01*
X-98189814Y-40579814D01*
X-98114807Y-40671212D01*
X-98077222Y-40717009D01*
X-98077221Y-40717011D01*
X-97993557Y-40873533D01*
X-97993557Y-40873534D01*
X-97942037Y-41043373D01*
X-97924641Y-41220000D01*
X-97942037Y-41396627D01*
X-97950949Y-41426005D01*
X-97993557Y-41566467D01*
X-98034223Y-41642546D01*
X-98077222Y-41722991D01*
X-98088222Y-41736394D01*
X-98189814Y-41860186D01*
X-98291271Y-41943448D01*
X-98327009Y-41972778D01*
X-98327011Y-41972779D01*
X-98483533Y-42056443D01*
X-98540147Y-42073616D01*
X-98653373Y-42107963D01*
X-98719557Y-42114481D01*
X-98785740Y-42121000D01*
X-98874260Y-42121000D01*
X-98940443Y-42114481D01*
X-99006627Y-42107963D01*
X-99119853Y-42073616D01*
X-99176467Y-42056443D01*
X-99332989Y-41972779D01*
X-99332991Y-41972778D01*
X-99368729Y-41943448D01*
X-99470186Y-41860186D01*
X-99571778Y-41736394D01*
X-99582778Y-41722991D01*
X-99625777Y-41642546D01*
X-99666443Y-41566467D01*
X-99709051Y-41426005D01*
X-99717963Y-41396627D01*
X-99735359Y-41220000D01*
X-99717963Y-41043373D01*
X-99666443Y-40873534D01*
X-99666443Y-40873533D01*
X-99582779Y-40717011D01*
X-99582778Y-40717009D01*
X-99545193Y-40671212D01*
X-99470186Y-40579814D01*
X-99368729Y-40496552D01*
X-99332991Y-40467222D01*
X-99300653Y-40449937D01*
X-99176467Y-40383557D01*
X-99119853Y-40366384D01*
X-99006627Y-40332037D01*
X-98940443Y-40325519D01*
X-98874260Y-40319000D01*
X-98785740Y-40319000D01*
X-98719557Y-40325519D01*
X-98719557Y-40325519D01*
G37*
G36*
X-111953179Y-39876313D02*
X-111953176Y-39876314D01*
X-111953175Y-39876314D01*
X-111792761Y-39924975D01*
X-111792759Y-39924976D01*
X-111792756Y-39924977D01*
X-111644922Y-40003995D01*
X-111515341Y-40110341D01*
X-111408995Y-40239922D01*
X-111329977Y-40387756D01*
X-111329976Y-40387759D01*
X-111329975Y-40387761D01*
X-111311114Y-40449939D01*
X-111281313Y-40548179D01*
X-111264883Y-40715000D01*
X-111281313Y-40881821D01*
X-111281314Y-40881824D01*
X-111281314Y-40881825D01*
X-111319358Y-41007241D01*
X-111329977Y-41042244D01*
X-111408995Y-41190078D01*
X-111515341Y-41319659D01*
X-111644922Y-41426005D01*
X-111792756Y-41505023D01*
X-111792759Y-41505024D01*
X-111792761Y-41505025D01*
X-111953175Y-41553686D01*
X-111953176Y-41553686D01*
X-111953179Y-41553687D01*
X-112078196Y-41566000D01*
X-112161804Y-41566000D01*
X-112286821Y-41553687D01*
X-112286824Y-41553686D01*
X-112286825Y-41553686D01*
X-112447239Y-41505025D01*
X-112447241Y-41505024D01*
X-112447244Y-41505023D01*
X-112595078Y-41426005D01*
X-112724659Y-41319659D01*
X-112831005Y-41190078D01*
X-112910023Y-41042244D01*
X-112920641Y-41007241D01*
X-112958686Y-40881825D01*
X-112958686Y-40881824D01*
X-112958687Y-40881821D01*
X-112975117Y-40715000D01*
X-112958687Y-40548179D01*
X-112928886Y-40449939D01*
X-112910025Y-40387761D01*
X-112910024Y-40387759D01*
X-112910023Y-40387756D01*
X-112831005Y-40239922D01*
X-112724659Y-40110341D01*
X-112595078Y-40003995D01*
X-112447244Y-39924977D01*
X-112447241Y-39924976D01*
X-112447239Y-39924975D01*
X-112286825Y-39876314D01*
X-112286824Y-39876314D01*
X-112286821Y-39876313D01*
X-112161804Y-39864000D01*
X-112078196Y-39864000D01*
X-111953179Y-39876313D01*
X-111953179Y-39876313D01*
G37*
G36*
X-104333179Y-39876313D02*
X-104333176Y-39876314D01*
X-104333175Y-39876314D01*
X-104172761Y-39924975D01*
X-104172759Y-39924976D01*
X-104172756Y-39924977D01*
X-104024922Y-40003995D01*
X-103895341Y-40110341D01*
X-103788995Y-40239922D01*
X-103709977Y-40387756D01*
X-103709976Y-40387759D01*
X-103709975Y-40387761D01*
X-103691114Y-40449939D01*
X-103661313Y-40548179D01*
X-103644883Y-40715000D01*
X-103661313Y-40881821D01*
X-103661314Y-40881824D01*
X-103661314Y-40881825D01*
X-103699358Y-41007241D01*
X-103709977Y-41042244D01*
X-103788995Y-41190078D01*
X-103895341Y-41319659D01*
X-104024922Y-41426005D01*
X-104172756Y-41505023D01*
X-104172759Y-41505024D01*
X-104172761Y-41505025D01*
X-104333175Y-41553686D01*
X-104333176Y-41553686D01*
X-104333179Y-41553687D01*
X-104458196Y-41566000D01*
X-104541804Y-41566000D01*
X-104666821Y-41553687D01*
X-104666824Y-41553686D01*
X-104666825Y-41553686D01*
X-104827239Y-41505025D01*
X-104827241Y-41505024D01*
X-104827244Y-41505023D01*
X-104975078Y-41426005D01*
X-105104659Y-41319659D01*
X-105211005Y-41190078D01*
X-105290023Y-41042244D01*
X-105300641Y-41007241D01*
X-105338686Y-40881825D01*
X-105338686Y-40881824D01*
X-105338687Y-40881821D01*
X-105355117Y-40715000D01*
X-105338687Y-40548179D01*
X-105308886Y-40449939D01*
X-105290025Y-40387761D01*
X-105290024Y-40387759D01*
X-105290023Y-40387756D01*
X-105211005Y-40239922D01*
X-105104659Y-40110341D01*
X-104975078Y-40003995D01*
X-104827244Y-39924977D01*
X-104827241Y-39924976D01*
X-104827239Y-39924975D01*
X-104666825Y-39876314D01*
X-104666824Y-39876314D01*
X-104666821Y-39876313D01*
X-104541804Y-39864000D01*
X-104458196Y-39864000D01*
X-104333179Y-39876313D01*
X-104333179Y-39876313D01*
G37*
G36*
X-123249000Y-41411000D02*
X-125951000Y-41411000D01*
X-125951000Y-38709000D01*
X-123249000Y-38709000D01*
X-123249000Y-41411000D01*
X-123249000Y-41411000D01*
G37*
G36*
X-90846433Y-38484959D02*
X-90715928Y-38510918D01*
X-90470061Y-38612759D01*
X-90249536Y-38760110D01*
X-90248785Y-38760612D01*
X-90060612Y-38948785D01*
X-90060610Y-38948788D01*
X-89912759Y-39170061D01*
X-89810918Y-39415928D01*
X-89759000Y-39676938D01*
X-89759000Y-39943062D01*
X-89810918Y-40204072D01*
X-89912759Y-40449939D01*
X-90060110Y-40670464D01*
X-90060612Y-40671215D01*
X-90248785Y-40859388D01*
X-90248788Y-40859390D01*
X-90470061Y-41007241D01*
X-90715928Y-41109082D01*
X-90846433Y-41135041D01*
X-90976937Y-41161000D01*
X-91243063Y-41161000D01*
X-91373567Y-41135041D01*
X-91504072Y-41109082D01*
X-91749939Y-41007241D01*
X-91971212Y-40859390D01*
X-91971215Y-40859388D01*
X-92159388Y-40671215D01*
X-92159890Y-40670464D01*
X-92307241Y-40449939D01*
X-92409082Y-40204072D01*
X-92461000Y-39943062D01*
X-92461000Y-39676938D01*
X-92409082Y-39415928D01*
X-92307241Y-39170061D01*
X-92159390Y-38948788D01*
X-92159388Y-38948785D01*
X-91971215Y-38760612D01*
X-91970464Y-38760110D01*
X-91749939Y-38612759D01*
X-91504072Y-38510918D01*
X-91373567Y-38484959D01*
X-91243063Y-38459000D01*
X-90976937Y-38459000D01*
X-90846433Y-38484959D01*
X-90846433Y-38484959D01*
G37*
G36*
X-98719558Y-37785518D02*
X-98653373Y-37792037D01*
X-98540147Y-37826384D01*
X-98483533Y-37843557D01*
X-98344913Y-37917652D01*
X-98327009Y-37927222D01*
X-98291271Y-37956552D01*
X-98189814Y-38039814D01*
X-98106552Y-38141271D01*
X-98077222Y-38177009D01*
X-98077221Y-38177011D01*
X-97993557Y-38333533D01*
X-97993557Y-38333534D01*
X-97942037Y-38503373D01*
X-97924641Y-38680000D01*
X-97942037Y-38856627D01*
X-97950949Y-38886005D01*
X-97993557Y-39026467D01*
X-98067652Y-39165087D01*
X-98077222Y-39182991D01*
X-98106552Y-39218729D01*
X-98189814Y-39320186D01*
X-98291271Y-39403448D01*
X-98327009Y-39432778D01*
X-98327011Y-39432779D01*
X-98483533Y-39516443D01*
X-98540147Y-39533616D01*
X-98653373Y-39567963D01*
X-98719557Y-39574481D01*
X-98785740Y-39581000D01*
X-98874260Y-39581000D01*
X-98940443Y-39574481D01*
X-99006627Y-39567963D01*
X-99119853Y-39533616D01*
X-99176467Y-39516443D01*
X-99332989Y-39432779D01*
X-99332991Y-39432778D01*
X-99368729Y-39403448D01*
X-99470186Y-39320186D01*
X-99553448Y-39218729D01*
X-99582778Y-39182991D01*
X-99592348Y-39165087D01*
X-99666443Y-39026467D01*
X-99709051Y-38886005D01*
X-99717963Y-38856627D01*
X-99735359Y-38680000D01*
X-99717963Y-38503373D01*
X-99666443Y-38333534D01*
X-99666443Y-38333533D01*
X-99582779Y-38177011D01*
X-99582778Y-38177009D01*
X-99553448Y-38141271D01*
X-99470186Y-38039814D01*
X-99368729Y-37956552D01*
X-99332991Y-37927222D01*
X-99315087Y-37917652D01*
X-99176467Y-37843557D01*
X-99119853Y-37826384D01*
X-99006627Y-37792037D01*
X-98940442Y-37785518D01*
X-98874260Y-37779000D01*
X-98785740Y-37779000D01*
X-98719558Y-37785518D01*
X-98719558Y-37785518D01*
G37*
G36*
X-104333179Y-37336313D02*
X-104333176Y-37336314D01*
X-104333175Y-37336314D01*
X-104172761Y-37384975D01*
X-104172759Y-37384976D01*
X-104172756Y-37384977D01*
X-104024922Y-37463995D01*
X-103895341Y-37570341D01*
X-103788995Y-37699922D01*
X-103709977Y-37847756D01*
X-103661313Y-38008179D01*
X-103644883Y-38175000D01*
X-103661313Y-38341821D01*
X-103709977Y-38502244D01*
X-103788995Y-38650078D01*
X-103895341Y-38779659D01*
X-104024922Y-38886005D01*
X-104172756Y-38965023D01*
X-104172759Y-38965024D01*
X-104172761Y-38965025D01*
X-104333175Y-39013686D01*
X-104333176Y-39013686D01*
X-104333179Y-39013687D01*
X-104458196Y-39026000D01*
X-104541804Y-39026000D01*
X-104666821Y-39013687D01*
X-104666824Y-39013686D01*
X-104666825Y-39013686D01*
X-104827239Y-38965025D01*
X-104827241Y-38965024D01*
X-104827244Y-38965023D01*
X-104975078Y-38886005D01*
X-105104659Y-38779659D01*
X-105211005Y-38650078D01*
X-105290023Y-38502244D01*
X-105338687Y-38341821D01*
X-105355117Y-38175000D01*
X-105338687Y-38008179D01*
X-105290023Y-37847756D01*
X-105211005Y-37699922D01*
X-105104659Y-37570341D01*
X-104975078Y-37463995D01*
X-104827244Y-37384977D01*
X-104827241Y-37384976D01*
X-104827239Y-37384975D01*
X-104666825Y-37336314D01*
X-104666824Y-37336314D01*
X-104666821Y-37336313D01*
X-104541804Y-37324000D01*
X-104458196Y-37324000D01*
X-104333179Y-37336313D01*
X-104333179Y-37336313D01*
G37*
G36*
X-111953179Y-37336313D02*
X-111953176Y-37336314D01*
X-111953175Y-37336314D01*
X-111792761Y-37384975D01*
X-111792759Y-37384976D01*
X-111792756Y-37384977D01*
X-111644922Y-37463995D01*
X-111515341Y-37570341D01*
X-111408995Y-37699922D01*
X-111329977Y-37847756D01*
X-111281313Y-38008179D01*
X-111264883Y-38175000D01*
X-111281313Y-38341821D01*
X-111329977Y-38502244D01*
X-111408995Y-38650078D01*
X-111515341Y-38779659D01*
X-111644922Y-38886005D01*
X-111792756Y-38965023D01*
X-111792759Y-38965024D01*
X-111792761Y-38965025D01*
X-111953175Y-39013686D01*
X-111953176Y-39013686D01*
X-111953179Y-39013687D01*
X-112078196Y-39026000D01*
X-112161804Y-39026000D01*
X-112286821Y-39013687D01*
X-112286824Y-39013686D01*
X-112286825Y-39013686D01*
X-112447239Y-38965025D01*
X-112447241Y-38965024D01*
X-112447244Y-38965023D01*
X-112595078Y-38886005D01*
X-112724659Y-38779659D01*
X-112831005Y-38650078D01*
X-112910023Y-38502244D01*
X-112958687Y-38341821D01*
X-112975117Y-38175000D01*
X-112958687Y-38008179D01*
X-112910023Y-37847756D01*
X-112831005Y-37699922D01*
X-112724659Y-37570341D01*
X-112595078Y-37463995D01*
X-112447244Y-37384977D01*
X-112447241Y-37384976D01*
X-112447239Y-37384975D01*
X-112286825Y-37336314D01*
X-112286824Y-37336314D01*
X-112286821Y-37336313D01*
X-112161804Y-37324000D01*
X-112078196Y-37324000D01*
X-111953179Y-37336313D01*
X-111953179Y-37336313D01*
G37*
G36*
X-98719557Y-35245519D02*
X-98653373Y-35252037D01*
X-98540147Y-35286384D01*
X-98483533Y-35303557D01*
X-98355225Y-35372140D01*
X-98327009Y-35387222D01*
X-98310221Y-35401000D01*
X-98189814Y-35499814D01*
X-98106552Y-35601271D01*
X-98077222Y-35637009D01*
X-98077221Y-35637011D01*
X-97993557Y-35793533D01*
X-97993557Y-35793534D01*
X-97942037Y-35963373D01*
X-97924641Y-36140000D01*
X-97942037Y-36316627D01*
X-97950949Y-36346005D01*
X-97993557Y-36486467D01*
X-98067652Y-36625087D01*
X-98077222Y-36642991D01*
X-98106552Y-36678729D01*
X-98189814Y-36780186D01*
X-98291271Y-36863448D01*
X-98327009Y-36892778D01*
X-98327011Y-36892779D01*
X-98483533Y-36976443D01*
X-98540147Y-36993616D01*
X-98653373Y-37027963D01*
X-98719558Y-37034482D01*
X-98785740Y-37041000D01*
X-98874260Y-37041000D01*
X-98940442Y-37034482D01*
X-99006627Y-37027963D01*
X-99119853Y-36993616D01*
X-99176467Y-36976443D01*
X-99332989Y-36892779D01*
X-99332991Y-36892778D01*
X-99368729Y-36863448D01*
X-99470186Y-36780186D01*
X-99553448Y-36678729D01*
X-99582778Y-36642991D01*
X-99592348Y-36625087D01*
X-99666443Y-36486467D01*
X-99709051Y-36346005D01*
X-99717963Y-36316627D01*
X-99735359Y-36140000D01*
X-99717963Y-35963373D01*
X-99666443Y-35793534D01*
X-99666443Y-35793533D01*
X-99582779Y-35637011D01*
X-99582778Y-35637009D01*
X-99553448Y-35601271D01*
X-99470186Y-35499814D01*
X-99349779Y-35401000D01*
X-99332991Y-35387222D01*
X-99304775Y-35372140D01*
X-99176467Y-35303557D01*
X-99119853Y-35286384D01*
X-99006627Y-35252037D01*
X-98940443Y-35245519D01*
X-98874260Y-35239000D01*
X-98785740Y-35239000D01*
X-98719557Y-35245519D01*
X-98719557Y-35245519D01*
G37*
G36*
X-104333179Y-34796313D02*
X-104333176Y-34796314D01*
X-104333175Y-34796314D01*
X-104172761Y-34844975D01*
X-104172759Y-34844976D01*
X-104172756Y-34844977D01*
X-104024922Y-34923995D01*
X-103895341Y-35030341D01*
X-103788995Y-35159922D01*
X-103709977Y-35307756D01*
X-103709976Y-35307759D01*
X-103709975Y-35307761D01*
X-103666846Y-35449939D01*
X-103661313Y-35468179D01*
X-103644883Y-35635000D01*
X-103661313Y-35801821D01*
X-103709977Y-35962244D01*
X-103788995Y-36110078D01*
X-103895341Y-36239659D01*
X-104024922Y-36346005D01*
X-104172756Y-36425023D01*
X-104172759Y-36425024D01*
X-104172761Y-36425025D01*
X-104333175Y-36473686D01*
X-104333176Y-36473686D01*
X-104333179Y-36473687D01*
X-104458196Y-36486000D01*
X-104541804Y-36486000D01*
X-104666821Y-36473687D01*
X-104666824Y-36473686D01*
X-104666825Y-36473686D01*
X-104827239Y-36425025D01*
X-104827241Y-36425024D01*
X-104827244Y-36425023D01*
X-104975078Y-36346005D01*
X-105104659Y-36239659D01*
X-105211005Y-36110078D01*
X-105290023Y-35962244D01*
X-105338687Y-35801821D01*
X-105355117Y-35635000D01*
X-105338687Y-35468179D01*
X-105333154Y-35449939D01*
X-105290025Y-35307761D01*
X-105290024Y-35307759D01*
X-105290023Y-35307756D01*
X-105211005Y-35159922D01*
X-105104659Y-35030341D01*
X-104975078Y-34923995D01*
X-104827244Y-34844977D01*
X-104827241Y-34844976D01*
X-104827239Y-34844975D01*
X-104666825Y-34796314D01*
X-104666824Y-34796314D01*
X-104666821Y-34796313D01*
X-104541804Y-34784000D01*
X-104458196Y-34784000D01*
X-104333179Y-34796313D01*
X-104333179Y-34796313D01*
G37*
G36*
X-111953179Y-34796313D02*
X-111953176Y-34796314D01*
X-111953175Y-34796314D01*
X-111792761Y-34844975D01*
X-111792759Y-34844976D01*
X-111792756Y-34844977D01*
X-111644922Y-34923995D01*
X-111515341Y-35030341D01*
X-111408995Y-35159922D01*
X-111329977Y-35307756D01*
X-111329976Y-35307759D01*
X-111329975Y-35307761D01*
X-111286846Y-35449939D01*
X-111281313Y-35468179D01*
X-111264883Y-35635000D01*
X-111281313Y-35801821D01*
X-111329977Y-35962244D01*
X-111408995Y-36110078D01*
X-111515341Y-36239659D01*
X-111644922Y-36346005D01*
X-111792756Y-36425023D01*
X-111792759Y-36425024D01*
X-111792761Y-36425025D01*
X-111953175Y-36473686D01*
X-111953176Y-36473686D01*
X-111953179Y-36473687D01*
X-112078196Y-36486000D01*
X-112161804Y-36486000D01*
X-112286821Y-36473687D01*
X-112286824Y-36473686D01*
X-112286825Y-36473686D01*
X-112447239Y-36425025D01*
X-112447241Y-36425024D01*
X-112447244Y-36425023D01*
X-112595078Y-36346005D01*
X-112724659Y-36239659D01*
X-112831005Y-36110078D01*
X-112910023Y-35962244D01*
X-112958687Y-35801821D01*
X-112975117Y-35635000D01*
X-112958687Y-35468179D01*
X-112953154Y-35449939D01*
X-112910025Y-35307761D01*
X-112910024Y-35307759D01*
X-112910023Y-35307756D01*
X-112831005Y-35159922D01*
X-112724659Y-35030341D01*
X-112595078Y-34923995D01*
X-112447244Y-34844977D01*
X-112447241Y-34844976D01*
X-112447239Y-34844975D01*
X-112286825Y-34796314D01*
X-112286824Y-34796314D01*
X-112286821Y-34796313D01*
X-112161804Y-34784000D01*
X-112078196Y-34784000D01*
X-111953179Y-34796313D01*
X-111953179Y-34796313D01*
G37*
G36*
X-90846433Y-33484959D02*
X-90715928Y-33510918D01*
X-90470061Y-33612759D01*
X-90249536Y-33760110D01*
X-90248785Y-33760612D01*
X-90060612Y-33948785D01*
X-90060610Y-33948788D01*
X-89912759Y-34170061D01*
X-89810918Y-34415928D01*
X-89810918Y-34415929D01*
X-89769683Y-34623228D01*
X-89759000Y-34676938D01*
X-89759000Y-34943062D01*
X-89810918Y-35204072D01*
X-89912759Y-35449939D01*
X-90060110Y-35670464D01*
X-90060612Y-35671215D01*
X-90248785Y-35859388D01*
X-90248788Y-35859390D01*
X-90470061Y-36007241D01*
X-90715928Y-36109082D01*
X-90846433Y-36135041D01*
X-90976937Y-36161000D01*
X-91243063Y-36161000D01*
X-91373567Y-36135041D01*
X-91504072Y-36109082D01*
X-91749939Y-36007241D01*
X-91971212Y-35859390D01*
X-91971215Y-35859388D01*
X-92159388Y-35671215D01*
X-92159890Y-35670464D01*
X-92307241Y-35449939D01*
X-92409082Y-35204072D01*
X-92461000Y-34943062D01*
X-92461000Y-34676938D01*
X-92450316Y-34623228D01*
X-92409082Y-34415929D01*
X-92409082Y-34415928D01*
X-92307241Y-34170061D01*
X-92159390Y-33948788D01*
X-92159388Y-33948785D01*
X-91971215Y-33760612D01*
X-91970464Y-33760110D01*
X-91749939Y-33612759D01*
X-91504072Y-33510918D01*
X-91373567Y-33484959D01*
X-91243063Y-33459000D01*
X-90976937Y-33459000D01*
X-90846433Y-33484959D01*
X-90846433Y-33484959D01*
G37*
G36*
X-114717996Y-33910544D02*
X-114630941Y-33927860D01*
X-114494268Y-33984472D01*
X-114494267Y-33984473D01*
X-114371262Y-34066662D01*
X-114266662Y-34171262D01*
X-114266660Y-34171265D01*
X-114184472Y-34294268D01*
X-114127860Y-34430941D01*
X-114110544Y-34517996D01*
X-114099000Y-34576031D01*
X-114099000Y-34723969D01*
X-114110544Y-34782004D01*
X-114127860Y-34869059D01*
X-114184472Y-35005732D01*
X-114265554Y-35127079D01*
X-114266662Y-35128738D01*
X-114371262Y-35233338D01*
X-114371265Y-35233340D01*
X-114494268Y-35315528D01*
X-114630941Y-35372140D01*
X-114706760Y-35387221D01*
X-114776031Y-35401000D01*
X-114923969Y-35401000D01*
X-114993240Y-35387221D01*
X-115069059Y-35372140D01*
X-115205732Y-35315528D01*
X-115328735Y-35233340D01*
X-115328738Y-35233338D01*
X-115433338Y-35128738D01*
X-115434446Y-35127079D01*
X-115515528Y-35005732D01*
X-115572140Y-34869059D01*
X-115589456Y-34782004D01*
X-115601000Y-34723969D01*
X-115601000Y-34576031D01*
X-115589456Y-34517996D01*
X-115572140Y-34430941D01*
X-115515528Y-34294268D01*
X-115433340Y-34171265D01*
X-115433338Y-34171262D01*
X-115328738Y-34066662D01*
X-115205733Y-33984473D01*
X-115205732Y-33984472D01*
X-115069059Y-33927860D01*
X-114982004Y-33910544D01*
X-114923969Y-33899000D01*
X-114776031Y-33899000D01*
X-114717996Y-33910544D01*
X-114717996Y-33910544D01*
G37*
G36*
X-127276772Y-33556703D02*
X-127121900Y-33620853D01*
X-126982519Y-33713985D01*
X-126863985Y-33832519D01*
X-126770853Y-33971900D01*
X-126706703Y-34126772D01*
X-126674000Y-34291184D01*
X-126674000Y-34458816D01*
X-126706703Y-34623228D01*
X-126770853Y-34778100D01*
X-126863985Y-34917481D01*
X-126982519Y-35036015D01*
X-127121900Y-35129147D01*
X-127276772Y-35193297D01*
X-127441184Y-35226000D01*
X-127608816Y-35226000D01*
X-127773228Y-35193297D01*
X-127928100Y-35129147D01*
X-128067481Y-35036015D01*
X-128186015Y-34917481D01*
X-128279147Y-34778100D01*
X-128343297Y-34623228D01*
X-128376000Y-34458816D01*
X-128376000Y-34291184D01*
X-128343297Y-34126772D01*
X-128279147Y-33971900D01*
X-128186015Y-33832519D01*
X-128067481Y-33713985D01*
X-127928100Y-33620853D01*
X-127773228Y-33556703D01*
X-127608816Y-33524000D01*
X-127441184Y-33524000D01*
X-127276772Y-33556703D01*
X-127276772Y-33556703D01*
G37*
G36*
X-122276772Y-33556703D02*
X-122121900Y-33620853D01*
X-121982519Y-33713985D01*
X-121863985Y-33832519D01*
X-121770853Y-33971900D01*
X-121706703Y-34126772D01*
X-121674000Y-34291184D01*
X-121674000Y-34458816D01*
X-121706703Y-34623228D01*
X-121770853Y-34778100D01*
X-121863985Y-34917481D01*
X-121982519Y-35036015D01*
X-122121900Y-35129147D01*
X-122276772Y-35193297D01*
X-122441184Y-35226000D01*
X-122608816Y-35226000D01*
X-122773228Y-35193297D01*
X-122928100Y-35129147D01*
X-123067481Y-35036015D01*
X-123186015Y-34917481D01*
X-123279147Y-34778100D01*
X-123343297Y-34623228D01*
X-123376000Y-34458816D01*
X-123376000Y-34291184D01*
X-123343297Y-34126772D01*
X-123279147Y-33971900D01*
X-123186015Y-33832519D01*
X-123067481Y-33713985D01*
X-122928100Y-33620853D01*
X-122773228Y-33556703D01*
X-122608816Y-33524000D01*
X-122441184Y-33524000D01*
X-122276772Y-33556703D01*
X-122276772Y-33556703D01*
G37*
G36*
X-111953179Y-32256313D02*
X-111953176Y-32256314D01*
X-111953175Y-32256314D01*
X-111792761Y-32304975D01*
X-111792759Y-32304976D01*
X-111792756Y-32304977D01*
X-111644922Y-32383995D01*
X-111515341Y-32490341D01*
X-111408995Y-32619922D01*
X-111329977Y-32767756D01*
X-111329976Y-32767759D01*
X-111329975Y-32767761D01*
X-111281314Y-32928175D01*
X-111281313Y-32928179D01*
X-111264883Y-33095000D01*
X-111281313Y-33261821D01*
X-111329977Y-33422244D01*
X-111408995Y-33570078D01*
X-111515341Y-33699659D01*
X-111644922Y-33806005D01*
X-111792756Y-33885023D01*
X-111792759Y-33885024D01*
X-111792761Y-33885025D01*
X-111953175Y-33933686D01*
X-111953176Y-33933686D01*
X-111953179Y-33933687D01*
X-112078196Y-33946000D01*
X-112161804Y-33946000D01*
X-112286821Y-33933687D01*
X-112286824Y-33933686D01*
X-112286825Y-33933686D01*
X-112447239Y-33885025D01*
X-112447241Y-33885024D01*
X-112447244Y-33885023D01*
X-112595078Y-33806005D01*
X-112724659Y-33699659D01*
X-112831005Y-33570078D01*
X-112910023Y-33422244D01*
X-112958687Y-33261821D01*
X-112975117Y-33095000D01*
X-112958687Y-32928179D01*
X-112958686Y-32928175D01*
X-112910025Y-32767761D01*
X-112910024Y-32767759D01*
X-112910023Y-32767756D01*
X-112831005Y-32619922D01*
X-112724659Y-32490341D01*
X-112595078Y-32383995D01*
X-112447244Y-32304977D01*
X-112447241Y-32304976D01*
X-112447239Y-32304975D01*
X-112286825Y-32256314D01*
X-112286824Y-32256314D01*
X-112286821Y-32256313D01*
X-112161804Y-32244000D01*
X-112078196Y-32244000D01*
X-111953179Y-32256313D01*
X-111953179Y-32256313D01*
G37*
G36*
X-104333179Y-32256313D02*
X-104333176Y-32256314D01*
X-104333175Y-32256314D01*
X-104172761Y-32304975D01*
X-104172759Y-32304976D01*
X-104172756Y-32304977D01*
X-104024922Y-32383995D01*
X-103895341Y-32490341D01*
X-103788995Y-32619922D01*
X-103709977Y-32767756D01*
X-103709976Y-32767759D01*
X-103709975Y-32767761D01*
X-103661314Y-32928175D01*
X-103661313Y-32928179D01*
X-103644883Y-33095000D01*
X-103661313Y-33261821D01*
X-103709977Y-33422244D01*
X-103788995Y-33570078D01*
X-103895341Y-33699659D01*
X-104024922Y-33806005D01*
X-104172756Y-33885023D01*
X-104172759Y-33885024D01*
X-104172761Y-33885025D01*
X-104333175Y-33933686D01*
X-104333176Y-33933686D01*
X-104333179Y-33933687D01*
X-104458196Y-33946000D01*
X-104541804Y-33946000D01*
X-104666821Y-33933687D01*
X-104666824Y-33933686D01*
X-104666825Y-33933686D01*
X-104827239Y-33885025D01*
X-104827241Y-33885024D01*
X-104827244Y-33885023D01*
X-104975078Y-33806005D01*
X-105104659Y-33699659D01*
X-105211005Y-33570078D01*
X-105290023Y-33422244D01*
X-105338687Y-33261821D01*
X-105355117Y-33095000D01*
X-105338687Y-32928179D01*
X-105338686Y-32928175D01*
X-105290025Y-32767761D01*
X-105290024Y-32767759D01*
X-105290023Y-32767756D01*
X-105211005Y-32619922D01*
X-105104659Y-32490341D01*
X-104975078Y-32383995D01*
X-104827244Y-32304977D01*
X-104827241Y-32304976D01*
X-104827239Y-32304975D01*
X-104666825Y-32256314D01*
X-104666824Y-32256314D01*
X-104666821Y-32256313D01*
X-104541804Y-32244000D01*
X-104458196Y-32244000D01*
X-104333179Y-32256313D01*
X-104333179Y-32256313D01*
G37*
G36*
X-99274000Y-32826000D02*
X-100976000Y-32826000D01*
X-100976000Y-31124000D01*
X-99274000Y-31124000D01*
X-99274000Y-32826000D01*
X-99274000Y-32826000D01*
G37*
G36*
X-122251772Y-30856703D02*
X-122096900Y-30920853D01*
X-121957519Y-31013985D01*
X-121838985Y-31132519D01*
X-121745853Y-31271900D01*
X-121681703Y-31426772D01*
X-121649000Y-31591184D01*
X-121649000Y-31758816D01*
X-121681703Y-31923228D01*
X-121745853Y-32078100D01*
X-121838985Y-32217481D01*
X-121957519Y-32336015D01*
X-122096900Y-32429147D01*
X-122251772Y-32493297D01*
X-122416184Y-32526000D01*
X-122583816Y-32526000D01*
X-122748228Y-32493297D01*
X-122903100Y-32429147D01*
X-123042481Y-32336015D01*
X-123161015Y-32217481D01*
X-123254147Y-32078100D01*
X-123318297Y-31923228D01*
X-123351000Y-31758816D01*
X-123351000Y-31591184D01*
X-123318297Y-31426772D01*
X-123254147Y-31271900D01*
X-123161015Y-31132519D01*
X-123042481Y-31013985D01*
X-122903100Y-30920853D01*
X-122748228Y-30856703D01*
X-122583816Y-30824000D01*
X-122416184Y-30824000D01*
X-122251772Y-30856703D01*
X-122251772Y-30856703D01*
G37*
G36*
X-127251772Y-30856703D02*
X-127096900Y-30920853D01*
X-126957519Y-31013985D01*
X-126838985Y-31132519D01*
X-126745853Y-31271900D01*
X-126681703Y-31426772D01*
X-126649000Y-31591184D01*
X-126649000Y-31758816D01*
X-126681703Y-31923228D01*
X-126745853Y-32078100D01*
X-126838985Y-32217481D01*
X-126957519Y-32336015D01*
X-127096900Y-32429147D01*
X-127251772Y-32493297D01*
X-127416184Y-32526000D01*
X-127583816Y-32526000D01*
X-127748228Y-32493297D01*
X-127903100Y-32429147D01*
X-128042481Y-32336015D01*
X-128161015Y-32217481D01*
X-128254147Y-32078100D01*
X-128318297Y-31923228D01*
X-128351000Y-31758816D01*
X-128351000Y-31591184D01*
X-128318297Y-31426772D01*
X-128254147Y-31271900D01*
X-128161015Y-31132519D01*
X-128042481Y-31013985D01*
X-127903100Y-30920853D01*
X-127748228Y-30856703D01*
X-127583816Y-30824000D01*
X-127416184Y-30824000D01*
X-127251772Y-30856703D01*
X-127251772Y-30856703D01*
G37*
G36*
X-104333179Y-29716313D02*
X-104333176Y-29716314D01*
X-104333175Y-29716314D01*
X-104172761Y-29764975D01*
X-104172759Y-29764976D01*
X-104172756Y-29764977D01*
X-104024922Y-29843995D01*
X-103895341Y-29950341D01*
X-103788995Y-30079922D01*
X-103709977Y-30227756D01*
X-103709976Y-30227759D01*
X-103709975Y-30227761D01*
X-103690095Y-30293297D01*
X-103661313Y-30388179D01*
X-103644883Y-30555000D01*
X-103661313Y-30721821D01*
X-103661314Y-30721824D01*
X-103661314Y-30721825D01*
X-103703043Y-30859388D01*
X-103709977Y-30882244D01*
X-103788995Y-31030078D01*
X-103895341Y-31159659D01*
X-104024922Y-31266005D01*
X-104172756Y-31345023D01*
X-104172759Y-31345024D01*
X-104172761Y-31345025D01*
X-104333175Y-31393686D01*
X-104333176Y-31393686D01*
X-104333179Y-31393687D01*
X-104458196Y-31406000D01*
X-104541804Y-31406000D01*
X-104666821Y-31393687D01*
X-104666824Y-31393686D01*
X-104666825Y-31393686D01*
X-104827239Y-31345025D01*
X-104827241Y-31345024D01*
X-104827244Y-31345023D01*
X-104975078Y-31266005D01*
X-105104659Y-31159659D01*
X-105211005Y-31030078D01*
X-105290023Y-30882244D01*
X-105296956Y-30859388D01*
X-105338686Y-30721825D01*
X-105338686Y-30721824D01*
X-105338687Y-30721821D01*
X-105355117Y-30555000D01*
X-105338687Y-30388179D01*
X-105309905Y-30293297D01*
X-105290025Y-30227761D01*
X-105290024Y-30227759D01*
X-105290023Y-30227756D01*
X-105211005Y-30079922D01*
X-105104659Y-29950341D01*
X-104975078Y-29843995D01*
X-104827244Y-29764977D01*
X-104827241Y-29764976D01*
X-104827239Y-29764975D01*
X-104666825Y-29716314D01*
X-104666824Y-29716314D01*
X-104666821Y-29716313D01*
X-104541804Y-29704000D01*
X-104458196Y-29704000D01*
X-104333179Y-29716313D01*
X-104333179Y-29716313D01*
G37*
G36*
X-111953179Y-29716313D02*
X-111953176Y-29716314D01*
X-111953175Y-29716314D01*
X-111792761Y-29764975D01*
X-111792759Y-29764976D01*
X-111792756Y-29764977D01*
X-111644922Y-29843995D01*
X-111515341Y-29950341D01*
X-111408995Y-30079922D01*
X-111329977Y-30227756D01*
X-111329976Y-30227759D01*
X-111329975Y-30227761D01*
X-111310095Y-30293297D01*
X-111281313Y-30388179D01*
X-111264883Y-30555000D01*
X-111281313Y-30721821D01*
X-111281314Y-30721824D01*
X-111281314Y-30721825D01*
X-111323043Y-30859388D01*
X-111329977Y-30882244D01*
X-111408995Y-31030078D01*
X-111515341Y-31159659D01*
X-111644922Y-31266005D01*
X-111792756Y-31345023D01*
X-111792759Y-31345024D01*
X-111792761Y-31345025D01*
X-111953175Y-31393686D01*
X-111953176Y-31393686D01*
X-111953179Y-31393687D01*
X-112078196Y-31406000D01*
X-112161804Y-31406000D01*
X-112286821Y-31393687D01*
X-112286824Y-31393686D01*
X-112286825Y-31393686D01*
X-112447239Y-31345025D01*
X-112447241Y-31345024D01*
X-112447244Y-31345023D01*
X-112595078Y-31266005D01*
X-112724659Y-31159659D01*
X-112831005Y-31030078D01*
X-112910023Y-30882244D01*
X-112916956Y-30859388D01*
X-112958686Y-30721825D01*
X-112958686Y-30721824D01*
X-112958687Y-30721821D01*
X-112975117Y-30555000D01*
X-112958687Y-30388179D01*
X-112929905Y-30293297D01*
X-112910025Y-30227761D01*
X-112910024Y-30227759D01*
X-112910023Y-30227756D01*
X-112831005Y-30079922D01*
X-112724659Y-29950341D01*
X-112595078Y-29843995D01*
X-112447244Y-29764977D01*
X-112447241Y-29764976D01*
X-112447239Y-29764975D01*
X-112286825Y-29716314D01*
X-112286824Y-29716314D01*
X-112286821Y-29716313D01*
X-112161804Y-29704000D01*
X-112078196Y-29704000D01*
X-111953179Y-29716313D01*
X-111953179Y-29716313D01*
G37*
G36*
X-90846433Y-28484959D02*
X-90715928Y-28510918D01*
X-90470061Y-28612759D01*
X-90300578Y-28726005D01*
X-90248785Y-28760612D01*
X-90060612Y-28948785D01*
X-90060610Y-28948788D01*
X-89912759Y-29170061D01*
X-89810918Y-29415928D01*
X-89759000Y-29676938D01*
X-89759000Y-29943062D01*
X-89810918Y-30204072D01*
X-89912759Y-30449939D01*
X-90060110Y-30670464D01*
X-90060612Y-30671215D01*
X-90248785Y-30859388D01*
X-90248788Y-30859390D01*
X-90470061Y-31007241D01*
X-90715928Y-31109082D01*
X-90790926Y-31124000D01*
X-90976937Y-31161000D01*
X-91243063Y-31161000D01*
X-91429074Y-31124000D01*
X-91504072Y-31109082D01*
X-91749939Y-31007241D01*
X-91971212Y-30859390D01*
X-91971215Y-30859388D01*
X-92159388Y-30671215D01*
X-92159890Y-30670464D01*
X-92307241Y-30449939D01*
X-92409082Y-30204072D01*
X-92461000Y-29943062D01*
X-92461000Y-29676938D01*
X-92409082Y-29415928D01*
X-92307241Y-29170061D01*
X-92159390Y-28948788D01*
X-92159388Y-28948785D01*
X-91971215Y-28760612D01*
X-91919422Y-28726005D01*
X-91749939Y-28612759D01*
X-91504072Y-28510918D01*
X-91373567Y-28484959D01*
X-91243063Y-28459000D01*
X-90976937Y-28459000D01*
X-90846433Y-28484959D01*
X-90846433Y-28484959D01*
G37*
G36*
X-99876772Y-28656703D02*
X-99721900Y-28720853D01*
X-99582519Y-28813985D01*
X-99463985Y-28932519D01*
X-99370853Y-29071900D01*
X-99306703Y-29226772D01*
X-99274000Y-29391184D01*
X-99274000Y-29558816D01*
X-99306703Y-29723228D01*
X-99370853Y-29878100D01*
X-99463985Y-30017481D01*
X-99582519Y-30136015D01*
X-99721900Y-30229147D01*
X-99876772Y-30293297D01*
X-100041184Y-30326000D01*
X-100208816Y-30326000D01*
X-100373228Y-30293297D01*
X-100528100Y-30229147D01*
X-100667481Y-30136015D01*
X-100786015Y-30017481D01*
X-100879147Y-29878100D01*
X-100943297Y-29723228D01*
X-100976000Y-29558816D01*
X-100976000Y-29391184D01*
X-100943297Y-29226772D01*
X-100879147Y-29071900D01*
X-100786015Y-28932519D01*
X-100667481Y-28813985D01*
X-100528100Y-28720853D01*
X-100373228Y-28656703D01*
X-100208816Y-28624000D01*
X-100041184Y-28624000D01*
X-99876772Y-28656703D01*
X-99876772Y-28656703D01*
G37*
G36*
X-104333179Y-27176313D02*
X-104333176Y-27176314D01*
X-104333175Y-27176314D01*
X-104172761Y-27224975D01*
X-104172759Y-27224976D01*
X-104172756Y-27224977D01*
X-104024922Y-27303995D01*
X-103895341Y-27410341D01*
X-103788995Y-27539922D01*
X-103709977Y-27687756D01*
X-103661313Y-27848179D01*
X-103644883Y-28015000D01*
X-103661313Y-28181821D01*
X-103709977Y-28342244D01*
X-103788995Y-28490078D01*
X-103895341Y-28619659D01*
X-104024922Y-28726005D01*
X-104172756Y-28805023D01*
X-104172759Y-28805024D01*
X-104172761Y-28805025D01*
X-104333175Y-28853686D01*
X-104333176Y-28853686D01*
X-104333179Y-28853687D01*
X-104458196Y-28866000D01*
X-104541804Y-28866000D01*
X-104666821Y-28853687D01*
X-104666824Y-28853686D01*
X-104666825Y-28853686D01*
X-104827239Y-28805025D01*
X-104827241Y-28805024D01*
X-104827244Y-28805023D01*
X-104975078Y-28726005D01*
X-105104659Y-28619659D01*
X-105211005Y-28490078D01*
X-105290023Y-28342244D01*
X-105338687Y-28181821D01*
X-105355117Y-28015000D01*
X-105338687Y-27848179D01*
X-105290023Y-27687756D01*
X-105211005Y-27539922D01*
X-105104659Y-27410341D01*
X-104975078Y-27303995D01*
X-104827244Y-27224977D01*
X-104827241Y-27224976D01*
X-104827239Y-27224975D01*
X-104666825Y-27176314D01*
X-104666824Y-27176314D01*
X-104666821Y-27176313D01*
X-104541804Y-27164000D01*
X-104458196Y-27164000D01*
X-104333179Y-27176313D01*
X-104333179Y-27176313D01*
G37*
G36*
X-111953179Y-27176313D02*
X-111953176Y-27176314D01*
X-111953175Y-27176314D01*
X-111792761Y-27224975D01*
X-111792759Y-27224976D01*
X-111792756Y-27224977D01*
X-111644922Y-27303995D01*
X-111515341Y-27410341D01*
X-111408995Y-27539922D01*
X-111329977Y-27687756D01*
X-111281313Y-27848179D01*
X-111264883Y-28015000D01*
X-111281313Y-28181821D01*
X-111329977Y-28342244D01*
X-111408995Y-28490078D01*
X-111515341Y-28619659D01*
X-111644922Y-28726005D01*
X-111792756Y-28805023D01*
X-111792759Y-28805024D01*
X-111792761Y-28805025D01*
X-111953175Y-28853686D01*
X-111953176Y-28853686D01*
X-111953179Y-28853687D01*
X-112078196Y-28866000D01*
X-112161804Y-28866000D01*
X-112286821Y-28853687D01*
X-112286824Y-28853686D01*
X-112286825Y-28853686D01*
X-112447239Y-28805025D01*
X-112447241Y-28805024D01*
X-112447244Y-28805023D01*
X-112595078Y-28726005D01*
X-112724659Y-28619659D01*
X-112831005Y-28490078D01*
X-112910023Y-28342244D01*
X-112958687Y-28181821D01*
X-112975117Y-28015000D01*
X-112958687Y-27848179D01*
X-112910023Y-27687756D01*
X-112831005Y-27539922D01*
X-112724659Y-27410341D01*
X-112595078Y-27303995D01*
X-112447244Y-27224977D01*
X-112447241Y-27224976D01*
X-112447239Y-27224975D01*
X-112286825Y-27176314D01*
X-112286824Y-27176314D01*
X-112286821Y-27176313D01*
X-112161804Y-27164000D01*
X-112078196Y-27164000D01*
X-111953179Y-27176313D01*
X-111953179Y-27176313D01*
G37*
G36*
X-124206433Y-24494959D02*
X-124075928Y-24520918D01*
X-123830061Y-24622759D01*
X-123609536Y-24770110D01*
X-123608785Y-24770612D01*
X-123420612Y-24958785D01*
X-123420610Y-24958788D01*
X-123272759Y-25180061D01*
X-123170918Y-25425928D01*
X-123170918Y-25425929D01*
X-123127973Y-25641825D01*
X-123119000Y-25686938D01*
X-123119000Y-25953062D01*
X-123170918Y-26214072D01*
X-123272759Y-26459939D01*
X-123420110Y-26680464D01*
X-123420612Y-26681215D01*
X-123608785Y-26869388D01*
X-123608788Y-26869390D01*
X-123830061Y-27017241D01*
X-124075928Y-27119082D01*
X-124206433Y-27145041D01*
X-124336937Y-27171000D01*
X-124603063Y-27171000D01*
X-124733567Y-27145041D01*
X-124864072Y-27119082D01*
X-125109939Y-27017241D01*
X-125331212Y-26869390D01*
X-125331215Y-26869388D01*
X-125519388Y-26681215D01*
X-125519890Y-26680464D01*
X-125667241Y-26459939D01*
X-125769082Y-26214072D01*
X-125821000Y-25953062D01*
X-125821000Y-25686938D01*
X-125812026Y-25641825D01*
X-125769082Y-25425929D01*
X-125769082Y-25425928D01*
X-125667241Y-25180061D01*
X-125519390Y-24958788D01*
X-125519388Y-24958785D01*
X-125331215Y-24770612D01*
X-125330464Y-24770110D01*
X-125109939Y-24622759D01*
X-124864072Y-24520918D01*
X-124733567Y-24494959D01*
X-124603063Y-24469000D01*
X-124336937Y-24469000D01*
X-124206433Y-24494959D01*
X-124206433Y-24494959D01*
G37*
G36*
X-117129000Y-26531000D02*
X-118931000Y-26531000D01*
X-118931000Y-24729000D01*
X-117129000Y-24729000D01*
X-117129000Y-26531000D01*
X-117129000Y-26531000D01*
G37*
G36*
X-111953179Y-24636313D02*
X-111953176Y-24636314D01*
X-111953175Y-24636314D01*
X-111792761Y-24684975D01*
X-111792759Y-24684976D01*
X-111792756Y-24684977D01*
X-111644922Y-24763995D01*
X-111515341Y-24870341D01*
X-111408995Y-24999922D01*
X-111329977Y-25147756D01*
X-111329976Y-25147759D01*
X-111329975Y-25147761D01*
X-111281314Y-25308175D01*
X-111281313Y-25308179D01*
X-111264883Y-25475000D01*
X-111281313Y-25641821D01*
X-111281314Y-25641824D01*
X-111281314Y-25641825D01*
X-111290229Y-25671215D01*
X-111329977Y-25802244D01*
X-111408995Y-25950078D01*
X-111515341Y-26079659D01*
X-111644922Y-26186005D01*
X-111792756Y-26265023D01*
X-111792759Y-26265024D01*
X-111792761Y-26265025D01*
X-111953175Y-26313686D01*
X-111953176Y-26313686D01*
X-111953179Y-26313687D01*
X-112078196Y-26326000D01*
X-112161804Y-26326000D01*
X-112286821Y-26313687D01*
X-112286824Y-26313686D01*
X-112286825Y-26313686D01*
X-112447239Y-26265025D01*
X-112447241Y-26265024D01*
X-112447244Y-26265023D01*
X-112595078Y-26186005D01*
X-112724659Y-26079659D01*
X-112831005Y-25950078D01*
X-112910023Y-25802244D01*
X-112949770Y-25671215D01*
X-112958686Y-25641825D01*
X-112958686Y-25641824D01*
X-112958687Y-25641821D01*
X-112975117Y-25475000D01*
X-112958687Y-25308179D01*
X-112958686Y-25308175D01*
X-112910025Y-25147761D01*
X-112910024Y-25147759D01*
X-112910023Y-25147756D01*
X-112831005Y-24999922D01*
X-112724659Y-24870341D01*
X-112595078Y-24763995D01*
X-112447244Y-24684977D01*
X-112447241Y-24684976D01*
X-112447239Y-24684975D01*
X-112286825Y-24636314D01*
X-112286824Y-24636314D01*
X-112286821Y-24636313D01*
X-112161804Y-24624000D01*
X-112078196Y-24624000D01*
X-111953179Y-24636313D01*
X-111953179Y-24636313D01*
G37*
G36*
X-104333179Y-24636313D02*
X-104333176Y-24636314D01*
X-104333175Y-24636314D01*
X-104172761Y-24684975D01*
X-104172759Y-24684976D01*
X-104172756Y-24684977D01*
X-104024922Y-24763995D01*
X-103895341Y-24870341D01*
X-103788995Y-24999922D01*
X-103709977Y-25147756D01*
X-103709976Y-25147759D01*
X-103709975Y-25147761D01*
X-103661314Y-25308175D01*
X-103661313Y-25308179D01*
X-103644883Y-25475000D01*
X-103661313Y-25641821D01*
X-103661314Y-25641824D01*
X-103661314Y-25641825D01*
X-103670229Y-25671215D01*
X-103709977Y-25802244D01*
X-103788995Y-25950078D01*
X-103895341Y-26079659D01*
X-104024922Y-26186005D01*
X-104172756Y-26265023D01*
X-104172759Y-26265024D01*
X-104172761Y-26265025D01*
X-104333175Y-26313686D01*
X-104333176Y-26313686D01*
X-104333179Y-26313687D01*
X-104458196Y-26326000D01*
X-104541804Y-26326000D01*
X-104666821Y-26313687D01*
X-104666824Y-26313686D01*
X-104666825Y-26313686D01*
X-104827239Y-26265025D01*
X-104827241Y-26265024D01*
X-104827244Y-26265023D01*
X-104975078Y-26186005D01*
X-105104659Y-26079659D01*
X-105211005Y-25950078D01*
X-105290023Y-25802244D01*
X-105329770Y-25671215D01*
X-105338686Y-25641825D01*
X-105338686Y-25641824D01*
X-105338687Y-25641821D01*
X-105355117Y-25475000D01*
X-105338687Y-25308179D01*
X-105338686Y-25308175D01*
X-105290025Y-25147761D01*
X-105290024Y-25147759D01*
X-105290023Y-25147756D01*
X-105211005Y-24999922D01*
X-105104659Y-24870341D01*
X-104975078Y-24763995D01*
X-104827244Y-24684977D01*
X-104827241Y-24684976D01*
X-104827239Y-24684975D01*
X-104666825Y-24636314D01*
X-104666824Y-24636314D01*
X-104666821Y-24636313D01*
X-104541804Y-24624000D01*
X-104458196Y-24624000D01*
X-104333179Y-24636313D01*
X-104333179Y-24636313D01*
G37*
G36*
X-90846433Y-23484959D02*
X-90715928Y-23510918D01*
X-90470061Y-23612759D01*
X-90249536Y-23760110D01*
X-90248785Y-23760612D01*
X-90060612Y-23948785D01*
X-90060610Y-23948788D01*
X-89912759Y-24170061D01*
X-89836614Y-24353893D01*
X-89810918Y-24415929D01*
X-89759000Y-24676937D01*
X-89759000Y-24943063D01*
X-89767310Y-24984838D01*
X-89810918Y-25204072D01*
X-89912759Y-25449939D01*
X-90040974Y-25641825D01*
X-90060612Y-25671215D01*
X-90248785Y-25859388D01*
X-90248788Y-25859390D01*
X-90470061Y-26007241D01*
X-90715928Y-26109082D01*
X-90846433Y-26135041D01*
X-90976937Y-26161000D01*
X-91243063Y-26161000D01*
X-91373567Y-26135041D01*
X-91504072Y-26109082D01*
X-91749939Y-26007241D01*
X-91971212Y-25859390D01*
X-91971215Y-25859388D01*
X-92159388Y-25671215D01*
X-92179026Y-25641825D01*
X-92307241Y-25449939D01*
X-92409082Y-25204072D01*
X-92452690Y-24984838D01*
X-92461000Y-24943063D01*
X-92461000Y-24676937D01*
X-92409082Y-24415929D01*
X-92383386Y-24353893D01*
X-92307241Y-24170061D01*
X-92159390Y-23948788D01*
X-92159388Y-23948785D01*
X-91971215Y-23760612D01*
X-91970464Y-23760110D01*
X-91749939Y-23612759D01*
X-91504072Y-23510918D01*
X-91373567Y-23484959D01*
X-91243063Y-23459000D01*
X-90976937Y-23459000D01*
X-90846433Y-23484959D01*
X-90846433Y-23484959D01*
G37*
G36*
X-99691357Y-23504781D02*
X-99545585Y-23565162D01*
X-99414389Y-23652824D01*
X-99302824Y-23764389D01*
X-99215162Y-23895585D01*
X-99154781Y-24041357D01*
X-99124000Y-24196107D01*
X-99124000Y-24353893D01*
X-99154781Y-24508643D01*
X-99215162Y-24654415D01*
X-99302824Y-24785611D01*
X-99414389Y-24897176D01*
X-99545585Y-24984838D01*
X-99691357Y-25045219D01*
X-99846107Y-25076000D01*
X-100003893Y-25076000D01*
X-100158643Y-25045219D01*
X-100304415Y-24984838D01*
X-100435611Y-24897176D01*
X-100547176Y-24785611D01*
X-100634838Y-24654415D01*
X-100695219Y-24508643D01*
X-100726000Y-24353893D01*
X-100726000Y-24196107D01*
X-100695219Y-24041357D01*
X-100634838Y-23895585D01*
X-100547176Y-23764389D01*
X-100435611Y-23652824D01*
X-100304415Y-23565162D01*
X-100158643Y-23504781D01*
X-100003893Y-23474000D01*
X-99846107Y-23474000D01*
X-99691357Y-23504781D01*
X-99691357Y-23504781D01*
G37*
G36*
X-117919558Y-22195518D02*
X-117853373Y-22202037D01*
X-117780984Y-22223996D01*
X-117683533Y-22253557D01*
X-117544913Y-22327652D01*
X-117527009Y-22337222D01*
X-117491271Y-22366552D01*
X-117389814Y-22449814D01*
X-117306552Y-22551271D01*
X-117277222Y-22587009D01*
X-117277221Y-22587011D01*
X-117193557Y-22743533D01*
X-117193557Y-22743534D01*
X-117142037Y-22913373D01*
X-117124641Y-23090000D01*
X-117142037Y-23266627D01*
X-117176384Y-23379853D01*
X-117193557Y-23436467D01*
X-117267652Y-23575087D01*
X-117277222Y-23592991D01*
X-117306552Y-23628729D01*
X-117389814Y-23730186D01*
X-117457825Y-23786000D01*
X-117527009Y-23842778D01*
X-117527011Y-23842779D01*
X-117683533Y-23926443D01*
X-117740147Y-23943616D01*
X-117853373Y-23977963D01*
X-117919558Y-23984482D01*
X-117985740Y-23991000D01*
X-118074260Y-23991000D01*
X-118140443Y-23984481D01*
X-118206627Y-23977963D01*
X-118319853Y-23943616D01*
X-118376467Y-23926443D01*
X-118532989Y-23842779D01*
X-118532991Y-23842778D01*
X-118602175Y-23786000D01*
X-118670186Y-23730186D01*
X-118753448Y-23628729D01*
X-118782778Y-23592991D01*
X-118792348Y-23575087D01*
X-118866443Y-23436467D01*
X-118883616Y-23379853D01*
X-118917963Y-23266627D01*
X-118935359Y-23090000D01*
X-118917963Y-22913373D01*
X-118866443Y-22743534D01*
X-118866443Y-22743533D01*
X-118782779Y-22587011D01*
X-118782778Y-22587009D01*
X-118753448Y-22551271D01*
X-118670186Y-22449814D01*
X-118568729Y-22366552D01*
X-118532991Y-22337222D01*
X-118515087Y-22327652D01*
X-118376467Y-22253557D01*
X-118279016Y-22223996D01*
X-118206627Y-22202037D01*
X-118140443Y-22195519D01*
X-118074260Y-22189000D01*
X-117985740Y-22189000D01*
X-117919558Y-22195518D01*
X-117919558Y-22195518D01*
G37*
G36*
X-104333179Y-22096313D02*
X-104333176Y-22096314D01*
X-104333175Y-22096314D01*
X-104172761Y-22144975D01*
X-104172759Y-22144976D01*
X-104172756Y-22144977D01*
X-104024922Y-22223995D01*
X-103895341Y-22330341D01*
X-103788995Y-22459922D01*
X-103709977Y-22607756D01*
X-103661313Y-22768179D01*
X-103644883Y-22935000D01*
X-103661313Y-23101821D01*
X-103709977Y-23262244D01*
X-103788995Y-23410078D01*
X-103895341Y-23539659D01*
X-104024922Y-23646005D01*
X-104172756Y-23725023D01*
X-104172759Y-23725024D01*
X-104172761Y-23725025D01*
X-104333175Y-23773686D01*
X-104333176Y-23773686D01*
X-104333179Y-23773687D01*
X-104458196Y-23786000D01*
X-104541804Y-23786000D01*
X-104666821Y-23773687D01*
X-104666824Y-23773686D01*
X-104666825Y-23773686D01*
X-104827239Y-23725025D01*
X-104827241Y-23725024D01*
X-104827244Y-23725023D01*
X-104975078Y-23646005D01*
X-105104659Y-23539659D01*
X-105211005Y-23410078D01*
X-105290023Y-23262244D01*
X-105338687Y-23101821D01*
X-105355117Y-22935000D01*
X-105338687Y-22768179D01*
X-105290023Y-22607756D01*
X-105211005Y-22459922D01*
X-105104659Y-22330341D01*
X-104975078Y-22223995D01*
X-104827244Y-22144977D01*
X-104827241Y-22144976D01*
X-104827239Y-22144975D01*
X-104666825Y-22096314D01*
X-104666824Y-22096314D01*
X-104666821Y-22096313D01*
X-104541804Y-22084000D01*
X-104458196Y-22084000D01*
X-104333179Y-22096313D01*
X-104333179Y-22096313D01*
G37*
G36*
X-111953179Y-22096313D02*
X-111953176Y-22096314D01*
X-111953175Y-22096314D01*
X-111792761Y-22144975D01*
X-111792759Y-22144976D01*
X-111792756Y-22144977D01*
X-111644922Y-22223995D01*
X-111515341Y-22330341D01*
X-111408995Y-22459922D01*
X-111329977Y-22607756D01*
X-111281313Y-22768179D01*
X-111264883Y-22935000D01*
X-111281313Y-23101821D01*
X-111329977Y-23262244D01*
X-111408995Y-23410078D01*
X-111515341Y-23539659D01*
X-111644922Y-23646005D01*
X-111792756Y-23725023D01*
X-111792759Y-23725024D01*
X-111792761Y-23725025D01*
X-111953175Y-23773686D01*
X-111953176Y-23773686D01*
X-111953179Y-23773687D01*
X-112078196Y-23786000D01*
X-112161804Y-23786000D01*
X-112286821Y-23773687D01*
X-112286824Y-23773686D01*
X-112286825Y-23773686D01*
X-112447239Y-23725025D01*
X-112447241Y-23725024D01*
X-112447244Y-23725023D01*
X-112595078Y-23646005D01*
X-112724659Y-23539659D01*
X-112831005Y-23410078D01*
X-112910023Y-23262244D01*
X-112958687Y-23101821D01*
X-112975117Y-22935000D01*
X-112958687Y-22768179D01*
X-112910023Y-22607756D01*
X-112831005Y-22459922D01*
X-112724659Y-22330341D01*
X-112595078Y-22223995D01*
X-112447244Y-22144977D01*
X-112447241Y-22144976D01*
X-112447239Y-22144975D01*
X-112286825Y-22096314D01*
X-112286824Y-22096314D01*
X-112286821Y-22096313D01*
X-112161804Y-22084000D01*
X-112078196Y-22084000D01*
X-111953179Y-22096313D01*
X-111953179Y-22096313D01*
G37*
G36*
X-124206433Y-19494959D02*
X-124075928Y-19520918D01*
X-123830061Y-19622759D01*
X-123643304Y-19747547D01*
X-123608785Y-19770612D01*
X-123420612Y-19958785D01*
X-123420610Y-19958788D01*
X-123272759Y-20180061D01*
X-123170918Y-20425928D01*
X-123119000Y-20686938D01*
X-123119000Y-20953062D01*
X-123170918Y-21214072D01*
X-123272759Y-21459939D01*
X-123420110Y-21680464D01*
X-123420612Y-21681215D01*
X-123608785Y-21869388D01*
X-123608788Y-21869390D01*
X-123830061Y-22017241D01*
X-124075928Y-22119082D01*
X-124206101Y-22144975D01*
X-124336937Y-22171000D01*
X-124603063Y-22171000D01*
X-124733899Y-22144975D01*
X-124864072Y-22119082D01*
X-125109939Y-22017241D01*
X-125331212Y-21869390D01*
X-125331215Y-21869388D01*
X-125519388Y-21681215D01*
X-125519890Y-21680464D01*
X-125667241Y-21459939D01*
X-125769082Y-21214072D01*
X-125821000Y-20953062D01*
X-125821000Y-20686938D01*
X-125769082Y-20425928D01*
X-125667241Y-20180061D01*
X-125519390Y-19958788D01*
X-125519388Y-19958785D01*
X-125331215Y-19770612D01*
X-125296696Y-19747547D01*
X-125109939Y-19622759D01*
X-124864072Y-19520918D01*
X-124733567Y-19494959D01*
X-124603063Y-19469000D01*
X-124336937Y-19469000D01*
X-124206433Y-19494959D01*
X-124206433Y-19494959D01*
G37*
G36*
X-117919557Y-19655519D02*
X-117853373Y-19662037D01*
X-117780984Y-19683996D01*
X-117683533Y-19713557D01*
X-117576796Y-19770610D01*
X-117527009Y-19797222D01*
X-117491271Y-19826552D01*
X-117389814Y-19909814D01*
X-117306552Y-20011271D01*
X-117277222Y-20047009D01*
X-117277221Y-20047011D01*
X-117193557Y-20203533D01*
X-117193557Y-20203534D01*
X-117142037Y-20373373D01*
X-117124641Y-20550000D01*
X-117142037Y-20726627D01*
X-117143283Y-20730733D01*
X-117193557Y-20896467D01*
X-117248715Y-20999659D01*
X-117277222Y-21052991D01*
X-117306552Y-21088729D01*
X-117389814Y-21190186D01*
X-117457825Y-21246000D01*
X-117527009Y-21302778D01*
X-117527011Y-21302779D01*
X-117683533Y-21386443D01*
X-117740147Y-21403616D01*
X-117853373Y-21437963D01*
X-117919558Y-21444482D01*
X-117985740Y-21451000D01*
X-118074260Y-21451000D01*
X-118140442Y-21444482D01*
X-118206627Y-21437963D01*
X-118319853Y-21403616D01*
X-118376467Y-21386443D01*
X-118532989Y-21302779D01*
X-118532991Y-21302778D01*
X-118602175Y-21246000D01*
X-118670186Y-21190186D01*
X-118753448Y-21088729D01*
X-118782778Y-21052991D01*
X-118811285Y-20999659D01*
X-118866443Y-20896467D01*
X-118916717Y-20730733D01*
X-118917963Y-20726627D01*
X-118935359Y-20550000D01*
X-118917963Y-20373373D01*
X-118866443Y-20203534D01*
X-118866443Y-20203533D01*
X-118782779Y-20047011D01*
X-118782778Y-20047009D01*
X-118753448Y-20011271D01*
X-118670186Y-19909814D01*
X-118568729Y-19826552D01*
X-118532991Y-19797222D01*
X-118483204Y-19770610D01*
X-118376467Y-19713557D01*
X-118279016Y-19683996D01*
X-118206627Y-19662037D01*
X-118140443Y-19655519D01*
X-118074260Y-19649000D01*
X-117985740Y-19649000D01*
X-117919557Y-19655519D01*
X-117919557Y-19655519D01*
G37*
G36*
X-104333179Y-19556313D02*
X-104333176Y-19556314D01*
X-104333175Y-19556314D01*
X-104172761Y-19604975D01*
X-104172759Y-19604976D01*
X-104172756Y-19604977D01*
X-104024922Y-19683995D01*
X-103895341Y-19790341D01*
X-103788995Y-19919922D01*
X-103709977Y-20067756D01*
X-103709976Y-20067759D01*
X-103709975Y-20067761D01*
X-103661434Y-20227780D01*
X-103661313Y-20228179D01*
X-103644883Y-20395000D01*
X-103661313Y-20561821D01*
X-103661314Y-20561824D01*
X-103661314Y-20561825D01*
X-103699266Y-20686937D01*
X-103709977Y-20722244D01*
X-103788995Y-20870078D01*
X-103895341Y-20999659D01*
X-104024922Y-21106005D01*
X-104172756Y-21185023D01*
X-104172759Y-21185024D01*
X-104172761Y-21185025D01*
X-104333175Y-21233686D01*
X-104333176Y-21233686D01*
X-104333179Y-21233687D01*
X-104458196Y-21246000D01*
X-104541804Y-21246000D01*
X-104666821Y-21233687D01*
X-104666824Y-21233686D01*
X-104666825Y-21233686D01*
X-104827239Y-21185025D01*
X-104827241Y-21185024D01*
X-104827244Y-21185023D01*
X-104975078Y-21106005D01*
X-105104659Y-20999659D01*
X-105211005Y-20870078D01*
X-105290023Y-20722244D01*
X-105300733Y-20686937D01*
X-105338686Y-20561825D01*
X-105338686Y-20561824D01*
X-105338687Y-20561821D01*
X-105355117Y-20395000D01*
X-105338687Y-20228179D01*
X-105338566Y-20227780D01*
X-105290025Y-20067761D01*
X-105290024Y-20067759D01*
X-105290023Y-20067756D01*
X-105211005Y-19919922D01*
X-105104659Y-19790341D01*
X-104975078Y-19683995D01*
X-104827244Y-19604977D01*
X-104827241Y-19604976D01*
X-104827239Y-19604975D01*
X-104666825Y-19556314D01*
X-104666824Y-19556314D01*
X-104666821Y-19556313D01*
X-104541804Y-19544000D01*
X-104458196Y-19544000D01*
X-104333179Y-19556313D01*
X-104333179Y-19556313D01*
G37*
G36*
X-111953179Y-19556313D02*
X-111953176Y-19556314D01*
X-111953175Y-19556314D01*
X-111792761Y-19604975D01*
X-111792759Y-19604976D01*
X-111792756Y-19604977D01*
X-111644922Y-19683995D01*
X-111515341Y-19790341D01*
X-111408995Y-19919922D01*
X-111329977Y-20067756D01*
X-111329976Y-20067759D01*
X-111329975Y-20067761D01*
X-111281434Y-20227780D01*
X-111281313Y-20228179D01*
X-111264883Y-20395000D01*
X-111281313Y-20561821D01*
X-111281314Y-20561824D01*
X-111281314Y-20561825D01*
X-111319266Y-20686937D01*
X-111329977Y-20722244D01*
X-111408995Y-20870078D01*
X-111515341Y-20999659D01*
X-111644922Y-21106005D01*
X-111792756Y-21185023D01*
X-111792759Y-21185024D01*
X-111792761Y-21185025D01*
X-111953175Y-21233686D01*
X-111953176Y-21233686D01*
X-111953179Y-21233687D01*
X-112078196Y-21246000D01*
X-112161804Y-21246000D01*
X-112286821Y-21233687D01*
X-112286824Y-21233686D01*
X-112286825Y-21233686D01*
X-112447239Y-21185025D01*
X-112447241Y-21185024D01*
X-112447244Y-21185023D01*
X-112595078Y-21106005D01*
X-112724659Y-20999659D01*
X-112831005Y-20870078D01*
X-112910023Y-20722244D01*
X-112920733Y-20686937D01*
X-112958686Y-20561825D01*
X-112958686Y-20561824D01*
X-112958687Y-20561821D01*
X-112975117Y-20395000D01*
X-112958687Y-20228179D01*
X-112958566Y-20227780D01*
X-112910025Y-20067761D01*
X-112910024Y-20067759D01*
X-112910023Y-20067756D01*
X-112831005Y-19919922D01*
X-112724659Y-19790341D01*
X-112595078Y-19683995D01*
X-112447244Y-19604977D01*
X-112447241Y-19604976D01*
X-112447239Y-19604975D01*
X-112286825Y-19556314D01*
X-112286824Y-19556314D01*
X-112286821Y-19556313D01*
X-112161804Y-19544000D01*
X-112078196Y-19544000D01*
X-111953179Y-19556313D01*
X-111953179Y-19556313D01*
G37*
G36*
X-95396335Y-19627622D02*
X-95322778Y-19634867D01*
X-95181214Y-19677810D01*
X-95050748Y-19747546D01*
X-94936394Y-19841394D01*
X-94842546Y-19955748D01*
X-94772810Y-20086214D01*
X-94729867Y-20227778D01*
X-94715367Y-20375000D01*
X-94729867Y-20522222D01*
X-94772810Y-20663786D01*
X-94842546Y-20794252D01*
X-94936394Y-20908606D01*
X-95050748Y-21002454D01*
X-95181214Y-21072190D01*
X-95322778Y-21115133D01*
X-95396335Y-21122378D01*
X-95433112Y-21126000D01*
X-95506888Y-21126000D01*
X-95543665Y-21122378D01*
X-95617222Y-21115133D01*
X-95758786Y-21072190D01*
X-95889252Y-21002454D01*
X-96003606Y-20908606D01*
X-96097454Y-20794252D01*
X-96167190Y-20663786D01*
X-96210133Y-20522222D01*
X-96224633Y-20375000D01*
X-96210133Y-20227778D01*
X-96167190Y-20086214D01*
X-96097454Y-19955748D01*
X-96003606Y-19841394D01*
X-95889252Y-19747546D01*
X-95758786Y-19677810D01*
X-95617222Y-19634867D01*
X-95543665Y-19627622D01*
X-95506888Y-19624000D01*
X-95433112Y-19624000D01*
X-95396335Y-19627622D01*
X-95396335Y-19627622D01*
G37*
G36*
X-87721400Y-19634867D02*
X-87630941Y-19652860D01*
X-87494268Y-19709472D01*
X-87437285Y-19747547D01*
X-87371262Y-19791662D01*
X-87266662Y-19896262D01*
X-87266660Y-19896265D01*
X-87184472Y-20019268D01*
X-87127860Y-20155941D01*
X-87099000Y-20301033D01*
X-87099000Y-20448967D01*
X-87127860Y-20594059D01*
X-87184472Y-20730732D01*
X-87265554Y-20852079D01*
X-87266662Y-20853738D01*
X-87371262Y-20958338D01*
X-87371265Y-20958340D01*
X-87494268Y-21040528D01*
X-87630941Y-21097140D01*
X-87717996Y-21114456D01*
X-87776031Y-21126000D01*
X-87923969Y-21126000D01*
X-87982004Y-21114456D01*
X-88069059Y-21097140D01*
X-88205732Y-21040528D01*
X-88328735Y-20958340D01*
X-88328738Y-20958338D01*
X-88433338Y-20853738D01*
X-88434446Y-20852079D01*
X-88515528Y-20730732D01*
X-88572140Y-20594059D01*
X-88601000Y-20448967D01*
X-88601000Y-20301033D01*
X-88572140Y-20155941D01*
X-88515528Y-20019268D01*
X-88433340Y-19896265D01*
X-88433338Y-19896262D01*
X-88328738Y-19791662D01*
X-88262715Y-19747547D01*
X-88205732Y-19709472D01*
X-88069059Y-19652860D01*
X-87978600Y-19634867D01*
X-87923969Y-19624000D01*
X-87776031Y-19624000D01*
X-87721400Y-19634867D01*
X-87721400Y-19634867D01*
G37*
G36*
X-99691357Y-18504781D02*
X-99545585Y-18565162D01*
X-99414389Y-18652824D01*
X-99302824Y-18764389D01*
X-99215162Y-18895585D01*
X-99154781Y-19041357D01*
X-99124000Y-19196107D01*
X-99124000Y-19353893D01*
X-99154781Y-19508643D01*
X-99215162Y-19654415D01*
X-99302824Y-19785611D01*
X-99414389Y-19897176D01*
X-99545585Y-19984838D01*
X-99691357Y-20045219D01*
X-99846107Y-20076000D01*
X-100003893Y-20076000D01*
X-100158643Y-20045219D01*
X-100304415Y-19984838D01*
X-100435611Y-19897176D01*
X-100547176Y-19785611D01*
X-100634838Y-19654415D01*
X-100695219Y-19508643D01*
X-100726000Y-19353893D01*
X-100726000Y-19196107D01*
X-100695219Y-19041357D01*
X-100634838Y-18895585D01*
X-100547176Y-18764389D01*
X-100435611Y-18652824D01*
X-100304415Y-18565162D01*
X-100158643Y-18504781D01*
X-100003893Y-18474000D01*
X-99846107Y-18474000D01*
X-99691357Y-18504781D01*
X-99691357Y-18504781D01*
G37*
G36*
X-117919558Y-17115518D02*
X-117853373Y-17122037D01*
X-117780984Y-17143996D01*
X-117683533Y-17173557D01*
X-117544913Y-17247652D01*
X-117527009Y-17257222D01*
X-117506565Y-17274000D01*
X-117389814Y-17369814D01*
X-117330851Y-17441662D01*
X-117277222Y-17507009D01*
X-117277221Y-17507011D01*
X-117193557Y-17663533D01*
X-117186082Y-17688175D01*
X-117142037Y-17833373D01*
X-117124641Y-18010000D01*
X-117142037Y-18186627D01*
X-117159458Y-18244056D01*
X-117193557Y-18356467D01*
X-117206528Y-18380733D01*
X-117277222Y-18512991D01*
X-117306552Y-18548729D01*
X-117389814Y-18650186D01*
X-117491271Y-18733448D01*
X-117527009Y-18762778D01*
X-117527011Y-18762779D01*
X-117683533Y-18846443D01*
X-117740147Y-18863616D01*
X-117853373Y-18897963D01*
X-117919557Y-18904481D01*
X-117985740Y-18911000D01*
X-118074260Y-18911000D01*
X-118140442Y-18904482D01*
X-118206627Y-18897963D01*
X-118319853Y-18863616D01*
X-118376467Y-18846443D01*
X-118532989Y-18762779D01*
X-118532991Y-18762778D01*
X-118568729Y-18733448D01*
X-118670186Y-18650186D01*
X-118753448Y-18548729D01*
X-118782778Y-18512991D01*
X-118853472Y-18380733D01*
X-118866443Y-18356467D01*
X-118900542Y-18244056D01*
X-118917963Y-18186627D01*
X-118935359Y-18010000D01*
X-118917963Y-17833373D01*
X-118873918Y-17688175D01*
X-118866443Y-17663533D01*
X-118782779Y-17507011D01*
X-118782778Y-17507009D01*
X-118729149Y-17441662D01*
X-118670186Y-17369814D01*
X-118553435Y-17274000D01*
X-118532991Y-17257222D01*
X-118515087Y-17247652D01*
X-118376467Y-17173557D01*
X-118279016Y-17143996D01*
X-118206627Y-17122037D01*
X-118140443Y-17115519D01*
X-118074260Y-17109000D01*
X-117985740Y-17109000D01*
X-117919558Y-17115518D01*
X-117919558Y-17115518D01*
G37*
G36*
X-95421335Y-17277622D02*
X-95347778Y-17284867D01*
X-95206214Y-17327810D01*
X-95075748Y-17397546D01*
X-94961394Y-17491394D01*
X-94867546Y-17605748D01*
X-94797810Y-17736214D01*
X-94754867Y-17877778D01*
X-94740367Y-18025000D01*
X-94754867Y-18172222D01*
X-94797810Y-18313786D01*
X-94867546Y-18444252D01*
X-94961394Y-18558606D01*
X-95075748Y-18652454D01*
X-95206214Y-18722190D01*
X-95347778Y-18765133D01*
X-95421335Y-18772378D01*
X-95458112Y-18776000D01*
X-95531888Y-18776000D01*
X-95568665Y-18772378D01*
X-95642222Y-18765133D01*
X-95783786Y-18722190D01*
X-95914252Y-18652454D01*
X-96028606Y-18558606D01*
X-96122454Y-18444252D01*
X-96192190Y-18313786D01*
X-96235133Y-18172222D01*
X-96249633Y-18025000D01*
X-96235133Y-17877778D01*
X-96192190Y-17736214D01*
X-96122454Y-17605748D01*
X-96028606Y-17491394D01*
X-95914252Y-17397546D01*
X-95783786Y-17327810D01*
X-95642222Y-17284867D01*
X-95568665Y-17277622D01*
X-95531888Y-17274000D01*
X-95458112Y-17274000D01*
X-95421335Y-17277622D01*
X-95421335Y-17277622D01*
G37*
G36*
X-87746400Y-17284867D02*
X-87655941Y-17302860D01*
X-87519268Y-17359472D01*
X-87462285Y-17397547D01*
X-87396262Y-17441662D01*
X-87291662Y-17546262D01*
X-87291660Y-17546265D01*
X-87209472Y-17669268D01*
X-87152860Y-17805941D01*
X-87124000Y-17951033D01*
X-87124000Y-18098967D01*
X-87152860Y-18244059D01*
X-87209472Y-18380732D01*
X-87262209Y-18459659D01*
X-87291662Y-18503738D01*
X-87396262Y-18608338D01*
X-87396265Y-18608340D01*
X-87519268Y-18690528D01*
X-87655941Y-18747140D01*
X-87734560Y-18762778D01*
X-87801031Y-18776000D01*
X-87948969Y-18776000D01*
X-88015440Y-18762778D01*
X-88094059Y-18747140D01*
X-88230732Y-18690528D01*
X-88353735Y-18608340D01*
X-88353738Y-18608338D01*
X-88458338Y-18503738D01*
X-88487791Y-18459659D01*
X-88540528Y-18380732D01*
X-88597140Y-18244059D01*
X-88626000Y-18098967D01*
X-88626000Y-17951033D01*
X-88597140Y-17805941D01*
X-88540528Y-17669268D01*
X-88458340Y-17546265D01*
X-88458338Y-17546262D01*
X-88353738Y-17441662D01*
X-88287715Y-17397547D01*
X-88230732Y-17359472D01*
X-88094059Y-17302860D01*
X-88003600Y-17284867D01*
X-87948969Y-17274000D01*
X-87801031Y-17274000D01*
X-87746400Y-17284867D01*
X-87746400Y-17284867D01*
G37*
G36*
X-111953179Y-17016313D02*
X-111953176Y-17016314D01*
X-111953175Y-17016314D01*
X-111792761Y-17064975D01*
X-111792759Y-17064976D01*
X-111792756Y-17064977D01*
X-111644922Y-17143995D01*
X-111515341Y-17250341D01*
X-111408995Y-17379922D01*
X-111329977Y-17527756D01*
X-111329976Y-17527759D01*
X-111329975Y-17527761D01*
X-111281314Y-17688175D01*
X-111281313Y-17688179D01*
X-111264883Y-17855000D01*
X-111281313Y-18021821D01*
X-111281314Y-18021824D01*
X-111281314Y-18021825D01*
X-111326936Y-18172222D01*
X-111329977Y-18182244D01*
X-111408995Y-18330078D01*
X-111515341Y-18459659D01*
X-111644922Y-18566005D01*
X-111792756Y-18645023D01*
X-111792759Y-18645024D01*
X-111792761Y-18645025D01*
X-111953175Y-18693686D01*
X-111953176Y-18693686D01*
X-111953179Y-18693687D01*
X-112078196Y-18706000D01*
X-112161804Y-18706000D01*
X-112286821Y-18693687D01*
X-112286824Y-18693686D01*
X-112286825Y-18693686D01*
X-112447239Y-18645025D01*
X-112447241Y-18645024D01*
X-112447244Y-18645023D01*
X-112595078Y-18566005D01*
X-112724659Y-18459659D01*
X-112831005Y-18330078D01*
X-112910023Y-18182244D01*
X-112913063Y-18172222D01*
X-112958686Y-18021825D01*
X-112958686Y-18021824D01*
X-112958687Y-18021821D01*
X-112975117Y-17855000D01*
X-112958687Y-17688179D01*
X-112958686Y-17688175D01*
X-112910025Y-17527761D01*
X-112910024Y-17527759D01*
X-112910023Y-17527756D01*
X-112831005Y-17379922D01*
X-112724659Y-17250341D01*
X-112595078Y-17143995D01*
X-112447244Y-17064977D01*
X-112447241Y-17064976D01*
X-112447239Y-17064975D01*
X-112286825Y-17016314D01*
X-112286824Y-17016314D01*
X-112286821Y-17016313D01*
X-112161804Y-17004000D01*
X-112078196Y-17004000D01*
X-111953179Y-17016313D01*
X-111953179Y-17016313D01*
G37*
G36*
X-104333179Y-17016313D02*
X-104333176Y-17016314D01*
X-104333175Y-17016314D01*
X-104172761Y-17064975D01*
X-104172759Y-17064976D01*
X-104172756Y-17064977D01*
X-104024922Y-17143995D01*
X-103895341Y-17250341D01*
X-103788995Y-17379922D01*
X-103709977Y-17527756D01*
X-103709976Y-17527759D01*
X-103709975Y-17527761D01*
X-103661314Y-17688175D01*
X-103661313Y-17688179D01*
X-103644883Y-17855000D01*
X-103661313Y-18021821D01*
X-103661314Y-18021824D01*
X-103661314Y-18021825D01*
X-103706936Y-18172222D01*
X-103709977Y-18182244D01*
X-103788995Y-18330078D01*
X-103895341Y-18459659D01*
X-104024922Y-18566005D01*
X-104172756Y-18645023D01*
X-104172759Y-18645024D01*
X-104172761Y-18645025D01*
X-104333175Y-18693686D01*
X-104333176Y-18693686D01*
X-104333179Y-18693687D01*
X-104458196Y-18706000D01*
X-104541804Y-18706000D01*
X-104666821Y-18693687D01*
X-104666824Y-18693686D01*
X-104666825Y-18693686D01*
X-104827239Y-18645025D01*
X-104827241Y-18645024D01*
X-104827244Y-18645023D01*
X-104975078Y-18566005D01*
X-105104659Y-18459659D01*
X-105211005Y-18330078D01*
X-105290023Y-18182244D01*
X-105293063Y-18172222D01*
X-105338686Y-18021825D01*
X-105338686Y-18021824D01*
X-105338687Y-18021821D01*
X-105355117Y-17855000D01*
X-105338687Y-17688179D01*
X-105338686Y-17688175D01*
X-105290025Y-17527761D01*
X-105290024Y-17527759D01*
X-105290023Y-17527756D01*
X-105211005Y-17379922D01*
X-105104659Y-17250341D01*
X-104975078Y-17143995D01*
X-104827244Y-17064977D01*
X-104827241Y-17064976D01*
X-104827239Y-17064975D01*
X-104666825Y-17016314D01*
X-104666824Y-17016314D01*
X-104666821Y-17016313D01*
X-104541804Y-17004000D01*
X-104458196Y-17004000D01*
X-104333179Y-17016313D01*
X-104333179Y-17016313D01*
G37*
G36*
X-123119000Y-17171000D02*
X-125821000Y-17171000D01*
X-125821000Y-14469000D01*
X-123119000Y-14469000D01*
X-123119000Y-17171000D01*
X-123119000Y-17171000D01*
G37*
G36*
X-117919557Y-14575519D02*
X-117853373Y-14582037D01*
X-117740147Y-14616384D01*
X-117683533Y-14633557D01*
X-117544913Y-14707652D01*
X-117527009Y-14717222D01*
X-117491271Y-14746552D01*
X-117389814Y-14829814D01*
X-117306552Y-14931271D01*
X-117277222Y-14967009D01*
X-117277221Y-14967011D01*
X-117193557Y-15123533D01*
X-117193557Y-15123534D01*
X-117142037Y-15293373D01*
X-117124641Y-15470000D01*
X-117142037Y-15646627D01*
X-117176384Y-15759853D01*
X-117193557Y-15816467D01*
X-117267652Y-15955087D01*
X-117277222Y-15972991D01*
X-117306552Y-16008729D01*
X-117389814Y-16110186D01*
X-117491271Y-16193448D01*
X-117527009Y-16222778D01*
X-117527011Y-16222779D01*
X-117683533Y-16306443D01*
X-117740147Y-16323616D01*
X-117853373Y-16357963D01*
X-117919557Y-16364481D01*
X-117985740Y-16371000D01*
X-118074260Y-16371000D01*
X-118140443Y-16364481D01*
X-118206627Y-16357963D01*
X-118319853Y-16323616D01*
X-118376467Y-16306443D01*
X-118532989Y-16222779D01*
X-118532991Y-16222778D01*
X-118568729Y-16193448D01*
X-118670186Y-16110186D01*
X-118753448Y-16008729D01*
X-118782778Y-15972991D01*
X-118792348Y-15955087D01*
X-118866443Y-15816467D01*
X-118883616Y-15759853D01*
X-118917963Y-15646627D01*
X-118935359Y-15470000D01*
X-118917963Y-15293373D01*
X-118866443Y-15123534D01*
X-118866443Y-15123533D01*
X-118782779Y-14967011D01*
X-118782778Y-14967009D01*
X-118753448Y-14931271D01*
X-118670186Y-14829814D01*
X-118568729Y-14746552D01*
X-118532991Y-14717222D01*
X-118515087Y-14707652D01*
X-118376467Y-14633557D01*
X-118319853Y-14616384D01*
X-118206627Y-14582037D01*
X-118140443Y-14575519D01*
X-118074260Y-14569000D01*
X-117985740Y-14569000D01*
X-117919557Y-14575519D01*
X-117919557Y-14575519D01*
G37*
G36*
X-88074000Y-12976000D02*
X-89976000Y-12976000D01*
X-89976000Y-11074000D01*
X-88074000Y-11074000D01*
X-88074000Y-12976000D01*
X-88074000Y-12976000D01*
G37*
G36*
X-121084000Y-12696000D02*
X-122186000Y-12696000D01*
X-122186000Y-9594000D01*
X-121084000Y-9594000D01*
X-121084000Y-12696000D01*
X-121084000Y-12696000D01*
G37*
G36*
X-123624000Y-12696000D02*
X-124726000Y-12696000D01*
X-124726000Y-9594000D01*
X-123624000Y-9594000D01*
X-123624000Y-12696000D01*
X-123624000Y-12696000D01*
G37*
G36*
X-126164000Y-12696000D02*
X-127266000Y-12696000D01*
X-127266000Y-9594000D01*
X-126164000Y-9594000D01*
X-126164000Y-12696000D01*
X-126164000Y-12696000D01*
G37*
G36*
X-88747604Y-8570546D02*
X-88574534Y-8642234D01*
X-88418770Y-8746312D01*
X-88286312Y-8878770D01*
X-88182234Y-9034534D01*
X-88110546Y-9207604D01*
X-88074000Y-9391333D01*
X-88074000Y-9578667D01*
X-88110546Y-9762396D01*
X-88182234Y-9935466D01*
X-88286312Y-10091230D01*
X-88418770Y-10223688D01*
X-88574534Y-10327766D01*
X-88747604Y-10399454D01*
X-88931333Y-10436000D01*
X-89118667Y-10436000D01*
X-89302396Y-10399454D01*
X-89475466Y-10327766D01*
X-89631230Y-10223688D01*
X-89763688Y-10091230D01*
X-89867766Y-9935466D01*
X-89939454Y-9762396D01*
X-89976000Y-9578667D01*
X-89976000Y-9391333D01*
X-89939454Y-9207604D01*
X-89867766Y-9034534D01*
X-89763688Y-8878770D01*
X-89631230Y-8746312D01*
X-89475466Y-8642234D01*
X-89302396Y-8570546D01*
X-89118667Y-8534000D01*
X-88931333Y-8534000D01*
X-88747604Y-8570546D01*
X-88747604Y-8570546D01*
G37*
G36*
X-126164000Y-7656000D02*
X-127266000Y-7656000D01*
X-127266000Y-4554000D01*
X-126164000Y-4554000D01*
X-126164000Y-7656000D01*
X-126164000Y-7656000D01*
G37*
G36*
X-121084000Y-7656000D02*
X-122186000Y-7656000D01*
X-122186000Y-4554000D01*
X-121084000Y-4554000D01*
X-121084000Y-7656000D01*
X-121084000Y-7656000D01*
G37*
G36*
X-123624000Y-7656000D02*
X-124726000Y-7656000D01*
X-124726000Y-4554000D01*
X-123624000Y-4554000D01*
X-123624000Y-7656000D01*
X-123624000Y-7656000D01*
G37*
G36*
X-117129000Y-2772000D02*
X-118581000Y-2772000D01*
X-118581000Y1530000D01*
X-117129000Y1530000D01*
X-117129000Y-2772000D01*
X-117129000Y-2772000D01*
G37*
G36*
X-122779000Y-2772000D02*
X-124231000Y-2772000D01*
X-124231000Y1530000D01*
X-122779000Y1530000D01*
X-122779000Y-2772000D01*
X-122779000Y-2772000D01*
G37*
G36*
X-128231567Y140107D02*
X-128141343Y122161D01*
X-128035733Y78415D01*
X-127886379Y16551D01*
X-127656911Y-136774D01*
X-127461774Y-331911D01*
X-127308449Y-561379D01*
X-127202839Y-816344D01*
X-127149000Y-1087012D01*
X-127149000Y-1362988D01*
X-127202839Y-1633656D01*
X-127308449Y-1888621D01*
X-127461774Y-2118089D01*
X-127656911Y-2313226D01*
X-127886379Y-2466551D01*
X-128035733Y-2528415D01*
X-128141343Y-2572161D01*
X-128231567Y-2590107D01*
X-128412012Y-2626000D01*
X-128687988Y-2626000D01*
X-128868433Y-2590107D01*
X-128958657Y-2572161D01*
X-129064267Y-2528415D01*
X-129213621Y-2466551D01*
X-129443089Y-2313226D01*
X-129638226Y-2118089D01*
X-129791551Y-1888621D01*
X-129897161Y-1633656D01*
X-129951000Y-1362988D01*
X-129951000Y-1087012D01*
X-129897161Y-816344D01*
X-129791551Y-561379D01*
X-129638226Y-331911D01*
X-129443089Y-136774D01*
X-129213621Y16551D01*
X-129064267Y78415D01*
X-128958657Y122161D01*
X-128868433Y140107D01*
X-128687988Y176000D01*
X-128412012Y176000D01*
X-128231567Y140107D01*
X-128231567Y140107D01*
G37*
G36*
X-87481567Y140107D02*
X-87391343Y122161D01*
X-87285733Y78415D01*
X-87136379Y16551D01*
X-86906911Y-136774D01*
X-86711774Y-331911D01*
X-86558449Y-561379D01*
X-86452839Y-816344D01*
X-86399000Y-1087012D01*
X-86399000Y-1362988D01*
X-86452839Y-1633656D01*
X-86558449Y-1888621D01*
X-86711774Y-2118089D01*
X-86906911Y-2313226D01*
X-87136379Y-2466551D01*
X-87285733Y-2528415D01*
X-87391343Y-2572161D01*
X-87481567Y-2590107D01*
X-87662012Y-2626000D01*
X-87937988Y-2626000D01*
X-88118433Y-2590107D01*
X-88208657Y-2572161D01*
X-88314267Y-2528415D01*
X-88463621Y-2466551D01*
X-88693089Y-2313226D01*
X-88888226Y-2118089D01*
X-89041551Y-1888621D01*
X-89147161Y-1633656D01*
X-89201000Y-1362988D01*
X-89201000Y-1087012D01*
X-89147161Y-816344D01*
X-89041551Y-561379D01*
X-88888226Y-331911D01*
X-88693089Y-136774D01*
X-88463621Y16551D01*
X-88314267Y78415D01*
X-88208657Y122161D01*
X-88118433Y140107D01*
X-87937988Y176000D01*
X-87662012Y176000D01*
X-87481567Y140107D01*
X-87481567Y140107D01*
G37*
G36*
X-113683000Y-1268000D02*
X-115485000Y-1268000D01*
X-115485000Y534000D01*
X-113683000Y534000D01*
X-113683000Y-1268000D01*
X-113683000Y-1268000D01*
G37*
M02*
